<?xml version="1.0" standalone="no"?>
<!DOCTYPE svg PUBLIC "-//W3C//DTD SVG 1.1//EN" "http://www.w3.org/Graphics/SVG/1.1/DTD/svg11.dtd" >
<svg xmlns="http://www.w3.org/2000/svg">
<metadata></metadata>
<defs>
<font id="max-lightscexpertregular" horiz-adv-x="1433" >
<font-face units-per-em="2048" ascent="1638" descent="-410" />
<missing-glyph horiz-adv-x="634" />
<glyph horiz-adv-x="0" />
<glyph horiz-adv-x="682" />
<glyph unicode=" "  horiz-adv-x="634" />
<glyph unicode="&#x09;" horiz-adv-x="634" />
<glyph unicode="&#xa0;" horiz-adv-x="634" />
<glyph unicode="!" horiz-adv-x="532" d="M190 -328v697q0 13 8.5 21.5t22.5 8.5h92q14 0 22.5 -8.5t8.5 -21.5v-697q0 -12 -9 -21t-22 -9h-92q-14 0 -22.5 8.5t-8.5 21.5zM190 655v697q0 13 8.5 21.5t22.5 8.5h92q13 0 22 -9t9 -21v-697q0 -12 -9 -21t-22 -9h-92q-14 0 -22.5 8.5t-8.5 21.5z" />
<glyph unicode="&#x22;" horiz-adv-x="995" d="M150 1376q0 10 8 15l276 206q5 5 10 5q9 0 15 -9l55 -67q2 -2 2 -10q0 -9 -6 -15l-279 -207q-4 -4 -10 -4t-14 8l-53 68q-4 4 -4 10zM477 1376q0 10 8 15l277 206q5 5 10 5q8 0 14 -9l56 -67q2 -2 2 -10q0 -9 -6 -15l-279 -207q-4 -4 -10 -4t-14 8l-54 68q-4 4 -4 10z " />
<glyph unicode="#" horiz-adv-x="1196" d="M156 797q0 8 12 20q146 121 260 121q64 0 168 -49q8 -4 43 -20.5t47 -21.5t35.5 -11.5t42.5 -6.5q31 0 65 15t56.5 30.5t56.5 43.5q12 8 23 8q9 0 20 -15l51 -80q2 -4 2 -16t-12 -20q-52 -45 -121.5 -84t-136.5 -39q-66 0 -170 49q-6 3 -34 16.5t-37 17.5t-29.5 12 t-35.5 10.5t-30 2.5q-74 0 -178 -88q-12 -8 -23 -8q-8 0 -20 16l-51 80q-4 8 -4 17zM158 477q0 9 12 21q50 43 120.5 81.5t137.5 38.5q66 0 170 -49q12 -5 35 -16t35.5 -16.5t31 -12t34 -9.5t30.5 -3q32 0 66.5 14.5t56.5 30t55 41.5q15 10 23 10t20 -16l51 -80q4 -8 4 -16 q0 -9 -12 -21q-148 -123 -260 -123q-60 0 -168 51q-14 6 -44 20t-45 20t-37.5 12t-41.5 6q-44 0 -85 -23t-93 -65q-2 -1 -6.5 -3t-8.5 -3.5t-8 -1.5q-8 0 -20 16l-51 80q-2 4 -2 16z" />
<glyph unicode="$" horiz-adv-x="755" d="M125 -188q0 7 10 14l164 74v1667q0 8 5.5 17.5t12.5 10.5l254 80q1 0 3.5 1t3.5 1q10 0 14 -12l39 -90v-6q0 -12 -10 -19l-162 -71v-1669q0 -8 -6 -18t-13 -11l-256 -80h-6q-8 0 -14 12l-37 90q-2 2 -2 9z" />
<glyph unicode="%" horiz-adv-x="1196" d="M154 270v99q0 13 8 21.5t22 8.5h828q14 0 22 -8.5t8 -21.5v-99q0 -13 -9 -21.5t-21 -8.5h-828q-12 0 -21 8.5t-9 21.5zM154 590v98q0 14 8.5 22.5t21.5 8.5h828q13 0 21.5 -8.5t8.5 -22.5v-98q0 -13 -9 -22t-21 -9h-828q-12 0 -21 9t-9 22zM156 961q0 8 12 20 q146 121 260 121q64 0 168 -49q8 -4 43 -20.5t47 -21.5t35.5 -11.5t42.5 -6.5q44 0 85 23t93 65q14 9 23 9t20 -15l51 -80q2 -4 2 -16q0 -13 -12 -21q-51 -44 -121 -83t-137 -39q-66 0 -170 49q-6 3 -34 16.5t-37 17.5t-29.5 12t-35.5 10.5t-30 2.5q-74 0 -178 -88 q-12 -8 -23 -8q-8 0 -20 16l-51 80q-4 8 -4 17z" />
<glyph unicode="&#x26;" horiz-adv-x="1196" d="M123 33v123q0 20 6 26l406 576l-406 573q-6 6 -6 27v123q0 13 10.5 22.5t22.5 9.5h878q14 0 23.5 -9.5t9.5 -22.5v-88q0 -13 -9.5 -23t-23.5 -10h-723l410 -588q2 -4 2 -14q0 -11 -4 -19l-412 -585h733q14 0 23.5 -10t9.5 -23v-88q0 -13 -9.5 -23t-23.5 -10h-882 q-14 0 -24.5 10t-10.5 23z" />
<glyph unicode="'" d="M270 809l441 442l442 -442l-442 -440zM502 809l104 -104l211 210l105 -106l-211 -209l106 -104l313 313l-419 420l-105 -105l105 -104z" />
<glyph unicode="(" d="M270 809l441 442l442 -442l-442 -440zM502 809l104 -104l211 210l105 -106l-211 -209l106 -104l313 313l-419 420l-105 -105l105 -104z" />
<glyph unicode=")" d="M270 809l441 442l442 -442l-442 -440zM502 809l104 -104l211 210l105 -106l-211 -209l106 -104l313 313l-419 420l-105 -105l105 -104z" />
<glyph unicode="*" d="M270 809l441 442l442 -442l-442 -440zM502 809l104 -104l211 210l105 -106l-211 -209l106 -104l313 313l-419 420l-105 -105l105 -104z" />
<glyph unicode="+" d="M270 809l441 442l442 -442l-442 -440zM502 809l104 -104l211 210l105 -106l-211 -209l106 -104l313 313l-419 420l-105 -105l105 -104z" />
<glyph unicode="," horiz-adv-x="786" d="M154 1462q0 118 59.5 168.5t179.5 50.5q121 0 180.5 -50.5t59.5 -168.5t-59.5 -169.5t-180.5 -51.5q-120 0 -179.5 51.5t-59.5 169.5zM279 1460q0 -76 23 -106.5t91 -30.5t91.5 31.5t23.5 107.5q0 75 -23.5 106t-91.5 31t-91 -31t-23 -108z" />
<glyph unicode="-" horiz-adv-x="1196" d="M186 621v92q0 13 8.5 21.5t22.5 8.5h762q14 0 22.5 -8.5t8.5 -21.5v-92q0 -13 -9 -22t-22 -9h-762q-13 0 -22 9t-9 22z" />
<glyph unicode="." horiz-adv-x="546" d="M154 1384v91q0 13 8 21.5t22 8.5h181q13 0 21.5 -8.5t8.5 -21.5v-91q0 -14 -8.5 -22t-21.5 -8h-181q-14 0 -22 8t-8 22z" />
<glyph unicode="/" horiz-adv-x="311" d="M-383 59q0 3 4 11l971 1439q6 9 16 9l10 -5l68 -47q8 -3 8 -14q0 -4 -4 -12l-971 -1440q-6 -6 -16 -6q-6 0 -8 2l-70 47q-8 8 -8 16z" />
<glyph unicode="0" horiz-adv-x="1021" d="M113 1071q0 56 3 100.5t13.5 95t27.5 88.5t47 74.5t71 59.5t101 37t134 14q103 0 178 -27t116.5 -69t66 -107t31.5 -125.5t7 -140.5q0 -56 -3.5 -101t-13.5 -96t-27.5 -89t-48 -74t-71.5 -59.5t-101 -37.5t-134 -14t-133.5 14t-101 37.5t-71.5 59.5t-47 74t-27.5 89 t-13.5 95.5t-3 101.5zM254 1071q0 -73 5 -123t20.5 -97.5t43 -75t74.5 -44t113 -16.5q82 0 134.5 23t79 73t35.5 109t9 151q0 91 -9 150t-35.5 108.5t-79 72.5t-134.5 23q-66 0 -113 -16.5t-74.5 -44t-43 -74.5t-20.5 -96.5t-5 -122.5z" />
<glyph unicode="1" horiz-adv-x="567" d="M41 1421v58q0 11 3.5 16.5t6.5 7t10 2.5l277 35h2q11 0 18 -7t7 -17v-881q0 -25 -29 -25h-78q-27 0 -27 25v754l-163 8q-20 3 -24 9q-3 5 -3 15z" />
<glyph unicode="2" horiz-adv-x="907" d="M111 1464q0 19 20 27q19 7 51 16.5t106.5 21t151.5 11.5q61 0 110.5 -7.5t94.5 -26.5t75 -50t48 -80.5t18 -115.5q0 -32 -8.5 -62.5t-18.5 -54t-33 -50.5t-37 -42.5t-46.5 -40.5t-46.5 -35t-51.5 -35l-46.5 -31l-224 -149v-29h510q23 0 23 -26v-68q0 -27 -23 -27h-612 q-27 0 -27 23v112q0 65 48 101l229 160q9 7 52.5 36t64 45.5t51 46t44 60t13.5 63.5q0 98 -54.5 132t-164.5 34q-102 0 -268 -45h-8q-22 0 -25 23l-14 55q0 2 -1 4.5t-1 3.5z" />
<glyph unicode="3" horiz-adv-x="905" d="M111 1468q0 12 20 21q46 20 132.5 35.5t189.5 15.5q155 0 239 -62.5t84 -179.5q0 -88 -45 -132t-135 -64v-33q98 -16 148.5 -65.5t50.5 -145.5q0 -71 -29.5 -123.5t-81 -80.5t-110 -41t-125.5 -13q-66 0 -132.5 6.5t-99.5 13t-43 9.5q-22 9 -22 24v6l12 70q3 14 18 14 q3 0 9.5 -1t9.5 -1q110 -22 233 -22q40 0 75 6t70 20.5t55.5 45t20.5 73.5t-13 72t-40 45.5t-54 24.5t-69 14q-74 8 -117 12q-30 4 -30 25v53q0 23 28 23q76 8 121 16t84.5 24.5t56.5 44t17 68.5q0 74 -53 104.5t-154 30.5q-52 0 -109 -8.5t-78.5 -14t-78.5 -20.5 q-6 -2 -16 -2q-16 0 -23 17l-14 63q-2 6 -2 12z" />
<glyph unicode="4" horiz-adv-x="1013" d="M113 858v72q0 16 6 24l411 566q8 12 23 12h184q27 0 27 -25v-563h115q24 0 24 -29v-57q0 -29 -24 -29h-115v-194q0 -25 -27 -25h-75q-29 0 -29 25v194h-496q-24 0 -24 29zM252 944h381v477h-41z" />
<glyph unicode="5" horiz-adv-x="886" d="M113 1042v2l30 474q0 4 6 9t11 5h555q8 0 13 -6t5 -15v-75q0 -19 -18 -19h-447l-16 -266q94 33 178 33q99 0 174 -28.5t122.5 -96t47.5 -168.5q0 -144 -97 -217.5t-263 -73.5q-98 0 -180.5 12t-102.5 21q-12 6 -12 14q2 2 2 4l10 80q3 10 12 10h4q121 -22 261 -22 q227 0 227 174q0 75 -50 123.5t-159 48.5q-34 0 -82 -6t-83.5 -13t-72 -14.5t-38.5 -7.5q-1 0 -4.5 -1t-4.5 -1q-12 0 -18 6q-10 10 -10 14z" />
<glyph unicode="6" horiz-adv-x="956" d="M113 1069v8q0 91 9.5 157.5t36 127t72 98t119.5 59t176 21.5q64 0 125 -7t90 -15l29 -7q4 0 8 -3.5t4 -8.5l-14 -92q0 -10 -12 -10q-2 0 -2 2q-9 2 -30.5 5.5t-28.5 5t-24 4t-24.5 3.5t-22.5 2.5t-26.5 2t-27 1t-33.5 0.5q-153 0 -217.5 -59.5t-67.5 -210.5 q117 47 242 47q164 0 257 -73t93 -228q0 -150 -97 -224.5t-266 -74.5q-90 0 -154 19t-105 54.5t-65 95t-33.5 130t-10.5 170.5zM250 997q0 -155 53.5 -218.5t179.5 -63.5q113 0 167.5 45t54.5 141q0 186 -220 186q-124 0 -233 -38v-25q0 -5 -1 -14t-1 -13z" />
<glyph unicode="7" horiz-adv-x="833" d="M41 1436v75q0 21 20 21h678q9 0 15 -6t6 -15v-88q0 -17 -8 -28q-170 -208 -261 -375.5t-172 -394.5q-2 -4 -8.5 -9.5t-13.5 -5.5h-100q-23 0 -23 17q0 4 2 6q67 202 183 410t259 372h-557q-9 0 -14.5 6.5t-5.5 14.5z" />
<glyph unicode="8" horiz-adv-x="993" d="M113 864q0 52 20.5 91.5t53.5 62t68 34t71 13.5v35l-22 4q-22 3 -40 7.5t-44.5 18.5t-45 33t-32 53t-13.5 78q0 69 31 119t85 76.5t116 38.5t135 12q74 0 136 -12t116 -38.5t85 -76.5t31 -119q0 -30 -6 -55t-16.5 -43t-23.5 -33t-29.5 -24.5t-30.5 -16.5t-31 -11 t-26.5 -6t-21.5 -3.5t-13 -1.5v-35q36 -2 71.5 -13.5t68.5 -34t54 -62t21 -91.5q0 -134 -95 -199t-290 -65q-194 0 -288.5 65.5t-94.5 198.5zM252 870q0 -84 61 -119.5t185 -35.5t183.5 35.5t59.5 119.5q0 44 -21 76t-57.5 48.5t-77.5 24t-89 7.5t-89 -7.5t-77 -24 t-57 -48.5t-21 -76zM266 1284q0 -143 230 -143q45 0 83.5 6.5t73 21.5t54.5 44.5t20 70.5q0 76 -56 108.5t-173 32.5t-174.5 -32.5t-57.5 -108.5z" />
<glyph unicode="9" horiz-adv-x="956" d="M113 1241q0 150 96.5 224.5t265.5 74.5q90 0 154 -19t105.5 -54t65.5 -94t33.5 -129.5t10.5 -170.5v-8q0 -91 -9.5 -157.5t-36.5 -127.5t-72.5 -98.5t-120 -59.5t-177.5 -22q-64 0 -125 8t-90 16l-29 7q-12 0 -12 10v2l14 92q4 8 13 8h4q56 -12 77.5 -15.5t58 -7 t81.5 -3.5q153 0 217.5 59.5t67.5 210.5q-117 -47 -242 -47q-165 0 -257.5 73t-92.5 228zM252 1239q0 -184 217 -184q121 0 236 39v51q0 155 -53 217.5t-179 62.5q-114 0 -167.5 -44.5t-53.5 -141.5z" />
<glyph unicode=":" horiz-adv-x="989" d="M154 1556q0 19 16 19h82q18 0 18 -19q3 -105 51 -148.5t173 -43.5t173.5 43.5t51.5 148.5q0 19 16 19h82q19 0 19 -19q0 -172 -83.5 -240.5t-258.5 -68.5q-174 0 -257 68.5t-83 240.5z" />
<glyph unicode=";" horiz-adv-x="937" d="M150 1516q0 6 4 10l61 71q6 9 14 9q7 0 11 -4l229 -179l229 179q8 4 11 4q7 0 16 -9l59 -71q4 -4 4 -10q0 -9 -6 -15l-278 -207h-68l-278 207q-8 5 -8 15z" />
<glyph unicode="&#x3c;" horiz-adv-x="1196" d="M123 643v121q0 15 10 20l868 402q2 2 11 2q11 0 16 -8l45 -105q2 -2 2 -10q0 -11 -10 -14l-780 -344l780 -304q10 -3 10 -14q0 -6 -2 -10l-45 -105q-5 -8 -16 -8q-9 0 -11 2l-868 357q-10 7 -10 18zM143 31v92q0 13 8.5 22t22.5 9h868q14 0 22.5 -9t8.5 -22v-92 q0 -13 -9.5 -22t-23.5 -9h-866q-14 0 -22.5 9t-8.5 22z" />
<glyph unicode="=" horiz-adv-x="1196" d="M154 459v98q0 14 8.5 22.5t21.5 8.5h828q13 0 21.5 -8.5t8.5 -22.5v-98q0 -13 -9 -22t-21 -9h-514l-170 -260q-7 -10 -17 -10q-6 0 -8 2l-59 41q-8 3 -8 14q0 6 4 10l131 203h-187q-12 0 -21 9t-9 22zM154 729v98q0 14 8.5 22.5t21.5 8.5h492l168 260q7 10 18 10 q6 0 8 -2l60 -41q6 -3 6 -14q0 -8 -2 -10l-131 -203h209q13 0 21.5 -8.5t8.5 -22.5v-98q0 -13 -9 -22t-21 -9h-828q-12 0 -21 9t-9 22z" />
<glyph unicode="&#x3e;" horiz-adv-x="1196" d="M121 389q0 11 10 14l780 304l-780 344q-10 3 -10 14q0 8 2 10l45 105q5 8 16 8q9 0 11 -2l868 -402q10 -5 10 -20v-119q0 -13 -10 -20l-868 -357q-2 -2 -11 -2q-11 0 -16 8l-45 105q-2 4 -2 10zM123 31v92q0 13 8.5 22t22.5 9h868q14 0 22.5 -9t8.5 -22v-92 q0 -13 -8.5 -22t-22.5 -9h-866q-14 0 -23.5 9t-9.5 22z" />
<glyph unicode="?" horiz-adv-x="1138" d="M90 520q0 38 1 65.5t5.5 74t13 81t26 79.5t41 77.5t60 66.5t82.5 55t110 34.5t140 13.5q166 0 277 -90q-19 140 -80.5 245.5t-156 167.5t-209 92.5t-248.5 30.5q-22 0 -31.5 7.5t-9.5 25.5v70q0 37 32 37q200 0 354 -48.5t258 -137t170 -221t95 -291.5t29 -357v-23 q0 -49 -1 -81.5t-5.5 -86t-13 -91t-25.5 -86t-40.5 -82.5t-60 -69.5t-83 -56.5t-110 -35t-139.5 -14q-88 0 -160 17.5t-121 47t-86 73t-58.5 89.5t-34.5 103.5t-17 107.5t-4 109zM260 518q0 -59 4 -104.5t14.5 -96t32.5 -86.5t55 -66t84.5 -45.5t118.5 -15.5q81 0 139 24 t90 60t50.5 94t23.5 110.5t5 125.5t-5 126t-23.5 112t-50.5 95.5t-90 60.5t-139 24q-80 0 -138 -24t-90.5 -61t-51 -95t-24 -111.5t-5.5 -126.5z" />
<glyph unicode="@" d="M270 809l441 442l442 -442l-442 -440zM502 809l104 -104l211 210l105 -106l-211 -209l106 -104l313 313l-419 420l-105 -105l105 -104z" />
<glyph unicode="A" horiz-adv-x="1021" d="M113 461q0 56 3 100.5t13.5 95t27.5 88.5t47 74.5t71 59.5t101 37t134 14q103 0 178 -27t116.5 -69t66 -107t31.5 -125.5t7 -140.5q0 -56 -3.5 -101t-13.5 -96t-27.5 -89t-48 -74t-71.5 -59.5t-101 -37.5t-134 -14t-133.5 14t-101 37.5t-71.5 59.5t-47 74t-27.5 89 t-13.5 95.5t-3 101.5zM254 461q0 -73 5 -123.5t20.5 -98t43 -75t74.5 -44t113 -16.5q82 0 134.5 23t79 73.5t35.5 109.5t9 151q0 91 -9 150t-35.5 108.5t-79 72.5t-134.5 23q-66 0 -113 -16.5t-74.5 -44t-43 -74.5t-20.5 -96.5t-5 -122.5z" />
<glyph unicode="B" horiz-adv-x="567" d="M41 811v57q0 11 3.5 17t6.5 7.5t10 2.5l277 35h2q10 0 17.5 -7t7.5 -18v-880q0 -25 -29 -25h-78q-27 0 -27 25v753l-163 8q-21 3 -25 11q-2 5 -2 14z" />
<glyph unicode="C" horiz-adv-x="907" d="M111 854q0 19 20 27q19 7 51 16.5t106.5 21t151.5 11.5t136 -12.5t108.5 -43t75.5 -87t26 -138.5q0 -32 -8 -62.5t-18.5 -54t-33 -50t-37.5 -42.5t-46.5 -40.5t-46.5 -34.5t-51 -34.5t-47 -31.5l-224 -149v-29h510q23 0 23 -27v-67q0 -27 -23 -27h-612q-27 0 -27 23v112 q0 65 48 101l229 159q8 6 52.5 36t64 46t50.5 46t44.5 60.5t13.5 63.5q0 98 -54.5 132t-164.5 34q-102 0 -268 -45h-8q-22 0 -25 23l-14 55q0 2 -1 4.5t-1 3.5z" />
<glyph unicode="D" horiz-adv-x="905" d="M111 858q0 12 20 21q46 20 132.5 35.5t189.5 15.5q155 0 239 -62.5t84 -179.5q0 -88 -45 -132t-135 -64v-33q98 -16 148.5 -65.5t50.5 -145.5q0 -71 -29.5 -123.5t-81 -80.5t-110 -41t-125.5 -13q-66 0 -132.5 6.5t-99.5 12.5t-43 9q-22 9 -22 25v6l12 70q3 14 18 14 q3 0 9.5 -1t9.5 -1q110 -22 233 -22q40 0 75 6t70 20.5t55.5 45t20.5 73.5t-13 72t-40 45.5t-54 24.5t-69 14q-74 8 -117 12q-30 4 -30 24v54q0 11 5.5 16t9.5 5.5t13 0.5q75 8 120.5 16.5t85 25t56.5 44t17 68.5q0 74 -53 104.5t-154 30.5q-52 0 -109 -8.5t-78.5 -14 t-78.5 -20.5q-6 -2 -16 -2q-17 0 -23 16l-14 64q-2 6 -2 12z" />
<glyph unicode="E" horiz-adv-x="1013" d="M113 248v71q0 17 6 25l411 565q9 13 23 13h184q27 0 27 -25v-563h115q24 0 24 -29v-57q0 -29 -24 -29h-115v-194q0 -25 -27 -25h-75q-29 0 -29 25v194h-496q-24 0 -24 29zM252 334h381v477h-41z" />
<glyph unicode="F" horiz-adv-x="886" d="M113 432v2l30 473q0 4 6 9.5t11 5.5h555q8 0 13 -6t5 -15v-76q0 -18 -18 -18h-447l-16 -266q94 32 178 32q99 0 174 -28.5t122.5 -95.5t47.5 -168q0 -144 -97 -217.5t-263 -73.5q-98 0 -180.5 12t-102.5 21q-12 6 -12 14q2 2 2 4l10 80q3 10 12 10h4q121 -22 261 -22 q227 0 227 174q0 75 -50 123.5t-159 48.5q-34 0 -82 -6t-83.5 -13t-72 -14.5t-38.5 -7.5q-1 0 -4.5 -1t-4.5 -1q-12 0 -18 6q-10 10 -10 14z" />
<glyph unicode="G" horiz-adv-x="956" d="M113 459v8q0 91 9.5 157.5t36 127t72 98t119.5 59t176 21.5q64 0 125 -7t90 -15l29 -7q4 0 8 -3.5t4 -8.5l-14 -92q0 -11 -12 -11q-2 0 -2 2q-12 2 -39.5 7t-36.5 6.5t-30 4.5t-34 4t-33.5 2t-43.5 1q-153 0 -217.5 -59.5t-67.5 -210.5q117 47 242 47q164 0 257 -73 t93 -228q0 -150 -97 -224.5t-266 -74.5q-90 0 -154 19t-105 54.5t-65 95t-33.5 130t-10.5 170.5zM250 387q0 -155 53.5 -219t179.5 -64q113 0 167.5 45.5t54.5 141.5q0 186 -220 186q-121 0 -233 -39v-24q0 -5 -1 -14t-1 -13z" />
<glyph unicode="H" horiz-adv-x="833" d="M41 825v76q0 21 20 21h678q9 0 15 -6t6 -15v-88q0 -18 -8 -29q-170 -208 -261 -375.5t-172 -394.5q-7 -14 -22 -14h-100q-23 0 -23 16q0 5 2 7q67 202 183 410t259 372h-557q-9 0 -14.5 6t-5.5 14z" />
<glyph unicode="I" horiz-adv-x="993" d="M113 254q0 52 20.5 91.5t53.5 62t68 34t71 13.5v34l-22 4q-22 4 -40 8.5t-44.5 18.5t-45 33t-32 53t-13.5 78q0 69 31 119t85 76.5t116 38.5t135 12q74 0 136 -12t116 -38.5t85 -76.5t31 -119q0 -30 -6 -55t-16.5 -43.5t-23.5 -33t-29.5 -24.5t-30.5 -16.5t-31 -11 t-26.5 -6.5t-21.5 -3.5t-13 -1.5v-34q36 -2 71.5 -13.5t68.5 -34t54 -62t21 -91.5q0 -134 -95 -199t-290 -65q-194 0 -288.5 65.5t-94.5 198.5zM252 260q0 -84 61 -120t185 -36t183.5 36t59.5 120q0 44 -21 76t-57.5 48.5t-77.5 24t-89 7.5t-89 -7.5t-77 -24t-57 -48.5 t-21 -76zM266 674q0 -54 35.5 -88t83.5 -45t111 -11q45 0 83.5 6.5t73 22t54.5 45t20 70.5q0 76 -56 108.5t-173 32.5t-174.5 -32.5t-57.5 -108.5z" />
<glyph unicode="J" horiz-adv-x="956" d="M113 631q0 150 96.5 224.5t265.5 74.5q90 0 154 -19t105.5 -54t65.5 -94t33.5 -129.5t10.5 -170.5v-8q0 -91 -9.5 -157.5t-36.5 -127.5t-72.5 -98.5t-120 -59.5t-177.5 -22q-64 0 -125 7.5t-90 14.5l-29 8q-12 0 -12 11v2l14 92q4 8 13 8h4q5 -1 27 -5.5t25.5 -5.5t21 -4 t22.5 -3.5t20 -3t23 -3t22 -1.5t27 -1h29q152 0 217 60t68 211q-117 -47 -242 -47q-165 0 -257.5 73t-92.5 228zM252 629q0 -94 57 -139.5t160 -45.5q121 0 236 39v52q0 155 -53 217.5t-179 62.5q-114 0 -167.5 -44.5t-53.5 -141.5z" />
<glyph unicode="K" horiz-adv-x="1521" d="M41 676q0 172 82.5 256t228.5 84q132 0 232 -80q19 -15 36.5 -31t39.5 -39t31.5 -33.5t37 -42t31.5 -36.5q12 13 41 46t45 51t42 42.5t50 42.5q100 80 231 80q145 0 228.5 -84t83.5 -256q0 -171 -84 -255.5t-228 -84.5q-131 0 -231 80q-30 23 -58 51t-68 73t-52 58 q-14 -15 -52 -58.5t-66.5 -72t-59.5 -51.5q-96 -80 -230 -80q-145 0 -228 84.5t-83 255.5zM184 676q0 -99 50 -149t133 -50q35 0 79.5 20.5t83.5 49.5t73 58.5t53 50.5l20 20q-7 8 -20.5 21t-52 47t-74.5 60t-81.5 47t-80.5 21q-83 0 -133 -49.5t-50 -146.5zM846 676 q7 -8 20.5 -21.5t52 -48t74 -60.5t81 -47.5t79.5 -21.5q83 0 133.5 50t50.5 149q0 97 -50.5 146.5t-133.5 49.5q-34 0 -78.5 -20t-83 -49t-72.5 -58t-53 -49z" />
<glyph unicode="L" horiz-adv-x="1202" d="M20 735v6q0 11 15 19l180 55v678q0 20 27 27l120 20h7q20 0 20 -27v-645l490 156h6q15 0 18 -12l31 -101v-6q0 -10 -21 -18l-524 -162v-565h752q13 0 23 -10t10 -23v-94q0 -13 -10 -23t-23 -10h-893q-14 0 -23.5 10t-9.5 23v639l-143 -45h-4q-16 0 -19 12z" />
<glyph unicode="M" horiz-adv-x="1241" d="M8 1393v88q0 13 9.5 22.5t23.5 9.5h1161q13 0 22 -9t9 -23v-88q0 -14 -9 -23.5t-22 -9.5h-155v-1327q0 -13 -9.5 -23t-23.5 -10h-109q-12 0 -22.5 10t-10.5 23v1327h-503v-1327q0 -13 -9.5 -23t-23.5 -10h-109q-13 0 -22.5 9.5t-9.5 23.5v1327h-154q-13 0 -23 10t-10 23z " />
<glyph unicode="N" horiz-adv-x="1609" d="M35 756q0 14 8 22l739 727q5 8 23 8q16 0 22 -6l740 -727q8 -8 8 -24q0 -17 -6 -23l-740 -727q-8 -8 -28 -8q-15 0 -21 6l-739 729q-6 3 -6 23zM258 760l551 -551l545 547l-551 549z" />
<glyph unicode="O" horiz-adv-x="1447" d="M113 821q0 85 6 156t23.5 146.5t46 135t75.5 113.5t110 90t152 57t199 21t199 -21t151.5 -57t109.5 -90t75 -113.5t45.5 -135t23.5 -146.5t6 -156q0 -95 -17.5 -184.5t-53.5 -175t-100 -153.5t-150 -105v-29l291 -49q18 -4 18 -19v-88q1 -7 -4.5 -12.5t-13.5 -5.5h-422 q-7 0 -15 8t-8 15v227q79 38 138 101t93 140t50 159t16 171q0 116 -9.5 197.5t-37 155t-75 117.5t-125 69.5t-185.5 25.5q-78 0 -139.5 -13t-107 -36t-78.5 -61t-54 -82t-33.5 -104.5t-17 -124t-4.5 -144.5q0 -89 16.5 -171t50.5 -159t92.5 -140t137.5 -101v-227 q0 -7 -8 -15t-15 -8h-422q-7 0 -12.5 5t-5.5 13v88q0 15 18 19l291 47v31q-86 37 -150 105t-100 153.5t-53.5 175t-17.5 184.5z" />
<glyph unicode="P" horiz-adv-x="1421" d="M184 33v1460q0 20 25 27l123 20h6q20 0 20 -27v-292h502q123 0 216 -24t157 -89q104 -109 104 -336q0 -236 -108 -344q-74 -72 -183.5 -96.5t-248.5 -24.5q-68 0 -97 2l-342 4v-280q0 -14 -9.5 -23.5t-22.5 -9.5h-109q-13 0 -23 10t-10 23zM358 442l347 13q10 0 29 1 q100 3 148.5 7t109 22t95.5 52q72 72 72 233q0 160 -74 231q-70 68 -258 68h-469v-627z" />
<glyph unicode="Q" d="M270 809l441 442l442 -442l-442 -440zM502 809l104 -104l211 210l105 -106l-211 -209l106 -104l313 313l-419 420l-105 -105l105 -104z" />
<glyph unicode="R" d="M270 809l441 442l442 -442l-442 -440zM502 809l104 -104l211 210l105 -106l-211 -209l106 -104l313 313l-419 420l-105 -105l105 -104z" />
<glyph unicode="S" horiz-adv-x="1345" d="M123 1114q0 422 561 422q248 0 469 -72q27 -9 27 -32v-9l-23 -90q-3 -7 -13 -12.5t-18 -5.5h-4q-5 1 -39 9t-72.5 16t-90.5 16.5t-115.5 14t-126.5 5.5q-383 0 -383 -248q0 -44 12.5 -80t32 -61.5t52.5 -46.5t64 -34t76.5 -24t80.5 -17t85 -13q178 -24 233 -37 q184 -45 253 -164q49 -86 49 -217q0 -106 -34 -187.5t-90 -131.5t-135.5 -82t-161 -44t-175.5 -12q-240 0 -471 72q-12 3 -19.5 12.5t-7.5 20.5q0 1 1 4t1 4l23 90q1 7 12 13t19 6h4q4 -1 41.5 -10t80 -17t99 -17.5t123 -15.5t129.5 -6q59 0 112 8t104 29t87.5 52.5t59 82 t22.5 115.5q0 39 -7.5 71.5t-24.5 57t-35.5 43t-50.5 32.5t-58.5 23.5t-71 18t-76 13t-84.5 11.5q-48 6 -81.5 11.5t-80.5 15.5t-80.5 21t-74 29t-69 39.5t-56.5 52.5t-45.5 67.5t-28 84t-10.5 103.5zM387 1901q0 8 4 10l60 71q9 9 16 9q2 0 10 -4l230 -179l229 179 q4 4 10 4q9 0 15 -9l61 -71q4 -4 4 -10q0 -7 -8 -15l-279 -207h-67l-279 207q-6 6 -6 15z" />
<glyph unicode="T" horiz-adv-x="1603" d="M20 727v82q0 13 9 22t22 9h164v641q0 13 9.5 22.5t23.5 9.5h545q89 0 157.5 -5.5t137.5 -19.5t120.5 -40t99 -65.5t79.5 -96t56.5 -132t36 -174.5t11.5 -222q0 -110 -9.5 -200.5t-27 -162t-46.5 -128t-62.5 -98t-80 -71.5t-95 -49t-111.5 -30t-125.5 -15t-140.5 -4h-545 q-14 0 -23.5 10t-9.5 23v657h-164q-13 0 -22 11.5t-9 25.5zM389 152h379q59 0 104.5 2.5t93 8.5t82.5 17.5t70 29t60 42.5t48.5 59t38.5 78t26.5 99.5t16.5 123.5t5 150q0 136 -14 234.5t-47 165t-73 107t-107.5 61.5t-134.5 27.5t-169 6.5h-379v-524h539q13 0 21.5 -8.5 t8.5 -22.5v-82q0 -14 -8.5 -25.5t-21.5 -11.5h-539v-538z" />
<glyph unicode="U" d="M270 809l441 442l442 -442l-442 -440zM502 809l104 -104l211 210l105 -106l-211 -209l106 -104l313 313l-419 420l-105 -105l105 -104z" />
<glyph unicode="V" horiz-adv-x="1525" d="M39 1053q0 21 20 28l117 21h6q16 0 25 -27l299 -956h57l385 1374q1 7 9 13.5t16 6.5h522q14 0 22.5 -8.5t8.5 -21.5v-97q0 -13 -8.5 -21.5t-22.5 -8.5h-410l-403 -1323q-10 -33 -41 -33h-215q-30 0 -43 33l-342 1011q-2 2 -2 9z" />
<glyph unicode="W" d="M270 809l441 442l442 -442l-442 -440zM502 809l104 -104l211 210l105 -106l-211 -209l106 -104l313 313l-419 420l-105 -105l105 -104z" />
<glyph unicode="X" d="M270 809l441 442l442 -442l-442 -440zM502 809l104 -104l211 210l105 -106l-211 -209l106 -104l313 313l-419 420l-105 -105l105 -104z" />
<glyph unicode="Y" horiz-adv-x="1265" d="M-14 1489q0 9 7.5 16.5t16.5 7.5h142q20 0 32 -18l453 -717l446 719q11 16 31 16h143q8 0 15.5 -7.5t7.5 -16.5q0 -2 -4 -10l-559 -852v-594q0 -13 -9.5 -23t-23.5 -10h-109q-12 0 -22 10t-10 23v596l-553 850q-4 8 -4 10zM449 1739q0 9 8 14l274 207q8 4 12 4 q10 0 15 -8l65 -82q2 -2 2 -10q0 -9 -6 -15l-278 -202q-5 -5 -11 -5q-2 0 -16 9l-61 78q-4 4 -4 10z" />
<glyph unicode="Z" horiz-adv-x="1296" d="M82 1393v88q0 13 9.5 22.5t21.5 9.5h1052q12 0 21.5 -9.5t9.5 -22.5v-103q0 -21 -16 -47l-883 -1177h887q13 0 21.5 -9.5t8.5 -23.5v-88q0 -14 -8.5 -23.5t-21.5 -9.5h-1065q-13 0 -22 9.5t-9 23.5v88q0 14 2 23.5t4 13t8 11t9 11.5l870 1180h-868q-12 0 -21.5 10 t-9.5 23zM365 1901q0 8 2 10l61 71q6 9 16 9q3 0 11 -4l227 -179l229 179q8 4 11 4q10 0 16 -9l61 -71q2 -2 2 -10q0 -9 -6 -15l-278 -207h-68l-278 207q-6 6 -6 15z" />
<glyph unicode="[" d="M270 809l441 442l442 -442l-442 -440zM502 809l104 -104l211 210l105 -106l-211 -209l106 -104l313 313l-419 420l-105 -105l105 -104z" />
<glyph unicode="\" d="M270 809l441 442l442 -442l-442 -440zM502 809l104 -104l211 210l105 -106l-211 -209l106 -104l313 313l-419 420l-105 -105l105 -104z" />
<glyph unicode="]" d="M270 809l441 442l442 -442l-442 -440zM502 809l104 -104l211 210l105 -106l-211 -209l106 -104l313 313l-419 420l-105 -105l105 -104z" />
<glyph unicode="^" d="M270 809l441 442l442 -442l-442 -440zM502 809l104 -104l211 210l105 -106l-211 -209l106 -104l313 313l-419 420l-105 -105l105 -104z" />
<glyph unicode="_" horiz-adv-x="937" d="M150 1376q0 10 8 15l278 206h68l278 -206q6 -6 6 -15q0 -6 -4 -10l-59 -72q-12 -8 -16 -8q-3 0 -11 4l-229 180l-229 -180q-4 -4 -11 -4q-6 0 -14 8l-61 72q-4 4 -4 10z" />
<glyph unicode="`" horiz-adv-x="731" d="M154 -225q0 167 206 342l74 -51q-57 -56 -100 -128.5t-43 -138.5q0 -57 32.5 -82.5t110.5 -25.5q25 0 44 2.5t41.5 7t33.5 6.5h2q12 0 16 -20l9 -54v-2q0 -7 -6.5 -12.5t-14.5 -7.5q-6 -1 -23 -5t-28 -6t-29.5 -4.5t-41 -4t-48.5 -1.5q-235 0 -235 185z" />
<glyph unicode="a" horiz-adv-x="1968" d="M143 1421v58q0 11 4 16.5t7 7t10 2.5l274 35h2q11 0 18 -7t7 -17v-881q0 -25 -29 -25h-76q-26 0 -26 25v754l-164 8q-20 3 -24 9q-3 5 -3 15zM340 59q0 7 2 11l973 1439q3 9 14 9q5 0 10 -5l68 -47q8 -3 8 -14q0 -8 -2 -12l-973 -1440q-3 -6 -14 -6q-8 0 -10 2l-68 47 q-8 5 -8 16zM1016 248v71q0 17 6 25l412 565q9 13 22 13h184q27 0 27 -25v-563h115q22 0 22 -29v-57q0 -29 -22 -29h-115v-194q0 -25 -27 -25h-75q-29 0 -29 25v194h-496q-24 0 -24 29zM1155 334h381v477h-41z" />
<glyph unicode="b" horiz-adv-x="2048" d="M143 1421v58q0 11 4 16.5t7 7t10 2.5l274 35h2q11 0 18 -7t7 -17v-881q0 -25 -29 -25h-76q-26 0 -26 25v754l-164 8q-20 3 -24 9q-3 5 -3 15zM340 59q0 7 2 11l973 1439q3 9 14 9q5 0 10 -5l68 -47q8 -3 8 -14q0 -8 -2 -12l-973 -1440q-3 -6 -14 -6q-8 0 -10 2l-68 47 q-8 5 -8 16zM1167 854q0 19 21 27q19 7 51 16.5t106.5 21t151.5 11.5t136 -12.5t107.5 -43t74.5 -87t26 -138.5q0 -32 -8 -62.5t-18.5 -54t-33 -50t-37 -42.5t-46.5 -40.5t-46 -34.5t-51 -34.5t-47 -31.5l-223 -149v-29h508q25 0 25 -27v-67q0 -27 -25 -27h-610 q-29 0 -29 25v110q0 65 49 101l230 159q11 8 44 30.5t51 35.5t46 38t43 45t27 48t12 57q0 98 -53.5 131t-165.5 33q-104 0 -266 -45h-11q-19 0 -22 23l-15 55q-2 4 -2 8z" />
<glyph unicode="c" horiz-adv-x="2205" d="M121 1468q0 12 20 21q46 20 132.5 35.5t189.5 15.5q155 0 239 -62.5t84 -179.5q0 -88 -45 -132t-135 -64v-33q98 -16 148.5 -65.5t50.5 -145.5q0 -71 -29.5 -123.5t-81 -80.5t-110 -41t-125.5 -13q-66 0 -132.5 6.5t-99.5 13t-43 9.5q-22 9 -22 24v6l12 70q3 14 19 14 q3 0 9 -1t9 -1q110 -22 233 -22q31 0 59.5 3.5t59 13t52.5 25t36.5 42t14.5 61.5q0 43 -13 72t-40.5 45.5t-54.5 24.5t-69 14q-80 9 -116 12q-31 4 -31 25v53q0 23 29 23q60 6 98.5 12t76 17t58 26.5t33 40t12.5 57.5q0 74 -53 104.5t-154 30.5q-52 0 -109 -8.5t-78.5 -14 t-78.5 -20.5q-6 -2 -16 -2q-16 0 -23 17l-14 63q-2 6 -2 12zM575 59q0 1 5 11l970 1439q6 9 15 9q5 0 10 -5l70 -47q8 -4 8 -14q0 -4 -4 -12l-973 -1440q-3 -6 -14 -6q-7 0 -11 2l-67 47q-9 6 -9 16zM1251 248v71q0 17 6 25l412 567q11 11 23 11h184q27 0 27 -23v-565h114 q25 0 25 -27v-59q0 -27 -25 -27h-114v-196q0 -25 -27 -25h-76q-26 0 -26 25v196h-498q-25 0 -25 27zM1391 334h383v477h-43z" />
<glyph unicode="d" horiz-adv-x="1404" d="M39 37q0 12 2 18l494 1432q4 10 16 18t20 8h263q8 0 20 -8t16 -18l494 -1432q4 -12 4 -18q0 -15 -10.5 -26t-30.5 -11h-1249q-20 0 -29.5 11t-9.5 26zM260 154h885l-404 1214h-77z" />
<glyph unicode="e" horiz-adv-x="1347" d="M74 612v74q0 14 8.5 22.5t21.5 8.5h1037q16 0 16 -15v-4l-14 -96q-4 -20 -25 -20h-694q5 -71 13 -122.5t25 -106t45 -91t70 -66.5t103 -44.5t141 -14.5q165 0 406 62q12 4 18 4q21 0 27 -19l24 -84q0 -2 1 -6t1 -6q0 -22 -26 -31q-71 -29 -191.5 -53t-246.5 -24 q-132 0 -229 26.5t-161.5 74t-106 124t-61.5 166t-28 211.5h-144q-14 0 -22 8t-8 22zM74 868v74q0 14 8.5 22.5t21.5 8.5h146q12 145 46.5 245.5t102 173t175 106.5t260.5 34q126 0 246.5 -23.5t191.5 -52.5q26 -12 26 -31q0 -2 -1 -6t-1 -6l-24 -84q-6 -18 -27 -18 q-3 0 -9 1t-9 1q-221 63 -406 63q-79 0 -141 -15t-103 -44.5t-69 -64.5t-44.5 -84.5t-24.5 -93t-13 -101.5h735q6 0 10.5 -4.5t4.5 -10.5v-4l-15 -96q-4 -20 -22 -20h-1035q-14 0 -22 8t-8 22z" />
<glyph unicode="f" d="M270 809l441 442l442 -442l-442 -440zM502 809l104 -104l211 210l105 -106l-211 -209l106 -104l313 313l-419 420l-105 -105l105 -104z" />
<glyph unicode="g" d="M270 809l441 442l442 -442l-442 -440zM502 809l104 -104l211 210l105 -106l-211 -209l106 -104l313 313l-419 420l-105 -105l105 -104z" />
<glyph unicode="h" d="M270 809l441 442l442 -442l-442 -440zM502 809l104 -104l211 210l105 -106l-211 -209l106 -104l313 313l-419 420l-105 -105l105 -104z" />
<glyph unicode="i" d="M270 809l441 442l442 -442l-442 -440zM502 809l104 -104l211 210l105 -106l-211 -209l106 -104l313 313l-419 420l-105 -105l105 -104z" />
<glyph unicode="j" d="M270 809l441 442l442 -442l-442 -440zM502 809l104 -104l211 210l105 -106l-211 -209l106 -104l313 313l-419 420l-105 -105l105 -104z" />
<glyph unicode="k" horiz-adv-x="497" d="M168 31v1108q0 20 25 24l112 21h6q19 0 19 -27v-1126q0 -13 -9 -22t-22 -9h-100q-13 0 -22 9t-9 22z" />
<glyph unicode="l" horiz-adv-x="1042" d="M47 528v4q0 14 14 17l168 55v535q0 20 27 24l111 21h6q18 0 18 -27v-500l354 117q2 2 5 2q12 0 16 -12l29 -94q0 -1 1 -2t1 -2q0 -12 -19 -17l-387 -127v-375h572q12 0 21 -8t9 -20l-2 -88q0 -14 -8.5 -22.5t-21.5 -8.5h-701q-14 0 -22.5 9t-8.5 22v438l-133 -43 q-2 -2 -6 -2q-12 0 -16 12z" />
<glyph unicode="m" horiz-adv-x="1196" d="M104 969v75q0 14 9 22.5t22 8.5h926q13 0 22 -8.5t9 -22.5v-75q0 -13 -9 -22t-22 -9h-123v-907q0 -14 -8 -22.5t-21 -8.5h-102q-12 0 -21.5 9t-9.5 22v907h-356v-907q0 -13 -9 -22t-22 -9h-100q-13 0 -22 9t-9 22v907h-123q-13 0 -22 9t-9 22z" />
<glyph unicode="n" d="M270 809l441 442l442 -442l-442 -440zM502 809l104 -104l211 210l105 -106l-211 -209l106 -104l313 313l-419 420l-105 -105l105 -104z" />
<glyph unicode="o" horiz-adv-x="1355" d="M270 379q0 8 4 12l97 90q-39 88 -39 205q0 116 39 207l-97 90q-4 2 -4 10q0 7 4 15l84 90q10 10 19 10q4 0 8 -4l94 -90q79 47 199 47t199 -47l94 90q4 4 8 4q8 0 18 -10l84 -90q4 -8 4 -15q0 -8 -4 -10l-96 -90q39 -91 39 -207q0 -117 -39 -205l96 -90q4 -4 4 -12 t-4 -12l-84 -93q-12 -8 -18 -8t-8 4l-94 88q-85 -47 -199 -47t-199 47l-94 -88q-2 -4 -8 -4q-7 0 -19 8l-84 93q-4 4 -4 12zM465 686q0 -132 45 -193t168 -61q122 0 167.5 61.5t45.5 192.5t-46 193.5t-167 62.5q-122 0 -167.5 -62t-45.5 -194z" />
<glyph unicode="p" horiz-adv-x="1171" d="M168 31v1108q0 20 25 24l112 19q2 2 6 2q19 0 19 -27v-205h370q99 0 172 -18t125 -70q84 -84 84 -262q0 -176 -88 -264q-58 -57 -145 -75.5t-199 -18.5h-71l-248 4v-217q0 -13 -9 -22t-22 -9h-100q-13 0 -22 9t-9 22zM330 369l250 8q6 0 42.5 1.5t52.5 2.5t49 5t53 9 t43 14.5t38 22.5q57 47 57 170q0 114 -51 162q-49 47 -190 47h-344v-442z" />
<glyph unicode="q" d="M270 809l441 442l442 -442l-442 -440zM502 809l104 -104l211 210l105 -106l-211 -209l106 -104l313 313l-419 420l-105 -105l105 -104z" />
<glyph unicode="r" d="M270 809l441 442l442 -442l-442 -440zM502 809l104 -104l211 210l105 -106l-211 -209l106 -104l313 313l-419 420l-105 -105l105 -104z" />
<glyph unicode="s" horiz-adv-x="1107" d="M113 850q0 78 26 137t68.5 95t102.5 58.5t120 31t129 8.5q183 0 373 -56q24 -6 24 -30q0 -1 -1 -4t-1 -5l-22 -88q-1 -6 -9.5 -10t-15.5 -4h-2q-4 1 -31 7.5t-58 12.5t-72.5 13t-92 11.5t-98.5 4.5q-281 0 -281 -172q0 -41 17 -72.5t42.5 -51t68 -33.5t79.5 -21t92 -14 q155 -20 217 -40q35 -11 64 -26q141 -72 141 -264q0 -82 -27.5 -145.5t-72 -102.5t-108 -63.5t-127 -33.5t-136.5 -9q-188 0 -372 55q-25 6 -25 31v8l22 86q1 6 8.5 10t14.5 4h2q4 -1 34 -7.5t64.5 -13t80 -14t98 -12t100.5 -4.5q77 0 136.5 17t101.5 64t42 120q0 31 -8 55 t-19 41t-34.5 31t-42.5 22t-56.5 16t-63.5 12t-75 11q-211 25 -305 92q-112 80 -112 242zM246 1516q0 8 4 10l59 71q9 9 17 9q2 0 10 -4l229 -179l230 179q4 4 10 4q8 0 14 -9l62 -71q4 -4 4 -10q0 -7 -8 -15l-279 -207h-68l-278 207q-6 6 -6 15z" />
<glyph unicode="t" horiz-adv-x="1329" d="M47 545v78q0 12 8.5 20t20.5 8h133v479q0 14 8.5 22.5t22.5 8.5h426q80 0 140 -5.5t120 -21t102.5 -42.5t80 -70.5t60 -104t35.5 -144.5t13 -191q0 -124 -16 -218t-50.5 -157.5t-78.5 -104.5t-110 -63t-134.5 -30.5t-161.5 -8.5h-426q-14 0 -22.5 9t-8.5 22v481h-133 q-12 0 -20.5 10.5t-8.5 22.5zM371 139h276q56 0 96.5 3t82 10.5t70 22t56 37.5t44.5 56.5t30 78.5t19 104.5t6 134.5q0 85 -8.5 149.5t-23 111t-41.5 78.5t-56 51t-75.5 29.5t-90.5 13.5t-109 3h-276v-371h422q12 0 19 -8t7 -20v-78q0 -13 -7.5 -23t-18.5 -10h-422v-373z " />
<glyph unicode="u" d="M270 809l441 442l442 -442l-442 -440zM502 809l104 -104l211 210l105 -106l-211 -209l106 -104l313 313l-419 420l-105 -105l105 -104z" />
<glyph unicode="v" d="M270 809l441 442l442 -442l-442 -440zM502 809l104 -104l211 210l105 -106l-211 -209l106 -104l313 313l-419 420l-105 -105l105 -104z" />
<glyph unicode="w" d="M270 809l441 442l442 -442l-442 -440zM502 809l104 -104l211 210l105 -106l-211 -209l106 -104l313 313l-419 420l-105 -105l105 -104z" />
<glyph unicode="x" horiz-adv-x="1196" d="M133 305q0 8 6 14l359 347l-359 346q-6 6 -6 12q0 10 6 16l84 82q6 6 15 6q10 0 14 -4l346 -356l346 356q4 4 14 4q9 0 15 -6l84 -82q6 -6 6 -16q0 -6 -6 -12l-359 -346l359 -347q6 -6 6 -14t-6 -14l-84 -82q-6 -6 -15 -6q-10 0 -14 4l-346 356l-346 -356q-4 -4 -14 -4 q-9 0 -15 6l-84 82q-6 6 -6 14z" />
<glyph unicode="y" horiz-adv-x="1067" d="M16 1139q0 9 6.5 15.5t14.5 6.5h133q18 0 31 -16l338 -520l329 520q11 16 29 16h133q8 0 14.5 -6.5t6.5 -15.5q0 -7 -2 -11l-435 -645v-452q0 -14 -8.5 -22.5t-21.5 -8.5h-103q-12 0 -21 9t-9 22v450l-433 647q-2 4 -2 11zM344 1376q0 10 8 15l275 206l10 5q7 0 16 -9 l64 -82q4 -4 4 -10q0 -8 -6 -14l-279 -203q-8 -4 -10 -4q-8 0 -16 8l-62 78q-4 4 -4 10z" />
<glyph unicode="z" horiz-adv-x="1075" d="M90 1049v81q0 14 9 22.5t22 8.5h821q14 0 22.5 -8.5t8.5 -22.5v-83q0 -23 -17 -43l-661 -861h661q14 0 22.5 -8.5t8.5 -21.5v-82q0 -13 -8.5 -22t-22.5 -9h-833q-12 0 -21.5 9t-9.5 22v73q0 8 0.5 13.5t1 9t3 7.5t4 6.5t6.5 8t8 9.5l653 860h-647q-13 0 -22 9t-9 22z M227 1516q0 6 4 10l62 71q6 9 14 9q6 0 10 -4l230 -179l229 179q8 4 10 4q8 0 17 -9l59 -71q4 -2 4 -10q0 -9 -6 -15l-278 -207h-68l-278 207q-9 9 -9 15z" />
<glyph unicode="{" d="M270 809l441 442l442 -442l-442 -440zM502 809l104 -104l211 210l105 -106l-211 -209l106 -104l313 313l-419 420l-105 -105l105 -104z" />
<glyph unicode="|" d="M270 809l441 442l442 -442l-442 -440zM502 809l104 -104l211 210l105 -106l-211 -209l106 -104l313 313l-419 420l-105 -105l105 -104z" />
<glyph unicode="}" d="M270 809l441 442l442 -442l-442 -440zM502 809l104 -104l211 210l105 -106l-211 -209l106 -104l313 313l-419 420l-105 -105l105 -104z" />
<glyph unicode="~" d="M270 809l441 442l442 -442l-442 -440zM502 809l104 -104l211 210l105 -106l-211 -209l106 -104l313 313l-419 420l-105 -105l105 -104z" />
<glyph horiz-adv-x="1347" d="M74 612v74q0 14 8.5 22.5t21.5 8.5h1037q16 0 16 -15v-4l-14 -96q-4 -20 -25 -20h-694q5 -71 13 -122.5t25 -106t45 -91t70 -66.5t103 -44.5t141 -14.5q165 0 406 62q12 4 18 4q21 0 27 -19l24 -84q0 -2 1 -6t1 -6q0 -22 -26 -31q-71 -29 -191.5 -53t-246.5 -24 q-132 0 -229 26.5t-161.5 74t-106 124t-61.5 166t-28 211.5h-144q-14 0 -22 8t-8 22zM74 868v74q0 14 8.5 22.5t21.5 8.5h146q12 145 46.5 245.5t102 173t175 106.5t260.5 34q126 0 246.5 -23.5t191.5 -52.5q26 -12 26 -31q0 -2 -1 -6t-1 -6l-24 -84q-6 -18 -27 -18 q-3 0 -9 1t-9 1q-221 63 -406 63q-79 0 -141 -15t-103 -44.5t-69 -64.5t-44.5 -84.5t-24.5 -93t-13 -101.5h735q6 0 10.5 -4.5t4.5 -10.5v-4l-15 -96q-4 -20 -22 -20h-1035q-14 0 -22 8t-8 22z" />
<glyph d="M270 809l441 442l442 -442l-442 -440zM502 809l104 -104l211 210l105 -106l-211 -209l106 -104l313 313l-419 420l-105 -105l105 -104z" />
<glyph d="M270 809l441 442l442 -442l-442 -440zM502 809l104 -104l211 210l105 -106l-211 -209l106 -104l313 313l-419 420l-105 -105l105 -104z" />
<glyph d="M270 809l441 442l442 -442l-442 -440zM502 809l104 -104l211 210l105 -106l-211 -209l106 -104l313 313l-419 420l-105 -105l105 -104z" />
<glyph unicode="&#x85;" d="M270 809l441 442l442 -442l-442 -440zM502 809l104 -104l211 210l105 -106l-211 -209l106 -104l313 313l-419 420l-105 -105l105 -104z" />
<glyph d="M270 809l441 442l442 -442l-442 -440zM502 809l104 -104l211 210l105 -106l-211 -209l106 -104l313 313l-419 420l-105 -105l105 -104z" />
<glyph d="M270 809l441 442l442 -442l-442 -440zM502 809l104 -104l211 210l105 -106l-211 -209l106 -104l313 313l-419 420l-105 -105l105 -104z" />
<glyph d="M270 809l441 442l442 -442l-442 -440zM502 809l104 -104l211 210l105 -106l-211 -209l106 -104l313 313l-419 420l-105 -105l105 -104z" />
<glyph d="M270 809l441 442l442 -442l-442 -440zM502 809l104 -104l211 210l105 -106l-211 -209l106 -104l313 313l-419 420l-105 -105l105 -104z" />
<glyph d="M270 809l441 442l442 -442l-442 -440zM502 809l104 -104l211 210l105 -106l-211 -209l106 -104l313 313l-419 420l-105 -105l105 -104z" />
<glyph d="M270 809l441 442l442 -442l-442 -440zM502 809l104 -104l211 210l105 -106l-211 -209l106 -104l313 313l-419 420l-105 -105l105 -104z" />
<glyph d="M270 809l441 442l442 -442l-442 -440zM502 809l104 -104l211 210l105 -106l-211 -209l106 -104l313 313l-419 420l-105 -105l105 -104z" />
<glyph d="M270 809l441 442l442 -442l-442 -440zM502 809l104 -104l211 210l105 -106l-211 -209l106 -104l313 313l-419 420l-105 -105l105 -104z" />
<glyph d="M270 809l441 442l442 -442l-442 -440zM502 809l104 -104l211 210l105 -106l-211 -209l106 -104l313 313l-419 420l-105 -105l105 -104z" />
<glyph d="M270 809l441 442l442 -442l-442 -440zM502 809l104 -104l211 210l105 -106l-211 -209l106 -104l313 313l-419 420l-105 -105l105 -104z" />
<glyph d="M270 809l441 442l442 -442l-442 -440zM502 809l104 -104l211 210l105 -106l-211 -209l106 -104l313 313l-419 420l-105 -105l105 -104z" />
<glyph d="M270 809l441 442l442 -442l-442 -440zM502 809l104 -104l211 210l105 -106l-211 -209l106 -104l313 313l-419 420l-105 -105l105 -104z" />
<glyph horiz-adv-x="868" d="M164 524v365q0 37 25.5 63.5t62.5 26.5h364q37 0 63 -26.5t26 -63.5v-365q0 -37 -26 -63.5t-63 -26.5h-362q-37 0 -63.5 26.5t-26.5 63.5z" />
<glyph d="M270 809l441 442l442 -442l-442 -440zM502 809l104 -104l211 210l105 -106l-211 -209l106 -104l313 313l-419 420l-105 -105l105 -104z" />
<glyph d="M270 809l441 442l442 -442l-442 -440zM502 809l104 -104l211 210l105 -106l-211 -209l106 -104l313 313l-419 420l-105 -105l105 -104z" />
<glyph d="M270 809l441 442l442 -442l-442 -440zM502 809l104 -104l211 210l105 -106l-211 -209l106 -104l313 313l-419 420l-105 -105l105 -104z" />
<glyph d="M270 809l441 442l442 -442l-442 -440zM502 809l104 -104l211 210l105 -106l-211 -209l106 -104l313 313l-419 420l-105 -105l105 -104z" />
<glyph d="M270 809l441 442l442 -442l-442 -440zM502 809l104 -104l211 210l105 -106l-211 -209l106 -104l313 313l-419 420l-105 -105l105 -104z" />
<glyph d="M270 809l441 442l442 -442l-442 -440zM502 809l104 -104l211 210l105 -106l-211 -209l106 -104l313 313l-419 420l-105 -105l105 -104z" />
<glyph d="M270 809l441 442l442 -442l-442 -440zM502 809l104 -104l211 210l105 -106l-211 -209l106 -104l313 313l-419 420l-105 -105l105 -104z" />
<glyph d="M270 809l441 442l442 -442l-442 -440zM502 809l104 -104l211 210l105 -106l-211 -209l106 -104l313 313l-419 420l-105 -105l105 -104z" />
<glyph d="M270 809l441 442l442 -442l-442 -440zM502 809l104 -104l211 210l105 -106l-211 -209l106 -104l313 313l-419 420l-105 -105l105 -104z" />
<glyph unicode="&#xa1;" d="M270 809l441 442l442 -442l-442 -440zM502 809l104 -104l211 210l105 -106l-211 -209l106 -104l313 313l-419 420l-105 -105l105 -104z" />
<glyph unicode="&#xa2;" d="M270 809l441 442l442 -442l-442 -440zM502 809l104 -104l211 210l105 -106l-211 -209l106 -104l313 313l-419 420l-105 -105l105 -104z" />
<glyph unicode="&#xa3;" d="M270 809l441 442l442 -442l-442 -440zM502 809l104 -104l211 210l105 -106l-211 -209l106 -104l313 313l-419 420l-105 -105l105 -104z" />
<glyph unicode="&#xa4;" horiz-adv-x="1355" d="M270 379q0 10 4 12l97 90q-39 88 -39 205q0 116 39 207l-97 90q-4 2 -4 12q0 5 4 13l84 90q10 10 19 10q4 0 8 -4l94 -90q79 47 199 47t199 -47l94 90q4 4 8 4q8 0 18 -10l84 -90q4 -8 4 -13q0 -10 -4 -12l-96 -90q39 -91 39 -207q0 -117 -39 -205l96 -90q4 -2 4 -12 q0 -4 -4 -12l-84 -93q-5 -8 -16 -8q-6 0 -10 4l-94 88q-85 -47 -199 -47t-199 47l-94 -88q-4 -4 -10 -4q-12 0 -17 8l-84 93q-4 8 -4 12zM465 686q0 -132 45 -193t168 -61q122 0 167.5 61.5t45.5 192.5t-46 193.5t-167 62.5q-122 0 -167.5 -62t-45.5 -194z" />
<glyph unicode="&#xa5;" d="M270 809l441 442l442 -442l-442 -440zM502 809l104 -104l211 210l105 -106l-211 -209l106 -104l313 313l-419 420l-105 -105l105 -104z" />
<glyph unicode="&#xa6;" d="M270 809l441 442l442 -442l-442 -440zM502 809l104 -104l211 210l105 -106l-211 -209l106 -104l313 313l-419 420l-105 -105l105 -104z" />
<glyph unicode="&#xa7;" d="M270 809l441 442l442 -442l-442 -440zM502 809l104 -104l211 210l105 -106l-211 -209l106 -104l313 313l-419 420l-105 -105l105 -104z" />
<glyph unicode="&#xa8;" d="M270 809l441 442l442 -442l-442 -440zM502 809l104 -104l211 210l105 -106l-211 -209l106 -104l313 313l-419 420l-105 -105l105 -104z" />
<glyph unicode="&#xa9;" d="M270 809l441 442l442 -442l-442 -440zM502 809l104 -104l211 210l105 -106l-211 -209l106 -104l313 313l-419 420l-105 -105l105 -104z" />
<glyph unicode="&#xaa;" d="M270 809l441 442l442 -442l-442 -440zM502 809l104 -104l211 210l105 -106l-211 -209l106 -104l313 313l-419 420l-105 -105l105 -104z" />
<glyph unicode="&#xab;" d="M270 809l441 442l442 -442l-442 -440zM502 809l104 -104l211 210l105 -106l-211 -209l106 -104l313 313l-419 420l-105 -105l105 -104z" />
<glyph unicode="&#xac;" d="M270 809l441 442l442 -442l-442 -440zM502 809l104 -104l211 210l105 -106l-211 -209l106 -104l313 313l-419 420l-105 -105l105 -104z" />
<glyph unicode="&#xad;" horiz-adv-x="1196" d="M186 621v92q0 13 8.5 21.5t22.5 8.5h762q14 0 22.5 -8.5t8.5 -21.5v-92q0 -13 -9 -22t-22 -9h-762q-13 0 -22 9t-9 22z" />
<glyph unicode="&#xae;" d="M270 809l441 442l442 -442l-442 -440zM502 809l104 -104l211 210l105 -106l-211 -209l106 -104l313 313l-419 420l-105 -105l105 -104z" />
<glyph unicode="&#xaf;" d="M270 809l441 442l442 -442l-442 -440zM502 809l104 -104l211 210l105 -106l-211 -209l106 -104l313 313l-419 420l-105 -105l105 -104z" />
<glyph unicode="&#xb0;" d="M270 809l441 442l442 -442l-442 -440zM502 809l104 -104l211 210l105 -106l-211 -209l106 -104l313 313l-419 420l-105 -105l105 -104z" />
<glyph unicode="&#xb1;" d="M270 809l441 442l442 -442l-442 -440zM502 809l104 -104l211 210l105 -106l-211 -209l106 -104l313 313l-419 420l-105 -105l105 -104z" />
<glyph unicode="&#xb2;" d="M270 809l441 442l442 -442l-442 -440zM502 809l104 -104l211 210l105 -106l-211 -209l106 -104l313 313l-419 420l-105 -105l105 -104z" />
<glyph unicode="&#xb3;" d="M270 809l441 442l442 -442l-442 -440zM502 809l104 -104l211 210l105 -106l-211 -209l106 -104l313 313l-419 420l-105 -105l105 -104z" />
<glyph unicode="&#xb4;" d="M270 809l441 442l442 -442l-442 -440zM502 809l104 -104l211 210l105 -106l-211 -209l106 -104l313 313l-419 420l-105 -105l105 -104z" />
<glyph unicode="&#xb5;" d="M270 809l441 442l442 -442l-442 -440zM502 809l104 -104l211 210l105 -106l-211 -209l106 -104l313 313l-419 420l-105 -105l105 -104z" />
<glyph unicode="&#xb6;" horiz-adv-x="1372" d="M90 1042q0 115 24 199.5t77.5 147t144.5 93.5t221 31h328q7 0 17.5 -11t10.5 -19v-1856q0 -23 -16 -26l-117 -31h-4q-6 0 -12 6t-6 12v996l-201 -4h-27q-79 0 -140 10t-119.5 40t-96.5 80t-61 134t-23 198zM264 1042q0 -69 10 -121.5t31 -86.5t45.5 -56t60.5 -33.5 t68.5 -16t77.5 -5.5l201 -4v651h-201q-90 0 -146 -16t-89.5 -57t-45.5 -100t-12 -155zM1075 -371v1854q0 8 5 16.5t12 9.5l116 31h4q6 0 11.5 -5.5t5.5 -12.5v-1854q0 -8 -5 -16.5t-12 -9.5l-116 -31h-4q-6 0 -11.5 6t-5.5 12z" />
<glyph unicode="&#xb7;" horiz-adv-x="346" d="M82 508v147q0 13 9 22t22 9h123q12 0 20 -9t8 -22v-147q0 -13 -8 -22t-20 -9h-123q-13 0 -22 8.5t-9 22.5z" />
<glyph unicode="&#xb8;" d="M270 809l441 442l442 -442l-442 -440zM502 809l104 -104l211 210l105 -106l-211 -209l106 -104l313 313l-419 420l-105 -105l105 -104z" />
<glyph unicode="&#xb9;" d="M270 809l441 442l442 -442l-442 -440zM502 809l104 -104l211 210l105 -106l-211 -209l106 -104l313 313l-419 420l-105 -105l105 -104z" />
<glyph unicode="&#xba;" d="M270 809l441 442l442 -442l-442 -440zM502 809l104 -104l211 210l105 -106l-211 -209l106 -104l313 313l-419 420l-105 -105l105 -104z" />
<glyph unicode="&#xbb;" d="M270 809l441 442l442 -442l-442 -440zM502 809l104 -104l211 210l105 -106l-211 -209l106 -104l313 313l-419 420l-105 -105l105 -104z" />
<glyph unicode="&#xbc;" d="M270 809l441 442l442 -442l-442 -440zM502 809l104 -104l211 210l105 -106l-211 -209l106 -104l313 313l-419 420l-105 -105l105 -104z" />
<glyph unicode="&#xbd;" d="M270 809l441 442l442 -442l-442 -440zM502 809l104 -104l211 210l105 -106l-211 -209l106 -104l313 313l-419 420l-105 -105l105 -104z" />
<glyph unicode="&#xbe;" d="M270 809l441 442l442 -442l-442 -440zM502 809l104 -104l211 210l105 -106l-211 -209l106 -104l313 313l-419 420l-105 -105l105 -104z" />
<glyph unicode="&#xbf;" d="M270 809l441 442l442 -442l-442 -440zM502 809l104 -104l211 210l105 -106l-211 -209l106 -104l313 313l-419 420l-105 -105l105 -104z" />
<glyph unicode="&#xc0;" d="M270 809l441 442l442 -442l-442 -440zM502 809l104 -104l211 210l105 -106l-211 -209l106 -104l313 313l-419 420l-105 -105l105 -104z" />
<glyph unicode="&#xc1;" d="M270 809l441 442l442 -442l-442 -440zM502 809l104 -104l211 210l105 -106l-211 -209l106 -104l313 313l-419 420l-105 -105l105 -104z" />
<glyph unicode="&#xc2;" d="M270 809l441 442l442 -442l-442 -440zM502 809l104 -104l211 210l105 -106l-211 -209l106 -104l313 313l-419 420l-105 -105l105 -104z" />
<glyph unicode="&#xc3;" d="M270 809l441 442l442 -442l-442 -440zM502 809l104 -104l211 210l105 -106l-211 -209l106 -104l313 313l-419 420l-105 -105l105 -104z" />
<glyph unicode="&#xc4;" d="M270 809l441 442l442 -442l-442 -440zM502 809l104 -104l211 210l105 -106l-211 -209l106 -104l313 313l-419 420l-105 -105l105 -104z" />
<glyph unicode="&#xc5;" d="M270 809l441 442l442 -442l-442 -440zM502 809l104 -104l211 210l105 -106l-211 -209l106 -104l313 313l-419 420l-105 -105l105 -104z" />
<glyph unicode="&#xc6;" d="M270 809l441 442l442 -442l-442 -440zM502 809l104 -104l211 210l105 -106l-211 -209l106 -104l313 313l-419 420l-105 -105l105 -104z" />
<glyph unicode="&#xc7;" d="M270 809l441 442l442 -442l-442 -440zM502 809l104 -104l211 210l105 -106l-211 -209l106 -104l313 313l-419 420l-105 -105l105 -104z" />
<glyph unicode="&#xc8;" d="M270 809l441 442l442 -442l-442 -440zM502 809l104 -104l211 210l105 -106l-211 -209l106 -104l313 313l-419 420l-105 -105l105 -104z" />
<glyph unicode="&#xc9;" horiz-adv-x="1357" d="M168 31v1099q0 14 9 22.5t22 8.5h690q13 0 22 -8.5t9 -22.5v-83q0 -13 -9 -22t-22 -9h-559v-414h510q13 0 21.5 -8.5t8.5 -22.5v-88q0 -13 -8 -21.5t-22 -8.5h-510v-422q0 -13 -9 -22t-22 -9h-100q-13 0 -22 9t-9 22zM1028 31v1108q0 20 25 24l112 21h6q19 0 19 -27 v-1126q0 -13 -9 -22t-22 -9h-100q-13 0 -22 9t-9 22z" />
<glyph unicode="&#xca;" d="M270 809l441 442l442 -442l-442 -440zM502 809l104 -104l211 210l105 -106l-211 -209l106 -104l313 313l-419 420l-105 -105l105 -104z" />
<glyph unicode="&#xcb;" d="M270 809l441 442l442 -442l-442 -440zM502 809l104 -104l211 210l105 -106l-211 -209l106 -104l313 313l-419 420l-105 -105l105 -104z" />
<glyph unicode="&#xcc;" d="M270 809l441 442l442 -442l-442 -440zM502 809l104 -104l211 210l105 -106l-211 -209l106 -104l313 313l-419 420l-105 -105l105 -104z" />
<glyph unicode="&#xcd;" d="M270 809l441 442l442 -442l-442 -440zM502 809l104 -104l211 210l105 -106l-211 -209l106 -104l313 313l-419 420l-105 -105l105 -104z" />
<glyph unicode="&#xce;" d="M270 809l441 442l442 -442l-442 -440zM502 809l104 -104l211 210l105 -106l-211 -209l106 -104l313 313l-419 420l-105 -105l105 -104z" />
<glyph unicode="&#xcf;" d="M270 809l441 442l442 -442l-442 -440zM502 809l104 -104l211 210l105 -106l-211 -209l106 -104l313 313l-419 420l-105 -105l105 -104z" />
<glyph unicode="&#xd0;" d="M270 809l441 442l442 -442l-442 -440zM502 809l104 -104l211 210l105 -106l-211 -209l106 -104l313 313l-419 420l-105 -105l105 -104z" />
<glyph unicode="&#xd1;" horiz-adv-x="1841" d="M168 31v1099q0 14 9 22.5t22 8.5h690q13 0 22 -8.5t9 -22.5v-83q0 -13 -9 -22t-22 -9h-559v-414h510q13 0 21.5 -8.5t8.5 -22.5v-88q0 -13 -8 -21.5t-22 -8.5h-510v-422q0 -13 -9 -22t-22 -9h-100q-13 0 -22 9t-9 22zM1028 31v1108q0 20 25 24l112 21h6q19 0 19 -27 v-1010h569q14 0 22.5 -8.5t8.5 -21.5v-86q0 -13 -9 -22t-22 -9h-700q-13 0 -22 9t-9 22z" />
<glyph unicode="&#xd2;" d="M270 809l441 442l442 -442l-442 -440zM502 809l104 -104l211 210l105 -106l-211 -209l106 -104l313 313l-419 420l-105 -105l105 -104z" />
<glyph unicode="&#xd3;" d="M270 809l441 442l442 -442l-442 -440zM502 809l104 -104l211 210l105 -106l-211 -209l106 -104l313 313l-419 420l-105 -105l105 -104z" />
<glyph unicode="&#xd4;" d="M270 809l441 442l442 -442l-442 -440zM502 809l104 -104l211 210l105 -106l-211 -209l106 -104l313 313l-419 420l-105 -105l105 -104z" />
<glyph unicode="&#xd5;" d="M270 809l441 442l442 -442l-442 -440zM502 809l104 -104l211 210l105 -106l-211 -209l106 -104l313 313l-419 420l-105 -105l105 -104z" />
<glyph unicode="&#xd6;" d="M270 809l441 442l442 -442l-442 -440zM502 809l104 -104l211 210l105 -106l-211 -209l106 -104l313 313l-419 420l-105 -105l105 -104z" />
<glyph unicode="&#xd7;" d="M270 809l441 442l442 -442l-442 -440zM502 809l104 -104l211 210l105 -106l-211 -209l106 -104l313 313l-419 420l-105 -105l105 -104z" />
<glyph unicode="&#xd8;" d="M270 809l441 442l442 -442l-442 -440zM502 809l104 -104l211 210l105 -106l-211 -209l106 -104l313 313l-419 420l-105 -105l105 -104z" />
<glyph unicode="&#xd9;" d="M270 809l441 442l442 -442l-442 -440zM502 809l104 -104l211 210l105 -106l-211 -209l106 -104l313 313l-419 420l-105 -105l105 -104z" />
<glyph unicode="&#xda;" d="M270 809l441 442l442 -442l-442 -440zM502 809l104 -104l211 210l105 -106l-211 -209l106 -104l313 313l-419 420l-105 -105l105 -104z" />
<glyph unicode="&#xdb;" d="M270 809l441 442l442 -442l-442 -440zM502 809l104 -104l211 210l105 -106l-211 -209l106 -104l313 313l-419 420l-105 -105l105 -104z" />
<glyph unicode="&#xdc;" d="M270 809l441 442l442 -442l-442 -440zM502 809l104 -104l211 210l105 -106l-211 -209l106 -104l313 313l-419 420l-105 -105l105 -104z" />
<glyph unicode="&#xdd;" d="M270 809l441 442l442 -442l-442 -440zM502 809l104 -104l211 210l105 -106l-211 -209l106 -104l313 313l-419 420l-105 -105l105 -104z" />
<glyph unicode="&#xde;" d="M270 809l441 442l442 -442l-442 -440zM502 809l104 -104l211 210l105 -106l-211 -209l106 -104l313 313l-419 420l-105 -105l105 -104z" />
<glyph unicode="&#xdf;" horiz-adv-x="2172" d="M113 850q0 78 26 137t68.5 95t102.5 58.5t120 31t129 8.5q183 0 373 -56q24 -6 24 -30q0 -1 -1 -4t-1 -5l-22 -88q-1 -6 -9.5 -10t-15.5 -4h-2q-4 1 -31 7.5t-58 12.5t-72.5 13t-92 11.5t-98.5 4.5q-281 0 -281 -172q0 -41 17 -72.5t42.5 -51t68 -33.5t79.5 -21t92 -14 q155 -20 217 -40q35 -11 64 -26q141 -72 141 -264q0 -82 -27.5 -145.5t-72 -102.5t-108 -63.5t-127 -33.5t-136.5 -9q-188 0 -372 55q-25 6 -25 31v8l22 86q1 6 8.5 10t14.5 4h2q4 -1 34 -7.5t64.5 -13t80 -14t98 -12t100.5 -4.5q77 0 136.5 17t101.5 64t42 120q0 31 -8 55 t-19 41t-34.5 31t-42.5 22t-56.5 16t-63.5 12t-75 11q-47 6 -80 11.5t-80.5 17.5t-80 27t-68.5 40.5t-57.5 57.5t-36 78t-14.5 102zM1178 850q0 78 26 137t68.5 95t102.5 58.5t120 31t129 8.5q183 0 373 -56q24 -6 24 -30q0 -1 -1 -4t-1 -5l-22 -88q-1 -6 -9.5 -10t-15.5 -4 h-2q-4 1 -31 7.5t-58 12.5t-72.5 13t-92 11.5t-98.5 4.5q-281 0 -281 -172q0 -41 17 -72.5t42.5 -51t68 -33.5t79.5 -21t92 -14q3 0 27.5 -3.5t29.5 -4t27.5 -4t30.5 -5t28 -5t30 -6t27 -7t29 -9t26 -10.5t26 -12q141 -72 141 -264q0 -82 -27.5 -145.5t-72 -102.5 t-108 -63.5t-127 -33.5t-136.5 -9q-189 0 -373 55q-24 5 -24 31v8l22 86q4 14 23 14h2q4 -1 34 -7.5t64.5 -13t80 -14t98 -12t100.5 -4.5q77 0 136.5 17t101.5 64t42 120q0 31 -8 55t-19 41t-34.5 31t-42.5 22t-56.5 16t-63.5 12t-75 11q-47 6 -80 11.5t-80.5 17.5t-80 27 t-68.5 40.5t-57.5 57.5t-36 78t-14.5 102z" />
<glyph unicode="&#xe0;" d="M270 809l441 442l442 -442l-442 -440zM502 809l104 -104l211 210l105 -106l-211 -209l106 -104l313 313l-419 420l-105 -105l105 -104z" />
<glyph unicode="&#xe1;" d="M270 809l441 442l442 -442l-442 -440zM502 809l104 -104l211 210l105 -106l-211 -209l106 -104l313 313l-419 420l-105 -105l105 -104z" />
<glyph unicode="&#xe2;" d="M270 809l441 442l442 -442l-442 -440zM502 809l104 -104l211 210l105 -106l-211 -209l106 -104l313 313l-419 420l-105 -105l105 -104z" />
<glyph unicode="&#xe3;" d="M270 809l441 442l442 -442l-442 -440zM502 809l104 -104l211 210l105 -106l-211 -209l106 -104l313 313l-419 420l-105 -105l105 -104z" />
<glyph unicode="&#xe4;" d="M270 809l441 442l442 -442l-442 -440zM502 809l104 -104l211 210l105 -106l-211 -209l106 -104l313 313l-419 420l-105 -105l105 -104z" />
<glyph unicode="&#xe5;" d="M270 809l441 442l442 -442l-442 -440zM502 809l104 -104l211 210l105 -106l-211 -209l106 -104l313 313l-419 420l-105 -105l105 -104z" />
<glyph unicode="&#xe6;" d="M270 809l441 442l442 -442l-442 -440zM502 809l104 -104l211 210l105 -106l-211 -209l106 -104l313 313l-419 420l-105 -105l105 -104z" />
<glyph unicode="&#xe7;" d="M270 809l441 442l442 -442l-442 -440zM502 809l104 -104l211 210l105 -106l-211 -209l106 -104l313 313l-419 420l-105 -105l105 -104z" />
<glyph unicode="&#xe8;" d="M270 809l441 442l442 -442l-442 -440zM502 809l104 -104l211 210l105 -106l-211 -209l106 -104l313 313l-419 420l-105 -105l105 -104z" />
<glyph unicode="&#xe9;" d="M270 809l441 442l442 -442l-442 -440zM502 809l104 -104l211 210l105 -106l-211 -209l106 -104l313 313l-419 420l-105 -105l105 -104z" />
<glyph unicode="&#xea;" d="M270 809l441 442l442 -442l-442 -440zM502 809l104 -104l211 210l105 -106l-211 -209l106 -104l313 313l-419 420l-105 -105l105 -104z" />
<glyph unicode="&#xeb;" d="M270 809l441 442l442 -442l-442 -440zM502 809l104 -104l211 210l105 -106l-211 -209l106 -104l313 313l-419 420l-105 -105l105 -104z" />
<glyph unicode="&#xec;" d="M270 809l441 442l442 -442l-442 -440zM502 809l104 -104l211 210l105 -106l-211 -209l106 -104l313 313l-419 420l-105 -105l105 -104z" />
<glyph unicode="&#xed;" d="M270 809l441 442l442 -442l-442 -440zM502 809l104 -104l211 210l105 -106l-211 -209l106 -104l313 313l-419 420l-105 -105l105 -104z" />
<glyph unicode="&#xee;" d="M270 809l441 442l442 -442l-442 -440zM502 809l104 -104l211 210l105 -106l-211 -209l106 -104l313 313l-419 420l-105 -105l105 -104z" />
<glyph unicode="&#xef;" d="M270 809l441 442l442 -442l-442 -440zM502 809l104 -104l211 210l105 -106l-211 -209l106 -104l313 313l-419 420l-105 -105l105 -104z" />
<glyph unicode="&#xf0;" d="M270 809l441 442l442 -442l-442 -440zM502 809l104 -104l211 210l105 -106l-211 -209l106 -104l313 313l-419 420l-105 -105l105 -104z" />
<glyph unicode="&#xf1;" d="M270 809l441 442l442 -442l-442 -440zM502 809l104 -104l211 210l105 -106l-211 -209l106 -104l313 313l-419 420l-105 -105l105 -104z" />
<glyph unicode="&#xf2;" d="M270 809l441 442l442 -442l-442 -440zM502 809l104 -104l211 210l105 -106l-211 -209l106 -104l313 313l-419 420l-105 -105l105 -104z" />
<glyph unicode="&#xf3;" d="M270 809l441 442l442 -442l-442 -440zM502 809l104 -104l211 210l105 -106l-211 -209l106 -104l313 313l-419 420l-105 -105l105 -104z" />
<glyph unicode="&#xf4;" d="M270 809l441 442l442 -442l-442 -440zM502 809l104 -104l211 210l105 -106l-211 -209l106 -104l313 313l-419 420l-105 -105l105 -104z" />
<glyph unicode="&#xf5;" d="M270 809l441 442l442 -442l-442 -440zM502 809l104 -104l211 210l105 -106l-211 -209l106 -104l313 313l-419 420l-105 -105l105 -104z" />
<glyph unicode="&#xf6;" d="M270 809l441 442l442 -442l-442 -440zM502 809l104 -104l211 210l105 -106l-211 -209l106 -104l313 313l-419 420l-105 -105l105 -104z" />
<glyph unicode="&#xf7;" d="M270 809l441 442l442 -442l-442 -440zM502 809l104 -104l211 210l105 -106l-211 -209l106 -104l313 313l-419 420l-105 -105l105 -104z" />
<glyph unicode="&#xf8;" d="M270 809l441 442l442 -442l-442 -440zM502 809l104 -104l211 210l105 -106l-211 -209l106 -104l313 313l-419 420l-105 -105l105 -104z" />
<glyph unicode="&#xf9;" d="M270 809l441 442l442 -442l-442 -440zM502 809l104 -104l211 210l105 -106l-211 -209l106 -104l313 313l-419 420l-105 -105l105 -104z" />
<glyph unicode="&#xfa;" d="M270 809l441 442l442 -442l-442 -440zM502 809l104 -104l211 210l105 -106l-211 -209l106 -104l313 313l-419 420l-105 -105l105 -104z" />
<glyph unicode="&#xfb;" d="M270 809l441 442l442 -442l-442 -440zM502 809l104 -104l211 210l105 -106l-211 -209l106 -104l313 313l-419 420l-105 -105l105 -104z" />
<glyph unicode="&#xfc;" d="M270 809l441 442l442 -442l-442 -440zM502 809l104 -104l211 210l105 -106l-211 -209l106 -104l313 313l-419 420l-105 -105l105 -104z" />
<glyph unicode="&#xfd;" d="M270 809l441 442l442 -442l-442 -440zM502 809l104 -104l211 210l105 -106l-211 -209l106 -104l313 313l-419 420l-105 -105l105 -104z" />
<glyph unicode="&#xfe;" d="M270 809l441 442l442 -442l-442 -440zM502 809l104 -104l211 210l105 -106l-211 -209l106 -104l313 313l-419 420l-105 -105l105 -104z" />
<glyph unicode="&#xff;" d="M270 809l441 442l442 -442l-442 -440zM502 809l104 -104l211 210l105 -106l-211 -209l106 -104l313 313l-419 420l-105 -105l105 -104z" />
<glyph unicode="&#x2000;" horiz-adv-x="995" />
<glyph unicode="&#x2001;" horiz-adv-x="1991" />
<glyph unicode="&#x2002;" horiz-adv-x="995" />
<glyph unicode="&#x2003;" horiz-adv-x="1991" />
<glyph unicode="&#x2004;" horiz-adv-x="663" />
<glyph unicode="&#x2005;" horiz-adv-x="497" />
<glyph unicode="&#x2006;" horiz-adv-x="331" />
<glyph unicode="&#x2007;" horiz-adv-x="331" />
<glyph unicode="&#x2008;" horiz-adv-x="248" />
<glyph unicode="&#x2009;" horiz-adv-x="398" />
<glyph unicode="&#x200a;" horiz-adv-x="110" />
<glyph unicode="&#x2010;" horiz-adv-x="1196" d="M186 621v92q0 13 8.5 21.5t22.5 8.5h762q14 0 22.5 -8.5t8.5 -21.5v-92q0 -13 -9 -22t-22 -9h-762q-13 0 -22 9t-9 22z" />
<glyph unicode="&#x2011;" horiz-adv-x="1196" d="M186 621v92q0 13 8.5 21.5t22.5 8.5h762q14 0 22.5 -8.5t8.5 -21.5v-92q0 -13 -9 -22t-22 -9h-762q-13 0 -22 9t-9 22z" />
<glyph unicode="&#x2012;" horiz-adv-x="1196" d="M186 621v92q0 13 8.5 21.5t22.5 8.5h762q14 0 22.5 -8.5t8.5 -21.5v-92q0 -13 -9 -22t-22 -9h-762q-13 0 -22 9t-9 22z" />
<glyph unicode="&#x2013;" horiz-adv-x="1396" d="M186 621v92q0 13 10.5 21.5t28.5 8.5h946q18 0 28.5 -8.5t10.5 -21.5v-92q0 -13 -11 -22t-28 -9h-946q-17 0 -28 9t-11 22z" />
<glyph unicode="&#x2014;" horiz-adv-x="2420" d="M186 621v92q0 13 21 21.5t56 8.5h1894q35 0 56 -8.5t21 -21.5v-92q0 -13 -22.5 -22t-54.5 -9h-1894q-32 0 -54.5 9t-22.5 22z" />
<glyph unicode="&#x202f;" horiz-adv-x="398" />
<glyph unicode="&#x205f;" horiz-adv-x="497" />
<glyph unicode="&#x25fc;" horiz-adv-x="1126" d="M0 0v1126h1126v-1126h-1126z" />
<glyph unicode="&#xfb01;" d="M270 809l441 442l442 -442l-442 -440zM502 809l104 -104l211 210l105 -106l-211 -209l106 -104l313 313l-419 420l-105 -105l105 -104z" />
<glyph unicode="&#xfb02;" d="M270 809l441 442l442 -442l-442 -440zM502 809l104 -104l211 210l105 -106l-211 -209l106 -104l313 313l-419 420l-105 -105l105 -104z" />
</font>
</defs>
</svg>
