<?xml version="1.0" standalone="no"?>
<!DOCTYPE svg PUBLIC "-//W3C//DTD SVG 1.1//EN" "http://www.w3.org/Graphics/SVG/1.1/DTD/svg11.dtd" >
<svg xmlns="http://www.w3.org/2000/svg">
<metadata></metadata>
<defs>
<font id="max-regularitalicregular" horiz-adv-x="1206" >
<font-face units-per-em="2048" ascent="1638" descent="-410" />
<missing-glyph horiz-adv-x="634" />
<glyph horiz-adv-x="0" />
<glyph horiz-adv-x="682" />
<glyph unicode=" "  horiz-adv-x="634" />
<glyph unicode="&#x09;" horiz-adv-x="634" />
<glyph unicode="&#xa0;" horiz-adv-x="634" />
<glyph unicode="!" horiz-adv-x="579" d="M195 27v6l28 231q1 15 11.5 24t25.5 9h146q26 0 26 -27v-6l-29 -231q-3 -33 -34 -33h-146q-28 0 -28 27zM264 446v5l109 1024q3 24 30 30l164 35h2q17 0 17 -18v-4l-150 -1069q0 -8 -6.5 -13.5t-15.5 -5.5h-131q-19 0 -19 16z" />
<glyph unicode="&#x22;" horiz-adv-x="686" d="M225 1040v2l56 449q4 22 24 22h144q7 0 12.5 -5.5t5.5 -12.5v-4l-84 -449q-7 -22 -25 -22h-114q-8 0 -13.5 5.5t-5.5 14.5zM530 1040v2l56 449q0 9 7.5 15.5t16.5 6.5h144q8 0 13 -5.5t5 -12.5v-4l-84 -449q-7 -22 -26 -22h-113q-8 0 -13.5 5.5t-5.5 14.5z" />
<glyph unicode="#" horiz-adv-x="1452" d="M223 471v6l37 127q8 21 25 21h200l93 325h-195q-21 0 -21 17q0 3 3 6l36 127q2 8 9 14t16 6h201l106 371q3 9 11.5 15.5t17.5 6.5h119q20 0 20 -16v-6l-106 -371h247l107 371q7 22 27 22h118q23 0 23 -16v-6l-107 -371h193q20 0 20 -16v-6l-37 -127q-7 -21 -26 -21h-199 l-92 -325h195q20 0 20 -17q0 -4 -2 -6l-37 -127q-2 -8 -8.5 -14t-15.5 -6h-201l-125 -435q-2 -8 -9.5 -14t-17.5 -6h-120q-21 0 -21 16q0 1 1 4.5t1 4.5l121 430h-246l-123 -435q-8 -20 -26 -20h-121q-21 0 -21 16v9l123 430h-192q-21 0 -21 16zM653 625h246l94 325h-248z " />
<glyph unicode="$" horiz-adv-x="1374" d="M164 80q0 10 2 14l39 103q3 8 13.5 14t19.5 6h4q2 -1 27 -7t47 -11t58.5 -12.5t73.5 -13.5t80 -11.5t90.5 -8.5t92.5 -3q240 0 340 126q61 73 61 175q0 96 -72 149q-46 32 -117.5 48.5t-185.5 31.5q-126 17 -216.5 42.5t-155.5 76.5q-109 85 -109 248q0 183 102 305 q131 161 439 182l24 205q2 14 12 23.5t23 9.5h119q12 0 20.5 -8.5t8.5 -20.5q0 -1 -3 -4l-24 -205q175 -11 377 -70q22 -9 22 -30q0 -2 -1 -7t-1 -8l-37 -100q-11 -21 -37 -21h-4q-2 0 -31 8t-52 13.5t-67 14t-84 14t-93.5 10t-104.5 4.5q-211 0 -313 -80q-86 -71 -86 -186 q0 -113 102 -166q69 -40 260 -68q9 -1 52 -7t56.5 -8.5t52 -9t56 -11.5t49.5 -14t51 -18.5t42 -23t41 -29.5q94 -79 94 -245q0 -92 -30.5 -179t-90.5 -153q-135 -152 -414 -180l-26 -209q-2 -14 -12 -23.5t-23 -9.5h-119q-12 0 -19 8t-7 19v6l24 202q-206 7 -416 72 q-24 9 -24 31z" />
<glyph unicode="%" horiz-adv-x="1712" d="M172 1042q0 96 27 207q27 130 94 197q94 94 272 94q158 0 230 -72q65 -65 65 -204q0 -110 -24 -215q-27 -123 -93 -195q-91 -98 -274 -98q-174 0 -246 92q-51 63 -51 194zM315 63q0 9 4 13l1158 1433q6 9 16 9q5 0 10 -5l74 -53q6 -6 6 -12t-4 -14l-1157 -1434 q-6 -6 -16 -6q-9 0 -11 2l-73 53q-7 7 -7 14zM328 1053q0 -90 30 -125q34 -43 125 -43q87 0 130.5 36.5t64.5 114.5q27 114 27 203q0 95 -31 131q-37 43 -125 43t-131.5 -40t-63.5 -122q-26 -110 -26 -198zM1038 260q0 86 25 207q27 125 96 197q91 94 271 94q154 0 229 -72 q67 -67 67 -207q0 -108 -24 -213q-27 -127 -92 -194q-96 -99 -277 -99q-176 0 -246 90q-49 64 -49 197zM1194 270q0 -89 31 -125q36 -45 125 -45q85 0 128.5 37.5t63.5 114.5q29 111 29 205q0 93 -31 131q-38 41 -125 41q-88 0 -132 -39.5t-64 -120.5q-25 -105 -25 -199z " />
<glyph unicode="&#x26;" horiz-adv-x="1509" d="M158 340q0 145 73 252q24 34 55.5 61.5t59.5 43.5t62 28.5t54.5 17t45.5 9t27 4.5l8 51q-130 27 -193 90q-71 74 -71 199q0 157 96 270q143 174 473 174q108 0 205 -22q20 -3 20 -21q0 -10 -6 -22l-29 -105q-5 -20 -30 -20q-7 0 -11 2q-105 12 -139 12q-206 0 -297 -84 q-76 -70 -76 -186q0 -71 39 -119q43 -49 113 -72q82 -29 315 -47q18 -1 27 -2q16 -2 18 -14l45 364q3 25 31 31l148 29q2 2 6 2q20 0 20 -25q0 -2 -2 -4l-45 -369l301 -20q12 0 19.5 -7.5t7.5 -19.5v-4l-10 -82q-3 -26 -35 -30l-305 -21l-48 -393q-1 -7 -2.5 -19t-2.5 -22 t-1 -19q0 -54 29 -77q35 -25 111 -25q78 0 180 25h6q20 0 20 -21l9 -92v-2q0 -20 -21 -27q-120 -39 -256 -39q-161 0 -227 72q-53 56 -53 160q0 30 8 92l51 420q-8 -13 -23 -15q-36 -4 -115 -9t-133 -11.5t-98 -17.5q-131 -32 -192 -121q-49 -70 -49 -170q0 -88 55 -140 q83 -86 266 -86q30 0 53.5 2t46 6t33.5 5h11q23 0 26 -21l2 -102v-4q0 -17 -5.5 -26t-20.5 -13q-56 -21 -183 -21q-296 0 -422 142q-75 88 -75 225z" />
<glyph unicode="'" horiz-adv-x="382" d="M219 991v2l62 498q4 22 24 22h144q20 0 20 -18v-4l-90 -498q-7 -20 -27 -20h-114q-8 0 -13.5 5.5t-5.5 12.5z" />
<glyph unicode="(" horiz-adv-x="618" d="M193 432q0 360 120 709q106 312 265 506q22 28 36 28q9 0 17 -8l65 -63q25 -25 25 -33v-4q0 -4 -2 -6q-142 -191 -230 -469q-104 -329 -104 -650q0 -186 29 -350q27 -149 92 -278v-9q0 -15 -8 -20l-103 -76q-9 -6 -16 -6q-15 0 -27 18q-2 3 -12.5 16.5t-15.5 22.5 q-78 158 -107 351q-24 153 -24 321z" />
<glyph unicode=")" horiz-adv-x="618" d="M66 -190l2 4q146 199 231 469q102 338 102 651q0 210 -28 348q-29 159 -90 279q-2 2 -2 8q0 13 10 20l102 76q8 8 17 8t26 -20q20 -26 27 -37q70 -138 108 -352q23 -144 23 -322q0 -354 -119 -709q-104 -307 -264 -505q-24 -27 -37 -27q-9 0 -18 6l-64 64q-5 3 -14.5 16 t-9.5 18q0 1 -1 2.5t-1 2.5z" />
<glyph unicode="*" horiz-adv-x="1441" d="M428 1077v4l14 121q2 9 9 16t16 7h2l297 -21l-166 226q-6 6 -6 14q0 11 12 20l107 72q4 4 14 4q13 0 16 -10l136 -254l194 254q7 10 21 10q8 0 12 -4l88 -72q8 -5 8 -16q0 -10 -8 -18l-223 -226l303 21h2q18 0 18 -21v-2l-14 -121q-1 -10 -9 -16t-16 -6h-2l-299 16 l170 -227q4 -4 4 -12q0 -15 -12 -21l-106 -74q-8 -4 -13 -4q-7 0 -18 11l-133 253l-197 -253q-11 -11 -20 -11q-5 0 -13 4l-88 74q-8 8 -8 14q0 9 10 19l222 227l-303 -16h-3q-18 0 -18 18z" />
<glyph unicode="+" d="M184 610v4l13 103q2 14 11.5 22.5t24.5 8.5h377l45 378q7 31 37 31h107q12 0 20 -7.5t8 -19.5q0 -4 -2 -6l-45 -376h375q14 0 22.5 -7.5t8.5 -19.5v-4l-12 -103q-7 -30 -37 -30h-375l-47 -375q-1 -15 -11 -24t-24 -9h-109q-28 0 -28 27v6l47 375h-377q-29 0 -29 26z" />
<glyph unicode="," horiz-adv-x="690" d="M197 -213q0 4 2 8l80 406q3 16 9 21t23 5h158q25 0 25 -16v-8l-123 -406q-5 -16 -10 -21t-23 -5h-115q-26 0 -26 16z" />
<glyph unicode="-" horiz-adv-x="806" d="M164 506v4l12 102q1 13 12 22t25 9h541q12 0 20 -7.5t8 -19.5q0 -4 -2 -4l-12 -102q-1 -15 -11 -24t-24 -9h-540q-12 0 -20.5 8t-8.5 21z" />
<glyph unicode="." horiz-adv-x="690" d="M219 27v4l19 149q2 14 11.5 22.5t24.5 8.5h195q29 0 29 -27v-4l-19 -149q-1 -13 -11 -22t-24 -9h-196q-12 0 -20.5 7.5t-8.5 19.5z" />
<glyph unicode="/" horiz-adv-x="724" d="M47 -63q0 2 1 4.5t1 3.5l651 1671q6 12 23 12h4l125 -29q12 -3 12 -16q0 -2 -1 -4.5t-1 -3.5l-651 -1671q-7 -15 -23 -15l-4 2l-125 29q-12 3 -12 17z" />
<glyph unicode="0" horiz-adv-x="1177" d="M150 375q0 219 63 405q26 73 64.5 128.5t98 100t147 68t200.5 23.5q232 0 340 -103q96 -93 96 -286q0 -118 -24 -269q-26 -147 -82 -245q-128 -224 -467 -224q-229 0 -338 101q-98 93 -98 301zM350 350q0 -131 68 -188q59 -47 186 -47q142 0 211 58.5t100 184.5 q19 77 32.5 178.5t13.5 176.5q0 136 -66 196q-61 49 -188 49q-144 0 -214 -59.5t-102 -189.5q-41 -178 -41 -359z" />
<glyph unicode="1" horiz-adv-x="595" d="M139 932v10l11 76q2 12 6 17.5t16 6.5l395 60h2q6 0 12.5 -6.5t6.5 -12.5v-2l-129 -1050q-2 -12 -13 -21.5t-24 -9.5h-125q-12 0 -20.5 8.5t-8.5 20.5v2l107 872l-219 15q-17 0 -17 14z" />
<glyph unicode="2" horiz-adv-x="1165" d="M207 25v4l10 108q7 73 28 106t81 68q3 4 48.5 29.5t95 53t54.5 30.5q120 65 154 86q121 75 166 133q53 64 53 152q0 83 -53 120q-48 33 -170 33q-35 0 -72.5 -4.5t-61.5 -8.5t-63.5 -15.5t-52 -15.5t-55.5 -19.5t-47 -16.5q-6 -2 -13 -2q-15 0 -18 21l-6 86v8q0 24 22 35 q57 28 178 57t244 29q181 0 275 -70q98 -70 98 -223q0 -152 -103 -264q-47 -53 -111.5 -94t-164.5 -93l-320 -163l-4 -35l658 8q22 0 22 -29v-4l-12 -102q-2 -14 -10.5 -23.5t-20.5 -9.5h-809q-20 0 -20 25z" />
<glyph unicode="3" horiz-adv-x="1114" d="M61 -489q0 3 1 7.5t1 6.5l11 78q1 15 10.5 25t21.5 10h29q424 11 580 165q53 50 81.5 121t28.5 146q0 128 -123 186q-96 45 -284 55q-23 0 -23 25v8l11 78q2 25 30 33q21 5 83.5 19.5t92.5 23t74 25.5t74 38q112 75 112 213q0 79 -43 119q-55 55 -196 55 q-71 0 -151.5 -16t-118.5 -28t-111 -38q-4 -2 -12 -2q-16 0 -19 21l-6 86v10q0 21 23 33q59 29 185.5 58.5t256.5 29.5q181 0 281 -66q110 -73 110 -231q0 -136 -70 -234q-25 -35 -58 -62t-67 -42t-59.5 -23.5t-51.5 -15.5q-6 -1 -9 -2l-6 -51q142 -18 213 -111 q61 -79 61 -203q0 -99 -39.5 -193t-110.5 -165q-217 -217 -745 -217h-33q-35 0 -35 25z" />
<glyph unicode="4" horiz-adv-x="1316" d="M98 27q0 4 2 4l17 135q0 19 8 27l666 870q12 12 20 12h313q9 0 16 -8t7 -18l-2 -5l-109 -882h178q9 0 16 -8.5t7 -20.5v-4l-12 -96q-1 -13 -10.5 -23t-20.5 -10h-176l-47 -387q-2 -12 -11.5 -21.5t-21.5 -9.5h-133q-10 0 -17.5 8t-7.5 19v4l47 387h-704q-10 0 -17.5 8 t-7.5 19zM299 162h549l94 766h-61z" />
<glyph unicode="5" horiz-adv-x="1124" d="M63 -489q3 2 3 4l10 90q5 33 35 33q89 2 148 6t147.5 17t161.5 42t128 74q140 117 140 317q0 115 -66 178q-72 66 -209 66q-22 0 -46.5 -2.5t-46.5 -5.5t-49.5 -9t-46 -10t-45 -11.5t-39 -11t-35 -10.5t-26.5 -8q-4 -2 -14 -2t-18 8q-15 22 -15 27v2l137 748q2 8 10 15 t15 7h750q10 0 17 -8t7 -20v-5l-12 -100q-3 -14 -12 -23.5t-21 -9.5h-602l-80 -448q123 37 268 37q179 0 279 -95q102 -94 102 -276q0 -124 -41.5 -237t-124.5 -195q-57 -56 -134 -96.5t-148.5 -61.5t-160 -33t-149.5 -15t-135 -3h-2q-37 0 -57 2q-23 6 -23 23z" />
<glyph unicode="6" horiz-adv-x="1169" d="M164 449q0 88 18 264q52 414 281 633q249 236 733 249h2q35 0 35 -28q0 -4 -2 -6l-10 -84q-1 -18 -9.5 -25.5t-27.5 -9.5q-309 -16 -496 -131q-212 -132 -276 -406q18 8 49 20.5t116.5 33t157.5 20.5q200 0 303 -100q101 -101 101 -289q0 -110 -25.5 -219t-77.5 -189 q-134 -209 -450 -209q-204 0 -307 95q-115 109 -115 381zM360 455q0 -177 52 -254q59 -82 194 -82q107 0 174.5 39.5t104.5 122.5q24 56 37.5 135t13.5 147q0 133 -68 201q-60 57 -172 57q-68 0 -153.5 -21t-153.5 -52q-16 -115 -18 -142q-11 -101 -11 -151z" />
<glyph unicode="7" horiz-adv-x="1085" d="M158 938v4l12 100q1 13 10.5 23t20.5 10h913q11 0 18 -8t7 -20v-5l-17 -124q-4 -33 -18 -50q-251 -326 -410.5 -617t-312.5 -665q-2 -7 -12 -15.5t-21 -8.5h-141q-27 0 -27 22q0 4 1 8t1 5q131 331 331.5 690t414.5 622h-748q-9 0 -15.5 8.5t-6.5 20.5z" />
<glyph unicode="8" horiz-adv-x="1193" d="M141 332q0 173 84 286q49 63 115.5 97t128.5 37l6 53q-1 0 -16.5 3t-30.5 7t-35 11.5t-40.5 20.5t-37.5 30q-63 66 -63 190q0 92 29.5 178t87.5 148q138 147 417 147q227 0 338 -100q97 -87 97 -236q0 -164 -78 -272q-13 -18 -29.5 -34t-30 -27t-32.5 -21.5t-31 -16 t-31.5 -12t-26.5 -9t-25 -7t-19 -4.5l-9 -51q115 -10 181 -88q63 -73 63 -189q0 -88 -28.5 -179t-80.5 -155q-138 -166 -450 -166q-219 0 -332 82q-121 87 -121 277zM344 338q0 -116 84 -174q67 -47 184 -47q196 0 279 125q59 91 59 223q0 124 -78 182q-67 51 -192 51 q-190 0 -274 -120q-62 -91 -62 -240zM449 1051q0 -95 59 -148q62 -53 192 -53q189 0 263 108q57 83 57 207q0 121 -64 176q-61 56 -188 56q-174 0 -256 -109q-63 -88 -63 -237z" />
<glyph unicode="9" horiz-adv-x="1167" d="M70 -483l10 82q3 20 11 27t26 9q363 17 555 172q162 129 219 365q-18 -8 -50 -20.5t-117.5 -33t-156.5 -20.5q-202 0 -303 101q-102 97 -102 290q0 121 31 239t96 200q136 174 428 174q240 0 338 -131q82 -108 82 -348q0 -76 -19 -258q-53 -411 -272 -627 q-248 -243 -740 -256h-4q-32 0 -32 26v9zM367 512q0 -138 67 -199q60 -57 172 -57q69 0 154.5 21t150.5 53q19 114 21 139q10 95 10 154q0 179 -53 251q-56 82 -193 82q-109 0 -175 -38t-103 -121q-51 -114 -51 -285z" />
<glyph unicode=":" horiz-adv-x="690" d="M221 27q0 1 1 3t1 3l19 147q1 15 10.5 24t23.5 9h191q29 0 29 -27v-6l-19 -147q-1 -15 -11 -24t-24 -9h-192q-12 0 -20.5 7.5t-8.5 19.5zM328 889v4l18 149q1 15 12 24t25 9h190q12 0 20.5 -7t8.5 -19q0 -1 -1 -3.5t-1 -3.5l-18 -149q-1 -13 -11 -22t-24 -9h-191 q-12 0 -20 7.5t-8 19.5z" />
<glyph unicode=";" horiz-adv-x="690" d="M188 -213q0 1 1 3.5t1 4.5l80 406q3 15 9.5 20.5t23.5 5.5h158q26 0 26 -16q0 -1 -1 -3.5t-1 -4.5l-123 -406q-3 -16 -8.5 -21t-23.5 -5h-115q-27 0 -27 16zM332 889v4l18 149q1 15 11 24t24 9h193q26 0 26 -26v-7l-18 -149q-1 -13 -11 -22t-24 -9h-191q-28 0 -28 27z " />
<glyph unicode="&#x3c;" d="M188 582v4l15 119q3 14 16 22l930 461q4 2 12 2q15 0 17 -10l43 -113q2 -2 2 -6q0 -13 -15 -21l-827 -393l731 -393q10 -3 10 -14q0 -5 -4 -13l-69 -112q-10 -13 -21 -13q-4 0 -12 4l-817 457q-11 7 -11 19z" />
<glyph unicode="=" d="M205 430q0 2 2 4l12 107q1 13 12 22.5t25 9.5h836q13 0 20.5 -7.5t7.5 -18.5v-6l-12 -107q-1 -14 -13 -23.5t-26 -9.5h-833q-13 0 -22 8t-9 21zM248 764v4l12 109q1 13 12 22.5t25 9.5h836q13 0 21.5 -8t8.5 -20q0 -2 -2 -4l-12 -109q-1 -13 -12.5 -22t-24.5 -9h-836 q-12 0 -20 7.5t-8 19.5z" />
<glyph unicode="&#x3e;" d="M143 233q0 13 15 21l829 393l-733 393q-8 3 -8 15q0 8 2 12l71 113q5 10 19 10q8 0 12 -2l815 -461q13 -7 13 -16v-6l-17 -119q0 -16 -14 -23l-930 -457q-8 -4 -12 -4q-14 0 -17 13l-43 112q0 1 -1 3t-1 3z" />
<glyph unicode="?" d="M319 1438v6q0 22 27 31q42 16 170.5 40.5t251.5 24.5q227 0 344 -86q102 -79 102 -219q0 -114 -57 -203q-19 -29 -42 -55t-51 -48t-44.5 -34t-46 -29.5t-31.5 -19.5q-17 -11 -57.5 -34.5t-65 -40t-54.5 -43t-47 -59t-22 -71.5q-6 -43 -6 -88v-43q0 -29 -39 -29h-123 q-18 0 -23.5 4t-6.5 23q-2 10 -2 57t2 72q5 40 15 74.5t20 59t29.5 49.5t32.5 39.5t42 36t45 32t54 34t57 35.5q2 1 39.5 24.5t66 46.5t51.5 50q51 60 51 131q0 84 -67 125q-69 39 -201 39q-44 0 -92 -4.5t-93 -12.5t-75 -14t-65 -14l-35 -8q-20 -4 -23 -4q-9 0 -12.5 5 t-5.5 19zM440 27v6l29 231q1 15 11.5 24t25.5 9h145q12 0 19.5 -7.5t7.5 -19.5v-6l-29 -231q-3 -33 -35 -33h-145q-29 0 -29 27z" />
<glyph unicode="@" horiz-adv-x="1830" d="M201 551q0 159 32 332t93 293q94 187 278.5 275.5t499.5 88.5q409 0 575 -158q138 -133 138 -434q0 -64 -15 -192q-10 -95 -35 -203q-2 -11 -11.5 -20t-22.5 -9h-93q-11 0 -17.5 8.5t-6.5 18.5v6q25 104 35 197q14 126 14 194q0 199 -82 299q-62 77 -181.5 113.5 t-316.5 36.5q-193 0 -320.5 -35t-207.5 -109q-104 -98 -154 -288q-51 -202 -51 -420q0 -197 94 -297q122 -131 484 -131q89 0 211 12h4q10 0 16 -8t6 -19v-2l-10 -86q-3 -24 -33 -28q-136 -13 -211 -13q-422 0 -585 166q-127 133 -127 412zM608 520q0 82 25 152 q25 71 84 108q10 7 23 13t23 10.5t27 9t26 7t29 6.5t26 5t29 4.5t26 4.5l301 47l8 63q0 7 1 20t1 19q0 50 -41 66q-43 18 -137 18q-49 0 -107 -8.5t-89 -15t-101 -23.5h-12q-21 0 -21 18l-8 78v4q0 12 8.5 19.5t18.5 9.5q51 18 149 35.5t201 17.5q160 0 233 -43 q40 -25 55 -60t15 -87q0 -39 -8 -113l-50 -405q-10 -88 -42 -120.5t-123 -53.5q-106 -25 -217 -25q-60 0 -102.5 3t-98.5 19.5t-90 47.5q-62 58 -62 149zM778 555q0 -64 41 -94q44 -33 160 -33q109 0 197 27l38 307l-274 -45q-32 -5 -46 -8t-35.5 -10t-34.5 -18.5t-23 -29.5 q-23 -44 -23 -96z" />
<glyph unicode="A" horiz-adv-x="1456" d="M29 20q0 13 4 19l696 1448q4 10 17.5 18t21.5 8h301q8 0 19 -8t14 -18l332 -1448q0 -2 1 -5t1 -5q0 -12 -8.5 -20.5t-20.5 -8.5h-154q-9 0 -17.5 7.5t-10.5 15.5l-133 602h-578l-276 -607q-11 -18 -35 -18h-156q-18 0 -18 20zM586 791h473l-127 563h-84z" />
<glyph unicode="B" horiz-adv-x="1480" d="M188 29v4l179 1448q1 13 13 22.5t26 9.5h675q221 0 318 -81q84 -75 84 -232q0 -129 -60 -229q-71 -119 -254 -158l-8 -59q151 -15 221 -97q58 -67 58 -188q0 -157 -74 -270q-131 -199 -498 -199h-649q-12 0 -21.5 8.5t-9.5 20.5zM410 166h483q216 0 293 125q45 71 45 188 q0 88 -37 133q-60 75 -246 78l-473 12zM494 848l473 18q196 6 262 119q41 72 41 180q0 65 -33 113q-52 70 -188 70h-494z" />
<glyph unicode="C" horiz-adv-x="1353" d="M193 526q0 149 26 316t74 288q80 203 238 302.5t427 99.5q244 0 463 -74q29 -10 29 -31q0 -3 -2 -9t-2 -7l-31 -92q-8 -25 -33 -25q-12 0 -20 2q-225 64 -406 64q-197 0 -307 -68.5t-166 -218.5q-37 -102 -59.5 -251t-22.5 -271q0 -204 86 -293q94 -98 322 -98 q195 0 422 59q16 4 20 4q24 0 27 -26l8 -91v-8q0 -28 -37 -39q-232 -73 -481 -73q-326 0 -463 155q-112 129 -112 385z" />
<glyph unicode="D" horiz-adv-x="1591" d="M188 29v4l179 1448q1 13 12.5 22.5t23.5 9.5h562q173 0 291 -26.5t192 -91.5q70 -62 103.5 -164.5t33.5 -261.5q0 -285 -82 -535q-45 -131 -111.5 -217.5t-160.5 -133.5t-199.5 -65t-251.5 -18h-561q-12 0 -21.5 8.5t-9.5 20.5zM410 166h362q91 0 156 7t128 27t107 56 t81.5 94.5t64.5 141.5q67 210 67 454q0 207 -67 291q-52 66 -144 88.5t-247 22.5h-363z" />
<glyph unicode="E" horiz-adv-x="1304" d="M188 29v4l179 1448q1 13 13 22.5t26 9.5h935q12 0 20.5 -8t8.5 -20v-4l-14 -107q-2 -12 -12.5 -22.5t-22.5 -10.5h-768l-57 -467h737q12 0 20.5 -8t8.5 -20q0 -2 -2 -4l-13 -109q-2 -12 -13 -22.5t-24 -10.5h-735l-65 -530h768q12 0 20 -8.5t8 -20.5q-2 -2 -2 -4 l-12 -104q-1 -13 -12 -23t-25 -10h-936q-12 0 -21.5 8.5t-9.5 20.5z" />
<glyph unicode="F" horiz-adv-x="1191" d="M188 29v4l179 1448q1 13 13 22.5t26 9.5h890q12 0 20.5 -8t8.5 -20q0 -1 -1 -2t-1 -2l-12 -109q-1 -13 -12 -23t-25 -10h-721l-68 -565h654q13 0 20.5 -8.5t7.5 -20.5v-4l-14 -112q-2 -13 -12 -23t-23 -10h-655l-70 -563q-1 -13 -12 -23t-25 -10h-137q-12 0 -21.5 8.5 t-9.5 20.5z" />
<glyph unicode="G" horiz-adv-x="1523" d="M190 539q0 147 25.5 302t73.5 277q80 215 248 318.5t462 103.5q128 0 256 -20t186 -36.5t85 -27.5q28 -12 28 -29q0 -9 -6 -24l-30 -90q-9 -23 -33 -23q-13 0 -21 2q-6 2 -73.5 19.5t-111 27t-126 19.5t-162.5 10q-214 0 -332.5 -71.5t-177.5 -233.5q-37 -103 -59.5 -253 t-22.5 -271q0 -196 84 -289q102 -111 389 -111q72 0 149.5 8.5t118.5 17.5l42 9l63 508l-266 31q-18 4 -18 18q0 2 2 2l14 119q0 9 7.5 14.5t16.5 5.5h445q22 0 22 -22v-6l-75 -617q-11 -93 -35 -134t-92 -64q-76 -25 -205 -40.5t-213 -15.5q-198 0 -330 37t-207 117 q-121 130 -121 412z" />
<glyph unicode="H" horiz-adv-x="1636" d="M188 29v2l181 1458q3 24 28 27l154 24h6q18 0 18 -22v-5l-79 -643h858l76 619q5 24 30 27l154 24h4q20 0 20 -22v-5l-182 -1482q-2 -12 -13 -21.5t-24 -9.5h-139q-12 0 -20.5 8.5t-8.5 20.5v2l82 663h-858l-82 -663q-2 -12 -13 -21.5t-24 -9.5h-137q-13 0 -22 8.5 t-9 20.5z" />
<glyph unicode="I" horiz-adv-x="575" d="M188 29v2l181 1458q3 24 28 27l154 24h6q18 0 18 -22v-5l-182 -1482q-2 -12 -13 -21.5t-24 -9.5h-137q-12 0 -21.5 8.5t-9.5 20.5z" />
<glyph unicode="J" horiz-adv-x="583" d="M-176 -358l10 79q1 14 6 22t10.5 9.5t14.5 1.5h2q14 0 100 4q110 3 159 34.5t62 131.5l191 1565q3 23 31 27l153 24h4q21 0 21 -22q-2 -3 -2 -5l-195 -1595q-21 -168 -119 -240.5t-272 -72.5q-85 0 -147 8q-29 0 -29 22v7z" />
<glyph unicode="K" horiz-adv-x="1333" d="M188 29v2l179 1450q1 13 12.5 22.5t23.5 9.5h140q12 0 20 -8t8 -20v-4l-75 -623h79l639 643q18 12 29 12l193 -4q7 0 12.5 -6t5.5 -14q0 -6 -6 -12l-727 -709l586 -735q2 -2 2 -8q0 -9 -7 -17t-16 -8h-203q-12 0 -24 12l-506 670h-80l-80 -651q-2 -12 -13 -21.5t-24 -9.5 h-137q-12 0 -21.5 8.5t-9.5 20.5z" />
<glyph unicode="L" horiz-adv-x="1189" d="M188 29v2l181 1458q3 24 28 27l154 24h6q18 0 18 -22v-5l-163 -1335h735q12 0 20.5 -8t8.5 -20v-5l-15 -112q-1 -13 -12 -23t-25 -10h-905q-13 0 -22 8.5t-9 20.5z" />
<glyph unicode="M" horiz-adv-x="2041" d="M154 27q0 4 2 6l297 1448q1 13 11.5 22.5t24.5 9.5h359q13 0 23.5 -9.5t13.5 -22.5l188 -1010h8l443 1010q16 32 45 32h350q13 0 22 -9t9 -21v-2l-54 -1448q-1 -13 -12.5 -23t-25.5 -10h-136q-13 0 -21.5 9.5t-8.5 21.5v2l47 1319h-72l-479 -1030q-16 -33 -43 -33h-199 q-14 0 -24 10t-13 23l-211 1030h-73l-275 -1319q-3 -14 -14.5 -23.5t-24.5 -9.5h-127q-12 0 -21 8t-9 19z" />
<glyph unicode="N" horiz-adv-x="1710" d="M188 29v2l179 1452q1 12 13 21t26 9h356q23 0 35 -32l528 -1336h18l162 1340q3 28 35 28h141q27 0 27 -22v-6l-178 -1454q-2 -12 -13 -21.5t-24 -9.5h-303q-20 0 -37 33l-530 1317h-72l-158 -1319q-2 -12 -13 -21.5t-24 -9.5h-137q-13 0 -22 8.5t-9 20.5z" />
<glyph unicode="O" horiz-adv-x="1599" d="M190 516q0 147 26.5 316.5t72.5 291.5q38 99 94 173t139 130t200 84.5t267 28.5q340 0 481 -154q123 -128 123 -401t-71 -518q-28 -93 -67 -166.5t-98.5 -136t-137.5 -104t-184.5 -64.5t-237.5 -23q-328 0 -475 144q-132 132 -132 399zM399 508q0 -194 97 -279 q99 -86 319 -86q101 0 179 17.5t132.5 48.5t95 81t65 107.5t42.5 134.5q23 102 39 236t16 236q0 184 -88 272q-97 94 -329 94q-151 0 -252 -39.5t-155.5 -107.5t-86.5 -176q-31 -103 -52.5 -262t-21.5 -277z" />
<glyph unicode="P" horiz-adv-x="1433" d="M188 29v2l179 1450q1 13 13 22.5t26 9.5h657q125 0 215.5 -24t144.5 -88q70 -85 70 -256q0 -113 -37 -232q-43 -126 -123 -196q-81 -73 -194.5 -97t-259.5 -24h-72l-344 4l-70 -569q-2 -12 -13 -21.5t-24 -9.5h-137q-13 0 -22 8.5t-9 20.5zM481 750l330 6q101 3 150.5 6 t111.5 19.5t101 47.5q61 48 86 146q22 77 22 155q0 99 -47 152q-35 38 -96.5 52t-153.5 14h-430z" />
<glyph unicode="Q" horiz-adv-x="1599" d="M190 532q0 141 25 299t70 281q37 102 92.5 178t138.5 133.5t201.5 87t271.5 29.5q322 0 465 -137q139 -128 139 -420q0 -296 -80 -547q-34 -103 -83 -181t-123 -140t-181 -97.5t-245 -42.5l18 -186h346q13 0 21 -8.5t8 -20.5v-4l-14 -116q-1 -13 -12 -23t-25 -10h-201 q-85 0 -141 15.5t-90.5 53t-53 85.5t-32.5 126l-15 90q-250 20 -373 146q-127 130 -127 409zM399 510q0 -184 84 -268q99 -99 332 -99q121 0 209 23.5t146.5 72.5t94 112t58.5 153q26 103 43.5 246.5t17.5 250.5q0 199 -96 283q-99 86 -321 86q-151 0 -252.5 -40 t-156.5 -109t-87 -177q-31 -102 -51.5 -260t-20.5 -274z" />
<glyph unicode="R" horiz-adv-x="1513" d="M188 29v2l179 1450q1 13 13 22.5t26 9.5h663q275 0 373 -129q57 -75 57 -213q0 -157 -57 -260q-81 -156 -320 -184l-6 -53q63 -6 102.5 -14t84.5 -33.5t71 -67.5q41 -65 41 -194q0 -39 -8 -113l-14 -219q-2 -11 -12 -22t-21 -11h-143q-31 0 -31 25v4l14 235q4 70 4 109 q0 106 -61 164q-76 70 -256 73l-422 11l-72 -590q-2 -12 -13 -21.5t-24 -9.5h-137q-13 0 -22 8.5t-9 20.5zM483 770l412 14q123 3 205 29.5t129 95.5q57 81 57 226q0 91 -37 139q-56 74 -198 74h-496z" />
<glyph unicode="S" horiz-adv-x="1359" d="M152 80q0 10 2 14l36 101q7 20 35 20h4q5 -1 41.5 -9.5t77.5 -17t96 -17.5t120 -15t126 -6q217 0 322 102q80 80 80 203q0 68 -30 108.5t-89 63.5q-66 28 -244 51q-87 13 -144 24.5t-128 41t-115 71.5q-86 83 -86 238q0 94 35 184t102 152q155 147 486 147q243 0 464 -72 q25 -6 25 -30q0 -9 -2 -13l-37 -102q-3 -7 -14 -14t-19 -7h-4q-7 2 -44 11t-73 17t-86.5 17t-110.5 14t-120 5q-191 0 -291 -66q-52 -33 -79 -85t-27 -113q0 -118 108 -172q73 -36 254 -64q9 -1 42.5 -5.5t45 -6.5t42 -6.5t45 -8t40.5 -9.5t42 -11.5t37 -13.5t38 -17t33 -20 q117 -83 117 -264q0 -103 -36.5 -196.5t-107.5 -162.5q-167 -164 -514 -164q-44 0 -89.5 3t-82 6.5t-75.5 10t-65 11.5t-57.5 13t-45.5 11.5t-36 9.5l-22 7q-22 8 -22 31z" />
<glyph unicode="T" horiz-adv-x="1269" d="M178 1370v4l12 107q1 13 12 22.5t25 9.5h1188q12 0 20.5 -8t8.5 -20v-4l-14 -107q-2 -13 -12 -23t-23 -10h-492l-162 -1310q-2 -12 -12.5 -21.5t-23.5 -9.5h-138q-13 0 -21.5 8.5t-8.5 20.5v2l161 1310h-491q-12 0 -20.5 9t-8.5 20z" />
<glyph unicode="U" horiz-adv-x="1556" d="M223 408q0 68 8 131l117 950q3 24 29 27l153 24h7q18 0 18 -22v-5l-121 -989q-8 -49 -8 -100q0 -153 92 -219q86 -62 279 -62q213 0 321 81.5t131 267.5l123 997q3 24 29 27l153 24h5q20 0 20 -22v-5l-119 -964q-9 -72 -22.5 -130.5t-38.5 -119.5t-59.5 -108t-86.5 -89 t-118.5 -69.5t-157.5 -43.5t-201 -16q-328 0 -457 138q-96 104 -96 297z" />
<glyph unicode="V" horiz-adv-x="1415" d="M213 1477v6q0 12 8 21t19 9h161q27 0 33 -22l264 -1329h76l574 1329q11 22 38 22h162q8 0 13.5 -6.5t5.5 -15.5q0 -8 -2 -12l-654 -1446q-15 -33 -43 -33h-303q-12 0 -22 9.5t-13 23.5z" />
<glyph unicode="W" horiz-adv-x="2093" d="M244 1477v4q0 12 7.5 22t16.5 10h160q33 0 33 -22l76 -1325h71l453 1192q5 14 17.5 23.5t25.5 9.5h229q13 0 23 -9.5t12 -23.5l158 -1192h71l402 1325q7 22 39 22h157q19 0 19 -24q0 -6 -2 -10l-475 -1446q-5 -14 -17.5 -23.5t-25.5 -9.5h-314q-13 0 -22.5 9.5 t-11.5 23.5l-152 1194l-446 -1194q-5 -14 -17.5 -23.5t-25.5 -9.5h-306q-13 0 -22.5 9.5t-11.5 23.5z" />
<glyph unicode="X" horiz-adv-x="1388" d="M10 23q0 8 4 12l631 758l-397 684q-2 2 -2 8q0 10 9 19t17 9h179q19 0 32 -22l330 -598l469 600q14 20 37 20h170q9 0 14.5 -7t5.5 -15q0 -6 -4 -14l-551 -682l428 -760q2 -2 2 -8q0 -9 -8 -18t-18 -9h-176q-21 0 -29 16l-369 674l-546 -674q-12 -16 -31 -16h-178 q-8 0 -13.5 7.5t-5.5 15.5z" />
<glyph unicode="Y" horiz-adv-x="1304" d="M170 1485q0 10 10 19t19 9h174q22 0 33 -22l350 -700l516 702q17 20 37 20h172q9 0 14.5 -7t5.5 -15q0 -6 -4 -14l-668 -861l-71 -585q-2 -12 -13 -21.5t-24 -9.5h-137q-12 0 -21.5 8.5t-9.5 20.5q0 2 2 2l72 587l-455 859q0 1 -1 4t-1 4z" />
<glyph unicode="Z" horiz-adv-x="1318" d="M94 27v6l12 102q1 11 2.5 18.5t5 13.5t5.5 9t7.5 9t8.5 10l987 1148h-843q-12 0 -19.5 8t-7.5 19v6l12 105q1 13 12 22.5t23 9.5h1071q11 0 19 -8t8 -20v-4l-15 -117q-4 -24 -22 -45l-1000 -1147h865q12 0 20 -8t8 -19q0 -4 -2 -6l-12 -106q-2 -14 -12 -23.5t-23 -9.5 h-1083q-12 0 -19.5 8t-7.5 19z" />
<glyph unicode="[" horiz-adv-x="636" d="M129 -186l215 1747q2 10 9 19.5t16 10.5l282 82q1 0 3 1t3 1q13 0 17 -14l28 -98v-4q0 -16 -14 -23l-174 -74l-190 -1550l157 -74q11 -7 11 -14q0 -5 -5 -10l-53 -101q-7 -14 -18 -14q-4 0 -6 2l-265 82q-6 1 -11 10t-5 17v4z" />
<glyph unicode="\" horiz-adv-x="581" d="M92 1595v4q0 8 5 15t12 8l131 43q1 0 3 1t3 1q12 0 16 -14l404 -1823v-6q0 -16 -17 -23l-131 -41q-2 -2 -6 -2q-6 0 -11 4.5t-5 10.5z" />
<glyph unicode="]" horiz-adv-x="636" d="M102 -180q0 12 13 18l178 74l188 1550l-155 74q-11 7 -11 16t2 11l54 98q7 14 18 14q2 0 4.5 -1t3.5 -1l262 -82q6 -2 11.5 -10.5t5.5 -17.5v-2l-215 -1747q-2 -10 -9.5 -20t-15.5 -11l-282 -82q-4 -2 -9 -2q-11 0 -14 14l-29 101v6z" />
<glyph unicode="^" d="M166 649q0 8 6 17l528 833q10 14 27 14h125q18 0 22 -14l326 -833q0 -2 1 -6t1 -5q0 -11 -14 -22l-115 -51q-1 0 -4.5 -1t-5.5 -1q-15 0 -19 12l-278 745l-459 -745q-8 -12 -20 -12q-2 0 -6 1t-5 1l-100 51q-10 5 -10 16z" />
<glyph unicode="_" horiz-adv-x="1040" d="M-31 -256l13 109h1040l-14 -109h-1039z" />
<glyph unicode="`" horiz-adv-x="690" d="M326 1438q0 6 4 14l82 88q8 8 16 8t12 -2l258 -211q7 -7 7 -12q0 -7 -7 -14l-77 -84q-5 -8 -17 -8q-6 0 -10 4l-262 204q-6 6 -6 13z" />
<glyph unicode="a" horiz-adv-x="1140" d="M123 252q0 116 41 203q23 48 56.5 80.5t81 50.5t89.5 27t108 20q10 1 15 2l391 63q17 115 17 144q0 62 -60 86q-50 20 -176 20q-37 0 -77.5 -3.5t-70.5 -7t-70.5 -11.5t-60 -12t-56.5 -13t-44 -10q-4 -2 -14 -2q-16 0 -19 16l-8 101v2q0 22 25 28q65 23 189 44.5 t251 21.5q205 0 297 -53q86 -53 86 -162q0 -33 -8 -103l-70 -571q-13 -107 -52 -146.5t-150 -64.5q-130 -29 -273 -29q-211 0 -305 47q-133 68 -133 232zM322 279q0 -76 51 -117q56 -47 209 -47q147 0 256 35l51 405l-354 -57q-3 -1 -21.5 -3.5t-22.5 -3.5t-20 -4t-21.5 -5 t-19 -6t-19 -8t-16 -10t-17 -12.5t-13.5 -15t-13 -18.5q-30 -48 -30 -133z" />
<glyph unicode="b" horiz-adv-x="1177" d="M160 131q0 20 8 78l156 1272q3 25 30 28l138 31h6q20 0 20 -22v-7l-43 -348l-35 -119q196 58 348 58q235 0 318 -117q61 -87 61 -258q0 -213 -51 -389q-52 -192 -170.5 -278.5t-345.5 -86.5q-103 0 -197 14t-149 33q-54 19 -74 45t-20 66zM350 152q102 -35 260 -35 q139 0 213.5 60t110.5 210q39 159 39 326q0 114 -35 166q-26 40 -74.5 57.5t-128.5 17.5q-53 0 -125.5 -11t-119.5 -23l-46 -11z" />
<glyph unicode="c" horiz-adv-x="989" d="M143 373q0 231 66 420q57 160 175 234.5t331 74.5q88 0 181 -17t134 -36q17 -11 17 -25q0 -5 -3 -14l-26 -80q-9 -23 -29 -23h-12q-168 47 -262 47q-134 0 -208.5 -47.5t-113.5 -161.5q-25 -71 -39 -172t-14 -186q0 -141 59 -203q58 -61 213 -61q114 0 275 41q4 2 12 2 q20 0 23 -23l6 -75v-7q0 -22 -25 -32q-42 -20 -140.5 -37t-187.5 -17q-230 0 -333 93q-99 91 -99 305z" />
<glyph unicode="d" horiz-adv-x="1177" d="M141 348q0 106 19 231.5t51 215.5q55 159 169.5 233t315.5 74q137 0 301 -39l-6 119l37 299q3 25 33 28l135 31h6q21 0 21 -22v-7l-164 -1331q-4 -29 -6.5 -42.5t-12 -36.5t-24 -36t-41.5 -27t-66 -24q-3 -1 -32 -7t-39 -8t-38 -7.5t-47 -7.5t-48 -5.5t-59 -4.5t-62 -1 q-251 0 -353 99q-90 90 -90 276zM340 383q0 -155 59 -211q33 -31 82.5 -42t126.5 -11q62 0 126.5 8.5t97.5 17.5l34 9l95 770q-119 32 -254 32q-132 0 -204.5 -44.5t-113.5 -172.5q-49 -162 -49 -356z" />
<glyph unicode="e" horiz-adv-x="1114" d="M143 418q0 162 47 316t119 231q131 137 400 137q73 0 130 -8.5t110.5 -31t89 -59t56.5 -96.5t21 -139q0 -50 -7 -90.5t-24 -72.5t-37.5 -57.5t-54.5 -44.5t-67 -32.5t-84.5 -23.5t-96.5 -16t-113.5 -10.5t-125.5 -7.5t-142 -6q-18 -1 -28 -1v-39q0 -139 90 -197 q76 -51 225 -51q15 0 32 1t30.5 2t32.5 4t31 5t32.5 6t30 6t32 7.5t29 7t30 7.5t27.5 7q4 2 13 2q13 0 18 -18l17 -88q2 -2 2 -7q0 -19 -27 -26q-183 -62 -383 -62q-86 0 -155 14t-116 37t-81.5 58.5t-54 71.5t-30.5 84t-14.5 88.5t-3.5 91.5zM348 541q44 3 124 7 q99 6 143.5 9t109.5 12t91.5 22t57 35.5t40.5 56t10 81.5q0 194 -236 194q-76 0 -134 -23.5t-94 -61t-60.5 -94t-35.5 -112.5t-16 -126z" />
<glyph unicode="f" horiz-adv-x="745" d="M-135 -393l10 76q4 34 33 34h2q1 0 12 -0.5t29 -1t35 -0.5q103 0 149.5 30.5t57.5 125.5l129 1057h-160q-12 0 -19.5 6.5t-7.5 17.5v4l10 88q1 13 11 22t24 9h160l20 174q19 150 103 220.5t242 70.5q110 0 243 -31q23 -8 23 -24v-6l-25 -84q-6 -23 -28 -23h-5 q-123 21 -184 21q-84 0 -125.5 -28t-50.5 -105l-23 -185h295q27 0 27 -26v-5l-10 -88q-6 -28 -35 -28h-295l-131 -1065q-20 -154 -113 -223.5t-252 -69.5q-33 0 -120 6q-31 0 -31 27v4z" />
<glyph unicode="g" horiz-adv-x="1189" d="M68 -209q0 98 53 160q23 27 58 45.5t61 26t69 16.5l2 24q-93 20 -123 46q-32 29 -32 98q0 71 28 117q26 42 77 62.5t142 35.5q-36 11 -52 16t-45 21t-48 37q-51 58 -51 163q0 151 69 263q118 180 439 180q37 0 66.5 -2t57 -7t42 -8.5t45 -12t41.5 -11.5q38 -10 75 -10 q43 0 97 14q39 10 112 43q9 6 17 6q10 0 12 -12l27 -113q0 -2 1 -5.5t1 -4.5q0 -5 -15 -14q-64 -45 -147 -45q-13 0 -22 1t-14.5 2t-19 4t-26.5 5q21 -21 41 -66q20 -54 20 -110q0 -67 -23.5 -137.5t-64.5 -120.5q-115 -146 -409 -146h-146q-84 0 -114 -45q-23 -29 -23 -78 q0 -42 29 -61q36 -23 108 -23h287q184 0 262 -67q58 -52 58 -144q0 -65 -24.5 -128.5t-68.5 -108.5q-132 -143 -456 -143q-244 0 -353 49q-120 53 -120 188zM260 -178q0 -78 82 -107q64 -24 217 -24q195 0 277 67q59 50 59 129q0 51 -31 76q-38 31 -141 31h-252 q-128 0 -178 -66q-33 -42 -33 -106zM397 674q0 -84 47 -131q59 -56 195 -56q197 0 262 117q41 72 41 178q0 82 -45 127q-59 62 -199 62q-177 0 -249 -101q-52 -74 -52 -196z" />
<glyph unicode="h" horiz-adv-x="1189" d="M145 27v4l179 1450q3 25 30 28l138 31h6q20 0 20 -22v-7l-43 -348l-35 -119q88 24 201.5 41t198.5 17q183 0 256 -64q65 -55 65 -168v-4q0 -13 -4 -59l-8 -57l-88 -719q-2 -14 -11 -22.5t-22 -8.5h-127q-29 0 -29 27v4l89 710q0 3 3 35t3 49v6q-3 60 -29 89 q-39 36 -135 36q-77 0 -167.5 -13t-141.5 -25l-52 -13l-106 -874q-2 -14 -11 -22.5t-24 -8.5h-127q-29 0 -29 27z" />
<glyph unicode="i" horiz-adv-x="534" d="M176 27v4l125 1009q1 13 11 22t24 9h127q26 0 26 -27v-4l-122 -1009q-7 -31 -35 -31h-129q-12 0 -19.5 7.5t-7.5 19.5zM330 1276v6l28 223q3 35 39 35h119q31 0 31 -29v-6l-27 -223q-6 -35 -39 -35h-121q-30 0 -30 29z" />
<glyph unicode="j" horiz-adv-x="518" d="M-176 -393l10 76q4 34 33 34h2q1 0 11.5 -0.5t28.5 -1t36 -0.5q102 0 148 30.5t57 125.5l145 1169q1 13 11 22t24 9h127q26 0 26 -27v-4l-143 -1177q-21 -158 -111.5 -225.5t-253.5 -67.5q-39 0 -120 6q-31 0 -31 27v4zM324 1276v6l26 223q6 35 41 35h119q14 0 22.5 -8 t8.5 -21v-6l-29 -223q-3 -35 -39 -35h-119q-30 0 -30 29z" />
<glyph unicode="k" horiz-adv-x="1075" d="M145 27v4l179 1450q3 25 30 28l138 31h6q20 0 20 -22v-7l-112 -905h81l447 459q10 10 20 10l172 -4q7 0 13 -5t6 -11q0 -10 -6 -13l-506 -503l399 -510q2 -2 2 -9q0 -8 -6.5 -14t-15.5 -6h-181q-10 0 -20 10l-342 457h-80l-53 -436q-2 -14 -11 -22.5t-24 -8.5h-127 q-29 0 -29 27z" />
<glyph unicode="l" horiz-adv-x="575" d="M164 164q0 45 14 145l146 1172q3 25 30 28l138 31h6q20 0 20 -22v-7l-149 -1204q-13 -80 -13 -114q0 -31 21 -48q18 -18 59 -18q26 0 74 8q2 0 5 1t5 1q12 0 12 -18l9 -84v-2q0 -12 -7 -19.5t-12 -7.5q-58 -26 -160 -26t-155 53q-43 46 -43 131z" />
<glyph unicode="m" horiz-adv-x="1916" d="M145 27v4l107 858q8 65 32.5 94.5t102.5 54.5q83 26 213.5 45t230.5 19q188 0 267 -76q80 29 220 52.5t241 23.5q203 0 276 -76q53 -56 53 -160q0 -17 -4 -63l-96 -772q-2 -14 -11 -22.5t-22 -8.5h-129q-12 0 -19.5 7.5t-7.5 19.5v4l93 749q2 18 2 51q0 54 -27 84 q-38 41 -139 41q-77 0 -167 -13t-141 -25l-51 -13l-106 -874q-2 -14 -11 -22.5t-24 -8.5h-127q-29 0 -29 27v4l93 749q4 32 4 45q0 68 -33 97q-37 34 -133 34q-77 0 -167.5 -13t-141.5 -25l-52 -13l-106 -874q-2 -14 -11 -22.5t-24 -8.5h-127q-29 0 -29 27z" />
<glyph unicode="n" horiz-adv-x="1187" d="M145 27v4l107 858q8 65 32.5 94.5t102.5 54.5q83 26 213.5 45t228.5 19q202 0 273 -74q55 -52 55 -164v-16q0 -29 -2 -45l-94 -772q-2 -14 -11 -22.5t-24 -8.5h-127q-29 0 -29 27v4l93 749q4 32 4 47v7q-3 51 -25 79q-37 43 -141 43q-77 0 -167 -13t-141 -25l-51 -13 l-106 -874q-2 -14 -11 -22.5t-24 -8.5h-127q-29 0 -29 27z" />
<glyph unicode="o" horiz-adv-x="1150" d="M141 362q0 64 15 175q9 73 19.5 129.5t30.5 118t47 106t69 86.5t95.5 68t128 41.5t165.5 15.5q232 0 338 -101q94 -91 94 -286q0 -60 -15 -178q-9 -73 -19.5 -129t-30.5 -117.5t-47 -106t-69 -86.5t-95.5 -68t-128 -41.5t-165.5 -15.5q-242 0 -342 105q-90 90 -90 284z M338 358q0 -126 49 -178q61 -61 203 -61q46 0 84 6.5t67.5 16.5t53.5 29t41.5 37.5t31.5 49.5t22.5 56.5t17 67t13 73t11.5 82.5q14 123 14 184q0 128 -59 182q-59 53 -193 53q-41 0 -76 -4.5t-63.5 -15t-51 -22t-41 -32t-32 -39t-24.5 -48t-18.5 -53.5t-14.5 -62.5 t-11 -67.5t-10 -75q-14 -115 -14 -179z" />
<glyph unicode="p" horiz-adv-x="1177" d="M92 -401l158 1275q8 71 32 103t99 59q87 30 199 48t211 18q197 0 288 -88q90 -87 90 -291q0 -71 -14 -186q-18 -148 -52.5 -249t-96.5 -174t-158.5 -107t-235.5 -34q-161 0 -301 39l8 -123l-32 -260q-3 -23 -31 -30l-137 -29h-6q-21 0 -21 22v7zM350 150q102 -33 260 -33 q168 0 243.5 90t104.5 328q13 110 13 172q0 114 -35 170q-27 44 -77 59.5t-132 15.5q-52 0 -123 -11t-116 -23l-44 -11z" />
<glyph unicode="q" horiz-adv-x="1177" d="M141 354q0 38 13 181q20 156 57 260.5t102.5 174.5t162 101t235.5 31q146 0 323 -43q66 -18 90.5 -46.5t24.5 -70.5q0 -17 -4 -49l-154 -1264q-3 -23 -30 -30l-138 -29h-6q-20 0 -20 22v7l37 292l36 121q-3 -1 -21.5 -5t-23.5 -5t-23.5 -5t-27 -5.5t-27.5 -5t-31.5 -4.5 t-32 -3.5t-36.5 -3t-38 -1.5t-42 -1q-239 0 -340 101q-86 93 -86 280zM340 377q0 -154 63 -211q56 -49 203 -49q63 0 128 9.5t98 18.5l34 9l95 770q-117 32 -254 32q-85 0 -140.5 -16t-101 -61.5t-72.5 -128t-43 -213.5q-10 -76 -10 -160z" />
<glyph unicode="r" horiz-adv-x="710" d="M145 29v2l107 862q7 62 32 90.5t89 54.5q71 28 185.5 46t197.5 18h32q2 0 7 -1t10 -1q22 -6 22 -25v-6l-12 -100q-4 -27 -24 -27q-206 0 -349 -37l-106 -874q-2 -14 -11 -22.5t-24 -8.5h-127q-5 0 -17 9.5t-12 19.5z" />
<glyph unicode="s" horiz-adv-x="997" d="M98 61q0 1 1 5t1 6l33 90q7 18 25 18q6 0 10 -2q2 0 23.5 -7t50.5 -14.5t67 -15.5t85.5 -13t92.5 -5q157 0 228 65q49 49 49 127q0 72 -39 101q-13 9 -29.5 16.5t-40.5 13t-40 8t-50.5 8t-48.5 7.5q-48 7 -71.5 11t-72.5 20t-83 39q-94 66 -94 192q0 163 106 260 q121 111 358 111q149 0 328 -43q19 -5 19 -23v-6l-29 -100q-5 -15 -23 -15h-4q-8 1 -57 10.5t-113 18t-116 8.5q-141 0 -211 -49q-66 -50 -66 -127q0 -75 70 -108q48 -21 168 -37q54 -8 78 -12t67 -13.5t72 -24.5t53 -36q66 -63 66 -185q0 -149 -89 -251 q-118 -136 -399 -136q-174 0 -358 68q-17 11 -17 20z" />
<glyph unicode="t" horiz-adv-x="757" d="M172 201q0 42 2 67l137 1108q2 24 31 31l137 31h6q21 0 21 -23v-6l-41 -334h330q26 0 26 -26v-5l-10 -88q-1 -12 -11 -20t-24 -8h-330l-81 -670q-3 -18 -3 -35q0 -51 31 -73q36 -27 117 -27q59 0 182 24q1 0 3 1.5t3 1.5q8 0 14 -6t7 -15l8 -86v-2q0 -20 -20 -27 q-120 -39 -256 -39q-159 0 -224 68q-55 55 -55 158z" />
<glyph unicode="u" horiz-adv-x="1177" d="M174 287q0 49 6 104l80 651q3 24 31 31l137 29h6q19 0 19 -23v-6l-86 -698q-5 -68 -5 -74q0 -89 52 -135q55 -49 190 -49q71 0 123 14t83 36t51 58.5t28.5 70.5t13.5 83l82 661q3 28 31 31l135 31h8q19 0 19 -23v-6l-82 -680q-8 -60 -19.5 -106.5t-34 -97.5t-59 -87.5 t-89.5 -67t-131 -46t-177 -15.5q-248 0 -342 101q-70 73 -70 213z" />
<glyph unicode="v" horiz-adv-x="1064" d="M168 1036v6q0 12 8.5 22.5t18.5 10.5h143q16 0 21.5 -6.5t9.5 -21.5l161 -914h54l358 914q10 28 39 28h149q10 0 17.5 -6.5t7.5 -15.5q0 -5 -4 -13l-438 -1007q-17 -33 -47 -33h-252q-32 0 -39 33z" />
<glyph unicode="w" horiz-adv-x="1669" d="M170 1036v4q0 14 8.5 24.5t20.5 10.5h141q29 0 29 -28l82 -914h55l299 866q4 15 17 24t28 9h225q15 0 25.5 -9t11.5 -24l84 -866h53l305 914q10 28 37 28h142q22 0 22 -24q0 -7 -2 -11l-377 -1007q-13 -33 -45 -33h-264q-15 0 -26.5 9t-12.5 24l-84 856h-4l-301 -856 q-13 -33 -47 -33h-262q-15 0 -25.5 9t-11.5 24z" />
<glyph unicode="x" horiz-adv-x="1064" d="M37 20q0 13 8 21l434 514l-282 479q-2 4 -2 13q0 11 6.5 19.5t13.5 8.5h154q26 0 39 -26l210 -379l289 379q22 26 47 26h162q14 0 14 -22q0 -10 -6 -19l-405 -475l311 -518q4 -8 4 -12q0 -11 -7.5 -20t-16.5 -9h-152q-21 0 -29 16l-243 428l-334 -428q-16 -16 -33 -16 h-164q-7 0 -12.5 6t-5.5 14z" />
<glyph unicode="y" horiz-adv-x="1060" d="M78 -395l12 98q2 8 10 15.5t19 7.5h2q7 0 50.5 -1t66.5 -1q85 0 132 27t79 106l61 143h-96q-30 0 -37 33l-209 1007v4q0 12 9.5 21.5t21.5 9.5h141q24 0 31 -28l159 -914h54l358 914q10 28 41 28h150q9 0 15.5 -6.5t6.5 -15.5t-2 -13l-516 -1190q-33 -78 -63 -126 t-74 -85.5t-103.5 -53t-144.5 -15.5q-92 0 -154 10q-20 2 -20 21v4z" />
<glyph unicode="z" horiz-adv-x="1001" d="M96 25v6l13 102q3 16 7 23t17 22l672 750h-586q-26 0 -26 24v4l10 88q1 13 11 22t24 9h788q27 0 27 -26v-5l-15 -104q0 -20 -20 -43l-694 -750h591q12 0 19.5 -6.5t7.5 -17.5v-6l-10 -86q-1 -13 -11 -22t-24 -9h-772q-13 0 -21 7t-8 18z" />
<glyph unicode="{" horiz-adv-x="755" d="M188 627v2l15 112q2 9 8.5 16t15.5 7q88 13 120 61t46 168l70 568q2 10 9 19.5t15 10.5l283 82q2 2 6 2q14 0 17 -14l28 -96q0 -1 1 -3t1 -3q0 -15 -16 -23l-174 -74l-64 -506q-6 -48 -21 -87.5t-30.5 -63t-39 -44t-37.5 -28t-35 -17.5t-23 -11l-4 -41q3 -2 17 -9 t25 -13.5t27 -20.5t27 -31q31 -50 31 -125q0 -35 -2 -53l-62 -500l158 -74q10 -3 10 -14q0 -2 -4 -10l-53 -101q-6 -12 -16 -12h-9l-264 82q-6 1 -11 10.5t-5 18.5v2l69 563q9 88 9 98q0 54 -21 84q-26 35 -96 47q-9 0 -15 6t-6 15z" />
<glyph unicode="|" horiz-adv-x="497" d="M125 -299l229 1868q2 12 13 22.5t24 10.5h109q12 0 20 -7.5t8 -19.5v-6l-229 -1868q-7 -33 -37 -33h-108q-13 0 -21 8.5t-8 20.5v4z" />
<glyph unicode="}" horiz-adv-x="755" d="M102 -180q0 12 13 18l178 74l61 500q5 42 16 77t27 59.5t30.5 42.5t34.5 31.5t31 20t29 13.5t19 8l4 41q-1 1 -18 9.5t-27.5 15t-27.5 24t-27.5 37t-18.5 52.5t-8 72q0 27 2 41l63 506l-157 74q-11 7 -11 16t2 13l54 96q6 14 18 14q6 0 8 -2l262 -82q6 -2 11.5 -9.5 t5.5 -16.5v-4l-70 -568q-8 -55 -8 -102q0 -59 26.5 -88.5t90.5 -38.5q20 0 20 -21v-2l-14 -112q-2 -9 -9 -16t-16 -7q-88 -13 -120 -61t-46 -168l-69 -563q-2 -9 -9 -18.5t-16 -12.5l-282 -82h-9q-11 0 -14 12l-29 101v6z" />
<glyph unicode="~" d="M227 588v6q0 5 15 20q164 121 278 121q66 0 166 -49l28 -14l29 -14.5t26 -11.5t28 -10.5t25.5 -6t27.5 -2.5q32 0 68.5 14.5t61.5 30.5t62 43q8 8 23 8q12 0 18 -16l41 -89q2 -4 2 -12v-6q0 -6 -14 -20q-164 -121 -278 -121q-28 0 -61.5 9t-49.5 16t-55 24l-28 14 l-29 14.5t-26 11.5t-28 10.5t-25.5 6t-27.5 2.5q-46 0 -91 -23t-102 -65q-16 -8 -22 -8q-11 0 -19 16l-41 88q-2 4 -2 13z" />
<glyph horiz-adv-x="1368" d="M145 594v4l11 86q2 14 11.5 22.5t22.5 8.5h1059q17 0 17 -17q0 -2 -2 -4l-27 -104q-7 -21 -27 -21h-678q0 -10 -1 -29.5t-1 -29.5q0 -68 7.5 -118.5t29.5 -97.5t59 -76t98.5 -46.5t145.5 -17.5q161 0 404 59q12 4 18 4q22 0 25 -20l14 -97v-6q0 -26 -31 -39 q-74 -29 -195 -51t-255 -22q-153 -1 -256.5 31t-163 100t-84 159t-24.5 222v75h-150q-12 0 -19.5 7t-7.5 18zM178 858v4l10 86q1 13 11 22t24 9h152q31 144 79.5 244t126.5 171t191 104.5t268 33.5q134 0 250 -22.5t183 -51.5q22 -11 22 -28q0 -11 -2 -17l-39 -96 q-6 -21 -29 -21q-6 0 -18 4q-229 60 -389 60q-90 0 -160 -21t-114 -54t-77 -86t-50.5 -102.5t-32.5 -117.5h716q17 0 17 -16q0 -3 -2 -5l-27 -104q-7 -20 -28 -20h-1055q-12 0 -19.5 6.5t-7.5 17.5z" />
<glyph horiz-adv-x="380" d="M80 -135l55 448q1 9 9 16t16 7h143q8 0 14.5 -6t6.5 -13v-4l-86 -448q-2 -9 -9 -16t-16 -7h-113q-20 0 -20 21v2z" />
<glyph horiz-adv-x="1136" d="M162 -397l219 1222h-172q-9 0 -15 5.5t-6 13.5v4l21 106q4 23 22 23h177l41 223q17 99 40 159.5t65.5 103.5t108 60t166.5 17q29 0 58.5 -2.5t47 -6t19.5 -5.5q9 0 15 -6.5t6 -14.5v-4l-19 -96q-1 -9 -7.5 -15t-12.5 -6h-2q-13 1 -50 5t-57 4q-39 0 -66.5 -4t-47.5 -16.5 t-32 -24.5t-21 -38t-13.5 -46.5t-11.5 -61.5l-39 -225h260q9 0 16 -6t7 -13v-4l-23 -106q-4 -23 -22 -23h-265l-219 -1224q-4 -21 -22 -21h-144q-22 0 -22 19v4z" />
<glyph horiz-adv-x="686" d="M80 -135l55 448q1 9 9 16t16 7h143q8 0 14.5 -6t6.5 -13v-4l-86 -448q-2 -9 -9 -16t-16 -7h-113q-20 0 -20 21v2zM385 -135l55 448q1 9 9 16t16 7h143q8 0 14.5 -6t6.5 -13v-4l-86 -448q-2 -9 -9 -16t-16 -7h-112q-9 0 -15 6t-6 15v2z" />
<glyph unicode="&#x85;" horiz-adv-x="1955" d="M225 27v4l17 127q1 13 12 22.5t25 9.5h235q12 0 20.5 -8t8.5 -20v-4l-17 -127q-2 -14 -12 -22.5t-25 -8.5h-233q-14 0 -22.5 7.5t-8.5 19.5zM844 27v4l16 127q1 13 12 22.5t25 9.5h236q12 0 20 -8t8 -20v-4l-16 -127q-2 -14 -12 -22.5t-25 -8.5h-234q-13 0 -21.5 7.5 t-8.5 19.5zM1462 27v4l17 127q2 14 12 23t25 9h235q12 0 20.5 -8t8.5 -20v-4l-17 -127q-2 -14 -12 -22.5t-25 -8.5h-233q-14 0 -22.5 7.5t-8.5 19.5z" />
<glyph horiz-adv-x="1427" d="M338 596q0 2 2 4l10 96q1 13 11 22t24 9h338l-6 119l76 635q3 25 34 28l146 31h8q20 0 20 -22v-7l-81 -665l-35 -119h336q28 0 28 -25v-6l-12 -96q-1 -13 -11 -22t-24 -9h-336l6 -118l-102 -822q-3 -23 -33 -30l-147 -29h-6q-23 0 -23 22q0 5 2 7l105 852l34 118h-335 q-12 0 -20.5 7.5t-8.5 19.5z" />
<glyph horiz-adv-x="1427" d="M295 233v5l12 98q3 29 33 29h336l-6 120l18 140l37 120h-338q-27 0 -27 25v4l13 98q1 12 11 20.5t22 8.5h337l-6 119l56 461q3 24 34 30l146 29h8q20 0 20 -22v-7l-59 -491l-37 -119h338q12 0 19.5 -6.5t7.5 -17.5v-5l-13 -98q-3 -29 -34 -29h-336l6 -120l-19 -140 l-34 -120h338q26 0 26 -25v-4l-12 -98q-2 -12 -12 -20.5t-23 -8.5h-336l6 -119l-57 -461q-3 -23 -33 -30l-147 -29h-6q-23 0 -23 22v7l62 491l34 119h-335q-12 0 -19.5 6.5t-7.5 17.5z" />
<glyph horiz-adv-x="952" d="M313 1319q0 10 9 16l309 209h69l258 -209q7 -3 7 -12q0 -5 -7 -12l-75 -80q-8 -8 -17 -8q-6 0 -10 4l-207 178l-250 -178q-8 -4 -12 -4q-9 0 -14 8l-58 80q-2 2 -2 8z" />
<glyph horiz-adv-x="2498" d="M172 1042q0 96 27 207q27 130 94 197q94 94 272 94q158 0 230 -72q65 -65 65 -204q0 -110 -24 -215q-27 -123 -93 -195q-91 -98 -274 -98q-174 0 -246 92q-51 63 -51 194zM315 63q0 9 4 13l1158 1433q6 9 16 9q5 0 10 -5l74 -53q6 -6 6 -12t-4 -14l-1157 -1434 q-6 -6 -16 -6q-9 0 -11 2l-73 53q-7 7 -7 14zM328 1053q0 -90 30 -125q34 -43 125 -43q87 0 130.5 36.5t64.5 114.5q27 114 27 203q0 95 -31 131q-37 43 -125 43t-131.5 -40t-63.5 -122q-26 -110 -26 -198zM1038 260q0 86 25 207q27 125 96 197q91 94 271 94q154 0 229 -72 q67 -67 67 -207q0 -108 -24 -213q-27 -127 -92 -194q-96 -99 -277 -99q-176 0 -246 90q-49 64 -49 197zM1194 270q0 -89 31 -125q36 -45 125 -45q85 0 128.5 37.5t63.5 114.5q29 111 29 205q0 93 -31 131q-38 41 -125 41q-88 0 -132 -39.5t-64 -120.5q-25 -105 -25 -199z M1825 260q0 90 24 207q27 124 97 197q91 94 270 94q154 0 229 -72q68 -68 68 -207q0 -104 -25 -213q-27 -127 -92 -194q-96 -99 -276 -99q-176 0 -246 90q-49 64 -49 197zM1980 270q0 -89 31 -125q36 -45 125 -45q85 0 129 38t64 114q28 107 28 205q0 94 -30 131 q-38 41 -125 41q-88 0 -132.5 -39.5t-64.5 -120.5q-25 -105 -25 -199z" />
<glyph horiz-adv-x="1359" d="M152 80q0 10 2 14l36 101q7 20 35 20h4q5 -1 41.5 -9.5t77.5 -17t96 -17.5t120 -15t126 -6q217 0 322 102q80 80 80 203q0 68 -30 108.5t-89 63.5q-66 28 -244 51q-87 13 -144 24.5t-128 41t-115 71.5q-86 83 -86 238q0 94 35 184t102 152q155 147 486 147q243 0 464 -72 q25 -6 25 -30q0 -9 -2 -13l-37 -102q-3 -7 -14 -14t-19 -7h-4q-7 2 -44 11t-73 17t-86.5 17t-110.5 14t-120 5q-191 0 -291 -66q-52 -33 -79 -85t-27 -113q0 -118 108 -172q73 -36 254 -64q9 -1 42.5 -5.5t45 -6.5t42 -6.5t45 -8t40.5 -9.5t42 -11.5t37 -13.5t38 -17t33 -20 q117 -83 117 -264q0 -103 -36.5 -196.5t-107.5 -162.5q-167 -164 -514 -164q-44 0 -89.5 3t-82 6.5t-75.5 10t-65 11.5t-57.5 13t-45.5 11.5t-36 9.5l-22 7q-22 8 -22 31zM621 1892q0 7 4 15l75 78q8 8 19 8q8 0 10 -4l207 -177l250 177q4 4 12 4q9 0 14 -8l58 -78 q0 -1 1 -4.5t1 -4.5q0 -11 -10 -18l-310 -207h-67l-258 207q-6 6 -6 12z" />
<glyph horiz-adv-x="696" d="M182 588q0 12 6 18l400 492q10 10 22 10q2 0 5.5 -1t5.5 -1l84 -64q8 -8 8 -16q0 -4 -4 -12l-359 -422l254 -422q2 -2 2 -8q0 -13 -12 -21l-100 -61q-8 -4 -11 -4q-15 0 -18 10l-281 489q-2 4 -2 13z" />
<glyph horiz-adv-x="2205" d="M188 524q0 84 19 232q11 93 25 166.5t40 158t60.5 148t89 124.5t123 100t164 63t211.5 24q267 0 407 -154l10 95q3 14 14.5 23t24.5 9h867q12 0 20 -8t8 -20v-4l-14 -107q-2 -13 -12 -23t-23 -10h-704l-60 -469h676q12 0 20.5 -8t8.5 -20v-4l-15 -107q-1 -13 -11.5 -23 t-22.5 -10h-676l-66 -530h707q12 0 20 -8.5t8 -20.5v-4l-14 -104q-2 -14 -12 -23.5t-23 -9.5h-868q-13 0 -22 8.5t-9 20.5q0 2 2 4l10 92q-176 -152 -444 -152q-317 0 -444 177q-95 126 -95 374zM399 504q0 -200 88 -281q80 -80 265 -80q77 0 139.5 14.5t109 39.5t82.5 67 t60.5 89t43.5 114.5t31 133.5t23 155q19 175 19 245q0 205 -93 291q-84 78 -266 78q-77 0 -139 -14.5t-108 -39.5t-81.5 -67.5t-59.5 -89t-42.5 -114.5t-30 -133.5t-22.5 -155.5q-19 -149 -19 -252z" />
<glyph horiz-adv-x="1318" d="M94 27v6l12 102q1 11 2.5 18.5t5 13.5t5.5 9t7.5 9t8.5 10l987 1148h-843q-12 0 -19.5 8t-7.5 19v6l12 105q1 13 12 22.5t23 9.5h1071q11 0 19 -8t8 -20v-4l-15 -117q-4 -24 -22 -45l-1000 -1147h865q12 0 20 -8t8 -19q0 -4 -2 -6l-12 -106q-2 -14 -12 -23.5t-23 -9.5 h-1083q-12 0 -19.5 8t-7.5 19zM559 1892q0 9 6 15l76 78q8 8 16 8q9 0 11 -4l206 -177l250 177q4 4 13 4t14 -8l57 -78q2 -2 2 -11q0 -11 -8 -16l-309 -207h-70l-258 207q-6 6 -6 12z" />
<glyph horiz-adv-x="468" d="M223 1040q0 5 4 21l185 428q9 24 32 24h91q20 0 20 -22v-10l-119 -434q-3 -12 -13.5 -19.5t-21.5 -7.5h-153q-25 0 -25 20z" />
<glyph horiz-adv-x="468" d="M225 1042q0 7 2 11l117 436q3 10 13.5 17t21.5 7h153q25 0 25 -20q0 -6 -4 -18l-184 -431q-4 -11 -14 -17.5t-19 -6.5h-90q-21 0 -21 22z" />
<glyph horiz-adv-x="808" d="M223 1040q0 5 4 21l185 428q9 24 32 24h91q20 0 20 -22v-10l-119 -434q-3 -12 -13.5 -19.5t-21.5 -7.5h-153q-25 0 -25 20zM563 1040q0 5 4 21l185 428q9 24 32 24h90q21 0 21 -22q0 -6 -2 -10l-117 -434q-3 -12 -13.5 -19.5t-21.5 -7.5h-153q-25 0 -25 20z" />
<glyph horiz-adv-x="808" d="M225 1042q0 7 2 11l117 436q3 10 13.5 17t21.5 7h153q25 0 25 -20q0 -6 -4 -18l-184 -431q-4 -11 -14 -17.5t-19 -6.5h-90q-21 0 -21 22zM565 1042v11l119 436q3 10 13.5 17t21.5 7h153q25 0 25 -20q0 -6 -4 -18l-184 -431q-4 -11 -14.5 -17.5t-18.5 -6.5h-90 q-21 0 -21 22z" />
<glyph horiz-adv-x="866" d="M225 512q0 2 1 6t1 6l45 365q5 37 33.5 63.5t65.5 26.5h364q34 0 57 -23t23 -55q0 -2 -1 -6t-1 -6l-45 -365q-5 -37 -33.5 -63.5t-64.5 -26.5h-365q-34 0 -57 23t-23 55z" />
<glyph horiz-adv-x="974" d="M31 506v4l12 102q1 13 12 22t25 9h973q13 0 21.5 -7.5t8.5 -19.5q-2 -2 -2 -4l-12 -102q-1 -15 -12 -24t-25 -9h-971q-13 0 -21.5 8.5t-8.5 20.5z" />
<glyph horiz-adv-x="2076" d="M61 506v4l13 102q1 13 12 22t25 9h2013q28 0 28 -27v-4l-12 -102q-1 -15 -12 -24t-25 -9h-2011q-13 0 -22 8.5t-9 20.5z" />
<glyph horiz-adv-x="1001" d="M324 1374v2q3 13 12 19q127 96 217 96q43 0 127 -39q4 -2 18 -9.5t18.5 -10t16.5 -8.5t18.5 -8t16.5 -5.5t18 -4.5t17 -1q50 0 145 70q6 6 19 6q11 0 14 -13l33 -79q2 -2 2 -11v-2q-2 -8 -12 -18q-127 -96 -218 -96q-47 0 -127 41q-9 4 -30.5 15t-32.5 15.5t-28 9.5 t-31 5q-51 0 -146 -70q-12 -6 -18 -6q-11 0 -17 12l-30 80q-2 2 -2 10z" />
<glyph horiz-adv-x="2078" d="M258 1407v6l8 70q1 13 11.5 21.5t25.5 8.5h711q28 0 28 -26v-4l-8 -70q-2 -14 -12 -22.5t-25 -8.5h-270l-88 -704q-3 -33 -35 -33h-104q-29 0 -29 27v6l86 704h-270q-29 0 -29 25zM999 672v6l152 805q7 30 35 30h278q15 0 19 -20l73 -522h3l213 522q8 20 22 20h274 q12 0 19.5 -8t7.5 -20v-2l-47 -805q0 -14 -10.5 -23.5t-24.5 -9.5h-96q-13 0 -21 8.5t-8 20.5v4l43 688h-57l-221 -508q-8 -20 -23 -20h-182q-14 0 -18 20l-89 508h-57l-125 -688q-7 -33 -35 -33h-96q-12 0 -20.5 7.5t-8.5 19.5z" />
<glyph horiz-adv-x="997" d="M98 61q0 1 1 5t1 6l33 90q7 18 25 18q6 0 10 -2q2 0 23.5 -7t50.5 -14.5t67 -15.5t85.5 -13t92.5 -5q157 0 228 65q49 49 49 127q0 72 -39 101q-13 9 -29.5 16.5t-40.5 13t-40 8t-50.5 8t-48.5 7.5q-48 7 -71.5 11t-72.5 20t-83 39q-94 66 -94 192q0 163 106 260 q121 111 358 111q149 0 328 -43q19 -5 19 -23v-6l-29 -100q-5 -15 -23 -15h-4q-8 1 -57 10.5t-113 18t-116 8.5q-141 0 -211 -49q-66 -50 -66 -127q0 -75 70 -108q48 -21 168 -37q54 -8 78 -12t67 -13.5t72 -24.5t53 -36q66 -63 66 -185q0 -149 -89 -251 q-118 -136 -399 -136q-174 0 -358 68q-17 11 -17 20zM371 1450q0 6 6 12l76 78q10 10 16 10t10 -4l207 -178l250 178q8 4 12 4q8 0 15 -10l57 -78q2 -2 2 -8q0 -10 -8 -18l-309 -207h-70l-258 207q-6 6 -6 14z" />
<glyph horiz-adv-x="696" d="M129 158q0 6 6 12l357 422l-254 422q-2 2 -2 8q0 12 12 20l100 64q2 0 5 1t5 1q14 0 21 -10l278 -492l5 -10q0 -8 -9 -21l-399 -489q-10 -10 -23 -10q-4 0 -8 4l-86 61q-8 8 -8 17z" />
<glyph horiz-adv-x="1867" d="M141 365q0 61 15 172q9 73 19.5 129.5t30.5 118t47 106t69 86.5t95.5 68t128 41.5t165.5 15.5q102 0 174 -21t109.5 -52t64.5 -77q118 150 397 150q210 0 311 -80t101 -262q0 -70 -22.5 -124t-55 -89.5t-91.5 -60.5t-108 -37.5t-129.5 -19.5t-132 -8t-137.5 -1h-102 q-3 -33 -3 -47q0 -144 91 -203q79 -51 225 -51q15 0 32 1t30.5 2t32.5 4t31 5t32.5 6t30 6t32 7.5t29 7t30 7.5t27.5 7q4 2 12 2q16 0 19 -18l18 -88v-7q0 -19 -24 -26q-186 -62 -385 -62q-296 0 -385 156q-58 -74 -151 -115t-243 -41q-243 0 -344 109q-86 91 -86 283z M338 350q0 -143 80 -194q58 -37 172 -37q175 0 244 99q45 65 66 220q3 21 13 99q2 21 8 68t8.5 76.5t2.5 55.5q0 122 -58 172q-56 47 -180 47q-41 0 -76 -4.5t-63.5 -15t-51 -22t-41 -32t-32 -39t-24.5 -48t-18.5 -53.5t-14.5 -62.5t-11 -67.5t-10 -75q-14 -119 -14 -187z M1102 557h4q4 0 26.5 -1t36.5 -1q10 0 20.5 0.5t16.5 0.5l6 1q18 1 56 2q44 1 66.5 2t63 3.5t63 6.5t56.5 11.5t52.5 17t41.5 24.5t34.5 33t19.5 43.5t8 55.5q0 104 -59.5 153t-181.5 49q-295 0 -330 -385v-16z" />
<glyph horiz-adv-x="1001" d="M96 25v6l13 102q3 16 7 23t17 22l672 750h-586q-26 0 -26 24v4l10 88q1 13 11 22t24 9h788q27 0 27 -26v-5l-15 -104q0 -20 -20 -43l-694 -750h591q12 0 19.5 -6.5t7.5 -17.5v-6l-10 -86q-1 -13 -11 -22t-24 -9h-772q-13 0 -21 7t-8 18zM365 1450q0 6 6 12l75 78 q10 10 17 10q6 0 10 -4l207 -178l250 178q8 4 12 4q7 0 14 -10l58 -78q2 -2 2 -8q0 -11 -10 -16l-308 -209h-69l-258 209q-6 3 -6 12z" />
<glyph horiz-adv-x="1304" d="M170 1485q0 10 10 19t19 9h174q22 0 33 -22l350 -700l516 702q17 20 37 20h172q9 0 14.5 -7t5.5 -15q0 -6 -4 -14l-668 -861l-71 -585q-2 -12 -13 -21.5t-24 -9.5h-137q-12 0 -21.5 8.5t-9.5 20.5q0 2 2 2l72 587l-455 859q0 1 -1 4t-1 4zM514 1747v2l14 121q4 22 27 22 h207q9 0 15.5 -6t6.5 -14l-2 -2l-14 -121q0 -9 -8 -16t-17 -7h-208q-9 0 -15 6.5t-6 14.5zM920 1747v2l14 121q1 9 9.5 15.5t17.5 6.5h208q9 0 15 -6t6 -14v-2l-14 -121q-1 -9 -9.5 -16t-17.5 -7h-209q-9 0 -14.5 6.5t-5.5 14.5z" />
<glyph unicode="&#xa1;" horiz-adv-x="579" d="M195 31q0 4 2 6l143 1026q1 9 7.5 14.5t14.5 5.5h132q8 0 13 -5.5t5 -12.5v-2l-113 -1069q-2 -8 -8.5 -14.5t-13.5 -6.5h-2l-156 33q-24 7 -24 25zM344 1243v4l29 234q1 15 11 23.5t24 8.5h147q27 0 27 -26v-6l-29 -234q-1 -13 -11 -21.5t-24 -8.5h-145q-29 0 -29 26z " />
<glyph unicode="&#xa2;" horiz-adv-x="989" d="M143 356q0 72 13 183q17 137 47 232t84 167t136.5 110.5t199.5 49.5l18 151q2 14 12 23.5t23 9.5h100q12 0 20.5 -8.5t8.5 -20.5q0 -2 -2 -4l-19 -149q73 -6 142.5 -21t103.5 -30q17 -11 17 -25q0 -5 -3 -14l-26 -78q-9 -23 -29 -23q-8 0 -12 2q-154 43 -262 43 q-179 0 -257.5 -89.5t-107.5 -325.5q-10 -95 -10 -154q0 -139 59 -201q58 -61 213 -61q114 0 275 41q4 2 12 2q20 0 23 -23l6 -75v-7q0 -22 -25 -32q-34 -16 -106.5 -31t-149.5 -21l-18 -145q-1 -15 -11 -24t-24 -9h-100q-12 0 -19.5 8t-7.5 19v4l18 150q-174 15 -256 100 q-86 92 -86 276z" />
<glyph unicode="&#xa3;" horiz-adv-x="1370" d="M125 25v4l14 118q1 10 3 15t9 10t21 8q154 26 234 137q63 88 63 215q0 63 -18.5 236.5t-18.5 253.5q0 174 70 295q69 118 197.5 170.5t314.5 52.5q42 0 85.5 -3t81 -7.5t72 -10t63 -11t48 -10t33.5 -8.5l14 -3q19 -11 19 -23q0 -4 -3 -10l-38 -121q-3 -16 -23 -16h-4 q-1 0 -24 5t-59 12.5t-79 14.5t-94 12t-94 5q-233 0 -320 -111q-57 -69 -57 -200q0 -121 22 -258h467q12 0 20.5 -8t8.5 -19v-6l-12 -102q-1 -13 -12 -23t-25 -10h-436q6 -35 6 -92q0 -116 -43 -203q-8 -16 -16.5 -30t-19 -27t-19 -23t-20.5 -20.5t-19 -17t-20 -15.5 t-17 -12t-16 -11t-13 -8l764 4q12 0 19.5 -8.5t7.5 -20.5v-4l-13 -108q-1 -13 -12 -23t-25 -10h-1062q-25 0 -25 25z" />
<glyph unicode="&#xa4;" horiz-adv-x="1388" d="M315 379q0 7 7 14l110 92l-12 56q-4 25 -4 75q0 77 16 140q16 75 51 135l-90 92q-4 8 -4 10q0 7 8 19l107 98q10 10 18 10q7 0 10 -6l86 -90q88 45 207 45t197 -45l106 90q6 6 13 6q9 0 16 -10l82 -98q4 -8 4 -15q0 -9 -8 -14l-111 -92q10 -31 13 -55q6 -37 6 -76 q0 -59 -17 -139q-20 -78 -51 -136l88 -92q4 -4 4 -10t-8 -18l-106 -99q-8 -8 -19 -8q-8 0 -10 4l-86 90q-88 -45 -207 -45q-116 0 -194 45l-109 -90q-4 -4 -10 -4q-11 0 -19 8l-80 99q-4 4 -4 14zM563 623q0 -93 33 -134q43 -49 152 -49q84 0 133.5 28t74.5 87q39 89 39 199 q0 94 -34 133q-45 51 -152 51q-84 0 -133.5 -29t-75.5 -88q-37 -84 -37 -198z" />
<glyph unicode="&#xa5;" horiz-adv-x="1263" d="M170 1483q0 11 9.5 20.5t19.5 9.5h172q24 0 35 -22l329 -703l496 705q13 20 37 20h170q9 0 15.5 -7.5t6.5 -16.5q0 -6 -6 -12l-559 -752h328q12 0 19 -7t7 -18v-4l-12 -94q-2 -14 -11 -22.5t-22 -8.5h-1003q-12 0 -19.5 7.5t-7.5 19.5v4l12 94q2 12 12 20.5t23 8.5h328 l-377 750q-2 4 -2 8zM223 332q0 2 2 4l11 92q2 14 11.5 22.5t22.5 8.5h842q12 0 19.5 -7.5t7.5 -19.5v-4l-13 -92q-1 -13 -11.5 -22t-22.5 -9h-316l-35 -274q-2 -12 -12.5 -21.5t-23.5 -9.5h-138q-12 0 -21 8.5t-9 20.5q0 2 2 2l32 274h-319q-29 0 -29 27z" />
<glyph unicode="&#xa6;" horiz-adv-x="548" d="M150 -326l86 697q2 14 11.5 23t22.5 9h109q12 0 20.5 -8t8.5 -20v-4l-86 -697q-1 -13 -12 -22.5t-25 -9.5h-109q-12 0 -19 8t-7 20v4zM268 649q0 2 2 4l84 697q2 14 12 23t23 9h111q12 0 20 -8t8 -20q0 -1 -1 -2t-1 -2l-84 -697q-1 -13 -11.5 -22.5t-24.5 -9.5h-109 q-13 0 -21 8t-8 20z" />
<glyph unicode="&#xa7;" horiz-adv-x="1458" d="M195 -340q0 8 2 12l32 90q8 21 27 21q6 0 10 -2q245 -64 398 -64q238 0 317 97q47 58 47 145q0 72 -41 107q-45 43 -174 61q-23 4 -71 10.5t-68 9.5q-148 21 -233 45t-136 74q-74 71 -74 203q0 123 54 207q74 118 258 168l4 41q-3 1 -14.5 5.5t-17 6.5t-17 7t-20 10 t-19 11.5t-20 15t-17.5 17.5q-53 60 -53 160q0 107 55 205q53 103 151 152q73 36 155.5 50.5t217.5 14.5q112 0 218.5 -16.5t152.5 -30.5q20 -6 20 -23q0 -4 -2 -6l-28 -100q-5 -18 -21 -18h-8q-4 1 -36.5 7t-66.5 12t-78 13t-89.5 11t-81.5 4q-220 0 -307 -97 q-58 -64 -58 -161q0 -88 70 -125q45 -26 141 -41q24 -4 74 -11t70 -10q149 -21 234 -45t138 -76q70 -67 70 -204q0 -133 -66 -222q-76 -106 -243 -149l-7 -41q1 -1 14 -5.5t17.5 -6.5t17 -8t19.5 -10t19 -11.5t20 -14.5t17.5 -16.5t17.5 -19.5q37 -56 37 -148 q0 -87 -39 -170q-53 -112 -164 -166q-73 -37 -156.5 -51t-220.5 -14q-125 0 -259 27t-173 45q-16 4 -16 18zM428 514q0 -75 45 -117q48 -46 180 -65l144 -19q212 3 301 95q65 68 65 170q0 74 -45 116q-49 44 -178 64l-143 18q-210 0 -301 -94q-68 -68 -68 -168z" />
<glyph unicode="&#xa8;" horiz-adv-x="964" d="M322 1368v2l14 121q4 22 24 22h209q21 0 21 -20v-2l-15 -121q-4 -20 -26 -20h-207q-20 0 -20 18zM727 1368v2l14 121q4 22 27 22h209q20 0 20 -20v-2l-16 -121q0 -7 -8 -13.5t-17 -6.5h-208q-9 0 -15 5t-6 13z" />
<glyph unicode="&#xa9;" horiz-adv-x="1830" d="M199 530q0 146 26 306t74 278q88 220 277 323t528 103q423 0 584 -164q131 -134 131 -393q0 -146 -26.5 -306.5t-74.5 -277.5q-88 -220 -277 -323t-528 -103q-217 0 -359 40t-224 124q-131 134 -131 393zM352 551q0 -205 92 -305q63 -67 179.5 -98t306.5 -31 q359 0 516 133q109 95 160 278q57 208 57 435q0 205 -92 303q-63 69 -179.5 100t-306.5 31q-187 0 -311.5 -33t-204.5 -102q-108 -91 -159 -279q-58 -208 -58 -432zM618 623q0 47 11 141q15 121 43.5 203t80.5 143t135 89t202 28q59 0 145.5 -13.5t118.5 -33.5q12 -9 12 -23 q0 -10 -2 -14l-21 -62q-10 -26 -30 -26q-2 0 -6.5 1t-6.5 1q-136 39 -215 39q-142 0 -203.5 -70.5t-84.5 -261.5q-11 -86 -11 -125q0 -108 45 -156q48 -51 175 -51q68 0 221 35q4 2 12 2q24 0 27 -25l4 -59v-4q0 -19 -10 -27q-13 -9 -17 -10q-40 -17 -119.5 -30t-146.5 -13 q-196 0 -277 78q-82 74 -82 244z" />
<glyph unicode="&#xaa;" horiz-adv-x="903" d="M225 668v4l6 53q6 29 35 29h543q27 0 27 -25v-4l-7 -53q-2 -14 -11.5 -22.5t-22.5 -8.5h-541q-12 0 -20.5 7.5t-8.5 19.5zM268 1044q0 105 60 162q32 32 79 46.5t117 23.5l228 35l4 32q0 4 1 12t1 11v4q0 35 -33 47q-33 13 -104 13q-73 0 -234 -33q-4 -2 -14 -2 q-13 0 -15 14l-8 66v4q0 16 25 22q124 39 274 39q173 0 219 -61q23 -33 23 -76q0 -20 -4 -60l-39 -321q-7 -67 -33.5 -93.5t-97.5 -41.5q-74 -19 -170 -19q-154 0 -213 41q-66 46 -66 135zM406 1065q0 -46 24 -64q32 -30 131 -30q82 0 152 20l26 221l-213 -34 q-26 -4 -39.5 -7t-31.5 -12.5t-29 -23.5q-20 -26 -20 -70z" />
<glyph unicode="&#xab;" horiz-adv-x="1087" d="M182 588q0 12 6 18l400 492q10 10 22 10q7 0 11 -2l79 -64q9 -6 9 -16q0 -8 -4 -12l-357 -422l254 -422q0 -1 1 -3.5t1 -4.5q0 -14 -14 -21l-96 -61q-4 -4 -11 -4q-15 0 -18 10l-281 489q-2 4 -2 13zM575 588q0 11 7 18l401 492q10 10 23 10q6 0 8 -2l82 -64q8 -5 8 -16 q0 -8 -4 -12l-357 -422l252 -422q2 -2 2 -8q0 -15 -12 -21l-96 -61q-8 -4 -10 -4q-14 0 -21 10l-278 489q-5 10 -5 13z" />
<glyph unicode="&#xac;" d="M193 662v4l12 102q1 15 12 24t25 9h921q12 0 20.5 -8t8.5 -19q0 -4 -2 -4l-53 -448q-2 -14 -12 -23.5t-25 -9.5h-107q-30 0 -30 28q2 3 2 5l36 313h-780q-12 0 -20 7.5t-8 19.5z" />
<glyph unicode="&#xad;" horiz-adv-x="806" d="M164 506v4l12 102q1 13 12 22t25 9h541q12 0 20 -7.5t8 -19.5q0 -4 -2 -4l-12 -102q-1 -15 -11 -24t-24 -9h-540q-12 0 -20.5 8t-8.5 21z" />
<glyph unicode="&#xae;" horiz-adv-x="1830" d="M199 530q0 146 26 306t74 278q88 220 277 323t528 103q423 0 584 -164q131 -134 131 -393q0 -146 -26.5 -306.5t-74.5 -277.5q-88 -220 -277 -323t-528 -103q-217 0 -359 40t-224 124q-131 134 -131 393zM352 551q0 -205 92 -305q63 -67 179.5 -98t306.5 -31 q359 0 516 133q109 95 160 278q57 208 57 435q0 205 -92 303q-63 69 -179.5 100t-306.5 31q-187 0 -311.5 -33t-204.5 -102q-108 -91 -159 -279q-58 -208 -58 -432zM623 350v2l98 813q3 15 15 26t28 11h377q157 0 221 -72q41 -47 41 -141q0 -92 -35 -145q-47 -76 -178 -96 l-4 -31q80 -7 117 -37q23 -17 38 -47q15 -34 15 -92v-31l-13 -160q0 -9 -7.5 -17.5t-18.5 -8.5h-113q-22 0 -22 20v2l8 158q2 14 2 45q0 53 -37 82q-36 29 -141 35l-191 10l-41 -324q-3 -28 -32 -28h-101q-13 0 -19.5 8t-6.5 18zM838 791l204 8q78 3 118 16.5t59 50.5 q18 41 18 95q0 45 -14 67q-25 35 -105 35h-248z" />
<glyph unicode="&#xaf;" horiz-adv-x="960" d="M332 1403v2q0 14 22 20q171 56 308 56t294 -56q17 -7 17 -16v-6l-29 -100q-3 -19 -20 -19h-2l-27 9t-38 12t-43.5 11.5t-53 11.5t-55 7.5t-60.5 3.5t-61.5 -3.5t-57 -7.5t-55 -11.5t-46.5 -12t-41.5 -12t-29.5 -8.5h-2q-16 0 -16 19z" />
<glyph unicode="&#xb0;" horiz-adv-x="825" d="M250 1196q0 129 98 234q107 110 254 110q116 0 197 -78q80 -77 80 -196q0 -131 -103 -234q-106 -106 -250 -106q-124 0 -202 84q-74 77 -74 186zM387 1208q0 -58 35 -96q47 -53 121 -53q92 0 155 76q43 53 43 118q0 59 -41 107q-47 47 -116 47q-79 0 -138 -59t-59 -140z " />
<glyph unicode="&#xb1;" d="M147 29v4l13 100q1 15 11.5 24t25.5 9h856q12 0 20 -7.5t8 -19.5v-6l-12 -100q-1 -14 -13 -23.5t-26 -9.5h-854q-12 0 -20.5 8t-8.5 21zM225 653v4l13 103q2 14 11.5 22.5t24.5 8.5h342l37 296q1 15 11 24t24 9h107q28 0 28 -28v-5l-37 -294h342q12 0 20.5 -7.5 t8.5 -19.5v-6l-12 -101q-1 -13 -11.5 -21.5t-25.5 -8.5h-344l-35 -295q-1 -15 -12 -24t-25 -9h-106q-12 0 -19.5 7.5t-7.5 19.5v4l35 295h-340q-29 0 -29 26z" />
<glyph unicode="&#xb2;" horiz-adv-x="1017" d="M231 625q0 2 2 4l15 127q8 64 63 100l252 160q12 8 57 35t75.5 48.5t54.5 45.5q63 63 63 141q0 71 -49 103q-47 24 -146 24q-107 0 -276 -45h-8q-21 0 -25 23l-6 63v4q0 25 23 33q142 49 325 49q159 0 234 -49q86 -56 86 -193q0 -116 -86 -211q-14 -15 -29 -29.5 t-35.5 -30t-32.5 -24.5t-38.5 -26t-34.5 -22t-39.5 -23.5t-34.5 -20.5l-246 -147l-4 -29l506 2q23 0 23 -22v-6l-11 -78q-4 -29 -28 -29h-621q-29 0 -29 23z" />
<glyph unicode="&#xb3;" horiz-adv-x="985" d="M244 643v12l22 74q3 14 23 14h16q92 -22 232 -22q133 0 190 55q45 42 45 109q0 60 -41 90q-36 25 -117 35q-65 7 -110 14q-29 0 -29 20v5l8 59q2 25 31 25q17 2 113 14q101 20 139 53q41 38 41 96q0 62 -45 88q-45 29 -141 29q-27 0 -55 -2.5t-47.5 -5t-50 -8.5t-41.5 -9 t-43 -11l-36 -9q-3 0 -8.5 -1t-7.5 -1q-21 0 -21 18l-8 70v8q0 19 25 27q50 19 141 35t193 16q140 0 219 -49q84 -55 84 -168q0 -84 -50 -143q-48 -59 -161 -82l-4 -33q94 -16 135 -57q43 -43 43 -119q0 -138 -101 -217q-103 -80 -286 -80q-65 0 -131 7t-100.5 13.5 t-47.5 10.5q-18 6 -18 20z" />
<glyph unicode="&#xb4;" horiz-adv-x="690" d="M311 1319q0 11 8 16l312 211q2 2 10 2q11 0 16 -8l60 -88q2 -4 2 -10q0 -10 -10 -17l-312 -204q-8 -4 -12 -4q-9 0 -14 8l-58 84q-2 4 -2 10z" />
<glyph unicode="&#xb5;" horiz-adv-x="1193" d="M92 -401l178 1443q3 24 31 31l137 29h6q21 0 21 -23v-6l-111 -889q17 -7 48 -16.5t121.5 -26t174.5 -16.5q81 0 124 18.5t60.5 56t26.5 111.5l90 731q3 24 31 31l137 29h7q20 0 20 -23v-6l-100 -811q-21 -166 -104.5 -227.5t-252.5 -61.5q-131 0 -225 17.5t-197 54.5 l9 -121l-37 -295q-3 -23 -31 -30l-137 -29h-6q-21 0 -21 22v7z" />
<glyph unicode="&#xb6;" horiz-adv-x="1398" d="M209 920q0 211 72 352q58 122 171 180.5t289 58.5h7l335 -2q7 0 15 -9t8 -17l-225 -1852q-4 -24 -25 -30l-131 -31h-4q-8 0 -13.5 5.5t-5.5 12.5v4l121 986l-192 -5h-27q-224 0 -315 99q-80 87 -80 248zM408 969q0 -124 49 -176q54 -58 205 -62l180 -2l76 625h-181 q-114 0 -178.5 -29t-99.5 -100q-24 -48 -37.5 -121.5t-13.5 -134.5zM1038 -367l228 1846q5 27 24 30l131 31h4q8 0 13.5 -5.5t5.5 -12.5v-4l-227 -1846q-4 -24 -25 -30l-129 -31h-4q-8 0 -14.5 5.5t-6.5 12.5v4z" />
<glyph unicode="&#xb7;" horiz-adv-x="370" d="M143 496q0 4 2 6l19 160q1 13 12 22.5t25 9.5h141q12 0 19.5 -8t7.5 -20v-4l-19 -160q-7 -33 -37 -33h-141q-12 0 -20.5 7.5t-8.5 19.5z" />
<glyph unicode="&#xb8;" horiz-adv-x="659" d="M100 -379q0 4 2 6l11 54q3 14 22 14h4q70 -10 99 -10q63 0 84 32q14 22 14 54q0 31 -21 45q-22 14 -59 14q-32 0 -102 -10h-4q-19 0 -19 14v53q0 18 16 21q72 16 164 16q99 0 142 -43q34 -34 34 -98q0 -78 -41 -127q-54 -68 -184 -68q-81 0 -149 17q-13 3 -13 16z" />
<glyph unicode="&#xb9;" horiz-adv-x="780" d="M317 1405v6l9 66q1 16 7 20t19 6l289 37h4q9 0 16 -6.5t7 -15.5v-5l-109 -886q-6 -27 -33 -27h-90q-26 0 -26 23q0 2 2 4l92 751l-162 8q-25 0 -25 19z" />
<glyph unicode="&#xba;" horiz-adv-x="903" d="M236 668v4l6 53q3 29 34 29h543q27 0 27 -25v-4l-6 -53q-7 -31 -37 -31h-541q-26 0 -26 27zM287 1106v2q0 30 8 96q7 60 17.5 104t35 90.5t60.5 75.5t95.5 47.5t139.5 18.5q149 0 215 -63q60 -57 60 -172q0 -22 -9 -101q-8 -61 -18.5 -104t-35 -89.5t-60 -75t-95 -47 t-139.5 -18.5q-159 0 -221 68q-53 56 -53 168zM420 1104q0 -69 29 -94q36 -39 124 -39q41 0 72 6.5t52 22t34.5 33t22.5 47.5t13 56t9 68q8 70 8 94q0 75 -28 103q-35 35 -125 35q-41 0 -72 -6.5t-51.5 -22t-34 -32t-22.5 -47.5t-13.5 -56t-9.5 -68q-8 -70 -8 -96v-4z" />
<glyph unicode="&#xbb;" horiz-adv-x="1087" d="M129 158q0 6 6 12l357 422l-254 422q-2 2 -2 8q0 12 12 20l98 64q2 2 10 2q12 0 19 -10l280 -492q2 -4 2 -10q0 -12 -6 -21l-399 -489q-10 -10 -23 -10q-2 0 -10 4l-82 61q-8 8 -8 17zM522 158q0 8 4 12l357 422l-254 422q0 1 -1 3.5t-1 4.5q0 13 14 20l100 64q1 0 4.5 1 t4.5 1q13 0 20 -10l281 -492q0 -2 1 -5t1 -5q0 -12 -9 -21l-399 -489q-7 -10 -20 -10q-7 0 -11 4l-84 61q-8 5 -8 17z" />
<glyph unicode="&#xbc;" horiz-adv-x="2015" d="M317 1405v6l9 66q1 16 7 20t19 6l289 37h4q9 0 16 -6.5t7 -15.5v-5l-109 -886q-6 -27 -33 -27h-90q-26 0 -26 23q0 2 2 4l92 751l-162 8q-25 0 -25 19zM365 63q0 11 4 15l1142 1431q3 9 15 9q5 0 10 -5l74 -55q6 -3 6 -12q0 -2 -4 -14l-1143 -1432q-8 -8 -16 -8 q-3 0 -11 4l-73 55q-4 2 -4 12zM1073 240v8l10 80q0 14 11 28l475 557q15 15 26 15h201q27 0 27 -23v-4l-68 -557h113q22 0 22 -20v-9l-8 -69q-3 -29 -31 -29h-112l-23 -190q-3 -27 -33 -27h-88q-26 0 -26 20v7l24 190h-497q-23 0 -23 23zM1237 344h373l55 465h-37z" />
<glyph unicode="&#xbd;" horiz-adv-x="2091" d="M317 1405v6l9 66q1 16 7 20t19 6l289 37h4q9 0 16 -6.5t7 -15.5v-5l-109 -884q-3 -27 -33 -27h-90q-26 0 -26 23q0 1 1 2t1 2l92 749l-162 8q-25 0 -25 19zM365 63q0 11 4 15l1142 1431q3 9 15 9q5 0 10 -5l74 -55q6 -3 6 -12q0 -2 -4 -14l-1143 -1432q-8 -8 -16 -8 q-3 0 -11 4l-73 55q-4 2 -4 12zM1231 20v7l16 125q8 64 62 102l252 160q6 4 43 26t53.5 32.5t43.5 30.5t46 38q63 63 63 143q0 73 -49 100q-45 27 -145 27q-45 0 -98.5 -8t-80 -14t-98.5 -23h-8q-22 0 -22 22l-9 64v4q0 23 25 31q142 49 326 49q158 0 231 -49 q88 -57 88 -193q0 -116 -86 -211q-31 -33 -79.5 -68.5t-76 -52t-90.5 -53.5l-245 -147l-2 -29h503q25 0 25 -20q0 -7 -2 -9l-8 -75q-3 -29 -31 -29h-621q-26 0 -26 20z" />
<glyph unicode="&#xbe;" horiz-adv-x="2254" d="M244 643v12l22 74q3 14 23 14h16q92 -22 232 -22q133 0 190 55q45 42 45 109q0 60 -41 90q-36 25 -117 35q-65 7 -110 14q-29 0 -29 20v5l8 59q2 25 31 25q17 2 113 14q101 20 139 53q41 38 41 96q0 62 -45 88q-45 29 -141 29q-27 0 -55 -2.5t-47.5 -5t-50 -8.5t-41.5 -9 t-43 -11l-36 -9q-3 0 -8.5 -1t-7.5 -1q-21 0 -21 18l-8 70v8q0 19 25 27q50 19 141 35t193 16q140 0 219 -49q84 -55 84 -168q0 -84 -50 -143q-48 -59 -161 -82l-4 -33q94 -16 135 -57q43 -43 43 -119q0 -138 -101 -217q-103 -80 -286 -80q-65 0 -131 7t-100.5 13.5 t-47.5 10.5q-18 6 -18 20zM602 63q0 7 4 15l1143 1431q6 9 16 9q1 0 11 -5l71 -55q8 -3 8 -12q0 -5 -6 -14l-1142 -1432q-4 -8 -15 -8q-6 0 -10 4l-74 55q-6 3 -6 12zM1313 242v6l10 80q0 18 10 28l475 559q9 13 27 13h201q26 0 26 -21q0 -4 -2 -6l-67 -555h112q25 0 25 -22 v-7l-10 -69q-3 -31 -29 -31h-113l-24 -190q-3 -27 -31 -27h-88q-27 0 -27 23v4l25 192h-498q-22 0 -22 23zM1477 344h370l58 465h-39z" />
<glyph unicode="&#xbf;" d="M178 281q0 121 70 219q22 32 53.5 62t54 46t55 37t38.5 25q16 10 57 33t65.5 39.5t55 42.5t47.5 58.5t22 71.5q6 43 6 89v43q0 16 9.5 22t29.5 6h121q21 0 26.5 -3t6.5 -21q0 -4 1 -25t1 -35q0 -46 -4 -69q-5 -41 -14.5 -75.5t-19 -59.5t-29 -50t-32.5 -39.5t-42.5 -36.5 t-44.5 -32t-54 -34t-57 -36q-98 -57 -145 -104q-66 -69 -66 -152q0 -82 72 -121q67 -39 198 -39q44 0 92.5 4.5t93 12.5t75.5 14.5t64.5 14.5t35.5 8q20 4 22 4q16 0 19 -25l12 -100v-6q0 -22 -29 -31q-49 -17 -174 -41.5t-245 -24.5q-240 0 -355 95q-92 73 -92 213z M719 1243v6l29 232q1 15 10.5 23.5t23.5 8.5h148q26 0 26 -26v-6l-28 -232q-1 -15 -11 -23.5t-24 -8.5h-145q-29 0 -29 26z" />
<glyph unicode="&#xc0;" horiz-adv-x="1456" d="M29 20q0 13 4 19l696 1448q4 10 17.5 18t21.5 8h301q8 0 19 -8t14 -18l332 -1448q0 -2 1 -5t1 -5q0 -12 -8.5 -20.5t-20.5 -8.5h-154q-9 0 -17.5 7.5t-10.5 15.5l-133 602h-578l-276 -607q-11 -18 -35 -18h-156q-18 0 -18 20zM586 791h473l-127 563h-84zM739 1862 q0 8 6 14l82 88q8 8 17 8q8 0 10 -2l260 -211q6 -6 6 -12q0 -8 -6 -14l-78 -84q-9 -9 -16 -9q-2 0 -12 5l-263 204q-6 6 -6 13z" />
<glyph unicode="&#xc1;" horiz-adv-x="1456" d="M29 20q0 13 4 19l696 1448q4 10 17.5 18t21.5 8h301q8 0 19 -8t14 -18l332 -1448q0 -2 1 -5t1 -5q0 -12 -8.5 -20.5t-20.5 -8.5h-154q-9 0 -17.5 7.5t-10.5 15.5l-133 602h-578l-276 -607q-11 -18 -35 -18h-156q-18 0 -18 20zM586 791h473l-127 563h-84zM733 1743 q0 9 10 16l310 211q8 4 12 4q7 0 14 -10l60 -88q4 -8 4 -10q0 -10 -10 -17l-314 -204q-5 -5 -10 -5q-10 0 -16 9l-56 84q-4 8 -4 10z" />
<glyph unicode="&#xc2;" horiz-adv-x="1456" d="M29 20q0 13 4 19l696 1448q4 10 17.5 18t21.5 8h301q8 0 19 -8t14 -18l332 -1448q0 -2 1 -5t1 -5q0 -12 -8.5 -20.5t-20.5 -8.5h-154q-9 0 -17.5 7.5t-10.5 15.5l-133 602h-578l-276 -607q-11 -18 -35 -18h-156q-18 0 -18 20zM586 791h473l-127 563h-84zM612 1743 q0 10 9 16l309 209h69l258 -209q7 -3 7 -12q0 -5 -7 -12l-75 -80q-8 -8 -19 -8q-2 0 -10 4l-207 178l-250 -178q-4 -4 -10 -4q-11 0 -16 8l-56 80q-2 2 -2 8z" />
<glyph unicode="&#xc3;" horiz-adv-x="1456" d="M29 20q0 13 4 19l696 1448q4 10 17.5 18t21.5 8h301q8 0 19 -8t14 -18l332 -1448q0 -2 1 -5t1 -5q0 -12 -8.5 -20.5t-20.5 -8.5h-154q-9 0 -17.5 7.5t-10.5 15.5l-133 602h-578l-276 -607q-11 -18 -35 -18h-156q-18 0 -18 20zM586 791h473l-127 563h-84zM592 1790v14 q0 9 12 17q122 98 217 98q51 -2 127 -41q10 -5 30.5 -15t31.5 -15.5t28 -10t31 -4.5q58 0 148 70q12 6 16 6q12 0 16 -13l33 -79q0 -1 1 -5t1 -6t-2 -4q0 -8 -12 -16q-127 -96 -215 -96q-45 0 -129 39q-6 3 -21 11t-21 11.5t-18.5 9.5t-21 8.5t-19 4.5t-20.5 2 q-53 0 -148 -70q-8 -8 -16 -8q-12 0 -16 12z" />
<glyph unicode="&#xc4;" horiz-adv-x="1456" d="M29 20q0 13 4 19l696 1448q4 10 17.5 18t21.5 8h301q8 0 19 -8t14 -18l332 -1448q0 -2 1 -5t1 -5q0 -12 -8.5 -20.5t-20.5 -8.5h-154q-9 0 -17.5 7.5t-10.5 15.5l-133 602h-578l-276 -607q-11 -18 -35 -18h-156q-18 0 -18 20zM586 791h473l-127 563h-84zM608 1747v2 l15 121q4 22 26 22h207q9 0 16 -6t7 -14q0 -2 -2 -2l-15 -121q0 -7 -7.5 -13.5t-16.5 -6.5h-209q-9 0 -15 5t-6 13zM1014 1747v2l14 121q1 9 9.5 15.5t17.5 6.5h209q9 0 14.5 -6t5.5 -14v-2l-14 -121q-2 -8 -10 -14t-17 -6h-209q-20 0 -20 18z" />
<glyph unicode="&#xc5;" horiz-adv-x="1456" d="M29 20q0 13 4 19l696 1448q4 10 17.5 18t21.5 8h301q8 0 19 -8t14 -18l332 -1448q0 -2 1 -5t1 -5q0 -12 -8.5 -20.5t-20.5 -8.5h-154q-9 0 -17.5 7.5t-10.5 15.5l-133 602h-578l-276 -607q-11 -18 -35 -18h-156q-18 0 -18 20zM586 791h473l-127 563h-84zM680 1739 q0 97 33 164q65 127 266 127q135 0 195 -54q49 -46 49 -139q0 -90 -37 -160q-64 -123 -264 -123q-138 0 -195 54q-47 44 -47 131zM827 1741q0 -51 23 -74q22 -22 82 -22q54 0 83.5 20t43.5 64q14 58 14 104q0 60 -18 80q-20 26 -86 26q-57 0 -86 -21.5t-43 -70.5 q-13 -54 -13 -106z" />
<glyph unicode="&#xc6;" horiz-adv-x="1785" d="M29 20q0 13 4 19l665 1448q4 10 17.5 18t21.5 8h1086q12 0 20 -8t8 -20v-4l-14 -107q-2 -13 -12 -23t-23 -10h-608l-61 -499h579q12 0 20.5 -8.5t8.5 -20.5v-4l-15 -109q-2 -12 -12.5 -22t-23.5 -10h-578l-61 -498h608q12 0 20.5 -8.5t8.5 -20.5v-4l-15 -104 q-2 -14 -12 -23.5t-23 -9.5h-780q-12 0 -21.5 8.5t-9.5 20.5q2 2 2 4l76 624h-375l-290 -639q-11 -18 -35 -18h-158q-18 0 -18 20zM598 823h328l63 523h-158z" />
<glyph unicode="&#xc7;" horiz-adv-x="1353" d="M193 526q0 149 26 316t74 288q80 203 238 302.5t427 99.5q244 0 463 -74q29 -10 29 -31q0 -3 -2 -9t-2 -7l-31 -92q-8 -25 -33 -25q-12 0 -20 2q-225 64 -406 64q-197 0 -307 -68.5t-166 -218.5q-37 -102 -59.5 -251t-22.5 -271q0 -204 86 -293q94 -98 322 -98 q195 0 422 59q16 4 20 4q24 0 27 -26l8 -91v-8q0 -28 -37 -39q-232 -73 -481 -73q-326 0 -463 155q-112 129 -112 385zM575 -373l13 51q3 15 20 15h6q3 0 36.5 -5t62.5 -5q61 0 84 34q12 21 12 54q0 30 -21 45q-17 12 -57 12q-29 0 -64 -4t-38 -4h-4q-19 0 -19 12v55 q0 18 17 21q72 16 163 16q99 0 142 -43q35 -35 35 -98q0 -78 -41 -127q-54 -68 -185 -68q-81 0 -149 17q-13 3 -13 16v6z" />
<glyph unicode="&#xc8;" horiz-adv-x="1304" d="M188 29v4l179 1448q1 13 13 22.5t26 9.5h935q12 0 20.5 -8t8.5 -20v-4l-14 -107q-2 -12 -12.5 -22.5t-22.5 -10.5h-766l-57 -467h735q12 0 20.5 -8t8.5 -20q0 -2 -2 -4l-13 -109q-2 -12 -13 -22.5t-24 -10.5h-735l-63 -530h766q12 0 20 -8.5t8 -20.5q-2 -2 -2 -4 l-12 -104q-1 -13 -12 -23t-25 -10h-936q-12 0 -21.5 8.5t-9.5 20.5zM709 1862q0 8 6 14l80 88q10 10 18 10q6 0 10 -4l258 -211q6 -6 6 -12q0 -8 -6 -14l-75 -84q-9 -9 -19 -9q-5 0 -10 5l-262 204q-6 6 -6 13z" />
<glyph unicode="&#xc9;" horiz-adv-x="1304" d="M188 29v4l179 1448q1 13 13 22.5t26 9.5h935q12 0 20.5 -8t8.5 -20v-4l-14 -107q-2 -12 -12.5 -22.5t-22.5 -10.5h-766l-57 -467h735q12 0 20.5 -8t8.5 -20q0 -2 -2 -4l-13 -109q-2 -12 -13 -22.5t-24 -10.5h-735l-63 -530h766q12 0 20 -8.5t8 -20.5q-2 -2 -2 -4 l-12 -104q-1 -13 -12 -23t-25 -10h-936q-12 0 -21.5 8.5t-9.5 20.5zM739 1743q0 9 11 16l309 211q4 2 12 2q9 0 14 -8l60 -88q4 -8 4 -10q0 -10 -10 -17l-314 -204q-5 -5 -10 -5q-10 0 -16 9l-56 84q-4 8 -4 10z" />
<glyph unicode="&#xca;" horiz-adv-x="1304" d="M188 29v4l179 1448q1 13 13 22.5t26 9.5h935q12 0 20.5 -8t8.5 -20v-4l-14 -107q-2 -12 -12.5 -22.5t-22.5 -10.5h-766l-57 -467h735q12 0 20.5 -8t8.5 -20q0 -2 -2 -4l-13 -109q-2 -12 -13 -22.5t-24 -10.5h-735l-63 -530h766q12 0 20 -8.5t8 -20.5q-2 -2 -2 -4 l-12 -104q-1 -13 -12 -23t-25 -10h-936q-12 0 -21.5 8.5t-9.5 20.5zM582 1743q0 9 10 16l309 209h70l258 -209q6 -3 6 -12q0 -6 -6 -12l-76 -80q-8 -8 -18 -8q-3 0 -11 4l-206 178l-250 -178q-4 -4 -11 -4q-11 0 -16 8l-55 80q-4 4 -4 8z" />
<glyph unicode="&#xcb;" horiz-adv-x="1304" d="M188 29v4l179 1448q1 13 13 22.5t26 9.5h935q12 0 20.5 -8t8.5 -20v-4l-14 -107q-2 -12 -12.5 -22.5t-22.5 -10.5h-766l-57 -467h735q12 0 20.5 -8t8.5 -20q0 -2 -2 -4l-13 -109q-2 -12 -13 -22.5t-24 -10.5h-735l-63 -530h766q12 0 20 -8.5t8 -20.5q-2 -2 -2 -4 l-12 -104q-1 -13 -12 -23t-25 -10h-936q-12 0 -21.5 8.5t-9.5 20.5zM569 1747v2l15 121q4 22 24 22h209q9 0 15 -6t6 -14v-2l-15 -121q-4 -20 -26 -20l-207 -3q-9 0 -15 6.5t-6 14.5zM975 1747v2l14 121q4 22 27 22h209q9 0 14.5 -6t5.5 -14v-2l-16 -121q0 -7 -8 -13.5 t-17 -6.5l-209 -3q-9 0 -14.5 6.5t-5.5 14.5z" />
<glyph unicode="&#xcc;" horiz-adv-x="575" d="M188 29v2l181 1458q3 24 28 27l154 24h6q18 0 18 -22v-5l-182 -1482q-2 -12 -13 -21.5t-24 -9.5h-137q-12 0 -21.5 8.5t-9.5 20.5zM281 1862q0 8 6 14l82 88q10 10 16 10t10 -4l260 -211q4 -4 4 -12q0 -10 -4 -14l-77 -84q-9 -9 -17 -9q-2 0 -12 5l-262 204q-6 6 -6 13z " />
<glyph unicode="&#xcd;" horiz-adv-x="575" d="M188 29v2l181 1458q3 24 28 27l154 24h6q18 0 18 -22v-5l-182 -1482q-2 -12 -13 -21.5t-24 -9.5h-137q-12 0 -21.5 8.5t-9.5 20.5zM287 1743q0 9 10 16l309 211q8 4 12 4q8 0 15 -10l59 -88q4 -8 4 -10q0 -10 -10 -17l-313 -204q-10 -5 -11 -5q-10 0 -16 9l-57 84 q0 2 -1 5t-1 5z" />
<glyph unicode="&#xce;" horiz-adv-x="575" d="M178 1743q0 9 10 16l310 209h69l258 -209q4 -2 4 -12q0 -8 -4 -12l-75 -80q-8 -8 -19 -8q-2 0 -10 4l-207 178l-250 -178q-4 -4 -10 -4q-11 0 -16 8l-56 80q-4 4 -4 8zM188 29v2l181 1458q3 24 28 27l154 24h6q18 0 18 -22v-5l-182 -1482q-2 -12 -13 -21.5t-24 -9.5h-137 q-12 0 -21.5 8.5t-9.5 20.5z" />
<glyph unicode="&#xcf;" horiz-adv-x="575" d="M170 1747v2l14 121q4 22 27 22h209q8 0 14 -6t6 -14v-2l-16 -121q0 -7 -8 -13.5t-17 -6.5l-209 -3q-9 0 -14.5 6.5t-5.5 14.5zM188 29v2l181 1458q3 24 28 27l154 24h6q18 0 18 -22v-5l-182 -1482q-2 -12 -13 -21.5t-24 -9.5h-137q-12 0 -21.5 8.5t-9.5 20.5zM575 1747v2 l15 121q1 9 9 15.5t17 6.5h209q9 0 15 -6t6 -14v-2l-15 -121q-2 -8 -9.5 -14t-16.5 -6l-209 -3q-9 0 -15 6.5t-6 14.5z" />
<glyph unicode="&#xd0;" horiz-adv-x="1624" d="M106 715q0 3 3 6l10 94q1 13 12 22t23 9h168l77 635q1 13 13 22.5t24 9.5h561q192 0 318 -33t198 -118q105 -123 105 -385q0 -140 -25 -297t-69 -279q-36 -98 -87.5 -168.5t-113 -115t-143.5 -71t-168 -36.5t-199 -10h-561q-12 0 -21.5 8.5t-9.5 20.5v4l82 653h-168 q-13 0 -21 9t-8 20zM442 166h363q110 0 184.5 10.5t143.5 41.5t116.5 90.5t81.5 152.5q35 102 56.5 242.5t21.5 254.5q0 205 -78 289q-52 59 -143 80t-238 21h-362l-62 -502h512q12 0 20.5 -7.5t8.5 -19.5q-2 -2 -2 -4l-10 -94q-2 -14 -13 -24.5t-24 -10.5h-512z" />
<glyph unicode="&#xd1;" horiz-adv-x="1710" d="M188 29v2l179 1452q1 12 13 21t26 9h356q23 0 35 -32l528 -1336h18l162 1340q3 28 35 28h141q27 0 27 -22v-6l-178 -1454q-2 -12 -13 -21.5t-24 -9.5h-303q-20 0 -37 33l-530 1317h-72l-158 -1319q-2 -12 -13 -21.5t-24 -9.5h-137q-13 0 -22 8.5t-9 20.5zM766 1800v4 q0 9 12 17q44 35 104 66.5t113 31.5q51 -2 127 -41q10 -5 30.5 -15t31.5 -15.5t28 -10t31 -4.5q58 0 148 70q12 6 18 6q10 0 14 -13l33 -79q0 -1 1 -5t1 -6v-4q-2 -6 -12 -16q-133 -96 -217 -96q-10 0 -19.5 1t-20 3.5t-17.5 4.5t-19 7t-17 7t-18.5 8t-17.5 8 q-70 39 -100 45q-11 2 -21 2q-53 0 -148 -70q-8 -8 -16 -8t-16 12l-31 80q-2 4 -2 10z" />
<glyph unicode="&#xd2;" horiz-adv-x="1599" d="M190 516q0 147 26.5 316.5t72.5 291.5q38 99 94 173t139 130t200 84.5t267 28.5q340 0 481 -154q123 -128 123 -401t-71 -518q-28 -93 -67 -166.5t-98.5 -136t-137.5 -104t-184.5 -64.5t-237.5 -23q-328 0 -475 144q-132 135 -132 399zM399 508q0 -194 97 -279 q99 -86 319 -86q101 0 179 17.5t132.5 48.5t95 81t65 107.5t42.5 134.5q23 102 39 236t16 236q0 184 -88 272q-97 94 -329 94q-151 0 -252 -39.5t-155.5 -107.5t-86.5 -176q-31 -103 -52.5 -262t-21.5 -277zM784 1862q0 7 7 14l79 88q10 10 19 10q6 0 10 -4l258 -211 q6 -6 6 -12q0 -8 -6 -14l-76 -84q-9 -9 -18 -9q-5 0 -10 5l-262 204q-7 7 -7 13z" />
<glyph unicode="&#xd3;" horiz-adv-x="1599" d="M190 516q0 147 26.5 316.5t72.5 291.5q38 99 94 173t139 130t200 84.5t267 28.5q340 0 481 -154q123 -128 123 -401t-71 -518q-28 -93 -67 -166.5t-98.5 -136t-137.5 -104t-184.5 -64.5t-237.5 -23q-328 0 -475 144q-132 135 -132 399zM399 508q0 -194 97 -279 q99 -86 319 -86q101 0 179 17.5t132.5 48.5t95 81t65 107.5t42.5 134.5q23 102 39 236t16 236q0 184 -88 272q-97 94 -329 94q-151 0 -252 -39.5t-155.5 -107.5t-86.5 -176q-31 -103 -52.5 -262t-21.5 -277zM809 1743q0 11 8 16l311 211q4 4 11 4q9 0 16 -10l59 -88 q3 -6 3 -10q0 -10 -11 -17l-311 -204q-10 -5 -12 -5q-9 0 -15 9l-57 84q-2 4 -2 10z" />
<glyph unicode="&#xd4;" horiz-adv-x="1599" d="M190 516q0 147 26.5 316.5t72.5 291.5q38 99 94 173t139 130t200 84.5t267 28.5q340 0 481 -154q123 -128 123 -401t-71 -518q-28 -93 -67 -166.5t-98.5 -136t-137.5 -104t-184.5 -64.5t-237.5 -23q-328 0 -475 144q-132 135 -132 399zM399 508q0 -194 97 -279 q99 -86 319 -86q101 0 179 17.5t132.5 48.5t95 81t65 107.5t42.5 134.5q23 102 39 236t16 236q0 184 -88 272q-97 94 -329 94q-151 0 -252 -39.5t-155.5 -107.5t-86.5 -176q-31 -103 -52.5 -262t-21.5 -277zM678 1743q0 9 10 16l309 209h68l258 -209q6 -3 6 -12q0 -4 -4 -12 l-78 -80q-5 -8 -16 -8q-6 0 -10 4l-207 178l-250 -178q-8 -4 -12 -4q-10 0 -15 8l-57 80q0 1 -1 4t-1 4z" />
<glyph unicode="&#xd5;" horiz-adv-x="1599" d="M190 516q0 147 26.5 316.5t72.5 291.5q38 99 94 173t139 130t200 84.5t267 28.5q340 0 481 -154q123 -128 123 -401t-71 -518q-28 -93 -67 -166.5t-98.5 -136t-137.5 -104t-184.5 -64.5t-237.5 -23q-328 0 -475 144q-132 135 -132 399zM399 508q0 -194 97 -279 q99 -86 319 -86q101 0 179 17.5t132.5 48.5t95 81t65 107.5t42.5 134.5q23 102 39 236t16 236q0 184 -88 272q-97 94 -329 94q-151 0 -252 -39.5t-155.5 -107.5t-86.5 -176q-31 -103 -52.5 -262t-21.5 -277zM653 1800v4q0 8 13 17q44 35 104 66.5t113 31.5q51 -2 127 -41 l30 -15t31.5 -15.5t28 -10t30.5 -4.5q58 0 148 70q12 6 18 6q11 0 15 -13l32 -79q3 -3 3 -11v-4q-2 -4 -13 -16q-133 -96 -217 -96q-10 0 -19.5 1t-20 3.5t-17.5 4.5t-19 7t-17 7t-18.5 8t-17.5 8q-70 39 -100 45q-11 2 -21 2q-23 0 -51.5 -12.5t-45 -23t-50.5 -34.5 q-8 -8 -17 -8q-8 0 -16 12l-31 80q-2 4 -2 10z" />
<glyph unicode="&#xd6;" horiz-adv-x="1599" d="M190 516q0 147 26.5 316.5t72.5 291.5q38 99 94 173t139 130t200 84.5t267 28.5q340 0 481 -154q123 -128 123 -401t-71 -518q-28 -93 -67 -166.5t-98.5 -136t-137.5 -104t-184.5 -64.5t-237.5 -23q-328 0 -475 144q-132 135 -132 399zM399 508q0 -194 97 -279 q99 -86 319 -86q101 0 179 17.5t132.5 48.5t95 81t65 107.5t42.5 134.5q23 102 39 236t16 236q0 184 -88 272q-97 94 -329 94q-151 0 -252 -39.5t-155.5 -107.5t-86.5 -176q-31 -103 -52.5 -262t-21.5 -277zM664 1747v2l14 121q4 22 27 22h208q9 0 15 -6t6 -14v-2l-16 -121 q0 -7 -8 -13.5t-17 -6.5h-209q-20 0 -20 18zM1069 1747v2l16 121q0 9 8 15.5t17 6.5h209q9 0 14.5 -6t5.5 -14v-2l-14 -121q-2 -8 -10 -14t-17 -6h-208q-9 0 -15 5t-6 13z" />
<glyph unicode="&#xd7;" d="M174 303q0 6 4 10l397 353l-311 352q0 1 -1 3t-1 3q0 8 12 20l88 78q9 6 21 6q4 0 6 -2l309 -350l398 350q0 2 6 2q12 0 18 -6l70 -78q6 -6 6 -16q0 -6 -4 -10l-397 -352l311 -353q2 -2 2 -6q0 -8 -10 -18l-90 -78q-8 -8 -19 -8q-6 0 -8 2l-309 350l-396 -350 q-2 -2 -8 -2q-11 0 -16 8l-72 78q-6 6 -6 14z" />
<glyph unicode="&#xd8;" horiz-adv-x="1630" d="M113 39q0 6 8 14l153 158q-63 118 -63 324q0 95 16 223q13 104 31 187.5t48 167t70.5 146t100 117t134.5 89.5t176 55t223 20q300 0 444 -119l143 146q5 8 17 8q6 0 12 -6l72 -64q8 -8 8 -14q0 -9 -8 -14l-154 -158q72 -125 72 -342q0 -57 -17 -219q-13 -105 -31 -188.5 t-48 -167t-70 -146.5t-99.5 -118t-135 -90t-176 -55t-222.5 -20q-312 0 -459 131l-137 -143q-9 -6 -16 -6t-15 4l-71 66q-6 6 -6 14zM422 522q0 -85 14 -145l879 901q-98 92 -328 92q-92 0 -164.5 -15t-125.5 -40t-93.5 -68.5t-66 -89t-45 -114.5t-30.5 -132.5t-22 -154.5 q-18 -129 -18 -234zM500 248q94 -105 338 -105q91 0 164 15t126 40t93 68.5t66.5 89.5t46 115t30.5 133t22 154q19 156 19 223q0 99 -21 172z" />
<glyph unicode="&#xd9;" horiz-adv-x="1556" d="M223 408q0 68 8 131l117 950q3 24 29 27l153 24h7q18 0 18 -22v-5l-121 -989q-8 -49 -8 -100q0 -153 92 -219q86 -62 279 -62q213 0 321 81.5t131 267.5l123 997q3 24 29 27l153 24h5q20 0 20 -22v-5l-119 -964q-9 -72 -22.5 -130.5t-38.5 -119.5t-59.5 -108t-86.5 -89 t-118.5 -69.5t-157.5 -43.5t-201 -16q-328 0 -457 138q-96 104 -96 297zM758 1862q0 8 6 14l80 88q10 10 18 10q2 0 10 -4l258 -211q7 -7 7 -12q0 -7 -7 -14l-77 -84q-6 -9 -17 -9q-5 0 -10 5l-262 204q-6 6 -6 13z" />
<glyph unicode="&#xda;" horiz-adv-x="1556" d="M223 408q0 68 8 131l117 950q3 24 29 27l153 24h7q18 0 18 -22v-5l-121 -989q-8 -49 -8 -100q0 -153 92 -219q86 -62 279 -62q213 0 321 81.5t131 267.5l123 997q3 24 29 27l153 24h5q20 0 20 -22v-5l-119 -964q-9 -72 -22.5 -130.5t-38.5 -119.5t-59.5 -108t-86.5 -89 t-118.5 -69.5t-157.5 -43.5t-201 -16q-328 0 -457 138q-96 104 -96 297zM803 1743q0 11 8 16l311 211q4 4 11 4q9 0 16 -10l59 -88q0 -2 1 -5t1 -5q0 -10 -10 -17l-311 -204q-10 -5 -12 -5q-9 0 -15 9l-57 84q-2 4 -2 10z" />
<glyph unicode="&#xdb;" horiz-adv-x="1556" d="M223 408q0 68 8 131l117 950q3 24 29 27l153 24h7q18 0 18 -22v-5l-121 -989q-8 -49 -8 -100q0 -153 92 -219q86 -62 279 -62q213 0 321 81.5t131 267.5l123 997q3 24 29 27l153 24h5q20 0 20 -22v-5l-119 -964q-9 -72 -22.5 -130.5t-38.5 -119.5t-59.5 -108t-86.5 -89 t-118.5 -69.5t-157.5 -43.5t-201 -16q-328 0 -457 138q-96 104 -96 297zM659 1743q0 10 9 16l309 209h70l258 -209q6 -3 6 -12q0 -6 -6 -12l-76 -80q-8 -8 -17 -8q-6 0 -10 4l-207 178l-250 -178q-8 -4 -12 -4q-9 0 -14 8l-57 80q-3 3 -3 8z" />
<glyph unicode="&#xdc;" horiz-adv-x="1556" d="M223 408q0 68 8 131l117 950q3 24 29 27l153 24h7q18 0 18 -22v-5l-121 -989q-8 -49 -8 -100q0 -153 92 -219q86 -62 279 -62q213 0 321 81.5t131 267.5l123 997q3 24 29 27l153 24h5q20 0 20 -22v-5l-119 -964q-9 -72 -22.5 -130.5t-38.5 -119.5t-59.5 -108t-86.5 -89 t-118.5 -69.5t-157.5 -43.5t-201 -16q-328 0 -457 138q-96 104 -96 297zM651 1747v2l17 121q0 9 7.5 15.5t16.5 6.5h209q9 0 15 -6t6 -14v-2l-15 -121q-2 -8 -9 -15.5t-17 -7.5h-209q-8 0 -14.5 7t-6.5 14zM1059 1747v2l14 121q4 22 27 22h209q7 0 13.5 -6t6.5 -14v-2 l-16 -121q0 -8 -8 -15.5t-17 -7.5h-209q-9 0 -14.5 6.5t-5.5 14.5z" />
<glyph unicode="&#xdd;" horiz-adv-x="1304" d="M170 1485q0 10 10 19t19 9h174q22 0 33 -22l350 -700l516 702q17 20 37 20h172q9 0 14.5 -7t5.5 -15q0 -6 -4 -14l-668 -861l-71 -585q-2 -12 -13 -21.5t-24 -9.5h-137q-12 0 -21.5 8.5t-9.5 20.5q0 2 2 2l72 587l-455 859q0 1 -1 4t-1 4zM674 1743q0 11 8 16l311 211 q4 4 11 4q9 0 16 -10l59 -88q2 -4 2 -10q0 -10 -10 -17l-311 -204q-10 -5 -12 -5q-9 0 -15 9l-57 86q-2 2 -2 8z" />
<glyph unicode="&#xde;" horiz-adv-x="1433" d="M188 29v2l181 1458q3 24 28 27l154 24h6q18 0 18 -22v-5l-36 -290h487q262 0 360 -113q72 -85 72 -240q0 -131 -41 -256q-41 -117 -119 -190q-83 -73 -196.5 -97t-259.5 -24q-47 0 -70 2l-344 4l-35 -278q-2 -12 -13 -21.5t-24 -9.5h-137q-12 0 -21.5 8.5t-9.5 20.5z M444 453l332 12q176 7 232 18q87 16 137 60q56 50 82 147q18 74 18 152q0 97 -47 147q-35 40 -96.5 54t-151.5 14h-432z" />
<glyph unicode="&#xdf;" horiz-adv-x="1183" d="M-197 -393l11 76q4 34 32 34h2q1 0 12 -0.5t29 -1t35 -0.5q103 0 149.5 30.5t57.5 125.5l154 1298q11 87 38.5 152t80.5 116t140 77t208 26q203 0 303 -90q86 -77 86 -225q0 -151 -82 -252q-55 -66 -189 -137q-28 -16 -28 -41q0 -18 22 -31q7 -4 32.5 -16.5t40 -20 t37 -20.5t41 -27.5t34.5 -30.5q94 -87 94 -229q0 -91 -28.5 -176.5t-86.5 -145.5q-122 -125 -338 -125q-149 0 -256 39q-14 4 -14 21q0 8 2 12l29 90q1 7 9.5 13t16.5 6h6q112 -31 201 -31q129 0 201 78q65 65 65 172q0 111 -86 190q-23 22 -80.5 64t-83.5 75t-26 76 q0 39 21.5 72.5t48 52.5t65 45t57.5 45q84 81 84 201q0 94 -47 141q-54 54 -164 54q-125 0 -187.5 -47.5t-76.5 -172.5l-160 -1306q-20 -154 -112.5 -223.5t-251.5 -69.5q-30 0 -117 6q-31 0 -31 27v4z" />
<glyph unicode="&#xe0;" horiz-adv-x="1140" d="M123 252q0 116 41 203q23 48 56.5 80.5t81 50.5t89.5 27t108 20q10 1 15 2l391 63q17 115 17 144q0 62 -60 86q-50 20 -176 20q-37 0 -77.5 -3.5t-70.5 -7t-70.5 -11.5t-60 -12t-56.5 -13t-44 -10q-4 -2 -14 -2q-16 0 -19 16l-8 101v2q0 22 25 28q65 23 189 44.5 t251 21.5q205 0 297 -53q86 -53 86 -162q0 -33 -8 -103l-70 -571q-13 -107 -52 -146.5t-150 -64.5q-130 -29 -273 -29q-211 0 -305 47q-133 68 -133 232zM322 279q0 -76 51 -117q56 -47 209 -47q147 0 256 35l51 405l-354 -57q-3 -1 -21.5 -3.5t-22.5 -3.5t-20 -4t-21.5 -5 t-19 -6t-19 -8t-16 -10t-17 -12.5t-13.5 -15t-13 -18.5q-30 -48 -30 -133zM569 1438q0 8 6 14l80 88q8 8 19 8q8 0 10 -2l258 -211q6 -6 6 -12t-4 -14l-78 -84q-8 -8 -18 -8q-2 0 -10 4l-263 204q-6 6 -6 13z" />
<glyph unicode="&#xe1;" horiz-adv-x="1140" d="M123 252q0 116 41 203q23 48 56.5 80.5t81 50.5t89.5 27t108 20q10 1 15 2l391 63q17 115 17 144q0 62 -60 86q-50 20 -176 20q-37 0 -77.5 -3.5t-70.5 -7t-70.5 -11.5t-60 -12t-56.5 -13t-44 -10q-4 -2 -14 -2q-16 0 -19 16l-8 101v2q0 22 25 28q65 23 189 44.5 t251 21.5q205 0 297 -53q86 -53 86 -162q0 -33 -8 -103l-70 -571q-13 -107 -52 -146.5t-150 -64.5q-130 -29 -273 -29q-211 0 -305 47q-133 68 -133 232zM322 279q0 -76 51 -117q56 -47 209 -47q147 0 256 35l51 405l-354 -57q-3 -1 -21.5 -3.5t-22.5 -3.5t-20 -4t-21.5 -5 t-19 -6t-19 -8t-16 -10t-17 -12.5t-13.5 -15t-13 -18.5q-30 -48 -30 -133zM573 1319q0 10 9 16l311 211q4 2 12 2q10 0 15 -8l59 -88q2 -4 2 -10q0 -12 -8 -17l-314 -204q-8 -4 -12 -4q-9 0 -14 8l-58 84q-2 4 -2 10z" />
<glyph unicode="&#xe2;" horiz-adv-x="1140" d="M123 252q0 116 41 203q23 48 56.5 80.5t81 50.5t89.5 27t108 20q10 1 15 2l391 63q17 115 17 144q0 62 -60 86q-50 20 -176 20q-37 0 -77.5 -3.5t-70.5 -7t-70.5 -11.5t-60 -12t-56.5 -13t-44 -10q-4 -2 -14 -2q-16 0 -19 16l-8 101v2q0 22 25 28q65 23 189 44.5 t251 21.5q205 0 297 -53q86 -53 86 -162q0 -33 -8 -103l-70 -571q-13 -107 -52 -146.5t-150 -64.5q-130 -29 -273 -29q-211 0 -305 47q-133 68 -133 232zM322 279q0 -76 51 -117q56 -47 209 -47q147 0 256 35l51 405l-354 -57q-3 -1 -21.5 -3.5t-22.5 -3.5t-20 -4t-21.5 -5 t-19 -6t-19 -8t-16 -10t-17 -12.5t-13.5 -15t-13 -18.5q-30 -48 -30 -133zM414 1319q0 9 10 16l309 209h68l258 -209q6 -3 6 -12q0 -4 -4 -12l-76 -80q-8 -8 -18 -8q-7 0 -11 4l-206 178l-250 -178q-8 -4 -13 -4q-9 0 -14 8l-57 80q0 1 -1 4t-1 4z" />
<glyph unicode="&#xe3;" horiz-adv-x="1140" d="M123 252q0 116 41 203q23 48 56.5 80.5t81 50.5t89.5 27t108 20q10 1 15 2l391 63q17 115 17 144q0 62 -60 86q-50 20 -176 20q-37 0 -77.5 -3.5t-70.5 -7t-70.5 -11.5t-60 -12t-56.5 -13t-44 -10q-4 -2 -14 -2q-16 0 -19 16l-8 101v2q0 22 25 28q65 23 189 44.5 t251 21.5q205 0 297 -53q86 -53 86 -162q0 -33 -8 -103l-70 -571q-13 -107 -52 -146.5t-150 -64.5q-130 -29 -273 -29q-211 0 -305 47q-133 68 -133 232zM322 279q0 -76 51 -117q56 -47 209 -47q147 0 256 35l51 405l-354 -57q-3 -1 -21.5 -3.5t-22.5 -3.5t-20 -4t-21.5 -5 t-19 -6t-19 -8t-16 -10t-17 -12.5t-13.5 -15t-13 -18.5q-30 -48 -30 -133zM393 1374v4q2 6 13 17q133 96 217 96q10 0 19.5 -1t20 -3.5t17.5 -4.5t19 -7t17 -7t18.5 -8t17.5 -8q3 -2 15 -8.5t15.5 -8.5t14 -7.5t15.5 -7.5t14.5 -6t15.5 -5t14 -2.5t16 -1.5q51 0 146 70 q9 6 18 6q10 0 17 -13l30 -79q2 -2 2 -9v-4q0 -8 -12 -16q-44 -35 -104 -66.5t-113 -31.5q-47 0 -127 41q-10 5 -30.5 15t-31.5 15.5t-28 10t-31 4.5q-57 0 -147 -70q-12 -6 -19 -6q-11 0 -14 12l-33 80q-2 2 -2 10z" />
<glyph unicode="&#xe4;" horiz-adv-x="1140" d="M123 252q0 116 41 203q23 48 56.5 80.5t81 50.5t89.5 27t108 20q10 1 15 2l391 63q17 115 17 144q0 62 -60 86q-50 20 -176 20q-37 0 -77.5 -3.5t-70.5 -7t-70.5 -11.5t-60 -12t-56.5 -13t-44 -10q-4 -2 -14 -2q-16 0 -19 16l-8 101v2q0 22 25 28q65 23 189 44.5 t251 21.5q205 0 297 -53q86 -53 86 -162q0 -33 -8 -103l-70 -571q-13 -107 -52 -146.5t-150 -64.5q-130 -29 -273 -29q-211 0 -305 47q-133 68 -133 232zM322 279q0 -76 51 -117q56 -47 209 -47q147 0 256 35l51 405l-354 -57q-3 -1 -21.5 -3.5t-22.5 -3.5t-20 -4t-21.5 -5 t-19 -6t-19 -8t-16 -10t-17 -12.5t-13.5 -15t-13 -18.5q-30 -48 -30 -133zM410 1309v2l14 121q2 8 9.5 14t17.5 6h206q9 0 16 -5.5t7 -12.5q0 -2 -2 -2l-14 -121q0 -9 -8 -16t-17 -7h-209q-20 0 -20 21zM815 1309v2l14 121q2 8 10 14t17 6h209q20 0 20 -18v-2l-14 -121 q-1 -9 -9.5 -16t-17.5 -7h-208q-9 0 -15 6t-6 15z" />
<glyph unicode="&#xe5;" horiz-adv-x="1140" d="M123 252q0 116 41 203q23 48 56.5 80.5t81 50.5t89.5 27t108 20q10 1 15 2l391 63q17 115 17 144q0 62 -60 86q-50 20 -176 20q-37 0 -77.5 -3.5t-70.5 -7t-70.5 -11.5t-60 -12t-56.5 -13t-44 -10q-4 -2 -14 -2q-16 0 -19 16l-8 101v2q0 22 25 28q65 23 189 44.5 t251 21.5q205 0 297 -53q86 -53 86 -162q0 -33 -8 -103l-70 -571q-13 -107 -52 -146.5t-150 -64.5q-130 -29 -273 -29q-211 0 -305 47q-133 68 -133 232zM322 279q0 -76 51 -117q56 -47 209 -47q147 0 256 35l51 405l-354 -57q-3 -1 -21.5 -3.5t-22.5 -3.5t-20 -4t-21.5 -5 t-19 -6t-19 -8t-16 -10t-17 -12.5t-13.5 -15t-13 -18.5q-30 -48 -30 -133zM518 1358q0 113 55 182q63 80 222 80q123 0 176 -47q47 -41 47 -121q0 -108 -43 -176q-64 -96 -234 -96q-130 0 -182 55q-41 41 -41 123zM653 1354q0 -42 19 -64q20 -26 80 -26q51 0 77.5 18.5 t38.5 60.5q15 54 15 95q0 50 -17 73q-22 25 -82 25q-87 0 -110 -63q-17 -47 -21 -115v-4z" />
<glyph unicode="&#xe6;" horiz-adv-x="1849" d="M123 254q0 63 17.5 129t52.5 113q43 59 112 88t182 51l428 82q3 34 3 59q0 49 -23 90q-49 82 -205 82q-146 0 -391 -57q0 -2 -4 -2q-8 0 -14.5 7t-6.5 17l-6 93v2q0 18 23 28q40 17 170 41.5t233 24.5q321 0 355 -195q59 101 149.5 148t243.5 47q73 0 130 -8.5t110.5 -31 t89 -59t56.5 -96.5t21 -139q0 -62 -10.5 -110t-38.5 -84t-56.5 -61t-86 -42.5t-103.5 -28t-132 -17.5t-149 -10.5t-176 -7.5q-19 -1 -28 -1v-39q0 -139 90 -197q79 -51 225 -51q106 0 308 55h12q13 0 18 -18l17 -88q2 -2 2 -7q0 -19 -25 -26q-186 -62 -389 -62 q-317 0 -391 203q-30 -45 -57.5 -74.5t-75 -62.5t-118 -49.5t-163.5 -16.5q-218 0 -315 80q-84 71 -84 201zM319 285q0 -87 64 -131q61 -39 176 -39q174 0 248 98q57 72 74 205l18 157l-338 -65q-68 -13 -110.5 -28t-73.5 -44q-58 -55 -58 -153zM1081 541q44 3 124 7 q99 6 143.5 9t109.5 12t91.5 22t57 35.5t40.5 56t10 81.5q0 194 -236 194q-76 0 -134 -23.5t-94 -61t-60.5 -94t-35.5 -112.5t-16 -126z" />
<glyph unicode="&#xe7;" horiz-adv-x="989" d="M143 373q0 231 66 420q57 160 175 234.5t331 74.5q88 0 181 -17t134 -36q17 -11 17 -25q0 -5 -3 -14l-26 -80q-9 -23 -29 -23h-12q-168 47 -262 47q-134 0 -208.5 -47.5t-113.5 -161.5q-25 -71 -39 -172t-14 -186q0 -141 59 -203q58 -61 213 -61q114 0 275 41q4 2 12 2 q20 0 23 -23l6 -75v-7q0 -22 -25 -32q-42 -20 -140.5 -37t-187.5 -17q-230 0 -333 93q-99 91 -99 305zM371 -373l12 54q3 14 20 14h5q70 -10 98 -10q65 0 84 32q14 22 14 54t-20 45q-20 14 -60 14q-22 0 -102 -10h-4q-17 0 -17 14l-2 53q0 7 5.5 13t11.5 8q72 16 164 16 q100 0 143 -43q35 -35 35 -98q0 -74 -41 -127q-57 -68 -185 -68q-74 0 -151 17q-10 3 -10 16v6z" />
<glyph unicode="&#xe8;" horiz-adv-x="1114" d="M143 418q0 162 47 316t119 231q131 137 400 137q73 0 130 -8.5t110.5 -31t89 -59t56.5 -96.5t21 -139q0 -50 -7 -90.5t-24 -72.5t-37.5 -57.5t-54.5 -44.5t-67 -32.5t-84.5 -23.5t-96.5 -16t-113.5 -10.5t-125.5 -7.5t-142 -6q-18 -1 -28 -1v-39q0 -139 90 -197 q76 -51 225 -51q15 0 32 1t30.5 2t32.5 4t31 5t32.5 6t30 6t32 7.5t29 7t30 7.5t27.5 7q4 2 13 2q13 0 18 -18l17 -88q2 -2 2 -7q0 -19 -27 -26q-183 -62 -383 -62q-86 0 -155 14t-116 37t-81.5 58.5t-54 71.5t-30.5 84t-14.5 88.5t-3.5 91.5zM348 541q44 3 124 7 q99 6 143.5 9t109.5 12t91.5 22t57 35.5t40.5 56t10 81.5q0 194 -236 194q-76 0 -134 -23.5t-94 -61t-60.5 -94t-35.5 -112.5t-16 -126zM541 1438q0 8 6 14l80 88q8 8 18 8q6 0 10 -2l258 -211q7 -7 7 -12q0 -7 -7 -14l-77 -84q-5 -8 -17 -8q-6 0 -10 4l-262 204q-6 6 -6 13 z" />
<glyph unicode="&#xe9;" horiz-adv-x="1114" d="M143 418q0 162 47 316t119 231q131 137 400 137q73 0 130 -8.5t110.5 -31t89 -59t56.5 -96.5t21 -139q0 -50 -7 -90.5t-24 -72.5t-37.5 -57.5t-54.5 -44.5t-67 -32.5t-84.5 -23.5t-96.5 -16t-113.5 -10.5t-125.5 -7.5t-142 -6q-18 -1 -28 -1v-39q0 -139 90 -197 q76 -51 225 -51q15 0 32 1t30.5 2t32.5 4t31 5t32.5 6t30 6t32 7.5t29 7t30 7.5t27.5 7q4 2 13 2q13 0 18 -18l17 -88q2 -2 2 -7q0 -19 -27 -26q-183 -62 -383 -62q-86 0 -155 14t-116 37t-81.5 58.5t-54 71.5t-30.5 84t-14.5 88.5t-3.5 91.5zM348 541q44 3 124 7 q99 6 143.5 9t109.5 12t91.5 22t57 35.5t40.5 56t10 81.5q0 194 -236 194q-76 0 -134 -23.5t-94 -61t-60.5 -94t-35.5 -112.5t-16 -126zM567 1319q0 11 8 16l312 211q2 2 10 2q11 0 16 -8l60 -88q2 -4 2 -10q0 -10 -10 -17l-312 -204q-8 -4 -12 -4q-9 0 -14 8l-58 84 q-2 4 -2 10z" />
<glyph unicode="&#xea;" horiz-adv-x="1114" d="M143 418q0 162 47 316t119 231q131 137 400 137q73 0 130 -8.5t110.5 -31t89 -59t56.5 -96.5t21 -139q0 -50 -7 -90.5t-24 -72.5t-37.5 -57.5t-54.5 -44.5t-67 -32.5t-84.5 -23.5t-96.5 -16t-113.5 -10.5t-125.5 -7.5t-142 -6q-18 -1 -28 -1v-39q0 -139 90 -197 q76 -51 225 -51q15 0 32 1t30.5 2t32.5 4t31 5t32.5 6t30 6t32 7.5t29 7t30 7.5t27.5 7q4 2 13 2q13 0 18 -18l17 -88q2 -2 2 -7q0 -19 -27 -26q-183 -62 -383 -62q-86 0 -155 14t-116 37t-81.5 58.5t-54 71.5t-30.5 84t-14.5 88.5t-3.5 91.5zM348 541q44 3 124 7 q99 6 143.5 9t109.5 12t91.5 22t57 35.5t40.5 56t10 81.5q0 194 -236 194q-76 0 -134 -23.5t-94 -61t-60.5 -94t-35.5 -112.5t-16 -126zM418 1319q0 9 10 16l309 209h68l258 -209q6 -3 6 -12q0 -6 -6 -12l-76 -80q-5 -8 -16 -8q-8 0 -10 4l-207 178l-250 -178q-4 -4 -12 -4 q-10 0 -15 8l-57 80q-2 2 -2 8z" />
<glyph unicode="&#xeb;" horiz-adv-x="1114" d="M143 418q0 162 47 316t119 231q131 137 400 137q73 0 130 -8.5t110.5 -31t89 -59t56.5 -96.5t21 -139q0 -50 -7 -90.5t-24 -72.5t-37.5 -57.5t-54.5 -44.5t-67 -32.5t-84.5 -23.5t-96.5 -16t-113.5 -10.5t-125.5 -7.5t-142 -6q-18 -1 -28 -1v-39q0 -139 90 -197 q76 -51 225 -51q15 0 32 1t30.5 2t32.5 4t31 5t32.5 6t30 6t32 7.5t29 7t30 7.5t27.5 7q4 2 13 2q13 0 18 -18l17 -88q2 -2 2 -7q0 -19 -27 -26q-183 -62 -383 -62q-86 0 -155 14t-116 37t-81.5 58.5t-54 71.5t-30.5 84t-14.5 88.5t-3.5 91.5zM348 541q44 3 124 7 q99 6 143.5 9t109.5 12t91.5 22t57 35.5t40.5 56t10 81.5q0 194 -236 194q-76 0 -134 -23.5t-94 -61t-60.5 -94t-35.5 -112.5t-16 -126zM408 1307v4l14 121q2 8 9.5 14t17.5 6h206q9 0 15 -5t6 -13v-2l-14 -121q-2 -9 -9 -16t-16 -7h-209q-9 0 -14.5 5.5t-5.5 13.5z M813 1307v4l14 121q2 8 9.5 14t17.5 6h209q20 0 20 -18v-2l-16 -121q0 -9 -8 -16t-17 -7h-208q-9 0 -15 5.5t-6 13.5z" />
<glyph unicode="&#xec;" horiz-adv-x="534" d="M170 27v4l123 1009q7 31 37 31h127q26 0 26 -27v-4l-125 -1009q-2 -14 -10.5 -22.5t-21.5 -8.5h-129q-12 0 -19.5 7.5t-7.5 19.5zM223 1438q0 8 6 14l80 88q8 8 19 8q6 0 10 -2l258 -211q6 -6 6 -12q0 -8 -6 -14l-76 -84q-8 -8 -18 -8q-6 0 -10 4l-263 204q-6 6 -6 13z " />
<glyph unicode="&#xed;" horiz-adv-x="534" d="M172 27v4l123 1009q7 31 37 31h127q26 0 26 -27v-4l-125 -1009q-2 -14 -10.5 -22.5t-21.5 -8.5h-129q-12 0 -19.5 7.5t-7.5 19.5zM209 1319q0 9 10 16l309 211q4 2 13 2t14 -8l59 -88q4 -8 4 -10q0 -10 -10 -17l-313 -204q-4 -4 -10 -4q-12 0 -17 8l-55 84q-4 8 -4 10z " />
<glyph unicode="&#xee;" horiz-adv-x="534" d="M94 1319q0 11 8 16l310 209h69l258 -209q6 -3 6 -12q0 -6 -6 -12l-75 -80q-8 -8 -17 -8q-8 0 -10 4l-207 178l-250 -178q-4 -4 -12 -4q-9 0 -14 8l-58 80q-2 2 -2 8zM170 27v4l125 1009q1 13 11 22t24 9h127q26 0 26 -27v-4l-123 -1009q-2 -14 -11.5 -22.5t-22.5 -8.5 h-127q-29 0 -29 27z" />
<glyph unicode="&#xef;" horiz-adv-x="534" d="M92 1309v2l14 121q2 8 9 14t16 6h209q20 0 20 -18v-2l-14 -121q-2 -9 -9.5 -16t-17.5 -7h-206q-9 0 -15 6t-6 15zM172 27v4l123 1009q1 13 11 22t24 9h129q26 0 26 -27v-4l-125 -1009q-2 -14 -10.5 -22.5t-21.5 -8.5h-129q-12 0 -19.5 7.5t-7.5 19.5zM498 1309v2l14 121 q2 8 9.5 14t17.5 6h209q20 0 20 -18v-2l-16 -121q0 -9 -8 -16t-17 -7h-209q-20 0 -20 21z" />
<glyph unicode="&#xf0;" horiz-adv-x="1150" d="M143 373q0 99 18 209.5t52 189.5q121 295 481 295q156 0 264 -94l9 4q-2 75 -22 144.5t-50.5 119t-59.5 83t-57 52.5l-227 -135q-8 -4 -12 -4q-8 0 -13 8l-53 66q-4 4 -4 8q0 8 12 16l185 111q-100 49 -328 57q-41 0 -41 27q0 4 2 6l10 84q4 37 39 37h17q293 0 466 -105 l191 117q6 2 12 2q9 0 15 -6l51 -70q4 -4 4 -8q0 -9 -14 -18l-154 -90q217 -188 217 -613v-8q0 -130 -17.5 -277t-50.5 -253q-24 -75 -60 -133.5t-94.5 -111t-149.5 -81.5t-208 -29q-223 0 -331 111q-99 102 -99 289zM340 393q0 -140 53 -203q58 -71 199 -71q130 0 200.5 60 t102.5 169q43 143 43 311q0 135 -55 195q-59 68 -193 68q-131 0 -202 -60.5t-105 -171.5q-43 -140 -43 -297z" />
<glyph unicode="&#xf1;" horiz-adv-x="1187" d="M145 27v4l107 858q8 65 32.5 94.5t102.5 54.5q83 26 213.5 45t228.5 19q202 0 273 -74q55 -52 55 -164v-16q0 -29 -2 -45l-94 -772q-2 -14 -11 -22.5t-24 -8.5h-127q-29 0 -29 27v4l93 749q4 32 4 47v7q-3 51 -25 79q-37 43 -141 43q-77 0 -167 -13t-141 -25l-51 -13 l-106 -874q-2 -14 -11 -22.5t-24 -8.5h-127q-29 0 -29 27zM424 1364v14q0 9 12 17q127 96 217 96q43 0 127 -39q6 -3 21 -11t21 -11.5t18.5 -9.5t21 -8.5t19 -4.5t20.5 -2q53 0 148 70q6 6 16 6q13 0 16 -13l33 -79q0 -1 1 -4.5t1 -4.5q0 -4 -2 -4q0 -8 -12 -16 q-122 -98 -215 -98q-49 0 -129 41q-10 5 -30.5 15t-31.5 15.5t-28 10t-31 4.5q-58 0 -148 -70q-12 -6 -16 -6q-13 0 -16 12z" />
<glyph unicode="&#xf2;" horiz-adv-x="1150" d="M141 362q0 64 15 175q9 73 19.5 129.5t30.5 118t47 106t69 86.5t95.5 68t128 41.5t165.5 15.5q232 0 338 -101q94 -91 94 -286q0 -60 -15 -178q-9 -73 -19.5 -129t-30.5 -117.5t-47 -106t-69 -86.5t-95.5 -68t-128 -41.5t-165.5 -15.5q-242 0 -342 105q-90 90 -90 284z M338 358q0 -126 49 -178q61 -61 203 -61q46 0 84 6.5t67.5 16.5t53.5 29t41.5 37.5t31.5 49.5t22.5 56.5t17 67t13 73t11.5 82.5q14 123 14 184q0 128 -59 182q-59 53 -193 53q-41 0 -76 -4.5t-63.5 -15t-51 -22t-41 -32t-32 -39t-24.5 -48t-18.5 -53.5t-14.5 -62.5 t-11 -67.5t-10 -75q-14 -115 -14 -179zM545 1438q0 6 4 14l82 88q8 8 16 8t12 -2l259 -211q6 -6 6 -12q0 -8 -6 -14l-78 -84q-8 -8 -17 -8q-6 0 -10 4l-262 204q-6 6 -6 13z" />
<glyph unicode="&#xf3;" horiz-adv-x="1150" d="M141 362q0 64 15 175q9 73 19.5 129.5t30.5 118t47 106t69 86.5t95.5 68t128 41.5t165.5 15.5q232 0 338 -101q94 -91 94 -286q0 -60 -15 -178q-9 -73 -19.5 -129t-30.5 -117.5t-47 -106t-69 -86.5t-95.5 -68t-128 -41.5t-165.5 -15.5q-242 0 -342 105q-90 90 -90 284z M338 358q0 -126 49 -178q61 -61 203 -61q46 0 84 6.5t67.5 16.5t53.5 29t41.5 37.5t31.5 49.5t22.5 56.5t17 67t13 73t11.5 82.5q14 123 14 184q0 128 -59 182q-59 53 -193 53q-41 0 -76 -4.5t-63.5 -15t-51 -22t-41 -32t-32 -39t-24.5 -48t-18.5 -53.5t-14.5 -62.5 t-11 -67.5t-10 -75q-14 -115 -14 -179zM559 1319q0 9 10 16l310 211q4 2 12 2q9 0 14 -8l60 -88q2 -4 2 -10q0 -11 -9 -17l-313 -204q-8 -4 -12 -4q-10 0 -15 8l-57 84q-2 4 -2 10z" />
<glyph unicode="&#xf4;" horiz-adv-x="1150" d="M141 362q0 64 15 175q9 73 19.5 129.5t30.5 118t47 106t69 86.5t95.5 68t128 41.5t165.5 15.5q232 0 338 -101q94 -91 94 -286q0 -60 -15 -178q-9 -73 -19.5 -129t-30.5 -117.5t-47 -106t-69 -86.5t-95.5 -68t-128 -41.5t-165.5 -15.5q-242 0 -342 105q-90 90 -90 284z M338 358q0 -126 49 -178q61 -61 203 -61q46 0 84 6.5t67.5 16.5t53.5 29t41.5 37.5t31.5 49.5t22.5 56.5t17 67t13 73t11.5 82.5q14 123 14 184q0 128 -59 182q-59 53 -193 53q-41 0 -76 -4.5t-63.5 -15t-51 -22t-41 -32t-32 -39t-24.5 -48t-18.5 -53.5t-14.5 -62.5 t-11 -67.5t-10 -75q-14 -115 -14 -179zM414 1319q0 9 10 16l309 209h68l258 -209q6 -3 6 -12q0 -6 -6 -12l-76 -80q-8 -8 -16 -8q-9 0 -11 4l-206 178l-250 -178q-4 -4 -13 -4t-14 8l-57 80q-2 2 -2 8z" />
<glyph unicode="&#xf5;" horiz-adv-x="1150" d="M141 362q0 64 15 175q9 73 19.5 129.5t30.5 118t47 106t69 86.5t95.5 68t128 41.5t165.5 15.5q232 0 338 -101q94 -91 94 -286q0 -60 -15 -178q-9 -73 -19.5 -129t-30.5 -117.5t-47 -106t-69 -86.5t-95.5 -68t-128 -41.5t-165.5 -15.5q-242 0 -342 105q-90 90 -90 284z M338 358q0 -126 49 -178q61 -61 203 -61q46 0 84 6.5t67.5 16.5t53.5 29t41.5 37.5t31.5 49.5t22.5 56.5t17 67t13 73t11.5 82.5q14 123 14 184q0 128 -59 182q-59 53 -193 53q-41 0 -76 -4.5t-63.5 -15t-51 -22t-41 -32t-32 -39t-24.5 -48t-18.5 -53.5t-14.5 -62.5 t-11 -67.5t-10 -75q-14 -115 -14 -179zM399 1364v14q0 8 13 17q127 96 217 96q43 0 127 -39q6 -3 21 -11t21 -11.5t18.5 -9.5t21 -8.5t19 -4.5t20.5 -2q52 0 147 70q6 6 16 6q14 0 17 -13l33 -79q0 -1 1 -4.5t1 -4.5q0 -4 -2 -4q0 -7 -13 -16q-122 -98 -215 -98 q-49 0 -129 41q-10 5 -30.5 15t-31.5 15.5t-28 10t-31 4.5q-57 0 -147 -70q-12 -6 -16 -6q-14 0 -17 12z" />
<glyph unicode="&#xf6;" horiz-adv-x="1150" d="M141 362q0 64 15 175q9 73 19.5 129.5t30.5 118t47 106t69 86.5t95.5 68t128 41.5t165.5 15.5q232 0 338 -101q94 -91 94 -286q0 -60 -15 -178q-9 -73 -19.5 -129t-30.5 -117.5t-47 -106t-69 -86.5t-95.5 -68t-128 -41.5t-165.5 -15.5q-242 0 -342 105q-90 90 -90 284z M338 358q0 -126 49 -178q61 -61 203 -61q46 0 84 6.5t67.5 16.5t53.5 29t41.5 37.5t31.5 49.5t22.5 56.5t17 67t13 73t11.5 82.5q14 123 14 184q0 128 -59 182q-59 53 -193 53q-41 0 -76 -4.5t-63.5 -15t-51 -22t-41 -32t-32 -39t-24.5 -48t-18.5 -53.5t-14.5 -62.5 t-11 -67.5t-10 -75q-14 -115 -14 -179zM397 1309v2l17 121q0 8 7.5 14t16.5 6h209q9 0 15 -5t6 -13v-2l-15 -121q-4 -23 -26 -23h-209q-9 0 -15 6t-6 15zM805 1309v2l14 121q2 8 9 14t16 6h209q20 0 20 -18v-2l-14 -121q-2 -9 -9 -16t-16 -7h-209q-20 0 -20 21z" />
<glyph unicode="&#xf7;" d="M174 606q0 4 2 4l12 105q1 13 11.5 21.5t25.5 8.5h940q14 0 22.5 -7t8.5 -19q0 -2 -2 -4l-12 -105q-2 -12 -13 -21t-24 -9h-940q-13 0 -22 7.5t-9 18.5zM516 184v4l27 215q0 9 7.5 16t16.5 7h176q9 0 15 -6t6 -14v-3l-27 -215q-4 -22 -26 -22h-174q-9 0 -15 5t-6 13z M606 922v2l27 215q4 22 24 22h177q20 0 20 -20v-2l-27 -215q-2 -9 -8.5 -16t-15.5 -7h-176q-9 0 -15 6.5t-6 14.5z" />
<glyph unicode="&#xf8;" horiz-adv-x="1236" d="M82 -8q0 6 8 14l135 139q-43 79 -43 220q0 76 13 172q9 74 20 130t31.5 117.5t47.5 106t69 86.5t96 68t129.5 41.5t167.5 15.5q211 0 319 -84l125 129q9 6 17 6q10 0 14 -4l51 -51q6 -6 6 -13q0 -9 -8 -14l-135 -139q45 -78 45 -225q0 -52 -12 -170q-9 -73 -20.5 -129 t-31.5 -117.5t-47.5 -106t-70 -86.5t-96.5 -68t-129 -41.5t-167 -15.5q-215 0 -321 86l-125 -129q-12 -8 -16 -8q-10 0 -13 6l-53 49q-6 9 -6 15zM379 356q0 -35 2 -51l567 582q-57 69 -211 69q-42 0 -77.5 -4.5t-64 -15t-51.5 -22t-41.5 -32t-32 -39t-24.5 -48t-18.5 -54 t-14 -62.5t-11 -67.5t-9.5 -74.5q-14 -115 -14 -181zM422 190q56 -71 213 -71q59 0 106 10.5t80 27t58 47.5t40 60t27.5 79t18.5 89.5t14 104.5q14 107 14 163q0 51 -4 74z" />
<glyph unicode="&#xf9;" horiz-adv-x="1177" d="M174 287q0 49 6 104l80 651q3 24 31 31l137 29h6q19 0 19 -23v-6l-86 -698q-5 -68 -5 -74q0 -89 52 -135q55 -49 190 -49q71 0 123 14t83 36t51 58.5t28.5 70.5t13.5 83l82 661q3 28 31 31l135 31h8q19 0 19 -23v-6l-82 -680q-8 -60 -19.5 -106.5t-34 -97.5t-59 -87.5 t-89.5 -67t-131 -46t-177 -15.5q-248 0 -342 101q-70 73 -70 213zM559 1438q0 8 6 14l80 88q8 8 19 8q6 0 10 -2l258 -211q6 -6 6 -12q0 -8 -6 -14l-76 -84q-8 -8 -18 -8q-7 0 -11 4l-262 204q-6 6 -6 13z" />
<glyph unicode="&#xfa;" horiz-adv-x="1177" d="M174 287q0 49 6 104l80 651q3 24 31 31l137 29h6q19 0 19 -23v-6l-86 -698q-5 -68 -5 -74q0 -89 52 -135q55 -49 190 -49q71 0 123 14t83 36t51 58.5t28.5 70.5t13.5 83l82 661q3 28 31 31l135 31h8q19 0 19 -23v-6l-82 -680q-8 -60 -19.5 -106.5t-34 -97.5t-59 -87.5 t-89.5 -67t-131 -46t-177 -15.5q-248 0 -342 101q-70 73 -70 213zM569 1319q0 9 11 16l309 211q4 2 12 2q9 0 14 -8l60 -88q4 -8 4 -10q0 -10 -10 -17l-314 -204q-4 -4 -10 -4q-11 0 -16 8l-56 84q-4 8 -4 10z" />
<glyph unicode="&#xfb;" horiz-adv-x="1177" d="M174 287q0 49 6 104l80 651q3 24 31 31l137 29h6q19 0 19 -23v-6l-86 -698q-5 -68 -5 -74q0 -89 52 -135q55 -49 190 -49q71 0 123 14t83 36t51 58.5t28.5 70.5t13.5 83l82 661q3 28 31 31l135 31h8q19 0 19 -23v-6l-82 -680q-8 -60 -19.5 -106.5t-34 -97.5t-59 -87.5 t-89.5 -67t-131 -46t-177 -15.5q-248 0 -342 101q-70 73 -70 213zM426 1319q0 9 10 16l309 209h68l258 -209q6 -3 6 -12q0 -4 -4 -12l-76 -80q-8 -8 -18 -8q-8 0 -10 4l-207 178l-250 -178q-4 -4 -12 -4q-10 0 -15 8l-57 80q0 1 -1 3.5t-1 4.5z" />
<glyph unicode="&#xfc;" horiz-adv-x="1177" d="M174 287q0 49 6 104l80 651q3 24 31 31l137 29h6q19 0 19 -23v-6l-86 -698q-5 -68 -5 -74q0 -89 52 -135q55 -49 190 -49q71 0 123 14t83 36t51 58.5t28.5 70.5t13.5 83l82 661q3 28 31 31l135 31h8q19 0 19 -23v-6l-82 -680q-8 -60 -19.5 -106.5t-34 -97.5t-59 -87.5 t-89.5 -67t-131 -46t-177 -15.5q-248 0 -342 101q-70 73 -70 213zM414 1307v4l14 121q2 8 10 14t17 6h209q20 0 20 -18v-2l-14 -121q-1 -9 -9.5 -16t-17.5 -7h-209q-9 0 -14.5 5.5t-5.5 13.5zM819 1307v4l17 121q0 8 7.5 14t16.5 6h209q9 0 15 -5t6 -13v-2l-15 -121 q-4 -23 -26 -23h-209q-8 0 -14.5 6t-6.5 13z" />
<glyph unicode="&#xfd;" horiz-adv-x="1060" d="M78 -395l12 98q2 8 10 15.5t19 7.5h2q7 0 50.5 -1t66.5 -1q85 0 132 27t79 106l61 143h-96q-30 0 -37 33l-209 1007v4q0 12 9.5 21.5t21.5 9.5h141q24 0 31 -28l159 -914h54l358 914q10 28 41 28h150q9 0 15.5 -6.5t6.5 -15.5t-2 -13l-516 -1190q-33 -78 -63 -126 t-74 -85.5t-103.5 -53t-144.5 -15.5q-92 0 -154 10q-20 2 -20 21v4zM522 1317q0 10 8 18l312 209q4 4 12 4q9 0 14 -8l60 -90q2 -2 2 -8q0 -12 -8 -17l-314 -206q-4 -2 -12 -2q-9 0 -14 8l-58 84q-2 2 -2 8z" />
<glyph unicode="&#xfe;" horiz-adv-x="1177" d="M92 -401l232 1882q3 25 30 28l138 31h6q20 0 20 -22v-7l-43 -348l-35 -119q196 58 346 58q213 0 299 -96q82 -92 82 -297q0 -193 -49 -367q-51 -190 -168 -279.5t-338 -89.5q-161 0 -301 39l6 -123l-30 -260q-3 -23 -31 -30l-137 -29h-6q-21 0 -21 22v7zM350 150 q102 -33 260 -33q139 0 213 59.5t109 206.5q41 155 41 330q0 127 -45 180q-52 61 -193 61q-53 0 -125.5 -11t-119.5 -23l-46 -11z" />
<glyph unicode="&#xff;" horiz-adv-x="1060" d="M78 -395l12 98q2 8 10 15.5t19 7.5h2q7 0 50.5 -1t66.5 -1q85 0 132 27t79 106l61 143h-96q-30 0 -37 33l-209 1007v4q0 12 9.5 21.5t21.5 9.5h141q24 0 31 -28l159 -914h54l358 914q10 28 41 28h150q9 0 15.5 -6.5t6.5 -15.5t-2 -13l-516 -1190q-33 -78 -63 -126 t-74 -85.5t-103.5 -53t-144.5 -15.5q-92 0 -154 10q-20 2 -20 21v4zM356 1309v2l15 121q2 8 8.5 14t15.5 6h209q9 0 15 -5t6 -13v-2l-15 -121q-4 -23 -26 -23h-207q-9 0 -15 6t-6 15zM762 1309v2l14 121q2 8 9.5 14t17.5 6h209q20 0 20 -18v-2l-16 -121q0 -9 -8 -16t-17 -7 h-209q-20 0 -20 21z" />
<glyph unicode="&#x2000;" horiz-adv-x="1015" />
<glyph unicode="&#x2001;" horiz-adv-x="2030" />
<glyph unicode="&#x2002;" horiz-adv-x="1015" />
<glyph unicode="&#x2003;" horiz-adv-x="2030" />
<glyph unicode="&#x2004;" horiz-adv-x="676" />
<glyph unicode="&#x2005;" horiz-adv-x="507" />
<glyph unicode="&#x2006;" horiz-adv-x="338" />
<glyph unicode="&#x2007;" horiz-adv-x="338" />
<glyph unicode="&#x2008;" horiz-adv-x="253" />
<glyph unicode="&#x2009;" horiz-adv-x="406" />
<glyph unicode="&#x200a;" horiz-adv-x="112" />
<glyph unicode="&#x2010;" horiz-adv-x="806" d="M164 506v4l12 102q1 13 12 22t25 9h541q12 0 20 -7.5t8 -19.5q0 -4 -2 -4l-12 -102q-1 -15 -11 -24t-24 -9h-540q-12 0 -20.5 8t-8.5 21z" />
<glyph unicode="&#x2011;" horiz-adv-x="806" d="M164 506v4l12 102q1 13 12 22t25 9h541q12 0 20 -7.5t8 -19.5q0 -4 -2 -4l-12 -102q-1 -15 -11 -24t-24 -9h-540q-12 0 -20.5 8t-8.5 21z" />
<glyph unicode="&#x2012;" horiz-adv-x="806" d="M164 506v4l12 102q1 13 12 22t25 9h541q12 0 20 -7.5t8 -19.5q0 -4 -2 -4l-12 -102q-1 -15 -11 -24t-24 -9h-540q-12 0 -20.5 8t-8.5 21z" />
<glyph unicode="&#x2013;" horiz-adv-x="1212" d="M164 506v4l20 102q2 13 20 22t41 9h897q19 0 32.5 -7.5t13.5 -19.5q0 -4 -3 -4l-20 -102q-2 -15 -18.5 -24t-39.5 -9h-895q-20 0 -34 8t-14 21z" />
<glyph unicode="&#x2014;" horiz-adv-x="2236" d="M164 506v4l40 102q3 13 39.5 22t82.5 9h1793q40 0 66.5 -7.5t26.5 -19.5q0 -4 -7 -4l-39 -102q-4 -15 -37 -24t-79 -9h-1790q-40 0 -68 8t-28 21z" />
<glyph unicode="&#x202f;" horiz-adv-x="406" />
<glyph unicode="&#x205f;" horiz-adv-x="507" />
<glyph unicode="&#x25fc;" horiz-adv-x="1075" d="M0 0v1075h1075v-1075h-1075z" />
<glyph unicode="&#xfb01;" horiz-adv-x="1177" d="M-135 -393l10 78q4 32 33 32h10q4 0 27.5 -1t40.5 -1q103 0 149.5 30.5t57.5 125.5l129 1057h-160q-12 0 -19.5 6.5t-7.5 17.5v4l10 88q1 13 11 22t24 9h160l14 117q17 161 99 246q54 55 127.5 78.5t191.5 23.5q160 0 324 -47q22 -7 22 -25v-6l-18 -88q-7 -24 -27 -24 q-1 0 -3 1t-3 1q-11 2 -59 13t-103.5 18.5t-120.5 7.5q-124 0 -175 -41t-66 -162l-13 -113h576q27 0 27 -26v-5l-125 -1013q-2 -14 -11 -22.5t-22 -8.5h-129q-12 0 -19.5 7.5t-7.5 19.5v4l111 897h-418l-131 -1065q-20 -154 -113 -223.5t-252 -69.5q-33 0 -120 6 q-31 0 -31 27v4z" />
<glyph unicode="&#xfb02;" horiz-adv-x="1253" d="M-135 -393l10 78q4 32 33 32h10q4 0 27.5 -1t40.5 -1q103 0 149.5 30.5t57.5 125.5l129 1057h-160q-12 0 -19.5 6.5t-7.5 17.5v4l10 88q1 13 11 22t24 9h160l20 174q19 150 103 220.5t242 70.5q110 0 243 -31q23 -8 23 -24v-6l-25 -84q-6 -23 -28 -23h-5q-123 21 -184 21 q-84 0 -125.5 -28t-50.5 -105l-23 -185h420l49 406q3 25 31 28l137 31h7q20 0 20 -22v-7l-150 -1204q-12 -74 -12 -114q0 -31 21 -48q18 -18 61 -18q24 0 72 8q2 0 5 1t5 1q11 0 14 -18l7 -84v-2q0 -12 -7 -19.5t-12 -7.5q-58 -26 -160 -26q-103 0 -153 53q-45 48 -45 131 q0 45 14 145l78 619h-420l-131 -1065q-20 -154 -113 -223.5t-252 -69.5q-33 0 -120 6q-31 0 -31 27v4z" />
</font>
</defs>
</svg>
