<?xml version="1.0" standalone="no"?>
<!DOCTYPE svg PUBLIC "-//W3C//DTD SVG 1.1//EN" "http://www.w3.org/Graphics/SVG/1.1/DTD/svg11.dtd" >
<svg xmlns="http://www.w3.org/2000/svg">
<metadata></metadata>
<defs>
<font id="max-semiboldexpertregular" horiz-adv-x="1433" >
<font-face units-per-em="2048" ascent="1638" descent="-410" />
<missing-glyph horiz-adv-x="634" />
<glyph horiz-adv-x="0" />
<glyph horiz-adv-x="682" />
<glyph unicode=" "  horiz-adv-x="634" />
<glyph unicode="&#x09;" horiz-adv-x="634" />
<glyph unicode="&#xa0;" horiz-adv-x="634" />
<glyph unicode="!" horiz-adv-x="595" d="M186 -319v696q0 15 9.5 27t23.5 12h160q14 0 24.5 -11t10.5 -28v-696q0 -17 -10.5 -28t-24.5 -11h-160q-14 0 -23.5 13t-9.5 26zM186 647v696q0 15 9.5 27t23.5 12h160q14 0 24.5 -11t10.5 -28v-696q0 -17 -10.5 -28t-24.5 -11h-160q-14 0 -23.5 13t-9.5 26z" />
<glyph unicode="&#x22;" horiz-adv-x="1101" d="M143 1329q0 10 11 17l309 221q8 4 12 4q9 0 19 -10l73 -101q4 -4 4 -12q0 -11 -8 -16l-315 -215q-10 -5 -15 -5q-11 0 -16 11l-67 94q-7 7 -7 12zM530 1319q0 10 9 16l309 221q10 5 12 5q12 0 19 -11l75 -100q4 -8 4 -12q0 -10 -10 -17l-315 -215q-8 -4 -12 -4 q-14 0 -19 10l-67 95q-5 5 -5 12z" />
<glyph unicode="#" horiz-adv-x="1241" d="M145 477q0 8 15 23q56 43 131 79.5t147 36.5q62 0 183 -47q7 -3 27 -12t28 -12.5t24.5 -10t26 -9.5t23 -6.5t25.5 -5t24 -1.5q48 0 92.5 22.5t97.5 61.5q15 10 21 10q16 0 22 -16l60 -117q4 -12 4 -18q0 -8 -15 -23q-153 -117 -278 -117q-61 0 -182 47q-7 3 -31.5 14 t-32.5 14.5t-28 11t-31 10.5t-26.5 5.5t-29.5 2.5q-48 0 -92.5 -22.5t-97.5 -61.5q-15 -10 -21 -10q-15 0 -22 14l-59 119q-5 15 -5 18zM145 850q0 7 15 22q153 117 276 117q66 0 182 -47q7 -3 32.5 -14t33 -14t28 -11t31.5 -10.5t26.5 -5t29.5 -2.5q48 0 92.5 22.5 t97.5 61.5q15 10 21 10q16 0 22 -16l60 -119q4 -8 4 -17q0 -13 -17 -22q-53 -42 -128.5 -79.5t-147.5 -37.5q-66 0 -182 47q-11 5 -37.5 16t-39 16t-32.5 11.5t-37 9.5t-33 3q-80 0 -190 -82q-16 -11 -21 -11q-13 0 -24 15l-57 118q-5 10 -5 19z" />
<glyph unicode="$" horiz-adv-x="876" d="M121 -145q0 15 14 22l182 76v1567q0 14 7.5 24.5t17.5 11.5l326 93h10q17 0 24 -17l52 -127q2 -4 2 -10q0 -7 -5.5 -13.5t-11.5 -8.5l-180 -78v-1565q0 -32 -24 -39l-328 -90q-4 -2 -10 -2q-17 0 -23 18l-53 127v11z" />
<glyph unicode="%" horiz-adv-x="1241" d="M145 1092q0 12 15 22q153 117 276 117q75 0 182 -47q10 -4 46.5 -19t50.5 -20t39 -11t45 -6q83 0 190 84l10 5t11 4q14 0 22 -15l60 -119q4 -8 4 -18q0 -9 -17 -22q-155 -117 -276 -117q-70 0 -182 49q-8 3 -37 15.5t-39.5 16.5t-32 11t-38 9.5t-32.5 2.5 q-48 0 -92.5 -22.5t-97.5 -61.5q-15 -10 -21 -10q-14 0 -24 16l-57 119q-5 10 -5 17zM150 242v135q0 16 11 26.5t29 10.5h861q18 0 29.5 -11t11.5 -26v-135q0 -16 -13 -26.5t-28 -10.5h-861q-15 0 -27.5 10.5t-12.5 26.5zM150 618v136q0 16 11 26.5t29 10.5h861 q18 0 29.5 -11t11.5 -26v-136q0 -16 -13 -26t-28 -10h-861q-15 0 -27.5 10t-12.5 26z" />
<glyph unicode="&#x26;" horiz-adv-x="1241" d="M104 33v172q0 24 9 35l407 518l-407 516q-9 11 -9 37v170q0 13 10.5 22.5t24.5 9.5h961q13 0 23 -9t10 -21v-160q0 -13 -9.5 -23t-23.5 -10h-654l390 -508q6 -9 6 -26q0 -14 -6 -23l-396 -512h664q14 0 23.5 -9t9.5 -22v-157q0 -13 -9.5 -23t-23.5 -10h-963q-15 0 -26 10 t-11 23z" />
<glyph unicode="'" d="M270 809l441 442l442 -442l-442 -440zM502 809l104 -104l211 210l105 -106l-211 -209l106 -104l313 313l-419 420l-105 -105l105 -104z" />
<glyph unicode="(" d="M270 809l441 442l442 -442l-442 -440zM502 809l104 -104l211 210l105 -106l-211 -209l106 -104l313 313l-419 420l-105 -105l105 -104z" />
<glyph unicode=")" d="M270 809l441 442l442 -442l-442 -440zM502 809l104 -104l211 210l105 -106l-211 -209l106 -104l313 313l-419 420l-105 -105l105 -104z" />
<glyph unicode="*" d="M270 809l441 442l442 -442l-442 -440zM502 809l104 -104l211 210l105 -106l-211 -209l106 -104l313 313l-419 420l-105 -105l105 -104z" />
<glyph unicode="+" d="M270 809l441 442l442 -442l-442 -440zM502 809l104 -104l211 210l105 -106l-211 -209l106 -104l313 313l-419 420l-105 -105l105 -104z" />
<glyph unicode="," horiz-adv-x="854" d="M158 1401q0 118 66.5 168.5t203.5 50.5q135 0 201.5 -50.5t66.5 -168.5q0 -119 -66.5 -170t-201.5 -51q-137 0 -203.5 51t-66.5 170zM330 1399q0 -70 20 -99.5t78 -29.5q57 0 77.5 30.5t20.5 100.5q0 71 -20 100t-78 29t-78 -30t-20 -101z" />
<glyph unicode="-" horiz-adv-x="1241" d="M182 573v138q0 14 11.5 23t29.5 9h795q17 0 29 -9.5t12 -22.5v-138q0 -14 -13.5 -23t-29.5 -9h-793q-14 0 -27.5 9t-13.5 23z" />
<glyph unicode="." horiz-adv-x="628" d="M150 1278v166q0 15 11 25t29 10h248q18 0 29.5 -10t11.5 -25v-166q0 -14 -11.5 -23.5t-29.5 -9.5h-248q-18 0 -29 9.5t-11 23.5z" />
<glyph unicode="/" horiz-adv-x="337" d="M-381 90q0 8 2 10l950 1409q6 9 15 9q5 0 10 -5l117 -77q8 -5 8 -17q0 -8 -2 -10l-952 -1411q-3 -6 -15 -6q-6 0 -10 2l-117 80q-6 6 -6 16z" />
<glyph unicode="0" horiz-adv-x="1085" d="M113 1053q0 59 3.5 105t14.5 98.5t30 92t51.5 77t77 61.5t109 38.5t144.5 14.5t144.5 -14.5t109 -38.5t77 -61.5t51.5 -77t30 -92t14.5 -98.5t3.5 -105t-3.5 -105t-14.5 -98.5t-30 -92t-51.5 -77.5t-77 -62t-109 -38.5t-144.5 -14.5t-144.5 14.5t-109 38.5t-77 62 t-51.5 77.5t-30 92t-14.5 98.5t-3.5 105zM326 1053q0 -69 4 -115.5t17 -91.5t36.5 -70.5t63 -41t96.5 -15.5q56 0 95.5 15.5t63.5 41.5t37.5 70.5t18 91.5t4.5 115t-4.5 115.5t-18 91.5t-37.5 70t-63.5 41t-95.5 15q-57 0 -96.5 -15.5t-63 -41t-36.5 -70t-17 -91t-4 -115.5z " />
<glyph unicode="1" horiz-adv-x="628" d="M41 1382v88q0 28 29 31l323 39h4q12 0 20.5 -10.5t8.5 -24.5v-889q0 -15 -9 -24.5t-24 -9.5h-131q-15 0 -24 9.5t-9 24.5v727l-157 11q-16 2 -23.5 7t-7.5 21z" />
<glyph unicode="2" horiz-adv-x="964" d="M113 1448v8q0 26 24 33q47 18 140 34.5t204 16.5q185 0 277 -66.5t92 -220.5q0 -58 -22.5 -109.5t-64.5 -93.5t-84.5 -72.5t-98.5 -62.5l-230 -124v-43l479 6h2q13 0 23 -8.5t10 -24.5v-107q0 -14 -9 -23t-26 -9h-649q-37 0 -37 30v168q0 71 54 111q17 13 78.5 51 t114.5 70l52 32q11 7 45 28t48 30.5t39 29.5t35.5 35.5t20 38t9.5 47.5q0 77 -46.5 104t-141.5 27q-97 0 -281 -45q-1 0 -4 -1t-4 -1q-11 0 -20.5 8.5t-10.5 18.5z" />
<glyph unicode="3" horiz-adv-x="968" d="M111 1458q0 20 26 29q47 18 144.5 35.5t201.5 17.5q166 0 260.5 -62t94.5 -190q0 -159 -183 -201v-40q100 -16 151.5 -65.5t51.5 -143.5q0 -61 -21.5 -108.5t-57 -77.5t-85 -49.5t-102 -27.5t-111.5 -8q-89 0 -179 12t-122 23q-24 7 -24 29v6l14 90q3 23 27 23q8 0 14 -2 q107 -25 235 -25q44 0 77.5 6t62.5 19.5t44 40.5t15 65q0 66 -40.5 91t-119.5 36q-96 11 -106 12q-33 7 -33 31v80q0 12 6.5 19t12 8.5t10.5 1.5q23 4 104 14q77 12 113.5 37t36.5 82q0 67 -45.5 92.5t-137.5 25.5q-37 0 -78.5 -5.5t-63.5 -9.5t-71 -16t-59 -14 q-6 -2 -14 -2q-22 0 -29 25l-18 86q0 2 -1 5t-1 5z" />
<glyph unicode="4" horiz-adv-x="1089" d="M113 829v107q0 24 12 43l389 526q14 19 33 19h252q16 0 25.5 -9t9.5 -26v-539h108q35 0 35 -32v-93q0 -14 -9 -23t-26 -9h-104v-175q0 -17 -10 -26.5t-25 -9.5h-125q-15 0 -25 9.5t-10 26.5v175h-498q-32 0 -32 36zM305 950h340v428h-29z" />
<glyph unicode="5" horiz-adv-x="944" d="M113 995v2l32 512q2 5 7.5 10t11.5 5h604q9 0 14.5 -6.5t5.5 -14.5v-112q0 -8 -5.5 -14.5t-14.5 -6.5h-434l-17 -233q86 28 170 28q156 0 251.5 -73t95.5 -224q0 -81 -31 -141t-86.5 -94.5t-124.5 -51t-152 -16.5q-106 0 -196 12t-113 21q-10 5 -10 14v6l14 113 q4 12 15 12h4q132 -20 268 -20q199 0 199 143q0 62 -44 102t-139 40q-38 0 -88 -5.5t-85.5 -11.5t-73.5 -13t-39 -7q0 -2 -5 -2q-14 0 -24 10t-10 16z" />
<glyph unicode="6" horiz-adv-x="1017" d="M113 1051v8q0 79 7 139t25 116.5t51 96t82 70t120.5 45t164.5 14.5q70 0 136 -7t97 -15l31 -7q5 0 9 -4t4 -8v-2l-15 -129q-3 -10 -14 -10h-2q-137 26 -219 26q-146 0 -206.5 -50t-64.5 -193q1 0 15 5.5t26.5 9.5t36 10.5t46 11t52.5 7.5t60 3q350 0 350 -307 q0 -84 -30 -146.5t-84.5 -98.5t-123.5 -53.5t-155 -17.5q-121 0 -199.5 29t-122 93t-60 149t-17.5 215zM324 958q0 -132 43 -185.5t147 -53.5q93 0 136.5 38.5t43.5 121.5q0 157 -178 157q-96 0 -192 -35v-43z" />
<glyph unicode="7" horiz-adv-x="897" d="M41 1391v112q0 8 6.5 14.5t15.5 6.5h738q9 0 15.5 -6.5t6.5 -14.5v-123q0 -17 -8 -28q-78 -90 -137.5 -169.5t-100 -143.5t-78.5 -143t-62.5 -139.5t-61.5 -160.5q-7 -14 -25 -14h-168q-24 0 -24 18l2 4q156 444 450 766h-547q-9 0 -15.5 6t-6.5 15z" />
<glyph unicode="8" horiz-adv-x="1054" d="M113 840q0 53 22.5 94.5t58.5 65t74 35.5t76 14v34q-2 0 -19.5 2.5t-34 6.5t-40.5 12t-43.5 23t-37.5 35.5t-28 52t-10 71.5q0 48 15.5 87.5t44 67t65 47t82.5 31t93 16.5t99 5q80 0 147 -12t125.5 -39.5t92 -79t33.5 -123.5q0 -31 -6 -57.5t-18 -45.5t-25.5 -34.5 t-31.5 -25.5t-32.5 -17t-33 -11.5t-29 -6.5t-24.5 -4l-13 -1v-36q38 -2 76 -14.5t73 -36t56.5 -65t21.5 -93.5q0 -138 -101 -205.5t-311 -67.5q-212 0 -314.5 68.5t-102.5 206.5zM324 854q0 -72 50.5 -103.5t153.5 -31.5t153 31.5t50 103.5q0 39 -17.5 67t-48.5 42.5t-65 21 t-74 6.5t-73.5 -6.5t-63.5 -21t-47.5 -42.5t-17.5 -67zM336 1266q0 -67 54.5 -95t135.5 -28q83 0 138 28t55 95q0 65 -47 92.5t-144 27.5q-98 0 -145 -27.5t-47 -92.5z" />
<glyph unicode="9" horiz-adv-x="1017" d="M113 1225q0 85 30 147t84.5 98t123.5 53t155 17q121 0 199.5 -28.5t122 -92t60 -148t17.5 -214.5v-10q0 -94 -10 -163t-39 -132.5t-78.5 -102t-129.5 -61.5t-191 -23q-70 0 -137 7.5t-98 15.5l-32 8q-4 0 -8 4t-4 8v2l15 129q4 11 14 11h2q11 -2 34 -6.5t32 -6t27.5 -4.5 t30 -4.5t28 -3t32.5 -2t35 -0.5q147 0 206.5 50t63.5 194q-110 -49 -235 -49q-350 0 -350 307zM324 1229q0 -158 178 -158q105 0 192 33v20q0 4 1 12t1 11q0 132 -44 187t-148 55q-91 0 -135.5 -38.5t-44.5 -121.5z" />
<glyph unicode=":" horiz-adv-x="1030" d="M147 1493q0 35 29 35h105q12 0 18 -6.5t7 -11.5t3 -17q2 -88 45.5 -125t161.5 -37q117 0 160.5 37t46.5 125q0 35 27 35h104q29 0 29 -35q0 -162 -92 -228.5t-275 -66.5t-276 67t-93 228z" />
<glyph unicode=";" horiz-adv-x="995" d="M154 1442q0 4 4 12l82 102q11 11 18 11q8 0 14 -6l226 -175l225 175q6 6 12 6q12 0 19 -11l84 -102q4 -8 4 -12q0 -9 -8 -17l-302 -211h-69l-301 211q-8 5 -8 17z" />
<glyph unicode="&#x3c;" horiz-adv-x="1241" d="M121 676v137q0 23 20 33l871 379q6 4 16 4q17 0 23 -15l65 -139q4 -8 4 -12q0 -17 -16 -25l-733 -290l733 -273q16 -8 16 -24q0 -5 -4 -13l-65 -139q-6 -14 -23 -14q-10 0 -16 4l-871 358q-9 3 -14.5 12t-5.5 17zM133 33v137q0 14 11.5 23.5t29.5 9.5h903q17 0 29 -9.5 t12 -23.5v-137q0 -14 -13.5 -23.5t-29.5 -9.5h-901q-15 0 -28 9.5t-13 23.5z" />
<glyph unicode="=" horiz-adv-x="1241" d="M150 422v135q0 17 12 27t28 10h861q16 0 28.5 -10.5t12.5 -26.5v-135q0 -15 -11.5 -26t-29.5 -11h-516l-181 -281q-7 -10 -18 -10q-6 0 -8 2l-86 54q-6 6 -6 14t2 10l135 211h-183q-18 0 -29 10.5t-11 26.5zM150 735v135q0 16 11 26.5t29 10.5h504l180 281q7 10 19 10 q6 0 10 -2l84 -53q8 -3 8 -15q0 -6 -4 -10l-135 -211h195q18 0 29.5 -11t11.5 -26v-135q0 -16 -13.5 -26.5t-27.5 -10.5h-861q-15 0 -27.5 10.5t-12.5 26.5z" />
<glyph unicode="&#x3e;" horiz-adv-x="1241" d="M121 451q0 16 16 24l733 273l-733 290q-16 8 -16 25q0 8 2 12l65 139q9 15 25 15q10 0 16 -4l869 -379q20 -10 20 -33v-137q0 -23 -18 -29l-871 -358q-6 -4 -16 -4q-17 0 -25 14l-65 139q-2 4 -2 13zM123 33v137q0 14 12 23.5t29 9.5h903q18 0 29.5 -9.5t11.5 -23.5v-137 q0 -14 -13 -23.5t-28 -9.5h-901q-16 0 -29.5 9.5t-13.5 23.5z" />
<glyph unicode="?" horiz-adv-x="1187" d="M84 520q0 52 3 96t14 102.5t30 105t53.5 94t81.5 79.5t118 52t159 20q159 0 274 -90q0 1 1 4t1 4q-14 108 -56 192t-103 138.5t-143 89t-170 49t-191 14.5q-47 0 -47 39v119q0 41 38 41h62q194 0 344.5 -48t254 -136.5t170 -220.5t96.5 -293t30 -361v-10q0 -73 -1.5 -116 t-11.5 -117.5t-28 -121t-55.5 -104t-90 -90t-134.5 -55.5t-187 -23q-121 0 -212.5 29.5t-147.5 78.5t-91 121.5t-48 148.5t-13 169zM365 520q0 -72 4.5 -120.5t18 -96.5t38.5 -76.5t67.5 -45.5t102.5 -17q50 0 87.5 11t62.5 34.5t40.5 51.5t23.5 72t10.5 85.5t2.5 101.5 q0 73 -4 121t-17 97t-37.5 77.5t-66.5 46t-102 17.5t-102.5 -17.5t-67.5 -46t-38.5 -77t-18 -97.5t-4.5 -121z" />
<glyph unicode="@" d="M270 809l441 442l442 -442l-442 -440zM502 809l104 -104l211 210l105 -106l-211 -209l106 -104l313 313l-419 420l-105 -105l105 -104z" />
<glyph unicode="A" horiz-adv-x="1085" d="M113 471q0 59 3.5 105t14.5 98.5t30 92t51.5 77t77 61.5t109 38.5t144.5 14.5t144.5 -14.5t109 -38.5t77 -61.5t51.5 -77t30 -92t14.5 -98.5t3.5 -105t-3.5 -105t-14.5 -98.5t-30 -92t-51.5 -77t-77 -61.5t-109 -38.5t-144.5 -14.5t-144.5 14.5t-109 38.5t-77 61.5 t-51.5 77t-30 92t-14.5 98.5t-3.5 105zM326 471q0 -69 4 -115.5t17 -91.5t36.5 -70.5t63 -41t96.5 -15.5q56 0 95.5 15.5t63.5 41.5t37.5 70t18 91.5t4.5 115.5t-4.5 115.5t-18 91.5t-37.5 70t-63.5 41.5t-95.5 15.5q-57 0 -96.5 -15.5t-63 -41t-36.5 -70.5t-17 -91.5 t-4 -115.5z" />
<glyph unicode="B" horiz-adv-x="628" d="M41 799v90q0 26 29 29l323 40h4q12 0 20.5 -10t8.5 -24v-889q0 -35 -33 -35h-131q-33 0 -33 35v727l-157 10q-31 0 -31 27z" />
<glyph unicode="C" horiz-adv-x="964" d="M113 864v8q0 28 24 35q150 51 344 51q185 0 277 -66t92 -220q0 -58 -22.5 -109.5t-64.5 -93.5t-84.5 -72.5t-98.5 -62.5l-230 -127v-41l479 6h2q13 0 23 -8.5t10 -24.5v-106q0 -14 -9 -23.5t-26 -9.5h-649q-17 0 -27 8.5t-10 22.5v168q0 66 54 110q17 13 78.5 51.5 t114.5 70.5l52 32q12 8 45.5 28.5t47.5 30t39 29t35.5 35t20 38t9.5 46.5q0 78 -46 104.5t-142 26.5q-105 0 -281 -43q-2 -2 -8 -2q-11 0 -20.5 8t-10.5 18z" />
<glyph unicode="D" horiz-adv-x="968" d="M111 877q0 16 26 28q47 18 144.5 35.5t201.5 17.5q166 0 260.5 -61.5t94.5 -189.5q0 -159 -183 -201v-41q101 -18 152 -67.5t51 -141.5q0 -61 -21.5 -109t-57 -78t-85 -49.5t-102 -27.5t-111.5 -8q-89 0 -179 11.5t-122 22.5q-24 10 -24 31v6l14 90q3 23 27 23 q2 0 6.5 -1t7.5 -1q107 -25 235 -25q93 0 146 28.5t53 100.5q0 36 -12 60.5t-37 37.5t-49 19t-62 10q-60 10 -106 15q-10 0 -21.5 7.5t-11.5 20.5v82q0 6 2 10.5t4.5 7.5t6 5t6 3t6 2t4.5 1q16 3 51.5 7t52.5 7q78 12 114 36.5t36 82.5q0 67 -45.5 92t-137.5 25 q-19 0 -39 -1.5t-35.5 -2.5t-37 -5t-33 -6t-34.5 -7t-30.5 -7t-32.5 -8.5t-30 -7.5h-14q-23 0 -29 22l-18 88q0 2 -1 5.5t-1 5.5z" />
<glyph unicode="E" horiz-adv-x="1089" d="M113 248v106q0 24 12 41l389 529q14 18 33 18h252q15 0 25 -10t10 -25v-538h108q17 0 26 -9.5t9 -23.5v-92q0 -33 -35 -33h-104v-176q0 -15 -10 -25t-25 -10h-125q-15 0 -25 10t-10 25v176h-498q-32 0 -32 37zM305 369h340v428h-29z" />
<glyph unicode="F" horiz-adv-x="944" d="M113 414l32 514q5 14 19 14h604q9 0 14.5 -6t5.5 -14v-113q0 -21 -20 -21h-434l-17 -233q86 29 170 29q156 0 251.5 -73t95.5 -224q0 -82 -31 -142t-86.5 -94.5t-124.5 -50.5t-152 -16q-107 0 -197 11.5t-112 20.5q-10 5 -10 15v4l14 115q4 12 15 12h4q116 -21 268 -21 q199 0 199 144q0 61 -44 101t-139 40q-124 0 -286 -39h-5q-14 0 -24 10q-10 5 -10 17z" />
<glyph unicode="G" horiz-adv-x="1017" d="M113 469v8q0 67 5 119.5t18 103.5t34.5 89.5t56 71.5t81.5 53.5t111 32t144 11.5q70 0 136 -7.5t97 -14.5l31 -8q5 0 9 -4t4 -9l-15 -131q-4 -8 -14 -8h-2q-7 1 -29 5.5t-28.5 5.5t-24.5 4.5t-26.5 4.5t-24 3t-27.5 2.5t-27.5 1t-31.5 0.5q-146 0 -206.5 -50.5 t-64.5 -195.5q110 49 236 49q350 0 350 -307q0 -84 -30 -146t-84.5 -98.5t-123.5 -53.5t-155 -17q-121 0 -199.5 28.5t-122 92.5t-60 149t-17.5 215zM324 377q0 -133 43 -186.5t147 -53.5q93 0 136.5 37.5t43.5 120.5q0 158 -178 158q-101 0 -192 -33v-43z" />
<glyph unicode="H" horiz-adv-x="897" d="M41 807v115q0 8 6.5 14t15.5 6h738q9 0 15.5 -6t6.5 -14v-123q0 -18 -8 -29q-97 -112 -164 -203.5t-117 -185.5t-81 -168t-78 -199q-7 -14 -25 -14h-168q-24 0 -24 16q0 1 1 3.5t1 3.5q154 439 450 763h-547q-9 0 -15.5 6.5t-6.5 14.5z" />
<glyph unicode="I" horiz-adv-x="1054" d="M113 258q0 53 22.5 94.5t58.5 64.5t73.5 35.5t76.5 14.5v35q-2 0 -19.5 2.5t-34 6.5t-40.5 12t-43.5 22.5t-37.5 34.5t-28 51.5t-10 70.5q0 72 33.5 124t92.5 79t126 39t147 12q63 0 118 -7t107.5 -25t90 -46t60 -73t22.5 -103q0 -31 -6 -57t-18 -44.5t-25.5 -33.5 t-31.5 -25t-32.5 -17t-33 -11.5t-29 -6.5t-23.5 -3.5t-14 -1.5v-37q38 -2 76 -14.5t73 -36t56.5 -65t21.5 -93.5q0 -138 -101 -205t-311 -67q-212 0 -314.5 67.5t-102.5 206.5zM324 272q0 -73 50.5 -104t153.5 -31t153 31t50 104q0 39 -17.5 67t-48.5 42.5t-65 20.5t-74 6 t-73.5 -6t-64 -20.5t-47.5 -42.5t-17 -67zM336 684q0 -67 54.5 -95t135.5 -28q83 0 138 28t55 95q0 65 -47 93t-144 28t-144.5 -28t-47.5 -93z" />
<glyph unicode="J" horiz-adv-x="1017" d="M113 643q0 84 30 146t84.5 98.5t123.5 53.5t155 17q121 0 199.5 -28.5t122 -92.5t60 -149t17.5 -215v-8q0 -94 -10 -163t-39 -132t-78.5 -102t-129.5 -61.5t-191 -22.5q-70 0 -137 7.5t-98 14.5l-32 8q-4 0 -8 4t-4 9l15 131q3 10 14 10q2 0 2 -2q11 -2 34 -6.5t32 -6 t27.5 -4.5t30 -4.5t28 -3t32.5 -2t35 -0.5q147 0 206.5 50.5t63.5 195.5q-110 -49 -235 -49q-350 0 -350 307zM324 647q0 -158 178 -158q105 0 192 33v21q0 4 1 11t1 11q0 132 -44 186t-148 54q-92 0 -136 -38t-44 -120z" />
<glyph unicode="K" horiz-adv-x="1665" d="M35 676q0 182 97.5 273t264.5 91q71 0 129.5 -16.5t110.5 -52.5t89.5 -70.5t93.5 -92.5q9 -10 14 -15q106 109 147 143q116 94 255 103q16 1 34 1q167 0 263.5 -91t96.5 -273q0 -181 -97 -273t-263 -92q-57 0 -107.5 12t-87.5 30t-78.5 51t-70 61t-72.5 73q-13 14 -20 21 q-106 -109 -147 -143q-117 -95 -256 -104q-16 -1 -34 -1q-166 0 -264 92t-98 273zM248 676q0 -86 44.5 -128t121.5 -42q45 0 116 40t109.5 70.5t71.5 59.5l-15 12q-15 13 -24.5 20.5t-29.5 23.5t-36 26.5t-37.5 25t-40.5 24.5t-39.5 19.5t-39.5 14t-35 4.5 q-77 0 -121.5 -42.5t-44.5 -127.5zM956 676q193 -170 297 -170q76 0 121 42t45 128q0 84 -45.5 127t-120.5 43q-16 0 -35.5 -4.5t-39.5 -14t-39.5 -19.5t-40.5 -24t-37.5 -25.5t-35.5 -26.5t-29.5 -23.5t-24 -20t-15.5 -12.5z" />
<glyph unicode="L" horiz-adv-x="1290" d="M14 752v6q0 18 21 26l205 62v635q0 25 28 28l236 31h4q11 0 17.5 -9t6.5 -20v-575l410 125q2 0 6 1t6 1q19 0 25 -14l39 -136q0 -1 1 -3t1 -3q0 -18 -23 -26l-465 -142v-508h691q13 0 22.5 -9.5t9.5 -22.5v-166q0 -14 -9.5 -23.5t-22.5 -9.5h-951q-14 0 -23 9t-9 22v620 l-150 -47h-12q-20 0 -23 14z" />
<glyph unicode="M" horiz-adv-x="1366" d="M12 1323v160q0 12 10 21t23 9h1276q15 0 24 -9t9 -21v-160q0 -13 -9 -22t-24 -9h-166v-1261q0 -13 -10 -22t-25 -9h-227q-14 0 -23.5 9t-9.5 22v1261h-352v-1261q0 -13 -10.5 -22t-24.5 -9h-227q-14 0 -23.5 9t-9.5 22v1261h-168q-13 0 -23 9.5t-10 21.5z" />
<glyph unicode="N" horiz-adv-x="1691" d="M29 756q0 14 8 22l784 727q8 8 25 8q18 0 24 -6l785 -727q8 -8 8 -24q0 -17 -6 -23l-785 -727q-8 -8 -28 -8q-17 0 -23 6l-784 729q-8 3 -8 23zM324 760l526 -500l522 496l-526 497z" />
<glyph unicode="O" horiz-adv-x="1513" d="M106 846q0 82 6.5 150.5t25.5 141.5t49 130.5t80.5 109.5t117.5 86.5t161.5 55t211.5 20.5q116 0 210.5 -20.5t161 -55t116.5 -86.5t80.5 -109.5t49 -130.5t25 -141.5t6.5 -150.5q0 -90 -18.5 -173t-57.5 -160.5t-107 -139.5t-159 -97v-45l309 -57q18 -4 21 -20v-129 q0 -10 -8 -17.5t-19 -7.5h-473q-11 0 -20 8.5t-9 18.5v331q240 128 240 476q0 101 -8 173.5t-30 137.5t-60.5 104t-100.5 61.5t-149 22.5t-149.5 -22.5t-101 -61.5t-61 -104t-30.5 -137.5t-8 -173.5q0 -348 239 -476v-331q0 -10 -9 -18.5t-20 -8.5h-473q-11 0 -18.5 7.5 t-7.5 17.5l2 129q0 16 18 20l310 57v45q-73 29 -132 75t-98 101.5t-65 122t-37 133.5t-11 138z" />
<glyph unicode="P" horiz-adv-x="1474" d="M188 31v1450q0 25 31 28l234 31h4q11 0 18.5 -9t7.5 -20v-284h445q261 0 375 -117q108 -108 108 -344q0 -239 -113 -352q-71 -71 -182.5 -96t-261.5 -25h-18l-353 2v-264q0 -14 -9.5 -22.5t-24.5 -8.5h-228q-14 0 -23.5 9t-9.5 22zM483 485l279 11q118 4 183 16t104 49 q59 56 59 203q0 132 -57 192q-37 36 -97 48t-155 12h-316v-531z" />
<glyph unicode="Q" d="M270 809l441 442l442 -442l-442 -440zM502 809l104 -104l211 210l105 -106l-211 -209l106 -104l313 313l-419 420l-105 -105l105 -104z" />
<glyph unicode="R" d="M270 809l441 442l442 -442l-442 -440zM502 809l104 -104l211 210l105 -106l-211 -209l106 -104l313 313l-419 420l-105 -105l105 -104z" />
<glyph unicode="S" horiz-adv-x="1402" d="M127 1083q0 104 31 184t83 130.5t128 82t158 44t182 12.5q220 0 483 -70q37 -9 37 -43v-10l-29 -133q-2 -11 -11.5 -20t-21.5 -9q-1 0 -3 1t-3 1q-6 1 -79 17t-109.5 22.5t-107.5 14.5t-134 8q-64 0 -114 -7.5t-97.5 -28t-73.5 -62t-26 -103.5q0 -28 7 -51.5t16 -41.5 t29 -34t35 -26.5t45 -20.5t48.5 -15.5t56.5 -12.5t56.5 -10t60.5 -9q4 -1 13 -2q68 -10 103.5 -16.5t97.5 -23t96 -35.5t78.5 -53t67.5 -76.5t39.5 -105.5t16.5 -141q0 -104 -33 -185.5t-88.5 -132.5t-133.5 -84.5t-161.5 -47t-179.5 -13.5q-276 0 -516 74q-31 12 -31 43v10 l27 136q5 26 35 26q8 0 14 -2q4 -1 59.5 -13.5t108.5 -23.5t133 -20.5t148 -9.5q317 0 317 223q0 32 -6 57.5t-20.5 45.5t-29 35t-42 26.5t-48.5 19.5t-58.5 15t-63 11t-70.5 11q-9 1 -14 2q-57 9 -98 16.5t-98 24t-97 37t-83 54t-69.5 75t-43.5 101.5t-17 132zM391 1878 q0 4 4 12l82 103q8 8 19 8q10 0 14 -4l225 -176l226 176q4 4 12 4q13 0 18 -8l84 -103q4 -8 4 -12q0 -8 -8 -16l-301 -211h-70l-301 211q-8 5 -8 16z" />
<glyph unicode="T" horiz-adv-x="1685" d="M16 700v134q0 13 10 21.5t23 8.5h178v619q0 12 10 21t23 9h612q192 0 321.5 -38.5t215 -128t123 -232.5t37.5 -356q0 -214 -37.5 -357t-123 -233.5t-215 -129t-321.5 -38.5h-612q-14 0 -23.5 10t-9.5 23v635h-178q-14 0 -23.5 9.5t-9.5 22.5zM520 213h320q98 0 163.5 13 t119 47t83.5 96.5t46 157.5t16 233q0 115 -10 199.5t-33 145t-55 99t-83 60.5t-108.5 30.5t-138.5 8.5h-320v-439h432q12 0 23.5 -8.5t11.5 -21.5v-134q0 -12 -10 -22t-25 -10h-432v-455z" />
<glyph unicode="U" d="M270 809l441 442l442 -442l-442 -440zM502 809l104 -104l211 210l105 -106l-211 -209l106 -104l313 313l-419 420l-105 -105l105 -104z" />
<glyph unicode="V" horiz-adv-x="1601" d="M35 1042q0 14 9 24t24 11l202 25h6q29 0 35 -33l228 -893h57l305 1307q3 13 14 21.5t23 8.5h637q14 0 23.5 -9.5t9.5 -22.5v-160q0 -13 -10 -23t-23 -10h-442l-347 -1255q-3 -14 -13.5 -23.5t-24.5 -9.5h-369q-30 0 -41 33l-301 995q-2 6 -2 14z" />
<glyph unicode="W" d="M270 809l441 442l442 -442l-442 -440zM502 809l104 -104l211 210l105 -106l-211 -209l106 -104l313 313l-419 420l-105 -105l105 -104z" />
<glyph unicode="X" d="M270 809l441 442l442 -442l-442 -440zM502 809l104 -104l211 210l105 -106l-211 -209l106 -104l313 313l-419 420l-105 -105l105 -104z" />
<glyph unicode="Y" horiz-adv-x="1427" d="M-8 1481q0 11 10 21.5t18 10.5h269q16 0 25 -6t20 -22l393 -662l381 662q9 17 17.5 22.5t23.5 5.5h260q12 0 19.5 -9.5t7.5 -20.5q0 -3 -1 -8l-1 -5l-568 -884v-555q0 -13 -10 -22t-25 -9h-227q-14 0 -23.5 9t-9.5 22v553l-575 884q-4 8 -4 13zM489 1761q0 11 9 17 l309 221q8 4 12 4q14 0 19 -10l88 -115q4 -8 4 -12q0 -12 -8 -17l-316 -211q-6 -6 -14 -6q-9 0 -19 10l-79 107q-5 5 -5 12z" />
<glyph unicode="Z" horiz-adv-x="1382" d="M86 1323v160q0 12 10 21t23 9h1122q14 0 23.5 -9.5t9.5 -22.5v-160q0 -25 -17 -45l-808 -1053h815q14 0 23 -8.5t9 -21.5v-160q0 -14 -9.5 -23.5t-22.5 -9.5h-1137q-13 0 -23 9.5t-10 21.5v147q0 10 1 17.5t4 14t4.5 9t7 9t6.5 8.5l798 1056h-796q-14 0 -23.5 9t-9.5 22z M340 1878q0 4 4 12l84 103q5 8 18 8q9 0 13 -4l225 -176l225 176q4 4 15 4q10 0 18 -8l82 -103q4 -8 4 -12q0 -11 -8 -16l-299 -211h-72l-301 211q-8 8 -8 16z" />
<glyph unicode="[" d="M270 809l441 442l442 -442l-442 -440zM502 809l104 -104l211 210l105 -106l-211 -209l106 -104l313 313l-419 420l-105 -105l105 -104z" />
<glyph unicode="\" d="M270 809l441 442l442 -442l-442 -440zM502 809l104 -104l211 210l105 -106l-211 -209l106 -104l313 313l-419 420l-105 -105l105 -104z" />
<glyph unicode="]" d="M270 809l441 442l442 -442l-442 -440zM502 809l104 -104l211 210l105 -106l-211 -209l106 -104l313 313l-419 420l-105 -105l105 -104z" />
<glyph unicode="^" d="M270 809l441 442l442 -442l-442 -440zM502 809l104 -104l211 210l105 -106l-211 -209l106 -104l313 313l-419 420l-105 -105l105 -104z" />
<glyph unicode="_" horiz-adv-x="995" d="M154 1339q0 12 8 17l301 211h69l302 -211q8 -8 8 -17q0 -4 -4 -12l-84 -104q-7 -11 -19 -11q-2 0 -12 5l-225 176l-226 -176q-10 -5 -14 -5q-7 0 -18 11l-82 104q-4 8 -4 12z" />
<glyph unicode="`" horiz-adv-x="761" d="M147 -229q0 163 222 342l104 -68q-149 -142 -149 -254q0 -47 27.5 -68.5t99.5 -21.5q32 0 71 9t45 9q9 0 11 -2h2q18 0 22 -18l12 -74v-4q0 -14 -20 -18q-95 -23 -195 -23q-252 0 -252 191z" />
<glyph unicode="a" horiz-adv-x="2158" d="M147 1382v88q0 28 29 31l322 39h4q12 0 21 -10.5t9 -24.5v-889q0 -34 -32 -34h-131q-33 0 -33 34v727l-158 11q-16 2 -23.5 7t-7.5 21zM406 90q0 8 2 10l950 1409q3 9 14 9q5 0 10 -5l117 -77q8 -5 8 -17q0 -6 -4 -10l-950 -1411q-3 -6 -14 -6q-9 0 -11 2l-116 80 q-6 4 -6 16zM1124 248v106q0 23 15 43l387 529q14 18 33 18h253q33 0 33 -35v-538h109q17 0 27 -10t10 -25v-92q0 -14 -10 -23.5t-27 -9.5h-105v-176q0 -17 -9 -26t-23 -9h-127q-14 0 -23.5 9t-9.5 26v176h-500q-15 0 -24 11t-9 26zM1317 369h340v430h-29z" />
<glyph unicode="b" horiz-adv-x="2217" d="M147 1382v88q0 28 29 31l322 39h4q12 0 21 -10.5t9 -24.5v-889q0 -34 -32 -34h-131q-33 0 -33 34v727l-158 11q-16 2 -23.5 7t-7.5 21zM406 90q0 8 2 10l950 1409q3 9 14 9q5 0 10 -5l117 -77q8 -5 8 -17q0 -6 -4 -10l-950 -1411q-3 -6 -14 -6q-9 0 -11 2l-116 80 q-6 4 -6 16zM1278 866v8q0 11 7.5 20.5t17.5 12.5q150 51 344 51q185 0 277.5 -66t92.5 -220q0 -58 -22.5 -109t-65.5 -93.5t-84.5 -72.5t-99.5 -63l-242 -137v-31l494 6q13 0 23 -8.5t10 -24.5v-106q0 -33 -33 -33h-651q-15 0 -26 9t-11 22v168q0 69 55 110q17 13 78 51.5 t114 70.5l52 32q10 6 39.5 24t41.5 26t35 24.5t33.5 28.5t23.5 29.5t18 36.5t5 40q0 77 -46.5 104t-141.5 27q-97 0 -281 -45q-2 -2 -8 -2q-10 0 -19 7.5t-12 18.5z" />
<glyph unicode="c" horiz-adv-x="2404" d="M125 1458q0 20 27 29q47 18 144.5 35.5t201.5 17.5q166 0 260 -61.5t94 -190.5q0 -169 -197 -205v-32q109 -14 163 -65t54 -148q0 -75 -31.5 -130t-87 -84.5t-119 -43t-138.5 -13.5q-89 0 -179 12t-122 23q-25 7 -25 29v6l14 90q3 23 27 23q8 0 14 -2q107 -25 236 -25 q60 0 101 10t69 40t28 81q0 66 -40 91t-119 36q-88 10 -107 12q-33 7 -33 31v80q0 12 6.5 19t12 8.5t10.5 1.5q18 3 105 14q76 12 112.5 37t36.5 82q0 67 -45.5 92.5t-136.5 25.5q-37 0 -78.5 -5.5t-63.5 -9.5t-72.5 -16t-58.5 -14q-6 -2 -14 -2q-22 0 -29 25l-18 86 q0 2 -1 5t-1 5zM649 90q0 2 1 5.5t1 4.5l953 1409q3 9 14 9l10 -5l117 -77q8 -8 8 -17q0 -6 -4 -10l-950 -1411q-6 -6 -15 -6q-8 0 -10 2l-117 80q-8 5 -8 16zM1372 248v106q0 24 12 43l390 529q3 6 13 12t17 6h254q16 0 25.5 -9t9.5 -26v-538h109q16 0 25 -9.5t9 -23.5v-94 q0 -14 -9 -23.5t-25 -9.5h-107v-176q0 -35 -33 -35h-125q-34 0 -34 35v176h-500q-13 0 -22 11t-9 26zM1565 369h340v430h-29z" />
<glyph unicode="d" horiz-adv-x="1476" d="M33 37q0 3 1 9t1 9l500 1432q4 10 17 18t21 8h328q10 0 23.5 -8t17.5 -18l498 -1432q4 -12 4 -18q0 -15 -10.5 -26t-32.5 -11h-1325q-22 0 -32.5 11t-10.5 26zM319 186h832l-371 1139h-88z" />
<glyph unicode="e" horiz-adv-x="1431" d="M68 559v115q0 13 9 22t21 9h1127q9 0 15.5 -7t6.5 -16v-2l-18 -127q-1 -11 -9 -18t-18 -7h-624q14 -85 33.5 -139.5t59 -99.5t106 -65.5t165.5 -20.5q148 0 367 51q12 4 18 4q26 0 29 -22l30 -136v-12q0 -24 -34 -37q-169 -69 -443 -69h-10q-159 0 -271 32 q-116 32 -190 102.5t-113 169.5t-55 242h-172q-12 0 -21 9t-9 22zM70 848v115q0 13 8 21.5t22 8.5h170q31 284 176 411.5t463 127.5q266 0 443 -72q34 -13 34 -37v-10l-30 -135q-3 -23 -29 -23q-12 0 -18 2q-186 52 -367 52q-80 0 -140 -15.5t-98.5 -41t-65 -67.5t-40 -86 t-23.5 -106h666q9 0 16 -5.5t7 -14.5v-4l-17 -125q-6 -25 -28 -25h-1119q-30 0 -30 29z" />
<glyph unicode="f" d="M270 809l441 442l442 -442l-442 -440zM502 809l104 -104l211 210l105 -106l-211 -209l106 -104l313 313l-419 420l-105 -105l105 -104z" />
<glyph unicode="g" d="M270 809l441 442l442 -442l-442 -440zM502 809l104 -104l211 210l105 -106l-211 -209l106 -104l313 313l-419 420l-105 -105l105 -104z" />
<glyph unicode="h" d="M270 809l441 442l442 -442l-442 -440zM502 809l104 -104l211 210l105 -106l-211 -209l106 -104l313 313l-419 420l-105 -105l105 -104z" />
<glyph unicode="i" d="M270 809l441 442l442 -442l-442 -440zM502 809l104 -104l211 210l105 -106l-211 -209l106 -104l313 313l-419 420l-105 -105l105 -104z" />
<glyph unicode="j" d="M270 809l441 442l442 -442l-442 -440zM502 809l104 -104l211 210l105 -106l-211 -209l106 -104l313 313l-419 420l-105 -105l105 -104z" />
<glyph unicode="k" horiz-adv-x="612" d="M170 31v995q0 13 9.5 22t23.5 9h209q13 0 21.5 -8.5t8.5 -22.5v-995q0 -14 -8.5 -22.5t-21.5 -8.5h-209q-14 0 -23.5 9t-9.5 22z" />
<glyph unicode="l" horiz-adv-x="804" d="M14 741v9q0 9 6.5 15.5t14.5 8.5l205 62v628q0 21 6 29.5t24 11.5l203 35h8q31 0 31 -33v-587l223 67q4 2 13 2q19 0 22 -14l41 -127v-6q0 -20 -20 -27l-279 -84v-461q0 -90 84 -90q42 0 70 8h8q16 0 22 -20l23 -123v-6q0 -12 -7.5 -20.5t-11.5 -8.5q-63 -28 -184 -28 q-136 0 -206 70.5t-70 197.5v397l-150 -45q-4 -2 -12 -2q-20 0 -23 14z" />
<glyph unicode="m" horiz-adv-x="1241" d="M49 907v137q0 13 9.5 22t23.5 9h1077q13 0 22 -8.5t9 -22.5v-137q0 -13 -8.5 -21.5t-22.5 -8.5h-133v-846q0 -13 -9 -22t-22 -9h-211q-14 0 -23 9t-9 22v846h-263v-846q0 -13 -9 -22t-23 -9h-209q-15 0 -24 8.5t-9 22.5v846h-133q-14 0 -23.5 8.5t-9.5 21.5z" />
<glyph unicode="n" d="M270 809l441 442l442 -442l-442 -440zM502 809l104 -104l211 210l105 -106l-211 -209l106 -104l313 313l-419 420l-105 -105l105 -104z" />
<glyph unicode="o" horiz-adv-x="1484" d="M262 385q0 8 6 14l113 103q-37 90 -37 190q0 103 37 193l-111 102q-8 5 -8 14q0 11 10 21l119 123q15 10 23 10t14 -6l107 -96q91 43 208 43q118 0 209 -43l105 96q6 6 14 6q13 0 23 -10l120 -123q9 -9 9 -21q0 -8 -6 -14l-111 -102q35 -85 35 -193q0 -105 -35 -190 l111 -103q6 -6 6 -14q0 -11 -9 -20l-120 -123q-11 -11 -23 -11q-7 0 -14 7l-105 96q-91 -43 -209 -43q-117 0 -208 43l-107 -96q-7 -7 -14 -7q-6 0 -23 11l-119 123q-10 10 -10 20zM541 692q0 -123 42.5 -176t159.5 -53t159 53.5t42 177.5q0 123 -42 176.5t-159 53.5 t-159.5 -54t-42.5 -178z" />
<glyph unicode="p" horiz-adv-x="1214" d="M137 -397v1859q0 37 35 43l201 35h8q31 0 31 -33v-329l-21 -125q158 49 297 49q240 0 341 -131t101 -434q0 -105 -10 -184t-39.5 -153.5t-78.5 -122t-131 -76t-193 -28.5q-148 0 -289 37l23 -127v-235q0 -36 -33 -41l-201 -37h-8q-14 0 -23.5 9t-9.5 24zM414 184 q81 -22 192 -22q97 0 147.5 31.5t73.5 113t23 238.5q0 117 -9 185t-35 110t-66 55.5t-109 13.5q-42 0 -96 -8t-87 -16l-34 -8v-693z" />
<glyph unicode="q" d="M270 809l441 442l442 -442l-442 -440zM502 809l104 -104l211 210l105 -106l-211 -209l106 -104l313 313l-419 420l-105 -105l105 -104z" />
<glyph unicode="r" d="M270 809l441 442l442 -442l-442 -440zM502 809l104 -104l211 210l105 -106l-211 -209l106 -104l313 313l-419 420l-105 -105l105 -104z" />
<glyph unicode="s" horiz-adv-x="1011" d="M92 66v10l25 117q3 22 22 22h11q2 -1 21.5 -6t39.5 -10t51.5 -11.5t61.5 -11.5t67 -8.5t70 -3.5q198 0 198 133q0 40 -10 65.5t-40 40t-49.5 19t-73.5 13.5q-19 3 -29 5q-115 21 -154 35q-182 62 -197 253q-2 19 -2 40q0 334 437 334q39 0 80 -3t71 -6.5t64 -10t51 -10 t40.5 -9.5t24.5 -6q25 -6 25 -29q0 -4 -2 -6l-21 -123q-3 -18 -24 -18h-8q-2 0 -19.5 3.5t-34.5 6.5t-44.5 7.5t-53 7.5t-56 5t-56.5 2q-203 0 -203 -125q0 -19 3.5 -34.5t12 -27.5t16.5 -20.5t24 -16t26.5 -12t32.5 -9t33 -6.5t37 -5.5t36 -5.5q43 -7 70 -12.5t66.5 -18 t64.5 -27t53 -39t44 -55.5t27 -76.5t11 -100.5q0 -347 -445 -347q-115 0 -222 22t-152 40q-21 11 -21 29zM178 1442q0 8 4 12l82 102q9 9 19 9t12 -4l225 -177l228 177q2 4 12 4q9 0 18 -9l82 -102q4 -4 4 -12q0 -12 -8 -17l-299 -211h-72l-299 211q-8 5 -8 17z" />
<glyph unicode="t" horiz-adv-x="1187" d="M84 520q0 52 3 96t14 102.5t30 105t53.5 94t81.5 79.5t118 52t159 20q158 0 274 -94q0 1 5 4t5 4q-17 122 -78 219t-131 146l-202 -138q-9 -6 -17 -6q-11 0 -16 8l-78 82q-6 6 -6 15q0 8 12 16l154 102q-96 43 -309 43q-47 3 -47 39v119q0 41 38 41h60q278 0 465 -98 l155 110q14 7 19 7q7 0 16 -9l78 -88q6 -6 6 -12q0 -9 -16 -20l-117 -82q61 -50 109.5 -117t91.5 -168t66.5 -249t23.5 -333v-10q0 -73 -1.5 -116t-11.5 -117.5t-28 -121t-55.5 -104t-90 -90t-134.5 -55.5t-187 -23q-121 0 -212.5 29.5t-147.5 78.5t-91 121.5t-48 148.5 t-13 169zM365 520q0 -72 4.5 -120.5t18 -96.5t38.5 -76.5t67.5 -45.5t102.5 -17q50 0 87.5 11t62.5 34.5t40.5 51.5t23.5 72t10.5 85.5t2.5 101.5q0 73 -4 121t-17 97t-37.5 77.5t-66.5 46t-102 17.5t-102.5 -17.5t-67.5 -46t-38.5 -77t-18 -97.5t-4.5 -121z" />
<glyph unicode="u" d="M270 809l441 442l442 -442l-442 -440zM502 809l104 -104l211 210l105 -106l-211 -209l106 -104l313 313l-419 420l-105 -105l105 -104z" />
<glyph unicode="v" d="M270 809l441 442l442 -442l-442 -440zM502 809l104 -104l211 210l105 -106l-211 -209l106 -104l313 313l-419 420l-105 -105l105 -104z" />
<glyph unicode="w" d="M270 809l441 442l442 -442l-442 -440zM502 809l104 -104l211 210l105 -106l-211 -209l106 -104l313 313l-419 420l-105 -105l105 -104z" />
<glyph unicode="x" horiz-adv-x="1232" d="M129 324q0 14 12 26l336 316l-336 317q-12 12 -12 27q0 14 10 24l105 101q12 12 24 12q15 0 27 -12l321 -330l320 330q15 12 27 12q13 0 26 -10l103 -103q12 -9 12 -24q0 -16 -14 -27l-334 -317l334 -316q14 -11 14 -26t-12 -27l-103 -100q-15 -11 -26 -11t-27 13 l-320 329l-321 -329q-13 -13 -27 -13q-9 0 -24 11l-105 100q-10 13 -10 27z" />
<glyph unicode="y" horiz-adv-x="1107" d="M41 1042q0 14 9 23.5t24 9.5h207q19 0 28 -7t13 -26l221 -866h55l197 864q8 35 45 35h209q17 0 26.5 -9.5t9.5 -23.5q0 -2 -1 -6t-1 -6l-340 -1157q-18 -63 -36.5 -106t-47.5 -83t-68 -63.5t-96 -37t-133 -13.5q-118 0 -190 14q-29 3 -29 31v2l2 117q0 37 33 37h2 q101 -7 119 -7q81 0 123.5 28t60.5 97l31 111h-133q-28 0 -39 33l-299 997q-2 4 -2 12zM346 1335q0 12 8 17l310 221q8 4 14 4q10 0 18 -10l88 -115q4 -8 4 -12q0 -10 -10 -17l-315 -213q-8 -4 -12 -4q-12 0 -19 11l-82 106q-4 8 -4 12z" />
<glyph unicode="z" horiz-adv-x="1040" d="M78 1044q0 13 9.5 22t23.5 9h811q15 0 23.5 -8.5t8.5 -22.5v-122q0 -25 -14 -43l-528 -682h518q14 0 22.5 -8.5t8.5 -22.5v-135q0 -13 -8.5 -22t-22.5 -9h-809q-15 0 -24 8.5t-9 22.5v121q0 24 16 45l529 684h-522q-14 0 -22.5 8.5t-8.5 21.5zM184 1442q0 4 4 12l84 102 q11 11 19 11q6 0 12 -6l225 -175l226 175q6 6 14 6q7 0 18 -11l82 -102q4 -4 4 -12q0 -12 -8 -17l-299 -211h-71l-299 211q-11 7 -11 17z" />
<glyph unicode="{" d="M270 809l441 442l442 -442l-442 -440zM502 809l104 -104l211 210l105 -106l-211 -209l106 -104l313 313l-419 420l-105 -105l105 -104z" />
<glyph unicode="|" d="M270 809l441 442l442 -442l-442 -440zM502 809l104 -104l211 210l105 -106l-211 -209l106 -104l313 313l-419 420l-105 -105l105 -104z" />
<glyph unicode="}" d="M270 809l441 442l442 -442l-442 -440zM502 809l104 -104l211 210l105 -106l-211 -209l106 -104l313 313l-419 420l-105 -105l105 -104z" />
<glyph unicode="~" d="M270 809l441 442l442 -442l-442 -440zM502 809l104 -104l211 210l105 -106l-211 -209l106 -104l313 313l-419 420l-105 -105l105 -104z" />
<glyph horiz-adv-x="1431" d="M68 559v115q0 13 9 22t21 9h1127q9 0 15.5 -7t6.5 -16v-2l-18 -127q-1 -11 -9 -18t-18 -7h-624q14 -85 33.5 -139.5t59 -99.5t106 -65.5t165.5 -20.5q148 0 367 51q12 4 18 4q26 0 29 -22l30 -136v-12q0 -24 -34 -37q-169 -69 -443 -69q-165 -1 -281 31.5t-190 103 t-113 169.5t-55 242h-172q-12 0 -21 9t-9 22zM70 848v115q0 13 8 21.5t22 8.5h170q31 284 176 411.5t463 127.5q266 0 443 -72q34 -13 34 -37v-10l-30 -135q-3 -23 -29 -23q-12 0 -18 2q-186 52 -367 52q-80 0 -140 -15.5t-98.5 -41t-65 -67.5t-40 -86t-23.5 -106h666 q9 0 16 -5.5t7 -14.5v-4l-17 -125q-6 -25 -28 -25h-1119q-30 0 -30 29z" />
<glyph d="M270 809l441 442l442 -442l-442 -440zM502 809l104 -104l211 210l105 -106l-211 -209l106 -104l313 313l-419 420l-105 -105l105 -104z" />
<glyph d="M270 809l441 442l442 -442l-442 -440zM502 809l104 -104l211 210l105 -106l-211 -209l106 -104l313 313l-419 420l-105 -105l105 -104z" />
<glyph d="M270 809l441 442l442 -442l-442 -440zM502 809l104 -104l211 210l105 -106l-211 -209l106 -104l313 313l-419 420l-105 -105l105 -104z" />
<glyph unicode="&#x85;" d="M270 809l441 442l442 -442l-442 -440zM502 809l104 -104l211 210l105 -106l-211 -209l106 -104l313 313l-419 420l-105 -105l105 -104z" />
<glyph d="M270 809l441 442l442 -442l-442 -440zM502 809l104 -104l211 210l105 -106l-211 -209l106 -104l313 313l-419 420l-105 -105l105 -104z" />
<glyph d="M270 809l441 442l442 -442l-442 -440zM502 809l104 -104l211 210l105 -106l-211 -209l106 -104l313 313l-419 420l-105 -105l105 -104z" />
<glyph d="M270 809l441 442l442 -442l-442 -440zM502 809l104 -104l211 210l105 -106l-211 -209l106 -104l313 313l-419 420l-105 -105l105 -104z" />
<glyph d="M270 809l441 442l442 -442l-442 -440zM502 809l104 -104l211 210l105 -106l-211 -209l106 -104l313 313l-419 420l-105 -105l105 -104z" />
<glyph d="M270 809l441 442l442 -442l-442 -440zM502 809l104 -104l211 210l105 -106l-211 -209l106 -104l313 313l-419 420l-105 -105l105 -104z" />
<glyph d="M270 809l441 442l442 -442l-442 -440zM502 809l104 -104l211 210l105 -106l-211 -209l106 -104l313 313l-419 420l-105 -105l105 -104z" />
<glyph d="M270 809l441 442l442 -442l-442 -440zM502 809l104 -104l211 210l105 -106l-211 -209l106 -104l313 313l-419 420l-105 -105l105 -104z" />
<glyph d="M270 809l441 442l442 -442l-442 -440zM502 809l104 -104l211 210l105 -106l-211 -209l106 -104l313 313l-419 420l-105 -105l105 -104z" />
<glyph d="M270 809l441 442l442 -442l-442 -440zM502 809l104 -104l211 210l105 -106l-211 -209l106 -104l313 313l-419 420l-105 -105l105 -104z" />
<glyph d="M270 809l441 442l442 -442l-442 -440zM502 809l104 -104l211 210l105 -106l-211 -209l106 -104l313 313l-419 420l-105 -105l105 -104z" />
<glyph d="M270 809l441 442l442 -442l-442 -440zM502 809l104 -104l211 210l105 -106l-211 -209l106 -104l313 313l-419 420l-105 -105l105 -104z" />
<glyph d="M270 809l441 442l442 -442l-442 -440zM502 809l104 -104l211 210l105 -106l-211 -209l106 -104l313 313l-419 420l-105 -105l105 -104z" />
<glyph horiz-adv-x="858" d="M158 524v365q0 37 26.5 63.5t63.5 26.5h364q37 0 62.5 -26.5t25.5 -63.5v-365q0 -37 -25.5 -63.5t-62.5 -26.5h-364q-37 0 -63.5 26.5t-26.5 63.5z" />
<glyph d="M270 809l441 442l442 -442l-442 -440zM502 809l104 -104l211 210l105 -106l-211 -209l106 -104l313 313l-419 420l-105 -105l105 -104z" />
<glyph d="M270 809l441 442l442 -442l-442 -440zM502 809l104 -104l211 210l105 -106l-211 -209l106 -104l313 313l-419 420l-105 -105l105 -104z" />
<glyph d="M270 809l441 442l442 -442l-442 -440zM502 809l104 -104l211 210l105 -106l-211 -209l106 -104l313 313l-419 420l-105 -105l105 -104z" />
<glyph d="M270 809l441 442l442 -442l-442 -440zM502 809l104 -104l211 210l105 -106l-211 -209l106 -104l313 313l-419 420l-105 -105l105 -104z" />
<glyph d="M270 809l441 442l442 -442l-442 -440zM502 809l104 -104l211 210l105 -106l-211 -209l106 -104l313 313l-419 420l-105 -105l105 -104z" />
<glyph d="M270 809l441 442l442 -442l-442 -440zM502 809l104 -104l211 210l105 -106l-211 -209l106 -104l313 313l-419 420l-105 -105l105 -104z" />
<glyph d="M270 809l441 442l442 -442l-442 -440zM502 809l104 -104l211 210l105 -106l-211 -209l106 -104l313 313l-419 420l-105 -105l105 -104z" />
<glyph d="M270 809l441 442l442 -442l-442 -440zM502 809l104 -104l211 210l105 -106l-211 -209l106 -104l313 313l-419 420l-105 -105l105 -104z" />
<glyph d="M270 809l441 442l442 -442l-442 -440zM502 809l104 -104l211 210l105 -106l-211 -209l106 -104l313 313l-419 420l-105 -105l105 -104z" />
<glyph unicode="&#xa1;" d="M270 809l441 442l442 -442l-442 -440zM502 809l104 -104l211 210l105 -106l-211 -209l106 -104l313 313l-419 420l-105 -105l105 -104z" />
<glyph unicode="&#xa2;" d="M270 809l441 442l442 -442l-442 -440zM502 809l104 -104l211 210l105 -106l-211 -209l106 -104l313 313l-419 420l-105 -105l105 -104z" />
<glyph unicode="&#xa3;" d="M270 809l441 442l442 -442l-442 -440zM502 809l104 -104l211 210l105 -106l-211 -209l106 -104l313 313l-419 420l-105 -105l105 -104z" />
<glyph unicode="&#xa4;" horiz-adv-x="1484" d="M262 385q0 8 6 14l113 103q-37 90 -37 190q0 103 37 193l-111 102q-8 5 -8 14q0 11 10 21l119 123q15 10 23 10t14 -6l107 -96q91 43 208 43q118 0 209 -43l105 96q6 6 14 6q13 0 23 -10l120 -123q9 -9 9 -21q0 -8 -6 -14l-111 -102q35 -85 35 -193q0 -105 -35 -190 l111 -103q6 -6 6 -14q0 -11 -9 -20l-120 -123q-11 -11 -23 -11q-7 0 -14 7l-105 96q-91 -43 -209 -43q-117 0 -208 43l-107 -96q-7 -7 -14 -7q-6 0 -23 11l-119 123q-10 10 -10 20zM541 692q0 -123 42.5 -176t159.5 -53t159 53.5t42 177.5q0 123 -42 176.5t-159 53.5 t-159.5 -54t-42.5 -178z" />
<glyph unicode="&#xa5;" d="M270 809l441 442l442 -442l-442 -440zM502 809l104 -104l211 210l105 -106l-211 -209l106 -104l313 313l-419 420l-105 -105l105 -104z" />
<glyph unicode="&#xa6;" d="M270 809l441 442l442 -442l-442 -440zM502 809l104 -104l211 210l105 -106l-211 -209l106 -104l313 313l-419 420l-105 -105l105 -104z" />
<glyph unicode="&#xa7;" d="M270 809l441 442l442 -442l-442 -440zM502 809l104 -104l211 210l105 -106l-211 -209l106 -104l313 313l-419 420l-105 -105l105 -104z" />
<glyph unicode="&#xa8;" d="M270 809l441 442l442 -442l-442 -440zM502 809l104 -104l211 210l105 -106l-211 -209l106 -104l313 313l-419 420l-105 -105l105 -104z" />
<glyph unicode="&#xa9;" d="M270 809l441 442l442 -442l-442 -440zM502 809l104 -104l211 210l105 -106l-211 -209l106 -104l313 313l-419 420l-105 -105l105 -104z" />
<glyph unicode="&#xaa;" d="M270 809l441 442l442 -442l-442 -440zM502 809l104 -104l211 210l105 -106l-211 -209l106 -104l313 313l-419 420l-105 -105l105 -104z" />
<glyph unicode="&#xab;" d="M270 809l441 442l442 -442l-442 -440zM502 809l104 -104l211 210l105 -106l-211 -209l106 -104l313 313l-419 420l-105 -105l105 -104z" />
<glyph unicode="&#xac;" d="M270 809l441 442l442 -442l-442 -440zM502 809l104 -104l211 210l105 -106l-211 -209l106 -104l313 313l-419 420l-105 -105l105 -104z" />
<glyph unicode="&#xad;" horiz-adv-x="1241" d="M182 573v138q0 14 11.5 23t29.5 9h795q17 0 29 -9.5t12 -22.5v-138q0 -14 -13.5 -23t-29.5 -9h-793q-14 0 -27.5 9t-13.5 23z" />
<glyph unicode="&#xae;" d="M270 809l441 442l442 -442l-442 -440zM502 809l104 -104l211 210l105 -106l-211 -209l106 -104l313 313l-419 420l-105 -105l105 -104z" />
<glyph unicode="&#xaf;" d="M270 809l441 442l442 -442l-442 -440zM502 809l104 -104l211 210l105 -106l-211 -209l106 -104l313 313l-419 420l-105 -105l105 -104z" />
<glyph unicode="&#xb0;" d="M270 809l441 442l442 -442l-442 -440zM502 809l104 -104l211 210l105 -106l-211 -209l106 -104l313 313l-419 420l-105 -105l105 -104z" />
<glyph unicode="&#xb1;" d="M270 809l441 442l442 -442l-442 -440zM502 809l104 -104l211 210l105 -106l-211 -209l106 -104l313 313l-419 420l-105 -105l105 -104z" />
<glyph unicode="&#xb2;" d="M270 809l441 442l442 -442l-442 -440zM502 809l104 -104l211 210l105 -106l-211 -209l106 -104l313 313l-419 420l-105 -105l105 -104z" />
<glyph unicode="&#xb3;" d="M270 809l441 442l442 -442l-442 -440zM502 809l104 -104l211 210l105 -106l-211 -209l106 -104l313 313l-419 420l-105 -105l105 -104z" />
<glyph unicode="&#xb4;" d="M270 809l441 442l442 -442l-442 -440zM502 809l104 -104l211 210l105 -106l-211 -209l106 -104l313 313l-419 420l-105 -105l105 -104z" />
<glyph unicode="&#xb5;" d="M270 809l441 442l442 -442l-442 -440zM502 809l104 -104l211 210l105 -106l-211 -209l106 -104l313 313l-419 420l-105 -105l105 -104z" />
<glyph unicode="&#xb6;" horiz-adv-x="1478" d="M84 1032q0 116 25 202t66 137t103 82t125.5 41.5t145.5 10.5h24l371 -6q4 0 9 -6.5t5 -11.5v-1835q0 -40 -30 -45l-156 -31h-8q-13 0 -22 8.5t-9 22.5v960l-160 -4h-30q-80 0 -143.5 11t-124.5 42t-101.5 83t-65 137.5t-24.5 201.5zM344 1032q0 -72 13 -122.5t34 -79 t58.5 -44.5t73.5 -20.5t93 -5.5l117 -2v549l-117 -2q-47 -1 -78.5 -4.5t-65.5 -13t-55 -28t-39 -48t-26 -74.5t-8 -105zM1114 -358v1822q0 40 31 45l155 31h9q13 0 21.5 -8.5t8.5 -22.5v-1822q0 -40 -30 -45l-156 -31h-8q-13 0 -22 8.5t-9 22.5z" />
<glyph unicode="&#xb7;" horiz-adv-x="442" d="M86 483v197q0 17 10.5 27t26.5 10h199q15 0 24.5 -10t9.5 -27v-197q0 -17 -9.5 -28t-24.5 -11h-199q-15 0 -26 11t-11 28z" />
<glyph unicode="&#xb8;" d="M270 809l441 442l442 -442l-442 -440zM502 809l104 -104l211 210l105 -106l-211 -209l106 -104l313 313l-419 420l-105 -105l105 -104z" />
<glyph unicode="&#xb9;" d="M270 809l441 442l442 -442l-442 -440zM502 809l104 -104l211 210l105 -106l-211 -209l106 -104l313 313l-419 420l-105 -105l105 -104z" />
<glyph unicode="&#xba;" d="M270 809l441 442l442 -442l-442 -440zM502 809l104 -104l211 210l105 -106l-211 -209l106 -104l313 313l-419 420l-105 -105l105 -104z" />
<glyph unicode="&#xbb;" d="M270 809l441 442l442 -442l-442 -440zM502 809l104 -104l211 210l105 -106l-211 -209l106 -104l313 313l-419 420l-105 -105l105 -104z" />
<glyph unicode="&#xbc;" d="M270 809l441 442l442 -442l-442 -440zM502 809l104 -104l211 210l105 -106l-211 -209l106 -104l313 313l-419 420l-105 -105l105 -104z" />
<glyph unicode="&#xbd;" d="M270 809l441 442l442 -442l-442 -440zM502 809l104 -104l211 210l105 -106l-211 -209l106 -104l313 313l-419 420l-105 -105l105 -104z" />
<glyph unicode="&#xbe;" d="M270 809l441 442l442 -442l-442 -440zM502 809l104 -104l211 210l105 -106l-211 -209l106 -104l313 313l-419 420l-105 -105l105 -104z" />
<glyph unicode="&#xbf;" d="M270 809l441 442l442 -442l-442 -440zM502 809l104 -104l211 210l105 -106l-211 -209l106 -104l313 313l-419 420l-105 -105l105 -104z" />
<glyph unicode="&#xc0;" d="M270 809l441 442l442 -442l-442 -440zM502 809l104 -104l211 210l105 -106l-211 -209l106 -104l313 313l-419 420l-105 -105l105 -104z" />
<glyph unicode="&#xc1;" d="M270 809l441 442l442 -442l-442 -440zM502 809l104 -104l211 210l105 -106l-211 -209l106 -104l313 313l-419 420l-105 -105l105 -104z" />
<glyph unicode="&#xc2;" d="M270 809l441 442l442 -442l-442 -440zM502 809l104 -104l211 210l105 -106l-211 -209l106 -104l313 313l-419 420l-105 -105l105 -104z" />
<glyph unicode="&#xc3;" d="M270 809l441 442l442 -442l-442 -440zM502 809l104 -104l211 210l105 -106l-211 -209l106 -104l313 313l-419 420l-105 -105l105 -104z" />
<glyph unicode="&#xc4;" d="M270 809l441 442l442 -442l-442 -440zM502 809l104 -104l211 210l105 -106l-211 -209l106 -104l313 313l-419 420l-105 -105l105 -104z" />
<glyph unicode="&#xc5;" d="M270 809l441 442l442 -442l-442 -440zM502 809l104 -104l211 210l105 -106l-211 -209l106 -104l313 313l-419 420l-105 -105l105 -104z" />
<glyph unicode="&#xc6;" d="M270 809l441 442l442 -442l-442 -440zM502 809l104 -104l211 210l105 -106l-211 -209l106 -104l313 313l-419 420l-105 -105l105 -104z" />
<glyph unicode="&#xc7;" d="M270 809l441 442l442 -442l-442 -440zM502 809l104 -104l211 210l105 -106l-211 -209l106 -104l313 313l-419 420l-105 -105l105 -104z" />
<glyph unicode="&#xc8;" d="M270 809l441 442l442 -442l-442 -440zM502 809l104 -104l211 210l105 -106l-211 -209l106 -104l313 313l-419 420l-105 -105l105 -104z" />
<glyph unicode="&#xc9;" horiz-adv-x="1961" d="M23 905v139q0 14 8.5 22.5t23.5 8.5h158v152q0 159 82.5 236t253.5 77q33 0 65.5 -2t55.5 -4.5t50.5 -7t39 -7t33 -7.5t22.5 -5q23 -6 23 -30v-4l-19 -121q-3 -27 -24 -27h-7q-124 16 -159 16q-77 0 -109.5 -24t-32.5 -92v-150h379v88q0 113 26.5 187.5t84 116 t133.5 57.5t190 16q186 0 351 -49q24 -5 24 -29v-6l-20 -125q-3 -26 -23 -26q-6 0 -8 2q-15 2 -64 10t-104 14t-113 6q-124 0 -163 -34.5t-39 -149.5v-78h614q17 0 27 -10.5t10 -24.5v-1009q0 -13 -9 -22t-22 -9h-209q-14 0 -23 9t-9 22v846h-379v-846q0 -13 -8.5 -22 t-22.5 -9h-211q-14 0 -23.5 9t-9.5 22v846h-379v-846q0 -14 -8.5 -22.5t-21.5 -8.5h-211q-14 0 -23.5 9t-9.5 22v846h-158q-32 0 -32 28z" />
<glyph unicode="&#xca;" d="M270 809l441 442l442 -442l-442 -440zM502 809l104 -104l211 210l105 -106l-211 -209l106 -104l313 313l-419 420l-105 -105l105 -104z" />
<glyph unicode="&#xcb;" d="M270 809l441 442l442 -442l-442 -440zM502 809l104 -104l211 210l105 -106l-211 -209l106 -104l313 313l-419 420l-105 -105l105 -104z" />
<glyph unicode="&#xcc;" d="M270 809l441 442l442 -442l-442 -440zM502 809l104 -104l211 210l105 -106l-211 -209l106 -104l313 313l-419 420l-105 -105l105 -104z" />
<glyph unicode="&#xcd;" d="M270 809l441 442l442 -442l-442 -440zM502 809l104 -104l211 210l105 -106l-211 -209l106 -104l313 313l-419 420l-105 -105l105 -104z" />
<glyph unicode="&#xce;" d="M270 809l441 442l442 -442l-442 -440zM502 809l104 -104l211 210l105 -106l-211 -209l106 -104l313 313l-419 420l-105 -105l105 -104z" />
<glyph unicode="&#xcf;" d="M270 809l441 442l442 -442l-442 -440zM502 809l104 -104l211 210l105 -106l-211 -209l106 -104l313 313l-419 420l-105 -105l105 -104z" />
<glyph unicode="&#xd0;" d="M270 809l441 442l442 -442l-442 -440zM502 809l104 -104l211 210l105 -106l-211 -209l106 -104l313 313l-419 420l-105 -105l105 -104z" />
<glyph unicode="&#xd1;" horiz-adv-x="2039" d="M23 905v139q0 14 8.5 22.5t23.5 8.5h158v152q0 159 82.5 236t253.5 77q33 0 65.5 -2t55.5 -4.5t50.5 -7t39 -7t33 -7.5t22.5 -5q23 -6 23 -30v-4l-19 -121q-3 -27 -24 -27h-7q-124 16 -159 16q-77 0 -109.5 -24t-32.5 -92v-150h379v152q0 159 82.5 236t253.5 77 q33 0 65.5 -2t55.5 -4.5t50.5 -7t39 -7t33 -7.5t22.5 -5q23 -6 23 -30v-4l-18 -121q-3 -27 -25 -27h-6q-124 16 -160 16q-77 0 -109 -24t-32 -92v-150h379v389q0 20 6.5 29t23.5 12l203 35h10q14 0 22.5 -9t8.5 -24v-1237q0 -49 23.5 -69.5t58.5 -20.5q40 0 72 8h8 q17 0 20 -20l23 -123q2 -2 2 -6q0 -12 -8 -20.5t-13 -8.5q-56 -28 -182 -28q-137 0 -207.5 70.5t-70.5 197.5v627h-379v-846q0 -13 -8.5 -22t-22.5 -9h-211q-14 0 -23.5 9t-9.5 22v846h-379v-846q0 -14 -8.5 -22.5t-21.5 -8.5h-211q-14 0 -23.5 9t-9.5 22v846h-158 q-32 0 -32 28z" />
<glyph unicode="&#xd2;" d="M270 809l441 442l442 -442l-442 -440zM502 809l104 -104l211 210l105 -106l-211 -209l106 -104l313 313l-419 420l-105 -105l105 -104z" />
<glyph unicode="&#xd3;" d="M270 809l441 442l442 -442l-442 -440zM502 809l104 -104l211 210l105 -106l-211 -209l106 -104l313 313l-419 420l-105 -105l105 -104z" />
<glyph unicode="&#xd4;" d="M270 809l441 442l442 -442l-442 -440zM502 809l104 -104l211 210l105 -106l-211 -209l106 -104l313 313l-419 420l-105 -105l105 -104z" />
<glyph unicode="&#xd5;" d="M270 809l441 442l442 -442l-442 -440zM502 809l104 -104l211 210l105 -106l-211 -209l106 -104l313 313l-419 420l-105 -105l105 -104z" />
<glyph unicode="&#xd6;" horiz-adv-x="1308" d="M23 905v139q0 14 8.5 22.5t23.5 8.5h158v88q0 113 26.5 187.5t84 116t133.5 57.5t190 16q186 0 350 -49q25 -6 25 -29v-6l-21 -125q-3 -26 -22 -26q-6 0 -8 2q-15 2 -64 10t-104 14t-113 6q-124 0 -163.5 -35t-39.5 -149v-78h619q15 0 24 -8.5t9 -22.5v-1132 q0 -99 -27 -167.5t-79.5 -106t-117 -53t-151.5 -15.5q-75 0 -141 8q-11 1 -17.5 3.5t-13 11t-6.5 22.5v2l2 104q0 23 8.5 30t28.5 9h67q93 0 133.5 30.5t40.5 127.5v959h-379v-846q0 -14 -8.5 -22.5t-21.5 -8.5h-211q-14 0 -23.5 9t-9.5 22v846h-158q-32 0 -32 28z" />
<glyph unicode="&#xd7;" d="M270 809l441 442l442 -442l-442 -440zM502 809l104 -104l211 210l105 -106l-211 -209l106 -104l313 313l-419 420l-105 -105l105 -104z" />
<glyph unicode="&#xd8;" d="M270 809l441 442l442 -442l-442 -440zM502 809l104 -104l211 210l105 -106l-211 -209l106 -104l313 313l-419 420l-105 -105l105 -104z" />
<glyph unicode="&#xd9;" d="M270 809l441 442l442 -442l-442 -440zM502 809l104 -104l211 210l105 -106l-211 -209l106 -104l313 313l-419 420l-105 -105l105 -104z" />
<glyph unicode="&#xda;" d="M270 809l441 442l442 -442l-442 -440zM502 809l104 -104l211 210l105 -106l-211 -209l106 -104l313 313l-419 420l-105 -105l105 -104z" />
<glyph unicode="&#xdb;" d="M270 809l441 442l442 -442l-442 -440zM502 809l104 -104l211 210l105 -106l-211 -209l106 -104l313 313l-419 420l-105 -105l105 -104z" />
<glyph unicode="&#xdc;" horiz-adv-x="1961" d="M23 905v139q0 14 8.5 22.5t23.5 8.5h158v152q0 159 82.5 236t253.5 77q33 0 65.5 -2t55.5 -4.5t50.5 -7t39 -7t33 -7.5t22.5 -5q23 -6 23 -30v-4l-19 -121q-3 -27 -24 -27h-7q-124 16 -159 16q-77 0 -109.5 -24t-32.5 -92v-150h379v88q0 113 26.5 187.5t84 116 t133.5 57.5t190 16q186 0 351 -49q24 -5 24 -29v-6l-20 -125q-3 -26 -23 -26h-8q-7 1 -62 11t-107.5 15.5t-111.5 5.5q-124 0 -163 -34.5t-39 -149.5v-78h618q15 0 24 -8.5t9 -22.5v-1132q0 -99 -27 -167.5t-79.5 -106t-117 -53t-151.5 -15.5q-75 0 -141 8q-11 1 -17.5 3.5 t-13 11t-6.5 22.5v2l2 104q0 23 8.5 30t28.5 9h68q93 0 133.5 30.5t40.5 127.5v959h-379v-846q0 -13 -8.5 -22t-22.5 -9h-211q-14 0 -23.5 9t-9.5 22v846h-379v-846q0 -14 -8.5 -22.5t-21.5 -8.5h-211q-14 0 -23.5 9t-9.5 22v846h-158q-32 0 -32 28z" />
<glyph unicode="&#xdd;" d="M270 809l441 442l442 -442l-442 -440zM502 809l104 -104l211 210l105 -106l-211 -209l106 -104l313 313l-419 420l-105 -105l105 -104z" />
<glyph unicode="&#xde;" d="M270 809l441 442l442 -442l-442 -440zM502 809l104 -104l211 210l105 -106l-211 -209l106 -104l313 313l-419 420l-105 -105l105 -104z" />
<glyph unicode="&#xdf;" horiz-adv-x="1251" d="M137 -397v1538q0 205 113.5 302t357.5 97q96 0 175 -19t143 -60.5t99.5 -113.5t35.5 -171q0 -71 -15 -123.5t-48 -92t-66.5 -65t-89.5 -57.5q-25 -16 -25 -35q0 -25 25 -37q104 -50 122 -60q149 -86 187 -233q14 -54 14 -119q0 -194 -113 -287.5t-311 -93.5 q-138 0 -241 39q-8 2 -15.5 10t-7.5 19v8l25 121q1 10 10 16.5t20 6.5h7q7 -2 29 -7.5t37.5 -9t41.5 -7t51 -3.5q90 0 147.5 47.5t57.5 142.5q0 50 -17 92t-43.5 71.5t-59.5 54.5t-65.5 47.5t-59 45t-43.5 52t-17 63.5q0 41 21 72.5t51 55.5t59.5 51.5t50.5 74t21 109.5 q0 96 -49.5 149.5t-141.5 53.5q-106 0 -154 -44.5t-48 -162.5v-1499q0 -38 -33 -43l-197 -29h-8q-33 0 -33 33z" />
<glyph unicode="&#xe0;" horiz-adv-x="2510" d="M23 905v139q0 14 8.5 22.5t23.5 8.5h158v152q0 159 82.5 236t253.5 77q33 0 65.5 -2t55.5 -4.5t50.5 -7t39 -7t33 -7.5t22.5 -5q23 -6 23 -30v-4l-19 -121q-3 -27 -24 -27h-7q-124 16 -159 16q-77 0 -109.5 -24t-32.5 -92v-150h379v152q0 159 82.5 236t253.5 77 q33 0 65.5 -2t55.5 -4.5t50.5 -7t39 -7t33 -7.5t22.5 -5q23 -6 23 -30v-4l-18 -121q-3 -27 -25 -27h-6q-124 16 -160 16q-76 0 -108.5 -24.5t-32.5 -91.5v-150h379v387q0 35 34 43l197 35h8q14 0 22.5 -9t8.5 -24v-876h74l301 432q10 12 26 12h2l250 -4q19 -3 19 -20 q0 -7 -2 -11l-367 -487l389 -524q2 -2 2 -11q0 -6 -5.5 -12t-12.5 -6h-277q-20 0 -28 12l-297 432h-74v-413q0 -31 -31 -31h-207q-15 0 -23.5 8.5t-8.5 22.5v846h-379v-846q0 -13 -8.5 -22t-22.5 -9h-211q-14 0 -23.5 9t-9.5 22v846h-379v-846q0 -14 -8.5 -22.5t-21.5 -8.5 h-211q-14 0 -23.5 9t-9.5 22v846h-158q-32 0 -32 28z" />
<glyph unicode="&#xe1;" horiz-adv-x="1857" d="M23 905v139q0 14 8.5 22.5t23.5 8.5h158v152q0 159 82.5 236t253.5 77q33 0 65.5 -2t55.5 -4.5t50.5 -7t39 -7t33 -7.5t22.5 -5q23 -9 23 -30v-4l-19 -123q-3 -25 -24 -25h-7q-124 16 -159 16q-77 0 -109.5 -24.5t-32.5 -91.5v-150h379v387q0 35 35 43l197 35h8 q14 0 22.5 -9t8.5 -24v-876h73l301 432q10 12 27 12h2l250 -4q18 -3 18 -20q0 -7 -2 -11l-366 -487l389 -524q2 -2 2 -11q0 -6 -6 -12t-13 -6h-276q-21 0 -29 12l-297 432h-73v-413q0 -31 -31 -31h-207q-15 0 -24 8.5t-9 22.5v846h-379v-846q0 -14 -8.5 -22.5t-21.5 -8.5 h-211q-14 0 -23.5 9t-9.5 22v846h-158q-32 0 -32 28z" />
<glyph unicode="&#xe2;" horiz-adv-x="1544" d="M23 905v139q0 14 8.5 22.5t23.5 8.5h158v152q0 159 82.5 236t253.5 77q33 0 65.5 -2t55.5 -4.5t50.5 -7t39 -7t33 -7.5t22.5 -5q23 -6 23 -30v-4l-19 -121q-3 -27 -24 -27h-7q-124 16 -159 16q-77 0 -109.5 -24t-32.5 -92v-150h379v283q0 35 35 43l199 37h10q31 0 31 -33 v-330h291q13 0 21.5 -8.5t8.5 -22.5v-139q0 -28 -30 -28h-291v-568q0 -69 31.5 -98t109.5 -29q73 0 156 19h8q19 0 22 -23l25 -117q0 -2 1 -5t1 -5q0 -25 -25 -31q-133 -38 -256 -38q-178 0 -263 75.5t-85 245.5v574h-379v-846q0 -14 -8.5 -22.5t-21.5 -8.5h-211 q-14 0 -23.5 9t-9.5 22v846h-158q-32 0 -32 28z" />
<glyph unicode="&#xe3;" horiz-adv-x="2197" d="M23 905v139q0 14 8.5 22.5t23.5 8.5h158v152q0 159 82.5 236t253.5 77q33 0 65.5 -2t55.5 -4.5t50.5 -7t39 -7t33 -7.5t22.5 -5q23 -6 23 -30v-4l-19 -121q-3 -27 -24 -27h-7q-124 16 -159 16q-77 0 -109.5 -24t-32.5 -92v-150h379v283q0 35 35 43l199 37h10q31 0 31 -33 v-330h379v283q0 35 34 43l199 37h10q31 0 31 -33v-330h291q13 0 22 -8.5t9 -22.5v-139q0 -28 -31 -28h-291v-568q0 -69 31.5 -98t109.5 -29q73 0 156 19h8q18 0 25 -23l22 -117q2 -4 2 -10q0 -25 -24 -31q-125 -38 -256 -38q-177 0 -262.5 75.5t-85.5 245.5v574h-379v-568 q0 -69 31.5 -98t109.5 -29q73 0 156 19h8q17 0 24 -23l23 -117q2 -4 2 -10q0 -25 -25 -31q-125 -38 -256 -38q-177 0 -262.5 75.5t-85.5 245.5v574h-379v-846q0 -14 -8.5 -22.5t-21.5 -8.5h-211q-14 0 -23.5 9t-9.5 22v846h-158q-32 0 -32 28z" />
<glyph unicode="&#xe4;" horiz-adv-x="2197" d="M23 905v139q0 14 8.5 22.5t23.5 8.5h158v152q0 159 82.5 236t253.5 77q33 0 65.5 -2t55.5 -4.5t50.5 -7t39 -7t33 -7.5t22.5 -5q23 -6 23 -30v-4l-19 -121q-3 -27 -24 -27h-7q-124 16 -159 16q-77 0 -109.5 -24t-32.5 -92v-150h379v152q0 159 82.5 236t253.5 77 q33 0 65.5 -2t55.5 -4.5t50.5 -7t39 -7t33 -7.5t22.5 -5q23 -6 23 -30v-4l-18 -121q-3 -27 -25 -27h-6q-124 16 -160 16q-77 0 -109 -24t-32 -92v-150h379v283q0 35 34 43l199 37h10q31 0 31 -33v-330h291q13 0 22 -8.5t9 -22.5v-139q0 -28 -31 -28h-291v-568 q0 -69 31.5 -98t109.5 -29q73 0 156 19h8q18 0 25 -23l22 -117q2 -4 2 -10q0 -25 -24 -31q-125 -38 -256 -38q-177 0 -262.5 75.5t-85.5 245.5v574h-379v-846q0 -13 -8.5 -22t-22.5 -9h-211q-14 0 -23.5 9t-9.5 22v846h-379v-846q0 -14 -8.5 -22.5t-21.5 -8.5h-211 q-14 0 -23.5 9t-9.5 22v846h-158q-32 0 -32 28z" />
<glyph unicode="&#xe5;" horiz-adv-x="1470" d="M137 303v1055q0 34 35 43l201 37h10q29 0 29 -33v-330h381v283q0 35 32 43l201 37h10q31 0 31 -33v-330h291q14 0 22.5 -8.5t8.5 -22.5v-139q0 -28 -31 -28h-293v-568q0 -68 32 -97.5t111 -29.5q73 0 156 19h8q20 0 23 -23l24 -117q0 -2 1 -5t1 -5q0 -25 -24 -31 q-133 -38 -256 -38q-178 0 -263 75.5t-85 245.5v574h-381v-568q0 -68 32 -97.5t111 -29.5q73 0 156 19h8q19 0 22 -23l25 -117q0 -2 1 -5t1 -5q0 -25 -25 -31q-133 -38 -256 -38q-178 0 -264 75.5t-86 245.5z" />
<glyph unicode="&#xe6;" d="M270 809l441 442l442 -442l-442 -440zM502 809l104 -104l211 210l105 -106l-211 -209l106 -104l313 313l-419 420l-105 -105l105 -104z" />
<glyph unicode="&#xe7;" d="M270 809l441 442l442 -442l-442 -440zM502 809l104 -104l211 210l105 -106l-211 -209l106 -104l313 313l-419 420l-105 -105l105 -104z" />
<glyph unicode="&#xe8;" d="M270 809l441 442l442 -442l-442 -440zM502 809l104 -104l211 210l105 -106l-211 -209l106 -104l313 313l-419 420l-105 -105l105 -104z" />
<glyph unicode="&#xe9;" d="M270 809l441 442l442 -442l-442 -440zM502 809l104 -104l211 210l105 -106l-211 -209l106 -104l313 313l-419 420l-105 -105l105 -104z" />
<glyph unicode="&#xea;" d="M270 809l441 442l442 -442l-442 -440zM502 809l104 -104l211 210l105 -106l-211 -209l106 -104l313 313l-419 420l-105 -105l105 -104z" />
<glyph unicode="&#xeb;" d="M270 809l441 442l442 -442l-442 -440zM502 809l104 -104l211 210l105 -106l-211 -209l106 -104l313 313l-419 420l-105 -105l105 -104z" />
<glyph unicode="&#xec;" d="M270 809l441 442l442 -442l-442 -440zM502 809l104 -104l211 210l105 -106l-211 -209l106 -104l313 313l-419 420l-105 -105l105 -104z" />
<glyph unicode="&#xed;" d="M270 809l441 442l442 -442l-442 -440zM502 809l104 -104l211 210l105 -106l-211 -209l106 -104l313 313l-419 420l-105 -105l105 -104z" />
<glyph unicode="&#xee;" d="M270 809l441 442l442 -442l-442 -440zM502 809l104 -104l211 210l105 -106l-211 -209l106 -104l313 313l-419 420l-105 -105l105 -104z" />
<glyph unicode="&#xef;" d="M270 809l441 442l442 -442l-442 -440zM502 809l104 -104l211 210l105 -106l-211 -209l106 -104l313 313l-419 420l-105 -105l105 -104z" />
<glyph unicode="&#xf0;" d="M270 809l441 442l442 -442l-442 -440zM502 809l104 -104l211 210l105 -106l-211 -209l106 -104l313 313l-419 420l-105 -105l105 -104z" />
<glyph unicode="&#xf1;" d="M270 809l441 442l442 -442l-442 -440zM502 809l104 -104l211 210l105 -106l-211 -209l106 -104l313 313l-419 420l-105 -105l105 -104z" />
<glyph unicode="&#xf2;" d="M270 809l441 442l442 -442l-442 -440zM502 809l104 -104l211 210l105 -106l-211 -209l106 -104l313 313l-419 420l-105 -105l105 -104z" />
<glyph unicode="&#xf3;" d="M270 809l441 442l442 -442l-442 -440zM502 809l104 -104l211 210l105 -106l-211 -209l106 -104l313 313l-419 420l-105 -105l105 -104z" />
<glyph unicode="&#xf4;" d="M270 809l441 442l442 -442l-442 -440zM502 809l104 -104l211 210l105 -106l-211 -209l106 -104l313 313l-419 420l-105 -105l105 -104z" />
<glyph unicode="&#xf5;" d="M270 809l441 442l442 -442l-442 -440zM502 809l104 -104l211 210l105 -106l-211 -209l106 -104l313 313l-419 420l-105 -105l105 -104z" />
<glyph unicode="&#xf6;" d="M270 809l441 442l442 -442l-442 -440zM502 809l104 -104l211 210l105 -106l-211 -209l106 -104l313 313l-419 420l-105 -105l105 -104z" />
<glyph unicode="&#xf7;" d="M270 809l441 442l442 -442l-442 -440zM502 809l104 -104l211 210l105 -106l-211 -209l106 -104l313 313l-419 420l-105 -105l105 -104z" />
<glyph unicode="&#xf8;" d="M270 809l441 442l442 -442l-442 -440zM502 809l104 -104l211 210l105 -106l-211 -209l106 -104l313 313l-419 420l-105 -105l105 -104z" />
<glyph unicode="&#xf9;" d="M270 809l441 442l442 -442l-442 -440zM502 809l104 -104l211 210l105 -106l-211 -209l106 -104l313 313l-419 420l-105 -105l105 -104z" />
<glyph unicode="&#xfa;" d="M270 809l441 442l442 -442l-442 -440zM502 809l104 -104l211 210l105 -106l-211 -209l106 -104l313 313l-419 420l-105 -105l105 -104z" />
<glyph unicode="&#xfb;" d="M270 809l441 442l442 -442l-442 -440zM502 809l104 -104l211 210l105 -106l-211 -209l106 -104l313 313l-419 420l-105 -105l105 -104z" />
<glyph unicode="&#xfc;" d="M270 809l441 442l442 -442l-442 -440zM502 809l104 -104l211 210l105 -106l-211 -209l106 -104l313 313l-419 420l-105 -105l105 -104z" />
<glyph unicode="&#xfd;" d="M270 809l441 442l442 -442l-442 -440zM502 809l104 -104l211 210l105 -106l-211 -209l106 -104l313 313l-419 420l-105 -105l105 -104z" />
<glyph unicode="&#xfe;" d="M270 809l441 442l442 -442l-442 -440zM502 809l104 -104l211 210l105 -106l-211 -209l106 -104l313 313l-419 420l-105 -105l105 -104z" />
<glyph unicode="&#xff;" d="M270 809l441 442l442 -442l-442 -440zM502 809l104 -104l211 210l105 -106l-211 -209l106 -104l313 313l-419 420l-105 -105l105 -104z" />
<glyph unicode="&#x2000;" horiz-adv-x="1001" />
<glyph unicode="&#x2001;" horiz-adv-x="2003" />
<glyph unicode="&#x2002;" horiz-adv-x="1001" />
<glyph unicode="&#x2003;" horiz-adv-x="2003" />
<glyph unicode="&#x2004;" horiz-adv-x="667" />
<glyph unicode="&#x2005;" horiz-adv-x="500" />
<glyph unicode="&#x2006;" horiz-adv-x="333" />
<glyph unicode="&#x2007;" horiz-adv-x="333" />
<glyph unicode="&#x2008;" horiz-adv-x="250" />
<glyph unicode="&#x2009;" horiz-adv-x="400" />
<glyph unicode="&#x200a;" horiz-adv-x="111" />
<glyph unicode="&#x2010;" horiz-adv-x="1241" d="M182 573v138q0 14 11.5 23t29.5 9h795q17 0 29 -9.5t12 -22.5v-138q0 -14 -13.5 -23t-29.5 -9h-793q-14 0 -27.5 9t-13.5 23z" />
<glyph unicode="&#x2011;" horiz-adv-x="1241" d="M182 573v138q0 14 11.5 23t29.5 9h795q17 0 29 -9.5t12 -22.5v-138q0 -14 -13.5 -23t-29.5 -9h-793q-14 0 -27.5 9t-13.5 23z" />
<glyph unicode="&#x2012;" horiz-adv-x="1241" d="M182 573v138q0 14 11.5 23t29.5 9h795q17 0 29 -9.5t12 -22.5v-138q0 -14 -13.5 -23t-29.5 -9h-793q-14 0 -27.5 9t-13.5 23z" />
<glyph unicode="&#x2013;" horiz-adv-x="1388" d="M182 573v138q0 14 13.5 23t34.5 9h928q20 0 34 -9.5t14 -22.5v-138q0 -14 -16 -23t-34 -9h-926q-16 0 -32 9t-16 23z" />
<glyph unicode="&#x2014;" horiz-adv-x="2412" d="M182 573v138q0 14 27 23t69 9h1856q40 0 68 -9.5t28 -22.5v-138q0 -14 -31.5 -23t-68.5 -9h-1852q-33 0 -64.5 9t-31.5 23z" />
<glyph unicode="&#x202f;" horiz-adv-x="400" />
<glyph unicode="&#x205f;" horiz-adv-x="500" />
<glyph unicode="&#x25fc;" horiz-adv-x="1146" d="M0 0v1147h1147v-1147h-1147z" />
<glyph unicode="&#xfb01;" d="M270 809l441 442l442 -442l-442 -440zM502 809l104 -104l211 210l105 -106l-211 -209l106 -104l313 313l-419 420l-105 -105l105 -104z" />
<glyph unicode="&#xfb02;" d="M270 809l441 442l442 -442l-442 -440zM502 809l104 -104l211 210l105 -106l-211 -209l106 -104l313 313l-419 420l-105 -105l105 -104z" />
</font>
</defs>
</svg>
