<?xml version="1.0" standalone="no"?>
<!DOCTYPE svg PUBLIC "-//W3C//DTD SVG 1.1//EN" "http://www.w3.org/Graphics/SVG/1.1/DTD/svg11.dtd" >
<svg xmlns="http://www.w3.org/2000/svg">
<metadata></metadata>
<defs>
<font id="max-extrabolditalicscregular" horiz-adv-x="1273" >
<font-face units-per-em="2048" ascent="1638" descent="-410" />
<missing-glyph horiz-adv-x="632" />
<glyph horiz-adv-x="0" />
<glyph horiz-adv-x="682" />
<glyph unicode=" "  horiz-adv-x="632" />
<glyph unicode="&#x09;" horiz-adv-x="632" />
<glyph unicode="&#xa0;" horiz-adv-x="632" />
<glyph unicode="!" horiz-adv-x="737" d="M199 39v6l30 242q1 20 14 32.5t31 12.5h287q16 0 26.5 -10t10.5 -27q0 -4 -2 -8l-29 -242q-3 -20 -16.5 -32.5t-30.5 -12.5h-287q-15 0 -24.5 11t-9.5 28zM285 487v2l73 957q6 48 50 53l299 41h10q35 0 35 -29v-8l-166 -1014q-7 -28 -37 -28h-236q-14 0 -21.5 7t-6.5 19z " />
<glyph unicode="&#x22;" horiz-adv-x="911" d="M215 1014v6l55 453q1 18 13.5 29t27.5 11h236q14 0 23.5 -9.5t9.5 -22.5v-8l-93 -453q-5 -18 -16.5 -29.5t-26.5 -11.5h-198q-12 0 -21.5 10t-9.5 25zM637 1014v6l57 453q1 18 13.5 29t27.5 11h236q12 0 22.5 -9.5t10.5 -22.5v-8l-95 -453q-3 -17 -15 -29t-26 -12h-198 q-14 0 -23.5 10t-9.5 25z" />
<glyph unicode="#" horiz-adv-x="1546" d="M213 469q0 6 4 18l41 131q12 33 51 33h189l82 271h-189q-39 0 -39 26q0 13 2 21l43 131q8 33 49 33h199l105 342q5 16 19.5 27t33.5 11h125q26 0 37.5 -4t11.5 -20q0 -7 -4 -23l-103 -333h209l105 342q5 16 19.5 27t33.5 11h125q26 0 37.5 -4t11.5 -20q0 -7 -4 -23 l-102 -333h180q41 0 41 -29q0 -13 -4 -19l-41 -131q-12 -32 -51 -32h-189l-82 -271h189q41 0 41 -26q0 -1 -5 -21l-41 -131q-12 -33 -51 -33h-198l-123 -403q-11 -37 -47 -37h-140q-41 0 -41 27q0 11 7 28l116 385h-207l-122 -403q-11 -37 -48 -37h-139q-41 0 -41 27 q0 13 6 28l117 385h-178q-41 0 -41 29zM725 651h207l82 271h-207z" />
<glyph unicode="$" horiz-adv-x="1439" d="M135 96q0 7 4 19l62 178q10 33 39 33q10 0 14 -2q288 -76 473 -76q139 0 213 57q66 51 66 137q0 91 -82 125q-50 23 -211 49q-235 34 -346 125q-113 92 -113 256v7q-2 80 24.5 170t71.5 155q128 181 445 207l24 203q2 15 15 30t30 15h174q14 0 24.5 -11t10.5 -28 q0 -4 -2 -6l-24 -203q184 -13 385 -74q26 -11 26 -35q0 -6 -4 -22l-55 -170q-8 -29 -39 -29q-19 0 -29 2q-217 62 -401 62q-151 0 -221 -47q-70 -46 -70 -138q0 -83 88 -120q19 -8 46.5 -15t45.5 -10.5t59 -10t56 -9.5q70 -11 111.5 -19.5t106 -30.5t108.5 -53 q137 -95 137 -299q0 -102 -36.5 -199t-105.5 -169q-140 -146 -405 -170l-25 -205q-3 -20 -16.5 -33.5t-28.5 -13.5h-174q-16 0 -24.5 12.5t-8.5 28.5v4l25 204q-52 2 -101.5 7t-90 12t-73 13.5t-62 15t-46 13.5t-36.5 12t-21 7q-33 9 -33 39z" />
<glyph unicode="%" horiz-adv-x="1847" d="M164 1028q0 106 24 205q28 132 101 205q102 102 299 102q192 0 270 -98q53 -69 53 -195q0 -121 -26 -225q-30 -118 -101 -186q-98 -101 -295 -101q-172 0 -253 78q-72 72 -72 215zM317 104q0 5 5 15l1212 1390q6 9 18 9q6 0 11 -5l143 -94q6 -6 6 -14q0 -4 -4 -12 l-1212 -1393q-6 -6 -17 -6q-8 0 -12 2l-143 96q-7 4 -7 12zM420 1040q0 -59 20 -85.5t72 -26.5q58 0 85.5 32.5t41.5 106.5q18 99 18 170v2q0 57 -20.5 82t-73.5 25q-50 0 -76.5 -23.5t-40.5 -77.5q-26 -89 -26 -205zM1120 268q0 85 25 203q28 134 102 205q99 102 297 102 q193 0 271 -98q55 -65 55 -195q0 -109 -29 -225q-30 -118 -98 -186q-101 -101 -297 -101q-173 0 -254 78q-72 72 -72 217zM1376 279q0 -59 20.5 -85t73.5 -26q58 0 85.5 32t39.5 105q19 105 19 170v2q0 57 -20.5 82t-71.5 25t-78 -23.5t-41 -75.5q-27 -106 -27 -206z" />
<glyph unicode="&#x26;" horiz-adv-x="1714" d="M166 348q0 175 102 283q107 109 303 123l7 59q-137 21 -213 94q-74 71 -74 195q0 94 42.5 177t119.5 142q162 119 454 119q123 0 223 -24q25 -3 25 -27q0 -15 -2 -23l-47 -178q-9 -33 -41 -33q-6 0 -10 2q-58 9 -117 9q-121 0 -188 -41q-80 -50 -80 -146q0 -111 131 -145 q46 -13 143 -24t119 -15q8 -1 12 -6t4 -10v-5l35 289q6 51 49 56l273 45q3 0 7.5 1t6.5 1q33 0 33 -33v-6l-41 -324l246 -26q13 -1 21.5 -8.5t8.5 -18.5l-2 -4l-18 -156q-3 -25 -37 -28l-252 -25l-27 -227q-10 -72 -10 -97q0 -49 27 -71q31 -17 80 -17q41 0 135 13h8 q23 0 23 -25l10 -150v-6q0 -37 -35 -47q-3 -1 -23.5 -6t-41 -9.5t-51.5 -10t-69.5 -8.5t-78.5 -3q-206 0 -287 84q-61 67 -61 189q0 49 12 147l35 281q-14 -14 -25 -15q-25 -3 -69.5 -8t-71.5 -8.5t-61.5 -8.5t-61.5 -11q-93 -20 -141 -60q-64 -53 -64 -147q0 -84 60 -125 q59 -43 190 -43q35 0 82 6h10q35 0 35 -41v-172q0 -21 -12 -34t-27 -17q-99 -17 -164 -17q-257 0 -401 82q-168 92 -168 293z" />
<glyph unicode="'" horiz-adv-x="497" d="M207 958v7l63 508q1 18 13.5 29t27.5 11h248q12 0 22.5 -9.5t10.5 -22.5q0 -6 -2 -8l-98 -508q-3 -18 -15.5 -29.5t-27.5 -11.5h-209q-14 0 -23.5 9.5t-9.5 24.5z" />
<glyph unicode="(" horiz-adv-x="722" d="M186 420q0 354 107 676q109 335 299 555q21 25 39 22h2q7 0 31 -12q157 -98 157 -100q10 -7 10 -19q0 -8 -2 -12q-183 -250 -262 -584q-63 -264 -63 -530q0 -143 24 -275q27 -151 95 -297v-8q0 -16 -17 -26l-192 -105q-8 -4 -23 -4h-4q-14 -2 -31 23q-86 136 -131 335 q-39 176 -39 361z" />
<glyph unicode=")" horiz-adv-x="722" d="M59 -168q0 4 4 12q186 258 263 584q63 267 63 533q0 139 -24 274q-28 155 -95 295v8q0 17 17 27l192 104q8 4 23 4h2q19 3 33 -22q85 -136 131 -336q39 -176 39 -361q0 -343 -107 -675q-116 -343 -299 -555q-25 -25 -39 -23h-2q-7 0 -31 12q-157 99 -157 101 q-13 9 -13 18z" />
<glyph unicode="*" horiz-adv-x="1646" d="M412 1004v6l20 161q4 41 45 41h8l299 -28l-180 186q-12 12 -12 27q0 18 24 33l154 100q17 10 29 10q17 0 30 -22l152 -238l209 238q22 22 37 22q9 0 26 -10l129 -100q19 -15 19 -27q0 -15 -21 -33l-225 -186l305 28h8q35 0 35 -32v-9l-20 -161q-2 -37 -45 -37h-6l-299 12 l180 -186q12 -15 12 -27q0 -19 -25 -33l-153 -100q-20 -10 -29 -10q-17 0 -33 20l-149 238l-211 -238q-16 -20 -37 -20q-11 0 -24 10l-129 100q-19 13 -19 27q0 15 21 33l221 186l-303 -12h-4q-39 0 -39 31z" />
<glyph unicode="+" d="M152 580v8l20 157q3 39 49 39h375l45 373q6 43 47 43h197q35 0 35 -33v-10l-46 -373h373q39 0 39 -32v-7l-20 -157q-3 -41 -49 -41h-373l-45 -373q-5 -43 -45 -43h-199q-35 0 -35 33q0 6 2 10l45 373h-377q-38 0 -38 33z" />
<glyph unicode="," horiz-adv-x="796" d="M188 -180l113 493q3 15 10 21t25 6h262q27 0 27 -16q0 -7 -2 -9l-144 -495q-5 -15 -11.5 -21t-23.5 -6h-229q-27 0 -27 19v8z" />
<glyph unicode="-" horiz-adv-x="845" d="M154 481v4l18 152q2 17 18 30t37 13h561q20 0 31.5 -10.5t11.5 -26.5v-6l-18 -152q-3 -19 -19.5 -30t-35.5 -11h-561q-14 0 -28.5 10t-14.5 27z" />
<glyph unicode="." horiz-adv-x="796" d="M207 33v4l31 246q2 15 17 25.5t36 10.5h293q20 0 32.5 -9t12.5 -23v-4l-31 -246q-2 -15 -17 -26t-36 -11h-293q-20 0 -33.5 10.5t-11.5 22.5z" />
<glyph unicode="/" horiz-adv-x="784" d="M41 -59q0 8 2 14l653 1673q9 25 35 25q6 0 8 -2l174 -37q21 -6 21 -23q0 -6 -4 -14l-654 -1675q-10 -23 -34 -23h-9l-174 39q-18 6 -18 23z" />
<glyph unicode="0" horiz-adv-x="1308" d="M158 391q0 111 23 235t65 210q62 129 190.5 196.5t354.5 67.5q282 0 399 -117q92 -92 92 -293q0 -99 -18 -210.5t-50 -194.5q-28 -73 -70.5 -127.5t-108 -97.5t-162 -65t-222.5 -22q-274 0 -391 111q-102 94 -102 307zM537 369q0 -95 32 -127q32 -35 111 -35q52 0 86 13 t56 46t34 75.5t23 113.5q24 168 24 258q0 77 -24 110q-28 43 -119 43q-95 0 -134 -48.5t-59 -170.5q-30 -184 -30 -278z" />
<glyph unicode="1" horiz-adv-x="776" d="M145 805v4l23 195q3 16 25 20l559 78h2q7 0 13.5 -6.5t6.5 -14.5v-2l-129 -1048q-2 -14 -12 -22.5t-25 -8.5h-291q-13 0 -21.5 8t-8.5 19v4l92 741l-215 16q-9 0 -14.5 5t-4.5 12z" />
<glyph unicode="2" horiz-adv-x="1271" d="M215 29l2 4l21 184q3 30 7 52t11.5 41.5t14 32.5t21.5 27.5t25.5 22.5t35.5 22t42.5 22.5t54 27t62.5 31.5l119 61l37 18.5t42 21.5t30.5 19t31.5 25q41 41 41 109q0 40 -29 65q-34 27 -127 27q-45 0 -89 -6t-72 -13.5t-77 -21.5t-79 -21q-6 -2 -16 -2q-21 0 -21 33 l-8 164v4q0 34 33 47q57 25 184 50.5t264 25.5q233 0 342 -92q84 -70 84 -203q0 -130 -61 -221q-43 -68 -115.5 -111.5t-194.5 -91.5l-241 -92l-4 -37l573 22h2q9 0 19 -9.5t10 -18.5v-4l-29 -209q0 -35 -31 -35h-886q-12 0 -20.5 8.5t-8.5 20.5z" />
<glyph unicode="3" horiz-adv-x="1196" d="M63 -453l15 115q6 60 45 62q6 0 18 2q271 12 402 75q168 82 168 267q0 61 -25.5 95t-77.5 52q-14 5 -31.5 9t-31 6.5t-38 5.5t-35.5 4t-41.5 4t-39.5 4q-24 2 -24 35v22l16 123q3 28 10.5 37t24.5 12q12 3 62 14.5t67.5 17t52 16.5t57 23t41.5 27q66 57 66 144 q0 67 -53 96q-47 27 -133 27q-64 0 -123.5 -14.5t-113.5 -35t-73 -24.5q-16 -4 -18 -4q-11 0 -15 8t-6 27l-8 164v4q0 34 33 47q66 28 200.5 58t270.5 30q201 0 313 -80q113 -83 113 -246q0 -123 -68 -223q-78 -113 -252 -143l-8 -62q137 -14 205 -84q70 -70 70 -190 q0 -103 -38 -199.5t-110 -167.5q-224 -218 -823 -221h-18q-25 0 -35.5 8t-10.5 31v22z" />
<glyph unicode="4" horiz-adv-x="1466" d="M106 27q1 2 3 4l28 245q2 19 10 29l547 750q13 20 29 20h543q8 0 14 -6.5t6 -13.5v-2l-100 -807h178q11 0 18 -7.5t7 -19.5v-4l-23 -184q-2 -14 -11 -22.5t-22 -8.5h-170l-49 -387q-2 -13 -10.5 -22t-20.5 -9h-297q-11 0 -17.5 7.5t-6.5 19.5v4l47 387h-678 q-11 0 -18 7.5t-7 19.5zM438 246h404l73 600h-63z" />
<glyph unicode="5" horiz-adv-x="1214" d="M76 -471l16 141q4 28 13 38.5t28 12.5q283 3 418 64q88 40 135 112.5t47 168.5q0 85 -53 129q-52 43 -166 43q-88 0 -278 -39h-3q-17 0 -34 24q-15 19 -15 39q0 4 2 6l142 785q1 7 9.5 14.5t14.5 7.5h807q25 0 25 -24v-7l-25 -202q-1 -13 -11 -22t-22 -9h-518l-59 -336 q86 23 188 23q187 0 285 -95q98 -98 98 -274q0 -214 -103 -358t-306 -215q-212 -75 -570 -70h-22q-30 0 -37 14q-6 9 -6 21v8z" />
<glyph unicode="6" horiz-adv-x="1310" d="M176 461q0 249 51 446q66 253 211 404q77 82 175.5 139.5t213.5 88t231 43.5t253 13q24 1 33.5 -7t9.5 -27q0 -13 -2 -19l-19 -147q-3 -30 -14 -38.5t-37 -10.5q-1 0 -51 -1.5t-85.5 -5.5t-92.5 -12.5t-112.5 -27.5t-104.5 -46q-192 -104 -244 -329l8 3q8 3 22.5 7.5 t33.5 10t44 11.5t51 10.5t57 7.5t60 3q186 0 281 -76q123 -93 123 -309q0 -110 -24.5 -219.5t-76.5 -188.5q-74 -113 -201.5 -162t-318.5 -49q-254 0 -364 119q-111 117 -111 369zM532 403q0 -107 43 -153q35 -41 107 -41q83 0 123.5 39.5t60.5 126.5q25 109 25 198 q0 73 -31 115q-35 41 -115 41q-53 0 -102.5 -13.5t-69.5 -23.5q-20 -63 -30 -155q-11 -93 -11 -134z" />
<glyph unicode="7" horiz-adv-x="1189" d="M123 -414q0 9 2 11q113 276 321 622t416 586h-686q-24 0 -24 26v5l26 208q2 14 10.5 22.5t20.5 8.5h1003q10 0 17.5 -9t7.5 -17v-2l-29 -234q-4 -33 -24 -63q-432 -558 -672 -1147q-16 -41 -41 -41h-319q-29 0 -29 24z" />
<glyph unicode="8" horiz-adv-x="1333" d="M150 340q0 162 79 264q53 68 129.5 103t151.5 38l8 66q-1 0 -20 2.5t-36 6.5t-40.5 11.5t-47.5 22t-44 33.5q-68 68 -68 188q0 87 30 168t89 141q153 156 475 156q270 0 391 -108q101 -85 101 -238q0 -149 -70 -242q-20 -27 -46 -49t-48 -35t-51.5 -24.5t-45.5 -15.5 t-42 -10t-29 -7l-6 -66q119 -9 196 -83q78 -81 78 -213q0 -92 -38 -182t-105 -152q-154 -142 -477 -142q-297 0 -420 117q-94 91 -94 250zM535 367q0 -83 40 -123q37 -35 117 -35q65 0 112.5 27t74.5 102q24 71 24 160q0 83 -43 123q-36 34 -115 34q-59 0 -103 -21t-73 -81 q-34 -72 -34 -186zM629 1040q0 -82 35 -112q33 -35 112 -35q63 0 105.5 22.5t66.5 85.5q27 71 27 158q0 63 -29 105q-34 43 -119 43q-37 0 -64.5 -6.5t-57.5 -30.5t-48 -66q-28 -66 -28 -164z" />
<glyph unicode="9" horiz-adv-x="1310" d="M90 -463l19 148q4 31 15 39t36 10q7 1 58 2.5t94.5 6.5t104.5 15.5t122 35t112 59.5q154 104 199 303l-8 -3q-8 -3 -22.5 -7.5t-33.5 -10.5t-44 -12t-51 -10.5t-57 -7.5t-61 -3q-211 0 -309 103q-94 94 -94 295q0 108 27 216.5t82 188.5q72 108 198.5 154.5t313.5 46.5 q256 0 368 -121q58 -64 83.5 -159.5t25.5 -239.5q0 -222 -60 -439q-68 -244 -217 -393q-77 -77 -174.5 -131t-210.5 -83.5t-226 -42t-247 -13.5q-24 0 -33.5 8.5t-9.5 26.5v18zM553 506q0 -73 31 -115q35 -41 112 -41q20 0 41.5 2.5t38 6t34.5 8.5t28 8.5t21 7.5l11 4 q19 64 31 158q8 65 8 133q0 106 -41 153q-36 39 -106 39q-84 0 -126 -39.5t-61 -125.5q-22 -96 -22 -199z" />
<glyph unicode=":" horiz-adv-x="796" d="M231 39q0 1 1 3t1 3l31 248q1 19 15 32t30 13h260q15 0 26 -11t11 -28q0 -1 -1 -3t-1 -3l-31 -248q-1 -19 -15 -32t-30 -13h-260q-15 0 -26 11t-11 28zM324 776v6l30 248q1 19 15 32t30 13h260q15 0 26 -11t11 -28v-6l-30 -248q-3 -20 -16.5 -32.5t-31.5 -12.5h-260 q-15 0 -24.5 11t-9.5 28z" />
<glyph unicode=";" horiz-adv-x="796" d="M184 -188q0 4 2 8l111 493q3 15 10 21t25 6h262q27 0 27 -16v-9l-146 -495q-5 -15 -11.5 -21t-23.5 -6h-229q-27 0 -27 19zM342 776v6l31 248q3 20 16.5 32.5t30.5 12.5h260q15 0 25 -11t10 -28v-6l-31 -248q-1 -19 -15 -32t-30 -13h-260q-15 0 -26 11t-11 28z" />
<glyph unicode="&#x3c;" d="M166 584v4l14 112q3 30 33 43l967 443q12 6 20 6q20 0 27 -18l73 -166q0 -2 1.5 -6.5t1.5 -6.5q0 -21 -27 -32l-791 -316l713 -315q19 -10 19 -29q0 -7 -7 -18l-112 -164q-14 -21 -31 -21q-11 0 -20 6l-859 445q-22 9 -22 33z" />
<glyph unicode="=" d="M190 362v7l21 159q2 18 17 30.5t36 12.5h885q21 0 33 -11.5t12 -27.5v-4l-20 -159q-1 -19 -19 -31t-35 -12h-884q-17 0 -31.5 10t-14.5 26zM244 793v6l18 159q3 18 18.5 30.5t36.5 12.5h885q20 0 32.5 -11.5t12.5 -26.5v-5l-20 -159q-1 -19 -18.5 -31t-34.5 -12h-887 q-15 0 -29 10.5t-14 26.5z" />
<glyph unicode="&#x3e;" d="M131 297q0 21 27 35l788 315l-710 316q-8 2 -14.5 9t-6.5 17t6 19l115 166q11 18 31 18q8 0 20 -6l856 -443q23 -10 23 -34v-9l-15 -112q-4 -25 -30 -37l-967 -445q-12 -6 -21 -6q-17 0 -28 21l-72 164q-2 4 -2 12z" />
<glyph unicode="?" d="M303 1432q0 31 35 41q35 12 89 25t160 27.5t210 14.5q212 0 331 -55q170 -78 170 -273q0 -113 -55 -196q-34 -51 -85.5 -92t-129.5 -88q-21 -13 -56.5 -33.5t-53 -31.5t-42.5 -30t-37.5 -35.5t-23.5 -41.5t-14 -54q-2 -17 -6 -104q0 -41 -50 -41h-251q-8 0 -13 1.5t-8 3 t-4.5 6t-2 6.5t-1 9t-0.5 9q-4 24 -4 71q0 28 4 78q7 58 28 103.5t58 83t72.5 63t93.5 59.5q102 58 141 95q51 54 51 112q0 74 -67 103q-53 22 -148 22q-44 0 -100 -6.5t-96 -13.5t-85 -16.5t-53 -10.5q-4 -2 -12 -2q-12 0 -19.5 7t-8.5 10.5t-3 13.5l-12 139q0 3 -1 10 t-1 11zM399 39q0 1 1 3t1 3l29 242q3 20 16.5 32.5t30.5 12.5h287q15 0 25 -10t10 -27v-8l-31 -242q-1 -20 -14 -32.5t-31 -12.5h-287q-15 0 -26 11t-11 28z" />
<glyph unicode="@" horiz-adv-x="1966" d="M195 559q0 176 37.5 355.5t113.5 299.5q104 167 301.5 246.5t523.5 79.5q405 0 590 -127q199 -135 199 -448q0 -74 -14 -207q-11 -93 -35 -199q-5 -17 -21 -31t-39 -14h-100q-23 0 -35 13t-12 32v8q25 100 35 191q12 102 12 184q0 194 -88 289q-65 69 -189.5 102 t-324.5 33q-198 0 -329 -32t-214 -101q-107 -86 -155 -272q-50 -183 -50 -383q0 -124 33.5 -206.5t110.5 -133.5q137 -91 454 -91q100 0 224 15h8q21 0 32 -14t11 -31v-4l-8 -80q-3 -20 -20 -32.5t-38 -14.5q-147 -13 -229 -13q-441 0 -625 156q-159 135 -159 430zM657 551 q0 113 60 188q36 47 90 69.5t125 33.5l272 41l4 35q0 3 1 10t1 10q0 42 -29 57t-96 15q-88 0 -264 -43q-4 -2 -12 -2q-15 0 -18 14l-11 121l-2 4q0 21 25 31q26 9 70.5 21t130 25t165.5 13q165 0 244.5 -50.5t79.5 -158.5q0 -13 -4 -45l-53 -432q-10 -87 -48 -117t-133 -51 t-233 -21q-188 0 -270 48q-95 55 -95 184zM944 573q0 -41 29 -63q29 -21 86 -21q35 0 71 5.5t44 9.5l26 225l-143 -24q-36 -5 -56 -13t-34 -28q-23 -36 -23 -91z" />
<glyph unicode="A" horiz-adv-x="1638" d="M37 25q0 6 2 8l639 1454q11 26 37 26h581q26 0 33 -24l279 -1456v-4q0 -12 -10.5 -20.5t-24.5 -8.5h-326q-14 0 -25 11t-14 24l-73 473h-512l-191 -477q-12 -31 -43 -31h-321q-12 0 -21.5 7.5t-9.5 17.5zM727 774h369l-78 483h-94z" />
<glyph unicode="B" horiz-adv-x="1607" d="M195 29v4l178 1448q1 13 13.5 22.5t27.5 9.5h743q272 0 373 -104q67 -70 67 -217q0 -132 -65 -227q-89 -128 -318 -158l-8 -66q196 -17 269 -73q44 -33 65 -82.5t21 -128.5q0 -183 -111 -297q-147 -160 -508 -160h-715q-13 0 -22.5 8.5t-9.5 20.5zM608 258h289 q169 0 229 82q41 53 41 154q0 88 -59 118q-48 23 -156 29l-297 10zM684 881l297 14q140 6 190 88q33 56 33 141v2q0 67 -37 97q-40 32 -139 32h-299z" />
<glyph unicode="C" horiz-adv-x="1445" d="M199 549q0 182 39 372.5t118 317.5q94 154 257.5 223.5t418.5 69.5q47 0 93.5 -2.5t81.5 -5.5t74 -9.5t61.5 -10.5t55.5 -12.5t44 -11.5t38.5 -11.5t28.5 -8.5q33 -12 33 -37q0 -4 -4 -20l-55 -176q-6 -25 -37 -25q-10 0 -16 2q-3 1 -40.5 10.5t-66 15.5t-72.5 14.5 t-89.5 13t-86.5 4.5q-171 0 -267 -56t-144 -178q-33 -85 -52.5 -209t-19.5 -225q0 -189 86 -264q84 -72 274 -72q142 0 367 51q12 4 18 4q28 0 31 -26l12 -174v-9q0 -35 -45 -47q-216 -69 -491 -69q-371 0 -518 153q-127 130 -127 408z" />
<glyph unicode="D" horiz-adv-x="1701" d="M195 29v4l178 1448q1 13 13 22.5t26 9.5h665q337 0 482 -139q131 -128 131 -413q0 -263 -76 -498q-74 -235 -244 -349t-479 -114h-666q-12 0 -21 8.5t-9 20.5zM608 258h273q162 0 243.5 65t122.5 234q49 194 49 391q0 154 -45 221q-33 48 -92 68t-155 20h-273z" />
<glyph unicode="E" horiz-adv-x="1423" d="M195 29v4l178 1448q1 13 13.5 22.5t27.5 9.5h1022q30 0 30 -26v-4l-26 -213q-2 -14 -12 -22.5t-25 -8.5h-676l-39 -330h643q31 0 31 -24v-4l-27 -215q-1 -14 -12 -22.5t-25 -8.5h-645l-43 -363h674q14 0 22.5 -7t8.5 -19v-4l-27 -211q-1 -13 -12 -22t-25 -9h-1024 q-13 0 -22.5 8.5t-9.5 20.5z" />
<glyph unicode="F" horiz-adv-x="1290" d="M195 29v4l178 1448q1 13 13.5 22.5t27.5 9.5h972q14 0 22.5 -7t8.5 -19v-4l-26 -213q-2 -14 -12 -22.5t-25 -8.5h-627l-49 -416h557q14 0 22.5 -7t8.5 -19v-4l-27 -213q-1 -13 -12 -22t-25 -9h-559l-63 -516q-1 -13 -13.5 -23t-27.5 -10h-312q-13 0 -22.5 8.5t-9.5 20.5z " />
<glyph unicode="G" horiz-adv-x="1656" d="M197 547q0 160 32 328t95 292q98 197 280.5 285t472.5 88q278 0 551 -84q35 -11 35 -37q0 -6 -4 -22l-55 -166q-11 -27 -41 -27q-11 0 -17 2q-7 1 -53.5 12.5t-92.5 21t-121.5 18t-148.5 8.5q-87 0 -151 -9.5t-123 -34t-102.5 -70t-75.5 -114.5q-41 -88 -62.5 -212 t-21.5 -238q0 -197 82 -279q81 -78 291 -78q40 0 85 3.5t70 7.5l25 4l45 364l-225 29q-12 2 -21.5 9.5t-9.5 17.5v4l25 194q2 12 12.5 21.5t23.5 9.5h564q13 0 22.5 -8.5t9.5 -20.5l-2 -4l-80 -655q-10 -85 -41.5 -126.5t-117.5 -62.5q-76 -18 -198 -31.5t-234 -13.5 q-354 0 -519 103q-108 65 -156 180t-48 291z" />
<glyph unicode="H" horiz-adv-x="1763" d="M195 27v4l178 1442q3 25 37 28l321 39h4q12 0 19.5 -8t7.5 -19v-4l-74 -594h612l68 558q6 25 39 28l322 39h4q12 0 19 -8t7 -19q0 -2 -2 -4l-180 -1478q-1 -13 -12.5 -22t-26.5 -9h-315q-14 0 -23 8.5t-8 18.5v4l74 606h-613l-73 -606q-1 -13 -12 -22t-25 -9h-318 q-13 0 -21.5 7.5t-8.5 19.5z" />
<glyph unicode="I" horiz-adv-x="768" d="M195 27v4l178 1442q3 25 37 28l321 39h4q12 0 19.5 -8t7.5 -19v-4l-182 -1478q-1 -13 -12 -22t-25 -9h-318q-13 0 -21.5 7.5t-8.5 19.5z" />
<glyph unicode="J" horiz-adv-x="770" d="M-174 -379q0 8 2 12l16 134q3 25 14 33t40 10q71 0 112 4q32 2 47.5 3.5t40.5 7t38 16t28.5 28t24 45.5t12.5 66l184 1493q3 24 37 28l319 39h4q12 0 19.5 -6.5t7.5 -17.5v-7l-186 -1517q-13 -100 -46.5 -175t-79.5 -121t-110 -74t-128.5 -38t-143.5 -10q-54 0 -93.5 1.5 t-55 3t-36.5 4t-26 3.5q-21 2 -31 8.5t-10 26.5z" />
<glyph unicode="K" horiz-adv-x="1556" d="M195 27v4l178 1452q1 13 12.5 21.5t26.5 8.5h315q14 0 22.5 -7t8.5 -19v-4l-72 -586h100l482 598q14 18 39 18l368 -4q8 0 15.5 -9t7.5 -21t-8 -23l-600 -692l460 -711q4 -8 4 -14q0 -15 -10.5 -27t-21.5 -12h-383q-32 0 -41 18l-344 603h-103l-71 -590q-1 -13 -12 -22 t-25 -9h-318q-13 0 -21.5 7.5t-8.5 19.5z" />
<glyph unicode="L" horiz-adv-x="1288" d="M195 27v4l178 1442q3 25 37 28l321 39h4q12 0 19.5 -8t7.5 -19v-4l-152 -1224h643q29 0 29 -27v-4l-27 -223q-1 -13 -11.5 -22t-24.5 -9h-994q-13 0 -21.5 7.5t-8.5 19.5z" />
<glyph unicode="M" horiz-adv-x="2215" d="M137 33q0 1 1 3t1 3l297 1436q3 17 17 27.5t32 10.5h586q18 0 28.5 -11t12.5 -29l84 -814h10l287 816q5 16 18 27t31 11h555q18 0 29.5 -10.5t11.5 -27.5l-51 -1436q-1 -17 -15.5 -28t-33.5 -11h-299q-17 0 -28 10t-11 25v4l90 1214h-59l-371 -958q-16 -39 -49 -39h-361 q-33 0 -41 39l-116 958h-62l-227 -1214q-3 -17 -15.5 -28t-31.5 -11h-279q-18 0 -29.5 9t-11.5 24z" />
<glyph unicode="N" horiz-adv-x="1816" d="M195 27v4l178 1452q2 12 14 21t27 9h610q32 0 39 -26l197 -1278h36l134 1266q3 24 16.5 31t38.5 7h276q24 0 35.5 -5.5t11.5 -24.5v-8l-178 -1444q-1 -13 -12 -22t-25 -9h-604q-15 0 -25 9.5t-12 23.5l-196 1196h-64l-117 -1198q0 -13 -10.5 -22t-25.5 -9h-314 q-13 0 -21.5 7.5t-8.5 19.5z" />
<glyph unicode="O" horiz-adv-x="1734" d="M199 547q0 145 26.5 304t75.5 277q42 100 104 174.5t152.5 128.5t215 81.5t284.5 27.5q358 0 514 -141q153 -133 153 -432q0 -162 -34.5 -340.5t-98.5 -300.5q-59 -115 -150.5 -191.5t-236 -119t-340.5 -42.5q-333 0 -493 123q-92 71 -132 183t-40 268zM590 524 q0 -172 82 -237q72 -54 223 -54q122 0 199.5 35t120 102.5t67.5 182.5q51 223 51 430q0 161 -65 229q-70 70 -242 70q-128 0 -206.5 -38t-119.5 -110.5t-67 -199.5q-43 -218 -43 -410z" />
<glyph unicode="P" horiz-adv-x="1513" d="M195 27v4l178 1450q1 13 13.5 22.5t27.5 9.5h753q260 0 361 -118q76 -88 76 -248q0 -120 -35 -236q-37 -137 -129 -223q-137 -125 -411 -125h-13h-8l-363 2l-65 -534q-1 -13 -12 -22t-25 -9h-318q-13 0 -21.5 7.5t-8.5 19.5zM674 801l229 8q91 3 144 15t86 42 q36 33 55 111q14 65 14 113q0 83 -35 118q-29 31 -81.5 39t-153.5 8h-201z" />
<glyph unicode="Q" horiz-adv-x="1734" d="M199 545q0 146 27 305t77 280q57 134 148 222t243 138t363 50q352 0 508 -135q159 -134 159 -444q0 -273 -82 -512q-35 -104 -86.5 -182.5t-128.5 -140t-184.5 -98.5t-245.5 -48l15 -138h360q29 0 29 -26v-6l-25 -199q-2 -14 -12 -23.5t-25 -9.5h-331q-39 0 -72 8.5 t-58 21t-46.5 35t-36 43.5t-27 53t-20 56.5t-14.5 62t-10.5 61t-8.5 61.5q-261 26 -385 153q-131 134 -131 412zM590 530q0 -165 69 -231t236 -66q182 0 266.5 75.5t122.5 252.5q49 230 49 426q0 167 -73 232q-69 63 -234 63q-117 0 -192.5 -31.5t-118 -93t-68.5 -164.5 q-24 -95 -40.5 -229.5t-16.5 -233.5z" />
<glyph unicode="R" horiz-adv-x="1640" d="M195 27v4l178 1450q1 13 13.5 22.5t27.5 9.5h719q242 0 360 -77q123 -85 123 -273q0 -175 -82 -286q-94 -126 -328 -152l-6 -61q172 -6 246 -56q84 -63 84 -221q0 -51 -8 -145l-17 -209q0 -2 -5 -9.5t-13.5 -15.5t-16.5 -8h-321q-12 0 -21.5 7.5t-9.5 17.5v2l19 241 q8 108 8 148q0 83 -72 116q-57 29 -205 33l-223 6l-65 -540q-1 -13 -12 -22t-25 -9h-318q-13 0 -21.5 7.5t-8.5 19.5zM674 801l256 12q167 9 229 82q55 66 55 184q0 95 -43 133q-46 43 -165 43h-275z" />
<glyph unicode="S" horiz-adv-x="1445" d="M158 96q0 13 2 17l49 170q10 34 41 34q14 0 22 -2q5 -1 42.5 -10.5t76 -18t90 -18.5t107.5 -16t106 -6q170 0 236 63q53 50 53 135q0 81 -80 117q-11 5 -22.5 9t-27 8t-27 6.5t-32 6.5t-31 5.5t-35 5.5t-34.5 6q-222 33 -321 117q-117 89 -117 272q0 106 37 208t108 173 q161 158 514 158q107 0 222 -16t170.5 -29t93.5 -25q39 -9 39 -41q0 -12 -2 -18l-52 -168q-11 -33 -40 -33h-9q-7 2 -55 13t-60.5 13.5t-53 11t-61 11.5t-55 7.5t-64.5 6t-62 1.5q-135 0 -201 -41q-76 -49 -76 -146q0 -83 92 -120q53 -18 203 -41q113 -17 194.5 -41.5 t139.5 -73.5q108 -88 108 -291q0 -205 -116 -338q-168 -201 -545 -201q-128 0 -258 18t-190.5 33.5t-90.5 26.5q-28 8 -28 41z" />
<glyph unicode="T" horiz-adv-x="1386" d="M170 1266q0 1 1 2t1 2l25 213q1 13 12.5 21.5t26.5 8.5h1286q30 0 30 -26v-4l-26 -213q-2 -14 -12 -22.5t-25 -8.5h-451l-149 -1208q-2 -14 -12 -22.5t-25 -8.5h-315q-14 0 -23 7.5t-8 19.5v4l147 1208h-452q-14 0 -22.5 7.5t-8.5 19.5z" />
<glyph unicode="U" horiz-adv-x="1687" d="M227 414q0 34 3 74.5t5.5 67.5t8.5 75.5t8 66.5l100 772q3 26 37 29l322 41h6q11 0 17.5 -7t6.5 -17v-7l-104 -817q-25 -196 -25 -260q0 -119 80 -164q62 -35 182 -35q161 0 232.5 63.5t87.5 195.5l119 978q6 26 39 29l321 41h4q12 0 19.5 -6.5t7.5 -17.5q0 -5 -2 -7 l-121 -995q-18 -147 -76 -252t-154.5 -168t-221.5 -92t-287 -29q-269 0 -420 80q-195 106 -195 361z" />
<glyph unicode="V" horiz-adv-x="1581" d="M219 1470q0 12 14 27.5t23 15.5h322q23 0 33.5 -7t13.5 -29l163 -1219h84l447 1219q9 22 21 29t36 7h324q8 0 16 -10t8 -22q0 -6 -2 -8l-589 -1440q-11 -33 -41 -33h-578q-29 0 -33 33l-260 1433q0 1 -1 2t-1 2z" />
<glyph unicode="W" horiz-adv-x="2398" d="M250 1466v2q-1 13 12 29t23 16h311q25 0 35.5 -6.5t11.5 -29.5l53 -1211h62l338 1090q5 15 17 26t28 11h481q17 0 27 -11t12 -26l55 -1090h62l354 1211q7 23 19.5 29.5t37.5 6.5h299q8 0 15.5 -10t7.5 -22v-8l-465 -1436q-12 -37 -47 -37h-559q-35 0 -39 37l-70 1077 l-340 -1077q-11 -37 -47 -37h-547q-16 0 -25.5 11t-11.5 26z" />
<glyph unicode="X" horiz-adv-x="1568" d="M20 33v12l586 733l-385 682q-2 4 -2 10q0 14 14.5 28.5t22.5 14.5h371q21 0 29.5 -6.5t17.5 -29.5l239 -494l338 494q15 22 25.5 29t30.5 7h335q12 0 18.5 -8.5t6.5 -19.5q0 -17 -6 -23l-524 -665l417 -752q5 -10 5 -14q0 -12 -11 -21.5t-26 -9.5h-385q-27 0 -39 23 l-264 569l-408 -569q-15 -23 -43 -23h-342q-21 0 -21 33z" />
<glyph unicode="Y" horiz-adv-x="1546" d="M178 1470q0 13 14.5 28t20.5 15h365q21 0 29.5 -6.5t17.5 -29.5l272 -621l410 621q13 23 23 29.5t32 6.5h348q12 0 18.5 -8.5t6.5 -19.5q0 -15 -4 -23l-687 -907l-63 -524q-1 -13 -12 -22t-25 -9h-317q-14 0 -22.5 7.5t-8.5 19.5v4l63 520l-479 909q-2 4 -2 10z" />
<glyph unicode="Z" horiz-adv-x="1445" d="M104 27v4l23 190q3 27 27 55l854 965h-734q-28 0 -28 27v4l24 211q1 13 12 21.5t25 8.5h1176q14 0 22.5 -8t7.5 -18v-4l-24 -207q-2 -20 -21 -43l-864 -961h754q14 0 22.5 -7t8.5 -19q-1 -2 -3 -4l-24 -211q-1 -13 -12 -22t-25 -9h-1190q-14 0 -23 8.5t-8 18.5z" />
<glyph unicode="[" horiz-adv-x="780" d="M125 -156l207 1686q3 18 13 30t22 15l395 98q4 2 12 2q22 0 29 -20l43 -156q2 -4 2 -8q0 -11 -8 -20t-17 -13l-202 -78l-170 -1386l184 -78q16 -11 16 -25q0 -4 -4 -16l-82 -156q-10 -20 -33 -20q-8 0 -12 2l-370 98q-25 7 -25 37v8z" />
<glyph unicode="\" horiz-adv-x="677" d="M78 1561q0 19 26 28l218 78q4 2 14 2q21 0 24 -20l414 -1774q2 -2 2 -8q0 -23 -26 -29l-218 -78q-4 -2 -14 -2q-21 0 -24 21l-414 1773q-2 2 -2 9z" />
<glyph unicode="]" horiz-adv-x="780" d="M102 -117q0 21 23 33l205 78l170 1386l-185 78q-16 8 -16 27q0 8 2 14l82 156q13 20 35 20q8 0 12 -2l371 -98q22 -7 22 -37v-8l-207 -1686q-3 -37 -34 -45l-396 -98q-4 -2 -12 -2q-22 0 -29 20l-43 156v8z" />
<glyph unicode="^" d="M139 666q0 4 8 20l545 803q16 24 49 24h166q30 0 39 -24l348 -803q4 -12 4 -14q0 -21 -24 -31l-193 -82q-6 -4 -18 -4t-20.5 6t-10.5 14l-246 658l-403 -658q-8 -20 -37 -20q-10 0 -16 4l-172 82q-19 11 -19 25z" />
<glyph unicode="_" horiz-adv-x="1132" d="M-31 -256l17 139h1134l-18 -139h-1133z" />
<glyph unicode="`" horiz-adv-x="768" d="M324 1499q0 8 6 17l123 139q9 12 22 12q8 0 14 -6l306 -231q8 -5 8 -15t-6 -16l-111 -129q-10 -10 -22 -10q-7 0 -15 4l-317 221q-8 5 -8 14z" />
<glyph unicode="a" horiz-adv-x="1425" d="M55 23q0 4 2 8l510 1112q7 18 31 18h518q23 0 27 -18l233 -1112v-6q0 -9 -8 -17t-20 -8h-301q-11 0 -21.5 10t-13.5 23l-58 340h-393l-143 -344q-5 -12 -16 -20.5t-23 -8.5h-293q-12 0 -21.5 7t-9.5 16zM655 604h260l-55 324h-67z" />
<glyph unicode="b" horiz-adv-x="1353" d="M176 27l2 2l135 1104q1 12 12 20t25 8h600q196 0 285 -63q84 -60 84 -187q0 -118 -62 -188q-41 -47 -106.5 -69.5t-157.5 -30.5l-4 -50q160 -7 225 -51q78 -47 78 -160q0 -142 -86 -231q-122 -131 -422 -131h-575q-13 0 -23 8t-10 19zM551 229h203q122 0 159 60 q23 35 23 94q0 53 -25 70q-26 21 -123 24l-204 8zM608 690l205 10q53 3 83.5 17.5t47.5 46.5q19 44 19 84q0 44 -23 61q-26 23 -94 23h-209z" />
<glyph unicode="c" horiz-adv-x="1243" d="M180 430q0 138 31 281t94 239q77 118 210 172t339 54q208 0 391 -58q33 -11 33 -33q0 -4 -4 -20l-51 -156q-9 -22 -37 -22q-11 0 -17 2q-5 1 -47.5 11.5t-57 13.5t-50 9.5t-66 8.5t-65.5 2q-133 0 -202 -41.5t-101 -140.5q-43 -125 -43 -293q0 -127 59 -178 q62 -50 201 -50q43 0 88.5 5.5t69.5 10t76.5 17t64.5 15.5q6 2 16 2q28 0 31 -23l12 -158v-6q0 -33 -43 -45q-193 -57 -403 -57q-305 0 -428 123q-101 107 -101 315z" />
<glyph unicode="d" horiz-adv-x="1427" d="M176 27l2 2l135 1104q1 12 12 20t25 8h537q284 0 401 -117q103 -100 103 -323q0 -118 -25 -242t-74 -215q-69 -133 -200 -198.5t-347 -65.5h-536q-13 0 -23 8t-10 19zM553 229h188q122 0 179.5 49t87.5 193q26 133 26 252q0 116 -37 158q-23 29 -63.5 40t-106.5 11h-188z " />
<glyph unicode="e" horiz-adv-x="1210" d="M176 27l2 2l135 1104q1 12 12 20t25 8h834q14 0 23.5 -7t9.5 -19v-2l-25 -187q-2 -12 -13 -21.5t-24 -9.5h-518l-25 -200h494q12 0 21.5 -7.5t9.5 -19.5v-2l-23 -188q-1 -12 -13 -20.5t-26 -8.5h-493l-29 -225h520q12 0 21.5 -7.5t9.5 -19.5v-2l-23 -184q-1 -13 -13 -22 t-26 -9h-833q-13 0 -23 8t-10 19z" />
<glyph unicode="f" horiz-adv-x="1107" d="M176 27l2 4l135 1102q1 12 12 20t25 8h797q13 0 22 -7t9 -19v-2l-23 -187q-1 -13 -13 -22t-26 -9h-479l-33 -264h426q14 0 23.5 -7t9.5 -19l-2 -2l-23 -189q-1 -12 -12 -20t-25 -8h-428l-45 -361q-1 -20 -18.5 -32.5t-38.5 -12.5h-262q-13 0 -23 8t-10 19z" />
<glyph unicode="g" horiz-adv-x="1394" d="M178 426q0 136 30.5 273t92.5 235q82 130 225.5 189t362.5 59q109 0 219.5 -15t158.5 -27t79 -22q26 -12 26 -31q0 -10 -2 -16l-55 -162q-5 -20 -31 -20q-10 0 -14 2q-4 1 -34.5 7.5t-58.5 12t-69 12t-88.5 10t-93.5 3.5q-125 0 -200 -28t-118 -107q-34 -63 -51.5 -158 t-17.5 -184q0 -138 53 -191q56 -59 217 -59q21 0 49 2t47 4.5t21 3.5l28 236l-170 24q-30 4 -30 25v2l20 172q1 12 13 20.5t24 8.5h477q12 0 21.5 -8.5t9.5 -18.5v-4l-62 -500q-8 -70 -38 -107t-107 -55q-147 -34 -344 -34q-314 0 -449 98q-141 104 -141 348z" />
<glyph unicode="h" horiz-adv-x="1474" d="M176 27l2 4l131 1077q3 23 35 27l293 47h6q10 0 16.5 -7t6.5 -18v-2l-54 -434h428l47 387q3 23 37 27l293 47h4q11 0 17.5 -7.5t5.5 -17.5v-2l-137 -1124q-1 -13 -13 -22t-26 -9h-281q-14 0 -23 8.5t-8 18.5v4l54 440h-428l-54 -440q-1 -13 -13 -22t-26 -9h-280 q-13 0 -23 8t-10 19z" />
<glyph unicode="i" horiz-adv-x="696" d="M176 27l2 4l131 1077q3 23 35 27l293 47h6q10 0 16.5 -7t6.5 -18v-2l-140 -1124q-1 -13 -12 -22t-25 -9h-280q-13 0 -23 8t-10 19z" />
<glyph unicode="j" horiz-adv-x="704" d="M-113 -336q0 6 2 10l15 123q3 18 10 23q8 10 43 10q74 5 86 6l30 3t26.5 4.5t24.5 8t19.5 13.5t17.5 22t12 31.5t9 42.5l142 1147q3 22 34 29l293 45q12 4 17 4q12 0 12 -19v-12l-148 -1202q-10 -80 -38.5 -140t-67.5 -96.5t-92.5 -59t-106 -30.5t-116.5 -8 q-131 0 -185 12q-15 3 -21 4.5t-12 8.5t-6 20z" />
<glyph unicode="k" horiz-adv-x="1363" d="M176 27l2 4l135 1099q1 13 12 22t25 9h283q12 0 21.5 -8t9.5 -18l-2 -5l-52 -423h80l352 436q11 18 37 18l334 -4q8 0 15.5 -9t7.5 -20q0 -2 -9 -20l-450 -510l356 -549q4 -4 4 -14q0 -12 -9.5 -23.5t-18.5 -11.5h-355q-13 0 -24.5 6t-14.5 12l-249 439h-86l-54 -426 q-1 -13 -12 -22t-25 -9h-280q-13 0 -23 8t-10 19z" />
<glyph unicode="l" horiz-adv-x="1105" d="M176 27l2 4l131 1077q3 23 35 27l293 47h6q10 0 16.5 -7t6.5 -18v-2l-111 -901h494q12 0 21 -7.5t9 -19.5v-2l-24 -194q-1 -13 -13 -22t-26 -9h-807q-13 0 -23 8t-10 19z" />
<glyph unicode="m" horiz-adv-x="1878" d="M133 31v6l219 1087q3 17 16 27t31 10h521q34 0 38 -37l52 -571h18l178 571q11 37 47 37h492q17 0 28 -10t11 -25v-2l-31 -1087q0 -17 -13.5 -27t-31.5 -10h-268q-17 0 -28 9.5t-9 23.5v4l74 893h-68l-246 -699q-15 -34 -49 -34h-317q-35 0 -39 36l-76 697h-68l-147 -895 q-3 -15 -15.5 -25t-29.5 -10h-252q-15 0 -26 9t-11 22z" />
<glyph unicode="n" horiz-adv-x="1595" d="M176 27l2 2l137 1104q1 12 13 20t26 8h531q18 0 33 -9t18 -28l156 -936h30l97 942q0 13 11 22t25 9h275q14 0 23 -8t8 -18v-5l-134 -1085q-1 -21 -17.5 -33t-37.5 -12h-506q-20 0 -33.5 12t-15.5 29l-147 864h-68l-78 -876q-1 -12 -12 -20.5t-25 -8.5h-278 q-14 0 -23.5 7.5t-9.5 19.5z" />
<glyph unicode="o" horiz-adv-x="1454" d="M180 438q0 122 26 251t77 220q74 135 214.5 204t374.5 69q277 0 406 -101q76 -57 108.5 -143t32.5 -211q0 -128 -30.5 -266t-88.5 -232q-76 -123 -214 -186t-361 -63q-280 0 -412 104q-133 106 -133 354zM535 410q0 -113 55 -160q48 -39 164 -39q131 0 189.5 52.5 t86.5 187.5q33 165 33 297q0 116 -51 161q-52 43 -168 43q-124 0 -182.5 -46.5t-86.5 -162.5q-17 -68 -28.5 -164t-11.5 -169z" />
<glyph unicode="p" horiz-adv-x="1282" d="M176 27l2 4l135 1102q1 12 12 20t25 8h606q233 0 316 -110q49 -67 49 -185q0 -112 -33 -202q-39 -97 -100 -150q-115 -98 -335 -98h-13h-265l-49 -385q-1 -13 -12 -22t-25 -9h-280q-13 0 -23 8t-10 19zM600 627l154 6q100 4 135 24q23 12 39 37q16 26 24 64q9 52 9 71 q0 52 -23 72q-18 19 -55.5 25t-112.5 6h-131z" />
<glyph unicode="q" horiz-adv-x="1454" d="M178 430q0 128 28.5 260.5t82.5 227.5q74 130 213.5 197t369.5 67q285 0 416 -109q129 -107 129 -336q0 -111 -21.5 -234t-60.5 -212q-60 -135 -174 -213t-303 -98l2 -86h264q20 0 32.5 -10.5t12.5 -30.5v-7l-18 -141q-3 -20 -19 -33.5t-38 -13.5h-258q-47 0 -84 13.5 t-62 40t-42.5 54.5t-29.5 69.5t-18 71.5t-12 73q-209 23 -303 122q-107 110 -107 328zM535 403q0 -114 51 -157q49 -43 166 -43q130 0 188.5 51.5t85.5 179.5q37 170 37 311q0 109 -43 158q-49 49 -176 49q-124 0 -182.5 -46.5t-86.5 -162.5q-40 -154 -40 -340z" />
<glyph unicode="r" horiz-adv-x="1390" d="M176 27l2 4l135 1102q1 12 12 20t25 8h590q213 0 309 -71q92 -67 92 -209q0 -131 -59 -209q-71 -95 -258 -115l-6 -47q151 -6 205 -53q53 -47 53 -160q0 -37 -4 -111l-12 -155q0 -2 -4.5 -9t-12.5 -14.5t-16 -7.5h-295q-12 0 -21 7t-8 16v2l21 297v8q0 22 -8 38t-25.5 26 t-33 16t-43 9t-42 3.5l-43.5 1.5l-154 4l-49 -397q-1 -13 -12 -22t-25 -9h-280q-13 0 -23 8t-10 19zM602 633l176 8q127 6 166 59q31 44 31 121q0 63 -37 88q-38 23 -104 23h-195z" />
<glyph unicode="s" horiz-adv-x="1226" d="M145 84q0 3 1 8t1 8l46 148q10 31 38 31q11 0 23 -3q10 -2 72.5 -16t92 -20t82.5 -12.5t95 -6.5q118 0 162 41q35 28 35 82q0 30 -27 53q-22 18 -76 29q-69 12 -78 14q-28 4 -84 15q-138 28 -209 84q-98 77 -98 215q0 92 34.5 176t102.5 139q133 111 402 111 q188 0 399 -54q37 -10 37 -41q0 -10 -2 -16l-49 -149q-3 -13 -13.5 -22t-23.5 -9h-8q-8 2 -40 9t-47 10t-45.5 9t-51 9t-48 7t-53 5.5t-49.5 1.5q-93 0 -139 -25q-49 -28 -49 -84q0 -39 32 -61q20 -12 74 -25q38 -6 78 -12q32 -7 82 -14q125 -23 192 -64q121 -74 121 -235 q0 -195 -125 -309q-141 -127 -418 -127q-141 0 -265.5 21.5t-174.5 39.5q-29 10 -29 39z" />
<glyph unicode="t" horiz-adv-x="1185" d="M154 942v4l24 187q1 12 12 20t25 8h1040q14 0 23 -7t8 -19v-2l-22 -187q-1 -12 -13 -21.5t-26 -9.5h-344l-109 -884q-1 -13 -13 -22t-26 -9h-280q-14 0 -23 8.5t-8 18.5v4l108 884h-344q-13 0 -22.5 8t-9.5 19z" />
<glyph unicode="u" horiz-adv-x="1417" d="M203 342q0 27 2.5 53.5t7.5 63.5t6 49l76 600q3 23 35 27l293 47h4q11 0 17 -7.5t5 -17.5v-2l-82 -661q0 -4 -7 -62t-7 -86q0 -74 43 -104q47 -29 139 -29q115 0 162.5 40t58.5 130l88 725q3 23 37 27l293 47h4q10 0 16.5 -7t6.5 -18v-2l-92 -747q-14 -117 -62.5 -200.5 t-128 -133t-180.5 -72t-231 -22.5q-241 0 -359 73q-145 85 -145 289z" />
<glyph unicode="v" horiz-adv-x="1349" d="M195 1118v2q0 12 12.5 26.5t21.5 14.5h291q21 0 31.5 -6.5t11.5 -28.5l111 -895h67l322 895q7 22 19 28.5t34 6.5h293q7 0 15 -10t8 -21q0 -6 -2 -8l-453 -1091q-12 -31 -39 -31h-510q-13 0 -21 9t-10 22z" />
<glyph unicode="w" horiz-adv-x="2062" d="M217 1118q0 13 12.5 28t20.5 15h280q23 0 34 -7t11 -28l23 -888h68l245 796q12 35 45 35h435q16 0 25 -10t9 -25l41 -796h68l242 888q6 22 18 28.5t35 6.5h270q8 0 15.5 -9.5t7.5 -21.5q0 -4 -2 -8l-361 -1089q-12 -33 -45 -33h-500q-16 0 -25 10t-9 23l-54 786 l-247 -784q-5 -14 -17 -24.5t-26 -10.5h-488q-16 0 -25.5 10t-9.5 23z" />
<glyph unicode="x" horiz-adv-x="1363" d="M43 31v10l457 553l-307 518q0 2 -1.5 4.5t-1.5 3.5q0 12 14.5 26.5t20.5 14.5h336q19 0 27 -7t18 -28l172 -348l242 350q14 21 23.5 27t29.5 6h301q25 0 25 -26q0 -15 -6 -21l-414 -504l342 -569q4 -8 4 -12q0 -11 -10.5 -20t-24.5 -9h-348q-12 0 -23 6t-14 14l-200 408 l-289 -408q-13 -20 -43 -20h-310q-20 0 -20 31z" />
<glyph unicode="y" horiz-adv-x="1337" d="M160 1110q0 13 15.5 32t21.5 19h327q19 0 27 -7t18 -28l199 -440l295 442q14 21 23.5 27t27.5 6h316q24 0 24 -26q0 -13 -4 -21l-545 -694l-47 -389q-1 -13 -12.5 -22t-26.5 -9h-280q-14 0 -23 8.5t-8 18.5v4l47 381l-393 690q0 1 -1 4t-1 4z" />
<glyph unicode="z" horiz-adv-x="1230" d="M106 27l3 2l18 157q5 34 27 56l639 676h-551q-13 0 -22 7t-9 19v2l22 187q1 12 13 20t26 8h951q14 0 22.5 -7t7.5 -19v-2l-20 -168q-3 -27 -23 -47l-647 -674h567q14 0 23 -7.5t8 -19.5v-2l-22 -184q-1 -13 -12.5 -22t-26.5 -9h-961q-14 0 -23.5 7.5t-9.5 19.5z" />
<glyph unicode="{" horiz-adv-x="897" d="M178 608v6l19 140q1 18 15 30t34 15q73 9 99 48.5t40 151.5l66 531q3 37 34 45l394 98q6 2 14 2q22 0 29 -20l43 -156v-8q0 -11 -8 -20t-17 -13l-203 -78l-53 -432q-11 -94 -57 -147.5t-131 -87.5l-9 -62q67 -30 101.5 -71.5t34.5 -110.5q0 -5 -5 -55l-51 -420l185 -78 q16 -8 16 -25q0 -10 -4 -16l-80 -154q-13 -22 -35 -22q-2 0 -6 1t-6 1l-371 98q-24 8 -24 37q0 2 1 4.5t1 3.5l63 525q8 78 8 94q0 53 -21.5 75.5t-76.5 30.5q-17 1 -28 12.5t-11 26.5z" />
<glyph unicode="|" horiz-adv-x="593" d="M119 -287l227 1843q2 15 14 30.5t29 15.5h207q14 0 24.5 -11t10.5 -28q0 -5 -2 -7l-226 -1843q-3 -20 -16 -32.5t-29 -12.5h-206q-16 0 -24.5 13.5t-8.5 27.5v4z" />
<glyph unicode="}" horiz-adv-x="897" d="M102 -117q0 21 23 33l205 78l51 420q11 96 57 149.5t133 87.5l7 62q-66 30 -100 72t-34 110q0 35 2 53l54 432l-185 78q-16 8 -16 27q0 8 2 14l82 156q13 20 35 20q8 0 12 -2l371 -98q22 -7 22 -37v-8l-65 -531q-6 -58 -6 -96q0 -52 21 -74t77 -30q16 -3 26.5 -14 t10.5 -25v-6l-17 -140q-6 -38 -49 -45q-75 -10 -101 -49t-38 -151l-66 -525q-3 -37 -34 -45l-396 -98q-2 0 -6 -1t-6 -1q-23 0 -29 22l-43 154v8z" />
<glyph unicode="~" d="M215 621v4q0 11 18 24q174 113 306 113q32 0 68 -8t56 -15.5t62 -23.5q6 -2 27 -11t28 -11.5t24.5 -9.5t27 -9t24 -6t26.5 -5t25 -1q81 0 209 79q16 11 21 11q19 0 22 -15l45 -147q2 -4 2 -15v-4q-2 -12 -18 -24q-174 -113 -305 -113q-66 0 -187 47q-8 3 -31.5 13 t-32.5 13.5t-28.5 10.5t-31 9.5t-27.5 5t-31 2.5q-80 0 -209 -80q-17 -11 -20 -11q-20 0 -23 15l-45 147q-2 4 -2 15z" />
<glyph horiz-adv-x="1495" d="M129 514v4l16 146q1 13 11 21.5t24 8.5h1192q11 0 19 -6t8 -16q0 -1 -1 -3t-1 -3l-39 -148q-5 -29 -33 -29h-571q12 -89 41 -138t92.5 -74t175.5 -25q155 0 342 45q8 2 22 2q24 0 27 -25l12 -174v-4q0 -31 -49 -49q-178 -65 -454 -65q-329 -1 -469 117.5t-146 389.5h-192 q-12 0 -19.5 7t-7.5 18zM168 829v5l16 143q1 13 11 22t24 9h189q71 280 242.5 402.5t502.5 121.5q284 -2 438 -68q39 -13 39 -37q0 -4 -4 -16l-53 -174q-9 -25 -35 -25l-20 5q-2 0 -27.5 5.5t-56 11.5t-70.5 12t-87.5 10t-90.5 4q-115 0 -187.5 -27t-113.5 -79t-74 -146h614 q11 0 19 -6.5t8 -16.5q0 -4 -2 -6l-37 -148q-4 -14 -15 -21t-20 -7h-1183q-27 0 -27 26z" />
<glyph horiz-adv-x="487" d="M70 -156l55 453q3 18 16 29.5t27 11.5h235q12 0 22.5 -10t10.5 -23q0 -4 -2 -8l-92 -453q-3 -17 -15 -29t-26 -12h-199q-14 0 -23 10t-9 25v6z" />
<glyph horiz-adv-x="1282" d="M156 -375l211 1139h-162q-33 0 -33 27v8l33 176q4 22 15.5 30.5t31.5 8.5h162l39 209q18 100 52.5 164t94.5 100q85 53 246 53q69 0 142.5 -11.5t109.5 -23.5q30 -8 30 -35v-10l-28 -137q-7 -35 -35 -35q-2 0 -6 1t-6 1q-73 15 -129 15q-63 0 -97 -27q-32 -28 -49 -121 l-26 -143h247q35 0 35 -27q0 -6 -2 -8l-33 -176q-4 -22 -15.5 -30.5t-31.5 -8.5h-243l-213 -1155q-2 -14 -15.5 -24.5t-31.5 -10.5h-248q-45 0 -45 37v14z" />
<glyph horiz-adv-x="911" d="M70 -156l55 453q3 18 16 29.5t27 11.5h235q12 0 22.5 -10t10.5 -23q0 -4 -2 -8l-92 -453q-3 -17 -15 -29t-26 -12h-199q-14 0 -23 10t-9 25v6zM494 -156l55 453q3 18 15.5 29.5t27.5 11.5h233q13 0 23 -10t10 -23v-8l-92 -453q-3 -17 -15 -29t-26 -12h-199q-14 0 -23 10 t-9 25v6z" />
<glyph unicode="&#x85;" horiz-adv-x="2254" d="M207 33l2 4l29 244q2 14 18 25t37 11h297q20 0 33.5 -10t11.5 -24v-2l-31 -244q-2 -15 -17 -26t-36 -11h-297q-21 0 -34 10t-13 23zM936 33v4l31 244q2 14 17 25t36 11h297q20 0 33.5 -10t11.5 -24v-2l-29 -244q-3 -15 -18.5 -26t-36.5 -11h-297q-20 0 -33.5 10.5 t-11.5 22.5zM1663 33v4l31 244q2 14 17 25t36 11h297q21 0 34 -10t13 -24v-2l-31 -244q-2 -15 -17 -26t-38 -11h-297q-20 0 -32.5 9.5t-12.5 23.5z" />
<glyph horiz-adv-x="1490" d="M324 528v4l22 183q4 28 37 28h287l-8 131l69 570q6 50 49 55l297 39q4 2 13 2q34 0 34 -31q0 -6 -2 -8l-75 -627l-39 -131h284q14 0 22.5 -7t8.5 -17v-4l-23 -183q-1 -13 -11.5 -21.5t-24.5 -8.5h-287l8 -131l-88 -705q-6 -50 -47 -55l-297 -39q-4 -2 -12 -2 q-35 0 -35 31v8l94 762l39 131h-287q-28 0 -28 26z" />
<glyph horiz-adv-x="1492" d="M279 158v4l22 180q2 14 12 22.5t25 8.5h285l-7 131l13 104l41 131h-289q-29 0 -29 27v4l23 180q2 14 12 22.5t25 8.5h286l-8 131l41 334q6 50 49 55l297 39h13q34 0 34 -31q0 -4 -2 -8l-47 -389l-39 -131h285q14 0 22.5 -7.5t8.5 -19.5v-4l-23 -180q-1 -13 -12 -22 t-25 -9h-286l8 -131l-13 -104l-40 -131h286q14 0 22.5 -7.5t8.5 -19.5v-4l-23 -180q-2 -14 -11.5 -22.5t-24.5 -8.5h-287l8 -131l-41 -334q-6 -50 -49 -55l-297 -39h-12q-35 0 -35 31v8l49 389l39 131h-287q-12 0 -20 7.5t-8 19.5z" />
<glyph horiz-adv-x="1036" d="M330 1417q0 13 12 19l342 215h74l291 -215q6 -3 6 -15q0 -7 -6 -16l-115 -129q-8 -10 -23 -10q-6 0 -14 4l-201 174l-245 -174q-8 -4 -15 -4q-12 0 -20 10l-82 129q-4 8 -4 12z" />
<glyph horiz-adv-x="2682" d="M164 1028q0 106 24 205q28 132 101 205q102 102 299 102q192 0 270 -98q53 -69 53 -195q0 -121 -26 -225q-30 -118 -101 -186q-98 -101 -295 -101q-172 0 -253 78q-72 72 -72 215zM317 104q0 5 5 15l1212 1390q6 9 18 9q6 0 11 -5l143 -94q6 -6 6 -14q0 -4 -4 -12 l-1212 -1393q-6 -6 -17 -6q-8 0 -12 2l-143 96q-7 4 -7 12zM420 1040q0 -59 20 -85.5t72 -26.5q58 0 85.5 32.5t41.5 106.5q18 99 18 170v2q0 57 -20.5 82t-73.5 25q-50 0 -76.5 -23.5t-40.5 -77.5q-26 -89 -26 -205zM1120 268q0 85 25 203q28 134 102 205q99 102 297 102 q193 0 271 -98q55 -65 55 -195q0 -109 -29 -225q-30 -118 -98 -186q-101 -101 -297 -101q-173 0 -254 78q-72 72 -72 217zM1376 279q0 -59 20.5 -85t73.5 -26q58 0 85.5 32t39.5 105q19 101 19 170v2q0 57 -20.5 82t-71.5 25t-78 -23.5t-41 -75.5q-27 -106 -27 -206z M1956 268q0 90 24 203q28 133 103 205q99 102 297 102q192 0 270 -98q55 -68 55 -195q0 -113 -28 -225q-30 -117 -99 -186q-101 -101 -297 -101q-172 0 -253 78q-72 72 -72 217zM2212 279q0 -59 20.5 -85t73.5 -26q58 0 85.5 32t39.5 105q18 99 18 170v2q0 57 -20.5 82 t-71.5 25t-78 -23.5t-41 -75.5q-26 -102 -26 -206z" />
<glyph horiz-adv-x="1445" d="M158 96q0 13 2 17l49 170q10 34 41 34q14 0 22 -2q5 -1 42.5 -10.5t76 -18t90 -18.5t107.5 -16t106 -6q170 0 236 63q53 50 53 135q0 81 -80 117q-11 5 -22.5 9t-27 8t-27 6.5t-32 6.5t-31 5.5t-35 5.5t-34.5 6q-222 33 -321 117q-117 89 -117 272q0 106 37 208t108 173 q161 158 514 158q107 0 222 -16t170.5 -29t93.5 -25q39 -9 39 -41q0 -12 -2 -18l-52 -168q-11 -33 -40 -33h-9q-7 2 -55 13t-60.5 13.5t-53 11t-61 11.5t-55 7.5t-64.5 6t-62 1.5q-135 0 -201 -41q-76 -49 -76 -146q0 -83 92 -120q53 -18 203 -41q113 -17 194.5 -41.5 t139.5 -73.5q108 -88 108 -291q0 -205 -116 -338q-168 -201 -545 -201q-128 0 -258 18t-190.5 33.5t-90.5 26.5q-28 8 -28 41zM623 1858q0 10 6 16l114 125q10 10 23 10q10 0 14 -4l201 -174l246 174q4 4 14 4q13 0 21 -10l81 -125q5 -2 5 -10q0 -11 -13 -21l-342 -213h-73 l-289 213q-8 5 -8 15z" />
<glyph horiz-adv-x="790" d="M170 588q0 18 12 30l414 474q11 14 35 14q10 0 12 -2l158 -94q10 -7 10 -25q0 -12 -6 -18l-340 -375l248 -373q2 -2 2 -10q0 -9 -5.5 -18.5t-11.5 -12.5l-180 -96q-4 -2 -12 -2q-25 0 -33 14l-297 473q-6 9 -6 21z" />
<glyph horiz-adv-x="2310" d="M195 537q0 141 25 299.5t71 281.5q27 75 63.5 136t92.5 115.5t126.5 91.5t168 58t214.5 21q105 0 206 -33t153 -98l8 72q6 32 41 32h958q14 0 22.5 -7t8.5 -19v-4l-26 -213q-2 -14 -12 -22.5t-25 -8.5h-676l-39 -330h643q31 0 31 -24v-4l-27 -215q-1 -14 -12 -22.5 t-25 -8.5h-645l-43 -363h674q14 0 22.5 -7t8.5 -19v-4l-27 -211q-2 -14 -12 -22.5t-25 -8.5h-960q-33 0 -33 27q0 1 1 3t1 3l8 71q-69 -65 -177.5 -98t-213.5 -33q-301 0 -440 142q-73 71 -101 176.5t-28 245.5zM586 498q0 -153 55 -213q56 -62 182 -62q155 0 227 88 t107 295q41 223 41 387q0 158 -53.5 226.5t-190.5 68.5q-154 0 -223 -87t-104 -296q-41 -237 -41 -407z" />
<glyph horiz-adv-x="1445" d="M104 27v4l23 190q3 27 27 55l854 965h-734q-28 0 -28 27v4l24 211q1 13 12 21.5t25 8.5h1176q14 0 22.5 -8t7.5 -18v-4l-24 -207q-2 -20 -21 -43l-864 -961h754q14 0 22.5 -7t8.5 -19q-1 -2 -3 -4l-24 -211q-1 -13 -12 -22t-25 -9h-1190q-14 0 -23 8.5t-8 18.5zM582 1858 q0 11 8 16l112 125q10 10 23 10q6 0 14 -4l203 -174l244 174q8 4 14 4q14 0 21 -10l84 -125q2 -2 2 -10q0 -13 -11 -21l-344 -213h-71l-291 213q-8 5 -8 15z" />
<glyph horiz-adv-x="573" d="M215 1016q0 14 4 22l191 443q6 13 20.5 22.5t26.5 9.5h178q11 0 21 -10.5t10 -23.5v-13l-121 -446q-4 -18 -19.5 -29.5t-33.5 -11.5h-242q-15 0 -25 11t-10 26z" />
<glyph horiz-adv-x="573" d="M215 1016v10l121 447q4 18 19.5 29t33.5 11h242q15 0 25 -10.5t10 -25.5t-4 -23l-191 -440q-6 -14 -20 -24.5t-27 -10.5h-178q-11 0 -21 11.5t-10 25.5z" />
<glyph horiz-adv-x="1032" d="M215 1016q0 14 4 22l191 443q6 13 20.5 22.5t26.5 9.5h178q11 0 21 -10.5t10 -23.5v-13l-121 -446q-4 -18 -19.5 -29.5t-33.5 -11.5h-242q-15 0 -25 11t-10 26zM672 1016q0 6 4 22l192 443q6 13 19.5 22.5t27.5 9.5h177q12 0 22 -10.5t10 -23.5q0 -2 -1 -6.5t-1 -6.5 l-118 -446q-6 -18 -21 -29.5t-33 -11.5h-243q-15 0 -25 11t-10 26z" />
<glyph horiz-adv-x="1032" d="M215 1016v10l121 447q4 18 19.5 29t33.5 11h242q15 0 25 -10.5t10 -25.5t-4 -23l-191 -440q-6 -14 -20 -24.5t-27 -10.5h-178q-11 0 -21 11.5t-10 25.5zM672 1016q0 6 2 10l119 447q4 18 19.5 29t33.5 11h241q15 0 26 -10.5t11 -25.5q0 -11 -6 -23l-190 -440 q-6 -15 -19.5 -25t-27.5 -10h-179q-11 0 -20.5 11t-9.5 26z" />
<glyph horiz-adv-x="851" d="M219 512v12l45 365q5 37 34.5 63.5t66.5 26.5h362q34 0 57 -23t23 -55q0 -8 -2 -12l-45 -365q-3 -37 -32 -63.5t-66 -26.5h-365q-33 0 -55.5 22.5t-22.5 55.5z" />
<glyph horiz-adv-x="1054" d="M18 473v4l21 170q2 14 18 24.5t37 10.5h1034q20 0 33.5 -10t12.5 -23v-2l-21 -170q-1 -16 -18.5 -25.5t-34.5 -9.5h-1034q-16 0 -32.5 8.5t-15.5 22.5z" />
<glyph horiz-adv-x="2248" d="M49 473v4l21 170q2 14 19 24.5t38 10.5h2167q20 0 32.5 -9.5t12.5 -23.5v-2l-21 -170q-3 -16 -20.5 -25.5t-36.5 -9.5h-2165q-15 0 -31.5 9t-15.5 22z" />
<glyph horiz-adv-x="1101" d="M340 1450v4q0 12 18 25q153 118 252 116h4q56 0 144 -51q4 -2 24 -14.5t30 -18t27 -11.5t31 -7h2q22 0 53 15t50 28t53 39q7 10 21 10t20 -14l47 -119q0 -2 1 -6t1 -6v-6q-1 -6 -18 -23q-155 -121 -252 -119h-6q-58 0 -142 51q-6 3 -32.5 19.5t-44.5 24.5t-35 8h-4 q-21 0 -52 -15.5t-49.5 -28t-52.5 -38.5q-15 -10 -20 -10q-17 0 -23 14l-45 119q-2 4 -2 14z" />
<glyph horiz-adv-x="2136" d="M201 1348v6l14 123q6 36 47 36h785q36 0 36 -28q0 -6 -2 -8l-14 -123q-3 -37 -43 -37h-266l-82 -666q-6 -39 -43 -39h-178q-35 0 -35 31v8l82 666h-264q-37 0 -37 31zM1012 641q0 2 1 5t1 5l155 826q6 36 45 36h353q25 0 30 -28l41 -457h11l159 457q3 10 13 19t22 9h346 q20 0 28 -7.5t7 -24.5v-4l-45 -826q-3 -39 -45 -39h-172q-20 0 -28.5 8.5t-6.5 24.5v4l41 651h-31l-180 -464q-10 -29 -35 -29h-233q-24 0 -29 29l-63 464h-29l-115 -651q-6 -37 -43 -37h-161q-37 0 -37 29z" />
<glyph horiz-adv-x="1226" d="M145 84q0 3 1 8t1 8l46 148q10 31 38 31q11 0 23 -3q10 -2 72.5 -16t92 -20t82.5 -12.5t95 -6.5q118 0 162 41q35 28 35 82q0 30 -27 53q-22 18 -76 29q-69 12 -78 14q-28 4 -84 15q-138 28 -209 84q-98 77 -98 215q0 92 34.5 176t102.5 139q133 111 402 111 q188 0 399 -54q37 -10 37 -41q0 -10 -2 -16l-49 -149q-3 -13 -13.5 -22t-23.5 -9h-8q-8 2 -40 9t-47 10t-45.5 9t-51 9t-48 7t-53 5.5t-49.5 1.5q-93 0 -139 -25q-49 -28 -49 -84q0 -39 32 -61q20 -12 74 -25q38 -6 78 -12q32 -7 82 -14q125 -23 192 -64q121 -74 121 -235 q0 -195 -125 -309q-141 -127 -418 -127q-141 0 -265.5 21.5t-174.5 39.5q-29 10 -29 39zM451 1491q0 10 6 16l114 125q13 10 23 10q6 0 14 -4l201 -174l246 174q8 4 14 4q11 0 21 -10l84 -125q2 -4 2 -10q0 -13 -13 -20l-342 -215h-71l-291 215q-8 5 -8 14z" />
<glyph horiz-adv-x="790" d="M127 203q0 10 6 16l340 373l-248 375q-4 2 -4 10q0 19 19 33l180 94q2 2 12 2q22 0 33 -14l297 -474q6 -9 6 -20q0 -19 -12 -31l-414 -473q-11 -14 -35 -14q-10 0 -12 2l-158 96q-10 3 -10 25z" />
<glyph horiz-adv-x="1935" d="M178 436q0 138 35 281t104 241q78 109 204 166.5t323 57.5q80 0 158 -30t116 -81l8 66q3 24 31 24h752q14 0 22.5 -7t7.5 -19v-2l-22 -187q-1 -13 -12 -22t-25 -9h-502l-24 -200h477q12 0 21.5 -7.5t9.5 -19.5v-2l-25 -188q-1 -12 -12 -20.5t-25 -8.5h-477l-27 -225h500 q14 0 23.5 -7.5t9.5 -19.5v-2l-25 -184q-1 -13 -12 -22t-25 -9h-753q-25 0 -25 20v5l8 65q-51 -51 -136 -80.5t-165 -29.5q-292 0 -413 124q-105 108 -105 332zM535 401q0 -109 45 -151q42 -39 143 -39q120 0 172.5 56t79.5 200q29 167 29 297q0 107 -46 147q-41 41 -143 41 q-115 0 -167 -50.5t-79 -180.5q-34 -178 -34 -320z" />
<glyph horiz-adv-x="1230" d="M106 27l3 2l18 157q5 34 27 56l639 676h-551q-13 0 -22 7t-9 19v2l22 187q1 12 13 20t26 8h951q14 0 22.5 -7t7.5 -19v-2l-20 -168q-3 -27 -23 -47l-647 -674h567q14 0 23 -7.5t8 -19.5v-2l-22 -184q-1 -13 -12.5 -22t-26.5 -9h-961q-14 0 -23.5 7.5t-9.5 19.5zM451 1493 q0 6 8 14l114 125q10 13 21 13q7 0 14 -7l203 -172l244 172q7 7 14 7q11 0 21 -13l84 -125q4 -4 4 -10q0 -10 -13 -20l-344 -213h-71l-291 213q-8 8 -8 16z" />
<glyph horiz-adv-x="1546" d="M178 1470q0 13 14.5 28t20.5 15h365q21 0 29.5 -6.5t17.5 -29.5l272 -621l410 621q13 23 23 29.5t32 6.5h348q12 0 18.5 -8.5t6.5 -19.5q0 -15 -4 -23l-687 -907l-63 -524q-1 -13 -12 -22t-25 -9h-317q-14 0 -22.5 7.5t-8.5 19.5v4l63 520l-479 909q-2 4 -2 10zM559 1741 v4l23 170q2 14 16.5 24.5t34.5 10.5h244q20 0 33.5 -9.5t11.5 -23.5v-2l-21 -170q-2 -14 -17 -25.5t-36 -11.5h-244q-19 0 -32 10t-13 23zM1069 1741v4l21 170q2 14 17 24.5t36 10.5h243q20 0 33 -9.5t11 -23.5v-2l-21 -170q-2 -14 -17 -25.5t-36 -11.5h-244q-20 0 -32.5 10 t-10.5 23z" />
<glyph unicode="&#xa1;" horiz-adv-x="737" d="M186 53q0 2 1 7.5t1 7.5l160 956q2 12 12 20.5t23 8.5h238q28 0 28 -27v-2l-82 -1014q-5 -37 -43 -37h-12l-289 41q-37 3 -37 39zM342 1219v8l31 241q1 20 14 32.5t31 12.5h287q15 0 25.5 -10.5t10.5 -27.5q0 -5 -2 -7l-28 -241q-3 -20 -16.5 -32.5t-30.5 -12.5h-287 q-15 0 -25 10t-10 27z" />
<glyph unicode="&#xa2;" horiz-adv-x="1056" d="M137 383q0 118 23 244t67 215q54 110 146.5 172t238.5 80l17 141q2 15 14.5 30t30.5 15h155q14 0 23.5 -11t9.5 -28v-6l-16 -137q85 -7 156.5 -23.5t103.5 -32.5q20 -11 20 -30q0 -11 -2 -17l-45 -141q-11 -27 -37 -27q-4 0 -9 1l-5 1q-124 33 -217 33 q-114 0 -175.5 -38.5t-92.5 -129.5q-41 -118 -41 -256q0 -130 55 -180q54 -45 174 -45q90 0 225 33q2 0 7 1t8 1q27 0 30 -27l11 -141v-6q3 -26 -31 -41q-35 -16 -110 -31.5t-162 -21.5l-17 -138q-3 -20 -16.5 -33.5t-28.5 -13.5h-155q-17 0 -25 13t-8 28v6l16 140 q-210 29 -287 159q-51 87 -51 242z" />
<glyph unicode="&#xa3;" horiz-adv-x="1433" d="M117 29q0 2 2 4l22 188q1 11 2 15.5t5 12.5t14 12.5t26 6.5q151 22 222 99t71 202q0 54 -19.5 213.5t-19.5 247.5q0 222 123 356q146 154 473 154q135 0 253 -22.5t190 -47.5q16 -6 16 -26q0 -10 -2 -14l-61 -191q-7 -20 -31 -20q-8 0 -12 2q-9 2 -50.5 11.5t-75 16 t-83.5 13t-92 6.5q-167 0 -236 -62q-61 -54 -61 -162q0 -19 1 -42t2.5 -42t3 -35t2.5 -26l1 -10h387q29 0 29 -25v-6l-25 -209q-1 -15 -12 -23t-27 -8h-328q2 -30 2 -71q0 -93 -38 -160q-14 -26 -34.5 -48.5t-35 -33.5t-33 -23t-20.5 -14l637 11h2q12 0 20 -8.5t8 -20.5 q0 -1 -1 -2t-1 -2l-24 -213q-1 -13 -12 -23t-25 -10h-1127q-12 0 -20 8.5t-8 20.5z" />
<glyph unicode="&#xa4;" horiz-adv-x="1583" d="M305 387q0 13 10 21l138 110q-17 66 -17 115q0 72 17 133q13 50 45 113l-111 110q-6 6 -6 15q0 12 16 28l164 148q18 12 29 12t16 -8l101 -103q103 39 223 39t213 -39l125 103q8 8 18 8q9 0 27 -12l127 -148q10 -10 10 -22q0 -13 -10 -21l-137 -110q16 -62 16 -115 q0 -76 -16 -133q-12 -47 -46 -113l111 -110q6 -6 6 -15q0 -12 -16 -28l-164 -148q-18 -12 -29 -12t-16 8l-100 102q-103 -39 -224 -39q-120 0 -213 39l-125 -102q-8 -8 -18 -8q-9 0 -27 12l-127 148q-10 10 -10 22zM680 635q0 -81 35 -113q38 -35 137 -35q83 0 127.5 23.5 t67.5 77.5q28 76 28 174q0 80 -35 112q-38 35 -137 35q-82 0 -126.5 -23t-67.5 -77q-29 -79 -29 -174z" />
<glyph unicode="&#xa5;" horiz-adv-x="1505" d="M176 1462q0 15 15 33t34 18h344q23 0 35 -7.5t21 -28.5l249 -635l388 635q13 22 27 29t36 7h328q16 0 26.5 -14t10.5 -29q0 -8 -4 -12l-457 -616h246q12 0 19 -7t7 -18v-6l-18 -156q-1 -8 -9.5 -15.5t-16 -11t-9.5 -3.5h-1237q-12 0 -20.5 7t-8.5 19v4l21 156q1 13 11 22 t24 9h256l-316 614q-2 2 -2 6zM229 346v4l19 150q2 12 12 21t23 9h1069q12 0 19 -7.5t7 -18.5v-4l-18 -150q-1 -13 -11 -22t-24 -9h-330l-34 -288q-7 -31 -39 -31h-316q-14 0 -23 7.5t-8 19.5v4l35 288h-354q-12 0 -19.5 7.5t-7.5 19.5z" />
<glyph unicode="&#xa6;" horiz-adv-x="645" d="M143 -313l86 696q2 16 14 30.5t29 14.5h207q14 0 23.5 -10.5t9.5 -28.5v-6l-86 -696q-1 -20 -14 -32.5t-29 -12.5h-207q-17 0 -25 13t-8 28v4zM260 637v4l86 696q2 16 14 30.5t29 14.5h207q14 0 24.5 -11t10.5 -28q0 -1 -1 -3t-1 -3l-84 -696q-3 -20 -16 -32.5t-29 -12.5 h-207q-16 0 -24.5 13.5t-8.5 27.5z" />
<glyph unicode="&#xa7;" horiz-adv-x="1585" d="M193 -309q0 10 6 28l47 140q11 35 39 35q9 0 18 -3l35 -9q36 -10 57.5 -15.5t67.5 -15.5t84 -16t89.5 -10.5t98.5 -4.5q147 0 215 41q64 42 64 114t-86 101q-46 14 -203 30q-66 7 -125 15q-188 28 -278 92q-103 76 -103 229q0 127 78 220q40 49 98.5 83.5t96.5 44.5l38 9 l7 53q-66 25 -117 84q-60 75 -60 178q0 57 20 118.5t54 108.5q55 82 150 127q144 72 395 72q116 0 245 -19.5t226 -64.5q23 -12 23 -29q0 -2 -1.5 -6t-1.5 -6l-47 -147q-7 -25 -14.5 -33t-19.5 -8q-7 0 -23 4q-3 1 -83.5 18.5t-157.5 28t-156 10.5q-144 0 -205 -41 q-62 -43 -62 -112q0 -77 74 -105q48 -17 195 -33q22 -3 66 -8t65 -8q212 -29 297 -90q102 -73 102 -236q0 -123 -67 -209q-41 -52 -102.5 -88.5t-102.5 -47.5l-41 -11l-6 -53q9 -3 24 -10t51 -34.5t60 -62.5q45 -65 45 -155q0 -94 -45 -179q-58 -114 -180 -170 q-143 -65 -404 -65q-300 0 -520 92q-20 7 -20 29zM571 535q0 -56 41 -91q46 -36 140 -45q4 -1 94 -8.5t96 -7.5q113 23 164 76q43 46 43 104q0 55 -33 88q-38 38 -121 47q-2 0 -95.5 10.5t-96.5 10.5q-26 0 -79.5 -16t-92.5 -50q-60 -50 -60 -118z" />
<glyph unicode="&#xa8;" horiz-adv-x="1138" d="M281 1358v2l20 170q2 14 17 25.5t36 11.5h244q19 0 32 -10t13 -23v-4l-22 -170q-2 -14 -17 -24.5t-35 -10.5h-243q-20 0 -33.5 9.5t-11.5 23.5zM788 1358v2l21 170q3 14 18.5 25.5t34.5 11.5h244q19 0 32 -10t13 -23v-4l-21 -170q-2 -14 -17 -24.5t-36 -10.5h-243 q-20 0 -33 9.5t-13 23.5z" />
<glyph unicode="&#xa9;" horiz-adv-x="1966" d="M193 555q0 163 35 337.5t104 293.5q101 181 301 267.5t538 86.5q376 0 560 -106q120 -69 174.5 -186.5t54.5 -289.5q0 -163 -35 -337t-104 -293q-101 -181 -302 -268t-540 -87q-371 0 -557 107q-120 69 -174.5 186t-54.5 289zM399 573q0 -57 7 -104.5t23.5 -94.5 t49.5 -85.5t80 -65.5q135 -76 445 -76q70 0 126.5 3.5t123.5 12.5t121.5 28.5t108 48.5t96.5 74.5t73 105.5q48 95 74 242.5t26 277.5q0 57 -7 104.5t-23.5 94.5t-49.5 85.5t-80 65.5q-135 76 -444 76q-71 0 -127 -3.5t-123.5 -12.5t-122 -28t-108 -48t-96 -74.5 t-72.5 -105.5q-48 -95 -74.5 -243.5t-26.5 -277.5zM668 635q0 98 20 206.5t57 180.5q52 101 151 153t263 52q139 0 281 -51q20 -9 20 -23q0 -2 -1 -6t-1 -6l-33 -103q-6 -16 -24 -16q-2 0 -5 1t-5 1q-3 1 -33 9t-51.5 13t-56.5 10t-64 5q-100 0 -156 -32t-86 -105 q-20 -51 -31.5 -124.5t-11.5 -135.5q0 -92 31 -134q45 -63 180 -63q30 0 67 4.5t60 9.5t54 12t32 7q4 2 12 2q19 0 19 -17l8 -100v-4q3 -20 -25 -31q-150 -49 -295 -49q-209 0 -299 90q-77 77 -77 244z" />
<glyph unicode="&#xaa;" horiz-adv-x="960" d="M215 641v4l10 80q2 12 12 20.5t23 8.5h602q13 0 21 -7t8 -18v-4l-10 -80q-1 -13 -11 -22t-24 -9h-602q-29 0 -29 27zM260 1044q0 96 57 150q25 25 66 41.5t71 23t89 15.5l207 33q2 29 2 43q0 30 -25 41q-22 12 -98 12q-79 0 -244 -33q-12 -4 -16 -4q-12 0 -15 14l-8 90v3 q-2 20 29 28q153 39 309 39q129 0 188 -27q68 -33 68 -120q0 -39 -10 -127l-31 -256q-7 -69 -36 -96t-109 -42q-66 -16 -185 -16q-141 0 -207 27q-102 42 -102 161zM455 1059q0 -47 45 -64q23 -10 86 -10q68 0 125 14l22 179l-178 -27q-53 -8 -72 -25q-28 -20 -28 -67z" />
<glyph unicode="&#xab;" horiz-adv-x="1261" d="M168 588q0 17 10 30l414 474q14 14 37 14q10 0 12 -2l156 -94q12 -8 12 -25q0 -12 -6 -18l-342 -375l250 -373q2 -2 2 -10q0 -9 -6.5 -18.5t-12.5 -12.5l-180 -96q-2 -2 -12 -2q-22 0 -33 14l-297 473q-4 6 -4 21zM659 588q0 17 13 30l413 474q14 14 37 14q9 0 13 -2 l135 -94q12 -8 12 -27q0 -11 -8 -16l-340 -375l248 -373q4 -4 4 -10q0 -9 -6.5 -18.5t-12.5 -12.5l-159 -96q-2 -2 -13 -2q-24 0 -32 14l-297 473q-7 11 -7 21z" />
<glyph unicode="&#xac;" d="M174 598v4l19 156q2 17 18 30t37 13h977q21 0 33 -13.5t10 -25.5v-4l-54 -426q-2 -15 -16.5 -29t-36.5 -14h-186q-19 0 -32 11t-13 28v4l28 227h-741q-15 0 -29 10.5t-14 28.5z" />
<glyph unicode="&#xad;" horiz-adv-x="845" d="M154 481v4l18 152q2 17 18 30t37 13h561q20 0 31.5 -10.5t11.5 -26.5v-6l-18 -152q-3 -19 -19.5 -30t-35.5 -11h-561q-14 0 -28.5 10t-14.5 27z" />
<glyph unicode="&#xae;" horiz-adv-x="1966" d="M193 555q0 163 35 337.5t104 293.5q101 181 301 267.5t538 86.5q376 0 560 -106q120 -69 174.5 -186.5t54.5 -289.5q0 -163 -35 -337t-104 -293q-101 -181 -302 -268t-540 -87q-371 0 -557 107q-120 69 -174.5 186t-54.5 289zM399 573q0 -57 7 -104.5t23.5 -94.5 t49.5 -85.5t80 -65.5q135 -76 445 -76q70 0 126.5 3.5t123.5 12.5t121.5 28.5t108 48.5t96.5 74.5t73 105.5q48 95 74 242.5t26 277.5q0 57 -7 104.5t-23.5 94.5t-49.5 85.5t-80 65.5q-135 76 -444 76q-71 0 -127 -3.5t-123.5 -12.5t-122 -28t-108 -48t-96 -74.5 t-72.5 -105.5q-48 -95 -74.5 -243.5t-26.5 -277.5zM664 342v2l104 836q0 9 7.5 14.5t17.5 5.5h415q149 0 217 -51q64 -48 64 -152q0 -108 -47 -168q-57 -69 -189 -86l-4 -34q83 -3 129 -27q62 -32 62 -119v-20q0 -23 -2 -35l-11 -164q0 -3 -6 -11.5t-14 -8.5h-190 q-19 0 -19 16v2l10 172q0 6 1 27t1 30q0 43 -34 60q-27 16 -123 20l-121 4l-39 -311q-3 -20 -23 -20h-186q-20 0 -20 18zM948 791l142 6q101 3 135 51q26 38 26 104q0 50 -28 72q-33 23 -97 23h-147z" />
<glyph unicode="&#xaf;" horiz-adv-x="958" d="M338 1516v4q0 19 10 27.5t31 13.5q129 38 297 38q165 0 287 -38q30 -7 30 -29q0 -10 -2 -16l-37 -123q-8 -27 -34 -27q-11 0 -23 4q-143 31 -246 31t-254 -31q-12 -4 -22 -4q-28 0 -31 27z" />
<glyph unicode="&#xb0;" horiz-adv-x="866" d="M244 1204q0 129 106 228q118 108 273 108q134 0 221 -84q84 -81 84 -196q0 -120 -103 -220q-55 -53 -127.5 -83.5t-150.5 -30.5q-139 0 -225 86q-78 75 -78 192zM428 1219q0 -58 39 -91q39 -36 100 -36q79 0 131 55q43 43 43 104q0 48 -41 86q-40 37 -100 37 q-65 0 -117 -45q-55 -48 -55 -110z" />
<glyph unicode="&#xb1;" d="M141 39v6l19 150q2 19 17.5 32t37.5 13h905q20 0 32.5 -11.5t12.5 -27.5q0 -4 -2 -6l-18 -150q-1 -20 -18.5 -32.5t-34.5 -12.5h-908q-15 0 -29 10.5t-14 28.5zM219 686v6l21 158q3 41 47 41h317l33 260q6 43 45 43h197q36 0 36 -35q0 -1 -1 -3.5t-1 -4.5l-30 -260h313 q39 0 39 -33v-8l-21 -156q-3 -41 -47 -41h-315l-31 -258q-5 -43 -45 -43h-198q-37 0 -37 33q0 2 1 5t1 5l30 258h-315q-39 0 -39 33z" />
<glyph unicode="&#xb2;" horiz-adv-x="1116" d="M231 594v4l27 209q4 35 25 67t49 50q23 16 92 54t126 68l58 29q19 10 56.5 29.5t59.5 32.5t38 28q43 40 43 103q0 48 -39 67q-37 19 -117 19q-103 0 -295 -45h-6q-12 0 -21.5 8.5t-11.5 19.5l-8 103v4q-3 29 33 45q160 51 379 51q172 0 258 -51q96 -55 96 -193 q0 -119 -82 -217q-78 -91 -221 -157l-272 -129l-4 -33l483 12h2q13 0 25 -8.5t12 -24.5v-4l-19 -137q-2 -15 -14.5 -26t-30.5 -11h-680q-17 0 -29.5 10t-11.5 23z" />
<glyph unicode="&#xb3;" horiz-adv-x="1093" d="M252 608q0 9 2 13l27 106q6 27 34 27q9 0 13 -2q102 -25 233 -25q126 0 168 45q33 38 33 84q0 54 -41 72q-31 15 -96 22q-38 5 -97 15q-8 0 -21 7.5t-13 20.5l2 4l12 103q1 10 6 17t10.5 9.5t11.5 4.5l7 2q22 4 56.5 7.5t41.5 4.5q34 6 48.5 8.5t36.5 11t36 21.5 q33 26 33 84q0 42 -31 63q-35 21 -123 21q-34 0 -74.5 -5t-68.5 -10.5t-74.5 -15.5t-67.5 -14q-2 0 -6 -1t-6 -1q-27 0 -27 30l-10 105v4q0 26 33 39q51 17 159 36t216 19q180 0 264 -59q82 -57 82 -166q0 -88 -47 -146q-60 -82 -189 -100l-4 -31q107 -13 154 -57 q51 -45 51 -127q0 -118 -78 -199q-111 -114 -356 -114q-88 0 -183.5 12.5t-134.5 26.5q-22 11 -22 28z" />
<glyph unicode="&#xb4;" horiz-adv-x="768" d="M305 1409q0 15 12 21l363 231q9 6 16 6q13 0 19 -12l88 -139q4 -8 4 -13q0 -12 -12 -18l-371 -221q-12 -4 -16 -4q-14 0 -19 10l-80 129q-4 8 -4 10z" />
<glyph unicode="&#xb5;" horiz-adv-x="1259" d="M86 -391l172 1397q6 47 47 55l273 41h12q33 0 33 -31v-8l-101 -819q88 -31 172 -31q68 0 92 19.5t31 84.5l84 689q6 47 49 55l271 41h12q35 0 35 -31q0 -4 -2 -8l-99 -805q-19 -155 -91.5 -220t-223.5 -65q-193 0 -385 64l14 -135l-30 -236q-3 -25 -13.5 -38t-34.5 -17 l-270 -41h-12q-35 0 -35 31v8z" />
<glyph unicode="&#xb6;" horiz-adv-x="1558" d="M199 915q0 202 75 349q36 73 89.5 122t122 72.5t134 32t150.5 8.5h354q50 0 50 -33v-8l-222 -1798q-6 -51 -49 -59l-190 -31h-13q-36 0 -36 33q0 4 2 8l114 934l-127 -2q-12 -2 -35 -2q-224 0 -325 98q-94 91 -94 276zM526 944q0 -90 56 -127q43 -28 176 -31h51l59 476 h-53q-110 -2 -166 -22t-86 -85q-37 -81 -37 -211zM1100 -348l221 1798q6 52 47 59l191 31h12q37 0 37 -33v-8l-222 -1798q-6 -52 -47 -59l-190 -31q-2 0 -6 -1t-6 -1q-37 0 -37 35v8z" />
<glyph unicode="&#xb7;" horiz-adv-x="516" d="M145 457v8l29 231q3 20 16.5 32.5t30.5 12.5h256q15 0 25 -11t10 -28v-6l-29 -231q-1 -19 -15 -32t-30 -13h-256q-16 0 -26.5 10t-10.5 27z" />
<glyph unicode="&#xb8;" horiz-adv-x="724" d="M102 -379l17 64q3 16 24 16h9q81 -12 110 -12q54 0 74 20q22 17 22 55q0 34 -24 46q-16 8 -55 8q-65 0 -119 -8q-6 -3 -10 -3q-18 0 -21 19v61q0 23 21 27q76 20 198 20q108 0 154 -30q53 -36 53 -119q0 -96 -51 -150q-57 -63 -201 -63q-100 0 -186 22q-15 4 -15 21v6z " />
<glyph unicode="&#xb9;" horiz-adv-x="888" d="M315 1346q0 4 2 6l13 112q6 30 39 33l364 43h4q13 1 22 -11t9 -26q0 -4 -2 -6l-109 -893q-3 -19 -15.5 -31t-27.5 -12h-172q-14 0 -23 10t-9 27v6l88 707l-150 10q-33 3 -33 25z" />
<glyph unicode="&#xba;" horiz-adv-x="960" d="M229 639v6l11 78q1 13 11.5 22t22.5 9h605q12 0 20 -7t8 -18q0 -4 -2 -6l-8 -78q-1 -13 -12 -22t-25 -9h-602q-12 0 -20.5 7.5t-8.5 17.5zM281 1128q0 163 63 269q87 143 328 143q152 0 229 -57q80 -59 80 -191q0 -154 -45 -256q-83 -180 -348 -180q-169 0 -246 70 q-36 35 -48.5 84t-12.5 118zM473 1108q0 -65 27 -95t104 -30q75 0 111.5 30t50.5 91q22 90 22 182q0 68 -26 94q-34 31 -105 31q-78 0 -113.5 -30.5t-49.5 -94.5q-21 -100 -21 -178z" />
<glyph unicode="&#xbb;" horiz-adv-x="1261" d="M127 203q0 10 6 16l340 373l-248 375q-4 2 -4 10q0 19 19 33l159 94q2 2 13 2q24 0 32 -14l297 -474q7 -10 7 -20q0 -18 -13 -31l-413 -473q-11 -14 -35 -14q-11 0 -13 2l-137 96q-10 10 -10 25zM596 203q0 11 8 16l338 373l-248 375q-4 4 -4 10q0 19 19 33l180 94 q4 2 12 2q25 0 33 -14l299 -474q4 -12 4 -20q0 -19 -12 -31l-412 -473q-14 -14 -37 -14q-8 0 -12 2l-156 96q-12 4 -12 25z" />
<glyph unicode="&#xbc;" horiz-adv-x="2299" d="M315 1346q0 4 2 6l13 112q6 30 39 33l364 43h4q13 1 22 -11t9 -26q0 -4 -2 -6l-109 -893q-3 -19 -15.5 -31t-27.5 -12h-172q-14 0 -23 10t-9 27v6l88 707l-150 10q-33 3 -33 25zM467 109q0 14 4 14l1104 1386q6 9 16 9q2 0 5.5 -1t5.5 -1l139 -105q6 -3 6 -12 q0 -7 -4 -15l-1106 -1386q-8 -8 -16 -8q-5 0 -9 4l-141 102q-4 4 -4 13zM1237 242v6l16 133q5 31 27 55l432 502q5 8 18.5 15.5t22.5 7.5h307q13 0 23 -11t10 -26v-6l-63 -523h102q18 0 29.5 -10t11.5 -25v-4l-14 -114q-1 -15 -16 -26t-34 -11h-98l-20 -162 q-1 -18 -14 -30.5t-29 -12.5h-162q-15 0 -25 11t-10 26v6l21 162h-500q-15 0 -25 11t-10 26zM1489 395h307l49 393h-18z" />
<glyph unicode="&#xbd;" horiz-adv-x="2347" d="M315 1346q0 4 2 6l13 112q6 30 39 33l364 43h4q13 1 22 -11t9 -26q0 -4 -2 -6l-109 -893q-3 -19 -15.5 -31t-27.5 -12h-172q-14 0 -23 10t-9 27v6l88 707l-150 10q-33 3 -33 25zM467 109q0 14 4 14l1104 1386q6 9 16 9q2 0 5.5 -1t5.5 -1l139 -105q6 -3 6 -12 q0 -7 -4 -15l-1106 -1386q-8 -8 -16 -8q-5 0 -9 4l-141 102q-4 4 -4 13zM1393 33v4l26 209q4 34 25.5 66t48.5 53q23 16 92 53t127 66l57 30q19 10 56.5 29.5t59.5 32.5t38 28q43 40 43 103q0 48 -39 67q-37 19 -115 19q-106 0 -294 -45h-9q-12 0 -21 8.5t-11 19.5l-9 103v4 q0 15 9.5 27.5t23.5 17.5q164 51 379 51q170 0 258 -49q98 -59 98 -195q0 -116 -84 -217q-74 -89 -219 -158l-274 -129l-4 -32l485 12q13 0 25 -8.5t12 -24.5v-4l-16 -137q-3 -16 -15.5 -26.5t-31.5 -10.5h-678q-18 0 -30.5 9.5t-12.5 23.5z" />
<glyph unicode="&#xbe;" horiz-adv-x="2553" d="M252 608q0 9 2 13l27 106q6 27 34 27q9 0 13 -2q102 -25 233 -25q126 0 168 45q33 38 33 84q0 54 -41 72q-31 15 -96 22q-38 5 -97 15q-8 0 -21 7.5t-13 20.5l2 4l12 103q1 10 6 17t10.5 9.5t11.5 4.5l7 2q22 4 56.5 7.5t41.5 4.5q34 6 48.5 8.5t36.5 11t36 21.5 q33 26 33 84q0 42 -31 63q-35 21 -123 21q-34 0 -74.5 -5t-68.5 -10.5t-74.5 -15.5t-67.5 -14q-2 0 -6 -1t-6 -1q-27 0 -27 30l-10 105v4q0 26 33 39q51 17 159 36t216 19q180 0 264 -59q82 -57 82 -166q0 -88 -47 -146q-60 -82 -189 -100l-4 -31q107 -13 154 -57 q51 -45 51 -127q0 -118 -78 -199q-111 -114 -356 -114q-88 0 -183.5 12.5t-134.5 26.5q-22 11 -22 28zM719 109q0 14 4 14l1104 1386q6 9 16 9q2 0 5 -1t5 -1l140 -105q6 -3 6 -12q0 -7 -4 -15l-1106 -1386q-8 -8 -15 -8q-6 0 -10 4l-141 102q-4 4 -4 13zM1491 242v6l16 133 q5 31 27 55l432 502q5 8 18.5 15.5t22.5 7.5h307q13 0 23 -11t10 -26v-6l-63 -523h102q18 0 29.5 -10t11.5 -25v-4l-14 -114q-1 -15 -16 -26t-34 -11h-98l-20 -162q-1 -18 -14 -30.5t-29 -12.5h-162q-15 0 -25 11t-10 26v6l20 162h-499q-15 0 -25 11t-10 26zM1743 395h307 l49 393h-18z" />
<glyph unicode="&#xbf;" d="M156 293q0 142 82 239q55 64 186 146q20 13 56.5 33.5t54 31t42.5 29.5t37.5 35.5t23.5 41.5t15 54q4 31 4 105q0 41 52 41h249q12 0 18.5 -3.5t8 -5.5t3 -13t1.5 -13q4 -24 4 -68q0 -42 -6 -82q-7 -58 -27 -103.5t-57.5 -83t-73.5 -63t-94 -59.5q-106 -63 -137 -92 q-55 -52 -55 -121q0 -71 84 -100q53 -19 133 -19q43 0 99 6.5t95.5 13.5t84.5 16.5t53 10.5q4 2 14 2q29 0 29 -30l14 -140q0 -3 1 -9.5t1 -10.5q0 -31 -37 -41q-35 -12 -88.5 -25.5t-160 -28t-210.5 -14.5q-200 0 -321 52q-178 77 -178 268zM655 1219v8l29 241 q3 20 16.5 32.5t30.5 12.5h287q15 0 25 -10.5t10 -27.5v-7l-29 -241q-3 -20 -16.5 -32.5t-30.5 -12.5h-287q-15 0 -25 10t-10 27z" />
<glyph unicode="&#xc0;" horiz-adv-x="1638" d="M37 25q0 6 2 8l639 1454q11 26 37 26h581q26 0 33 -24l279 -1456v-4q0 -12 -10.5 -20.5t-24.5 -8.5h-326q-14 0 -25 11t-14 24l-73 473h-512l-191 -477q-12 -31 -43 -31h-321q-12 0 -21.5 7.5t-9.5 17.5zM727 774h369l-78 483h-94zM786 1862q0 6 7 16l122 139 q10 13 23 13q7 0 14 -7l305 -231q9 -6 9 -14q0 -11 -6 -17l-111 -129q-13 -10 -23 -10q-6 0 -14 4l-317 221q-9 6 -9 15z" />
<glyph unicode="&#xc1;" horiz-adv-x="1638" d="M37 25q0 6 2 8l639 1454q11 26 37 26h581q26 0 33 -24l279 -1456v-4q0 -12 -10.5 -20.5t-24.5 -8.5h-326q-14 0 -25 11t-14 24l-73 473h-512l-191 -477q-12 -31 -43 -31h-321q-12 0 -21.5 7.5t-9.5 17.5zM727 774h369l-78 483h-94zM772 1774q0 10 10 20l365 231q7 7 14 7 q11 0 21 -13l88 -139q2 -4 2 -12q0 -13 -12 -19l-371 -221q-8 -4 -17 -4q-13 0 -18 10l-80 129q-2 4 -2 11z" />
<glyph unicode="&#xc2;" horiz-adv-x="1638" d="M37 25q0 6 2 8l639 1454q11 26 37 26h581q26 0 33 -24l279 -1456v-4q0 -12 -10.5 -20.5t-24.5 -8.5h-326q-14 0 -25 11t-14 24l-73 473h-512l-191 -477q-12 -31 -43 -31h-321q-12 0 -21.5 7.5t-9.5 17.5zM655 1780q0 10 13 20l342 213h71l291 -213q8 -5 8 -14 q0 -11 -6 -17l-117 -131q-10 -10 -20 -10t-14 4l-203 174l-244 -174q-8 -4 -16 -4q-12 0 -19 10l-84 131q-2 2 -2 11zM727 774h369l-78 483h-94z" />
<glyph unicode="&#xc3;" horiz-adv-x="1638" d="M37 25q0 6 2 8l639 1454q11 26 37 26h581q26 0 33 -24l279 -1456v-4q0 -12 -10.5 -20.5t-24.5 -8.5h-326q-14 0 -25 11t-14 24l-73 473h-512l-191 -477q-12 -31 -43 -31h-321q-12 0 -21.5 7.5t-9.5 17.5zM639 1800v6q2 11 18 23q155 121 252 119h6q57 0 142 -52 q5 -3 24.5 -15t30 -18t27.5 -12t30 -6h2q52 0 156 82q15 10 21 10q16 0 22 -14l45 -119q2 -4 2 -14v-4q-3 -14 -18 -25q-160 -119 -252 -119h-4q-59 2 -144 54q-4 2 -19 11.5t-23.5 14t-22 11t-25 9.5t-22.5 3h-2q-22 1 -53 -14t-50 -27.5t-53 -38.5q-10 -10 -20 -10 q-18 0 -21 14l-47 119q-2 4 -2 12zM727 774h369l-78 483h-94z" />
<glyph unicode="&#xc4;" horiz-adv-x="1638" d="M37 25q0 6 2 8l639 1454q11 26 37 26h581q26 0 33 -24l279 -1456v-4q0 -12 -10.5 -20.5t-24.5 -8.5h-326q-14 0 -25 11t-14 24l-73 473h-512l-191 -477q-12 -31 -43 -31h-321q-12 0 -21.5 7.5t-9.5 17.5zM594 1741v4l20 170q2 14 17.5 24.5t36.5 10.5h243q20 0 32.5 -9.5 t10.5 -21.5v-4l-20 -170q-2 -14 -17 -24.5t-36 -10.5h-244q-20 0 -32.5 9.5t-10.5 21.5zM727 774h369l-78 483h-94zM1102 1741v4l20 170q2 14 17.5 24.5t36.5 10.5h243q20 0 32.5 -9.5t12.5 -21.5v-4l-22 -170q-2 -14 -16.5 -24.5t-34.5 -10.5h-246q-19 0 -32 9.5t-11 21.5z " />
<glyph unicode="&#xc5;" horiz-adv-x="1638" d="M37 25q0 6 2 8l639 1454q11 26 37 26h581q26 0 33 -24l279 -1456v-4q0 -12 -10.5 -20.5t-24.5 -8.5h-326q-14 0 -25 11t-14 24l-73 473h-512l-191 -477q-12 -31 -43 -31h-321q-12 0 -21.5 7.5t-9.5 17.5zM702 1755q0 132 74 203q82 82 279 82q171 0 239 -60 q56 -50 56 -143q0 -99 -52 -172q-77 -109 -303 -109q-129 0 -198 35q-95 45 -95 164zM727 774h369l-78 483h-94zM928 1755q0 -48 18 -70t64 -22q43 0 66 20t34 62q14 58 14 108q0 41 -19.5 60.5t-62.5 19.5q-41 0 -63.5 -17t-34.5 -54q-16 -50 -16 -107z" />
<glyph unicode="&#xc6;" horiz-adv-x="2041" d="M37 25q0 4 2 6l600 1456q10 26 39 26h1376q29 0 29 -26v-4l-25 -213q-7 -31 -39 -31h-579l-41 -340h551q30 0 30 -25v-6l-26 -211q-3 -30 -37 -30h-553l-43 -355h580q30 0 30 -26v-4l-26 -211q-2 -14 -12 -22.5t-25 -8.5h-928q-14 0 -24 8.5t-9 20.5v4l62 508h-342 l-193 -510q-12 -31 -43 -31h-323q-11 0 -21 7.5t-10 17.5zM721 815h283l55 455h-170z" />
<glyph unicode="&#xc7;" horiz-adv-x="1445" d="M199 549q0 182 39 372.5t118 317.5q94 154 257.5 223.5t418.5 69.5q48 0 94 -2.5t81.5 -5.5t74 -9.5t62 -11t55 -12.5t44 -11.5t38 -11t28.5 -8.5q33 -12 33 -37q0 -4 -4 -20l-55 -176q-6 -25 -37 -25q-10 0 -16 2q-3 1 -40.5 10.5t-66 15.5t-72.5 14.5t-89.5 13 t-86.5 4.5q-171 0 -267 -56t-144 -178q-33 -85 -52.5 -209t-19.5 -225q0 -189 86 -264q84 -72 274 -72q142 0 367 51q12 4 18 4q28 0 31 -26l12 -174v-9q0 -35 -45 -47q-216 -69 -491 -69q-371 0 -518 153q-127 130 -127 408zM580 -387q0 6 2 8l14 64q5 16 25 16h8 q81 -12 112 -12q50 0 74 18q21 21 21 57q0 34 -25 46q-16 8 -53 8q-67 0 -121 -8q-6 -3 -10 -3q-19 0 -19 19v61q0 23 19 27q76 20 198 20q108 0 154 -30q53 -36 53 -121q0 -94 -51 -148q-57 -63 -201 -63q-96 0 -186 22q-14 4 -14 19z" />
<glyph unicode="&#xc8;" horiz-adv-x="1423" d="M195 29v4l178 1448q1 13 13.5 22.5t27.5 9.5h1022q30 0 30 -26v-4l-26 -213q-2 -14 -12 -22.5t-25 -8.5h-676l-39 -330h643q31 0 31 -24v-4l-27 -215q-1 -14 -12 -22.5t-25 -8.5h-645l-43 -363h674q14 0 22.5 -7t8.5 -19v-4l-27 -211q-1 -13 -12 -22t-25 -9h-1024 q-13 0 -22.5 8.5t-9.5 20.5zM725 1864q0 7 6 16l123 139q10 13 23 13q7 0 14 -7l305 -231q8 -5 8 -14q0 -11 -6 -17l-113 -129q-7 -10 -20 -10q-6 0 -14 4l-318 221q-8 3 -8 15z" />
<glyph unicode="&#xc9;" horiz-adv-x="1423" d="M195 29v4l178 1448q1 13 13.5 22.5t27.5 9.5h1022q30 0 30 -26v-4l-26 -213q-2 -14 -12 -22.5t-25 -8.5h-676l-39 -330h643q31 0 31 -24v-4l-27 -215q-1 -14 -12 -22.5t-25 -8.5h-645l-43 -363h674q14 0 22.5 -7t8.5 -19v-4l-27 -211q-1 -13 -12 -22t-25 -9h-1024 q-13 0 -22.5 8.5t-9.5 20.5zM727 1772q0 14 12 20l363 231q11 7 16 7q12 0 19 -13l88 -139q4 -8 4 -12q0 -13 -12 -19l-371 -221q-12 -4 -17 -4q-13 0 -18 10l-80 129q-4 8 -4 11z" />
<glyph unicode="&#xca;" horiz-adv-x="1423" d="M195 29v4l178 1448q1 13 13.5 22.5t27.5 9.5h1022q30 0 30 -26v-4l-26 -213q-2 -14 -12 -22.5t-25 -8.5h-676l-39 -330h643q31 0 31 -24v-4l-27 -215q-1 -14 -12 -22.5t-25 -8.5h-645l-43 -363h674q14 0 22.5 -7t8.5 -19v-4l-27 -211q-1 -13 -12 -22t-25 -9h-1024 q-13 0 -22.5 8.5t-9.5 20.5zM602 1780q0 15 10 20l344 215h72l291 -215q8 -5 8 -14q0 -12 -8 -17l-115 -129q-9 -12 -22 -12q-10 0 -13 6l-202 172l-244 -172q-6 -6 -16 -6q-13 0 -19 12l-84 129q-2 4 -2 11z" />
<glyph unicode="&#xcb;" horiz-adv-x="1423" d="M195 29v4l178 1448q1 13 13.5 22.5t27.5 9.5h1022q30 0 30 -26v-4l-26 -213q-2 -14 -12 -22.5t-25 -8.5h-676l-39 -330h643q31 0 31 -24v-4l-27 -215q-1 -14 -12 -22.5t-25 -8.5h-645l-43 -363h674q14 0 22.5 -7t8.5 -19v-4l-27 -211q-1 -13 -12 -22t-25 -9h-1024 q-13 0 -22.5 8.5t-9.5 20.5zM526 1741l2 4l21 170q2 14 17 24.5t36 10.5h244q20 0 32.5 -9.5t10.5 -23.5v-2l-21 -170q-2 -14 -17 -24.5t-36 -10.5h-244q-20 0 -32.5 9.5t-12.5 21.5zM1036 1741v4l21 170q2 14 17 24.5t36 10.5h244q20 0 32.5 -9.5t12.5 -23.5l-2 -2 l-21 -170q-2 -14 -17 -24.5t-36 -10.5h-244q-20 0 -32.5 9.5t-10.5 21.5z" />
<glyph unicode="&#xcc;" horiz-adv-x="768" d="M195 27v4l178 1442q3 25 37 28l321 39h6q10 0 17.5 -8t7.5 -19v-4l-182 -1478q-1 -13 -12 -22t-25 -9h-318q-13 0 -21.5 7.5t-8.5 19.5zM365 1864q0 7 6 16l123 139q10 13 22 13q7 0 14 -7l306 -231q8 -5 8 -14q0 -11 -6 -17l-113 -129q-7 -10 -20 -10q-7 0 -15 4 l-317 221q-8 3 -8 15z" />
<glyph unicode="&#xcd;" horiz-adv-x="768" d="M195 27v4l178 1442q3 25 37 28l321 39h6q10 0 17.5 -8t7.5 -19v-4l-182 -1478q-1 -13 -12 -22t-25 -9h-318q-13 0 -21.5 7.5t-8.5 19.5zM336 1774q0 11 12 20l363 231q7 7 16 7q11 0 18 -13l89 -139q4 -8 4 -12q0 -12 -13 -19l-372 -221q-8 -4 -15 -4q-12 0 -20 10 l-78 129q-4 8 -4 11z" />
<glyph unicode="&#xce;" horiz-adv-x="768" d="M195 27v4l178 1442q3 25 37 28l321 39h6q10 0 17.5 -8t7.5 -19v-4l-182 -1478q-1 -13 -12 -22t-25 -9h-318q-13 0 -21.5 7.5t-8.5 19.5zM246 1780q0 11 12 20l342 213h74l289 -213q8 -5 8 -14q0 -11 -6 -17l-115 -131q-13 -10 -23 -10q-6 0 -14 4l-203 174l-243 -174 q-8 -4 -15 -4q-10 0 -20 10l-82 131q-4 4 -4 11z" />
<glyph unicode="&#xcf;" horiz-adv-x="768" d="M180 1741v4l21 170q2 14 17 24.5t36 10.5h244q20 0 32.5 -9.5t12.5 -23.5v-2l-23 -170q-2 -14 -16.5 -24.5t-34.5 -10.5h-246q-19 0 -32 9.5t-11 21.5zM195 27v4l178 1442q3 25 37 28l321 39h6q10 0 17.5 -8t7.5 -19v-4l-182 -1478q-1 -13 -12 -22t-25 -9h-318 q-13 0 -21.5 7.5t-8.5 19.5zM688 1741v4l21 170q3 14 18 24.5t35 10.5h244q20 0 32.5 -9.5t12.5 -23.5v-2l-21 -170q-2 -14 -17 -24.5t-36 -10.5h-244q-20 0 -32.5 9.5t-12.5 21.5z" />
<glyph unicode="&#xd0;" horiz-adv-x="1746" d="M96 678v2l21 172q1 14 14.5 21.5t26.5 7.5h186l74 602q2 12 13 21t24 9h665q390 0 525 -188q90 -129 90 -364q0 -206 -56 -422q-33 -136 -88.5 -233.5t-143.5 -167.5t-215.5 -104t-297.5 -34h-664q-14 0 -22.5 8.5t-7.5 20.5v4l75 616h-186q-15 0 -24.5 8.5t-8.5 20.5z M651 258h275q168 0 250.5 71.5t121.5 260.5q43 198 43 352q0 153 -38 217q-31 54 -92 76t-162 22h-275l-45 -376h348q13 0 24.5 -7.5t10.5 -19.5v-2l-20 -172q-2 -12 -14 -21.5t-29 -9.5h-349z" />
<glyph unicode="&#xd1;" horiz-adv-x="1816" d="M195 27v4l178 1452q2 12 14 21t27 9h610q32 0 39 -26l197 -1278h36l134 1266q3 24 16.5 31t38.5 7h276q24 0 35.5 -5.5t11.5 -24.5v-8l-178 -1444q-1 -13 -12 -22t-25 -9h-604q-15 0 -25 9.5t-12 23.5l-196 1196h-64l-117 -1198q0 -13 -10.5 -22t-25.5 -9h-314 q-13 0 -21.5 7.5t-8.5 19.5zM766 1800q0 1 1 3t1 3q0 10 18 23q149 121 252 119h4q57 0 142 -52q3 -2 31.5 -19.5t46.5 -24.5t36 -7h2q52 0 156 82q10 10 21 10q14 0 20 -14l47 -119q0 -2 1 -7t1 -7q0 -4 -2 -4q0 -9 -16 -25q-160 -119 -252 -119h-6q-57 2 -142 54 q-6 3 -25.5 14.5t-30.5 17.5t-27.5 11.5t-30.5 5.5h-2q-21 1 -51.5 -14t-49.5 -27.5t-53 -38.5q-10 -10 -20 -10q-17 0 -23 14l-45 119q-4 8 -4 12z" />
<glyph unicode="&#xd2;" horiz-adv-x="1734" d="M199 547q0 145 26.5 304t75.5 277q42 100 104 174.5t152.5 128.5t215 81.5t284.5 27.5q358 0 514 -141q153 -133 153 -432q0 -162 -34.5 -340.5t-98.5 -300.5q-59 -115 -150.5 -191.5t-236 -119t-340.5 -42.5q-333 0 -493 123q-92 71 -132 183t-40 268zM590 524 q0 -172 82 -237q72 -54 223 -54q122 0 199.5 35t120 102.5t67.5 182.5q51 223 51 430q0 161 -65 229q-70 70 -242 70q-128 0 -206.5 -38t-119.5 -110.5t-67 -199.5q-43 -218 -43 -410zM801 1864q0 7 6 16l123 139q10 13 22 13q8 0 15 -7l305 -231q8 -5 8 -14q0 -11 -6 -17 l-113 -129q-7 -10 -20 -10q-7 0 -15 4l-317 221q-8 3 -8 15z" />
<glyph unicode="&#xd3;" horiz-adv-x="1734" d="M199 547q0 145 26.5 304t75.5 277q42 100 104 174.5t152.5 128.5t215 81.5t284.5 27.5q358 0 514 -141q153 -133 153 -432q0 -162 -34.5 -340.5t-98.5 -300.5q-59 -115 -150.5 -191.5t-236 -119t-340.5 -42.5q-333 0 -493 123q-92 71 -132 183t-40 268zM590 524 q0 -172 82 -237q72 -54 223 -54q122 0 199.5 35t120 102.5t67.5 182.5q51 223 51 430q0 161 -65 229q-70 70 -242 70q-128 0 -206.5 -38t-119.5 -110.5t-67 -199.5q-43 -218 -43 -410zM836 1774q0 11 12 20l362 231q11 7 17 7q11 0 18 -13l88 -139q4 -8 4 -12q0 -13 -12 -19 l-371 -221q-12 -4 -16 -4q-13 0 -18 10l-80 129q-4 8 -4 11z" />
<glyph unicode="&#xd4;" horiz-adv-x="1734" d="M199 547q0 145 26.5 304t75.5 277q42 100 104 174.5t152.5 128.5t215 81.5t284.5 27.5q358 0 514 -141q153 -133 153 -432q0 -162 -34.5 -340.5t-98.5 -300.5q-59 -115 -150.5 -191.5t-236 -119t-340.5 -42.5q-333 0 -493 123q-92 71 -132 183t-40 268zM590 524 q0 -172 82 -237q72 -54 223 -54q122 0 199.5 35t120 102.5t67.5 182.5q51 223 51 430q0 161 -65 229q-70 70 -242 70q-128 0 -206.5 -38t-119.5 -110.5t-67 -199.5q-43 -218 -43 -410zM717 1780q0 11 12 20l342 213h74l289 -213q8 -5 8 -14q0 -11 -6 -17l-117 -131 q-10 -10 -21 -10q-6 0 -14 4l-203 174l-243 -174q-8 -4 -15 -4q-13 0 -20 10l-84 131q-2 2 -2 11z" />
<glyph unicode="&#xd5;" horiz-adv-x="1734" d="M199 547q0 145 26.5 304t75.5 277q42 100 104 174.5t152.5 128.5t215 81.5t284.5 27.5q358 0 514 -141q153 -133 153 -432q0 -162 -34.5 -340.5t-98.5 -300.5q-59 -115 -150.5 -191.5t-236 -119t-340.5 -42.5q-333 0 -493 123q-92 71 -132 183t-40 268zM590 524 q0 -172 82 -237q72 -54 223 -54q122 0 199.5 35t120 102.5t67.5 182.5q51 223 51 430q0 161 -65 229q-70 70 -242 70q-128 0 -206.5 -38t-119.5 -110.5t-67 -199.5q-43 -218 -43 -410zM680 1800v6q0 10 18 23q149 121 252 119h4q59 0 144 -52q5 -3 24.5 -15t30 -18t27.5 -12 t30 -6h2q52 0 156 82q15 10 21 10q17 0 20 -14l47 -119q2 -4 2 -14v-4q-3 -14 -18 -25q-160 -119 -252 -119h-6q-57 2 -142 54q-4 2 -19 11.5t-23.5 14t-22 11t-25 9.5t-22.5 3h-2q-22 1 -53 -14t-50 -27.5t-53 -38.5q-10 -10 -20 -10q-17 0 -23 14l-45 119q-2 4 -2 12z" />
<glyph unicode="&#xd6;" horiz-adv-x="1734" d="M199 547q0 145 26.5 304t75.5 277q42 100 104 174.5t152.5 128.5t215 81.5t284.5 27.5q358 0 514 -141q153 -133 153 -432q0 -162 -34.5 -340.5t-98.5 -300.5q-59 -115 -150.5 -191.5t-236 -119t-340.5 -42.5q-333 0 -493 123q-92 71 -132 183t-40 268zM590 524 q0 -172 82 -237q72 -54 223 -54q122 0 199.5 35t120 102.5t67.5 182.5q51 223 51 430q0 161 -65 229q-70 70 -242 70q-128 0 -206.5 -38t-119.5 -110.5t-67 -199.5q-43 -218 -43 -410zM639 1743v2l20 170q2 14 17.5 24.5t36.5 10.5h243q20 0 32.5 -9.5t12.5 -21.5v-4 l-20 -170q-3 -14 -18 -24.5t-35 -10.5h-244q-20 0 -33.5 9.5t-11.5 23.5zM1147 1743v2l22 170q2 14 17 24.5t35 10.5h243q20 0 33.5 -9.5t11.5 -21.5v-4l-20 -170q-2 -14 -17 -24.5t-36 -10.5h-244q-20 0 -32.5 9.5t-12.5 23.5z" />
<glyph unicode="&#xd7;" horiz-adv-x="1271" d="M168 332q0 19 20 33l363 303l-289 301q-12 12 -12 26q0 18 18 33l140 121q18 14 30 14q18 0 31 -16l268 -316l348 316q16 16 33 16q15 0 29 -14l110 -121q11 -15 11 -24q0 -17 -21 -35l-362 -301l289 -303q12 -12 12 -27q0 -17 -17 -31l-141 -123q-18 -14 -31 -14 q-15 0 -28 16l-271 318l-348 -318q-19 -16 -33 -16q-15 0 -26 14l-113 123q-10 10 -10 25z" />
<glyph unicode="&#xd8;" horiz-adv-x="1761" d="M109 -4q0 10 14 24l170 175q-80 130 -80 315q0 388 106 629q57 132 149 218t242.5 134.5t360.5 48.5q296 0 451 -96l168 170q12 12 22 12q11 0 21 -10l94 -78q10 -8 10 -18q0 -13 -12 -25l-172 -174q84 -128 84 -369q0 -148 -29 -307t-84 -280q-57 -128 -148.5 -212.5 t-240.5 -132t-356 -47.5q-295 0 -455 99l-166 -170q-13 -13 -22 -13q-8 0 -23 11l-94 80q-10 10 -10 16zM604 512l682 692q-66 78 -248 78q-179 0 -263 -74t-122 -247q-49 -216 -49 -386v-63zM662 311q66 -78 247 -78q129 0 208 39.5t120 114.5t66 205q40 197 40 356v58z " />
<glyph unicode="&#xd9;" horiz-adv-x="1687" d="M227 414q0 34 3 74.5t5.5 67.5t8.5 75.5t8 66.5l100 772q3 26 37 29l322 41h6q11 0 17.5 -7t6.5 -17v-7l-104 -817q-25 -196 -25 -260q0 -119 80 -164q62 -35 182 -35q161 0 232.5 63.5t87.5 195.5l119 978q6 26 39 29l321 41h4q12 0 19.5 -6.5t7.5 -17.5q0 -5 -2 -7 l-121 -995q-18 -147 -76 -252t-154.5 -168t-221.5 -92t-287 -29q-269 0 -420 80q-195 106 -195 361zM821 1864q0 7 6 16l123 139q10 13 23 13q7 0 14 -7l305 -231q8 -5 8 -14q0 -11 -6 -17l-112 -129q-8 -10 -21 -10q-6 0 -14 4l-318 221q-8 3 -8 15z" />
<glyph unicode="&#xda;" horiz-adv-x="1687" d="M227 414q0 34 3 74.5t5.5 67.5t8.5 75.5t8 66.5l100 772q3 26 37 29l322 41h6q11 0 17.5 -7t6.5 -17v-7l-104 -817q-25 -196 -25 -260q0 -119 80 -164q62 -35 182 -35q161 0 232.5 63.5t87.5 195.5l119 978q6 26 39 29l321 41h4q12 0 19.5 -6.5t7.5 -17.5q0 -5 -2 -7 l-121 -995q-18 -147 -76 -252t-154.5 -168t-221.5 -92t-287 -29q-269 0 -420 80q-195 106 -195 361zM793 1774q0 11 12 20l362 231q7 7 17 7q12 0 18 -13l88 -139q4 -8 4 -12q0 -13 -12 -19l-371 -221q-12 -4 -16 -4q-13 0 -18 10l-80 129q-4 8 -4 11z" />
<glyph unicode="&#xdb;" horiz-adv-x="1687" d="M227 414q0 34 3 74.5t5.5 67.5t8.5 75.5t8 66.5l100 772q3 26 37 29l322 41h6q11 0 17.5 -7t6.5 -17v-7l-104 -817q-25 -196 -25 -260q0 -119 80 -164q62 -35 182 -35q161 0 232.5 63.5t87.5 195.5l119 978q6 26 39 29l321 41h4q12 0 19.5 -6.5t7.5 -17.5q0 -5 -2 -7 l-121 -995q-18 -147 -76 -252t-154.5 -168t-221.5 -92t-287 -29q-269 0 -420 80q-195 106 -195 361zM694 1782q0 12 13 18l342 215h73l289 -215q8 -5 8 -14q0 -8 -6 -17l-115 -129q-10 -10 -22 -10q-10 0 -14 4l-203 174l-244 -174q-4 -4 -14 -4q-13 0 -21 10l-82 129 q-4 8 -4 13z" />
<glyph unicode="&#xdc;" horiz-adv-x="1687" d="M227 414q0 34 3 74.5t5.5 67.5t8.5 75.5t8 66.5l100 772q3 26 37 29l322 41h6q11 0 17.5 -7t6.5 -17v-7l-104 -817q-25 -196 -25 -260q0 -119 80 -164q62 -35 182 -35q161 0 232.5 63.5t87.5 195.5l119 978q6 26 39 29l321 41h4q12 0 19.5 -6.5t7.5 -17.5q0 -5 -2 -7 l-121 -995q-18 -147 -76 -252t-154.5 -168t-221.5 -92t-287 -29q-269 0 -420 80q-195 106 -195 361zM635 1741v4l20 170q2 14 17.5 24.5t36.5 10.5h243q20 0 32.5 -9.5t12.5 -23.5l-2 -2l-20 -170q-2 -14 -17 -25.5t-36 -11.5h-244q-20 0 -32.5 10t-10.5 23zM1143 1741v4 l20 170q2 14 17.5 24.5t36.5 10.5h243q20 0 32.5 -9.5t12.5 -23.5v-2l-22 -170q-2 -14 -16.5 -25.5t-34.5 -11.5h-244q-20 0 -33.5 10.5t-11.5 22.5z" />
<glyph unicode="&#xdd;" horiz-adv-x="1546" d="M178 1470q0 13 14.5 28t20.5 15h365q21 0 29.5 -6.5t17.5 -29.5l272 -621l410 621q13 23 23 29.5t32 6.5h348q12 0 18.5 -8.5t6.5 -19.5q0 -15 -4 -23l-687 -907l-63 -524q-1 -13 -12 -22t-25 -9h-317q-14 0 -22.5 7.5t-8.5 19.5v4l63 520l-479 909q-2 4 -2 10zM737 1776 q0 10 13 20l362 232q8 4 16 4q11 0 19 -11l88 -141q2 -2 2 -10q0 -14 -10 -19l-373 -221q-8 -4 -16 -4q-12 0 -19 10l-80 129q-2 2 -2 11z" />
<glyph unicode="&#xde;" horiz-adv-x="1513" d="M195 27v4l178 1442q3 25 37 28l321 39h4q12 0 19.5 -8t7.5 -19v-4l-35 -278h406q258 0 360 -119q76 -85 76 -242q0 -143 -41 -262q-42 -132 -129 -207q-140 -123 -426 -120h-363l-30 -250q-1 -13 -12 -22t-25 -9h-318q-13 0 -21.5 7.5t-8.5 19.5zM639 518l229 8 q165 3 224 54q38 31 57 100q18 64 18 133q0 70 -28 109q-28 33 -82 42t-160 9h-201z" />
<glyph unicode="&#xdf;" horiz-adv-x="2394" d="M145 84q0 3 1 8t1 8l46 148q10 31 38 31q11 0 23 -3q10 -2 72.5 -16t92 -20t82.5 -12.5t95 -6.5q118 0 162 41q35 28 35 82q0 30 -27 53q-22 18 -76 29q-69 12 -78 14q-28 4 -84 15q-138 28 -209 84q-98 77 -98 215q0 92 34.5 176t102.5 139q133 111 402 111 q188 0 399 -54q37 -10 37 -41q0 -10 -2 -16l-49 -149q-3 -13 -13.5 -22t-23.5 -9h-8q-8 2 -40 9t-47 10t-45.5 9t-51 9t-48 7t-53 5.5t-49.5 1.5q-93 0 -139 -25q-49 -28 -49 -84q0 -39 32 -61q20 -12 74 -25q38 -6 78 -12q32 -7 82 -14q125 -23 192 -64q121 -74 121 -235 q0 -195 -125 -309q-141 -127 -418 -127q-141 0 -265.5 21.5t-174.5 39.5q-29 10 -29 39zM1313 84q0 3 1 8t1 8l45 148q10 31 39 31q10 0 22 -3q10 -2 72.5 -16t92 -20t82.5 -12.5t95 -6.5q118 0 162 41q35 28 35 82q0 30 -27 53q-23 18 -75 29q-69 12 -78 14q-28 4 -84 15 q-138 28 -209 84q-98 77 -98 215q0 92 34.5 176t102.5 139q133 111 401 111q189 0 400 -54q36 -9 36 -41q0 -10 -2 -16l-49 -149q-3 -13 -13.5 -22t-23.5 -9h-8q-8 2 -40 9t-47 10t-45.5 9t-51 9t-48 7t-53 5.5t-49.5 1.5q-93 0 -139 -25q-49 -28 -49 -84q0 -38 33 -61 q21 -12 73 -25q37 -6 78 -12q32 -7 82 -14q126 -23 193 -64q120 -74 120 -235q0 -196 -124 -309q-141 -127 -418 -127q-141 0 -266.5 21.5t-174.5 39.5q-28 9 -28 39z" />
<glyph unicode="&#xe0;" horiz-adv-x="1425" d="M55 23q0 4 2 8l510 1112q7 18 31 18h518q23 0 27 -18l233 -1112v-6q0 -9 -8 -17t-20 -8h-301q-11 0 -21.5 10t-13.5 23l-58 340h-393l-143 -344q-5 -12 -16 -20.5t-23 -8.5h-293q-12 0 -21.5 7t-9.5 16zM645 1499q0 8 6 17l123 139q9 12 21 12q8 0 14 -6l307 -231 q6 -6 6 -15q0 -10 -6 -16l-110 -129q-8 -10 -23 -10q-6 0 -14 4l-318 221q-6 6 -6 14zM655 604h260l-55 324h-67z" />
<glyph unicode="&#xe1;" horiz-adv-x="1425" d="M55 23q0 4 2 8l510 1112q7 18 31 18h518q23 0 27 -18l233 -1112v-6q0 -9 -8 -17t-20 -8h-301q-11 0 -21.5 10t-13.5 23l-58 340h-393l-143 -344q-5 -12 -16 -20.5t-23 -8.5h-293q-12 0 -21.5 7t-9.5 16zM635 1409q0 15 12 21l363 231q9 6 16 6q12 0 18 -12l89 -139 q4 -8 4 -13q0 -11 -13 -18l-370 -221q-12 -4 -17 -4q-13 0 -18 10l-80 129q-4 8 -4 10zM655 604h260l-55 324h-67z" />
<glyph unicode="&#xe2;" horiz-adv-x="1425" d="M55 23q0 4 2 8l510 1112q7 18 31 18h518q23 0 27 -18l233 -1112v-6q0 -9 -8 -17t-20 -8h-301q-11 0 -21.5 10t-13.5 23l-58 340h-393l-143 -344q-5 -12 -16 -20.5t-23 -8.5h-293q-12 0 -21.5 7t-9.5 16zM516 1417q0 12 10 19l344 215h72l291 -215q8 -3 8 -15q0 -7 -6 -16 l-117 -129q-8 -10 -20 -10q-11 0 -15 4l-202 174l-244 -174q-8 -4 -16 -4q-14 0 -19 10l-84 129q-2 4 -2 12zM655 604h260l-55 324h-67z" />
<glyph unicode="&#xe3;" horiz-adv-x="1425" d="M55 23q0 4 2 8l510 1112q7 18 31 18h518q23 0 27 -18l233 -1112v-6q0 -9 -8 -17t-20 -8h-301q-11 0 -21.5 10t-13.5 23l-58 340h-393l-143 -344q-5 -12 -16 -20.5t-23 -8.5h-293q-12 0 -21.5 7t-9.5 16zM481 1450v4q3 13 19 25q158 118 252 116h4q59 0 143 -51 q4 -2 19.5 -11.5t24 -14t22 -11.5t25 -10t22.5 -4h2q22 0 53.5 15.5t48.5 27.5t53 39q10 10 21 10q17 0 20 -14l47 -119q3 -6 3 -12v-6q-2 -10 -19 -23q-155 -121 -252 -119h-6q-57 0 -141 51q-5 3 -24.5 15t-30.5 18.5t-28 12.5t-30 6h-2q-22 0 -53 -15t-50 -28t-53 -39 q-15 -10 -20 -10q-17 0 -23 14l-45 119q-2 4 -2 14zM655 604h260l-55 324h-67z" />
<glyph unicode="&#xe4;" horiz-adv-x="1425" d="M55 23q0 4 2 8l510 1112q7 18 31 18h518q23 0 27 -18l233 -1112v-6q0 -9 -8 -17t-20 -8h-301q-11 0 -21.5 10t-13.5 23l-58 340h-393l-143 -344q-5 -12 -16 -20.5t-23 -8.5h-293q-12 0 -21.5 7t-9.5 16zM446 1358v2l21 170q2 14 17 25.5t36 11.5h244q19 0 32 -10t13 -23 v-4l-23 -170q-2 -14 -16.5 -24.5t-34.5 -10.5h-243q-20 0 -33.5 10t-12.5 23zM655 604h260l-55 324h-67zM954 1358v2l21 170q3 14 18.5 25.5t34.5 11.5h244q19 0 32 -10t13 -23v-4l-21 -170q-2 -14 -17 -24.5t-36 -10.5h-244q-20 0 -32.5 9.5t-12.5 23.5z" />
<glyph unicode="&#xe5;" horiz-adv-x="1425" d="M55 23q0 4 2 8l510 1112q7 18 31 18h518q23 0 27 -18l233 -1112v-6q0 -9 -8 -17t-20 -8h-301q-11 0 -21.5 10t-13.5 23l-58 340h-393l-143 -344q-5 -12 -16 -20.5t-23 -8.5h-293q-12 0 -21.5 7t-9.5 16zM594 1423q0 107 55 170q71 88 266 88q137 0 201 -41 q66 -45 66 -137q0 -107 -52 -170q-71 -92 -268 -92q-138 0 -203 45q-65 44 -65 137zM655 604h260l-55 324h-67zM799 1417q0 -43 16 -59q19 -19 57 -19q42 0 64 18.5t31 59.5q10 48 10 88v2q0 44 -16 60q-15 18 -58 18q-39 0 -60 -18.5t-32 -57.5q-12 -54 -12 -90v-2z" />
<glyph unicode="&#xe6;" horiz-adv-x="1767" d="M55 23q0 4 2 8l508 1110q10 20 31 20h1145q14 0 23 -7t8 -19v-2l-23 -187q-1 -13 -13 -22t-26 -9h-444l-25 -202h420q14 0 23 -7.5t8 -19.5v-2l-23 -188q-1 -12 -13 -20.5t-26 -8.5h-420l-26 -223h444q14 0 23 -7.5t8 -19.5v-2l-23 -184q-1 -13 -12.5 -22t-26.5 -9h-759 q-12 0 -21.5 8.5t-9.5 18.5v2l43 350h-287l-145 -350q-5 -12 -16 -20.5t-23 -8.5h-293q-12 0 -21.5 7t-9.5 16zM662 616h217l39 310h-132z" />
<glyph unicode="&#xe7;" horiz-adv-x="1243" d="M180 430q0 138 31 281t94 239q77 118 210 172t339 54q208 0 391 -58q33 -11 33 -33q0 -4 -4 -20l-51 -156q-9 -22 -35 -22q-13 0 -17 2q-9 2 -49 12t-57 13l-51 9t-65 8.5t-66 2.5q-133 0 -202 -41.5t-101 -140.5q-43 -125 -43 -293q0 -127 59 -178q62 -50 201 -50 q43 0 88.5 5.5t69.5 10t76.5 17t64.5 15.5q6 2 16 2q28 0 31 -23l12 -158v-6q0 -33 -43 -45q-193 -57 -403 -57q-305 0 -428 123q-101 107 -101 315zM449 -385q0 4 2 6l14 64q5 16 24 16h9q81 -12 112 -12q56 0 78 22q17 20 17 53q0 28 -19 41q-16 13 -59 13q-67 0 -121 -8 q-6 -3 -8 -3q-21 0 -21 19v61q0 23 21 27q74 20 196 20q130 0 176 -49q31 -31 31 -100q0 -92 -45 -145q-59 -68 -207 -68q-96 0 -186 22q-14 4 -14 21z" />
<glyph unicode="&#xe8;" horiz-adv-x="1210" d="M176 27l2 2l135 1104q1 12 12 20t25 8h834q14 0 23.5 -7t9.5 -19v-2l-25 -187q-2 -12 -13 -21.5t-24 -9.5h-518l-25 -200h494q12 0 21.5 -7.5t9.5 -19.5v-2l-23 -188q-1 -12 -13 -20.5t-26 -8.5h-493l-29 -225h520q12 0 21.5 -7.5t9.5 -19.5v-2l-23 -184q-1 -13 -13 -22 t-26 -9h-833q-13 0 -23 8t-10 19zM557 1499q0 8 6 17l123 139q9 12 21 12q8 0 14 -6l307 -231q6 -6 6 -15q0 -10 -6 -16l-110 -129q-8 -10 -21 -10q-8 0 -16 4l-318 221q-6 6 -6 14z" />
<glyph unicode="&#xe9;" horiz-adv-x="1210" d="M176 27l2 2l135 1104q1 12 12 20t25 8h834q14 0 23.5 -7t9.5 -19v-2l-25 -187q-2 -12 -13 -21.5t-24 -9.5h-518l-25 -200h494q12 0 21.5 -7.5t9.5 -19.5v-2l-23 -188q-1 -12 -13 -20.5t-26 -8.5h-493l-29 -225h520q12 0 21.5 -7.5t9.5 -19.5v-2l-23 -184q-1 -13 -13 -22 t-26 -9h-833q-13 0 -23 8t-10 19zM551 1409q0 15 12 21l363 231q9 6 16 6q13 0 19 -12l88 -139q4 -8 4 -13q0 -11 -13 -18l-370 -221q-12 -4 -17 -4q-13 0 -18 10l-80 129q-4 8 -4 10z" />
<glyph unicode="&#xea;" horiz-adv-x="1210" d="M176 27l2 2l135 1104q1 12 12 20t25 8h834q14 0 23.5 -7t9.5 -19v-2l-25 -187q-2 -12 -13 -21.5t-24 -9.5h-518l-25 -200h494q12 0 21.5 -7.5t9.5 -19.5v-2l-23 -188q-1 -12 -13 -20.5t-26 -8.5h-493l-29 -225h520q12 0 21.5 -7.5t9.5 -19.5v-2l-23 -184q-1 -13 -13 -22 t-26 -9h-833q-13 0 -23 8t-10 19zM440 1415q0 10 11 21l344 213h71l291 -213q8 -5 8 -15t-6 -16l-117 -131q-10 -10 -20 -10t-14 4l-203 174l-244 -174q-8 -4 -16 -4q-12 0 -19 10l-84 131q-2 2 -2 10z" />
<glyph unicode="&#xeb;" horiz-adv-x="1210" d="M176 27l2 2l135 1104q1 12 12 20t25 8h834q14 0 23.5 -7t9.5 -19v-2l-25 -187q-2 -12 -13 -21.5t-24 -9.5h-518l-25 -200h494q12 0 21.5 -7.5t9.5 -19.5v-2l-23 -188q-1 -12 -13 -20.5t-26 -8.5h-493l-29 -225h520q12 0 21.5 -7.5t9.5 -19.5v-2l-23 -184q-1 -13 -13 -22 t-26 -9h-833q-13 0 -23 8t-10 19zM373 1358v2l20 170q2 14 17 25.5t36 11.5h244q20 0 32.5 -10t10.5 -23v-4l-20 -170q-2 -14 -17.5 -24.5t-36.5 -10.5h-243q-20 0 -32.5 9.5t-10.5 23.5zM881 1358v2l20 170q2 14 17 25.5t36 11.5h244q19 0 32 -10t13 -23v-4l-22 -170 q-2 -14 -17.5 -24.5t-36.5 -10.5h-243q-20 0 -32.5 9.5t-10.5 23.5z" />
<glyph unicode="&#xec;" horiz-adv-x="696" d="M176 27v4l133 1077q3 23 35 27l293 47h4q11 0 17.5 -7.5t5.5 -17.5v-2l-138 -1124q-1 -13 -12.5 -22t-26.5 -9h-280q-12 0 -22 8.5t-9 18.5zM281 1499q0 8 6 17l123 139q9 12 22 12q8 0 14 -6l306 -231q8 -5 8 -15t-6 -16l-113 -129q-7 -10 -20 -10q-7 0 -15 4l-317 221 q-8 5 -8 14z" />
<glyph unicode="&#xed;" horiz-adv-x="696" d="M174 27v4l133 1077q3 23 35 27l293 47h4q11 0 17.5 -7.5t5.5 -17.5v-2l-138 -1124q-1 -13 -12 -22t-25 -9h-282q-12 0 -21.5 8.5t-9.5 18.5zM248 1409q0 15 12 21l363 231q6 6 16 6q9 0 18 -12l88 -139q3 -6 3 -13q0 -11 -11 -18l-372 -221q-8 -4 -17 -4q-10 0 -18 10 l-80 129q-2 4 -2 10z" />
<glyph unicode="&#xee;" horiz-adv-x="696" d="M158 1415q0 12 12 21l342 213h72l290 -213q9 -6 9 -15q0 -10 -6 -16l-117 -131q-10 -10 -21 -10q-10 0 -14 4l-203 174l-243 -174q-8 -4 -17 -4q-11 0 -18 10l-84 131q-2 2 -2 10zM180 27v4l133 1077q3 23 35 27l293 47h4q11 0 17.5 -7.5t5.5 -17.5v-2l-138 -1124 q-1 -13 -11.5 -22t-24.5 -9h-283q-12 0 -21.5 8.5t-9.5 18.5z" />
<glyph unicode="&#xef;" horiz-adv-x="696" d="M94 1358v2l21 170q2 14 17 25.5t36 11.5h244q19 0 32 -10t13 -23v-4l-21 -170q-3 -14 -18 -24.5t-35 -10.5h-244q-20 0 -33.5 9.5t-11.5 23.5zM180 27v4l133 1077q3 23 35 27l293 47h4q11 0 18 -7t7 -18v-2l-140 -1124q-1 -13 -11.5 -22t-24.5 -9h-281q-13 0 -23 8 t-10 19zM602 1358v2l23 170q2 14 16.5 25.5t34.5 11.5h244q20 0 33.5 -10.5t11.5 -22.5v-4l-21 -170q-2 -14 -17 -24.5t-36 -10.5h-244q-20 0 -32.5 9.5t-12.5 23.5z" />
<glyph unicode="&#xf0;" horiz-adv-x="1466" d="M100 514l2 2l17 135q1 11 13 19t24 8h139l55 455q1 12 12.5 20t26.5 8h537q284 0 401 -117q103 -100 103 -323q0 -116 -25.5 -241t-73.5 -216q-71 -134 -201.5 -199t-347.5 -65h-536q-14 0 -23 8.5t-8 18.5v2l55 458h-139q-13 0 -22 8t-9 19zM590 229h188q123 0 180.5 49 t85.5 193q29 149 29 252q0 116 -37 158q-23 29 -63.5 40t-106.5 11h-190l-31 -254h244q9 0 20 -7t11 -18v-2l-19 -135q0 -11 -11 -20t-26 -9h-241z" />
<glyph unicode="&#xf1;" horiz-adv-x="1595" d="M176 27l2 2l137 1104q1 12 13 20t26 8h531q18 0 33 -9t18 -28l156 -936h30l97 942q0 13 11 22t25 9h275q14 0 23 -8t8 -18v-5l-134 -1085q-1 -21 -17.5 -33t-37.5 -12h-506q-20 0 -33.5 12t-15.5 29l-147 864h-68l-78 -876q-1 -12 -12 -20.5t-25 -8.5h-278 q-14 0 -23.5 7.5t-9.5 19.5zM559 1450v4q0 11 19 25q153 118 251 116h5q59 0 143 -51q2 -1 23.5 -14t31 -18t27 -11.5t31.5 -7.5h2q22 0 53.5 15.5t48.5 27.5t53 39q10 10 21 10q14 0 20 -14l47 -119q0 -2 1 -6t1 -6v-6q-1 -6 -18 -23q-155 -121 -252 -119h-6q-57 0 -141 51 q-5 3 -32.5 20t-45.5 24.5t-35 7.5h-2q-22 0 -53 -15t-50 -28t-53 -39q-15 -10 -20 -10q-17 0 -23 14l-45 119q-2 4 -2 14z" />
<glyph unicode="&#xf2;" horiz-adv-x="1454" d="M180 438q0 122 26 251t77 220q74 135 214.5 204t374.5 69q277 0 406 -101q76 -57 108.5 -143t32.5 -211q0 -128 -30.5 -266t-88.5 -232q-76 -123 -214 -186t-361 -63q-280 0 -412 104q-133 106 -133 354zM535 410q0 -113 55 -160q48 -39 164 -39q131 0 189.5 52.5 t86.5 187.5q33 165 33 297q0 116 -51 161q-52 43 -168 43q-124 0 -182.5 -46.5t-86.5 -162.5q-17 -68 -28.5 -164t-11.5 -169zM641 1499q0 5 8 17l123 139q9 12 21 12q8 0 14 -6l307 -231q6 -6 6 -15q0 -10 -6 -16l-110 -129q-7 -10 -23 -10q-6 0 -14 4l-318 221q-8 8 -8 14 z" />
<glyph unicode="&#xf3;" horiz-adv-x="1454" d="M180 438q0 122 26 251t77 220q74 135 214.5 204t374.5 69q277 0 406 -101q76 -57 108.5 -143t32.5 -211q0 -128 -30.5 -266t-88.5 -232q-76 -123 -214 -186t-361 -63q-280 0 -412 104q-133 106 -133 354zM535 410q0 -113 55 -160q48 -39 164 -39q131 0 189.5 52.5 t86.5 187.5q33 165 33 297q0 116 -51 161q-52 43 -168 43q-124 0 -182.5 -46.5t-86.5 -162.5q-17 -68 -28.5 -164t-11.5 -169zM637 1409q0 15 12 21l363 231q6 6 16 6q13 0 19 -12l88 -139q4 -8 4 -13q0 -11 -13 -18l-370 -221q-12 -4 -17 -4q-13 0 -18 10l-80 129 q-4 8 -4 10z" />
<glyph unicode="&#xf4;" horiz-adv-x="1454" d="M180 438q0 122 26 251t77 220q74 135 214.5 204t374.5 69q277 0 406 -101q76 -57 108.5 -143t32.5 -211q0 -128 -30.5 -266t-88.5 -232q-76 -123 -214 -186t-361 -63q-280 0 -412 104q-133 106 -133 354zM532 1415q0 13 11 21l344 213h71l291 -213q8 -8 8 -15 q0 -8 -8 -16l-114 -131q-10 -10 -23 -10q-6 0 -14 4l-201 174l-244 -174q-12 -4 -16 -4q-12 0 -19 10l-83 131q-3 3 -3 10zM535 410q0 -113 55 -160q48 -39 164 -39q131 0 189.5 52.5t86.5 187.5q33 165 33 297q0 116 -51 161q-52 43 -168 43q-124 0 -182.5 -46.5 t-86.5 -162.5q-17 -68 -28.5 -164t-11.5 -169z" />
<glyph unicode="&#xf5;" horiz-adv-x="1454" d="M180 438q0 122 26 251t77 220q74 135 214.5 204t374.5 69q277 0 406 -101q76 -57 108.5 -143t32.5 -211q0 -128 -30.5 -266t-88.5 -232q-76 -123 -214 -186t-361 -63q-280 0 -412 104q-133 106 -133 354zM492 1450v4q2 9 18 25q158 118 252 116h6q57 0 141 -51 q7 -4 25.5 -15t30 -17t28 -12t29.5 -7h2q22 0 53 15t50 28t53 39q10 10 20 10q17 0 23 -14l45 -119q2 -4 2 -12v-6q0 -9 -19 -23q-149 -121 -252 -119h-4q-55 0 -143 51q-6 3 -24.5 15t-30 18.5t-28 12.5t-30.5 6h-2q-22 0 -53.5 -15.5t-48.5 -27.5t-53 -39q-15 -10 -21 -10 q-14 0 -20 14l-47 119q0 2 -1 7t-1 7zM535 410q0 -113 55 -160q48 -39 164 -39q131 0 189.5 52.5t86.5 187.5q33 165 33 297q0 116 -51 161q-52 43 -168 43q-124 0 -182.5 -46.5t-86.5 -162.5q-17 -68 -28.5 -164t-11.5 -169z" />
<glyph unicode="&#xf6;" horiz-adv-x="1454" d="M180 438q0 122 26 251t77 220q74 135 214.5 204t374.5 69q277 0 406 -101q76 -57 108.5 -143t32.5 -211q0 -128 -30.5 -266t-88.5 -232q-76 -123 -214 -186t-361 -63q-280 0 -412 104q-133 106 -133 354zM463 1358v2l20 170q2 15 17.5 26t36.5 11h243q20 0 32.5 -10 t10.5 -23v-4l-20 -170q-2 -14 -17 -24.5t-36 -10.5h-244q-20 0 -32.5 9.5t-10.5 23.5zM535 410q0 -113 55 -160q48 -39 164 -39q131 0 189.5 52.5t86.5 187.5q33 165 33 297q0 116 -51 161q-52 43 -168 43q-124 0 -182.5 -46.5t-86.5 -162.5q-17 -68 -28.5 -164t-11.5 -169z M971 1358v2l20 170q2 15 17 26t36 11h244q19 0 32 -10t13 -23v-4l-22 -170q-2 -14 -17.5 -24.5t-36.5 -10.5h-243q-20 0 -32.5 9.5t-10.5 23.5z" />
<glyph unicode="&#xf7;" d="M160 578v4l20 166q2 14 18.5 25t37.5 11h997q19 0 32 -9.5t13 -22.5v-4l-21 -166q-2 -15 -17.5 -26t-37.5 -11h-997q-19 0 -32 10t-13 23zM518 178v4l27 219q3 14 18.5 25.5t34.5 11.5h182q20 0 33.5 -10t11.5 -22v-5l-26 -219q-2 -14 -17.5 -25.5t-36.5 -11.5h-182 q-19 0 -32 10t-13 23zM610 926v2l27 221q2 14 17 24.5t36 10.5h182q20 0 33 -9.5t13 -23.5v-2l-27 -221q-3 -14 -18 -24.5t-35 -10.5h-183q-20 0 -33.5 9.5t-11.5 23.5z" />
<glyph unicode="&#xf8;" horiz-adv-x="1507" d="M154 -4q0 13 14 27l117 118q-39 48 -58 115q-22 73 -22 180q0 136 31.5 275.5t93.5 234.5q76 116 213.5 176t355.5 60q216 0 344 -64l125 127q15 15 25 15q7 0 24 -13l70 -61q10 -7 10 -21q0 -10 -14 -24l-117 -121q32 -40 57 -115q21 -79 21 -178q0 -129 -28.5 -264 t-84.5 -230q-75 -125 -214 -189t-365 -64q-220 0 -346 63l-123 -127q-15 -12 -25 -12q-12 0 -25 10l-69 61q-10 10 -10 21zM561 418l477 485q-30 25 -66.5 37t-101.5 12q-66 0 -112 -13t-77.5 -37.5t-52 -71.5t-32.5 -103.5t-23 -144.5q-12 -110 -12 -152v-12zM612 260 q30 -25 65 -37t101 -12q56 0 96.5 8t71.5 28t51.5 46.5t35.5 71.5t25 94t19 123q12 106 10 147v14z" />
<glyph unicode="&#xf9;" horiz-adv-x="1417" d="M203 342q0 27 2.5 53.5t7.5 63.5t6 49l76 600q3 23 35 27l293 47h4q11 0 17 -7.5t5 -17.5v-2l-82 -661q0 -4 -7 -62t-7 -86q0 -74 43 -104q47 -29 139 -29q115 0 162.5 40t58.5 130l88 725q3 23 37 27l293 47h4q10 0 16.5 -7t6.5 -18v-2l-92 -747q-14 -117 -62.5 -200.5 t-128 -133t-180.5 -72t-231 -22.5q-241 0 -359 73q-145 85 -145 289zM645 1499q0 8 6 17l123 139q9 12 21 12q8 0 14 -6l307 -231q6 -6 6 -15q0 -10 -6 -16l-110 -129q-8 -10 -23 -10q-6 0 -14 4l-318 221q-6 6 -6 14z" />
<glyph unicode="&#xfa;" horiz-adv-x="1417" d="M203 342q0 27 2.5 53.5t7.5 63.5t6 49l76 600q3 23 35 27l293 47h4q11 0 17 -7.5t5 -17.5v-2l-82 -661q0 -4 -7 -62t-7 -86q0 -74 43 -104q47 -29 139 -29q115 0 162.5 40t58.5 130l88 725q3 23 37 27l293 47h4q10 0 16.5 -7t6.5 -18v-2l-92 -747q-14 -117 -62.5 -200.5 t-128 -133t-180.5 -72t-231 -22.5q-241 0 -359 73q-145 85 -145 289zM616 1409q0 15 13 21l362 231q6 6 17 6q12 0 18 -12l88 -139q2 -4 2 -13q0 -13 -10 -18l-373 -221q-8 -4 -16 -4q-11 0 -19 10l-77 129z" />
<glyph unicode="&#xfb;" horiz-adv-x="1417" d="M203 342q0 27 2.5 53.5t7.5 63.5t6 49l76 600q3 23 35 27l293 47h4q11 0 17 -7.5t5 -17.5v-2l-82 -661q0 -4 -7 -62t-7 -86q0 -74 43 -104q47 -29 139 -29q115 0 162.5 40t58.5 130l88 725q3 23 37 27l293 47h4q10 0 16.5 -7t6.5 -18v-2l-92 -747q-14 -117 -62.5 -200.5 t-128 -133t-180.5 -72t-231 -22.5q-241 0 -359 73q-145 85 -145 289zM510 1415q0 12 12 21l342 213h74l291 -213q6 -6 6 -15q0 -10 -6 -16l-115 -131q-10 -10 -22 -10q-7 0 -15 4l-200 174l-246 -174q-8 -4 -15 -4q-10 0 -20 10l-82 131q-4 4 -4 10z" />
<glyph unicode="&#xfc;" horiz-adv-x="1417" d="M203 342q0 27 2.5 53.5t7.5 63.5t6 49l76 600q3 23 35 27l293 47h4q11 0 17 -7.5t5 -17.5v-2l-82 -661q0 -4 -7 -62t-7 -86q0 -74 43 -104q47 -29 139 -29q115 0 162.5 40t58.5 130l88 725q3 23 37 27l293 47h4q10 0 16.5 -7t6.5 -18v-2l-92 -747q-14 -117 -62.5 -200.5 t-128 -133t-180.5 -72t-231 -22.5q-241 0 -359 73q-145 85 -145 289zM459 1358v2l20 170q2 14 17 25.5t36 11.5h244q19 0 32 -10t13 -23l-2 -4l-20 -170q-2 -14 -17.5 -24.5t-36.5 -10.5h-243q-20 0 -32.5 9.5t-10.5 23.5zM967 1358v2l20 170q2 14 17 25.5t36 11.5h244 q19 0 32 -10t13 -23v-4l-20 -170q-3 -14 -18.5 -24.5t-35.5 -10.5h-243q-20 0 -33.5 9.5t-11.5 23.5z" />
<glyph unicode="&#xfd;" horiz-adv-x="1337" d="M160 1110q0 13 15.5 32t21.5 19h327q19 0 27 -7t18 -28l199 -440l295 442q14 21 23.5 27t27.5 6h316q24 0 24 -26q0 -13 -4 -21l-545 -694l-47 -389q-1 -13 -12.5 -22t-26.5 -9h-280q-14 0 -23 8.5t-8 18.5v4l47 381l-393 690q0 1 -1 4t-1 4zM594 1409q0 16 10 21 l365 231q6 6 14 6q12 0 18 -12l89 -139q4 -8 4 -13q0 -11 -13 -18l-370 -221q-8 -4 -17 -4q-13 0 -18 10l-80 129q-2 4 -2 10z" />
<glyph unicode="&#xfe;" horiz-adv-x="1282" d="M176 27l2 4l131 1077q3 23 35 27l293 47h6q10 0 16.5 -7t6.5 -18v-2l-23 -180h291q205 0 293 -88q71 -68 71 -205q0 -113 -32 -201q-31 -92 -101 -153q-118 -101 -348 -101h-8l-258 2l-25 -198q-1 -13 -12 -22t-25 -9h-280q-13 0 -23 8t-10 19zM578 440l153 6 q80 2 120 16t60 58q16 32 21 60q6 34 6 63q0 47 -23 70q-18 19 -54 24.5t-113 5.5h-134z" />
<glyph unicode="&#xff;" horiz-adv-x="1337" d="M160 1110q0 13 15.5 32t21.5 19h327q19 0 27 -7t18 -28l199 -440l295 442q14 21 23.5 27t27.5 6h316q24 0 24 -26q0 -13 -4 -21l-545 -694l-47 -389q-1 -13 -12.5 -22t-26.5 -9h-280q-14 0 -23 8.5t-8 18.5v4l47 381l-393 690q0 1 -1 4t-1 4zM389 1358v2l21 170 q2 14 17 25.5t36 11.5h244q19 0 32 -10t13 -23v-4l-21 -170q-2 -14 -17 -24.5t-36 -10.5h-244q-20 0 -32.5 9.5t-12.5 23.5zM897 1358v2l23 170q2 14 16.5 25.5t34.5 11.5h246q18 0 31.5 -10.5t11.5 -22.5v-4l-21 -170q-2 -14 -17 -24.5t-36 -10.5h-244q-20 0 -32.5 9.5 t-12.5 23.5z" />
<glyph unicode="&#x2000;" horiz-adv-x="1020" />
<glyph unicode="&#x2001;" horiz-adv-x="2040" />
<glyph unicode="&#x2002;" horiz-adv-x="1020" />
<glyph unicode="&#x2003;" horiz-adv-x="2040" />
<glyph unicode="&#x2004;" horiz-adv-x="680" />
<glyph unicode="&#x2005;" horiz-adv-x="510" />
<glyph unicode="&#x2006;" horiz-adv-x="340" />
<glyph unicode="&#x2007;" horiz-adv-x="340" />
<glyph unicode="&#x2008;" horiz-adv-x="255" />
<glyph unicode="&#x2009;" horiz-adv-x="408" />
<glyph unicode="&#x200a;" horiz-adv-x="113" />
<glyph unicode="&#x2010;" horiz-adv-x="845" d="M154 481v4l18 152q2 17 18 30t37 13h561q20 0 31.5 -10.5t11.5 -26.5v-6l-18 -152q-3 -19 -19.5 -30t-35.5 -11h-561q-14 0 -28.5 10t-14.5 27z" />
<glyph unicode="&#x2011;" horiz-adv-x="845" d="M154 481v4l18 152q2 17 18 30t37 13h561q20 0 31.5 -10.5t11.5 -26.5v-6l-18 -152q-3 -19 -19.5 -30t-35.5 -11h-561q-14 0 -28.5 10t-14.5 27z" />
<glyph unicode="&#x2012;" horiz-adv-x="845" d="M154 481v4l18 152q2 17 18 30t37 13h561q20 0 31.5 -10.5t11.5 -26.5v-6l-18 -152q-3 -19 -19.5 -30t-35.5 -11h-561q-14 0 -28.5 10t-14.5 27z" />
<glyph unicode="&#x2013;" horiz-adv-x="1192" d="M154 481v4l27 152q3 17 27.5 30t55.5 13h849q30 0 47.5 -10.5t17.5 -26.5v-6l-27 -152q-5 -19 -30 -30t-53 -11h-849q-21 0 -43 10t-22 27z" />
<glyph unicode="&#x2014;" horiz-adv-x="2216" d="M154 481v4l54 152q7 17 55 30t112 13h1697q60 0 95 -10.5t35 -26.5v-6l-54 -152q-10 -19 -59.5 -30t-107.5 -11h-1697q-42 0 -86 10t-44 27z" />
<glyph unicode="&#x202f;" horiz-adv-x="408" />
<glyph unicode="&#x205f;" horiz-adv-x="510" />
<glyph unicode="&#x25fc;" horiz-adv-x="1157" d="M0 0v1157h1157v-1157h-1157z" />
<glyph unicode="&#xfb01;" horiz-adv-x="1699" d="M176 27l2 4l135 1102q1 12 12 20t25 8h797q13 0 22 -7t9 -19v-2l-23 -187q-1 -13 -13 -22t-26 -9h-479l-33 -264h426q14 0 23.5 -7t9.5 -19l-2 -2l-23 -189q-1 -12 -12 -20t-25 -8h-428l-45 -361q-1 -20 -18.5 -32.5t-38.5 -12.5h-262q-13 0 -23 8t-10 19zM1180 27l2 4 l131 1077q3 23 35 27l292 47h7q22 0 22 -25v-2l-139 -1124q-1 -13 -12 -22t-25 -9h-281q-13 0 -22.5 8t-9.5 19z" />
<glyph unicode="&#xfb02;" horiz-adv-x="2109" d="M176 27l2 4l135 1102q1 12 12 20t25 8h797q13 0 22 -7t9 -19v-2l-23 -187q-1 -13 -13 -22t-26 -9h-479l-33 -264h426q14 0 23.5 -7t9.5 -19l-2 -2l-23 -189q-1 -12 -12 -20t-25 -8h-428l-45 -361q-1 -20 -18.5 -32.5t-38.5 -12.5h-262q-13 0 -23 8t-10 19zM1180 27l2 4 l131 1077q3 23 35 27l292 47h7q22 0 22 -25v-2l-110 -901h493q12 0 21.5 -7.5t9.5 -19.5v-2l-25 -194q-1 -13 -13 -22t-26 -9h-807q-13 0 -22.5 8t-9.5 19z" />
</font>
</defs>
</svg>
