<?xml version="1.0" standalone="no"?>
<!DOCTYPE svg PUBLIC "-//W3C//DTD SVG 1.1//EN" "http://www.w3.org/Graphics/SVG/1.1/DTD/svg11.dtd" >
<svg xmlns="http://www.w3.org/2000/svg">
<metadata></metadata>
<defs>
<font id="max-semibolditalicexpertRg" horiz-adv-x="1433" >
<font-face units-per-em="2048" ascent="1638" descent="-410" />
<missing-glyph horiz-adv-x="634" />
<glyph horiz-adv-x="0" />
<glyph horiz-adv-x="682" />
<glyph unicode=" "  horiz-adv-x="634" />
<glyph unicode="&#x09;" horiz-adv-x="634" />
<glyph unicode="&#xa0;" horiz-adv-x="634" />
<glyph unicode="!" horiz-adv-x="595" d="M145 -319l86 696q2 14 13.5 26.5t25.5 12.5h158q14 0 23.5 -10t9.5 -23q0 -4 -2 -6l-84 -696q-3 -17 -14.5 -28t-26.5 -11h-158q-14 0 -22.5 10.5t-8.5 23.5v5zM264 643v4l86 696q2 14 13.5 26.5t25.5 12.5h158q14 0 23.5 -9.5t9.5 -24.5q-2 -3 -2 -5l-84 -696 q-3 -17 -15 -28t-26 -11h-158q-14 0 -22.5 11t-8.5 24z" />
<glyph unicode="&#x22;" horiz-adv-x="1101" d="M307 1327q0 9 10 19l338 221q8 4 13 4q8 0 18 -10l62 -101q2 -4 2 -10q0 -12 -11 -18l-342 -215q-10 -5 -14 -5q-11 0 -16 11l-58 94q0 1 -1 4.5t-1 5.5zM692 1317q0 11 10 18l336 221q10 5 15 5q9 0 16 -11l61 -100l5 -10q0 -12 -11 -19l-344 -215q-8 -4 -12 -4 q-11 0 -16 10l-58 95q-2 2 -2 10z" />
<glyph unicode="#" horiz-adv-x="1241" d="M205 473v4q3 13 16 23q60 42 139.5 79t151.5 37q66 0 178 -47q95 -45 134 -53q19 -4 38 -4q76 0 201 84q15 10 22 10q15 0 21 -16l43 -117q2 -4 2 -14v-4q-2 -11 -18 -23q-56 -42 -137.5 -79.5t-153.5 -37.5q-64 0 -176 47q-8 4 -30 14t-31 14t-26.5 11.5t-29 10.5 t-26.5 5.5t-29 2.5q-48 0 -95 -22t-106 -62q-15 -10 -23 -10q-13 0 -20 14l-43 119q-2 4 -2 14zM250 846v4q2 10 18 22q56 42 137.5 79.5t153.5 37.5q64 0 176 -47q7 -3 26 -12t26.5 -12.5t23 -10t25 -9.5t23 -6.5t25 -5t23.5 -1.5q48 0 95 22t106 62q15 10 22 10 q15 0 21 -16l43 -119q2 -2 2 -13v-4q0 -14 -16 -22q-61 -43 -140 -80t-151 -37q-66 0 -178 47q-5 2 -34 15.5t-38 17t-30.5 11t-37.5 10t-32 2.5q-79 0 -201 -82q-16 -11 -23 -11q-13 0 -20 15l-43 118q-2 4 -2 15z" />
<glyph unicode="$" horiz-adv-x="876" d="M102 -150q0 19 19 27l190 76l193 1567q2 14 10 24.5t18 11.5l338 93h11q19 0 22 -17l37 -127v-6q0 -17 -18 -26l-191 -78l-192 -1565q-3 -30 -29 -39l-340 -90q-4 -2 -10 -2q-18 0 -21 18l-37 127v6z" />
<glyph unicode="%" horiz-adv-x="1241" d="M178 238v4l17 135q2 15 15.5 26t31.5 11h860q17 0 27 -9.5t10 -23.5v-4l-17 -135q-3 -16 -17 -26.5t-30 -10.5h-860q-13 0 -25 9.5t-12 23.5zM225 614v4l17 136q2 15 14.5 26t30.5 11h860q17 0 27 -9.5t10 -23.5v-4l-17 -136q-1 -16 -15.5 -26t-29.5 -10h-860 q-13 0 -25 9t-12 23zM281 1087v5q0 14 16 22q61 43 140 80t151 37q76 0 176 -47q11 -5 35.5 -16t37 -16t32 -11.5t36 -9.5t33.5 -3q82 0 201 84q2 1 9.5 5t10.5 4q15 0 23 -15l43 -119q0 -2 1 -6.5t1 -7.5v-4q-2 -10 -19 -22q-174 -117 -290 -117q-69 0 -177 49 q-9 4 -35.5 15.5t-37.5 16t-31 11.5t-36 9.5t-32 2.5q-34 0 -72 -14t-63.5 -29t-64.5 -41q-15 -10 -23 -10q-17 0 -20 16l-43 119q-2 2 -2 12z" />
<glyph unicode="&#x26;" horiz-adv-x="1241" d="M109 29v4l20 166q5 32 14 41l471 518l-344 516q-6 9 -6 22q0 3 1 10.5t1 10.5l21 164q1 13 13 22.5t26 9.5h960q12 0 20.5 -7.5t8.5 -18.5v-4l-21 -160q-2 -14 -12 -23.5t-25 -9.5h-653l328 -508q4 -12 4 -18q0 -18 -10 -31l-459 -512h663q12 0 20.5 -7t8.5 -19v-5 l-18 -157q-1 -13 -12 -23t-25 -10h-963q-13 0 -22.5 8.5t-9.5 20.5z" />
<glyph unicode="'" d="M270 809l441 442l442 -442l-442 -440zM502 809l104 -104l211 210l105 -106l-211 -209l106 -104l313 313l-419 420l-105 -105l105 -104z" />
<glyph unicode="(" d="M270 809l441 442l442 -442l-442 -440zM502 809l104 -104l211 210l105 -106l-211 -209l106 -104l313 313l-419 420l-105 -105l105 -104z" />
<glyph unicode=")" d="M270 809l441 442l442 -442l-442 -440zM502 809l104 -104l211 210l105 -106l-211 -209l106 -104l313 313l-419 420l-105 -105l105 -104z" />
<glyph unicode="*" d="M270 809l441 442l442 -442l-442 -440zM502 809l104 -104l211 210l105 -106l-211 -209l106 -104l313 313l-419 420l-105 -105l105 -104z" />
<glyph unicode="+" d="M270 809l441 442l442 -442l-442 -440zM502 809l104 -104l211 210l105 -106l-211 -209l106 -104l313 313l-419 420l-105 -105l105 -104z" />
<glyph unicode="," horiz-adv-x="854" d="M328 1368q0 112 63 178q68 74 236 74q134 0 192 -47q51 -42 51 -131q0 -112 -53 -176q-69 -86 -246 -86q-143 0 -198 55q-45 42 -45 133zM498 1358q0 -50 18 -68q20 -20 68 -20q43 0 67 18.5t35 57.5q14 41 14 98v4q0 42 -18 63q-22 19 -68 19q-76 0 -96 -57 q-20 -44 -20 -115z" />
<glyph unicode="-" horiz-adv-x="1241" d="M252 569q0 2 2 4l16 138q2 14 14.5 23t30.5 9h793q17 0 27 -8t10 -20v-4l-17 -138q-1 -14 -15.5 -23t-29.5 -9h-792q-14 0 -26.5 8t-12.5 20z" />
<glyph unicode="." horiz-adv-x="628" d="M305 1274v4l21 166q2 15 15 25t32 10h248q17 0 26.5 -8.5t9.5 -22.5v-4l-20 -166q-2 -14 -14.5 -23.5t-30.5 -9.5h-250q-17 0 -27 8.5t-10 20.5z" />
<glyph unicode="/" horiz-adv-x="337" d="M-371 86q0 10 4 14l1125 1409q3 9 14 9q5 0 10 -5l107 -77q6 -6 6 -15q0 -8 -4 -12l-1124 -1411q-3 -6 -15 -6q-8 0 -10 2l-107 80q-6 3 -6 12z" />
<glyph unicode="0" horiz-adv-x="1085" d="M231 905q0 87 15.5 189t42.5 174q45 127 149.5 199.5t292.5 72.5q186 0 277 -72q58 -47 81 -114t23 -162q0 -90 -17 -195t-46 -178q-103 -254 -437 -254q-196 0 -288 86q-93 81 -93 254zM444 920q0 -106 41 -152q46 -49 146 -49q111 0 164.5 55t76.5 170q29 134 29 234 q0 92 -27 139q-41 69 -161 69q-103 0 -156 -47t-78 -143q-35 -140 -35 -276z" />
<glyph unicode="1" horiz-adv-x="628" d="M211 1376v6l10 88q3 28 33 31l328 39h4q12 0 19 -9t7 -22v-4l-110 -889q-1 -15 -12 -24.5t-25 -9.5h-131q-31 0 -31 30q0 2 2 4l88 727l-155 11q-27 3 -27 22z" />
<glyph unicode="2" horiz-adv-x="964" d="M217 608v4l21 168q9 71 69 111q19 13 85 51t122 70l57 32q15 9 58.5 34t69.5 43t46 38q50 53 50 119q0 58 -41 82t-136 24q-96 0 -284 -45q-1 0 -3.5 -1t-4.5 -1q-10 0 -18.5 8.5t-8.5 18.5l-8 84v2q0 14 8 25t20 14q49 18 145.5 34.5t205.5 16.5q165 0 245 -49 q93 -58 93 -182q0 -126 -82 -224q-69 -82 -234 -170l-246 -124l-6 -43l484 6q11 0 19.5 -7t8.5 -20v-6l-12 -107q-4 -32 -39 -32h-649q-15 0 -25 7t-10 19z" />
<glyph unicode="3" horiz-adv-x="968" d="M233 627q0 4 3 10l22 90q6 23 31 23q8 0 14 -2q103 -25 232 -25q130 0 180 53q37 34 37 96q0 56 -39 78q-30 20 -109 31q-82 10 -102 12q-31 6 -31 27v4l10 80q2 29 33 29q34 5 104 14q102 15 136 49q32 36 32 84q0 49 -26 72q-40 32 -144 32q-37 0 -79.5 -5.5 t-64.5 -9.5t-73.5 -16t-60.5 -14q-6 -2 -14 -2q-21 0 -25 25l-8 86v6q0 22 28 33q49 18 149.5 35.5t205.5 17.5q168 0 250 -59q73 -55 73 -160q0 -82 -41 -137q-51 -74 -165 -97l-7 -40q93 -15 140 -62q39 -42 39 -117q0 -126 -93 -206q-106 -95 -319 -95q-89 0 -178 12 t-119 23q-21 7 -21 25z" />
<glyph unicode="4" horiz-adv-x="1089" d="M215 823v6l12 107q4 23 19 43l452 526q5 6 16.5 12.5t18.5 6.5h254q29 0 29 -29v-6l-66 -539h109q33 0 33 -26q0 -4 -2 -6l-11 -93q-2 -14 -13 -23t-28 -9h-104l-21 -175q-6 -36 -39 -36h-124q-14 0 -22.5 8.5t-8.5 21.5v6l22 175h-499q-27 0 -27 30zM422 950h340l53 428 h-29z" />
<glyph unicode="5" horiz-adv-x="944" d="M195 610q0 4 2 8l28 113q4 12 17 12h4q126 -20 264 -20q126 0 180 59q39 42 39 103q0 54 -37 86q-43 37 -131 37q-26 0 -58 -2.5t-60 -6t-59 -8.5t-51 -8.5t-39.5 -7.5t-21.5 -4q-2 -2 -6 -2q-15 0 -22 10q-8 8 -8 14v4l96 512q2 5 8 10t10 5h604q8 0 13.5 -6t5.5 -13v-2 l-12 -112q-2 -8 -9 -14.5t-16 -6.5h-434l-43 -233q88 28 172 28q154 0 235 -67q76 -64 76 -187q0 -151 -102 -243q-114 -103 -330 -103q-106 0 -194 12t-111 21q-10 7 -10 12z" />
<glyph unicode="6" horiz-adv-x="1017" d="M231 891q0 52 11 160q9 80 23.5 140.5t39 118.5t62 98t90.5 71t127 46t168 15q70 0 135 -7t95 -15l30 -7q12 0 12 -12v-2l-31 -129q-3 -10 -14 -10h-4q-133 26 -215 26q-146 0 -212 -50t-87 -193l15 5q15 6 27.5 10t36.5 10.5t46.5 11t53 7.5t60.5 3q170 0 248 -72 q70 -67 70 -184q0 -155 -94 -252q-112 -115 -342 -115q-140 0 -218.5 40.5t-109.5 123.5q-23 65 -23 162zM436 879q0 -78 35 -119q38 -41 131 -41q108 0 158 53q45 48 45 129q0 61 -31 92q-40 43 -131 43q-97 0 -197 -35l-2 -20q-8 -49 -8 -96v-6z" />
<glyph unicode="7" horiz-adv-x="897" d="M211 1389v2l14 112q2 8 9 14.5t16 6.5h737q9 0 15 -5.5t6 -13.5v-2l-15 -123q-5 -21 -12 -28q-110 -111 -188 -202t-140.5 -186.5t-102.5 -168t-104 -199.5q-2 -4 -9.5 -9t-14.5 -5h-168q-23 0 -23 16q0 1 1 3t1 3q210 444 545 766h-547q-9 0 -14.5 5.5t-5.5 13.5z" />
<glyph unicode="8" horiz-adv-x="1054" d="M213 803q0 98 61 162q38 39 92 60t107 24l6 34l-21 4q-22 4 -40 8.5t-44 16.5t-44 29q-43 43 -43 116q0 115 84 187q112 96 348 96q173 0 268 -53q100 -56 100 -176q0 -83 -49 -144q-19 -21 -43 -37t-48 -24.5t-42.5 -13t-37 -7t-19.5 -2.5l-6 -36q84 -3 145 -50 q60 -53 60 -135q0 -58 -25.5 -113.5t-69.5 -93.5q-113 -90 -352 -90q-178 0 -276 49q-111 57 -111 189zM428 840q0 -63 39 -90q51 -31 149 -31q132 0 183 51q39 39 39 100q0 57 -41 84q-51 37 -150 37q-103 0 -158 -39q-61 -40 -61 -112zM492 1253q0 -54 36 -77 q46 -33 140 -33q102 0 157 39q52 40 52 102q0 57 -48 82q-41 20 -131 20q-109 0 -159 -34q-47 -35 -47 -99z" />
<glyph unicode="9" horiz-adv-x="1017" d="M252 606v4l33 129q0 4 4.5 7.5t9.5 3.5h2q9 -2 33 -6.5l32 -6t27 -4.5t29.5 -4.5t27 -3t32.5 -2t34 -0.5q147 0 212.5 50t88.5 194q-110 -49 -242 -49q-155 0 -233 61q-82 63 -82 199q0 162 102 258q112 104 332 104q194 0 277 -80q73 -70 76 -237v-6q0 -67 -13 -160 q-11 -97 -29.5 -167t-55 -134.5t-90.5 -104t-138 -63t-197 -23.5q-69 0 -134 7.5t-96 15.5l-30 8q-4 0 -8 3.5t-4 6.5zM471 1202q0 -62 35 -92q42 -39 127 -39q104 0 198 33l3 20q8 74 8 99q0 91 -43 131q-38 35 -123 35q-107 0 -158 -54q-47 -50 -47 -133z" />
<glyph unicode=":" horiz-adv-x="1030" d="M328 1436q0 17 4 57q4 35 33 35h104q23 0 23 -25v-10q0 -6 -1.5 -17t-1.5 -16q0 -69 42 -99t147 -30q118 0 166.5 37t60.5 125q4 35 33 35h104q25 0 25 -25q0 -2 -1 -5t-1 -5q-19 -162 -118.5 -228.5t-282.5 -66.5q-167 0 -251.5 54.5t-84.5 183.5z" />
<glyph unicode=";" horiz-adv-x="995" d="M330 1440q0 8 6 14l96 102q11 11 19 11q9 0 12 -6l205 -175l247 175q6 6 13 6t18 -11l70 -102q2 -2 2 -10q0 -12 -10 -19l-326 -211h-72l-272 211q-8 5 -8 15z" />
<glyph unicode="&#x3c;" horiz-adv-x="1241" d="M135 29v4l19 137q2 14 14.5 23.5t30.5 9.5h903q17 0 27 -8.5t10 -20.5v-4l-17 -137q-3 -14 -17 -23.5t-30 -9.5h-901q-13 0 -26 8t-13 21zM205 672v4l16 137q3 22 25 33l915 379q6 4 19 4q17 0 20 -15l49 -139q0 -1 1 -4t1 -4q0 -21 -20 -29l-770 -290l700 -273 q15 -7 15 -22q0 -5 -5 -15l-84 -139q-6 -14 -24 -14q-10 0 -16 4l-826 358q-16 5 -16 25z" />
<glyph unicode="=" horiz-adv-x="1241" d="M201 418v4l16 135q1 16 15.5 26.5t29.5 10.5h862q14 0 25.5 -9.5t11.5 -23.5v-4l-18 -135q-2 -15 -14.5 -26t-30.5 -11h-516l-215 -281q-7 -10 -19 -10q-6 0 -10 2l-78 54q-6 3 -6 12q0 6 6 12l160 211h-182q-17 0 -27 9.5t-10 23.5zM240 731v4l16 135q2 15 14.5 26 t30.5 11h504l215 281q10 10 20 10q7 0 9 -2l79 -53q5 -3 5 -10q0 -10 -5 -15l-159 -211h192q17 0 27 -9.5t10 -23.5v-4l-16 -135q-1 -16 -16 -26.5t-29 -10.5h-861q-13 0 -24.5 9.5t-11.5 23.5z" />
<glyph unicode="&#x3e;" horiz-adv-x="1241" d="M127 29v4l16 137q3 14 15.5 23.5t29.5 9.5h904q17 0 27.5 -8.5t10.5 -20.5v-4l-18 -137q-1 -14 -15.5 -23.5t-29.5 -9.5h-901q-15 0 -27 8t-12 21zM176 446q0 20 19 29l768 273l-699 290q-12 8 -12 23q0 10 4 14l82 139q9 15 24 15q13 0 17 -4l823 -379q17 -8 17 -27v-6 l-17 -137q-5 -23 -24 -29l-914 -358q-6 -4 -16 -4q-17 0 -23 14l-47 139q-2 2 -2 8z" />
<glyph unicode="?" horiz-adv-x="1187" d="M141 408q0 99 20.5 204t59.5 187q127 270 453 270q160 0 264 -90q2 6 2 8q0 108 -31.5 192t-85.5 138.5t-132 89t-165 49t-190 14.5q-43 0 -43 33v6l14 119q7 41 45 41h62q206 0 356.5 -52.5t243.5 -155.5t137.5 -245.5t44.5 -330.5q0 -296 -59 -518q-18 -65 -43 -118.5 t-68.5 -106.5t-100.5 -89t-142 -58t-189 -22q-240 0 -352 115q-101 104 -101 320zM418 377q0 -120 53 -168q48 -45 145 -45q107 0 162 50t82 151q39 160 39 297q0 100 -33 149q-46 68 -164 68q-108 0 -164 -53t-83 -158q-37 -155 -37 -291z" />
<glyph unicode="@" d="M270 809l441 442l442 -442l-442 -440zM502 809l104 -104l211 210l105 -106l-211 -209l106 -104l313 313l-419 420l-105 -105l105 -104z" />
<glyph unicode="A" horiz-adv-x="1085" d="M160 324q0 88 15 189t42 171q47 129 151 201.5t294 72.5q185 0 274 -73q58 -45 81 -112.5t23 -162.5q0 -92 -16.5 -196t-46.5 -176q-32 -78 -82 -131.5t-140 -88t-214 -34.5q-195 0 -289 84q-92 83 -92 256zM373 336q0 -104 41 -150q46 -49 145 -49q111 0 165 55t77 168 q28 133 28 236q0 94 -26 139q-42 70 -162 70q-102 0 -155 -47.5t-78 -143.5q-35 -140 -35 -278z" />
<glyph unicode="B" horiz-adv-x="628" d="M139 795v4l11 90q5 26 32 29l328 40h4q12 0 19.5 -9t7.5 -21v-4l-111 -889q-3 -35 -37 -35h-131q-29 0 -29 29v6l89 727l-154 10q-29 0 -29 23z" />
<glyph unicode="C" horiz-adv-x="964" d="M145 27v4l21 168q8 66 70 110q19 13 85 51.5t123 70.5l56 32q9 5 45 26t51 30t38.5 26t39.5 33q49 49 49 118q0 58 -41 82q-40 23 -133 23q-108 0 -287 -43q-2 -2 -6 -2q-12 0 -20.5 7.5t-8.5 18.5l-8 82v4q0 28 29 39q163 51 350 51q166 0 246 -49q92 -58 92 -184 t-82 -221q-70 -83 -233 -170l-246 -127l-6 -41l483 6q12 0 21.5 -7t9.5 -20q0 -1 -1 -3t-1 -3l-13 -106q-4 -33 -39 -33h-649q-15 0 -25 7.5t-10 19.5z" />
<glyph unicode="D" horiz-adv-x="968" d="M162 45q0 6 2 10l24 90q1 10 9.5 16.5t19.5 6.5q2 0 6.5 -1t7.5 -1q102 -25 232 -25q128 0 180 52q37 37 37 98q0 56 -39 78q-36 21 -106 28q-53 10 -105 15q-10 0 -20.5 6.5t-10.5 19.5v2l11 82q1 7 3.5 12.5t7 8.5t8 4.5t8.5 2.5l5 1q17 2 53 6.5t54 7.5q100 16 133 49 t33 84q0 48 -27 72q-39 31 -143 31q-17 0 -33.5 -0.5t-35 -3t-31 -3.5t-33.5 -5t-29.5 -5.5t-31.5 -7t-28 -6.5t-30 -7.5t-27 -6.5h-14q-22 0 -25 22l-8 88v4q0 23 29 35q52 18 150.5 35.5t203.5 17.5q168 0 250 -59q74 -56 74 -162q0 -80 -41 -135q-50 -72 -166 -96l-6 -41 q96 -15 139 -64q39 -42 39 -116q0 -124 -92 -207q-107 -94 -318 -94q-91 0 -180 11.5t-119 22.5q-20 10 -20 27z" />
<glyph unicode="E" horiz-adv-x="1089" d="M143 242v6l13 106q4 25 18 41l453 529q18 18 35 18h253q31 0 31 -31q-2 -2 -2 -4l-65 -538h108q15 0 24 -8.5t9 -20.5v-4l-12 -92q-3 -33 -41 -33h-105l-20 -176q-3 -15 -13.5 -25t-25.5 -10h-125q-14 0 -22.5 8t-8.5 21q0 4 2 6l21 176h-500q-27 0 -27 31zM350 369h340 l53 428h-28z" />
<glyph unicode="F" horiz-adv-x="944" d="M123 29q0 1 1 3t1 3l29 115q4 12 16 12h4q110 -21 264 -21q128 0 180 60q39 39 39 102q0 55 -36 86q-40 37 -132 37q-68 0 -156.5 -14.5t-131.5 -24.5h-6q-16 0 -23 10q-8 4 -8 15v2l96 514q1 4 7.5 9t11.5 5h604q18 0 18 -18v-2l-12 -113q-1 -9 -8.5 -15t-16.5 -6h-434 l-43 -233q88 29 172 29q150 0 236 -68q75 -63 75 -186q0 -157 -100 -244q-113 -102 -332 -102q-106 0 -194.5 11.5t-110.5 20.5q-10 7 -10 13z" />
<glyph unicode="G" horiz-adv-x="1017" d="M160 309q0 62 10 160q9 79 23.5 139.5t39 118.5t62 98.5t90.5 71.5t127 46t168 15q70 0 135 -7.5t95 -14.5l30 -8q12 0 12 -10v-3l-30 -131q-4 -8 -15 -8h-4q-8 2 -28.5 6t-27.5 5t-24 4.5t-25.5 4.5t-24 2.5t-27 2.5t-27 1.5t-31.5 0.5q-146 0 -212 -50.5t-87 -195.5 q110 49 240 49q170 0 250 -74q67 -64 67 -184q0 -156 -94 -250q-111 -114 -340 -114q-142 0 -220.5 40t-109.5 123q-22 62 -22 162zM365 297q0 -82 34 -119q38 -41 131 -41q107 0 158 51q45 51 45 131q0 57 -31 93q-38 41 -131 41q-102 0 -196 -33l-2 -21q-8 -49 -8 -96v-6z " />
<glyph unicode="H" horiz-adv-x="897" d="M139 805v2l15 115q2 8 8.5 14t15.5 6h737q9 0 15 -5t6 -13v-2l-14 -123q-5 -21 -13 -29q-110 -112 -188 -203t-140 -186t-102.5 -168t-103.5 -199q-7 -14 -25 -14h-168q-22 0 -22 14q0 2 1 5t1 4q205 433 545 763h-547q-9 0 -15 5.5t-6 13.5z" />
<glyph unicode="I" horiz-adv-x="1054" d="M141 221q0 97 62 162q73 76 198 84l7 35q-1 0 -22 3.5t-39.5 7.5t-43.5 15.5t-43 28.5q-45 45 -45 119q0 111 84 186q110 94 348 94q176 0 268 -51q103 -57 103 -176q0 -80 -51 -143q-60 -69 -191 -84l-4 -37q84 -4 143 -51q60 -47 60 -135q0 -126 -94 -205 q-113 -90 -353 -90q-180 0 -274 49q-113 57 -113 188zM356 258q0 -61 39 -90q44 -31 150 -31q130 0 182 49q39 39 39 101q0 59 -41 86q-48 35 -150 35t-157 -37q-62 -41 -62 -113zM420 672q0 -53 37 -80q47 -31 139 -31q106 0 160 39q49 37 49 102q0 56 -47 80 q-42 23 -129 23q-111 0 -160 -35q-49 -34 -49 -98z" />
<glyph unicode="J" horiz-adv-x="1017" d="M180 25q0 2 2 2l31 131q0 10 14 10q2 0 2 -2q9 -2 33.5 -6.5t32 -6t27 -5t29.5 -4.5t27 -2.5t33 -2t35 -0.5q146 0 212 50.5t87 195.5q-110 -49 -241 -49q-156 0 -234 61q-82 63 -82 199q0 162 103 256q112 106 332 106q194 0 276 -79q73 -73 76 -238v-8q0 -62 -10 -160 q-10 -79 -24.5 -139.5t-39.5 -118.5t-62.5 -98.5t-90 -71.5t-126 -46t-167.5 -15q-70 0 -135.5 7.5t-95.5 14.5l-31 8q-13 0 -13 11zM401 618q0 -61 33 -90q42 -39 129 -39q103 0 197 33l2 21q8 74 8 98q0 92 -43 129q-38 35 -123 35q-110 0 -158 -51q-45 -48 -45 -136z" />
<glyph unicode="K" horiz-adv-x="1665" d="M115 610q0 84 25 165t75 140q108 125 309 125q72 0 127 -15t106.5 -55.5t77.5 -67.5t82 -94q9 -10 13 -15q124 112 167 144q127 94 267 102q16 1 33 1q158 0 241 -77q80 -77 80 -222q0 -187 -102 -303q-109 -127 -309 -127q-69 0 -123.5 14.5t-104.5 53.5t-76 66t-81 90 l-21 24q-123 -112 -166 -144q-127 -95 -268 -103q-15 -1 -31 -1q-155 0 -241 80q-80 77 -80 219zM330 647q0 -72 35 -104q37 -37 110 -37q101 0 318 170q-183 170 -275 170q-95 0 -147 -64q-41 -52 -41 -135zM1038 678q2 -2 19.5 -17.5t32 -28t38.5 -32t46 -34.5t47 -29 t49.5 -21.5t44.5 -7.5q97 0 145 63q43 51 43 136q0 69 -35 104q-40 37 -112 37q-18 0 -41 -6.5t-45 -16t-49 -24.5t-47.5 -27.5t-45.5 -30t-38.5 -27.5t-31.5 -23.5t-20 -14.5z" />
<glyph unicode="L" horiz-adv-x="1290" d="M106 756q0 18 25 28l211 62l78 635q5 25 35 28l237 31h4q23 0 23 -24v-5l-72 -575l426 125q2 0 6 1t6 1q20 0 23 -14l22 -136v-4q0 -21 -24 -28l-481 -142l-64 -508h690q12 0 20.5 -8t8.5 -20v-4l-20 -166q-1 -13 -12 -23t-25 -10h-951q-12 0 -21 8t-9 19q0 4 2 4l75 620 l-155 -47h-10q-23 0 -23 14l-22 134q-3 0 -3 4z" />
<glyph unicode="M" horiz-adv-x="1366" d="M174 1319v4l21 160q2 12 12.5 21t23.5 9h1276q13 0 21 -7.5t8 -18.5v-4l-18 -160q-2 -12 -13 -21.5t-24 -9.5h-168l-154 -1261q-7 -31 -39 -31h-227q-12 0 -20.5 8t-8.5 19v4l154 1261h-352l-156 -1261q-1 -13 -12 -22t-25 -9h-227q-12 0 -20.5 8t-8.5 19v4l154 1261 h-166q-13 0 -22 8t-9 19z" />
<glyph unicode="N" horiz-adv-x="1691" d="M121 750q0 19 12 28l875 727q8 8 24 8q19 0 25 -6l694 -727q6 -9 6 -18q0 -22 -10 -29l-875 -727q-8 -8 -28 -8q-17 0 -23 6l-696 729q-4 4 -4 17zM418 760l465 -500l581 496l-465 497z" />
<glyph unicode="O" horiz-adv-x="1513" d="M123 20v5l16 129q0 16 23 20l315 57l6 45q-129 54 -196 160q-82 124 -82 305q0 121 33 261t88 237q174 301 620 301q325 0 465 -156q111 -127 111 -368q0 -242 -80 -414q-107 -239 -342 -326l-6 -45l301 -57q18 -4 18 -18v-2l-16 -129q-1 -10 -9.5 -17.5t-19.5 -7.5h-473 q-11 0 -18 7t-7 18v2l41 331q177 88 252 289q58 152 58 359q0 155 -50 229q-70 98 -249 98q-143 0 -226 -56t-127 -171q-29 -75 -47 -183t-18 -196q0 -143 59 -244q50 -79 127 -125l-41 -331q-1 -10 -10.5 -18.5t-20.5 -8.5h-473q-22 0 -22 20z" />
<glyph unicode="P" horiz-adv-x="1474" d="M193 27v4l178 1450q3 25 32 28l238 31h6q21 0 21 -24v-5l-35 -284h446q260 0 361 -117q40 -43 59 -121q14 -52 14 -129q0 -139 -47 -266q-39 -110 -118 -180q-79 -71 -194 -96t-265 -25h-17l-354 2l-31 -264q-7 -31 -38 -31h-228q-12 0 -20 8t-8 19zM543 485l278 11 q120 4 187 16t110 49q48 42 68 121q20 68 20 133q0 95 -39 141q-31 36 -89.5 48t-153.5 12h-316z" />
<glyph unicode="Q" d="M270 809l441 442l442 -442l-442 -440zM502 809l104 -104l211 210l105 -106l-211 -209l106 -104l313 313l-419 420l-105 -105l105 -104z" />
<glyph unicode="R" d="M270 809l441 442l442 -442l-442 -440zM502 809l104 -104l211 210l105 -106l-211 -209l106 -104l313 313l-419 420l-105 -105l105 -104z" />
<glyph unicode="S" horiz-adv-x="1402" d="M154 88q0 3 1 8t1 8l43 136q8 26 39 26q8 0 12 -2q5 -1 58.5 -13.5t105.5 -23.5t131 -20.5t147 -9.5q187 0 275 79q71 65 71 173q0 54 -23 86.5t-69 54.5q-12 6 -25 11t-31 10t-29.5 7.5t-36 7t-33.5 6t-40 6t-38 5.5q-115 17 -199.5 42.5t-146.5 76.5q-111 87 -111 254 q0 103 33.5 198.5t101.5 163.5q161 158 506 158q39 0 77.5 -2t74.5 -5.5t67.5 -7.5t63 -10t54.5 -10.5t48.5 -11t38.5 -9.5t31.5 -8.5t19.5 -5.5q33 -10 33 -36q0 -5 -4 -17l-43 -133q-3 -11 -14 -20t-23 -9q-1 0 -3 1t-3 1q-13 3 -60.5 14t-79.5 17t-81 14.5t-99.5 12.5 t-101.5 4q-175 0 -256 -60q-40 -28 -61 -73.5t-21 -94.5q0 -57 30.5 -92t88.5 -57q64 -26 209 -45q66 -10 91 -14.5t77.5 -16t89.5 -26.5t69 -35q136 -85 136 -285q0 -230 -144 -371q-168 -168 -516 -168q-120 0 -242.5 17.5t-174 31t-89.5 25.5q-26 9 -26 37zM621 1876 q0 8 6 14l96 103q8 8 18 8q11 0 13 -4l204 -176l248 176q4 4 13 4q10 0 18 -8l70 -103q2 -2 2 -10q0 -10 -11 -18l-325 -211h-70l-274 211q-8 5 -8 14z" />
<glyph unicode="T" horiz-adv-x="1685" d="M100 696v4l17 134q3 13 14.5 21.5t24.5 8.5h178l76 619q2 12 12.5 21t23.5 9h613q201 0 330 -43.5t198 -140.5q88 -121 88 -362q0 -212 -51 -424q-72 -296 -247.5 -419.5t-504.5 -123.5h-612q-12 0 -20.5 8.5t-8.5 20.5v4l78 635h-178q-13 0 -22 8.5t-9 19.5zM547 213 h319q97 0 164 12.5t124 46.5t95.5 95t65.5 155q59 204 59 449q0 161 -63 239q-42 52 -117.5 72.5t-194.5 20.5h-317l-55 -439h432q11 0 21 -7.5t10 -18.5v-4l-17 -134q-2 -12 -13 -22t-26 -10h-432z" />
<glyph unicode="U" d="M270 809l441 442l442 -442l-442 -440zM502 809l104 -104l211 210l105 -106l-211 -209l106 -104l313 313l-419 420l-105 -105l105 -104z" />
<glyph unicode="V" horiz-adv-x="1601" d="M162 1036q0 15 11 26.5t26 14.5l207 25h6q27 0 30 -33l119 -893h55l467 1307q4 13 16.5 21.5t24.5 8.5h637q12 0 20.5 -8t8.5 -20v-4l-21 -160q-2 -14 -11.5 -23.5t-24.5 -9.5h-443l-499 -1255q-5 -14 -16.5 -23.5t-26.5 -9.5h-369q-30 0 -37 33l-178 995q0 2 -1 4.5 t-1 3.5z" />
<glyph unicode="W" d="M270 809l441 442l442 -442l-442 -440zM502 809l104 -104l211 210l105 -106l-211 -209l106 -104l313 313l-419 420l-105 -105l105 -104z" />
<glyph unicode="X" d="M270 809l441 442l442 -442l-442 -440zM502 809l104 -104l211 210l105 -106l-211 -209l106 -104l313 313l-419 420l-105 -105l105 -104z" />
<glyph unicode="Y" horiz-adv-x="1427" d="M174 1477q0 12 12 24t21 12h268q17 0 25 -6t16 -22l311 -662l463 662q11 17 19.5 22.5t25.5 5.5h260q11 0 17 -8t6 -18q0 -13 -4 -17l-676 -884l-68 -555q-1 -13 -12.5 -22t-26.5 -9h-227q-12 0 -20.5 8t-8.5 19v4l68 553l-467 884q-2 2 -2 9zM705 1759q0 12 10 19 l338 221q8 4 12 4q13 0 18 -10l74 -115q2 -2 2 -10q0 -9 -10 -19l-342 -211q-6 -6 -14 -6q-10 0 -17 10l-67 107q-4 8 -4 10z" />
<glyph unicode="Z" horiz-adv-x="1382" d="M98 27v4l19 147q1 9 3 16t3 11t4.5 9.5t4.5 6.5t6.5 7.5t6.5 7.5l914 1056h-783q-12 0 -20 7.5t-8 19.5v4l20 160q2 12 12 21t23 9h1124q12 0 20.5 -8t8.5 -20v-4l-20 -160q-2 -22 -21 -45l-932 -1053h809q12 0 20.5 -7t8.5 -19v-4l-21 -160q-2 -14 -12.5 -23.5 t-23.5 -9.5h-1137q-12 0 -20.5 8t-8.5 19zM571 1876q0 7 7 14l94 103q8 8 20 8q9 0 13 -4l202 -176l248 176q4 4 14 4q12 0 17 -8l69 -103q5 -5 5 -10q0 -11 -11 -18l-325 -211h-72l-274 211q-7 7 -7 14z" />
<glyph unicode="[" d="M270 809l441 442l442 -442l-442 -440zM502 809l104 -104l211 210l105 -106l-211 -209l106 -104l313 313l-419 420l-105 -105l105 -104z" />
<glyph unicode="\" d="M270 809l441 442l442 -442l-442 -440zM502 809l104 -104l211 210l105 -106l-211 -209l106 -104l313 313l-419 420l-105 -105l105 -104z" />
<glyph unicode="]" d="M270 809l441 442l442 -442l-442 -440zM502 809l104 -104l211 210l105 -106l-211 -209l106 -104l313 313l-419 420l-105 -105l105 -104z" />
<glyph unicode="^" d="M270 809l441 442l442 -442l-442 -440zM502 809l104 -104l211 210l105 -106l-211 -209l106 -104l313 313l-419 420l-105 -105l105 -104z" />
<glyph unicode="_" horiz-adv-x="995" d="M317 1337q0 12 11 19l325 211h72l274 -211q7 -7 7 -15q0 -7 -7 -14l-94 -104q-11 -11 -20 -11q-3 0 -13 5l-204 176l-246 -176q-10 -5 -14 -5q-10 0 -17 11l-69 104z" />
<glyph unicode="`" horiz-adv-x="761" d="M119 -256q0 83 57 168q60 92 207 201l96 -68q-80 -67 -121 -123q-61 -76 -61 -155q0 -35 29 -50q31 -16 88 -16q31 0 63.5 4t48.5 8l17 4h2q16 0 20 -18l2 -74v-2q0 -16 -22 -20q-95 -23 -199 -23q-130 0 -186 53q-41 38 -41 107v4z" />
<glyph unicode="a" horiz-adv-x="2158" d="M317 1376v6l11 88q3 28 32 31l328 39h2q12 0 19.5 -9.5t7.5 -21.5v-4l-109 -889q-6 -34 -39 -34h-129q-30 0 -30 28q0 4 2 6l88 727l-156 11q-27 3 -27 22zM416 86q0 10 4 14l1122 1409q6 9 17 9q5 0 10 -5l106 -77q6 -6 6 -15q0 -4 -4 -12l-1124 -1411q-6 -6 -16 -6 q-7 0 -9 2l-108 80q-4 4 -4 12zM1155 242v6l14 106q0 21 19 43l452 529q14 18 35 18h252q14 0 22.5 -8t8.5 -21v-6l-66 -538h107q33 0 33 -29v-6l-13 -92q-4 -33 -39 -33h-104l-23 -176q-1 -17 -11.5 -26t-24.5 -9h-127q-12 0 -20.5 8t-8.5 21v6l20 176h-497q-13 0 -21 8.5 t-8 22.5zM1362 369h340l53 430h-29z" />
<glyph unicode="b" horiz-adv-x="2217" d="M317 1376v6l11 88q2 28 32 31l328 39h2q12 0 19.5 -9.5t7.5 -21.5v-4l-109 -889q-6 -34 -39 -34h-129q-30 0 -30 28q0 4 2 6l88 727l-156 11q-27 3 -27 22zM416 86q0 10 4 14l1122 1409q6 9 17 9q5 0 10 -5l106 -77q6 -6 6 -15q0 -4 -4 -12l-1124 -1411q-6 -6 -16 -6 q-7 0 -9 2l-108 80q-4 4 -4 12zM1313 27v4l20 168q8 68 68 110q19 13 85 51.5t122 70.5l57 32q13 8 39 22.5t41.5 23.5t36 22.5t35.5 25.5q71 56 71 141q0 47 -28 72q-41 33 -146 33q-99 0 -287 -45q-2 -2 -6 -2q-24 0 -28 26l-9 84v2q0 27 29 39q163 51 352 51 q188 0 267 -65q71 -56 71 -168q0 -124 -82 -219q-72 -84 -235 -172l-260 -137l-4 -31l495 6q13 0 22 -7t9 -20v-6l-14 -106q-4 -33 -37 -33h-651q-15 0 -24 7.5t-9 19.5z" />
<glyph unicode="c" horiz-adv-x="2404" d="M248 627q0 6 2 10l22 90q6 23 31 23q8 0 14 -2q103 -25 232 -25q124 0 178 49q39 36 39 94q0 55 -29 78q-26 22 -119 37q-83 10 -102 12q-31 6 -31 27v4l11 80q2 29 32 29q26 4 105 14q93 13 127 43q41 33 41 90q0 54 -37 78q-42 26 -133 26q-37 0 -79.5 -5.5t-64.5 -9.5 t-75 -16t-60 -14q-6 -2 -14 -2q-21 0 -25 25l-8 86v6q0 21 29 33q49 18 149 35.5t205 17.5q159 0 244 -55q80 -56 80 -166q0 -92 -54 -152q-56 -64 -170 -84l-4 -32q102 -12 152 -62q41 -44 41 -115q0 -126 -84 -204q-106 -103 -328 -103q-89 0 -178 12t-119 23 q-20 7 -20 25zM662 86q0 10 4 14l1122 1409q6 9 16 9q1 0 11 -5l106 -77q6 -6 6 -15q0 -6 -6 -12l-1122 -1411q-6 -6 -17 -6q-6 0 -10 2l-106 80q-4 2 -4 12zM1401 242q0 4 2 6l12 106q4 25 19 43l452 529q14 18 35 18h254q29 0 29 -29v-6l-66 -538h109q30 0 30 -29v-4 l-10 -94q-2 -14 -13 -23.5t-28 -9.5h-104l-23 -176q-3 -35 -37 -35h-125q-30 0 -30 29v6l22 176h-499q-13 0 -21 8.5t-8 22.5zM1610 369h340l51 430h-29z" />
<glyph unicode="d" horiz-adv-x="1476" d="M37 33q0 10 6 22l674 1432q6 10 19.5 18t23.5 8h327q10 0 22 -8t15 -18l324 -1432v-12q0 -17 -12 -30t-35 -13h-1325q-39 0 -39 33zM344 186h830l-232 1139h-86z" />
<glyph unicode="e" horiz-adv-x="1431" d="M137 555v4l15 115q2 14 11.5 22.5t22.5 8.5h1125q9 0 14.5 -5.5t5.5 -13.5v-6l-33 -127q-9 -25 -30 -25h-625q3 -85 16.5 -139.5t47 -99.5t97.5 -65.5t163 -20.5q143 0 372 51q16 4 21 4q24 0 24 -22l15 -136v-6q0 -28 -41 -43q-174 -69 -453 -69h-10q-157 0 -263 31 q-110 32 -175 100.5t-93 164.5t-28 234v16h-172q-12 0 -19.5 7.5t-7.5 19.5zM172 844q0 2 2 4l12 115q1 13 11 21.5t24 8.5h170q45 190 127 306t223 174.5t355 58.5q269 0 436 -72q31 -11 31 -33q0 -6 -4 -14l-46 -135q-9 -23 -30 -23q-13 0 -21 2q-178 52 -360 52 q-80 0 -141.5 -15.5t-103 -41t-73 -67.5t-50.5 -86t-36 -106h664q9 0 15.5 -5.5t6.5 -12.5q0 -4 -2 -6l-32 -125q-6 -25 -31 -25h-1118q-29 0 -29 25z" />
<glyph unicode="f" d="M270 809l441 442l442 -442l-442 -440zM502 809l104 -104l211 210l105 -106l-211 -209l106 -104l313 313l-419 420l-105 -105l105 -104z" />
<glyph unicode="g" d="M270 809l441 442l442 -442l-442 -440zM502 809l104 -104l211 210l105 -106l-211 -209l106 -104l313 313l-419 420l-105 -105l105 -104z" />
<glyph unicode="h" d="M270 809l441 442l442 -442l-442 -440zM502 809l104 -104l211 210l105 -106l-211 -209l106 -104l313 313l-419 420l-105 -105l105 -104z" />
<glyph unicode="i" d="M270 809l441 442l442 -442l-442 -440zM502 809l104 -104l211 210l105 -106l-211 -209l106 -104l313 313l-419 420l-105 -105l105 -104z" />
<glyph unicode="j" d="M270 809l441 442l442 -442l-442 -440zM502 809l104 -104l211 210l105 -106l-211 -209l106 -104l313 313l-419 420l-105 -105l105 -104z" />
<glyph unicode="k" horiz-adv-x="610" d="M172 27v4l123 995q2 14 12 22.5t25 8.5h209q26 0 26 -27v-4l-123 -995q-2 -14 -11.5 -22.5t-22.5 -8.5h-209q-12 0 -20.5 7.5t-8.5 19.5z" />
<glyph unicode="l" horiz-adv-x="804" d="M106 741v4q0 10 7.5 18.5t15.5 10.5l213 62l76 628q3 21 10.5 29.5t26.5 11.5l207 35h10q26 0 26 -27v-6l-71 -587l229 67q4 2 12 2q20 0 23 -14l24 -127v-4q0 -22 -26 -29l-287 -84l-45 -375q-12 -77 -12 -108q0 -27 18 -49q22 -19 55 -19q42 0 70 8h8q18 0 21 -20 l8 -123v-2q0 -15 -9 -24t-16 -9q-63 -28 -186 -28q-124 0 -186 59q-60 57 -60 164q0 41 15 153l34 289l-153 -45q-4 -2 -12 -2q-20 0 -23 14z" />
<glyph unicode="m" horiz-adv-x="1241" d="M162 903v4l16 137q2 14 12 22.5t25 8.5h1075q29 0 29 -26v-5l-16 -137q-1 -13 -11.5 -21.5t-25.5 -8.5h-131l-105 -846q-1 -13 -11 -22t-24 -9h-211q-12 0 -20 7.5t-8 19.5v4l104 846h-264l-104 -846q-1 -13 -11 -22t-24 -9h-209q-14 0 -22.5 7.5t-8.5 19.5q2 2 2 4 l103 846h-132q-28 0 -28 26z" />
<glyph unicode="n" d="M270 809l441 442l442 -442l-442 -440zM502 809l104 -104l211 210l105 -106l-211 -209l106 -104l313 313l-419 420l-105 -105l105 -104z" />
<glyph unicode="o" horiz-adv-x="1484" d="M309 383q0 8 8 16l125 103q-16 59 -16 110q0 92 18 158q14 55 45 115l-98 102q-6 3 -6 10q0 13 12 25l135 123q15 10 25 10q6 0 12 -6l95 -96q98 43 213 43q116 0 204 -43l117 96q9 6 14 6q13 0 23 -10l104 -123q7 -7 7 -18t-9 -17l-123 -102q17 -63 17 -111 q0 -77 -19 -158q-10 -37 -45 -114l99 -103q4 -2 4 -10q0 -11 -13 -24l-133 -123q-16 -11 -24 -11t-15 7l-92 96q-98 -43 -215 -43q-115 0 -203 43l-118 -96q-7 -7 -15 -7q-9 0 -20 11l-105 123q-8 8 -8 18zM621 618q0 -80 41 -118q40 -37 139 -37q77 0 123 23t71 73 q39 79 39 209q0 83 -39 119q-43 37 -139 37q-77 0 -123 -23.5t-71 -73.5q-41 -78 -41 -209z" />
<glyph unicode="p" horiz-adv-x="1214" d="M90 -397l227 1859q6 37 41 43l203 35h10q27 0 27 -27v-6l-41 -329l-37 -125q164 49 303 49q232 0 320 -121q65 -95 65 -276q0 -227 -65 -416q-53 -153 -163.5 -234.5t-305.5 -81.5q-150 0 -283 37l6 -127l-28 -235q-3 -35 -39 -41l-203 -37h-10q-12 0 -19.5 7.5 t-7.5 19.5v6zM436 184q80 -22 191 -22q118 0 176.5 49t89.5 186q37 154 37 310q0 109 -31 151q-38 51 -158 51q-41 0 -96 -8t-90 -16l-35 -8z" />
<glyph unicode="q" d="M270 809l441 442l442 -442l-442 -440zM502 809l104 -104l211 210l105 -106l-211 -209l106 -104l313 313l-419 420l-105 -105l105 -104z" />
<glyph unicode="r" d="M270 809l441 442l442 -442l-442 -440zM502 809l104 -104l211 210l105 -106l-211 -209l106 -104l313 313l-419 420l-105 -105l105 -104z" />
<glyph unicode="s" horiz-adv-x="1011" d="M98 59q0 5 4 17l37 117q8 22 27 22h10q1 0 26.5 -7t52.5 -13.5t64.5 -14t80 -12t81.5 -4.5q120 0 174 51q43 40 43 107q0 41 -17.5 63t-53.5 33q-8 3 -117 22q-3 1 -23 4t-26.5 4.5t-26 5.5t-29 7t-27 8t-29 10t-26.5 12t-27.5 15t-23.5 18q-77 63 -77 187q0 172 102 274 q122 117 379 117q40 0 80.5 -3t71 -7t63 -10t50 -10t39.5 -9t24 -6q18 -5 18 -25v-10l-37 -123q-5 -18 -29 -18h-6q-1 0 -24 4.5t-46.5 8.5t-55.5 8.5t-67.5 7.5t-66.5 3q-100 0 -153 -30q-66 -38 -66 -111q0 -65 61 -90q36 -15 144 -31q172 -27 235 -88q66 -66 66 -190 q0 -159 -94 -262q-120 -136 -400 -136q-114 0 -219 22t-147 40q-1 0 -5.5 3t-6.5 4.5t-4.5 5.5t-2.5 9zM354 1440q0 8 6 14l95 102q9 9 20 9q8 0 12 -4l205 -177l246 177q4 4 14 4q11 0 17 -9l71 -102q0 -1 1 -4.5t1 -5.5q0 -12 -10 -19l-325 -211h-72l-275 211q-6 6 -6 15z " />
<glyph unicode="t" horiz-adv-x="1187" d="M141 406q0 109 25 223.5t72 199.5q128 240 436 240q161 0 262 -94q0 1 6 4t6 4q-3 122 -52 219t-114 146l-217 -138q-12 -6 -18 -6q-10 0 -15 8l-67 82q-4 4 -4 13q0 12 12 18l168 102q-92 43 -305 43q-43 3 -43 33v6l14 119q7 41 45 41h60q279 0 452 -98l170 110 q14 7 19 7q8 0 14 -9l68 -88q4 -4 4 -10q0 -11 -17 -22l-129 -82q203 -183 203 -603q0 -130 -17.5 -280t-50.5 -258q-19 -60 -45 -110t-70 -98.5t-100 -81.5t-138 -53t-181 -20q-213 0 -330 93q-123 105 -123 340zM418 377q0 -109 43 -160q47 -53 155 -53q165 0 224 137 q26 61 41.5 168.5t17.5 192.5v4q0 120 -53 170q-49 43 -144 43q-108 0 -164 -52.5t-83 -156.5q-37 -155 -37 -293z" />
<glyph unicode="u" d="M270 809l441 442l442 -442l-442 -440zM502 809l104 -104l211 210l105 -106l-211 -209l106 -104l313 313l-419 420l-105 -105l105 -104z" />
<glyph unicode="v" d="M270 809l441 442l442 -442l-442 -440zM502 809l104 -104l211 210l105 -106l-211 -209l106 -104l313 313l-419 420l-105 -105l105 -104z" />
<glyph unicode="w" d="M270 809l441 442l442 -442l-442 -440zM502 809l104 -104l211 210l105 -106l-211 -209l106 -104l313 313l-419 420l-105 -105l105 -104z" />
<glyph unicode="x" horiz-adv-x="1232" d="M168 319q0 15 16 31l375 316l-297 317q-10 10 -10 23q0 15 16 28l115 101q12 12 27 12t24 -12l281 -330l360 330q15 12 29 12t24 -10l91 -103q10 -10 10 -20q0 -15 -19 -31l-372 -317l295 -316q10 -10 10 -24q0 -17 -15 -29l-114 -100q-18 -11 -27 -11q-13 0 -26 13 l-279 329l-363 -329q-16 -13 -28 -13t-23 11l-92 100q-8 12 -8 22z" />
<glyph unicode="y" horiz-adv-x="1107" d="M96 -383l17 117q4 37 37 37h2q101 -7 118 -7q81 0 126.5 27.5t74.5 97.5l43 111h-133q-28 0 -35 33l-178 997v6q0 17 11 28t28 11h205q19 0 27.5 -7t11.5 -26l114 -866h53l306 864q11 35 47 35h211q13 0 21.5 -8t8.5 -20q0 -11 -2 -17l-481 -1157q-33 -79 -64 -129.5 t-79 -93t-115.5 -61.5t-161.5 -19q-116 0 -188 14q-25 3 -25 25v8zM510 1333q0 9 10 19l338 221q8 4 12 4q12 0 19 -10l74 -115q2 -4 2 -10q0 -12 -11 -19l-342 -213q-8 -4 -14 -4q-9 0 -16 11l-68 106q-4 4 -4 10z" />
<glyph unicode="z" horiz-adv-x="1040" d="M92 27v4l14 121q2 21 23 45l592 684h-502q-29 0 -29 26v4l17 133q2 14 12 22.5t25 8.5h811q12 0 20 -7t8 -19v-5l-16 -122q0 -18 -20 -43l-603 -682h508q29 0 29 -27v-4l-16 -135q-1 -13 -11 -22t-24 -9h-809q-29 0 -29 27zM362 1440q0 7 7 14l94 102q11 11 20 11 q7 0 13 -6l202 -175l248 175q6 6 15 6t16 -11l70 -102q4 -4 4 -10q0 -8 -11 -19l-327 -211h-70l-274 211q-7 7 -7 15z" />
<glyph unicode="{" d="M270 809l441 442l442 -442l-442 -440zM502 809l104 -104l211 210l105 -106l-211 -209l106 -104l313 313l-419 420l-105 -105l105 -104z" />
<glyph unicode="|" d="M270 809l441 442l442 -442l-442 -440zM502 809l104 -104l211 210l105 -106l-211 -209l106 -104l313 313l-419 420l-105 -105l105 -104z" />
<glyph unicode="}" d="M270 809l441 442l442 -442l-442 -440zM502 809l104 -104l211 210l105 -106l-211 -209l106 -104l313 313l-419 420l-105 -105l105 -104z" />
<glyph unicode="~" d="M270 809l441 442l442 -442l-442 -440zM502 809l104 -104l211 210l105 -106l-211 -209l106 -104l313 313l-419 420l-105 -105l105 -104z" />
<glyph horiz-adv-x="1431" d="M137 555v4l15 115q2 14 11.5 22.5t22.5 8.5h1125q9 0 14.5 -5.5t5.5 -13.5v-6l-33 -127q-9 -25 -30 -25h-625q3 -85 16.5 -139.5t47 -99.5t97.5 -65.5t163 -20.5q143 0 372 51q16 4 21 4q24 0 24 -22l15 -136v-6q0 -28 -41 -43q-174 -69 -453 -69q-162 -1 -272.5 31 t-175.5 100.5t-93 164.5t-28 234v16h-172q-12 0 -19.5 7.5t-7.5 19.5zM172 844q0 2 2 4l12 115q1 13 11 21.5t24 8.5h170q45 190 127 306t223 174.5t355 58.5q269 0 436 -72q31 -11 31 -33q0 -6 -4 -14l-46 -135q-9 -23 -30 -23q-13 0 -21 2q-178 52 -360 52 q-80 0 -141.5 -15.5t-103 -41t-73 -67.5t-50.5 -86t-36 -106h664q9 0 15.5 -5.5t6.5 -12.5q0 -4 -2 -6l-32 -125q-6 -25 -31 -25h-1118q-29 0 -29 25z" />
<glyph d="M270 809l441 442l442 -442l-442 -440zM502 809l104 -104l211 210l105 -106l-211 -209l106 -104l313 313l-419 420l-105 -105l105 -104z" />
<glyph d="M270 809l441 442l442 -442l-442 -440zM502 809l104 -104l211 210l105 -106l-211 -209l106 -104l313 313l-419 420l-105 -105l105 -104z" />
<glyph d="M270 809l441 442l442 -442l-442 -440zM502 809l104 -104l211 210l105 -106l-211 -209l106 -104l313 313l-419 420l-105 -105l105 -104z" />
<glyph unicode="&#x85;" d="M270 809l441 442l442 -442l-442 -440zM502 809l104 -104l211 210l105 -106l-211 -209l106 -104l313 313l-419 420l-105 -105l105 -104z" />
<glyph d="M270 809l441 442l442 -442l-442 -440zM502 809l104 -104l211 210l105 -106l-211 -209l106 -104l313 313l-419 420l-105 -105l105 -104z" />
<glyph d="M270 809l441 442l442 -442l-442 -440zM502 809l104 -104l211 210l105 -106l-211 -209l106 -104l313 313l-419 420l-105 -105l105 -104z" />
<glyph d="M270 809l441 442l442 -442l-442 -440zM502 809l104 -104l211 210l105 -106l-211 -209l106 -104l313 313l-419 420l-105 -105l105 -104z" />
<glyph d="M270 809l441 442l442 -442l-442 -440zM502 809l104 -104l211 210l105 -106l-211 -209l106 -104l313 313l-419 420l-105 -105l105 -104z" />
<glyph d="M270 809l441 442l442 -442l-442 -440zM502 809l104 -104l211 210l105 -106l-211 -209l106 -104l313 313l-419 420l-105 -105l105 -104z" />
<glyph d="M270 809l441 442l442 -442l-442 -440zM502 809l104 -104l211 210l105 -106l-211 -209l106 -104l313 313l-419 420l-105 -105l105 -104z" />
<glyph d="M270 809l441 442l442 -442l-442 -440zM502 809l104 -104l211 210l105 -106l-211 -209l106 -104l313 313l-419 420l-105 -105l105 -104z" />
<glyph d="M270 809l441 442l442 -442l-442 -440zM502 809l104 -104l211 210l105 -106l-211 -209l106 -104l313 313l-419 420l-105 -105l105 -104z" />
<glyph d="M270 809l441 442l442 -442l-442 -440zM502 809l104 -104l211 210l105 -106l-211 -209l106 -104l313 313l-419 420l-105 -105l105 -104z" />
<glyph d="M270 809l441 442l442 -442l-442 -440zM502 809l104 -104l211 210l105 -106l-211 -209l106 -104l313 313l-419 420l-105 -105l105 -104z" />
<glyph d="M270 809l441 442l442 -442l-442 -440zM502 809l104 -104l211 210l105 -106l-211 -209l106 -104l313 313l-419 420l-105 -105l105 -104z" />
<glyph d="M270 809l441 442l442 -442l-442 -440zM502 809l104 -104l211 210l105 -106l-211 -209l106 -104l313 313l-419 420l-105 -105l105 -104z" />
<glyph horiz-adv-x="858" d="M223 512v12l45 365q5 37 34.5 63.5t66.5 26.5h362q34 0 57 -23t23 -55q0 -8 -2 -12l-45 -365q-5 -37 -33.5 -63.5t-64.5 -26.5h-365q-33 0 -55.5 22.5t-22.5 55.5z" />
<glyph d="M270 809l441 442l442 -442l-442 -440zM502 809l104 -104l211 210l105 -106l-211 -209l106 -104l313 313l-419 420l-105 -105l105 -104z" />
<glyph d="M270 809l441 442l442 -442l-442 -440zM502 809l104 -104l211 210l105 -106l-211 -209l106 -104l313 313l-419 420l-105 -105l105 -104z" />
<glyph d="M270 809l441 442l442 -442l-442 -440zM502 809l104 -104l211 210l105 -106l-211 -209l106 -104l313 313l-419 420l-105 -105l105 -104z" />
<glyph d="M270 809l441 442l442 -442l-442 -440zM502 809l104 -104l211 210l105 -106l-211 -209l106 -104l313 313l-419 420l-105 -105l105 -104z" />
<glyph d="M270 809l441 442l442 -442l-442 -440zM502 809l104 -104l211 210l105 -106l-211 -209l106 -104l313 313l-419 420l-105 -105l105 -104z" />
<glyph d="M270 809l441 442l442 -442l-442 -440zM502 809l104 -104l211 210l105 -106l-211 -209l106 -104l313 313l-419 420l-105 -105l105 -104z" />
<glyph d="M270 809l441 442l442 -442l-442 -440zM502 809l104 -104l211 210l105 -106l-211 -209l106 -104l313 313l-419 420l-105 -105l105 -104z" />
<glyph d="M270 809l441 442l442 -442l-442 -440zM502 809l104 -104l211 210l105 -106l-211 -209l106 -104l313 313l-419 420l-105 -105l105 -104z" />
<glyph d="M270 809l441 442l442 -442l-442 -440zM502 809l104 -104l211 210l105 -106l-211 -209l106 -104l313 313l-419 420l-105 -105l105 -104z" />
<glyph unicode="&#xa1;" d="M270 809l441 442l442 -442l-442 -440zM502 809l104 -104l211 210l105 -106l-211 -209l106 -104l313 313l-419 420l-105 -105l105 -104z" />
<glyph unicode="&#xa2;" d="M270 809l441 442l442 -442l-442 -440zM502 809l104 -104l211 210l105 -106l-211 -209l106 -104l313 313l-419 420l-105 -105l105 -104z" />
<glyph unicode="&#xa3;" d="M270 809l441 442l442 -442l-442 -440zM502 809l104 -104l211 210l105 -106l-211 -209l106 -104l313 313l-419 420l-105 -105l105 -104z" />
<glyph unicode="&#xa4;" horiz-adv-x="1484" d="M309 383q0 8 8 16l125 103q-16 59 -16 110q0 92 18 158q14 55 45 115l-98 102q-6 3 -6 10q0 13 12 25l135 123q15 10 25 10q6 0 12 -6l95 -96q98 43 213 43q116 0 204 -43l117 96q9 6 14 6q13 0 23 -10l104 -123q7 -7 7 -18t-9 -17l-123 -102q17 -63 17 -111 q0 -77 -19 -158q-10 -37 -45 -114l99 -103q4 -2 4 -10q0 -11 -13 -24l-133 -123q-16 -11 -24 -11t-15 7l-92 96q-98 -43 -215 -43q-115 0 -203 43l-118 -96q-7 -7 -15 -7q-9 0 -20 11l-105 123q-8 8 -8 18zM621 618q0 -80 41 -118q40 -37 139 -37q77 0 123 23t71 73 q39 79 39 209q0 83 -39 119q-43 37 -139 37q-77 0 -123 -23.5t-71 -73.5q-41 -78 -41 -209z" />
<glyph unicode="&#xa5;" d="M270 809l441 442l442 -442l-442 -440zM502 809l104 -104l211 210l105 -106l-211 -209l106 -104l313 313l-419 420l-105 -105l105 -104z" />
<glyph unicode="&#xa6;" d="M270 809l441 442l442 -442l-442 -440zM502 809l104 -104l211 210l105 -106l-211 -209l106 -104l313 313l-419 420l-105 -105l105 -104z" />
<glyph unicode="&#xa7;" d="M270 809l441 442l442 -442l-442 -440zM502 809l104 -104l211 210l105 -106l-211 -209l106 -104l313 313l-419 420l-105 -105l105 -104z" />
<glyph unicode="&#xa8;" d="M270 809l441 442l442 -442l-442 -440zM502 809l104 -104l211 210l105 -106l-211 -209l106 -104l313 313l-419 420l-105 -105l105 -104z" />
<glyph unicode="&#xa9;" d="M270 809l441 442l442 -442l-442 -440zM502 809l104 -104l211 210l105 -106l-211 -209l106 -104l313 313l-419 420l-105 -105l105 -104z" />
<glyph unicode="&#xaa;" d="M270 809l441 442l442 -442l-442 -440zM502 809l104 -104l211 210l105 -106l-211 -209l106 -104l313 313l-419 420l-105 -105l105 -104z" />
<glyph unicode="&#xab;" d="M270 809l441 442l442 -442l-442 -440zM502 809l104 -104l211 210l105 -106l-211 -209l106 -104l313 313l-419 420l-105 -105l105 -104z" />
<glyph unicode="&#xac;" d="M270 809l441 442l442 -442l-442 -440zM502 809l104 -104l211 210l105 -106l-211 -209l106 -104l313 313l-419 420l-105 -105l105 -104z" />
<glyph unicode="&#xad;" horiz-adv-x="1241" d="M252 569q0 2 2 4l16 138q2 14 14.5 23t30.5 9h793q17 0 27 -8t10 -20v-4l-17 -138q-1 -14 -15.5 -23t-29.5 -9h-792q-14 0 -26.5 8t-12.5 20z" />
<glyph unicode="&#xae;" d="M270 809l441 442l442 -442l-442 -440zM502 809l104 -104l211 210l105 -106l-211 -209l106 -104l313 313l-419 420l-105 -105l105 -104z" />
<glyph unicode="&#xaf;" d="M270 809l441 442l442 -442l-442 -440zM502 809l104 -104l211 210l105 -106l-211 -209l106 -104l313 313l-419 420l-105 -105l105 -104z" />
<glyph unicode="&#xb0;" d="M270 809l441 442l442 -442l-442 -440zM502 809l104 -104l211 210l105 -106l-211 -209l106 -104l313 313l-419 420l-105 -105l105 -104z" />
<glyph unicode="&#xb1;" d="M270 809l441 442l442 -442l-442 -440zM502 809l104 -104l211 210l105 -106l-211 -209l106 -104l313 313l-419 420l-105 -105l105 -104z" />
<glyph unicode="&#xb2;" d="M270 809l441 442l442 -442l-442 -440zM502 809l104 -104l211 210l105 -106l-211 -209l106 -104l313 313l-419 420l-105 -105l105 -104z" />
<glyph unicode="&#xb3;" d="M270 809l441 442l442 -442l-442 -440zM502 809l104 -104l211 210l105 -106l-211 -209l106 -104l313 313l-419 420l-105 -105l105 -104z" />
<glyph unicode="&#xb4;" d="M270 809l441 442l442 -442l-442 -440zM502 809l104 -104l211 210l105 -106l-211 -209l106 -104l313 313l-419 420l-105 -105l105 -104z" />
<glyph unicode="&#xb5;" d="M270 809l441 442l442 -442l-442 -440zM502 809l104 -104l211 210l105 -106l-211 -209l106 -104l313 313l-419 420l-105 -105l105 -104z" />
<glyph unicode="&#xb6;" horiz-adv-x="1478" d="M205 928q0 236 98 389q68 107 176 147.5t256 40.5h23l370 -6q3 0 8 -7t5 -11l-226 -1835q-3 -40 -36 -45l-160 -31h-8q-11 0 -19 7t-8 20v4l117 960l-160 -4h-29q-213 0 -307 86q-100 87 -100 285zM467 950q0 -104 53 -147t191 -43l114 -2l68 549l-117 -2 q-103 -2 -163 -23.5t-95 -87.5q-26 -44 -38.5 -112.5t-12.5 -131.5zM1069 -358l223 1822q7 40 37 45l160 31h8q29 0 29 -27v-4l-223 -1822q-7 -40 -37 -45l-160 -31h-8q-29 0 -29 27v4z" />
<glyph unicode="&#xb7;" horiz-adv-x="442" d="M145 477v6l25 197q1 17 13 27t28 10h199q14 0 22 -9t8 -24v-4l-24 -197q-1 -17 -13.5 -28t-27.5 -11h-199q-14 0 -22.5 9t-8.5 24z" />
<glyph unicode="&#xb8;" d="M270 809l441 442l442 -442l-442 -440zM502 809l104 -104l211 210l105 -106l-211 -209l106 -104l313 313l-419 420l-105 -105l105 -104z" />
<glyph unicode="&#xb9;" d="M270 809l441 442l442 -442l-442 -440zM502 809l104 -104l211 210l105 -106l-211 -209l106 -104l313 313l-419 420l-105 -105l105 -104z" />
<glyph unicode="&#xba;" d="M270 809l441 442l442 -442l-442 -440zM502 809l104 -104l211 210l105 -106l-211 -209l106 -104l313 313l-419 420l-105 -105l105 -104z" />
<glyph unicode="&#xbb;" d="M270 809l441 442l442 -442l-442 -440zM502 809l104 -104l211 210l105 -106l-211 -209l106 -104l313 313l-419 420l-105 -105l105 -104z" />
<glyph unicode="&#xbc;" d="M270 809l441 442l442 -442l-442 -440zM502 809l104 -104l211 210l105 -106l-211 -209l106 -104l313 313l-419 420l-105 -105l105 -104z" />
<glyph unicode="&#xbd;" d="M270 809l441 442l442 -442l-442 -440zM502 809l104 -104l211 210l105 -106l-211 -209l106 -104l313 313l-419 420l-105 -105l105 -104z" />
<glyph unicode="&#xbe;" d="M270 809l441 442l442 -442l-442 -440zM502 809l104 -104l211 210l105 -106l-211 -209l106 -104l313 313l-419 420l-105 -105l105 -104z" />
<glyph unicode="&#xbf;" d="M270 809l441 442l442 -442l-442 -440zM502 809l104 -104l211 210l105 -106l-211 -209l106 -104l313 313l-419 420l-105 -105l105 -104z" />
<glyph unicode="&#xc0;" d="M270 809l441 442l442 -442l-442 -440zM502 809l104 -104l211 210l105 -106l-211 -209l106 -104l313 313l-419 420l-105 -105l105 -104z" />
<glyph unicode="&#xc1;" d="M270 809l441 442l442 -442l-442 -440zM502 809l104 -104l211 210l105 -106l-211 -209l106 -104l313 313l-419 420l-105 -105l105 -104z" />
<glyph unicode="&#xc2;" d="M270 809l441 442l442 -442l-442 -440zM502 809l104 -104l211 210l105 -106l-211 -209l106 -104l313 313l-419 420l-105 -105l105 -104z" />
<glyph unicode="&#xc3;" d="M270 809l441 442l442 -442l-442 -440zM502 809l104 -104l211 210l105 -106l-211 -209l106 -104l313 313l-419 420l-105 -105l105 -104z" />
<glyph unicode="&#xc4;" d="M270 809l441 442l442 -442l-442 -440zM502 809l104 -104l211 210l105 -106l-211 -209l106 -104l313 313l-419 420l-105 -105l105 -104z" />
<glyph unicode="&#xc5;" d="M270 809l441 442l442 -442l-442 -440zM502 809l104 -104l211 210l105 -106l-211 -209l106 -104l313 313l-419 420l-105 -105l105 -104z" />
<glyph unicode="&#xc6;" d="M270 809l441 442l442 -442l-442 -440zM502 809l104 -104l211 210l105 -106l-211 -209l106 -104l313 313l-419 420l-105 -105l105 -104z" />
<glyph unicode="&#xc7;" d="M270 809l441 442l442 -442l-442 -440zM502 809l104 -104l211 210l105 -106l-211 -209l106 -104l313 313l-419 420l-105 -105l105 -104z" />
<glyph unicode="&#xc8;" d="M270 809l441 442l442 -442l-442 -440zM502 809l104 -104l211 210l105 -106l-211 -209l106 -104l313 313l-419 420l-105 -105l105 -104z" />
<glyph unicode="&#xc9;" horiz-adv-x="1982" d="M-115 -383l15 104q3 23 13 30t30 9h67q93 0 137.5 30.5t55.5 127.5l119 959h-160q-12 0 -20.5 7t-8.5 17q0 4 2 4l17 139q2 14 11.5 22.5t22.5 8.5h160l19 152q19 159 111 236t263 77q116 0 260 -33q21 -6 21 -26v-8l-35 -121q-6 -27 -27 -27h-8q-116 16 -155 16 q-78 0 -113.5 -24.5t-42.5 -91.5l-18 -150h389l10 90q14 112 49 186t97.5 115.5t140.5 57.5t192 16q172 0 336 -49q20 -6 20 -27q0 -4 -2 -8l-24 -125q-7 -26 -27 -26q-4 0 -8 2q-14 2 -61.5 10t-102 14t-112.5 6q-123 0 -167 -35t-59 -149l-8 -78h625q15 0 24 -9.5t9 -21.5 v-6l-123 -1007q-2 -14 -12 -22.5t-25 -8.5h-209q-12 0 -20.5 7.5t-8.5 19.5v4l105 843l-389 3l-121 -965q-12 -98 -48 -166t-92.5 -106t-123.5 -54t-152 -16q-75 0 -141 8q-10 1 -15.5 2.5t-11.5 8t-6 18.5v10l14 104q4 23 13.5 30t29.5 9h68q93 0 137 30.5t57 127.5 l117 959h-389l-121 -965q-13 -98 -49 -166t-92.5 -106t-123.5 -54t-153 -16q-73 0 -139 8q-10 1 -15.5 2.5t-11.5 8t-6 18.5v10z" />
<glyph unicode="&#xca;" d="M270 809l441 442l442 -442l-442 -440zM502 809l104 -104l211 210l105 -106l-211 -209l106 -104l313 313l-419 420l-105 -105l105 -104z" />
<glyph unicode="&#xcb;" d="M270 809l441 442l442 -442l-442 -440zM502 809l104 -104l211 210l105 -106l-211 -209l106 -104l313 313l-419 420l-105 -105l105 -104z" />
<glyph unicode="&#xcc;" d="M270 809l441 442l442 -442l-442 -440zM502 809l104 -104l211 210l105 -106l-211 -209l106 -104l313 313l-419 420l-105 -105l105 -104z" />
<glyph unicode="&#xcd;" d="M270 809l441 442l442 -442l-442 -440zM502 809l104 -104l211 210l105 -106l-211 -209l106 -104l313 313l-419 420l-105 -105l105 -104z" />
<glyph unicode="&#xce;" d="M270 809l441 442l442 -442l-442 -440zM502 809l104 -104l211 210l105 -106l-211 -209l106 -104l313 313l-419 420l-105 -105l105 -104z" />
<glyph unicode="&#xcf;" d="M270 809l441 442l442 -442l-442 -440zM502 809l104 -104l211 210l105 -106l-211 -209l106 -104l313 313l-419 420l-105 -105l105 -104z" />
<glyph unicode="&#xd0;" d="M270 809l441 442l442 -442l-442 -440zM502 809l104 -104l211 210l105 -106l-211 -209l106 -104l313 313l-419 420l-105 -105l105 -104z" />
<glyph unicode="&#xd1;" horiz-adv-x="2062" d="M-115 -383l15 104q3 23 13 30t30 9h67q93 0 137.5 30.5t55.5 127.5l119 959h-160q-12 0 -20.5 7t-8.5 17q0 4 2 4l17 139q2 14 11.5 22.5t22.5 8.5h160l19 152q19 159 111 236t263 77q116 0 260 -33q21 -6 21 -26v-8l-35 -121q-6 -27 -27 -27h-8q-116 16 -155 16 q-78 0 -113.5 -24.5t-42.5 -91.5l-18 -150h389l18 152q19 158 111 235.5t264 77.5q116 0 260 -33q20 -6 20 -26v-8l-34 -121q-6 -27 -27 -27h-8q-116 16 -156 16q-78 0 -113 -24.5t-42 -91.5l-19 -150h389l47 389q3 21 10.5 29.5t26.5 11.5l207 35h10q27 0 27 -27v-6 l-141 -1151q-13 -77 -13 -108q0 -26 19 -49q22 -19 55 -19q42 0 70 8h8q17 0 20 -20l9 -123v-2q0 -15 -9 -24t-16 -9q-63 -28 -186 -28q-127 0 -189 59q-59 56 -59 164q0 33 16 153l64 519h-389l-121 -965q-12 -98 -48 -166t-92.5 -106t-123.5 -54t-152 -16q-75 0 -141 8 q-10 1 -15.5 2.5t-11.5 8t-6 18.5v10l14 104q4 23 13.5 30t29.5 9h68q93 0 137 30.5t57 127.5l117 959h-389l-121 -965q-13 -98 -49 -166t-92.5 -106t-123.5 -54t-153 -16q-73 0 -139 8q-10 1 -15.5 2.5t-11.5 8t-6 18.5v10z" />
<glyph unicode="&#xd2;" d="M270 809l441 442l442 -442l-442 -440zM502 809l104 -104l211 210l105 -106l-211 -209l106 -104l313 313l-419 420l-105 -105l105 -104z" />
<glyph unicode="&#xd3;" d="M270 809l441 442l442 -442l-442 -440zM502 809l104 -104l211 210l105 -106l-211 -209l106 -104l313 313l-419 420l-105 -105l105 -104z" />
<glyph unicode="&#xd4;" d="M270 809l441 442l442 -442l-442 -440zM502 809l104 -104l211 210l105 -106l-211 -209l106 -104l313 313l-419 420l-105 -105l105 -104z" />
<glyph unicode="&#xd5;" d="M270 809l441 442l442 -442l-442 -440zM502 809l104 -104l211 210l105 -106l-211 -209l106 -104l313 313l-419 420l-105 -105l105 -104z" />
<glyph unicode="&#xd6;" horiz-adv-x="1318" d="M-115 -383l15 104q3 23 13 30t30 9h67q93 0 137.5 30.5t55.5 127.5l119 959h-160q-29 0 -29 24v4l19 139q2 14 11.5 22.5t22.5 8.5h160l10 88q14 113 49.5 187.5t98 115.5t140.5 57.5t192 16.5q170 0 335 -49q21 -6 21 -27q0 -4 -2 -8l-25 -125q-6 -26 -26 -26h-9 q-5 1 -59.5 11t-106 15.5t-110.5 5.5q-123 0 -167.5 -35t-57.5 -149l-8 -78h628q29 0 29 -26v-5l-139 -1132q-12 -99 -47.5 -167.5t-92.5 -106t-124 -53t-154 -15.5q-73 0 -139 8q-10 1 -15.5 2.5t-11.5 8t-6 18.5v8l14 106q3 23 12.5 30t30.5 9h68q93 0 137 30.5t55 127.5 l119 956l-389 3l-121 -965q-13 -98 -49 -166t-92.5 -106t-123.5 -54t-153 -16q-73 0 -139 8q-10 1 -15.5 2.5t-11.5 8t-6 18.5v10z" />
<glyph unicode="&#xd7;" d="M270 809l441 442l442 -442l-442 -440zM502 809l104 -104l211 210l105 -106l-211 -209l106 -104l313 313l-419 420l-105 -105l105 -104z" />
<glyph unicode="&#xd8;" d="M270 809l441 442l442 -442l-442 -440zM502 809l104 -104l211 210l105 -106l-211 -209l106 -104l313 313l-419 420l-105 -105l105 -104z" />
<glyph unicode="&#xd9;" d="M270 809l441 442l442 -442l-442 -440zM502 809l104 -104l211 210l105 -106l-211 -209l106 -104l313 313l-419 420l-105 -105l105 -104z" />
<glyph unicode="&#xda;" d="M270 809l441 442l442 -442l-442 -440zM502 809l104 -104l211 210l105 -106l-211 -209l106 -104l313 313l-419 420l-105 -105l105 -104z" />
<glyph unicode="&#xdb;" d="M270 809l441 442l442 -442l-442 -440zM502 809l104 -104l211 210l105 -106l-211 -209l106 -104l313 313l-419 420l-105 -105l105 -104z" />
<glyph unicode="&#xdc;" horiz-adv-x="1982" d="M-115 -383l15 107q3 22 13.5 29t29.5 7h67q93 0 137.5 30.5t55.5 127.5l119 959h-160q-12 0 -20.5 7t-8.5 17v4l19 139q2 14 11.5 22.5t22.5 8.5h160l19 152q19 158 110.5 235.5t261.5 77.5q118 0 262 -33q21 -6 21 -26q0 -6 -2 -8l-33 -121q-6 -27 -27 -27h-8 q-116 16 -157 16q-76 0 -111.5 -24.5t-44.5 -91.5l-16 -150h389l10 90q14 112 49 186t97.5 115.5t140.5 57.5t192 16q172 0 336 -49q20 -6 20 -27q0 -4 -2 -8l-24 -125q-7 -26 -27 -26q-4 0 -8 2q-14 2 -61.5 10t-102 14t-112.5 6q-123 0 -167 -35t-59 -149l-8 -78h629 q29 0 29 -26v-5l-140 -1132q-12 -99 -47.5 -167.5t-92.5 -106t-124 -53t-154 -15.5q-73 0 -139 8q-10 1 -15.5 2.5t-11.5 8t-6 18.5v8l15 106q3 23 12.5 30t30.5 9h67q93 0 137.5 30.5t55.5 127.5l119 956l-389 3l-121 -965q-13 -98 -49 -166t-92.5 -106t-123.5 -54 t-153 -16q-73 0 -139 8q-10 1 -15.5 2.5t-11.5 9t-6 19.5v8l14 107q3 22 13.5 29t29.5 7h68q93 0 137 30.5t55 127.5l119 959h-389l-121 -965q-13 -98 -49 -166t-92.5 -106t-123.5 -54t-153 -16q-73 0 -139 8q-33 5 -33 31v8z" />
<glyph unicode="&#xdd;" d="M270 809l441 442l442 -442l-442 -440zM502 809l104 -104l211 210l105 -106l-211 -209l106 -104l313 313l-419 420l-105 -105l105 -104z" />
<glyph unicode="&#xde;" d="M270 809l441 442l442 -442l-442 -440zM502 809l104 -104l211 210l105 -106l-211 -209l106 -104l313 313l-419 420l-105 -105l105 -104z" />
<glyph unicode="&#xdf;" horiz-adv-x="1251" d="M-186 -383l14 104q3 23 13 30t30 9h68q93 0 137 30.5t55 127.5l148 1223q25 205 150 302t368 97q220 0 323 -92q88 -76 88 -221q0 -152 -82 -256q-58 -67 -182 -133q-29 -14 -29 -39q0 -21 21 -33q5 -2 35 -17t42.5 -22t37 -21.5t43.5 -30t36 -32.5q84 -87 84 -233 q0 -160 -90 -279q-119 -158 -385 -158q-140 0 -237 39q-7 2 -14 9t-7 18q0 6 2 10l39 121q3 10 13 16.5t20 6.5h6q7 -2 28.5 -7.5t37 -9t41.5 -7t51 -3.5q110 0 172 65q57 60 57 158q0 99 -82 174q-18 17 -72.5 58.5t-78 72.5t-23.5 72q0 38 19 70.5t42 51.5t58.5 45.5 t52.5 43.5q78 84 78 205q0 75 -37 118q-45 48 -129 48q-107 0 -160.5 -44.5t-66.5 -162.5l-152 -1229q-12 -98 -47.5 -166t-92 -106t-123 -54t-152.5 -16q-70 0 -136 8q-10 1 -15 2.5t-11 8t-6 18.5v10z" />
<glyph unicode="&#xe0;" horiz-adv-x="2533" d="M-115 -383l15 104q3 23 13 30t30 9h67q93 0 137.5 30.5t55.5 127.5l119 959h-160q-12 0 -20.5 7t-8.5 17q0 4 2 4l17 139q2 14 11.5 22.5t22.5 8.5h160l19 152q19 159 111 236t263 77q116 0 260 -33q21 -6 21 -26v-8l-35 -121q-6 -27 -27 -27h-8q-116 16 -155 16 q-78 0 -113.5 -24t-42.5 -92l-18 -150h389l18 152q19 158 111 235.5t264 77.5q116 0 260 -33q20 -6 20 -26v-8l-34 -121q-6 -27 -27 -27h-8q-116 16 -156 16q-78 0 -113 -24t-42 -92l-19 -150h389l47 387q6 38 39 43l205 35h8q29 0 29 -27v-6l-109 -876h70l354 432 q12 12 29 12h2l250 -4q7 0 11.5 -5.5t4.5 -12.5q0 -5 -4 -13l-432 -495l322 -516q2 -2 2 -9q0 -8 -7 -14t-16 -6h-268q-21 0 -27 12l-244 432h-69l-51 -413q-2 -14 -11 -22.5t-24 -8.5h-211q-12 0 -20.5 7.5t-8.5 19.5v4l105 846h-389l-121 -965q-12 -98 -48 -166 t-92.5 -106t-123.5 -54t-152 -16q-75 0 -141 8q-10 1 -15.5 2.5t-11.5 8t-6 18.5v10l14 104q4 23 13.5 30t29.5 9h68q93 0 137 30.5t57 127.5l117 959h-389l-121 -965q-13 -98 -49 -166t-92.5 -106t-123.5 -54t-153 -16q-73 0 -139 8q-10 1 -15.5 2.5t-11.5 8t-6 18.5v10z " />
<glyph unicode="&#xe1;" horiz-adv-x="1869" d="M-115 -383l15 104q3 23 13 30t30 9h67q93 0 137.5 30.5t55.5 127.5l119 959h-160q-29 0 -29 24q0 4 2 4l17 139q2 14 11.5 22.5t22.5 8.5h160l19 152q19 159 111 236t263 77q116 0 260 -33q21 -6 21 -26v-8l-35 -123q-6 -25 -27 -25h-8q-116 16 -155 16 q-78 0 -113.5 -24.5t-42.5 -91.5l-18 -150h389l47 387q6 38 39 43l204 35h9q28 0 28 -27v-6l-108 -876h69l355 432q12 12 28 12h2l250 -4q7 0 12 -6t5 -12q0 -5 -4 -13l-433 -495l322 -516q2 -2 2 -9q0 -8 -6.5 -14t-15.5 -6h-269q-20 0 -26 12l-244 432h-70l-51 -413 q-2 -14 -11 -22.5t-24 -8.5h-211q-12 0 -20 7.5t-8 19.5v4l104 843l-389 3l-121 -965q-13 -98 -49 -166t-92.5 -106t-123.5 -54t-153 -16q-73 0 -139 8q-10 1 -15.5 2.5t-11.5 8t-6 18.5v10z" />
<glyph unicode="&#xe2;" horiz-adv-x="1556" d="M-115 -383l15 104q3 23 13 30t30 9h67q93 0 137.5 30.5t55.5 127.5l119 959h-160q-12 0 -20.5 7t-8.5 17q0 4 2 4l17 139q2 14 11.5 22.5t22.5 8.5h160l19 152q19 159 111 236t263 77q116 0 260 -33q21 -6 21 -26v-8l-35 -121q-6 -27 -27 -27h-8q-116 16 -155 16 q-78 0 -113.5 -24.5t-42.5 -91.5l-18 -150h389l34 283q3 34 39 43l205 37h10q27 0 27 -27v-6l-41 -330h291q12 0 20.5 -7t8.5 -19v-5l-19 -139q-1 -13 -11 -22t-24 -9h-290l-70 -565q-2 -10 -2 -30q0 -51 29.5 -74t97.5 -23q77 0 160 19h8q17 0 20 -23l10 -117v-4 q0 -28 -28 -37q-133 -38 -260 -38q-160 0 -238 60t-78 194q0 30 6 67l70 571h-389l-121 -962q-13 -98 -49 -166t-92.5 -106t-123.5 -54t-153 -16q-73 0 -139 8q-10 1 -15.5 2.5t-11.5 8t-6 18.5v10z" />
<glyph unicode="&#xe3;" horiz-adv-x="2220" d="M-115 -383l15 104q3 23 13 30t30 9h67q93 0 137.5 30.5t55.5 127.5l119 959h-160q-12 0 -20.5 7t-8.5 17q0 4 2 4l17 139q2 14 11.5 22.5t22.5 8.5h160l19 152q19 159 111 236t263 77q116 0 260 -33q21 -6 21 -26v-8l-35 -121q-6 -27 -27 -27h-8q-116 16 -155 16 q-78 0 -113.5 -24.5t-42.5 -91.5l-18 -150h389l34 283q3 34 39 43l205 37h10q27 0 27 -27v-6l-41 -330h391l33 283q3 19 12.5 28.5t28.5 14.5l205 37h8q27 0 27 -27v-6l-39 -330h291q12 0 20 -7t8 -19q0 -3 -2 -5l-16 -139q-3 -28 -35 -28h-293l-68 -568q-2 -10 -2 -30 q0 -51 29.5 -74t97.5 -23q75 0 158 19h8q20 0 23 -23l8 -117v-4q0 -28 -29 -37q-125 -38 -260 -38q-158 0 -235.5 60.5t-77.5 193.5q0 17 4 67l72 571h-391l-70 -565q-2 -10 -2 -30q0 -51 29.5 -74t97.5 -23q77 0 160 19h8q17 0 20 -23l10 -117v-4q0 -29 -28 -37 q-133 -38 -260 -38q-159 0 -236.5 60.5t-77.5 193.5q0 42 4 67l70 571l-389 3l-121 -965q-13 -98 -49 -166t-92.5 -106t-123.5 -54t-153 -16q-73 0 -139 8q-10 1 -15.5 2.5t-11.5 8t-6 18.5v10z" />
<glyph unicode="&#xe4;" horiz-adv-x="2220" d="M-115 -383l15 107q3 22 13.5 29t29.5 7h67q93 0 137.5 30.5t55.5 127.5l119 959h-160q-12 0 -20.5 7t-8.5 17v4l19 139q2 14 11.5 22.5t22.5 8.5h160l19 152q19 158 110.5 235.5t261.5 77.5q118 0 262 -33q21 -6 21 -26q0 -6 -2 -8l-33 -121q-6 -27 -27 -27h-8 q-116 16 -157 16q-76 0 -111.5 -24.5t-44.5 -91.5l-16 -150h389l18 152q19 158 111 235.5t262 77.5q118 0 262 -33q20 -6 20 -26q0 -6 -2 -8l-32 -121q-6 -27 -27 -27h-8q-116 16 -158 16q-76 0 -111.5 -24.5t-44.5 -91.5l-16 -150h389l35 283q3 34 39 43l205 37h10 q27 0 27 -27v-6l-41 -330h290q12 0 20.5 -7t8.5 -19v-5l-18 -139q-1 -13 -11 -22t-24 -9h-291l-70 -565q-2 -10 -2 -30q0 -51 29.5 -74t97.5 -23q77 0 160 19h8q18 0 21 -23l10 -117v-4q0 -27 -29 -37q-133 -38 -260 -38q-160 0 -237.5 60t-77.5 194q0 30 6 67l70 574h-389 l-121 -965q-13 -98 -49 -166t-92.5 -106t-123.5 -54t-153 -16q-73 0 -139 8q-10 1 -15.5 2.5t-11.5 9t-6 19.5v8l14 107q3 22 13.5 29t29.5 7h68q93 0 137 30.5t55 127.5l119 959h-389l-121 -965q-13 -98 -49 -166t-92.5 -106t-123.5 -54t-153 -16q-73 0 -139 8 q-33 5 -33 31v8z" />
<glyph unicode="&#xe5;" horiz-adv-x="1470" d="M172 236q0 42 4 67l129 1055q3 34 39 43l205 37h10q27 0 27 -27v-6l-41 -330h379l34 283q3 34 39 43l205 37h10q27 0 27 -27v-6l-41 -330h291q29 0 29 -26v-5l-17 -139q-6 -28 -37 -28h-290l-70 -568q-2 -10 -2 -30q0 -51 29.5 -74t97.5 -23q77 0 160 19h8q17 0 20 -23 l10 -117v-4q0 -29 -28 -37q-133 -38 -260 -38q-160 0 -237 60t-77 194q0 42 4 67l70 574h-379l-69 -568q-2 -10 -2 -30q0 -52 29 -74.5t97 -22.5q77 0 160 19h8q18 0 21 -23l10 -117v-4q0 -28 -29 -37q-133 -38 -260 -38q-160 0 -236.5 60t-76.5 194z" />
<glyph unicode="&#xe6;" d="M270 809l441 442l442 -442l-442 -440zM502 809l104 -104l211 210l105 -106l-211 -209l106 -104l313 313l-419 420l-105 -105l105 -104z" />
<glyph unicode="&#xe7;" d="M270 809l441 442l442 -442l-442 -440zM502 809l104 -104l211 210l105 -106l-211 -209l106 -104l313 313l-419 420l-105 -105l105 -104z" />
<glyph unicode="&#xe8;" d="M270 809l441 442l442 -442l-442 -440zM502 809l104 -104l211 210l105 -106l-211 -209l106 -104l313 313l-419 420l-105 -105l105 -104z" />
<glyph unicode="&#xe9;" d="M270 809l441 442l442 -442l-442 -440zM502 809l104 -104l211 210l105 -106l-211 -209l106 -104l313 313l-419 420l-105 -105l105 -104z" />
<glyph unicode="&#xea;" d="M270 809l441 442l442 -442l-442 -440zM502 809l104 -104l211 210l105 -106l-211 -209l106 -104l313 313l-419 420l-105 -105l105 -104z" />
<glyph unicode="&#xeb;" d="M270 809l441 442l442 -442l-442 -440zM502 809l104 -104l211 210l105 -106l-211 -209l106 -104l313 313l-419 420l-105 -105l105 -104z" />
<glyph unicode="&#xec;" d="M270 809l441 442l442 -442l-442 -440zM502 809l104 -104l211 210l105 -106l-211 -209l106 -104l313 313l-419 420l-105 -105l105 -104z" />
<glyph unicode="&#xed;" d="M270 809l441 442l442 -442l-442 -440zM502 809l104 -104l211 210l105 -106l-211 -209l106 -104l313 313l-419 420l-105 -105l105 -104z" />
<glyph unicode="&#xee;" d="M270 809l441 442l442 -442l-442 -440zM502 809l104 -104l211 210l105 -106l-211 -209l106 -104l313 313l-419 420l-105 -105l105 -104z" />
<glyph unicode="&#xef;" d="M270 809l441 442l442 -442l-442 -440zM502 809l104 -104l211 210l105 -106l-211 -209l106 -104l313 313l-419 420l-105 -105l105 -104z" />
<glyph unicode="&#xf0;" d="M270 809l441 442l442 -442l-442 -440zM502 809l104 -104l211 210l105 -106l-211 -209l106 -104l313 313l-419 420l-105 -105l105 -104z" />
<glyph unicode="&#xf1;" d="M270 809l441 442l442 -442l-442 -440zM502 809l104 -104l211 210l105 -106l-211 -209l106 -104l313 313l-419 420l-105 -105l105 -104z" />
<glyph unicode="&#xf2;" d="M270 809l441 442l442 -442l-442 -440zM502 809l104 -104l211 210l105 -106l-211 -209l106 -104l313 313l-419 420l-105 -105l105 -104z" />
<glyph unicode="&#xf3;" d="M270 809l441 442l442 -442l-442 -440zM502 809l104 -104l211 210l105 -106l-211 -209l106 -104l313 313l-419 420l-105 -105l105 -104z" />
<glyph unicode="&#xf4;" d="M270 809l441 442l442 -442l-442 -440zM502 809l104 -104l211 210l105 -106l-211 -209l106 -104l313 313l-419 420l-105 -105l105 -104z" />
<glyph unicode="&#xf5;" d="M270 809l441 442l442 -442l-442 -440zM502 809l104 -104l211 210l105 -106l-211 -209l106 -104l313 313l-419 420l-105 -105l105 -104z" />
<glyph unicode="&#xf6;" d="M270 809l441 442l442 -442l-442 -440zM502 809l104 -104l211 210l105 -106l-211 -209l106 -104l313 313l-419 420l-105 -105l105 -104z" />
<glyph unicode="&#xf7;" d="M270 809l441 442l442 -442l-442 -440zM502 809l104 -104l211 210l105 -106l-211 -209l106 -104l313 313l-419 420l-105 -105l105 -104z" />
<glyph unicode="&#xf8;" d="M270 809l441 442l442 -442l-442 -440zM502 809l104 -104l211 210l105 -106l-211 -209l106 -104l313 313l-419 420l-105 -105l105 -104z" />
<glyph unicode="&#xf9;" d="M270 809l441 442l442 -442l-442 -440zM502 809l104 -104l211 210l105 -106l-211 -209l106 -104l313 313l-419 420l-105 -105l105 -104z" />
<glyph unicode="&#xfa;" d="M270 809l441 442l442 -442l-442 -440zM502 809l104 -104l211 210l105 -106l-211 -209l106 -104l313 313l-419 420l-105 -105l105 -104z" />
<glyph unicode="&#xfb;" d="M270 809l441 442l442 -442l-442 -440zM502 809l104 -104l211 210l105 -106l-211 -209l106 -104l313 313l-419 420l-105 -105l105 -104z" />
<glyph unicode="&#xfc;" d="M270 809l441 442l442 -442l-442 -440zM502 809l104 -104l211 210l105 -106l-211 -209l106 -104l313 313l-419 420l-105 -105l105 -104z" />
<glyph unicode="&#xfd;" d="M270 809l441 442l442 -442l-442 -440zM502 809l104 -104l211 210l105 -106l-211 -209l106 -104l313 313l-419 420l-105 -105l105 -104z" />
<glyph unicode="&#xfe;" d="M270 809l441 442l442 -442l-442 -440zM502 809l104 -104l211 210l105 -106l-211 -209l106 -104l313 313l-419 420l-105 -105l105 -104z" />
<glyph unicode="&#xff;" d="M270 809l441 442l442 -442l-442 -440zM502 809l104 -104l211 210l105 -106l-211 -209l106 -104l313 313l-419 420l-105 -105l105 -104z" />
<glyph unicode="&#x2000;" horiz-adv-x="1001" />
<glyph unicode="&#x2001;" horiz-adv-x="2003" />
<glyph unicode="&#x2002;" horiz-adv-x="1001" />
<glyph unicode="&#x2003;" horiz-adv-x="2003" />
<glyph unicode="&#x2004;" horiz-adv-x="667" />
<glyph unicode="&#x2005;" horiz-adv-x="500" />
<glyph unicode="&#x2006;" horiz-adv-x="333" />
<glyph unicode="&#x2007;" horiz-adv-x="333" />
<glyph unicode="&#x2008;" horiz-adv-x="250" />
<glyph unicode="&#x2009;" horiz-adv-x="400" />
<glyph unicode="&#x200a;" horiz-adv-x="111" />
<glyph unicode="&#x2010;" horiz-adv-x="1241" d="M252 569q0 2 2 4l16 138q2 14 14.5 23t30.5 9h793q17 0 27 -8t10 -20v-4l-17 -138q-1 -14 -15.5 -23t-29.5 -9h-792q-14 0 -26.5 8t-12.5 20z" />
<glyph unicode="&#x2011;" horiz-adv-x="1241" d="M252 569q0 2 2 4l16 138q2 14 14.5 23t30.5 9h793q17 0 27 -8t10 -20v-4l-17 -138q-1 -14 -15.5 -23t-29.5 -9h-792q-14 0 -26.5 8t-12.5 20z" />
<glyph unicode="&#x2012;" horiz-adv-x="1241" d="M252 569q0 2 2 4l16 138q2 14 14.5 23t30.5 9h793q17 0 27 -8t10 -20v-4l-17 -138q-1 -14 -15.5 -23t-29.5 -9h-792q-14 0 -26.5 8t-12.5 20z" />
<glyph unicode="&#x2013;" horiz-adv-x="1372" d="M252 569q0 2 2 4l19 138q2 14 16.5 23t34.5 9h910q19 0 30.5 -8t11.5 -20v-4l-19 -138q-2 -14 -18.5 -23t-33.5 -9h-908q-16 0 -30.5 8t-14.5 20z" />
<glyph unicode="&#x2014;" horiz-adv-x="2396" d="M252 569q0 2 5 4l36 138q5 14 33.5 23t69.5 9h1819q39 0 62 -8t23 -20v-4l-39 -138q-2 -14 -35.5 -23t-67.5 -9h-1817q-32 0 -60.5 8t-28.5 20z" />
<glyph unicode="&#x202f;" horiz-adv-x="400" />
<glyph unicode="&#x205f;" horiz-adv-x="500" />
<glyph unicode="&#x25fc;" horiz-adv-x="1146" d="M0 0v1147h1147v-1147h-1147z" />
<glyph unicode="&#xfb01;" d="M270 809l441 442l442 -442l-442 -440zM502 809l104 -104l211 210l105 -106l-211 -209l106 -104l313 313l-419 420l-105 -105l105 -104z" />
<glyph unicode="&#xfb02;" d="M270 809l441 442l442 -442l-442 -440zM502 809l104 -104l211 210l105 -106l-211 -209l106 -104l313 313l-419 420l-105 -105l105 -104z" />
</font>
</defs>
</svg>
