<?xml version="1.0" standalone="no"?>
<!DOCTYPE svg PUBLIC "-//W3C//DTD SVG 1.1//EN" "http://www.w3.org/Graphics/SVG/1.1/DTD/svg11.dtd" >
<svg xmlns="http://www.w3.org/2000/svg">
<metadata></metadata>
<defs>
<font id="max-extrabolditalicexpertRg" horiz-adv-x="1433" >
<font-face units-per-em="2048" ascent="1638" descent="-410" />
<missing-glyph horiz-adv-x="632" />
<glyph horiz-adv-x="0" />
<glyph horiz-adv-x="682" />
<glyph unicode=" "  horiz-adv-x="632" />
<glyph unicode="&#x09;" horiz-adv-x="632" />
<glyph unicode="&#xa0;" horiz-adv-x="632" />
<glyph unicode="!" horiz-adv-x="645" d="M143 -313l86 696q2 16 14 30.5t29 14.5h207q14 0 23.5 -10.5t9.5 -28.5v-6l-86 -696q-1 -20 -14 -32.5t-29 -12.5h-207q-17 0 -25 13t-8 28v4zM260 637v4l86 696q2 16 14 30.5t29 14.5h207q14 0 24.5 -11t10.5 -28q0 -1 -1 -3t-1 -3l-84 -696q-3 -20 -16 -32.5t-29 -12.5 h-207q-16 0 -24.5 13.5t-8.5 27.5z" />
<glyph unicode="&#x22;" horiz-adv-x="1181" d="M305 1337q0 14 10 19l365 231q6 6 14 6q13 0 19 -12l75 -125q3 -6 3 -12q0 -12 -13 -19l-370 -221q-8 -4 -17 -4q-13 0 -18 10l-66 115q-2 4 -2 12zM731 1319q0 11 10 18l365 234q8 4 16 4q9 0 19 -10l73 -127q3 -6 3 -13q0 -13 -11 -18l-372 -221q-8 -4 -17 -4 q-13 0 -18 10l-66 115q-2 4 -2 12z" />
<glyph unicode="#" horiz-adv-x="1273" d="M197 473v4q3 14 18 25q173 112 305 112q66 0 187 -47q6 -2 27 -11t28 -11.5t24.5 -9.5t27 -9t24 -6t26.5 -5t25 -1q80 0 209 80q15 10 20 10q20 0 23 -14l45 -148q2 -4 2 -14v-4q0 -11 -19 -25q-173 -112 -305 -112q-68 0 -184 47q-7 3 -32 13t-33.5 13t-28.5 10 t-31.5 9.5t-27.5 5t-31 2.5q-80 0 -209 -80q-15 -10 -21 -10q-16 0 -22 14l-45 148q-2 4 -2 14zM248 885v4q0 15 18 24q59 41 143.5 77t159.5 36t187 -45q11 -4 38 -15.5t39.5 -16t33.5 -11.5t38 -9.5t35 -2.5q83 0 209 82q15 10 20 10q17 0 23 -14l45 -148q2 -4 2 -16v-4 q-3 -16 -18 -23q-59 -41 -144.5 -77t-161.5 -36q-74 0 -186 45q-8 3 -31.5 13t-32.5 13.5t-28.5 10.5t-31 9.5t-27.5 5t-31 2.5q-86 0 -209 -80q-15 -10 -21 -10q-19 0 -22 14l-45 147q-2 4 -2 15z" />
<glyph unicode="$" horiz-adv-x="966" d="M102 -117q0 11 8 20t15 11l205 80l182 1489q6 38 35 45l395 98q4 2 12 2q23 0 29 -20l43 -156q2 -2 2 -8q0 -21 -24 -31l-205 -80l-183 -1489q-3 -37 -34 -45l-396 -98q-4 -2 -12 -2q-22 0 -29 20l-43 156v8z" />
<glyph unicode="%" horiz-adv-x="1273" d="M172 217v4l21 160q2 18 17 30.5t36 12.5h887q19 0 31 -11.5t12 -27.5v-4l-19 -160q-3 -19 -20.5 -31t-34.5 -12h-885q-15 0 -30 10.5t-15 28.5zM223 637v4l21 162q2 17 18 30t37 13h885q20 0 32.5 -11.5t12.5 -27.5q0 -4 -2 -4l-19 -162q-3 -19 -20.5 -30t-34.5 -11h-885 q-15 0 -30 10t-15 27zM285 1188v4q0 12 18 25q173 112 305 112q69 0 185 -47q7 -3 32 -13t33.5 -13t28.5 -10t31.5 -9.5t27.5 -5t31 -2.5q86 0 209 80q15 10 20 10q20 0 23 -14l45 -148q2 -4 2 -14v-4q-3 -13 -19 -25q-174 -113 -305 -113q-73 0 -186 48q-6 2 -27 11 t-28 11.5t-24.5 9.5t-27 9t-24 6t-26.5 5t-25 1q-83 0 -209 -82q-1 0 -9 -4t-12 -4q-19 0 -22 14l-45 148q-2 4 -2 14z" />
<glyph unicode="&#x26;" horiz-adv-x="1273" d="M96 29v4l25 200q5 39 16 50l467 475l-350 475q-8 8 -8 24q0 4 1 11.5t1 11.5l24 201q1 13 13.5 22.5t27.5 9.5h1022q12 0 20.5 -7t8.5 -19v-4l-27 -213q-2 -14 -12 -22.5t-25 -8.5h-602l320 -451q8 -8 8 -24q0 -24 -14 -35l-441 -457h613q12 0 20 -7t8 -19v-4l-24 -211 q-7 -31 -39 -31h-1020q-14 0 -23.5 8.5t-9.5 20.5z" />
<glyph unicode="'" d="M270 809l441 442l442 -442l-442 -440zM502 809l104 -104l211 210l105 -106l-211 -209l106 -104l313 313l-419 420l-105 -105l105 -104z" />
<glyph unicode="(" d="M270 809l441 442l442 -442l-442 -440zM502 809l104 -104l211 210l105 -106l-211 -209l106 -104l313 313l-419 420l-105 -105l105 -104z" />
<glyph unicode=")" d="M270 809l441 442l442 -442l-442 -440zM502 809l104 -104l211 210l105 -106l-211 -209l106 -104l313 313l-419 420l-105 -105l105 -104z" />
<glyph unicode="*" d="M270 809l441 442l442 -442l-442 -440zM502 809l104 -104l211 210l105 -106l-211 -209l106 -104l313 313l-419 420l-105 -105l105 -104z" />
<glyph unicode="+" d="M270 809l441 442l442 -442l-442 -440zM502 809l104 -104l211 210l105 -106l-211 -209l106 -104l313 313l-419 420l-105 -105l105 -104z" />
<glyph unicode="," horiz-adv-x="905" d="M330 1364q0 114 65 182q77 74 256 74q135 0 202 -41.5t67 -136.5q0 -110 -58 -176q-75 -86 -264 -86q-143 0 -207 47q-61 43 -61 137zM535 1360q0 -43 16.5 -62.5t56.5 -19.5q39 0 60 17t32 53q13 47 13 96v2q0 41 -17 59.5t-57 18.5q-39 0 -60 -18t-32 -56 q-12 -58 -12 -90z" />
<glyph unicode="-" horiz-adv-x="1273" d="M246 535v4l20 170q3 14 19 24t37 10h815q20 0 32.5 -9t12.5 -23v-2l-23 -170q-1 -16 -18.5 -25.5t-34.5 -9.5h-815q-15 0 -30 9t-15 22z" />
<glyph unicode="." horiz-adv-x="688" d="M297 1241v4l29 223q2 14 17 25.5t36 11.5h301q20 0 32.5 -10.5t12.5 -24.5v-2l-27 -223q-3 -15 -18.5 -26t-36.5 -11h-301q-20 0 -32.5 9.5t-12.5 23.5z" />
<glyph unicode="/" horiz-adv-x="358" d="M-367 109l2 14l1106 1386q6 9 17 9q1 0 4 -1t4 -1l141 -105q6 -3 6 -12t-6 -15l-1104 -1386q-8 -8 -16 -8q-2 0 -10 4l-139 102q-5 2 -5 13z" />
<glyph unicode="0" horiz-adv-x="1134" d="M229 903q0 99 19.5 208t54.5 185q35 75 88 126.5t146 84.5t219 33q221 0 321 -100q82 -86 82 -260q0 -91 -17 -195.5t-46 -179.5q-50 -125 -159 -194.5t-304 -69.5q-225 0 -324 102q-80 89 -80 260zM496 905q0 -95 34 -137q39 -45 125 -45q90 0 137 46t70 142 q33 143 33 263q-3 103 -41 143q-38 41 -121 41q-96 0 -142.5 -52.5t-68.5 -162.5q-26 -123 -26 -238z" />
<glyph unicode="1" horiz-adv-x="675" d="M207 1346v6l14 112q3 30 37 33l367 43h2q13 0 21.5 -11.5t8.5 -25.5v-6l-108 -893q-3 -19 -15.5 -31t-29.5 -12h-170q-13 0 -23 11t-10 26v6l86 707l-149 10q-31 3 -31 25z" />
<glyph unicode="2" horiz-adv-x="1007" d="M213 594q0 1 1 2t1 2l25 209q4 35 25 66.5t48 50.5q24 16 93 54t126 68l58 29q16 8 45.5 23.5t44 23t33.5 19.5t32 24q43 43 43 105q0 45 -38 65q-39 19 -117 19q-103 0 -295 -45h-6q-12 0 -22.5 8.5t-12.5 19.5l-8 103v4q0 29 35 45q160 51 376 51q230 0 308 -90 q49 -55 49 -147q0 -132 -92 -234q-76 -85 -211 -147l-271 -123l-4 -39l482 12q13 0 24.5 -8.5t11.5 -24.5v-4l-16 -137q-2 -16 -14.5 -26.5t-32.5 -10.5h-678q-18 0 -30.5 9.5t-12.5 23.5z" />
<glyph unicode="3" horiz-adv-x="1017" d="M236 608v13l28 106q6 27 35 27q8 0 12 -2q102 -25 234 -25q109 0 155 33q43 37 43 98q0 50 -36 70q-34 15 -101 22q-17 2 -96 15q-7 0 -20 7.5t-13 20.5v4l12 103q2 13 11 21t15.5 10t10.5 2q22 4 56.5 7.5t40.5 4.5q51 7 81 17t48 32q26 29 26 78q0 34 -24 55 q-36 27 -129 27q-34 0 -74.5 -5t-68.5 -10.5t-74.5 -15.5t-67.5 -14q-3 0 -7.5 -1t-6.5 -1q-23 0 -27 30l-10 105v4q0 26 33 39q54 18 160.5 36.5t213.5 18.5q174 0 262 -57q84 -55 84 -170q0 -81 -43 -135q-57 -81 -188 -103l-4 -37q106 -13 158 -65q43 -46 43 -117 q0 -123 -80 -203q-112 -112 -355 -112q-87 0 -182.5 12.5t-132.5 26.5q-22 9 -22 28z" />
<glyph unicode="4" horiz-adv-x="1146" d="M211 803v6l16 131q5 31 27 55l430 500q6 8 20 15.5t23 7.5h305q15 0 25 -11t10 -26v-6l-63 -521h102q19 0 30 -9.5t11 -24.5v-2l-14 -117q-1 -15 -16 -26t-34 -11h-98l-18 -160q-3 -19 -15.5 -31t-29.5 -12h-162q-15 0 -25 10t-10 27v6l20 160h-499q-15 0 -25 11t-10 28z M463 954h307l49 392h-18z" />
<glyph unicode="5" horiz-adv-x="989" d="M193 586v6l36 141q0 3 5.5 7.5t11.5 4.5h4q126 -20 270 -20q103 0 154 43q41 35 41 92q0 50 -33 76q-40 29 -117 29q-40 0 -92.5 -5t-88 -10.5t-75.5 -12.5t-41 -7t-2 -1t-2 -1q-10 0 -24 14q-11 6 -11 16l2 3l101 542q2 5 8 10t12 5h641q9 0 15 -5.5t6 -13.5v-2 l-17 -141q-2 -8 -9 -14.5t-17 -6.5h-424l-41 -209q84 25 168 25q137 0 213 -53q98 -64 98 -205q0 -149 -100 -242q-115 -110 -359 -110q-79 0 -154.5 6.5t-116 13.5t-52.5 12q-10 7 -10 13z" />
<glyph unicode="6" horiz-adv-x="1064" d="M229 868q0 54 11 170q12 99 31 170.5t57.5 137.5t95.5 106t146 64t208 24q74 0 143 -8t101 -16l33 -7q5 0 8.5 -3.5t3.5 -8.5v-2l-35 -158q-3 -10 -16 -10h-4q-132 27 -215 27q-73 0 -117.5 -8t-81.5 -31.5t-57 -68t-31 -116.5l24 10q23 9 38.5 13.5t44 12t61 11 t67.5 3.5q157 0 236 -62q82 -63 82 -194q0 -158 -92 -260q-115 -123 -369 -123q-211 0 -297 86q-76 79 -76 241zM485 854q0 -58 27 -92q33 -41 113 -41q99 0 139 55q31 42 31 109q0 54 -31 82q-35 30 -102 30q-80 0 -166 -28l-2 -19q-9 -83 -9 -96z" />
<glyph unicode="7" horiz-adv-x="944" d="M207 1354v2l18 141q0 8 8.5 14.5t18.5 6.5h780q9 0 16 -6t7 -13v-2l-19 -147q-6 -23 -12 -29q-111 -109 -188 -196t-135.5 -174.5t-97.5 -156t-100 -184.5q-12 -23 -18 -35q-2 -4 -10 -9t-16 -5h-217q-25 0 -25 17q0 1 1 3t1 3q105 215 236 396.5t315 354.5h-541 q-9 0 -15.5 5.5t-6.5 13.5z" />
<glyph unicode="8" horiz-adv-x="1101" d="M211 786q0 95 61 162q41 41 99 63t114 25l7 37q-117 13 -164 64q-41 41 -41 112q0 156 149 232q118 59 307 59q186 0 285 -55q109 -56 109 -182q0 -80 -50 -142q-20 -23 -45.5 -40t-52.5 -26t-46 -14t-41 -7l-21 -3l-4 -37q99 -4 161 -63q54 -51 54 -129 q0 -65 -28.5 -122t-80.5 -95q-115 -84 -362 -84q-201 0 -302 55q-108 60 -108 190zM479 825q0 -42 27 -69q38 -35 135 -35q107 0 150 43q38 32 38 96q0 54 -47 82q-45 23 -114 23q-97 0 -146 -41q-43 -40 -43 -99zM541 1237q0 -40 28 -61q36 -31 121 -31q94 0 139 37 q39 31 39 94q0 54 -57 72q-29 10 -92 10q-86 0 -129 -25q-49 -30 -49 -96z" />
<glyph unicode="9" horiz-adv-x="1064" d="M254 582v2l35 159q4 11 16 11h2q8 -2 32 -6.5l32 -6t28 -5.5t30.5 -5t28 -3t33 -2.5t33.5 -0.5q73 0 117.5 8t81 32t56 68.5t30.5 116.5q-1 0 -16 -6t-23 -9t-26.5 -9t-35 -9.5t-38 -7.5t-46.5 -6t-51 -2q-173 0 -251 78q-64 64 -64 176v2q0 153 84 250q117 133 375 133 q207 0 291 -78.5t84 -249.5q0 -68 -13 -170q-11 -99 -30 -170t-57 -137t-95 -106.5t-146 -64t-208 -23.5q-75 0 -144 7.5t-101 15.5l-32 7q-12 0 -12 11zM524 1194q0 -58 39 -86q36 -25 96 -25q79 0 164 29l4 18q7 65 7 97q0 69 -34 100t-104 31q-100 0 -137 -51 q-35 -41 -35 -111v-2z" />
<glyph unicode=":" horiz-adv-x="1062" d="M324 1442q0 17 4 49q1 14 3.5 22.5t12 15.5t25.5 7h123q30 0 30 -29q0 -2 -1 -7.5t-1 -8.5v-27q0 -59 38 -84.5t140 -25.5q111 0 154.5 31.5t54.5 107.5q6 30 17 37q9 6 24 6h123q31 0 31 -27q0 -12 -2 -18q-19 -155 -124 -219t-296 -64q-175 0 -265.5 53.5t-90.5 180.5z " />
<glyph unicode=";" horiz-adv-x="1036" d="M332 1432q0 8 6 14l115 125q12 12 22 12q8 0 14 -6l201 -172l246 172q6 6 14 6q12 0 21 -12l84 -125q2 -2 2 -10q0 -11 -13 -21l-342 -213h-73l-289 213q-8 5 -8 17z" />
<glyph unicode="&#x3c;" horiz-adv-x="1273" d="M127 31v4l23 170q2 14 17 24.5t36 10.5h927q21 0 33.5 -9.5t12.5 -23.5v-2l-21 -170q-1 -16 -18.5 -25.5t-34.5 -9.5h-930q-14 0 -29.5 8.5t-15.5 22.5zM207 696v4l18 150q4 31 33 41l916 364q20 5 22 5q21 0 27 -19l59 -166q2 -4 2 -10q0 -26 -27 -35l-729 -254 l668 -248q18 -7 18 -28q0 -10 -6 -19l-100 -166q-10 -16 -31 -16q-12 0 -20 4l-828 359q-22 11 -22 34z" />
<glyph unicode="=" horiz-adv-x="1273" d="M193 391q0 2 2 4l18 162q3 18 21 29.5t34 11.5h885q15 0 30 -10t15 -27v-4l-20 -162q-2 -17 -18 -30t-38 -13h-512l-227 -295q-6 -12 -18 -12q-7 0 -11 4l-98 64q-4 4 -4 10t4 14l164 215h-182q-20 0 -32.5 11.5t-12.5 27.5zM236 737v4l20 160q2 17 18 30t37 13h512 l228 297q7 10 18 10q8 0 10 -2l99 -63q4 -4 4 -10q0 -7 -4 -15l-164 -217h182q20 0 32.5 -11t12.5 -26q0 -4 -2 -6l-18 -160q-3 -20 -21 -30.5t-35 -10.5h-884q-15 0 -30 10t-15 27z" />
<glyph unicode="&#x3e;" horiz-adv-x="1273" d="M127 31v4l20 170q2 14 18.5 24.5t37.5 10.5h927q20 0 33 -9.5t13 -23.5v-2l-21 -170q-1 -15 -19.5 -25t-33.5 -10h-930q-15 0 -30 9t-15 22zM182 494q0 11 8 20.5t17 13.5l729 248l-668 254q-16 8 -16 27q0 12 4 18l100 166q13 19 33 19q4 0 19 -5l827 -364q22 -7 22 -33 v-8l-18 -150q-4 -26 -31 -38l-917 -359q-8 -4 -21 -4q-20 0 -26 16l-60 166q-2 4 -2 13z" />
<glyph unicode="?" horiz-adv-x="1226" d="M137 403q0 107 22.5 217t65.5 195q126 254 428 254q93 0 153.5 -22.5t108.5 -67.5q7 6 7 8v10q0 104 -31.5 182.5t-84.5 127.5t-130 79.5t-159 42t-181 11.5q-24 0 -35.5 11t-11.5 26v6l18 155q3 24 18.5 33.5t30.5 9.5q93 5 107 5q403 0 589.5 -207.5t186.5 -601.5 q0 -124 -18 -259q-10 -78 -16.5 -123t-26 -122.5t-44.5 -124.5t-71 -105.5t-105 -91t-147.5 -55.5t-198.5 -23q-259 0 -376 123q-99 102 -99 307zM496 373q0 -87 31.5 -125.5t111.5 -38.5q56 0 92.5 17t59 59.5t34.5 94.5t23 142q10 105 10 160q0 80 -32 117t-109 37 q-56 0 -92 -17.5t-59 -60t-35 -95t-23 -141.5q-12 -88 -12 -149z" />
<glyph unicode="@" d="M270 809l441 442l442 -442l-442 -440zM502 809l104 -104l211 210l105 -106l-211 -209l106 -104l313 313l-419 420l-105 -105l105 -104z" />
<glyph unicode="A" horiz-adv-x="1134" d="M162 342q0 99 19.5 208t54.5 185q109 244 452 244q223 0 320 -100q84 -88 84 -261q0 -91 -17.5 -195t-48.5 -179q-50 -125 -159 -194.5t-302 -69.5q-227 0 -323 102q-80 86 -80 260zM426 344q0 -95 37 -137q39 -45 123 -45q91 0 137.5 46t69.5 142q32 139 32 262 q0 102 -39 144q-41 41 -122 41q-96 0 -142.5 -52.5t-68.5 -162.5q-27 -147 -27 -238z" />
<glyph unicode="B" horiz-adv-x="675" d="M137 784v7l15 112q3 30 38 33l365 43h4q13 0 22 -11.5t9 -25.5q0 -1 -1 -3t-1 -3l-109 -893q-3 -19 -15.5 -31t-27.5 -12h-172q-13 0 -23 11t-10 26v6l88 707l-149 10q-33 3 -33 24z" />
<glyph unicode="C" horiz-adv-x="1007" d="M145 33v4l25 209q4 35 26 66t50 50q23 16 91.5 54t125.5 68l57 30q17 9 46 23.5t44.5 22.5t34.5 20t31 24q43 43 43 105q0 46 -39 65q-37 19 -117 19q-103 0 -295 -45h-6q-12 0 -22.5 9t-10.5 19l-8 103v4q0 30 33 45q160 51 377 51q228 0 309 -90q47 -53 47 -148 q0 -130 -90 -233q-81 -87 -213 -148l-268 -122l-4 -39l479 12h2q13 0 25 -8.5t12 -24.5v-4l-19 -137q-2 -15 -14.5 -26t-30.5 -11h-680q-18 0 -29.5 9.5t-11.5 23.5z" />
<glyph unicode="D" horiz-adv-x="1017" d="M166 47q0 8 2 12l27 107q6 27 34 27q7 0 13 -3q98 -24 233 -24q110 0 156 33q45 36 45 98q0 48 -39 70q-31 15 -100 22q-68 9 -95 14q-8 0 -21 8t-13 21v4l14 103q1 13 9.5 21t15 9.5t10.5 1.5q22 4 57.5 8.5t38.5 4.5q35 5 54.5 9t41.5 14t35 26q25 28 25 78 q0 34 -25 55q-36 27 -129 27q-34 0 -74.5 -5t-68.5 -10.5t-74.5 -15.5t-67.5 -14q-2 0 -6 -1.5t-6 -1.5q-25 0 -29 31l-8 105v4q0 28 33 39q51 17 159 36t216 19q175 0 260 -57q84 -53 84 -170q0 -81 -41 -136q-59 -80 -189 -102l-6 -37q106 -13 158 -65q42 -42 45 -117 q0 -121 -82 -203q-109 -112 -354 -112q-87 0 -182.5 12t-133.5 26q-22 11 -22 29z" />
<glyph unicode="E" horiz-adv-x="1146" d="M143 242v6l17 131q3 31 24 55l432 500q18 22 43 22h306q13 0 22.5 -10.5t9.5 -25.5v-7l-63 -520h104q17 0 29 -10t12 -25l-2 -2l-12 -116q-3 -16 -17 -26.5t-34 -10.5h-96l-21 -160q-3 -19 -15.5 -31t-29.5 -12h-162q-14 0 -23.5 10t-9.5 27v6l19 160h-500q-15 0 -24 11 t-9 28zM393 393h309l48 391h-19z" />
<glyph unicode="F" horiz-adv-x="989" d="M123 25q0 4 2 6l35 141q6 12 18 12h2q126 -20 273 -20q100 0 151 43q43 34 43 92q0 48 -35 76q-39 28 -116 28q-27 0 -60 -2.5t-61.5 -5.5t-60 -7.5t-51.5 -8l-40 -7t-22 -3.5q-1 0 -3 -1t-3 -1q-11 0 -25 14q-8 4 -8 16v2l102 543q0 4 7 9t12 5h641q20 0 20 -18v-2 l-16 -141q-2 -8 -9.5 -14.5t-17.5 -6.5h-424l-39 -209q82 25 166 25q136 0 215 -53q96 -65 96 -205q0 -149 -100 -242q-115 -110 -356 -110q-79 0 -155 6.5t-116.5 13.5t-52.5 12q-12 6 -12 13z" />
<glyph unicode="G" horiz-adv-x="1064" d="M160 307q0 75 12 170q11 99 30 170.5t57 137t95.5 106t146.5 64.5t208 24q75 0 144 -7.5t101 -15.5l31 -8q12 0 12 -12v-2l-34 -158q-3 -10 -17 -10h-2q-135 27 -217 27q-73 0 -117.5 -8t-81 -31.5t-56 -68t-30.5 -116.5q1 0 16 6t23 9t26.5 9t35 9.5t38 7.5t46.5 6t51 2 q155 0 233 -61q82 -63 82 -195q0 -162 -92 -260q-114 -122 -366 -122q-211 0 -297 86q-78 78 -78 241zM418 293q0 -62 24 -92q33 -41 113 -41q98 0 141 55q31 48 31 109q0 52 -33 82q-34 30 -102 30q-80 0 -166 -28l-2 -19q-6 -55 -6 -96z" />
<glyph unicode="H" horiz-adv-x="944" d="M139 793v2l17 141q4 20 26 20h783q20 0 20 -18v-2l-18 -148q0 -15 -13 -28q-111 -109 -187.5 -195.5t-136.5 -176.5t-95.5 -153.5t-98.5 -185.5q-12 -23 -18 -35q-14 -14 -29 -14h-217q-22 0 -22 16v7q107 216 237.5 397.5t312.5 353.5h-540q-9 0 -15 5.5t-6 13.5z" />
<glyph unicode="I" horiz-adv-x="1101" d="M141 225q0 95 64 162q40 41 98 63t115 25l4 37q-1 0 -9.5 1t-15.5 2t-19.5 3t-23 5t-24.5 7.5t-25.5 10.5t-24 15t-22.5 19q-41 41 -41 113q0 156 152 232q118 59 305 59q185 0 284 -55q109 -54 109 -183q0 -80 -49 -141q-19 -23 -44.5 -40t-52.5 -26t-46 -14t-41 -8 l-21 -2l-4 -37q100 -4 162 -63q51 -48 51 -129q0 -65 -28.5 -122.5t-80.5 -95.5q-111 -83 -360 -83q-202 0 -303 55q-109 60 -109 190zM412 264q0 -45 24 -69q38 -35 135 -35q106 0 152 43q37 34 37 96q0 56 -47 82q-43 22 -113 22q-98 0 -147 -41q-41 -38 -41 -98zM473 676 q0 -43 29 -62q35 -30 121 -30q92 0 137 37q41 33 41 94q0 52 -60 71q-32 11 -92 11q-87 0 -127 -25q-49 -28 -49 -96z" />
<glyph unicode="J" horiz-adv-x="1064" d="M184 20v3l35 159q4 11 17 11h4q141 -29 215 -29q73 0 117.5 8t81 32t56.5 68.5t31 116.5q-3 -1 -20 -7.5t-28.5 -10.5t-34.5 -10.5t-43.5 -10.5t-49.5 -7t-59 -3q-173 0 -254 78q-64 64 -64 176v2q0 153 84 250q117 133 377 133q205 0 289 -78.5t84 -249.5 q0 -65 -10 -170q-10 -82 -25 -144t-41 -121t-65.5 -100.5t-95.5 -73t-134 -47t-178 -15.5q-74 0 -143 7.5t-101 14.5l-32 8q-13 0 -13 10zM457 633q0 -59 37 -86q36 -25 96 -25q77 0 166 29l2 18q6 55 6 97q0 69 -33.5 100t-103.5 31q-97 0 -138 -52q-32 -40 -32 -110v-2z " />
<glyph unicode="K" horiz-adv-x="1775" d="M111 627q0 152 88 272q117 160 362 160q63 0 117 -13t91 -30.5t80.5 -53.5t68.5 -62t71 -77q59 52 90.5 78t84 62t93.5 53t98 30t120 13q189 0 278 -96q78 -81 78 -236q0 -156 -88 -272q-119 -162 -363 -162q-52 0 -97 7.5t-84 25.5t-68 34.5t-64 50t-56 55t-59 64.5 q-58 -52 -90.5 -79t-83.5 -62.5t-93 -52.5t-98.5 -30t-119.5 -13q-188 0 -279 98q-77 77 -77 236zM377 651q0 -59 29 -88q34 -37 108 -37q55 0 148.5 50.5t156.5 99.5q-57 50 -136 98.5t-134 48.5q-86 0 -129 -49t-43 -123zM1122 678q57 -50 136.5 -99t134.5 -49 q84 0 129 48q43 49 43 124q0 57 -29 89q-36 36 -109 36q-54 0 -142.5 -48t-162.5 -101z" />
<glyph unicode="L" horiz-adv-x="1353" d="M104 762v4q0 11 9.5 22t19.5 13l229 67l76 605q3 25 37 28l322 39h4q12 0 19 -8t7 -19v-4l-65 -526l362 104q10 5 17 5q23 0 26 -17l27 -160v-4q0 -28 -27 -37l-434 -124l-57 -465h643q12 0 20.5 -7.5t8.5 -19.5v-4l-27 -223q-1 -13 -12 -22t-25 -9h-993q-14 0 -22.5 7.5 t-8.5 19.5v4l74 604l-158 -45q-12 -4 -18 -4q-25 0 -25 16z" />
<glyph unicode="M" horiz-adv-x="1460" d="M172 1268v4l25 211q1 13 12.5 21.5t26.5 8.5h1361q14 0 22.5 -7t8.5 -19v-4l-26 -211q-1 -13 -12 -22t-25 -9h-179l-147 -1210q-1 -13 -12.5 -22t-26.5 -9h-315q-14 0 -22.5 7.5t-8.5 19.5v4l150 1210h-242l-148 -1210q-1 -13 -11.5 -22t-24.5 -9h-318q-14 0 -22.5 7.5 t-8.5 19.5v4l150 1210h-178q-29 0 -29 27z" />
<glyph unicode="N" horiz-adv-x="1755" d="M117 750q0 19 12 28l907 727q11 8 27 8q18 0 24 -6l730 -727q6 -6 6 -18q0 -22 -11 -29l-907 -727q-8 -8 -31 -8q-16 0 -22 6l-729 729q-6 3 -6 17zM465 760l453 -461l561 457l-453 461z" />
<glyph unicode="O" horiz-adv-x="1562" d="M119 25v4l20 161q3 15 25 19l330 67l6 56q-165 62 -242 203q-53 98 -53 256q0 113 34 240.5t91 219.5q177 289 641 289q329 0 475 -143q129 -121 129 -369q0 -208 -55 -344q-99 -255 -377 -352l-6 -56l313 -67q20 -4 20 -16q0 -3 -2 -3l-18 -161q-2 -12 -12 -20.5 t-23 -8.5h-510q-28 0 -28 25v4l49 413q168 92 223 291q33 123 33 281q0 156 -62 221q-59 59 -180 59q-120 0 -190 -56.5t-105 -168.5q-51 -155 -51 -303q0 -120 33 -195q38 -77 116 -129l-49 -413q-1 -12 -12 -20.5t-25 -8.5h-510q-12 0 -20 7t-8 18z" />
<glyph unicode="P" horiz-adv-x="1513" d="M195 27v4l178 1442q3 25 37 28l321 39h4q12 0 19.5 -8t7.5 -19v-4l-35 -278h406q258 0 360 -119q76 -85 76 -242q0 -143 -41 -262q-42 -132 -129 -207q-137 -120 -412 -120h-14h-363l-30 -250q-1 -13 -12 -22t-25 -9h-318q-13 0 -21.5 7.5t-8.5 19.5zM639 518l229 8 q165 3 224 54q38 31 57 100q18 64 18 133q0 70 -28 109q-28 33 -82 42t-160 9h-201z" />
<glyph unicode="Q" d="M270 809l441 442l442 -442l-442 -440zM502 809l104 -104l211 210l105 -106l-211 -209l106 -104l313 313l-419 420l-105 -105l105 -104z" />
<glyph unicode="R" d="M270 809l441 442l442 -442l-442 -440zM502 809l104 -104l211 210l105 -106l-211 -209l106 -104l313 313l-419 420l-105 -105l105 -104z" />
<glyph unicode="S" horiz-adv-x="1445" d="M158 96q0 13 2 17l49 170q10 34 41 34q14 0 22 -2q5 -1 42.5 -10.5t76 -18t90 -18.5t107.5 -16t106 -6q170 0 236 63q53 50 53 135q0 81 -80 117q-11 5 -22.5 9t-27 8t-27 6.5t-32 6.5t-31 5.5t-35 5.5t-34.5 6q-222 33 -321 117q-117 89 -117 272q0 106 37 208t108 173 q161 158 514 158q107 0 222 -16t170.5 -29t93.5 -25q39 -9 39 -41q0 -12 -2 -18l-52 -168q-11 -33 -40 -33h-9q-7 2 -55 13t-60.5 13.5t-53 11t-61 11.5t-55 7.5t-64.5 6t-62 1.5q-135 0 -201 -41q-76 -49 -76 -146q0 -83 92 -120q53 -18 203 -41q113 -17 194.5 -41.5 t139.5 -73.5q108 -88 108 -291q0 -205 -116 -338q-168 -201 -545 -201q-128 0 -258 18t-190.5 33.5t-90.5 26.5q-28 8 -28 41zM623 1858q0 10 6 16l114 125q10 10 23 10q10 0 14 -4l201 -174l246 174q4 4 14 4q13 0 21 -10l81 -125q5 -2 5 -10q0 -11 -13 -21l-342 -213h-73 l-289 213q-8 5 -8 15z" />
<glyph unicode="T" horiz-adv-x="1746" d="M96 678v2l21 172q1 14 14.5 21.5t26.5 7.5h186l74 602q2 12 13 21t24 9h665q386 0 522 -186q93 -124 93 -360q0 -280 -82 -525q-77 -224 -246.5 -333t-472.5 -109h-664q-13 0 -21.5 8.5t-8.5 20.5v4l75 616h-186q-15 0 -24 8.5t-9 20.5zM651 258h275q161 0 242.5 65 t123.5 234q49 204 49 383q0 132 -28 201q-30 63 -93.5 89.5t-170.5 26.5h-275l-45 -376h348q12 0 23.5 -7.5t11.5 -19.5v-2l-20 -172q-2 -12 -14 -21.5t-29 -9.5h-349z" />
<glyph unicode="U" d="M270 809l441 442l442 -442l-442 -440zM502 809l104 -104l211 210l105 -106l-211 -209l106 -104l313 313l-419 420l-105 -105l105 -104z" />
<glyph unicode="V" horiz-adv-x="1660" d="M158 1026q0 20 12.5 33t34.5 14l270 29h10q32 0 37 -39l70 -844h55l400 1256q11 38 51 38h725q28 0 28 -26v-4l-26 -213q-2 -14 -12 -22.5t-25 -8.5h-467l-453 -1206q-11 -33 -41 -33h-485q-29 0 -33 33l-149 985q-2 2 -2 8z" />
<glyph unicode="W" d="M270 809l441 442l442 -442l-442 -440zM502 809l104 -104l211 210l105 -106l-211 -209l106 -104l313 313l-419 420l-105 -105l105 -104z" />
<glyph unicode="X" d="M270 809l441 442l442 -442l-442 -440zM502 809l104 -104l211 210l105 -106l-211 -209l106 -104l313 313l-419 420l-105 -105l105 -104z" />
<glyph unicode="Y" horiz-adv-x="1546" d="M178 1470q0 13 14.5 28t20.5 15h365q21 0 29.5 -6.5t17.5 -29.5l272 -621l410 621q13 23 23 29.5t32 6.5h348q12 0 18.5 -8.5t6.5 -19.5q0 -15 -4 -23l-687 -907l-63 -524q-1 -13 -12 -22t-25 -9h-317q-14 0 -22.5 7.5t-8.5 19.5v4l63 520l-479 909q-2 4 -2 10zM737 1776 q0 10 13 20l362 232q8 4 16 4q11 0 19 -11l88 -141q2 -2 2 -10q0 -14 -10 -19l-373 -221q-8 -4 -16 -4q-12 0 -19 10l-80 129q-2 2 -2 11z" />
<glyph unicode="Z" horiz-adv-x="1445" d="M104 27v4l23 190q3 27 27 55l854 965h-734q-28 0 -28 27v4l24 211q1 13 12 21.5t25 8.5h1176q13 0 21.5 -7.5t8.5 -18.5v-4l-24 -207q-2 -20 -21 -43l-864 -961h754q14 0 22.5 -7t8.5 -19q-1 -2 -3 -4l-24 -211q-1 -13 -12 -22t-25 -9h-1190q-13 0 -22 8t-9 19zM582 1858 q0 11 8 16l112 125q10 10 23 10q6 0 14 -4l203 -174l244 174q8 4 14 4q14 0 21 -10l84 -125q2 -2 2 -10q0 -13 -11 -21l-344 -213h-71l-291 213q-8 5 -8 15z" />
<glyph unicode="[" d="M270 809l441 442l442 -442l-442 -440zM502 809l104 -104l211 210l105 -106l-211 -209l106 -104l313 313l-419 420l-105 -105l105 -104z" />
<glyph unicode="\" d="M270 809l441 442l442 -442l-442 -440zM502 809l104 -104l211 210l105 -106l-211 -209l106 -104l313 313l-419 420l-105 -105l105 -104z" />
<glyph unicode="]" d="M270 809l441 442l442 -442l-442 -440zM502 809l104 -104l211 210l105 -106l-211 -209l106 -104l313 313l-419 420l-105 -105l105 -104z" />
<glyph unicode="^" d="M270 809l441 442l442 -442l-442 -440zM502 809l104 -104l211 210l105 -106l-211 -209l106 -104l313 313l-419 420l-105 -105l105 -104z" />
<glyph unicode="_" horiz-adv-x="1036" d="M324 1356q0 13 10 18l344 215h72l290 -215q9 -4 9 -14q0 -4 -9 -17l-114 -129q-7 -10 -23 -10q-6 0 -14 4l-201 174l-244 -174q-8 -4 -16 -4q-13 0 -18 10l-84 129q-2 4 -2 13z" />
<glyph unicode="`" horiz-adv-x="784" d="M115 -258q0 83 59 166q26 40 69 82t71.5 65t72.5 56l119 -82q-110 -90 -152 -156q-35 -60 -35 -104q0 -35 27 -48q23 -10 80 -10q33 0 64.5 3.5t51 7.5t21.5 4h4q8 0 14.5 -6t6.5 -13l6 -88v-2q0 -8 -8 -14.5t-17 -8.5q-99 -22 -215 -22q-239 0 -239 170z" />
<glyph unicode="a" horiz-adv-x="2299" d="M315 1346q0 4 2 6l13 112q6 30 39 33l364 43h4q13 0 22 -11.5t9 -25.5q0 -4 -2 -6l-109 -893q-3 -19 -15.5 -31t-27.5 -12h-172q-14 0 -23 10t-9 27v6l88 707l-150 10q-33 3 -33 25zM467 109q0 14 4 14l1104 1386q6 9 16 9q2 0 5.5 -1t5.5 -1l139 -105q6 -3 6 -12 q0 -7 -4 -15l-1106 -1386q-8 -8 -16 -8q-5 0 -9 4l-141 102q-4 4 -4 13zM1237 242v6l16 133q5 31 27 55l432 502q5 8 18.5 15.5t22.5 7.5h307q13 0 23 -11t10 -26v-6l-63 -523h102q18 0 29.5 -10t11.5 -25v-4l-14 -114q-1 -15 -16 -26t-34 -11h-98l-20 -162 q-1 -18 -14 -30.5t-29 -12.5h-162q-15 0 -25 11t-10 26v6l21 162h-500q-15 0 -25 11t-10 26zM1489 395h307l49 393h-18z" />
<glyph unicode="b" horiz-adv-x="2347" d="M315 1346q0 4 2 6l13 112q6 30 39 33l364 43h4q13 0 22 -11.5t9 -25.5q0 -4 -2 -6l-109 -893q-3 -19 -15.5 -31t-27.5 -12h-172q-14 0 -23 10t-9 27v6l88 707l-150 10q-33 3 -33 25zM467 109q0 14 4 14l1104 1386q6 9 16 9q2 0 5.5 -1t5.5 -1l139 -105q6 -3 6 -12 q0 -7 -4 -15l-1106 -1386q-8 -8 -16 -8q-5 0 -9 4l-141 102q-4 4 -4 13zM1393 33v4l26 209q4 34 25.5 66t48.5 53q23 16 92 53t127 66l57 30q19 10 56.5 29.5t59.5 32.5t38 28q43 40 43 103q0 48 -39 67q-37 19 -115 19q-106 0 -294 -45h-9q-12 0 -21 8.5t-11 19.5l-9 103v4 q0 15 9.5 27.5t23.5 17.5q164 51 379 51q170 0 258 -49q98 -59 98 -195q0 -116 -84 -217q-74 -89 -219 -158l-274 -129l-4 -32l485 12q13 0 25 -8.5t12 -24.5v-4l-16 -137q-3 -16 -15.5 -26.5t-31.5 -10.5h-678q-18 0 -30.5 9.5t-12.5 23.5z" />
<glyph unicode="c" horiz-adv-x="2553" d="M252 608q0 9 2 13l27 106q6 27 34 27q9 0 13 -2q102 -25 233 -25q126 0 168 45q33 38 33 84q0 54 -41 72q-31 15 -96 22q-38 5 -97 15q-8 0 -21 7.5t-13 20.5l2 4l12 103q1 10 6 17t10.5 9.5t11.5 4.5l7 2q22 4 56.5 7.5t41.5 4.5q34 6 48.5 8.5t36.5 11t36 21.5 q33 26 33 84q0 42 -31 63q-35 21 -123 21q-34 0 -74.5 -5t-68.5 -10.5t-74.5 -15.5t-67.5 -14q-2 0 -6 -1t-6 -1q-27 0 -27 30l-10 105v4q0 26 33 39q51 17 159 36t216 19q180 0 264 -59q82 -57 82 -166q0 -88 -47 -146q-60 -82 -189 -100l-4 -31q107 -13 154 -57 q51 -45 51 -127q0 -118 -78 -199q-111 -114 -356 -114q-88 0 -183.5 12.5t-134.5 26.5q-22 11 -22 28zM719 109q0 14 4 14l1104 1386q6 9 16 9q2 0 5 -1t5 -1l140 -105q6 -3 6 -12q0 -7 -4 -15l-1106 -1386q-8 -8 -15 -8q-6 0 -10 4l-141 102q-4 4 -4 13zM1491 242v6l16 133 q5 31 27 55l432 502q5 8 18.5 15.5t22.5 7.5h307q13 0 23 -11t10 -26v-6l-63 -523h102q18 0 29.5 -10t11.5 -25v-4l-14 -114q-1 -15 -16 -26t-34 -11h-98l-20 -162q-1 -18 -14 -30.5t-29 -12.5h-162q-15 0 -25 11t-10 26v6l20 162h-499q-15 0 -25 11t-10 26zM1743 395h307 l49 393h-18z" />
<glyph unicode="d" horiz-adv-x="1529" d="M33 33q0 10 6 22l678 1432q6 10 20.5 18t24.5 8h377q10 0 23 -8t16 -18l327 -1432v-12q0 -17 -12.5 -30t-36.5 -13h-1382q-41 0 -41 33zM391 211h791l-213 1081h-95z" />
<glyph unicode="e" horiz-adv-x="1495" d="M129 514v4l16 146q1 13 11 21.5t24 8.5h1192q11 0 19 -6t8 -16q0 -1 -1 -3t-1 -3l-39 -148q-5 -29 -33 -29h-571q12 -89 41 -138t92.5 -74t175.5 -25q155 0 342 45q8 2 22 2q24 0 27 -25l12 -174v-4q0 -31 -49 -49q-178 -65 -454 -65h-5q-325 0 -464 118 q-140 118 -146 389h-192q-12 0 -19.5 7t-7.5 18zM168 829v5l16 143q1 13 11 22t24 9h189q70 280 242 402q170 122 498 122h5q284 -2 438 -68q39 -13 39 -37q0 -4 -4 -16l-53 -174q-9 -25 -35 -25l-20 5q-2 0 -27.5 5.5t-56 11.5t-70.5 12t-87.5 10t-90.5 4 q-115 0 -187.5 -27t-113.5 -79t-74 -146h614q11 0 19 -6.5t8 -16.5q0 -4 -2 -6l-37 -148q-4 -14 -15 -21t-20 -7h-1183q-27 0 -27 26z" />
<glyph unicode="f" d="M270 809l441 442l442 -442l-442 -440zM502 809l104 -104l211 210l105 -106l-211 -209l106 -104l313 313l-419 420l-105 -105l105 -104z" />
<glyph unicode="g" d="M270 809l441 442l442 -442l-442 -440zM502 809l104 -104l211 210l105 -106l-211 -209l106 -104l313 313l-419 420l-105 -105l105 -104z" />
<glyph unicode="h" d="M270 809l441 442l442 -442l-442 -440zM502 809l104 -104l211 210l105 -106l-211 -209l106 -104l313 313l-419 420l-105 -105l105 -104z" />
<glyph unicode="i" d="M270 809l441 442l442 -442l-442 -440zM502 809l104 -104l211 210l105 -106l-211 -209l106 -104l313 313l-419 420l-105 -105l105 -104z" />
<glyph unicode="j" d="M270 809l441 442l442 -442l-442 -440zM502 809l104 -104l211 210l105 -106l-211 -209l106 -104l313 313l-419 420l-105 -105l105 -104z" />
<glyph unicode="k" horiz-adv-x="684" d="M168 27v4l121 981q1 13 12 21.5t25 8.5h288q14 0 22.5 -7t8.5 -19v-4l-121 -981q-2 -14 -12 -22.5t-25 -8.5h-288q-14 0 -22.5 7.5t-8.5 19.5z" />
<glyph unicode="l" horiz-adv-x="915" d="M102 745v5q0 12 9.5 22.5t19.5 13.5l229 66l74 598q3 25 11.5 35.5t31.5 13.5l277 41h12q33 0 33 -31v-8l-66 -540l225 65q12 4 19 4q21 0 24 -16l29 -148q0 -1 1 -3t1 -3q0 -11 -7.5 -21.5t-20.5 -13.5l-299 -88l-39 -325q0 -1 -3 -21.5t-6.5 -46t-3.5 -39.5 q0 -31 17 -51q18 -21 51 -21q4 0 67 7h9q22 0 22 -25l10 -160v-4q0 -10 -6 -19.5t-11.5 -13.5t-8.5 -4q-67 -30 -215 -30q-144 0 -219 63q-80 68 -80 199q0 26 16 151l29 234l-160 -47q-4 -2 -16 -2q-24 0 -27 16z" />
<glyph unicode="m" horiz-adv-x="1273" d="M115 856v4l22 184q1 13 12 22t25 9h1190q14 0 22.5 -7t8.5 -19q0 -3 -2 -5l-23 -184q-2 -12 -12 -21.5t-25 -9.5h-139l-98 -798q-1 -13 -12 -22t-25 -9h-291q-14 0 -22.5 7.5t-8.5 19.5v4l99 798h-193l-98 -798q-1 -13 -12 -22t-25 -9h-291q-14 0 -22.5 7.5t-8.5 19.5v4 l99 798h-140q-13 0 -21.5 8t-8.5 19z" />
<glyph unicode="n" d="M270 809l441 442l442 -442l-442 -440zM502 809l104 -104l211 210l105 -106l-211 -209l106 -104l313 313l-419 420l-105 -105l105 -104z" />
<glyph unicode="o" horiz-adv-x="1583" d="M305 387q0 13 10 21l138 110q-17 66 -17 115q0 72 17 133q13 50 45 113l-111 110q-6 6 -6 15q0 12 16 28l164 148q18 12 29 12t16 -8l101 -103q103 39 223 39t213 -39l125 103q8 8 18 8q9 0 27 -12l127 -148q10 -10 10 -22q0 -13 -10 -21l-137 -110q16 -62 16 -115 q0 -76 -16 -133q-12 -47 -46 -113l111 -110q6 -6 6 -15q0 -12 -16 -28l-164 -148q-18 -12 -29 -12t-16 8l-100 102q-103 -39 -224 -39q-120 0 -213 39l-125 -102q-8 -8 -18 -8q-9 0 -27 12l-127 148q-10 10 -10 22zM680 635q0 -81 35 -113q38 -35 137 -35q83 0 127.5 23.5 t67.5 77.5q28 76 28 174q0 80 -35 112q-38 35 -137 35q-82 0 -126.5 -23t-67.5 -77q-29 -79 -29 -174z" />
<glyph unicode="p" horiz-adv-x="1251" d="M86 -391l225 1835q6 47 49 55l271 41h12q35 0 35 -31v-8l-39 -309l-39 -131q131 41 260 41q197 0 291 -90q96 -93 96 -322q0 -211 -57 -385q-104 -332 -455 -332q-145 0 -264 37l6 -133l-26 -211q-3 -48 -48 -53l-270 -43h-12q-35 0 -35 31v8zM520 219q60 -10 123 -10 q56 0 88.5 9t60.5 39.5t45 85.5t31 149q21 160 21 227q0 92 -30 119.5t-109 27.5q-31 0 -69 -5.5t-61 -10.5l-22 -6z" />
<glyph unicode="q" d="M270 809l441 442l442 -442l-442 -440zM502 809l104 -104l211 210l105 -106l-211 -209l106 -104l313 313l-419 420l-105 -105l105 -104z" />
<glyph unicode="r" d="M270 809l441 442l442 -442l-442 -440zM502 809l104 -104l211 210l105 -106l-211 -209l106 -104l313 313l-419 420l-105 -105l105 -104z" />
<glyph unicode="s" horiz-adv-x="1026" d="M100 59q0 13 2 21l45 143q8 29 27 29q2 0 5 -1t5 -1q4 -1 29 -7t52 -11.5t62 -12t73 -10.5t71 -4q91 0 129 43q29 29 29 74q0 46 -29 63q-26 18 -98 31q-6 1 -30 5.5t-33.5 7t-30.5 7t-34 9t-30 11t-31.5 14.5t-27.5 17q-90 66 -90 207q0 194 114 297q120 111 383 111 q160 0 328 -47q20 -9 20 -29q0 -2 -1 -6t-1 -6l-45 -146q-5 -22 -32 -22h-11q-112 28 -229 28q-92 0 -131 -32q-31 -24 -31 -74q0 -55 51 -74q26 -12 121 -28q78 -15 132 -38.5t87 -72.5q43 -59 43 -160q0 -161 -84 -266q-125 -154 -413 -154q-116 0 -225 20.5t-152 37.5 q-19 6 -19 26zM338 1430q0 10 6 16l115 125q10 10 22 10q9 0 13 -4l202 -174l244 174q8 4 16 4q12 0 19 -10l84 -125q4 -8 4 -10q0 -15 -12 -21l-342 -215h-74l-291 215q-6 6 -6 15z" />
<glyph unicode="t" horiz-adv-x="1226" d="M137 395q0 99 20 204.5t56 188.5q124 281 440 281q92 0 152.5 -23t109.5 -67l11 6q0 107 -37 194t-103 140l-208 -139q-15 -11 -23 -11q-7 0 -18 11l-80 98q-6 9 -6 16q0 11 16 21l149 94q-75 31 -280 31q-24 0 -35.5 11t-11.5 26v6l18 155q3 24 18.5 33.5t30.5 9.5 q31 2 93 2q274 0 450 -94l148 105q13 10 22 10t18 -12l82 -105q7 -11 7 -14q0 -11 -21 -25l-102 -71q107 -108 147 -253q39 -138 39 -308v-17v-10q0 -242 -47 -465q-16 -75 -39.5 -135t-68 -121t-105 -102t-154.5 -67t-213 -26q-253 0 -368 115q-107 104 -107 307zM496 379 q0 -93 30 -131q33 -39 113 -39q94 0 135.5 53.5t61.5 181.5q22 132 22 222q0 80 -20 114q-30 56 -121 56q-77 0 -118 -38t-64 -120q-16 -64 -27.5 -151.5t-11.5 -147.5z" />
<glyph unicode="u" d="M270 809l441 442l442 -442l-442 -440zM502 809l104 -104l211 210l105 -106l-211 -209l106 -104l313 313l-419 420l-105 -105l105 -104z" />
<glyph unicode="v" d="M270 809l441 442l442 -442l-442 -440zM502 809l104 -104l211 210l105 -106l-211 -209l106 -104l313 313l-419 420l-105 -105l105 -104z" />
<glyph unicode="w" d="M270 809l441 442l442 -442l-442 -440zM502 809l104 -104l211 210l105 -106l-211 -209l106 -104l313 313l-419 420l-105 -105l105 -104z" />
<glyph unicode="x" horiz-adv-x="1271" d="M168 332q0 19 20 33l363 303l-289 301q-12 12 -12 26q0 18 18 33l140 121q18 14 30 14q18 0 31 -16l268 -316l348 316q16 16 33 16q15 0 29 -14l110 -121q11 -15 11 -24q0 -17 -21 -35l-362 -301l289 -303q12 -12 12 -27q0 -17 -17 -31l-141 -123q-18 -14 -31 -14 q-15 0 -28 16l-271 318l-348 -318q-19 -16 -33 -16q-15 0 -26 14l-113 123q-10 10 -10 25z" />
<glyph unicode="y" horiz-adv-x="1167" d="M113 -381q0 6 2 10l20 138q4 47 45 47h4q116 -7 119 -7q80 0 123.5 27.5t65.5 87.5l28 78h-172q-29 0 -33 33l-147 987v8q0 21 13 34t34 13h268q24 0 34 -7t13 -32l68 -817h55l252 817q6 23 19 31t37 8h270q18 0 28.5 -10t10.5 -25q0 -8 -4 -20l-447 -1124 q-32 -81 -64 -134t-83 -100t-126.5 -69.5t-178.5 -22.5q-46 0 -82.5 1t-60.5 3.5t-37.5 4t-28 4.5t-17.5 3q-28 6 -28 33zM498 1348q0 14 12 20l362 231q11 7 17 7q11 0 18 -13l88 -139q4 -8 4 -12q0 -13 -12 -19l-371 -221q-12 -4 -16 -4q-13 0 -18 10l-80 129q-4 8 -4 11z " />
<glyph unicode="z" horiz-adv-x="1077" d="M94 27v4l17 137q4 23 22 47l520 619h-434q-29 0 -29 24v6l23 180q2 14 12 22.5t25 8.5h833q14 0 22.5 -7t8.5 -19v-5l-18 -139q0 -22 -21 -45l-520 -618h434q14 0 22.5 -7.5t8.5 -19.5v-4l-23 -180q-2 -14 -11.5 -22.5t-24.5 -8.5h-836q-14 0 -22.5 7.5t-8.5 19.5z M358 1432q0 5 9 14l114 125q9 12 21 12q8 0 14 -6l203 -172l244 172q6 6 14 6q11 0 20 -12l84 -125q2 -2 2 -10q0 -14 -10 -21l-344 -213h-72l-290 213q-9 9 -9 17z" />
<glyph unicode="{" d="M270 809l441 442l442 -442l-442 -440zM502 809l104 -104l211 210l105 -106l-211 -209l106 -104l313 313l-419 420l-105 -105l105 -104z" />
<glyph unicode="|" d="M270 809l441 442l442 -442l-442 -440zM502 809l104 -104l211 210l105 -106l-211 -209l106 -104l313 313l-419 420l-105 -105l105 -104z" />
<glyph unicode="}" d="M270 809l441 442l442 -442l-442 -440zM502 809l104 -104l211 210l105 -106l-211 -209l106 -104l313 313l-419 420l-105 -105l105 -104z" />
<glyph unicode="~" d="M270 809l441 442l442 -442l-442 -440zM502 809l104 -104l211 210l105 -106l-211 -209l106 -104l313 313l-419 420l-105 -105l105 -104z" />
<glyph horiz-adv-x="1495" d="M129 514v4l16 146q1 13 11 21.5t24 8.5h1192q11 0 19 -6t8 -16q0 -1 -1 -3t-1 -3l-39 -148q-5 -29 -33 -29h-571q12 -89 41 -138t92.5 -74t175.5 -25q155 0 342 45q8 2 22 2q24 0 27 -25l12 -174v-4q0 -31 -49 -49q-178 -65 -454 -65q-329 -1 -469 117.5t-146 389.5h-192 q-12 0 -19.5 7t-7.5 18zM168 829v5l16 143q1 13 11 22t24 9h189q71 280 242.5 402.5t502.5 121.5q284 -2 438 -68q39 -13 39 -37q0 -4 -4 -16l-53 -174q-9 -25 -35 -25l-20 5q-2 0 -27.5 5.5t-56 11.5t-70.5 12t-87.5 10t-90.5 4q-115 0 -187.5 -27t-113.5 -79t-74 -146h614 q11 0 19 -6.5t8 -16.5q0 -4 -2 -6l-37 -148q-4 -14 -15 -21t-20 -7h-1183q-27 0 -27 26z" />
<glyph d="M270 809l441 442l442 -442l-442 -440zM502 809l104 -104l211 210l105 -106l-211 -209l106 -104l313 313l-419 420l-105 -105l105 -104z" />
<glyph d="M270 809l441 442l442 -442l-442 -440zM502 809l104 -104l211 210l105 -106l-211 -209l106 -104l313 313l-419 420l-105 -105l105 -104z" />
<glyph d="M270 809l441 442l442 -442l-442 -440zM502 809l104 -104l211 210l105 -106l-211 -209l106 -104l313 313l-419 420l-105 -105l105 -104z" />
<glyph unicode="&#x85;" d="M270 809l441 442l442 -442l-442 -440zM502 809l104 -104l211 210l105 -106l-211 -209l106 -104l313 313l-419 420l-105 -105l105 -104z" />
<glyph d="M270 809l441 442l442 -442l-442 -440zM502 809l104 -104l211 210l105 -106l-211 -209l106 -104l313 313l-419 420l-105 -105l105 -104z" />
<glyph d="M270 809l441 442l442 -442l-442 -440zM502 809l104 -104l211 210l105 -106l-211 -209l106 -104l313 313l-419 420l-105 -105l105 -104z" />
<glyph d="M270 809l441 442l442 -442l-442 -440zM502 809l104 -104l211 210l105 -106l-211 -209l106 -104l313 313l-419 420l-105 -105l105 -104z" />
<glyph d="M270 809l441 442l442 -442l-442 -440zM502 809l104 -104l211 210l105 -106l-211 -209l106 -104l313 313l-419 420l-105 -105l105 -104z" />
<glyph d="M270 809l441 442l442 -442l-442 -440zM502 809l104 -104l211 210l105 -106l-211 -209l106 -104l313 313l-419 420l-105 -105l105 -104z" />
<glyph d="M270 809l441 442l442 -442l-442 -440zM502 809l104 -104l211 210l105 -106l-211 -209l106 -104l313 313l-419 420l-105 -105l105 -104z" />
<glyph d="M270 809l441 442l442 -442l-442 -440zM502 809l104 -104l211 210l105 -106l-211 -209l106 -104l313 313l-419 420l-105 -105l105 -104z" />
<glyph d="M270 809l441 442l442 -442l-442 -440zM502 809l104 -104l211 210l105 -106l-211 -209l106 -104l313 313l-419 420l-105 -105l105 -104z" />
<glyph d="M270 809l441 442l442 -442l-442 -440zM502 809l104 -104l211 210l105 -106l-211 -209l106 -104l313 313l-419 420l-105 -105l105 -104z" />
<glyph d="M270 809l441 442l442 -442l-442 -440zM502 809l104 -104l211 210l105 -106l-211 -209l106 -104l313 313l-419 420l-105 -105l105 -104z" />
<glyph d="M270 809l441 442l442 -442l-442 -440zM502 809l104 -104l211 210l105 -106l-211 -209l106 -104l313 313l-419 420l-105 -105l105 -104z" />
<glyph d="M270 809l441 442l442 -442l-442 -440zM502 809l104 -104l211 210l105 -106l-211 -209l106 -104l313 313l-419 420l-105 -105l105 -104z" />
<glyph horiz-adv-x="851" d="M219 512v12l45 365q5 37 34.5 63.5t66.5 26.5h362q34 0 57 -23t23 -55q0 -8 -2 -12l-45 -365q-3 -37 -32 -63.5t-66 -26.5h-365q-33 0 -55.5 22.5t-22.5 55.5z" />
<glyph d="M270 809l441 442l442 -442l-442 -440zM502 809l104 -104l211 210l105 -106l-211 -209l106 -104l313 313l-419 420l-105 -105l105 -104z" />
<glyph d="M270 809l441 442l442 -442l-442 -440zM502 809l104 -104l211 210l105 -106l-211 -209l106 -104l313 313l-419 420l-105 -105l105 -104z" />
<glyph d="M270 809l441 442l442 -442l-442 -440zM502 809l104 -104l211 210l105 -106l-211 -209l106 -104l313 313l-419 420l-105 -105l105 -104z" />
<glyph d="M270 809l441 442l442 -442l-442 -440zM502 809l104 -104l211 210l105 -106l-211 -209l106 -104l313 313l-419 420l-105 -105l105 -104z" />
<glyph d="M270 809l441 442l442 -442l-442 -440zM502 809l104 -104l211 210l105 -106l-211 -209l106 -104l313 313l-419 420l-105 -105l105 -104z" />
<glyph d="M270 809l441 442l442 -442l-442 -440zM502 809l104 -104l211 210l105 -106l-211 -209l106 -104l313 313l-419 420l-105 -105l105 -104z" />
<glyph d="M270 809l441 442l442 -442l-442 -440zM502 809l104 -104l211 210l105 -106l-211 -209l106 -104l313 313l-419 420l-105 -105l105 -104z" />
<glyph d="M270 809l441 442l442 -442l-442 -440zM502 809l104 -104l211 210l105 -106l-211 -209l106 -104l313 313l-419 420l-105 -105l105 -104z" />
<glyph d="M270 809l441 442l442 -442l-442 -440zM502 809l104 -104l211 210l105 -106l-211 -209l106 -104l313 313l-419 420l-105 -105l105 -104z" />
<glyph unicode="&#xa1;" d="M270 809l441 442l442 -442l-442 -440zM502 809l104 -104l211 210l105 -106l-211 -209l106 -104l313 313l-419 420l-105 -105l105 -104z" />
<glyph unicode="&#xa2;" d="M270 809l441 442l442 -442l-442 -440zM502 809l104 -104l211 210l105 -106l-211 -209l106 -104l313 313l-419 420l-105 -105l105 -104z" />
<glyph unicode="&#xa3;" d="M270 809l441 442l442 -442l-442 -440zM502 809l104 -104l211 210l105 -106l-211 -209l106 -104l313 313l-419 420l-105 -105l105 -104z" />
<glyph unicode="&#xa4;" horiz-adv-x="1583" d="M305 387q0 13 10 21l138 110q-17 66 -17 115q0 72 17 133q13 50 45 113l-111 110q-6 6 -6 15q0 12 16 28l164 148q18 12 29 12t16 -8l101 -103q103 39 223 39t213 -39l125 103q8 8 18 8q9 0 27 -12l127 -148q10 -10 10 -22q0 -13 -10 -21l-137 -110q16 -62 16 -115 q0 -76 -16 -133q-12 -47 -46 -113l111 -110q6 -6 6 -15q0 -12 -16 -28l-164 -148q-18 -12 -29 -12t-16 8l-100 102q-103 -39 -224 -39q-120 0 -213 39l-125 -102q-8 -8 -18 -8q-9 0 -27 12l-127 148q-10 10 -10 22zM680 635q0 -81 35 -113q38 -35 137 -35q83 0 127.5 23.5 t67.5 77.5q28 76 28 174q0 80 -35 112q-38 35 -137 35q-82 0 -126.5 -23t-67.5 -77q-29 -79 -29 -174z" />
<glyph unicode="&#xa5;" d="M270 809l441 442l442 -442l-442 -440zM502 809l104 -104l211 210l105 -106l-211 -209l106 -104l313 313l-419 420l-105 -105l105 -104z" />
<glyph unicode="&#xa6;" d="M270 809l441 442l442 -442l-442 -440zM502 809l104 -104l211 210l105 -106l-211 -209l106 -104l313 313l-419 420l-105 -105l105 -104z" />
<glyph unicode="&#xa7;" d="M270 809l441 442l442 -442l-442 -440zM502 809l104 -104l211 210l105 -106l-211 -209l106 -104l313 313l-419 420l-105 -105l105 -104z" />
<glyph unicode="&#xa8;" d="M270 809l441 442l442 -442l-442 -440zM502 809l104 -104l211 210l105 -106l-211 -209l106 -104l313 313l-419 420l-105 -105l105 -104z" />
<glyph unicode="&#xa9;" d="M270 809l441 442l442 -442l-442 -440zM502 809l104 -104l211 210l105 -106l-211 -209l106 -104l313 313l-419 420l-105 -105l105 -104z" />
<glyph unicode="&#xaa;" d="M270 809l441 442l442 -442l-442 -440zM502 809l104 -104l211 210l105 -106l-211 -209l106 -104l313 313l-419 420l-105 -105l105 -104z" />
<glyph unicode="&#xab;" d="M270 809l441 442l442 -442l-442 -440zM502 809l104 -104l211 210l105 -106l-211 -209l106 -104l313 313l-419 420l-105 -105l105 -104z" />
<glyph unicode="&#xac;" d="M270 809l441 442l442 -442l-442 -440zM502 809l104 -104l211 210l105 -106l-211 -209l106 -104l313 313l-419 420l-105 -105l105 -104z" />
<glyph unicode="&#xad;" horiz-adv-x="1273" d="M246 535v4l20 170q3 14 19 24t37 10h815q20 0 32.5 -9t12.5 -23v-2l-23 -170q-1 -16 -18.5 -25.5t-34.5 -9.5h-815q-15 0 -30 9t-15 22z" />
<glyph unicode="&#xae;" d="M270 809l441 442l442 -442l-442 -440zM502 809l104 -104l211 210l105 -106l-211 -209l106 -104l313 313l-419 420l-105 -105l105 -104z" />
<glyph unicode="&#xaf;" d="M270 809l441 442l442 -442l-442 -440zM502 809l104 -104l211 210l105 -106l-211 -209l106 -104l313 313l-419 420l-105 -105l105 -104z" />
<glyph unicode="&#xb0;" d="M270 809l441 442l442 -442l-442 -440zM502 809l104 -104l211 210l105 -106l-211 -209l106 -104l313 313l-419 420l-105 -105l105 -104z" />
<glyph unicode="&#xb1;" d="M270 809l441 442l442 -442l-442 -440zM502 809l104 -104l211 210l105 -106l-211 -209l106 -104l313 313l-419 420l-105 -105l105 -104z" />
<glyph unicode="&#xb2;" d="M270 809l441 442l442 -442l-442 -440zM502 809l104 -104l211 210l105 -106l-211 -209l106 -104l313 313l-419 420l-105 -105l105 -104z" />
<glyph unicode="&#xb3;" d="M270 809l441 442l442 -442l-442 -440zM502 809l104 -104l211 210l105 -106l-211 -209l106 -104l313 313l-419 420l-105 -105l105 -104z" />
<glyph unicode="&#xb4;" d="M270 809l441 442l442 -442l-442 -440zM502 809l104 -104l211 210l105 -106l-211 -209l106 -104l313 313l-419 420l-105 -105l105 -104z" />
<glyph unicode="&#xb5;" d="M270 809l441 442l442 -442l-442 -440zM502 809l104 -104l211 210l105 -106l-211 -209l106 -104l313 313l-419 420l-105 -105l105 -104z" />
<glyph unicode="&#xb6;" horiz-adv-x="1558" d="M199 915q0 202 75 349q36 73 89.5 122t122 72.5t134 32t150.5 8.5h354q50 0 50 -33v-8l-222 -1798q-6 -51 -49 -59l-190 -31h-13q-36 0 -36 33q0 4 2 8l114 934l-127 -2q-12 -2 -35 -2q-224 0 -325 98q-94 91 -94 276zM526 944q0 -90 56 -127q43 -28 176 -31h51l59 476 h-53q-110 -2 -166 -22t-86 -85q-37 -81 -37 -211zM1100 -348l221 1798q6 52 47 59l191 31h12q37 0 37 -33v-8l-222 -1798q-6 -52 -47 -59l-190 -31q-2 0 -6 -1t-6 -1q-37 0 -37 35v8z" />
<glyph unicode="&#xb7;" horiz-adv-x="516" d="M145 457v8l29 231q3 20 16.5 32.5t30.5 12.5h256q15 0 25 -11t10 -28v-6l-29 -231q-1 -19 -15 -32t-30 -13h-256q-16 0 -26.5 10t-10.5 27z" />
<glyph unicode="&#xb8;" d="M270 809l441 442l442 -442l-442 -440zM502 809l104 -104l211 210l105 -106l-211 -209l106 -104l313 313l-419 420l-105 -105l105 -104z" />
<glyph unicode="&#xb9;" d="M270 809l441 442l442 -442l-442 -440zM502 809l104 -104l211 210l105 -106l-211 -209l106 -104l313 313l-419 420l-105 -105l105 -104z" />
<glyph unicode="&#xba;" d="M270 809l441 442l442 -442l-442 -440zM502 809l104 -104l211 210l105 -106l-211 -209l106 -104l313 313l-419 420l-105 -105l105 -104z" />
<glyph unicode="&#xbb;" d="M270 809l441 442l442 -442l-442 -440zM502 809l104 -104l211 210l105 -106l-211 -209l106 -104l313 313l-419 420l-105 -105l105 -104z" />
<glyph unicode="&#xbc;" d="M270 809l441 442l442 -442l-442 -440zM502 809l104 -104l211 210l105 -106l-211 -209l106 -104l313 313l-419 420l-105 -105l105 -104z" />
<glyph unicode="&#xbd;" d="M270 809l441 442l442 -442l-442 -440zM502 809l104 -104l211 210l105 -106l-211 -209l106 -104l313 313l-419 420l-105 -105l105 -104z" />
<glyph unicode="&#xbe;" d="M270 809l441 442l442 -442l-442 -440zM502 809l104 -104l211 210l105 -106l-211 -209l106 -104l313 313l-419 420l-105 -105l105 -104z" />
<glyph unicode="&#xbf;" d="M270 809l441 442l442 -442l-442 -440zM502 809l104 -104l211 210l105 -106l-211 -209l106 -104l313 313l-419 420l-105 -105l105 -104z" />
<glyph unicode="&#xc0;" d="M270 809l441 442l442 -442l-442 -440zM502 809l104 -104l211 210l105 -106l-211 -209l106 -104l313 313l-419 420l-105 -105l105 -104z" />
<glyph unicode="&#xc1;" d="M270 809l441 442l442 -442l-442 -440zM502 809l104 -104l211 210l105 -106l-211 -209l106 -104l313 313l-419 420l-105 -105l105 -104z" />
<glyph unicode="&#xc2;" d="M270 809l441 442l442 -442l-442 -440zM502 809l104 -104l211 210l105 -106l-211 -209l106 -104l313 313l-419 420l-105 -105l105 -104z" />
<glyph unicode="&#xc3;" d="M270 809l441 442l442 -442l-442 -440zM502 809l104 -104l211 210l105 -106l-211 -209l106 -104l313 313l-419 420l-105 -105l105 -104z" />
<glyph unicode="&#xc4;" d="M270 809l441 442l442 -442l-442 -440zM502 809l104 -104l211 210l105 -106l-211 -209l106 -104l313 313l-419 420l-105 -105l105 -104z" />
<glyph unicode="&#xc5;" d="M270 809l441 442l442 -442l-442 -440zM502 809l104 -104l211 210l105 -106l-211 -209l106 -104l313 313l-419 420l-105 -105l105 -104z" />
<glyph unicode="&#xc6;" d="M270 809l441 442l442 -442l-442 -440zM502 809l104 -104l211 210l105 -106l-211 -209l106 -104l313 313l-419 420l-105 -105l105 -104z" />
<glyph unicode="&#xc7;" d="M270 809l441 442l442 -442l-442 -440zM502 809l104 -104l211 210l105 -106l-211 -209l106 -104l313 313l-419 420l-105 -105l105 -104z" />
<glyph unicode="&#xc8;" d="M270 809l441 442l442 -442l-442 -440zM502 809l104 -104l211 210l105 -106l-211 -209l106 -104l313 313l-419 420l-105 -105l105 -104z" />
<glyph unicode="&#xc9;" horiz-adv-x="2177" d="M-98 -387q0 2 1 6t1 6l20 137q3 24 13.5 31.5t37.5 9.5q13 0 26 1t34 1q40 0 65.5 5t51.5 20.5t41 48.5t22 86l104 860h-157q-31 0 -31 25q0 4 2 4l23 190q2 14 12 22.5t25 8.5h157l17 129q20 169 119.5 252.5t285.5 83.5q38 0 74.5 -2.5t62.5 -5.5t52.5 -7.5t40.5 -7.5 t30.5 -7t18.5 -5q18 -5 18 -26q0 -2 -1 -7t-1 -6l-45 -159q-6 -29 -25 -29q-8 0 -10 2q-6 1 -31 4t-51.5 5.5t-48.5 2.5q-69 0 -97.5 -22t-35.5 -82l-14 -113h358l8 62q10 86 31 150t55.5 108.5t76 73t102 44t124 21.5t150.5 6q28 0 55 -1t52.5 -3.5t46.5 -5t44 -6.5 t37.5 -7t35.5 -8t29.5 -7t27.5 -7t22 -6q16 -5 16 -25v-14l-32 -162q-3 -16 -8.5 -22t-18.5 -6h-10q-171 24 -271 24q-86 0 -125 -12.5t-57 -45.5t-26 -108l-7 -43h672q18 0 28.5 -10.5t10.5 -24.5v-4l-123 -1005q-1 -13 -12 -22t-25 -9h-290q-14 0 -22.5 7.5t-8.5 19.5 q0 2 2 4l96 792h-358l-109 -860q-12 -94 -43 -165t-73.5 -114t-101.5 -69t-119 -35.5t-134 -9.5q-65 0 -158 10q-12 1 -19.5 3.5t-13.5 9.5t-6 20q0 6 3 12l20 137q3 24 13.5 31.5t37.5 9.5q13 0 26 1t34 1q40 0 65.5 5t51.5 20.5t41 48.5t22 86l104 858l-358 2l-109 -862 q-12 -94 -43 -165t-73.5 -114t-101.5 -69t-119 -35.5t-134 -9.5q-64 0 -157 10q-12 1 -19.5 3.5t-13.5 9.5t-6 20z" />
<glyph unicode="&#xca;" d="M270 809l441 442l442 -442l-442 -440zM502 809l104 -104l211 210l105 -106l-211 -209l106 -104l313 313l-419 420l-105 -105l105 -104z" />
<glyph unicode="&#xcb;" d="M270 809l441 442l442 -442l-442 -440zM502 809l104 -104l211 210l105 -106l-211 -209l106 -104l313 313l-419 420l-105 -105l105 -104z" />
<glyph unicode="&#xcc;" d="M270 809l441 442l442 -442l-442 -440zM502 809l104 -104l211 210l105 -106l-211 -209l106 -104l313 313l-419 420l-105 -105l105 -104z" />
<glyph unicode="&#xcd;" d="M270 809l441 442l442 -442l-442 -440zM502 809l104 -104l211 210l105 -106l-211 -209l106 -104l313 313l-419 420l-105 -105l105 -104z" />
<glyph unicode="&#xce;" d="M270 809l441 442l442 -442l-442 -440zM502 809l104 -104l211 210l105 -106l-211 -209l106 -104l313 313l-419 420l-105 -105l105 -104z" />
<glyph unicode="&#xcf;" d="M270 809l441 442l442 -442l-442 -440zM502 809l104 -104l211 210l105 -106l-211 -209l106 -104l313 313l-419 420l-105 -105l105 -104z" />
<glyph unicode="&#xd0;" d="M270 809l441 442l442 -442l-442 -440zM502 809l104 -104l211 210l105 -106l-211 -209l106 -104l313 313l-419 420l-105 -105l105 -104z" />
<glyph unicode="&#xd1;" horiz-adv-x="2258" d="M-98 -387q0 2 1 6t1 6l20 137q3 24 13.5 31.5t37.5 9.5q13 0 26 1t34 1q40 0 65.5 5t51.5 20.5t41 48.5t22 86l104 860h-157q-31 0 -31 25q0 4 2 4l23 190q2 14 12 22.5t25 8.5h157l17 129q20 169 119.5 252.5t285.5 83.5q38 0 74.5 -2.5t62.5 -5.5t52.5 -7.5t40.5 -7.5 t30.5 -7t18.5 -5q18 -5 18 -26q0 -2 -1 -7t-1 -6l-45 -159q-6 -29 -25 -29q-6 0 -10 2q-6 1 -31 4t-51.5 5.5t-48.5 2.5q-69 0 -97.5 -22t-35.5 -82l-14 -113h358l16 129q20 169 120 252.5t286 83.5q38 0 74.5 -2.5t62.5 -5.5t52 -7.5t40 -7.5t30 -7t19 -5q19 -5 19 -26 q0 -2 -1 -7t-1 -6l-45 -159q-6 -29 -25 -29q-8 0 -10 2q-6 1 -31 4t-51.5 5.5t-48.5 2.5q-69 0 -97.5 -22t-35.5 -82l-15 -113h359l47 375q2 24 10.5 35t30.5 14l276 41h13q34 0 34 -31v-8l-135 -1089q0 -1 -2.5 -21.5t-5 -46t-2.5 -39.5q0 -30 14 -51q21 -21 52 -21 q6 0 69 7h6q21 0 25 -25l8 -160v-4q0 -10 -6 -19.5t-11.5 -13.5t-8.5 -4q-68 -30 -213 -30q-148 0 -220 63q-79 68 -79 199q0 29 6.5 86.5t7.5 64.5l53 426h-358l-109 -860q-12 -94 -43 -165t-73.5 -114t-101.5 -69t-119 -35.5t-134 -9.5q-65 0 -158 10q-12 1 -19.5 3.5 t-13.5 9.5t-6 20q0 6 3 12l20 137q3 24 13.5 31.5t37.5 9.5q13 0 26 1t34 1q40 0 65.5 5t51.5 20.5t41 48.5t22 86l104 858l-358 2l-109 -862q-12 -94 -43 -165t-73.5 -114t-101.5 -69t-119 -35.5t-134 -9.5q-64 0 -157 10q-12 1 -19.5 3.5t-13.5 9.5t-6 20z" />
<glyph unicode="&#xd2;" d="M270 809l441 442l442 -442l-442 -440zM502 809l104 -104l211 210l105 -106l-211 -209l106 -104l313 313l-419 420l-105 -105l105 -104z" />
<glyph unicode="&#xd3;" d="M270 809l441 442l442 -442l-442 -440zM502 809l104 -104l211 210l105 -106l-211 -209l106 -104l313 313l-419 420l-105 -105l105 -104z" />
<glyph unicode="&#xd4;" d="M270 809l441 442l442 -442l-442 -440zM502 809l104 -104l211 210l105 -106l-211 -209l106 -104l313 313l-419 420l-105 -105l105 -104z" />
<glyph unicode="&#xd5;" d="M270 809l441 442l442 -442l-442 -440zM502 809l104 -104l211 210l105 -106l-211 -209l106 -104l313 313l-419 420l-105 -105l105 -104z" />
<glyph unicode="&#xd6;" horiz-adv-x="1458" d="M-98 -387q0 2 1 6t1 6l20 137q3 24 13.5 31.5t37.5 9.5q13 0 26 1t34 1q40 0 65.5 5t51.5 20.5t41 48.5t22 86l104 858h-157q-14 0 -22.5 7.5t-8.5 19.5v4l25 190q2 14 12 22.5t25 8.5h157l8 62q13 103 42.5 175t71.5 116.5t108.5 69.5t139 33.5t177.5 8.5q28 0 55 -1 t52.5 -3.5t46.5 -5t44 -6.5t37.5 -7t35.5 -8t29.5 -7t27.5 -7t22 -6q17 -5 17 -25v-14l-33 -162q-3 -16 -8.5 -22t-18.5 -6h-10q-171 24 -270 24q-65 0 -100 -5.5t-59.5 -24.5t-34 -49t-15.5 -87l-6 -43h680q30 0 30 -26q0 -3 -2 -5l-131 -1081q-12 -95 -43 -166 t-73.5 -113.5t-101.5 -68.5t-118.5 -35.5t-134.5 -9.5q-71 0 -158 10q-12 1 -19.5 3.5t-13.5 9.5t-6 20q0 6 3 12l20 135q3 25 13.5 33t37.5 10q13 0 26 1t34 1q40 0 65.5 5t51.5 20.5t41 48.5t22 86l104 858h-358l-109 -860q-12 -94 -43 -165t-73.5 -114t-101.5 -69 t-119 -35.5t-134 -9.5q-64 0 -157 10q-12 1 -19.5 3.5t-13.5 9.5t-6 20z" />
<glyph unicode="&#xd7;" d="M270 809l441 442l442 -442l-442 -440zM502 809l104 -104l211 210l105 -106l-211 -209l106 -104l313 313l-419 420l-105 -105l105 -104z" />
<glyph unicode="&#xd8;" d="M270 809l441 442l442 -442l-442 -440zM502 809l104 -104l211 210l105 -106l-211 -209l106 -104l313 313l-419 420l-105 -105l105 -104z" />
<glyph unicode="&#xd9;" d="M270 809l441 442l442 -442l-442 -440zM502 809l104 -104l211 210l105 -106l-211 -209l106 -104l313 313l-419 420l-105 -105l105 -104z" />
<glyph unicode="&#xda;" d="M270 809l441 442l442 -442l-442 -440zM502 809l104 -104l211 210l105 -106l-211 -209l106 -104l313 313l-419 420l-105 -105l105 -104z" />
<glyph unicode="&#xdb;" d="M270 809l441 442l442 -442l-442 -440zM502 809l104 -104l211 210l105 -106l-211 -209l106 -104l313 313l-419 420l-105 -105l105 -104z" />
<glyph unicode="&#xdc;" horiz-adv-x="2174" d="M-98 -387q0 2 1 6t1 6l20 137q3 24 13.5 31.5t37.5 9.5q13 0 26 1t34 1q40 0 65.5 5t51.5 20.5t41 48.5t22 86l104 860h-157q-31 0 -31 25v4l25 190q2 14 12 22.5t25 8.5h157l17 129q20 169 119.5 252.5t285.5 83.5q38 0 74.5 -2.5t62.5 -5.5t52.5 -7.5t40.5 -7.5 t30.5 -7t18.5 -5q18 -5 18 -26q0 -2 -1 -7t-1 -6l-45 -159q-6 -29 -25 -29q-8 0 -10 2q-6 1 -31 4t-51.5 5.5t-48.5 2.5q-69 0 -97.5 -22t-35.5 -82l-14 -113h358l8 62q10 86 31 150t55.5 108.5t76 73t102 44t124 21.5t150.5 6q28 0 55 -1t52.5 -3.5t46.5 -5t44 -6.5 t37.5 -7t35.5 -8t29.5 -7t27.5 -7t22 -6q16 -5 16 -25v-14l-32 -162q-3 -16 -8.5 -22t-18.5 -6h-10q-171 24 -271 24q-86 0 -125 -12.5t-57 -45.5t-26 -108l-7 -43h680q29 0 29 -26v-5l-133 -1081q-11 -94 -42 -165t-73 -114t-101 -69t-119 -35.5t-134 -9.5q-70 0 -158 10 q-12 1 -19.5 3.5t-13.5 9.5t-6 20q0 8 2 12l21 135q3 25 13.5 33t37.5 10q13 0 25 1t34 1q40 0 65.5 5t51.5 20.5t41.5 49t22.5 85.5l104 858h-358l-109 -860q-13 -95 -44 -165.5t-73.5 -113.5t-101 -69t-118.5 -35.5t-134 -9.5q-71 0 -158 10q-12 1 -19.5 3.5t-13.5 9.5 t-6 20q0 6 3 12l20 137q3 24 13.5 31.5t37.5 9.5q13 0 26 1t34 1q40 0 65.5 5t51.5 20.5t41 48.5t22 86l104 860h-358l-109 -862q-12 -94 -43 -165t-73.5 -114t-101.5 -69t-119 -35.5t-134 -9.5q-64 0 -157 10q-12 1 -19.5 3.5t-13.5 9.5t-6 20z" />
<glyph unicode="&#xdd;" d="M270 809l441 442l442 -442l-442 -440zM502 809l104 -104l211 210l105 -106l-211 -209l106 -104l313 313l-419 420l-105 -105l105 -104z" />
<glyph unicode="&#xde;" d="M270 809l441 442l442 -442l-442 -440zM502 809l104 -104l211 210l105 -106l-211 -209l106 -104l313 313l-419 420l-105 -105l105 -104z" />
<glyph unicode="&#xdf;" horiz-adv-x="1316" d="M-178 -375l20 137q4 24 15.5 31.5t38.5 9.5q12 0 24 1t33 1q40 0 66 5t52 20.5t41 49t21 85.5l137 1147q14 120 59.5 204t121 132.5t171 70t220.5 21.5q244 0 352 -100q82 -76 82 -207q0 -127 -55 -221q-31 -54 -80.5 -93.5t-124.5 -78.5q-29 -16 -29 -39q0 -21 23 -31 q8 -5 44 -23.5t55 -29t47.5 -31.5t49.5 -43q78 -85 78 -223q0 -178 -94 -295q-123 -152 -402 -152q-128 0 -221 39q-7 2 -14.5 10.5t-7.5 20.5v10l51 154q3 10 14.5 17t22.5 7h6q14 -3 34 -9t39 -9.5t44 -3.5q92 0 145 59q47 53 47 133q0 96 -96 177l-32.5 26t-34 27.5 t-28.5 26.5t-25 30.5t-14.5 32t-6.5 37.5q0 45 20 76.5t65 68.5t58 51q82 85 82 207q0 75 -33 111q-33 33 -90 33q-89 0 -133 -41t-57 -152l-140 -1149q-11 -94 -42 -165t-73.5 -113.5t-101.5 -69t-118.5 -36t-133.5 -9.5q-62 0 -155 10q-12 1 -19 3.5t-12.5 9.5t-5.5 20v12 z" />
<glyph unicode="&#xe0;" horiz-adv-x="2721" d="M-98 -387q0 2 1 6t1 6l20 137q3 24 13.5 31.5t37.5 9.5q13 0 26 1t34 1q40 0 65.5 5t51.5 20.5t41 48.5t22 86l104 860h-157q-31 0 -31 25q0 4 2 4l23 190q2 14 12 22.5t25 8.5h157l17 129q20 169 119.5 252.5t285.5 83.5q38 0 74.5 -2.5t62.5 -5.5t52.5 -7.5t40.5 -7.5 t30.5 -7t18.5 -5q18 -5 18 -26q0 -2 -1 -7t-1 -6l-45 -159q-6 -29 -25 -29q-6 0 -10 2q-6 1 -31 4t-51.5 5.5t-48.5 2.5q-69 0 -97.5 -22t-35.5 -82l-14 -113h358l16 129q20 169 120 252.5t286 83.5q38 0 74.5 -2.5t62.5 -5.5t52 -7.5t40 -7.5t30 -7t19 -5q19 -5 19 -26 q0 -2 -1 -7t-1 -6l-45 -159q-6 -29 -25 -29q-8 0 -10 2q-6 1 -31 4t-51.5 5.5t-48.5 2.5q-69 0 -97.5 -22t-35.5 -82l-15 -113h359l45 369q6 47 47 55l270 41h13q36 0 36 -33q0 -4 -2 -6l-102 -848h63l279 406q11 16 31 16h8l326 -6q16 0 16 -16q0 -9 -4 -13l-393 -499 l264 -512q0 -1 1 -3t1 -3q0 -8 -7 -15.5t-14 -7.5h-350q-19 0 -24 14l-162 406h-64l-49 -389q-1 -13 -12.5 -22t-26.5 -9h-288q-31 13 -31 29q0 2 2 2l96 792h-358l-109 -860q-12 -94 -43 -165t-73.5 -114t-101.5 -69t-119 -35.5t-134 -9.5q-65 0 -158 10q-12 1 -19.5 3.5 t-13.5 9.5t-6 20q0 6 3 12l20 137q3 24 13.5 31.5t37.5 9.5q13 0 26 1t34 1q40 0 65.5 5t51.5 20.5t41 48.5t22 86l104 858h-358l-109 -860q-12 -94 -43 -165t-73.5 -114t-101.5 -69t-119 -35.5t-134 -9.5q-64 0 -157 10q-12 1 -19.5 3.5t-13.5 9.5t-6 20z" />
<glyph unicode="&#xe1;" horiz-adv-x="2004" d="M-98 -387q0 2 1 6t1 6l20 137q3 24 13.5 31.5t37.5 9.5q13 0 26 1t34 1q40 0 65.5 5t51.5 20.5t41 48.5t22 86l104 860h-157q-31 0 -31 25q0 4 2 4l23 190q2 14 12 22.5t25 8.5h157l17 129q20 169 119.5 252.5t285.5 83.5q38 0 74.5 -2.5t62.5 -5.5t52.5 -7.5t40.5 -7.5 t30.5 -7t18.5 -5q18 -5 18 -26q0 -2 -1 -7t-1 -6l-45 -159q-6 -29 -25 -29q-6 0 -10 2q-6 1 -31 4t-51.5 5.5t-48.5 2.5q-69 0 -97.5 -22t-35.5 -82l-14 -113h358l45 369q6 47 49 55l269 41h12q37 0 37 -33v-6l-105 -848h64l278 406q11 16 31 16h8l326 -6q16 0 16 -16 q0 -9 -4 -13l-393 -499l264 -512q2 -2 2 -6q0 -8 -6.5 -15.5t-13.5 -7.5h-351q-19 0 -24 14l-162 406h-63l-50 -389q-1 -13 -12.5 -22t-26.5 -9h-288q-29 13 -29 29v2l96 792h-358l-109 -860q-12 -94 -43 -165t-73.5 -114t-101.5 -69t-119 -35.5t-134 -9.5q-64 0 -157 10 q-12 1 -19.5 3.5t-13.5 9.5t-6 20z" />
<glyph unicode="&#xe2;" horiz-adv-x="1677" d="M-98 -387q0 2 1 6t1 6l20 137q3 24 13.5 31.5t37.5 9.5q13 0 26 1t34 1q40 0 65.5 5t51.5 20.5t41 48.5t22 86l104 858l-157 2q-31 0 -31 25q0 4 2 4l23 190q2 14 12 22.5t25 8.5h157l17 129q20 169 119.5 252.5t285.5 83.5q38 0 74.5 -2.5t62.5 -5.5t52.5 -7.5 t40.5 -7.5t30.5 -7t18.5 -5q18 -5 18 -26q0 -2 -1 -7t-1 -6l-45 -159q-6 -29 -25 -29q-6 0 -10 2q-6 1 -31 4t-51.5 5.5t-48.5 2.5q-69 0 -97.5 -22t-35.5 -82l-14 -113h358l33 266q6 48 49 56l270 41h13q34 0 34 -31q0 -4 -2 -6l-39 -326h252q14 0 22.5 -7t8.5 -19v-5 l-25 -190q-2 -14 -11.5 -22.5t-24.5 -8.5h-252l-58 -469q-2 -12 -2 -35q0 -43 24 -64.5t85 -21.5q41 0 135 13q1 0 4 1t4 1q19 0 23 -27l10 -147v-8q0 -36 -35 -46q-1 0 -23 -5.5t-42.5 -10t-52 -9.5t-70 -8t-78.5 -3q-176 0 -262 63.5t-86 208.5q0 36 6 76l59 491h-358 l-109 -860q-12 -94 -43 -165t-73.5 -114t-101.5 -69t-119 -35.5t-134 -9.5q-64 0 -157 10q-12 1 -19.5 3.5t-13.5 9.5t-6 20z" />
<glyph unicode="&#xe3;" horiz-adv-x="2394" d="M-98 -387q0 2 1 6t1 6l20 137q3 24 13.5 31.5t37.5 9.5q13 0 26 1t34 1q40 0 65.5 5t51.5 20.5t41 48.5t22 86l104 858l-157 2q-31 0 -31 25q0 4 2 4l23 190q2 14 12 22.5t25 8.5h157l17 129q20 169 119.5 252.5t285.5 83.5q38 0 74.5 -2.5t62.5 -5.5t52.5 -7.5 t40.5 -7.5t30.5 -7t18.5 -5q18 -5 18 -26q0 -2 -1 -7t-1 -6l-45 -159q-6 -29 -25 -29q-6 0 -10 2q-6 1 -31 4t-51.5 5.5t-48.5 2.5q-69 0 -97.5 -22t-35.5 -82l-14 -113h358l33 266q6 48 49 56l270 41h13q34 0 34 -31q0 -4 -2 -6l-39 -326h361l33 266q6 48 47 56l272 41h12 q33 0 33 -31v-6l-41 -326h254q29 0 29 -26v-5l-23 -190q-1 -13 -12 -22t-25 -9h-254l-57 -469q-2 -12 -2 -35q0 -43 24 -64.5t85 -21.5q41 0 135 13q2 0 5 1t5 1q21 0 21 -27l10 -147v-8q0 -36 -35 -46q-2 0 -23 -5.5t-41.5 -10t-51.5 -9.5t-69.5 -8t-78.5 -3 q-177 0 -262.5 63.5t-85.5 210.5q0 20 4 74l61 491h-360l-58 -469q-2 -12 -2 -35q0 -43 24 -64.5t85 -21.5q41 0 135 13q2 0 4.5 1t3.5 1q19 0 23 -27l10 -147v-8q0 -36 -35 -46q-1 0 -23 -5.5t-42.5 -10t-52 -9.5t-70 -8t-78.5 -3q-176 0 -262 63.5t-86 208.5q0 36 6 76 l59 491h-358l-109 -860q-12 -94 -43 -165t-73.5 -114t-101.5 -69t-119 -35.5t-134 -9.5q-64 0 -157 10q-12 1 -19.5 3.5t-13.5 9.5t-6 20z" />
<glyph unicode="&#xe4;" horiz-adv-x="2394" d="M-98 -387q0 2 1 6t1 6l20 137q3 24 13.5 31.5t37.5 9.5q13 0 26 1t34 1q40 0 65.5 5t51.5 20.5t41 48.5t22 86l104 860h-157q-31 0 -31 25v4l25 190q2 14 12 22.5t25 8.5h157l17 129q20 169 119.5 252.5t285.5 83.5q38 0 74.5 -2.5t62.5 -5.5t52.5 -7.5t40.5 -7.5 t30.5 -7t18.5 -5q18 -5 18 -26q0 -2 -1 -7t-1 -6l-45 -159q-6 -29 -25 -29q-8 0 -10 2q-6 1 -31 4t-51.5 5.5t-48.5 2.5q-69 0 -97.5 -22t-35.5 -82l-14 -113h358l16 129q20 168 119.5 252t284.5 84q38 0 75 -2.5t63.5 -5.5t52.5 -7.5t40 -7.5t30 -7t19 -5q19 -5 19 -26 q0 -2 -1 -7t-1 -6l-45 -159q-6 -29 -27 -29q-6 0 -10 2q-3 0 -29 3.5t-52 6t-48 2.5q-69 0 -97.5 -22t-35.5 -82l-15 -113h359l33 266q6 48 49 56l270 41h12q35 0 35 -31q0 -1 -1 -3t-1 -3l-39 -326h252q14 0 22.5 -7t8.5 -19v-5l-25 -190q-2 -14 -12 -22.5t-25 -8.5h-252 l-57 -469q-4 -24 -4 -35q0 -43 24.5 -64.5t86.5 -21.5q41 0 135 13q1 0 4 1t4 1q19 0 23 -27l10 -147v-8q0 -36 -35 -46q-1 0 -23 -5.5t-42.5 -10t-52 -9.5t-70 -8t-78.5 -3q-176 0 -262 63.5t-86 208.5q0 36 6 76l59 493h-358l-109 -862q-13 -95 -44 -165.5t-73.5 -113.5 t-101 -69t-118.5 -35.5t-134 -9.5q-71 0 -158 10q-12 1 -19.5 3.5t-13.5 9.5t-6 20q0 6 3 12l20 137q3 24 13.5 31.5t37.5 9.5q13 0 26 1t34 1q40 0 65.5 5t51.5 20.5t41 48.5t22 86l104 860h-358l-109 -862q-12 -94 -43 -165t-73.5 -114t-101.5 -69t-119 -35.5t-134 -9.5 q-64 0 -157 10q-12 1 -19.5 3.5t-13.5 9.5t-6 20z" />
<glyph unicode="&#xe5;" horiz-adv-x="1574" d="M170 256q0 36 6 76l123 1009q6 48 49 56l270 41h13q35 0 35 -31q0 -1 -1 -3t-1 -3l-39 -326h340l32 266q6 48 47 56l273 41h12q33 0 33 -31v-6l-39 -326h252q14 0 22.5 -7t8.5 -19q0 -3 -2 -5l-23 -190q-2 -14 -12 -22.5t-25 -8.5h-252l-59 -469q0 -6 -1 -17.5t-1 -17.5 q0 -43 23.5 -64.5t84.5 -21.5q37 0 138 13q1 0 4 1t4 1q20 0 20 -27l13 -147v-8q0 -36 -37 -46q-1 0 -18 -4.5t-30 -7.5t-39.5 -8t-50.5 -8t-58 -5.5t-68 -2.5q-176 0 -262.5 63.5t-86.5 208.5q0 22 4 76l62 491h-340l-57 -469q-5 -30 -5 -35q0 -43 24.5 -64.5t86.5 -21.5 q41 0 135 13q1 0 4 1t4 1q19 0 23 -27l10 -147v-8q0 -36 -35 -46q-1 0 -23 -5.5t-42.5 -10t-52 -9.5t-70 -8t-78.5 -3q-176 0 -262 63.5t-86 208.5z" />
<glyph unicode="&#xe6;" d="M270 809l441 442l442 -442l-442 -440zM502 809l104 -104l211 210l105 -106l-211 -209l106 -104l313 313l-419 420l-105 -105l105 -104z" />
<glyph unicode="&#xe7;" d="M270 809l441 442l442 -442l-442 -440zM502 809l104 -104l211 210l105 -106l-211 -209l106 -104l313 313l-419 420l-105 -105l105 -104z" />
<glyph unicode="&#xe8;" d="M270 809l441 442l442 -442l-442 -440zM502 809l104 -104l211 210l105 -106l-211 -209l106 -104l313 313l-419 420l-105 -105l105 -104z" />
<glyph unicode="&#xe9;" d="M270 809l441 442l442 -442l-442 -440zM502 809l104 -104l211 210l105 -106l-211 -209l106 -104l313 313l-419 420l-105 -105l105 -104z" />
<glyph unicode="&#xea;" d="M270 809l441 442l442 -442l-442 -440zM502 809l104 -104l211 210l105 -106l-211 -209l106 -104l313 313l-419 420l-105 -105l105 -104z" />
<glyph unicode="&#xeb;" d="M270 809l441 442l442 -442l-442 -440zM502 809l104 -104l211 210l105 -106l-211 -209l106 -104l313 313l-419 420l-105 -105l105 -104z" />
<glyph unicode="&#xec;" d="M270 809l441 442l442 -442l-442 -440zM502 809l104 -104l211 210l105 -106l-211 -209l106 -104l313 313l-419 420l-105 -105l105 -104z" />
<glyph unicode="&#xed;" d="M270 809l441 442l442 -442l-442 -440zM502 809l104 -104l211 210l105 -106l-211 -209l106 -104l313 313l-419 420l-105 -105l105 -104z" />
<glyph unicode="&#xee;" d="M270 809l441 442l442 -442l-442 -440zM502 809l104 -104l211 210l105 -106l-211 -209l106 -104l313 313l-419 420l-105 -105l105 -104z" />
<glyph unicode="&#xef;" d="M270 809l441 442l442 -442l-442 -440zM502 809l104 -104l211 210l105 -106l-211 -209l106 -104l313 313l-419 420l-105 -105l105 -104z" />
<glyph unicode="&#xf0;" d="M270 809l441 442l442 -442l-442 -440zM502 809l104 -104l211 210l105 -106l-211 -209l106 -104l313 313l-419 420l-105 -105l105 -104z" />
<glyph unicode="&#xf1;" d="M270 809l441 442l442 -442l-442 -440zM502 809l104 -104l211 210l105 -106l-211 -209l106 -104l313 313l-419 420l-105 -105l105 -104z" />
<glyph unicode="&#xf2;" d="M270 809l441 442l442 -442l-442 -440zM502 809l104 -104l211 210l105 -106l-211 -209l106 -104l313 313l-419 420l-105 -105l105 -104z" />
<glyph unicode="&#xf3;" d="M270 809l441 442l442 -442l-442 -440zM502 809l104 -104l211 210l105 -106l-211 -209l106 -104l313 313l-419 420l-105 -105l105 -104z" />
<glyph unicode="&#xf4;" d="M270 809l441 442l442 -442l-442 -440zM502 809l104 -104l211 210l105 -106l-211 -209l106 -104l313 313l-419 420l-105 -105l105 -104z" />
<glyph unicode="&#xf5;" d="M270 809l441 442l442 -442l-442 -440zM502 809l104 -104l211 210l105 -106l-211 -209l106 -104l313 313l-419 420l-105 -105l105 -104z" />
<glyph unicode="&#xf6;" d="M270 809l441 442l442 -442l-442 -440zM502 809l104 -104l211 210l105 -106l-211 -209l106 -104l313 313l-419 420l-105 -105l105 -104z" />
<glyph unicode="&#xf7;" d="M270 809l441 442l442 -442l-442 -440zM502 809l104 -104l211 210l105 -106l-211 -209l106 -104l313 313l-419 420l-105 -105l105 -104z" />
<glyph unicode="&#xf8;" d="M270 809l441 442l442 -442l-442 -440zM502 809l104 -104l211 210l105 -106l-211 -209l106 -104l313 313l-419 420l-105 -105l105 -104z" />
<glyph unicode="&#xf9;" d="M270 809l441 442l442 -442l-442 -440zM502 809l104 -104l211 210l105 -106l-211 -209l106 -104l313 313l-419 420l-105 -105l105 -104z" />
<glyph unicode="&#xfa;" d="M270 809l441 442l442 -442l-442 -440zM502 809l104 -104l211 210l105 -106l-211 -209l106 -104l313 313l-419 420l-105 -105l105 -104z" />
<glyph unicode="&#xfb;" d="M270 809l441 442l442 -442l-442 -440zM502 809l104 -104l211 210l105 -106l-211 -209l106 -104l313 313l-419 420l-105 -105l105 -104z" />
<glyph unicode="&#xfc;" d="M270 809l441 442l442 -442l-442 -440zM502 809l104 -104l211 210l105 -106l-211 -209l106 -104l313 313l-419 420l-105 -105l105 -104z" />
<glyph unicode="&#xfd;" d="M270 809l441 442l442 -442l-442 -440zM502 809l104 -104l211 210l105 -106l-211 -209l106 -104l313 313l-419 420l-105 -105l105 -104z" />
<glyph unicode="&#xfe;" d="M270 809l441 442l442 -442l-442 -440zM502 809l104 -104l211 210l105 -106l-211 -209l106 -104l313 313l-419 420l-105 -105l105 -104z" />
<glyph unicode="&#xff;" d="M270 809l441 442l442 -442l-442 -440zM502 809l104 -104l211 210l105 -106l-211 -209l106 -104l313 313l-419 420l-105 -105l105 -104z" />
<glyph unicode="&#x2000;" horiz-adv-x="1016" />
<glyph unicode="&#x2001;" horiz-adv-x="2032" />
<glyph unicode="&#x2002;" horiz-adv-x="1016" />
<glyph unicode="&#x2003;" horiz-adv-x="2032" />
<glyph unicode="&#x2004;" horiz-adv-x="677" />
<glyph unicode="&#x2005;" horiz-adv-x="508" />
<glyph unicode="&#x2006;" horiz-adv-x="338" />
<glyph unicode="&#x2007;" horiz-adv-x="338" />
<glyph unicode="&#x2008;" horiz-adv-x="254" />
<glyph unicode="&#x2009;" horiz-adv-x="406" />
<glyph unicode="&#x200a;" horiz-adv-x="112" />
<glyph unicode="&#x2010;" horiz-adv-x="1273" d="M246 535v4l20 170q3 14 19 24t37 10h815q20 0 32.5 -9t12.5 -23v-2l-23 -170q-1 -16 -18.5 -25.5t-34.5 -9.5h-815q-15 0 -30 9t-15 22z" />
<glyph unicode="&#x2011;" horiz-adv-x="1273" d="M246 535v4l20 170q3 14 19 24t37 10h815q20 0 32.5 -9t12.5 -23v-2l-23 -170q-1 -16 -18.5 -25.5t-34.5 -9.5h-815q-15 0 -30 9t-15 22z" />
<glyph unicode="&#x2012;" horiz-adv-x="1273" d="M246 535v4l20 170q3 14 19 24t37 10h815q20 0 32.5 -9t12.5 -23v-2l-23 -170q-1 -16 -18.5 -25.5t-34.5 -9.5h-815q-15 0 -30 9t-15 22z" />
<glyph unicode="&#x2013;" horiz-adv-x="1361" d="M246 535v4l22 170q3 14 20.5 24t40.5 10h892q22 0 35.5 -9t13.5 -23v-2l-25 -170q-1 -16 -20.5 -25.5t-37.5 -9.5h-892q-16 0 -32.5 9t-16.5 22z" />
<glyph unicode="&#x2014;" horiz-adv-x="2385" d="M246 535v4l44 170q6 14 41 24t81 10h1784q43 0 70.5 -9t27.5 -23v-2l-50 -170q-3 -16 -41 -25.5t-75 -9.5h-1784q-32 0 -65 9t-33 22z" />
<glyph unicode="&#x202f;" horiz-adv-x="406" />
<glyph unicode="&#x205f;" horiz-adv-x="508" />
<glyph unicode="&#x25fc;" horiz-adv-x="1167" d="M0 0v1167h1167v-1167h-1167z" />
<glyph unicode="&#xfb01;" d="M270 809l441 442l442 -442l-442 -440zM502 809l104 -104l211 210l105 -106l-211 -209l106 -104l313 313l-419 420l-105 -105l105 -104z" />
<glyph unicode="&#xfb02;" d="M270 809l441 442l442 -442l-442 -440zM502 809l104 -104l211 210l105 -106l-211 -209l106 -104l313 313l-419 420l-105 -105l105 -104z" />
</font>
</defs>
</svg>
