<?xml version="1.0" standalone="no"?>
<!DOCTYPE svg PUBLIC "-//W3C//DTD SVG 1.1//EN" "http://www.w3.org/Graphics/SVG/1.1/DTD/svg11.dtd" >
<svg xmlns="http://www.w3.org/2000/svg">
<metadata></metadata>
<defs>
<font id="max-extrabolditalicregular" horiz-adv-x="1273" >
<font-face units-per-em="2048" ascent="1638" descent="-410" />
<missing-glyph horiz-adv-x="632" />
<glyph horiz-adv-x="0" />
<glyph horiz-adv-x="682" />
<glyph unicode=" "  horiz-adv-x="632" />
<glyph unicode="&#x09;" horiz-adv-x="632" />
<glyph unicode="&#xa0;" horiz-adv-x="632" />
<glyph unicode="!" horiz-adv-x="737" d="M199 39v6l30 242q1 20 14 32.5t31 12.5h287q16 0 26.5 -10t10.5 -27q0 -4 -2 -8l-29 -242q-3 -20 -16.5 -32.5t-30.5 -12.5h-287q-15 0 -24.5 11t-9.5 28zM285 487v2l73 957q6 48 50 53l299 41h10q35 0 35 -29v-8l-166 -1014q-7 -28 -37 -28h-236q-28 0 -28 26z" />
<glyph unicode="&#x22;" horiz-adv-x="911" d="M215 1014v6l55 453q1 18 13.5 29t27.5 11h236q14 0 23.5 -9.5t9.5 -22.5v-8l-93 -453q-5 -18 -16.5 -29.5t-26.5 -11.5h-198q-12 0 -21.5 10t-9.5 25zM637 1014v6l57 453q1 18 13.5 29t27.5 11h236q12 0 22.5 -9.5t10.5 -22.5v-8l-95 -453q-3 -17 -15 -29t-26 -12h-198 q-14 0 -23.5 10t-9.5 25z" />
<glyph unicode="#" horiz-adv-x="1546" d="M213 469q0 6 4 18l41 131q12 33 51 33h189l82 271h-189q-39 0 -39 26q0 13 2 21l43 131q8 33 49 33h199l105 342q5 16 19.5 27t33.5 11h125q26 0 37.5 -4t11.5 -20q0 -7 -4 -23l-103 -333h209l105 342q5 16 19.5 27t33.5 11h125q26 0 37.5 -4t11.5 -20q0 -7 -4 -23 l-102 -333h180q41 0 41 -29q0 -13 -4 -19l-41 -131q-12 -32 -51 -32h-189l-82 -271h189q41 0 41 -26q0 -1 -5 -21l-41 -131q-12 -33 -51 -33h-198l-123 -403q-11 -37 -47 -37h-140q-41 0 -41 27q0 11 7 28l116 385h-207l-122 -403q-11 -37 -48 -37h-139q-41 0 -41 27 q0 13 6 28l117 385h-178q-41 0 -41 29zM725 651h207l82 271h-207z" />
<glyph unicode="$" horiz-adv-x="1439" d="M135 96q0 7 4 19l62 178q10 33 39 33q10 0 14 -2q288 -76 473 -76q139 0 213 57q66 51 66 137q0 91 -82 125q-50 23 -211 49q-235 34 -346 125q-113 92 -113 256v7q0 82 25.5 171.5t70.5 153.5q128 181 445 207l24 203q2 15 15 30t30 15h174q14 0 24.5 -11t10.5 -28 q0 -4 -2 -6l-24 -203q184 -13 385 -74q26 -11 26 -35q0 -6 -4 -22l-55 -170q-8 -29 -39 -29q-19 0 -29 2q-217 62 -401 62q-151 0 -221 -47q-70 -46 -70 -138q0 -83 88 -120q19 -8 46.5 -15t45.5 -10.5t59 -10t56 -9.5q70 -11 111.5 -19.5t106 -30.5t108.5 -53 q137 -95 137 -299q0 -102 -36.5 -199t-105.5 -169q-140 -146 -405 -170l-25 -205q-3 -20 -16.5 -33.5t-28.5 -13.5h-174q-16 0 -24.5 12.5t-8.5 28.5v4l25 204q-52 2 -101.5 7t-90 12t-73 13.5t-62 15t-46 13.5t-36.5 12t-21 7q-33 9 -33 39z" />
<glyph unicode="%" horiz-adv-x="1847" d="M164 1028q0 106 24 205q28 132 101 205q102 102 299 102q192 0 270 -98q53 -69 53 -195q0 -121 -26 -225q-30 -118 -101 -186q-98 -101 -295 -101q-172 0 -253 78q-72 72 -72 215zM317 104q0 5 5 15l1212 1390q6 9 18 9q6 0 11 -5l143 -94q6 -6 6 -14q0 -4 -4 -12 l-1212 -1393q-6 -6 -17 -6q-8 0 -12 2l-143 96q-7 4 -7 12zM420 1040q0 -59 20 -85.5t72 -26.5q58 0 85.5 32.5t41.5 106.5q18 99 18 170v2q0 57 -20.5 82t-73.5 25q-50 0 -76.5 -23.5t-40.5 -77.5q-26 -89 -26 -205zM1120 268q0 85 25 203q28 134 102 205q99 102 297 102 q193 0 271 -98q55 -65 55 -195q0 -109 -29 -225q-30 -118 -98 -186q-101 -101 -297 -101q-173 0 -254 78q-72 72 -72 217zM1376 279q0 -59 20.5 -85t73.5 -26q58 0 85.5 32t39.5 105q19 105 19 170v2q0 57 -20.5 82t-71.5 25t-78 -23.5t-41 -75.5q-27 -106 -27 -206z" />
<glyph unicode="&#x26;" horiz-adv-x="1714" d="M166 348q0 175 102 283q107 109 303 123l7 59q-137 21 -213 94q-74 71 -74 195q0 94 42.5 177t119.5 142q162 119 454 119q123 0 223 -24q25 -3 25 -27q0 -15 -2 -23l-47 -178q-9 -33 -41 -33q-6 0 -10 2q-58 9 -117 9q-121 0 -188 -41q-80 -50 -80 -146q0 -111 131 -145 q46 -13 143 -24t119 -15q8 -1 12 -6t4 -10v-5l35 289q6 51 49 56l273 45q3 0 7.5 1t6.5 1q33 0 33 -33v-6l-41 -324l246 -26q13 -1 21.5 -8.5t8.5 -18.5q0 -2 -2 -4l-18 -156q-3 -25 -37 -28l-252 -25l-27 -227q-10 -73 -10 -97q0 -49 27 -71q31 -17 80 -17q41 0 135 13h8 q23 0 23 -25l10 -150v-6q0 -37 -35 -47q-3 -1 -23.5 -6t-41 -9.5t-51.5 -10t-69.5 -8.5t-78.5 -3q-206 0 -287 84q-61 67 -61 189q0 49 12 147l35 281q-14 -14 -25 -15q-25 -3 -69.5 -8t-71.5 -8.5t-61.5 -8.5t-61.5 -11q-93 -20 -141 -60q-64 -53 -64 -147q0 -84 60 -125 q59 -43 190 -43q35 0 82 6h10q35 0 35 -41v-172q0 -21 -12 -34t-27 -17q-99 -17 -164 -17q-257 0 -401 82q-168 92 -168 293z" />
<glyph unicode="'" horiz-adv-x="497" d="M207 958v7l63 508q1 18 13.5 29t27.5 11h248q12 0 22.5 -9.5t10.5 -22.5q0 -6 -2 -8l-98 -508q-3 -18 -15.5 -29.5t-27.5 -11.5h-209q-14 0 -23.5 9.5t-9.5 24.5z" />
<glyph unicode="(" horiz-adv-x="722" d="M186 420q0 354 107 676q109 335 299 555q19 22 39 22h2q7 0 31 -12q157 -98 157 -100q10 -7 10 -19q0 -8 -2 -12q-183 -250 -262 -584q-63 -264 -63 -530q0 -143 24 -275q27 -151 95 -297v-8q0 -16 -17 -26l-192 -105q-8 -4 -23 -4h-4q-16 0 -31 23q-86 136 -131 335 q-39 176 -39 361z" />
<glyph unicode=")" horiz-adv-x="722" d="M59 -168q0 4 4 12q186 258 263 584q63 267 63 533q0 139 -24 274q-28 155 -95 295v8q0 17 17 27l192 104q8 4 23 4h2q20 0 33 -22q85 -136 131 -336q39 -176 39 -361q0 -343 -107 -675q-116 -343 -299 -555q-23 -23 -39 -23h-2q-7 0 -31 12q-157 99 -157 101 q-13 9 -13 18z" />
<glyph unicode="*" horiz-adv-x="1646" d="M412 1004v6l20 161q4 41 45 41h8l299 -28l-180 186q-12 12 -12 27q0 18 24 33l154 100q17 10 29 10q17 0 30 -22l152 -238l209 238q22 22 37 22q9 0 26 -10l129 -100q19 -15 19 -27q0 -15 -21 -33l-225 -186l305 28h8q35 0 35 -32v-9l-20 -161q-2 -37 -45 -37h-6l-299 12 l180 -186q12 -15 12 -27q0 -19 -25 -33l-153 -100q-20 -10 -29 -10q-17 0 -33 20l-149 238l-211 -238q-16 -20 -37 -20q-11 0 -24 10l-129 100q-19 13 -19 27q0 15 21 33l221 186l-303 -12h-4q-39 0 -39 31z" />
<glyph unicode="+" d="M152 580v8l20 157q3 39 49 39h375l45 373q6 43 47 43h197q35 0 35 -33v-10l-46 -373h373q39 0 39 -32v-7l-20 -157q-3 -41 -49 -41h-373l-45 -373q-5 -43 -45 -43h-199q-35 0 -35 33q0 6 2 10l45 373h-377q-38 0 -38 33z" />
<glyph unicode="," horiz-adv-x="796" d="M188 -180l113 493q3 15 10 21t25 6h262q27 0 27 -16q0 -7 -2 -9l-144 -495q-5 -15 -11.5 -21t-23.5 -6h-229q-27 0 -27 19v8z" />
<glyph unicode="-" horiz-adv-x="845" d="M154 481v4l18 152q2 17 18 30t37 13h561q20 0 31.5 -10.5t11.5 -26.5v-6l-18 -152q-3 -19 -19.5 -30t-35.5 -11h-561q-14 0 -28.5 10t-14.5 27z" />
<glyph unicode="." horiz-adv-x="796" d="M207 33v4l31 246q2 15 17 25.5t36 10.5h293q20 0 32.5 -9t12.5 -23v-4l-31 -246q-2 -15 -17 -26t-36 -11h-293q-19 0 -32 10t-13 23z" />
<glyph unicode="/" horiz-adv-x="784" d="M41 -59q0 8 2 14l653 1673q9 25 35 25q6 0 8 -2l174 -37q21 -6 21 -23q0 -6 -4 -14l-654 -1675q-10 -23 -34 -23h-9l-174 39q-18 6 -18 23z" />
<glyph unicode="0" horiz-adv-x="1308" d="M158 391q0 111 23 235t65 210q62 129 190.5 196.5t354.5 67.5q282 0 399 -117q92 -92 92 -293q0 -99 -18 -210.5t-50 -194.5q-28 -73 -70.5 -127.5t-108 -97.5t-162 -65t-222.5 -22q-274 0 -391 111q-102 94 -102 307zM537 369q0 -95 32 -127q32 -35 111 -35q52 0 86 13 t56 46t34 75.5t23 113.5q24 168 24 258q0 77 -24 110q-28 43 -119 43q-95 0 -134 -48.5t-59 -170.5q-30 -184 -30 -278z" />
<glyph unicode="1" horiz-adv-x="776" d="M145 805v4l23 195q3 16 25 20l559 78h2q7 0 13.5 -6.5t6.5 -14.5v-2l-129 -1048q-2 -14 -12 -22.5t-25 -8.5h-291q-13 0 -21.5 7.5t-8.5 19.5v4l92 741l-215 16q-19 0 -19 17z" />
<glyph unicode="2" horiz-adv-x="1271" d="M215 29q2 2 2 4l21 184q3 30 7 52t11.5 41.5t14 32.5t21.5 27.5t25.5 22.5t35.5 22t42.5 22.5t54 27t62.5 31.5l119 61l37 18.5t42 21.5t30.5 19t31.5 25q41 41 41 109q0 40 -29 65q-34 27 -127 27q-45 0 -89 -6t-72 -13.5t-77 -21.5t-79 -21q-6 -2 -16 -2q-21 0 -21 33 l-8 164v4q0 34 33 47q57 25 184 50.5t264 25.5q233 0 342 -92q84 -70 84 -203q0 -130 -61 -221q-43 -68 -115.5 -111.5t-194.5 -91.5l-241 -92l-4 -37l573 22h2q9 0 19 -9.5t10 -18.5v-4l-29 -209q0 -35 -31 -35h-886q-12 0 -20.5 8.5t-8.5 20.5z" />
<glyph unicode="3" horiz-adv-x="1196" d="M63 -453l15 115q6 60 45 62q6 0 18 2q271 12 402 75q168 82 168 267q0 61 -25.5 95t-77.5 52q-14 5 -31.5 9t-31 6.5t-38 5.5t-35.5 4t-41.5 4t-39.5 4q-24 2 -24 35v22l16 123q3 28 10.5 37t24.5 12q12 3 62 14.5t67.5 17t52 16.5t57 23t41.5 27q66 57 66 144 q0 67 -53 96q-47 27 -133 27q-64 0 -123.5 -14.5t-113.5 -35t-73 -24.5q-16 -4 -18 -4q-11 0 -15 8t-6 27l-8 164v4q0 34 33 47q66 28 200.5 58t270.5 30q201 0 313 -80q113 -83 113 -246q0 -123 -68 -223q-78 -113 -252 -143l-8 -62q137 -14 205 -84q70 -70 70 -190 q0 -103 -38 -199.5t-110 -167.5q-224 -218 -823 -221h-18q-25 0 -35.5 8t-10.5 31v22z" />
<glyph unicode="4" horiz-adv-x="1466" d="M106 27q1 2 3 4l28 245q2 19 10 29l547 750q13 20 29 20h543q8 0 14 -6.5t6 -13.5v-2l-100 -807h178q11 0 18 -7.5t7 -19.5v-4l-23 -184q-2 -14 -11 -22.5t-22 -8.5h-170l-49 -387q-2 -13 -10.5 -22t-20.5 -9h-297q-11 0 -17.5 7.5t-6.5 19.5v4l47 387h-678 q-11 0 -18 7.5t-7 19.5zM438 246h404l73 600h-63z" />
<glyph unicode="5" horiz-adv-x="1214" d="M76 -471l16 141q4 28 13 38.5t28 12.5q283 3 418 64q88 40 135 112t47 169q0 85 -53 129q-52 43 -166 43q-88 0 -278 -39h-3q-17 0 -34 24q-15 19 -15 39q0 4 2 6l142 785q1 7 9.5 14.5t14.5 7.5h807q25 0 25 -24v-7l-25 -202q-1 -13 -11 -22t-22 -9h-518l-59 -336 q86 23 188 23q187 0 285 -95q98 -98 98 -274q0 -214 -103 -358t-306 -215q-89 -31 -203.5 -48t-187.5 -19.5t-179 -2.5h-22q-30 0 -37 14q-6 9 -6 21v8z" />
<glyph unicode="6" horiz-adv-x="1310" d="M176 461q0 249 51 446q66 253 211 404q77 82 175.5 139.5t213.5 88t231 43.5t253 13q24 1 33.5 -7t9.5 -27q0 -13 -2 -19l-19 -147q-3 -30 -14 -38.5t-37 -10.5q-1 0 -51 -1.5t-85.5 -5.5t-92.5 -12.5t-112.5 -27.5t-104.5 -46q-192 -104 -244 -329l8 3q8 3 22.5 7.5 t33.5 10t44 11.5t51 10.5t57 7.5t60 3q186 0 281 -76q123 -93 123 -309q0 -110 -24.5 -219.5t-76.5 -188.5q-74 -113 -201.5 -162t-318.5 -49q-254 0 -364 119q-111 117 -111 369zM532 403q0 -107 43 -153q35 -41 107 -41q83 0 123.5 39.5t60.5 126.5q25 109 25 198 q0 73 -31 115q-35 41 -115 41q-53 0 -102.5 -13.5t-69.5 -23.5q-20 -63 -30 -155q-11 -93 -11 -134z" />
<glyph unicode="7" horiz-adv-x="1189" d="M123 -414q0 9 2 11q113 276 321 622t416 586h-686q-24 0 -24 26v5l26 208q2 14 10.5 22.5t20.5 8.5h1003q10 0 17.5 -9t7.5 -17v-2l-29 -234q-4 -33 -24 -63q-432 -558 -672 -1147q-16 -41 -41 -41h-319q-29 0 -29 24z" />
<glyph unicode="8" horiz-adv-x="1333" d="M150 340q0 162 79 264q53 68 129.5 103t151.5 38l8 66q-1 0 -20 2.5t-36 6.5t-40.5 11.5t-47.5 22t-44 33.5q-68 68 -68 188q0 87 30 168t89 141q153 156 475 156q270 0 391 -108q101 -85 101 -238q0 -149 -70 -242q-20 -27 -46 -49t-48 -35t-51.5 -24.5t-45.5 -15.5 t-42 -10t-29 -7l-6 -66q119 -9 196 -83q78 -81 78 -213q0 -92 -38 -182t-105 -152q-154 -142 -477 -142q-297 0 -420 117q-94 91 -94 250zM535 367q0 -83 40 -123q37 -35 117 -35q65 0 112.5 27t74.5 102q24 70 24 160q0 83 -43 123q-36 34 -115 34q-59 0 -103 -21t-73 -81 q-34 -72 -34 -186zM629 1040q0 -82 35 -112q33 -35 112 -35q63 0 105.5 22t66.5 86q27 71 27 158q0 63 -29 105q-34 43 -119 43q-37 0 -64.5 -6.5t-57.5 -30.5t-48 -66q-28 -66 -28 -164z" />
<glyph unicode="9" horiz-adv-x="1310" d="M90 -463l19 148q4 31 15 39t36 10q7 1 58 2.5t94.5 6.5t104.5 15.5t122 35t112 59.5q154 104 199 303l-8 -3q-8 -3 -22.5 -7.5t-33.5 -10.5t-44 -12t-51 -10.5t-57 -7.5t-61 -3q-211 0 -309 103q-94 94 -94 295q0 108 27 216.5t82 188.5q72 108 198.5 154.5t313.5 46.5 q256 0 368 -121q58 -64 83.5 -159.5t25.5 -239.5q0 -222 -60 -439q-68 -244 -217 -393q-77 -77 -174.5 -131t-210.5 -83.5t-226 -42t-247 -13.5q-24 0 -33.5 8.5t-9.5 26.5v18zM553 506q0 -73 31 -115q35 -41 112 -41q20 0 41.5 2.5t38 6t34.5 8.5t28 8.5t21 7.5l11 4 q19 64 31 158q8 65 8 133q0 106 -41 153q-36 39 -106 39q-84 0 -126 -39.5t-61 -125.5q-22 -96 -22 -199z" />
<glyph unicode=":" horiz-adv-x="796" d="M231 39q0 1 1 3t1 3l31 248q1 19 15 32t30 13h260q15 0 26 -11t11 -28q0 -1 -1 -3t-1 -3l-31 -248q-1 -19 -15 -32t-30 -13h-260q-15 0 -26 11t-11 28zM324 776v6l30 248q1 19 15 32t30 13h260q15 0 26 -11t11 -28v-6l-30 -248q-3 -20 -16.5 -32.5t-31.5 -12.5h-260 q-15 0 -24.5 11t-9.5 28z" />
<glyph unicode=";" horiz-adv-x="796" d="M184 -188q0 4 2 8l111 493q3 15 10 21t25 6h262q27 0 27 -16v-9l-146 -495q-5 -15 -11.5 -21t-23.5 -6h-229q-27 0 -27 19zM342 776v6l31 248q3 20 16.5 32.5t30.5 12.5h260q15 0 25 -11t10 -28v-6l-31 -248q-1 -19 -15 -32t-30 -13h-260q-15 0 -26 11t-11 28z" />
<glyph unicode="&#x3c;" d="M166 584v4l14 112q3 30 33 43l967 443q12 6 20 6q20 0 27 -18l73 -166q0 -2 1.5 -6.5t1.5 -6.5q0 -21 -27 -32l-791 -316l713 -315q19 -10 19 -29q0 -7 -7 -18l-112 -164q-14 -21 -31 -21q-11 0 -20 6l-859 445q-22 9 -22 33z" />
<glyph unicode="=" d="M190 362v7l21 159q2 18 17 30.5t36 12.5h885q21 0 33 -11.5t12 -27.5v-4l-20 -159q-1 -19 -19 -31t-35 -12h-884q-17 0 -31.5 10t-14.5 26zM244 793v6l18 159q3 18 18.5 30.5t36.5 12.5h885q20 0 32.5 -11.5t12.5 -26.5v-5l-20 -159q-1 -19 -18.5 -31t-34.5 -12h-887 q-15 0 -29 10.5t-14 26.5z" />
<glyph unicode="&#x3e;" d="M131 297q0 21 27 35l788 315l-710 316q-8 2 -14.5 9t-6.5 17t6 19l115 166q11 18 31 18q8 0 20 -6l856 -443q23 -10 23 -34v-9l-15 -112q-4 -25 -30 -37l-967 -445q-12 -6 -21 -6q-17 0 -28 21l-72 164q-2 4 -2 12z" />
<glyph unicode="?" d="M303 1432q0 31 35 41q35 12 89 25t160 27.5t210 14.5q212 0 331 -55q170 -78 170 -273q0 -113 -55 -196q-34 -51 -85.5 -92t-129.5 -88q-21 -13 -56.5 -33.5t-53 -31.5t-42.5 -30t-37.5 -35.5t-23.5 -41.5t-14 -54q-2 -17 -6 -104q0 -41 -50 -41h-251q-8 0 -13 1.5t-8 3 t-4.5 6t-2 6.5t-1 9t-0.5 9q-4 24 -4 71q0 28 4 78q7 58 28 103.5t58 83t72.5 63t93.5 59.5q102 58 141 95q51 54 51 112q0 74 -67 103q-53 22 -148 22q-44 0 -100 -6.5t-96 -13.5t-85 -16.5t-53 -10.5q-4 -2 -12 -2q-12 0 -19.5 7t-8.5 10.5t-3 13.5l-12 139q0 3 -1 10 t-1 11zM399 39q0 1 1 3t1 3l29 242q3 20 16.5 32.5t30.5 12.5h287q15 0 25 -10t10 -27v-8l-31 -242q-1 -20 -14 -32.5t-31 -12.5h-287q-15 0 -26 11t-11 28z" />
<glyph unicode="@" horiz-adv-x="1966" d="M195 559q0 176 37.5 355.5t113.5 299.5q104 167 301.5 246.5t523.5 79.5q405 0 590 -127q199 -135 199 -448q0 -74 -14 -207q-11 -93 -35 -199q-5 -17 -21 -31t-39 -14h-100q-23 0 -35 13t-12 32v8q25 100 35 191q12 102 12 184q0 194 -88 289q-65 69 -189.5 102 t-324.5 33q-198 0 -329 -32t-214 -101q-107 -86 -155 -272q-50 -183 -50 -383q0 -124 33.5 -206.5t110.5 -133.5q137 -91 454 -91q100 0 224 15h8q21 0 32 -14t11 -31v-4l-8 -80q-3 -20 -20 -32.5t-38 -14.5q-147 -13 -229 -13q-441 0 -625 156q-159 135 -159 430zM657 551 q0 113 60 188q36 47 90 69.5t125 33.5l272 41l4 35q0 3 1 10t1 10q0 42 -29 57t-96 15q-88 0 -264 -43q-4 -2 -12 -2q-15 0 -18 14l-11 121q-2 2 -2 4q0 21 25 31q26 9 70.5 21t130 25t165.5 13q165 0 244.5 -50.5t79.5 -158.5q0 -13 -4 -45l-53 -432q-10 -87 -48 -117 t-133 -51t-233 -21q-188 0 -270 48q-95 55 -95 184zM944 573q0 -41 29 -63q29 -21 86 -21q35 0 71 5.5t44 9.5l26 225l-143 -24q-36 -5 -56 -13t-34 -28q-23 -36 -23 -91z" />
<glyph unicode="A" horiz-adv-x="1638" d="M37 25q0 6 2 8l639 1454q11 26 37 26h581q26 0 33 -24l279 -1456v-4q0 -12 -10.5 -20.5t-24.5 -8.5h-326q-14 0 -25 11t-14 24l-73 473h-512l-191 -477q-12 -31 -43 -31h-321q-12 0 -21.5 7.5t-9.5 17.5zM727 774h369l-78 483h-94z" />
<glyph unicode="B" horiz-adv-x="1607" d="M195 29v4l178 1448q1 13 13.5 22.5t27.5 9.5h743q272 0 373 -104q67 -70 67 -217q0 -132 -65 -227q-89 -128 -318 -158l-8 -66q196 -17 269 -73q44 -33 65 -82.5t21 -128.5q0 -183 -111 -297q-147 -160 -508 -160h-715q-13 0 -22.5 8.5t-9.5 20.5zM608 258h289 q169 0 229 82q41 53 41 154q0 88 -59 118q-48 23 -156 29l-297 10zM684 881l297 14q140 6 190 88q33 56 33 141v2q0 67 -37 97q-40 32 -139 32h-299z" />
<glyph unicode="C" horiz-adv-x="1445" d="M199 549q0 182 39 372.5t118 317.5q94 154 257.5 223.5t418.5 69.5q47 0 93.5 -2.5t81.5 -5.5t74 -9.5t61.5 -10.5t55.5 -12.5t44 -11.5t38.5 -11.5t28.5 -8.5q33 -12 33 -37q0 -4 -4 -20l-55 -176q-6 -25 -37 -25q-10 0 -16 2q-3 1 -40.5 10.5t-66 15.5t-72.5 14.5 t-89.5 13t-86.5 4.5q-171 0 -267 -56t-144 -178q-33 -85 -52.5 -209t-19.5 -225q0 -189 86 -264q84 -72 274 -72q142 0 367 51q12 4 18 4q28 0 31 -26l12 -174v-9q0 -35 -45 -47q-216 -69 -491 -69q-371 0 -518 153q-127 130 -127 408z" />
<glyph unicode="D" horiz-adv-x="1701" d="M195 29v4l178 1448q1 13 13 22.5t26 9.5h665q337 0 482 -139q131 -128 131 -413q0 -263 -76 -498q-74 -235 -244 -349t-479 -114h-666q-12 0 -21 8.5t-9 20.5zM608 258h273q162 0 243.5 65t122.5 234q49 194 49 391q0 154 -45 221q-33 48 -92 68t-155 20h-273z" />
<glyph unicode="E" horiz-adv-x="1423" d="M195 29v4l178 1448q1 13 13.5 22.5t27.5 9.5h1022q30 0 30 -26v-4l-26 -213q-2 -14 -12 -22.5t-25 -8.5h-676l-39 -330h643q31 0 31 -24v-4l-27 -215q-1 -14 -12 -22.5t-25 -8.5h-645l-43 -363h674q14 0 22.5 -7t8.5 -19v-4l-27 -211q-1 -13 -12 -22t-25 -9h-1024 q-13 0 -22.5 8.5t-9.5 20.5z" />
<glyph unicode="F" horiz-adv-x="1290" d="M195 29v4l178 1448q1 13 13.5 22.5t27.5 9.5h972q14 0 22.5 -7t8.5 -19v-4l-26 -213q-2 -14 -12 -22.5t-25 -8.5h-627l-49 -416h557q14 0 22.5 -7t8.5 -19v-4l-27 -213q-1 -13 -12 -22t-25 -9h-559l-63 -516q-1 -13 -13.5 -23t-27.5 -10h-312q-13 0 -22.5 8.5t-9.5 20.5z " />
<glyph unicode="G" horiz-adv-x="1656" d="M197 547q0 160 32 328t95 292q98 197 280.5 285t472.5 88q278 0 551 -84q35 -11 35 -37q0 -6 -4 -22l-55 -166q-11 -27 -41 -27q-11 0 -17 2q-7 1 -53.5 12.5t-92.5 21t-121.5 18t-148.5 8.5q-87 0 -151 -9.5t-123 -34t-102.5 -70t-75.5 -114.5q-41 -88 -62.5 -212 t-21.5 -238q0 -197 82 -279q81 -78 291 -78q40 0 85 3.5t70 7.5l25 4l45 364l-225 29q-12 2 -21.5 9.5t-9.5 17.5v4l25 194q2 12 12.5 21.5t23.5 9.5h564q13 0 22.5 -8.5t9.5 -20.5q0 -2 -2 -4l-80 -655q-10 -85 -41.5 -126.5t-117.5 -62.5q-76 -18 -198 -31.5t-234 -13.5 q-354 0 -519 103q-108 65 -156 180t-48 291z" />
<glyph unicode="H" horiz-adv-x="1763" d="M195 27v4l178 1442q3 25 37 28l321 39h4q12 0 19.5 -8t7.5 -19v-4l-74 -594h612l68 558q6 25 39 28l322 39h4q12 0 19 -8t7 -19q0 -2 -2 -4l-180 -1478q-1 -13 -12.5 -22t-26.5 -9h-315q-14 0 -22.5 7.5t-8.5 19.5v4l74 606h-613l-73 -606q-1 -13 -12 -22t-25 -9h-318 q-13 0 -21.5 7.5t-8.5 19.5z" />
<glyph unicode="I" horiz-adv-x="768" d="M195 27v4l178 1442q3 25 37 28l321 39h4q12 0 19.5 -8t7.5 -19v-4l-182 -1478q-1 -13 -12 -22t-25 -9h-318q-13 0 -21.5 7.5t-8.5 19.5z" />
<glyph unicode="J" horiz-adv-x="770" d="M-174 -379q0 8 2 12l16 134q3 25 14 33t40 10q71 0 112 4q32 2 47.5 3.5t40.5 7t38 16t28.5 28t24 45.5t12.5 66l184 1493q3 24 37 28l319 39h4q12 0 19.5 -6.5t7.5 -17.5v-7l-186 -1517q-13 -100 -46.5 -175t-79.5 -121t-110 -74t-128.5 -38t-143.5 -10q-54 0 -93.5 1.5 t-55 3t-36.5 4t-26 3.5q-21 2 -31 8.5t-10 26.5z" />
<glyph unicode="K" horiz-adv-x="1556" d="M195 27v4l178 1452q1 13 12.5 21.5t26.5 8.5h315q14 0 22.5 -7t8.5 -19v-4l-72 -586h100l482 598q14 18 39 18l368 -4q8 0 15.5 -9t7.5 -21t-8 -23l-600 -692l460 -711q4 -8 4 -14q0 -15 -10.5 -27t-21.5 -12h-383q-32 0 -41 18l-344 603h-103l-71 -590q-1 -13 -12 -22 t-25 -9h-318q-13 0 -21.5 7.5t-8.5 19.5z" />
<glyph unicode="L" horiz-adv-x="1288" d="M195 27v4l178 1442q3 25 37 28l321 39h4q12 0 19.5 -8t7.5 -19v-4l-152 -1224h643q29 0 29 -27v-4l-27 -223q-1 -13 -11.5 -22t-24.5 -9h-994q-13 0 -21.5 7.5t-8.5 19.5z" />
<glyph unicode="M" horiz-adv-x="2215" d="M137 33q0 1 1 3t1 3l297 1436q3 17 17 27.5t32 10.5h586q18 0 28.5 -11t12.5 -29l84 -814h10l287 816q5 16 18 27t31 11h555q18 0 29.5 -10.5t11.5 -27.5l-51 -1436q-1 -17 -15.5 -28t-33.5 -11h-299q-17 0 -28 10t-11 25v4l90 1214h-59l-371 -958q-16 -39 -49 -39h-361 q-33 0 -41 39l-116 958h-62l-227 -1214q-3 -17 -15.5 -28t-31.5 -11h-279q-18 0 -29.5 9t-11.5 24z" />
<glyph unicode="N" horiz-adv-x="1816" d="M195 27v4l178 1452q2 12 14 21t27 9h610q32 0 39 -26l197 -1278h36l134 1266q3 24 16.5 31t38.5 7h276q24 0 35.5 -5.5t11.5 -24.5v-8l-178 -1444q-1 -13 -12 -22t-25 -9h-604q-15 0 -25 9.5t-12 23.5l-196 1196h-64l-117 -1198q0 -13 -10.5 -22t-25.5 -9h-314 q-13 0 -21.5 7.5t-8.5 19.5z" />
<glyph unicode="O" horiz-adv-x="1734" d="M199 547q0 145 26.5 304t75.5 277q42 100 104 174.5t152.5 128.5t215 81.5t284.5 27.5q358 0 514 -141q153 -133 153 -432q0 -162 -34.5 -340.5t-98.5 -300.5q-59 -115 -150.5 -191.5t-236 -119t-340.5 -42.5q-333 0 -493 123q-92 71 -132 183t-40 268zM590 524 q0 -172 82 -237q72 -54 223 -54q122 0 199.5 35t120 102.5t67.5 182.5q51 223 51 430q0 161 -65 229q-70 70 -242 70q-128 0 -206.5 -38t-119.5 -110.5t-67 -199.5q-43 -218 -43 -410z" />
<glyph unicode="P" horiz-adv-x="1513" d="M195 27v4l178 1450q1 13 13.5 22.5t27.5 9.5h753q260 0 361 -118q76 -88 76 -248q0 -120 -35 -236q-37 -137 -129 -223q-136 -125 -424 -125h-8l-363 2l-65 -534q-1 -13 -12 -22t-25 -9h-318q-13 0 -21.5 7.5t-8.5 19.5zM674 801l229 8q91 3 144 15t86 42q36 33 55 111 q14 65 14 113q0 83 -35 118q-29 31 -81.5 39t-153.5 8h-201z" />
<glyph unicode="Q" horiz-adv-x="1734" d="M199 545q0 146 27 305t77 280q57 134 148 222t243 138t363 50q352 0 508 -135q159 -134 159 -444q0 -273 -82 -512q-35 -104 -86.5 -182.5t-128.5 -140t-184.5 -98.5t-245.5 -48l15 -138h360q29 0 29 -26v-6l-25 -199q-2 -14 -12 -23.5t-25 -9.5h-331q-39 0 -72 8.5 t-58 21t-46.5 35t-36 43.5t-27 53t-20 56.5t-14.5 62t-10.5 61t-8.5 61.5q-261 26 -385 153q-131 134 -131 412zM590 530q0 -165 69 -231t236 -66q182 0 266.5 75.5t122.5 252.5q49 230 49 426q0 167 -73 232q-69 63 -234 63q-117 0 -192.5 -31.5t-118 -93t-68.5 -164.5 q-24 -95 -40.5 -229.5t-16.5 -233.5z" />
<glyph unicode="R" horiz-adv-x="1640" d="M195 27v4l178 1450q1 13 13.5 22.5t27.5 9.5h719q242 0 360 -77q123 -85 123 -273q0 -175 -82 -286q-94 -126 -328 -152l-6 -61q172 -6 246 -56q84 -63 84 -221q0 -51 -8 -145l-17 -209q0 -2 -5 -9.5t-13.5 -15.5t-16.5 -8h-321q-12 0 -21.5 7.5t-9.5 17.5v2l19 241 q8 108 8 148q0 83 -72 116q-57 29 -205 33l-223 6l-65 -540q-1 -13 -12 -22t-25 -9h-318q-13 0 -21.5 7.5t-8.5 19.5zM674 801l256 12q167 9 229 82q55 66 55 184q0 95 -43 133q-46 43 -165 43h-275z" />
<glyph unicode="S" horiz-adv-x="1445" d="M158 96q0 13 2 17l49 170q10 34 41 34q14 0 22 -2q5 -1 42.5 -10.5t76 -18t90 -18.5t107.5 -16t106 -6q170 0 236 63q53 50 53 135q0 81 -80 117q-11 5 -22.5 9t-27 8t-27 6.5t-32 6.5t-31 5.5t-35 5.5t-34.5 6q-222 33 -321 117q-117 89 -117 272q0 106 37 208t108 173 q161 158 514 158q107 0 222 -16t170.5 -29t93.5 -25q39 -9 39 -41q0 -12 -2 -18l-52 -168q-11 -33 -40 -33h-9q-7 2 -55 13t-60.5 13.5t-53 11t-61 11.5t-55 7.5t-64.5 6t-62 1.5q-135 0 -201 -41q-76 -49 -76 -146q0 -83 92 -120q53 -18 203 -41q113 -17 194.5 -41.5 t139.5 -73.5q108 -88 108 -291q0 -205 -116 -338q-168 -201 -545 -201q-128 0 -258 18t-190.5 33.5t-90.5 26.5q-28 8 -28 41z" />
<glyph unicode="T" horiz-adv-x="1386" d="M170 1266q0 1 1 2t1 2l25 213q1 13 12.5 21.5t26.5 8.5h1286q13 0 21.5 -7.5t8.5 -18.5v-4l-26 -213q-2 -14 -12 -22.5t-25 -8.5h-451l-149 -1208q-2 -14 -12 -22.5t-25 -8.5h-315q-14 0 -22.5 7.5t-8.5 19.5v4l147 1208h-452q-14 0 -22.5 7.5t-8.5 19.5z" />
<glyph unicode="U" horiz-adv-x="1687" d="M227 414q0 34 3 74.5t5.5 67.5t8.5 75.5t8 66.5l100 772q3 26 37 29l322 41h6q11 0 17.5 -7t6.5 -17v-7l-104 -817q-25 -196 -25 -260q0 -117 80 -164q62 -35 182 -35q161 0 232.5 63.5t87.5 195.5l119 978q6 26 39 29l321 41h4q12 0 19.5 -6.5t7.5 -17.5q0 -5 -2 -7 l-121 -995q-18 -147 -76 -252t-154.5 -168t-221.5 -92t-287 -29q-269 0 -420 80q-195 106 -195 361z" />
<glyph unicode="V" horiz-adv-x="1581" d="M219 1470q0 12 14 27.5t23 15.5h322q23 0 33.5 -7t13.5 -29l163 -1219h84l447 1219q9 22 21 29t36 7h324q8 0 16 -10t8 -22q0 -6 -2 -8l-589 -1440q-11 -33 -41 -33h-578q-29 0 -33 33l-260 1433q0 1 -1 2t-1 2z" />
<glyph unicode="W" horiz-adv-x="2398" d="M250 1466v2q0 13 13 29t22 16h311q25 0 35.5 -6.5t11.5 -29.5l53 -1211h62l338 1090q5 15 17 26t28 11h481q17 0 27 -11t12 -26l55 -1090h62l354 1211q7 23 19.5 29.5t37.5 6.5h299q8 0 15.5 -10t7.5 -22v-8l-465 -1436q-12 -37 -47 -37h-559q-35 0 -39 37l-70 1077 l-340 -1077q-11 -37 -47 -37h-547q-16 0 -25.5 11t-11.5 26z" />
<glyph unicode="X" horiz-adv-x="1568" d="M20 33v12l586 733l-385 682q-2 4 -2 10q0 14 14.5 28.5t22.5 14.5h371q21 0 29.5 -6.5t17.5 -29.5l239 -494l338 494q15 22 25.5 29t30.5 7h335q12 0 18.5 -8.5t6.5 -19.5q0 -17 -6 -23l-524 -665l417 -752q5 -10 5 -14q0 -12 -11 -21.5t-26 -9.5h-385q-27 0 -39 23 l-264 569l-408 -569q-15 -23 -43 -23h-342q-21 0 -21 33z" />
<glyph unicode="Y" horiz-adv-x="1546" d="M178 1470q0 13 14.5 28t20.5 15h365q21 0 29.5 -6.5t17.5 -29.5l272 -621l410 621q13 23 23 29.5t32 6.5h348q12 0 18.5 -8.5t6.5 -19.5q0 -15 -4 -23l-687 -907l-63 -524q-1 -13 -12 -22t-25 -9h-317q-14 0 -22.5 7.5t-8.5 19.5v4l63 520l-479 909q-2 4 -2 10z" />
<glyph unicode="Z" horiz-adv-x="1445" d="M104 27v4l23 190q3 27 27 55l854 965h-734q-28 0 -28 27v4l24 211q1 13 12 21.5t25 8.5h1176q13 0 21.5 -7.5t8.5 -18.5v-4l-24 -207q-2 -20 -21 -43l-864 -961h754q14 0 22.5 -7t8.5 -19q-1 -2 -3 -4l-24 -211q-1 -13 -12 -22t-25 -9h-1190q-13 0 -22 8t-9 19z" />
<glyph unicode="[" horiz-adv-x="780" d="M125 -156l207 1686q3 18 13 30t22 15l395 98q4 2 12 2q22 0 29 -20l43 -156q2 -4 2 -8q0 -11 -8 -20t-17 -13l-202 -78l-170 -1386l184 -78q16 -11 16 -25q0 -4 -4 -16l-82 -156q-10 -20 -33 -20q-8 0 -12 2l-370 98q-25 7 -25 37v8z" />
<glyph unicode="\" horiz-adv-x="677" d="M78 1561q0 19 26 28l218 78q4 2 14 2q21 0 24 -20l414 -1774q2 -2 2 -8q0 -23 -26 -29l-218 -78q-4 -2 -14 -2q-21 0 -24 21l-414 1773q-2 2 -2 9z" />
<glyph unicode="]" horiz-adv-x="780" d="M102 -117q0 21 23 33l205 78l170 1386l-185 78q-16 8 -16 27q0 8 2 14l82 156q13 20 35 20q8 0 12 -2l371 -98q22 -7 22 -37v-8l-207 -1686q-3 -37 -34 -45l-396 -98q-4 -2 -12 -2q-22 0 -29 20l-43 156v8z" />
<glyph unicode="^" d="M139 666q0 4 8 20l545 803q16 24 49 24h166q30 0 39 -24l348 -803q4 -12 4 -14q0 -21 -24 -31l-193 -82q-6 -4 -18 -4t-20.5 6t-10.5 14l-246 658l-403 -658q-8 -20 -37 -20q-10 0 -16 4l-172 82q-19 11 -19 25z" />
<glyph unicode="_" horiz-adv-x="1132" d="M-31 -256l17 139h1134l-18 -139h-1133z" />
<glyph unicode="`" horiz-adv-x="768" d="M317 1438q0 6 7 16l122 139q10 13 21 13q7 0 14 -7l307 -231q7 -7 7 -14q0 -10 -7 -17l-110 -129q-8 -10 -21 -10q-8 0 -16 4l-317 221q-7 7 -7 15z" />
<glyph unicode="a" horiz-adv-x="1218" d="M117 262q0 145 63 240q50 70 123 100.5t166 44.5l356 55q9 53 9 80q0 48 -33 66q-41 18 -133 18q-117 0 -342 -55q-4 -2 -15 -2q-19 0 -22 18l-15 154v6q0 27 29 39q60 22 194 49t279 27q209 0 309 -62q109 -63 109 -209q0 -20 -16 -145l-58 -469q-5 -47 -18 -81t-29 -55 t-47 -36.5t-59 -24t-78 -20.5q-126 -27 -303 -27q-222 0 -328 52q-141 69 -141 237zM467 307q0 -64 41 -90q36 -27 110 -27q25 0 53 3t45 6t36 7l18 3l35 293l-189 -29q-48 -7 -78.5 -21t-48.5 -49q-22 -37 -22 -96z" />
<glyph unicode="b" horiz-adv-x="1251" d="M154 141q0 1 10 103l147 1200q6 47 47 55l273 41h12q35 0 35 -31q0 -4 -2 -8l-37 -309l-41 -131q133 41 262 41q209 0 301 -92q88 -88 88 -299q0 -206 -57 -392q-53 -180 -177 -263t-370 -83q-239 0 -387 50q-60 19 -82 46t-22 72zM518 219q62 -10 123 -10q52 0 83 7.5 t58.5 31.5t44.5 68.5t31 119.5q29 163 29 277q0 92 -27 123q-16 17 -41.5 22.5t-70.5 5.5q-31 0 -69 -5t-61 -10l-22 -5z" />
<glyph unicode="c" horiz-adv-x="1056" d="M137 395q0 103 20 218t56 200q62 146 187 217.5t341 71.5q115 0 218 -16.5t141 -36.5q20 -14 20 -31q0 -11 -2 -17l-45 -141q-10 -26 -37 -26q-3 0 -7.5 1t-6.5 1q-105 28 -217 28q-113 0 -174 -38.5t-92 -129.5q-39 -119 -39 -254q0 -132 57 -178q51 -45 170 -45 q109 0 223 29l6 1q6 1 9 1q28 0 28 -27l13 -141v-4q0 -28 -31 -41q-42 -21 -148 -37t-223 -16q-268 0 -377 112q-90 92 -90 299z" />
<glyph unicode="d" horiz-adv-x="1251" d="M135 365q0 229 66 421q54 155 160 235.5t290 80.5q63 0 128 -9t99 -19l33 -9l-6 129l31 250q6 47 49 55l270 41h13q35 0 35 -31v-8l-160 -1294q-8 -69 -24 -100q-33 -61 -118 -87q-165 -47 -368 -47q-263 0 -375 78q-123 83 -123 314zM500 381v-12q0 -49 8 -79 q8 -34 30.5 -52t50 -23.5t75.5 -5.5q26 0 56.5 3.5t47.5 7.5l18 3l76 631q-78 12 -133 12q-82 0 -121 -23t-63 -106q-20 -68 -32.5 -172t-12.5 -184z" />
<glyph unicode="e" horiz-adv-x="1200" d="M137 414q0 160 44 302t104 220q130 166 444 166q88 0 157 -9.5t129.5 -34t100 -64t62 -101t22.5 -143.5q0 -55 -10.5 -100t-30 -79t-49 -60t-65.5 -44t-81 -30.5t-94.5 -20t-107 -12t-117 -7t-126.5 -4.5h-7h-31q0 -4 -1 -12.5t-1 -13.5q0 -97 84 -134q63 -28 187 -28 q43 0 92 7t77.5 13.5t70 17.5t42.5 11h8q25 0 31 -35l14 -125v-8q0 -31 -28 -43q-188 -70 -424 -70q-252 0 -374 106t-122 335zM502 578q22 1 66.5 2t67 2t59.5 5t56.5 9.5t44.5 16t37.5 25.5t21.5 37.5t9 51.5q0 147 -155 147q-48 0 -84.5 -17.5t-58.5 -44.5t-36 -67.5 t-20 -79.5t-8 -87z" />
<glyph unicode="f" horiz-adv-x="884" d="M-98 -387q0 2 1 6t1 6l20 137q3 24 13.5 31.5t37.5 9.5q13 0 26 1t34 1q40 0 65.5 5t51.5 20.5t41 48.5t22 86l104 860h-157q-31 0 -31 25q0 4 2 4l23 190q2 14 12 22.5t25 8.5h157l17 129q20 169 119.5 252.5t285.5 83.5q38 0 74.5 -2.5t62.5 -5.5t52.5 -7.5t40.5 -7.5 t30.5 -7t18.5 -5q18 -5 18 -26q0 -2 -1 -7t-1 -6l-45 -159q-6 -29 -25 -29q-6 0 -10 2q-6 1 -31 4t-51.5 5.5t-48.5 2.5q-69 0 -97.5 -22t-35.5 -82l-14 -113h247q14 0 22.5 -7t8.5 -19v-5l-24 -190q-3 -29 -37 -29h-248l-109 -862q-12 -94 -43 -165t-73.5 -114t-101.5 -69 t-119 -35.5t-134 -9.5q-65 0 -157 10q-12 1 -19.5 3.5t-13.5 9.5t-6 20z" />
<glyph unicode="g" horiz-adv-x="1271" d="M63 -238q0 87 43 148q17 23 39 40t48 27t45 15t46 9.5t35 6.5l7 37q-13 3 -40.5 7.5t-42.5 8t-34 11.5t-31 20q-28 32 -28 86q0 95 49 144q23 23 64 37.5t65.5 18.5t91.5 13q-113 27 -160 82q-57 60 -57 178q0 163 86 281q124 170 461 170q63 0 112.5 -6t74 -12t77.5 -21 q20 -6 78 -6q52 0 102 12q27 7 111 43q12 6 20 6q18 0 21 -22l32 -178q0 -2 1 -7t1 -8q0 -17 -20 -29q-68 -43 -150 -43q-16 0 -26 2t-25.5 6t-32.5 7q62 -58 62 -150q0 -64 -28 -127t-75 -106q-124 -113 -380 -113q-27 0 -62 -1t-53 -1q-60 0 -80 -33q-14 -25 -14 -55 q0 -32 22 -43q26 -16 123 -16h164q213 0 297 -84q61 -61 61 -174q0 -154 -100 -254q-149 -152 -488 -152q-264 0 -382 47q-130 50 -130 178zM410 -170q0 -51 36 -74q46 -28 162 -28q135 0 180 53q31 36 31 86q0 39 -18 57q-29 27 -133 27h-103q-90 0 -125 -37 q-30 -30 -30 -84zM549 666q0 -64 29 -97q30 -34 110 -34q71 0 108.5 27.5t55.5 84.5q20 68 20 135q0 73 -28 101q-30 35 -109 35q-125 0 -162 -101q-24 -74 -24 -151z" />
<glyph unicode="h" horiz-adv-x="1259" d="M137 27v4l174 1413q6 47 49 55l271 41h12q35 0 35 -31q0 -4 -2 -8l-37 -307l-39 -131q187 39 301 39q165 0 244 -47q92 -56 92 -195q0 -60 -12 -162l-86 -667q-1 -13 -11 -22t-24 -9h-291q-31 0 -31 27v4l80 663q10 67 10 86q0 40 -16 62q-22 28 -82 28q-36 0 -80 -4 t-70 -8l-26 -4l-102 -823q-2 -14 -12 -22.5t-25 -8.5h-291q-14 0 -22.5 7.5t-8.5 19.5z" />
<glyph unicode="i" horiz-adv-x="684" d="M168 27v4l121 981q1 13 12 21.5t25 8.5h288q14 0 22.5 -7t8.5 -19v-4l-121 -981q-2 -14 -12 -22.5t-25 -8.5h-288q-14 0 -22.5 7.5t-8.5 19.5zM317 1227q0 10 2 14l29 238q4 33 21 47t51 14h223q30 0 43.5 -10.5t13.5 -36.5v-14l-28 -238q-4 -33 -21.5 -47t-50.5 -14 h-225q-58 0 -58 47z" />
<glyph unicode="j" horiz-adv-x="681" d="M-145 -387q0 8 2 12l18 135q4 25 15 33t38 10q13 0 25 1t33 1q40 0 66 5t52 20.5t41 48.5t21 86l129 1047q1 13 12.5 21.5t26.5 8.5h287q13 0 21.5 -6.5t8.5 -17.5q0 -4 -2 -6l-127 -1049q-12 -95 -43 -166t-73.5 -113.5t-101.5 -68.5t-118.5 -35.5t-134.5 -9.5 q-69 0 -157 10q-20 2 -29.5 8t-9.5 25zM324 1227q0 10 2 14l28 238q4 33 21 47t51 14h223q30 0 44 -10.5t14 -36.5q0 -2 -1 -6.5t-1 -7.5l-29 -238q-4 -33 -21 -47t-51 -14h-223q-57 0 -57 47z" />
<glyph unicode="k" horiz-adv-x="1224" d="M137 27v4l174 1413q6 47 47 55l271 41h12q37 0 37 -33q0 -4 -2 -6l-103 -848h64l299 406q11 16 31 16h8l325 -6q17 0 17 -16q0 -9 -4 -13l-416 -499l287 -512q0 -1 1 -3t1 -3q0 -8 -7 -15.5t-14 -7.5h-348q-22 0 -29 14l-180 406h-63l-49 -389q-1 -13 -12.5 -22t-26.5 -9 h-289q-14 0 -22.5 7.5t-8.5 19.5z" />
<glyph unicode="l" horiz-adv-x="741" d="M168 246q0 29 6.5 86.5t7.5 64.5l131 1053q2 24 10.5 35t30.5 14l277 41h12q35 0 35 -31v-8l-135 -1089q0 -1 -2.5 -21.5t-5.5 -46t-3 -39.5q0 -29 15 -51q18 -21 51 -21q7 0 70 7h6q20 0 24 -25l9 -160v-4q0 -10 -6 -19.5t-12 -13.5t-9 -4q-68 -30 -213 -30 q-147 0 -219 63q-80 68 -80 199z" />
<glyph unicode="m" horiz-adv-x="1927" d="M137 27v4l113 905q6 53 51 77.5t152 47.5q213 41 391 41q172 0 266 -68q16 7 64.5 21t146 30.5t184.5 16.5q203 0 291 -53q105 -60 105 -207v-8q0 -46 -13 -156l-82 -647q-2 -14 -12 -22.5t-25 -8.5h-290q-14 0 -22.5 7.5t-8.5 19.5v4l80 647q6 40 6 80q0 50 -23 80 q-28 32 -94 32q-33 0 -74 -4.5t-65 -9.5l-25 -4l-102 -821q-2 -14 -12 -22.5t-25 -8.5h-291q-13 0 -21.5 7.5t-8.5 19.5v4l79 653q7 47 7 80q0 50 -21 74q-25 32 -88 32q-32 0 -75 -4.5t-70 -9.5l-27 -4l-102 -821q-2 -14 -12 -22.5t-25 -8.5h-291q-14 0 -22.5 7.5 t-8.5 19.5z" />
<glyph unicode="n" horiz-adv-x="1259" d="M137 27v4l113 905q6 53 51 77.5t152 47.5q213 41 387 41q179 0 270 -43q123 -58 123 -215q0 -47 -12 -137l-82 -676q-2 -14 -12 -22.5t-25 -8.5h-291q-14 0 -22.5 7.5t-8.5 19.5v4l80 655q6 40 6 80q0 48 -18 72q-25 32 -88 32q-33 0 -73.5 -4.5t-64.5 -9.5l-24 -4 l-102 -821q-2 -14 -12 -22.5t-25 -8.5h-291q-14 0 -22.5 7.5t-8.5 19.5z" />
<glyph unicode="o" horiz-adv-x="1226" d="M135 379q0 115 23.5 247.5t66.5 219.5q40 82 103 136.5t169 87t251 32.5q230 0 346 -80q71 -51 100 -130.5t29 -193.5q0 -111 -21.5 -238t-60.5 -214q-39 -86 -101 -144.5t-170.5 -93.5t-259.5 -35q-273 0 -385 115q-90 93 -90 291zM496 373q0 -94 26 -125 q29 -39 117 -39q54 0 88.5 14t56.5 49.5t33.5 80t22.5 122.5q22 176 22 240q0 97 -43 127q-30 24 -100 24q-98 0 -137.5 -52t-59.5 -185q-26 -182 -26 -256z" />
<glyph unicode="p" horiz-adv-x="1251" d="M86 -391l154 1255q6 45 19.5 75.5t38.5 49.5t47 28.5t61 20.5q210 64 440 64q224 0 319 -98q86 -86 86 -271q0 -105 -18 -231.5t-49 -214.5q-106 -314 -449 -314q-145 0 -264 37l6 -133l-24 -211q-6 -48 -50 -53l-270 -43h-12q-35 0 -35 31v8zM520 223q60 -14 123 -14 q72 0 110 17.5t65.5 73t45.5 167.5q23 149 23 238q0 94 -25 126q-16 20 -42 26.5t-72 6.5q-31 0 -69 -5t-61 -10l-22 -5z" />
<glyph unicode="q" horiz-adv-x="1251" d="M133 354q0 105 20 229.5t54 215.5q33 90 82.5 150t119.5 93t151 46.5t192 13.5q165 0 331 -41q71 -16 107.5 -50t36.5 -96q0 -20 -2 -32l-150 -1217q-3 -47 -45 -55l-272 -41q-2 0 -6.5 -1t-6.5 -1q-34 0 -34 33v8l32 268l41 133q-125 -37 -272 -37q-207 0 -299 107 q-80 94 -80 274zM498 393q0 -120 41 -155q37 -29 123 -29q27 0 58 4t48 8l18 4l78 627q-63 14 -135 14q-47 0 -76.5 -7.5t-55 -29.5t-41.5 -62t-28 -105q-30 -165 -30 -269z" />
<glyph unicode="r" horiz-adv-x="802" d="M137 27v4l113 907q6 52 51.5 76t149.5 45q173 39 366 39h37q22 0 35 -13q8 -8 8 -22q0 -6 -2 -10l-18 -166q-2 -12 -4 -18.5t-7 -14t-14 -11t-23 -3.5q-116 0 -235 -17l-98 -792q-2 -14 -12 -22.5t-25 -8.5h-291q-12 0 -21.5 7.5t-9.5 19.5z" />
<glyph unicode="s" horiz-adv-x="1026" d="M100 59q0 13 2 21l45 143q8 29 27 29q2 0 5 -1t5 -1q4 -1 29 -7t52 -11.5t62 -12t73 -10.5t71 -4q91 0 129 43q29 29 29 74q0 46 -29 63q-26 18 -98 31q-6 1 -30 5.5t-33.5 7t-30.5 7t-34 9t-30 11t-31.5 14.5t-27.5 17q-90 66 -90 207q0 194 114 297q120 111 383 111 q160 0 328 -47q20 -9 20 -29q0 -2 -1 -6t-1 -6l-45 -146q-5 -22 -32 -22h-11q-112 28 -229 28q-92 0 -131 -32q-31 -24 -31 -74q0 -55 51 -74q26 -12 121 -28q78 -15 132 -38.5t87 -72.5q43 -59 43 -160q0 -161 -84 -266q-125 -154 -413 -154q-116 0 -225 20.5t-152 37.5 q-19 6 -19 26z" />
<glyph unicode="t" horiz-adv-x="876" d="M170 260q0 22 16 158l113 919q6 51 47 56l272 45q2 0 7 1t6 1q35 0 35 -33q0 -1 -1 -3t-1 -3l-39 -326h252q30 0 30 -26v-5l-24 -190q-2 -14 -12 -22.5t-25 -8.5h-252l-51 -399q-11 -74 -11 -98q0 -54 29 -72q24 -21 82 -21q41 0 135 13q1 0 4 1t4 1q19 0 23 -27l10 -147 v-8q0 -36 -35 -46q-1 0 -23 -5.5t-42.5 -10t-52 -9.5t-70 -8t-78.5 -3q-177 0 -262.5 64t-85.5 212z" />
<glyph unicode="u" horiz-adv-x="1249" d="M164 295q0 51 12 145l72 566q6 48 47 53l272 43h13q32 0 32 -31v-8l-77 -621q-13 -101 -13 -131q0 -62 33 -86q31 -22 96 -22q83 0 116 34.5t42 100.5l82 666q6 50 47 55l272 41q2 0 6.5 1t6.5 1q32 0 32 -33v-6l-88 -711q-13 -109 -54.5 -183.5t-113.5 -117 t-162.5 -60.5t-213.5 -18q-220 0 -328 58q-131 70 -131 264z" />
<glyph unicode="v" horiz-adv-x="1179" d="M168 1020v8q0 21 12 34t33 13h270q23 0 33.5 -7.5t13.5 -31.5l66 -817h55l250 817q7 23 20 31t35 8h273q18 0 28.5 -10t10.5 -25q0 -8 -4 -20l-390 -987q-11 -33 -40 -33h-486q-29 0 -33 33z" />
<glyph unicode="w" horiz-adv-x="1908" d="M184 1020v4q0 22 13 36.5t36 14.5h267q24 0 35 -7.5t12 -31.5l20 -817h56l213 764q3 14 14.5 23.5t26.5 9.5h432q32 0 32 -33l33 -764h56l208 817q6 24 18.5 31.5t37.5 7.5h245q39 0 39 -37q0 -6 -4 -18l-327 -987q-3 -14 -14.5 -23.5t-26.5 -9.5h-484q-28 0 -32 33 l-37 723h-4l-220 -723q-11 -33 -41 -33h-481q-15 0 -24 9.5t-11 23.5z" />
<glyph unicode="x" horiz-adv-x="1249" d="M33 25q0 10 4 14l422 502l-260 483q-2 4 -2 12q0 14 11 26.5t19 12.5h289q15 0 22 -1t14 -7t13 -18l166 -336l211 334q11 18 23 23t34 5h287q8 0 15.5 -9.5t7.5 -21.5q0 -11 -6 -20l-377 -483l297 -502q2 -2 2 -8q0 -10 -7 -20.5t-16 -10.5h-315q-21 0 -33 20l-195 357 l-251 -354q-19 -23 -37 -23h-322q-16 0 -16 25z" />
<glyph unicode="y" horiz-adv-x="1167" d="M113 -381q0 6 2 10l20 138q4 47 45 47h4q116 -7 119 -7q80 0 123.5 27.5t65.5 87.5l28 78h-172q-29 0 -33 33l-147 987v8q0 21 13 34t34 13h268q24 0 34 -7t13 -32l68 -817h55l252 817q6 23 19 31t37 8h270q18 0 28.5 -10t10.5 -25q0 -8 -4 -20l-447 -1124 q-32 -81 -64 -134t-83 -100t-126.5 -69.5t-178.5 -22.5q-46 0 -82.5 1t-60.5 3.5t-37.5 4t-28 4.5t-17.5 3q-28 6 -28 33z" />
<glyph unicode="z" horiz-adv-x="1077" d="M94 27v4l17 137q4 23 22 47l520 619h-434q-29 0 -29 24v6l23 180q2 14 12 22.5t25 8.5h833q14 0 22.5 -7t8.5 -19v-5l-18 -139q0 -22 -21 -45l-520 -618h434q14 0 22.5 -7.5t8.5 -19.5v-4l-23 -180q-2 -14 -11.5 -22.5t-24.5 -8.5h-836q-14 0 -22.5 7.5t-8.5 19.5z" />
<glyph unicode="{" horiz-adv-x="897" d="M178 608v6l19 140q1 18 15 30t34 15q73 9 99 48.5t40 151.5l66 531q3 37 34 45l394 98q6 2 14 2q22 0 29 -20l43 -156v-8q0 -11 -8 -20t-17 -13l-203 -78l-53 -432q-11 -94 -57 -147.5t-131 -87.5l-9 -62q67 -30 101.5 -71.5t34.5 -110.5q0 -5 -5 -55l-51 -420l185 -78 q16 -8 16 -25q0 -10 -4 -16l-80 -154q-13 -22 -35 -22q-2 0 -6 1t-6 1l-371 98q-24 8 -24 37q0 2 1 4.5t1 3.5l63 525q8 78 8 94q0 53 -21.5 75.5t-76.5 30.5q-17 1 -28 12.5t-11 26.5z" />
<glyph unicode="|" horiz-adv-x="593" d="M119 -287l227 1843q2 15 14 30.5t29 15.5h207q14 0 24.5 -11t10.5 -28q0 -5 -2 -7l-226 -1843q-3 -20 -16 -32.5t-29 -12.5h-206q-16 0 -24.5 13.5t-8.5 27.5v4z" />
<glyph unicode="}" horiz-adv-x="897" d="M102 -117q0 21 23 33l205 78l51 420q11 96 57 149.5t133 87.5l7 62q-66 30 -100 72t-34 110q0 35 2 53l54 432l-185 78q-16 8 -16 27q0 8 2 14l82 156q13 20 35 20q8 0 12 -2l371 -98q22 -7 22 -37v-8l-65 -531q-6 -59 -6 -96q0 -52 21 -74t77 -30q16 -3 26.5 -14 t10.5 -25v-6l-17 -140q-6 -38 -49 -45q-75 -10 -101 -49t-38 -151l-66 -525q-3 -37 -34 -45l-396 -98q-2 0 -6 -1t-6 -1q-23 0 -29 22l-43 154v8z" />
<glyph unicode="~" d="M215 621v4q0 11 18 24q174 113 306 113q32 0 68 -8t56 -15.5t62 -23.5q6 -2 27 -11t28 -11.5t24.5 -9.5t27 -9t24 -6t26.5 -5t25 -1q81 0 209 79q16 11 21 11q19 0 22 -15l45 -147q2 -4 2 -15v-4q-2 -12 -18 -24q-174 -113 -305 -113q-66 0 -187 47q-8 3 -31.5 13 t-32.5 13.5t-28.5 10.5t-31 9.5t-27.5 5t-31 2.5q-80 0 -209 -80q-17 -11 -20 -11q-20 0 -23 15l-45 147q-2 4 -2 15z" />
<glyph horiz-adv-x="1495" d="M129 514v4l16 146q1 13 11 21.5t24 8.5h1192q11 0 19 -6t8 -16q0 -1 -1 -3t-1 -3l-39 -148q-5 -29 -33 -29h-571q12 -89 41 -138t92.5 -74t175.5 -25q155 0 342 45q8 2 22 2q24 0 27 -25l12 -174v-4q0 -31 -49 -49q-178 -65 -454 -65q-329 -1 -469 117.5t-146 389.5h-192 q-12 0 -19.5 7t-7.5 18zM168 829v5l16 143q1 13 11 22t24 9h189q71 280 242.5 402.5t502.5 121.5q284 -2 438 -68q39 -13 39 -37q0 -4 -4 -16l-53 -174q-9 -25 -35 -25l-20 5q-2 0 -27.5 5.5t-56 11.5t-70.5 12t-87.5 10t-90.5 4q-115 0 -187.5 -27t-113.5 -79t-74 -146h614 q11 0 19 -6.5t8 -16.5q0 -4 -2 -6l-37 -148q-4 -14 -15 -21t-20 -7h-1183q-27 0 -27 26z" />
<glyph horiz-adv-x="487" d="M70 -156l55 453q3 18 16 29.5t27 11.5h235q12 0 22.5 -10t10.5 -23q0 -4 -2 -8l-92 -453q-3 -17 -15 -29t-26 -12h-199q-14 0 -23 10t-9 25v6z" />
<glyph horiz-adv-x="1282" d="M156 -375l211 1139h-162q-33 0 -33 27v8l33 176q4 22 15.5 30.5t31.5 8.5h162l39 209q18 100 52.5 164t94.5 100q85 53 246 53q69 0 142.5 -11.5t109.5 -23.5q30 -8 30 -35v-10l-28 -137q-7 -35 -35 -35q-2 0 -6 1t-6 1q-73 15 -129 15q-63 0 -97 -27q-32 -28 -49 -121 l-26 -143h247q35 0 35 -27q0 -6 -2 -8l-33 -176q-4 -22 -15.5 -30.5t-31.5 -8.5h-243l-213 -1155q-2 -14 -15.5 -24.5t-31.5 -10.5h-248q-45 0 -45 37v14z" />
<glyph horiz-adv-x="911" d="M70 -156l55 453q3 18 16 29.5t27 11.5h235q12 0 22.5 -10t10.5 -23q0 -4 -2 -8l-92 -453q-3 -17 -15 -29t-26 -12h-199q-14 0 -23 10t-9 25v6zM494 -156l55 453q3 18 15.5 29.5t27.5 11.5h233q13 0 23 -10t10 -23v-8l-92 -453q-3 -17 -15 -29t-26 -12h-199q-14 0 -23 10 t-9 25v6z" />
<glyph unicode="&#x85;" horiz-adv-x="2254" d="M207 33q0 1 1 2t1 2l29 244q2 14 18 25t37 11h297q20 0 32.5 -10t12.5 -24v-2l-31 -244q-2 -15 -17 -26t-36 -11h-297q-21 0 -34 10t-13 23zM936 33v4l31 244q2 14 17 25t36 11h297q20 0 32.5 -10t12.5 -24v-2l-29 -244q-3 -15 -18.5 -26t-36.5 -11h-297q-19 0 -32 10 t-13 23zM1663 33v4l31 244q2 14 17 25t36 11h297q21 0 34 -10t13 -24v-2l-31 -244q-2 -15 -17 -26t-38 -11h-297q-20 0 -32.5 9.5t-12.5 23.5z" />
<glyph horiz-adv-x="1490" d="M324 528v4l22 183q4 28 37 28h287l-8 131l69 570q6 50 49 55l297 39q4 2 13 2q34 0 34 -31q0 -6 -2 -8l-75 -627l-39 -131h284q14 0 22.5 -7t8.5 -17v-4l-23 -183q-1 -13 -11.5 -21.5t-24.5 -8.5h-287l8 -131l-88 -705q-6 -50 -47 -55l-297 -39q-4 -2 -12 -2 q-35 0 -35 31v8l94 762l39 131h-287q-28 0 -28 26z" />
<glyph horiz-adv-x="1492" d="M279 158v4l22 180q2 14 12 22.5t25 8.5h285l-7 131l13 104l41 131h-289q-29 0 -29 27v4l23 180q2 14 12 22.5t25 8.5h286l-8 131l41 334q6 50 49 55l297 39h13q34 0 34 -31q0 -4 -2 -8l-47 -389l-39 -131h285q14 0 22.5 -7.5t8.5 -19.5v-4l-23 -180q-1 -13 -12 -22 t-25 -9h-286l8 -131l-13 -104l-40 -131h286q14 0 22.5 -7.5t8.5 -19.5v-4l-23 -180q-2 -14 -11.5 -22.5t-24.5 -8.5h-287l8 -131l-41 -334q-6 -50 -49 -55l-297 -39h-12q-35 0 -35 31v8l49 389l39 131h-287q-12 0 -20 7.5t-8 19.5z" />
<glyph horiz-adv-x="1036" d="M324 1356q0 13 10 18l344 215h72l290 -215q9 -4 9 -14q0 -4 -9 -17l-114 -129q-8 -10 -23 -10q-6 0 -14 4l-201 174l-244 -174q-8 -4 -16 -4q-13 0 -18 10l-84 129q-2 4 -2 13z" />
<glyph horiz-adv-x="2682" d="M164 1028q0 106 24 205q28 132 101 205q102 102 299 102q192 0 270 -98q53 -69 53 -195q0 -121 -26 -225q-30 -118 -101 -186q-98 -101 -295 -101q-172 0 -253 78q-72 72 -72 215zM317 104q0 5 5 15l1212 1390q6 9 18 9q6 0 11 -5l143 -94q6 -6 6 -14q0 -4 -4 -12 l-1212 -1393q-6 -6 -17 -6q-8 0 -12 2l-143 96q-7 4 -7 12zM420 1040q0 -59 20 -85.5t72 -26.5q58 0 85.5 32.5t41.5 106.5q18 99 18 170v2q0 57 -20.5 82t-73.5 25q-50 0 -76.5 -23.5t-40.5 -77.5q-26 -89 -26 -205zM1120 268q0 85 25 203q28 134 102 205q99 102 297 102 q193 0 271 -98q55 -68 55 -195q0 -109 -29 -225q-30 -118 -98 -186q-101 -101 -297 -101q-173 0 -254 78q-72 72 -72 217zM1376 279q0 -59 20.5 -85t73.5 -26q58 0 85.5 32t39.5 105q19 101 19 170v2q0 57 -20.5 82t-71.5 25t-78 -23.5t-41 -75.5q-27 -106 -27 -206z M1956 268q0 90 24 203q28 133 103 205q99 102 297 102q192 0 270 -98q55 -65 55 -195q0 -113 -28 -225q-30 -117 -99 -186q-101 -101 -297 -101q-172 0 -253 78q-72 72 -72 217zM2212 279q0 -59 20.5 -85t73.5 -26q58 0 85.5 32t39.5 105q18 95 18 170v2q0 57 -20.5 82 t-71.5 25t-78 -23.5t-41 -75.5q-26 -102 -26 -206z" />
<glyph horiz-adv-x="1445" d="M158 96q0 13 2 17l49 170q10 34 41 34q14 0 22 -2q5 -1 42.5 -10.5t76 -18t90 -18.5t107.5 -16t106 -6q170 0 236 63q53 50 53 135q0 81 -80 117q-11 5 -22.5 9t-27 8t-27 6.5t-32 6.5t-31 5.5t-35 5.5t-34.5 6q-222 33 -321 117q-117 89 -117 272q0 106 37 208t108 173 q161 158 514 158q107 0 222 -16t170.5 -29t93.5 -25q39 -9 39 -41q0 -12 -2 -18l-52 -168q-11 -33 -40 -33h-9q-7 2 -55 13t-60.5 13.5t-53 11t-61 11.5t-55 7.5t-64.5 6t-62 1.5q-135 0 -201 -41q-76 -49 -76 -146q0 -83 92 -120q53 -18 203 -41q113 -17 194.5 -41.5 t139.5 -73.5q108 -88 108 -291q0 -205 -116 -338q-168 -201 -545 -201q-128 0 -258 18t-190.5 33.5t-90.5 26.5q-28 8 -28 41zM623 1858q0 10 6 16l114 125q10 10 23 10q10 0 14 -4l201 -174l246 174q4 4 14 4q13 0 21 -10l81 -125q5 -2 5 -10q0 -11 -13 -21l-342 -213h-73 l-289 213q-8 5 -8 15z" />
<glyph horiz-adv-x="790" d="M170 588q0 18 12 30l414 474q11 14 35 14q10 0 12 -2l158 -94q10 -7 10 -25q0 -12 -6 -18l-340 -375l248 -373q2 -2 2 -10q0 -9 -5.5 -18.5t-11.5 -12.5l-180 -96q-4 -2 -12 -2q-25 0 -33 14l-297 473q-6 9 -6 21z" />
<glyph horiz-adv-x="2310" d="M195 537q0 141 25 299.5t71 281.5q27 75 63.5 136t92.5 115.5t126.5 91.5t168 58t214.5 21q105 0 206 -33t153 -98l8 72q6 32 41 32h958q14 0 22.5 -7t8.5 -19v-4l-26 -213q-2 -14 -12 -22.5t-25 -8.5h-676l-39 -330h643q31 0 31 -24v-4l-27 -215q-1 -14 -12 -22.5 t-25 -8.5h-645l-43 -363h674q14 0 22.5 -7t8.5 -19v-4l-27 -211q-2 -14 -12 -22.5t-25 -8.5h-960q-33 0 -33 27q0 1 1 3t1 3l8 71q-69 -65 -177.5 -98t-213.5 -33q-301 0 -440 142q-73 71 -101 176.5t-28 245.5zM586 498q0 -153 55 -213q56 -62 182 -62q155 0 227 88 t107 295q41 223 41 387q0 158 -53.5 226.5t-190.5 68.5q-154 0 -223 -87t-104 -296q-41 -237 -41 -407z" />
<glyph horiz-adv-x="1445" d="M104 27v4l23 190q3 27 27 55l854 965h-734q-28 0 -28 27v4l24 211q1 13 12 21.5t25 8.5h1176q13 0 21.5 -7.5t8.5 -18.5v-4l-24 -207q-2 -20 -21 -43l-864 -961h754q14 0 22.5 -7t8.5 -19q-1 -2 -3 -4l-24 -211q-1 -13 -12 -22t-25 -9h-1190q-13 0 -22 8t-9 19zM582 1858 q0 11 8 16l112 125q10 10 23 10q6 0 14 -4l203 -174l244 174q8 4 14 4q14 0 21 -10l84 -125q2 -2 2 -10q0 -13 -11 -21l-344 -213h-71l-291 213q-8 5 -8 15z" />
<glyph horiz-adv-x="573" d="M215 1016q0 14 4 22l191 443q6 13 20.5 22.5t26.5 9.5h178q11 0 21 -10.5t10 -23.5v-13l-121 -446q-4 -18 -19.5 -29.5t-33.5 -11.5h-242q-15 0 -25 11t-10 26z" />
<glyph horiz-adv-x="573" d="M215 1016v10l121 447q4 18 19.5 29t33.5 11h242q15 0 25 -10.5t10 -25.5t-4 -23l-191 -440q-6 -14 -20.5 -24.5t-26.5 -10.5h-178q-11 0 -21 11.5t-10 25.5z" />
<glyph horiz-adv-x="1032" d="M215 1016q0 14 4 22l191 443q6 13 20.5 22.5t26.5 9.5h178q11 0 21 -10.5t10 -23.5v-13l-121 -446q-4 -18 -19.5 -29.5t-33.5 -11.5h-242q-15 0 -25 11t-10 26zM672 1016q0 6 4 22l192 443q6 13 19.5 22.5t27.5 9.5h177q12 0 22 -10.5t10 -23.5q0 -2 -1 -6.5t-1 -6.5 l-118 -446q-6 -18 -21 -29.5t-33 -11.5h-243q-15 0 -25 11t-10 26z" />
<glyph horiz-adv-x="1032" d="M215 1016v10l121 447q4 18 19.5 29t33.5 11h242q15 0 25 -10.5t10 -25.5t-4 -23l-191 -440q-6 -14 -20.5 -24.5t-26.5 -10.5h-178q-11 0 -21 11.5t-10 25.5zM672 1016q0 6 2 10l119 447q4 18 19.5 29t33.5 11h241q15 0 26 -10.5t11 -25.5q0 -11 -6 -23l-190 -440 q-6 -15 -19.5 -25t-27.5 -10h-179q-11 0 -20.5 11t-9.5 26z" />
<glyph horiz-adv-x="851" d="M219 512v12l45 365q5 37 34.5 63.5t66.5 26.5h362q34 0 57 -23t23 -55q0 -8 -2 -12l-45 -365q-3 -37 -32 -63.5t-66 -26.5h-365q-33 0 -55.5 22.5t-22.5 55.5z" />
<glyph horiz-adv-x="1054" d="M18 473v4l21 170q2 14 18 24.5t37 10.5h1034q20 0 33 -9.5t13 -23.5v-2l-21 -170q-1 -16 -18.5 -25.5t-34.5 -9.5h-1034q-16 0 -32 8.5t-16 22.5z" />
<glyph horiz-adv-x="2248" d="M49 473v4l21 170q2 14 19 24.5t38 10.5h2167q20 0 32.5 -9.5t12.5 -23.5v-2l-21 -170q-3 -16 -20.5 -25.5t-36.5 -9.5h-2165q-15 0 -31 8.5t-16 22.5z" />
<glyph horiz-adv-x="1101" d="M332 1389v4q2 12 18 24q157 117 252 117h4q60 0 144 -51q1 -1 23.5 -14.5t31.5 -18t26.5 -11t30.5 -7.5h2q47 0 156 81q11 11 20 11q18 0 21 -15l47 -118q2 -4 2 -13v-6q-2 -10 -18 -22q-152 -119 -252 -119h-6q-62 2 -142 51q-1 1 -23.5 14.5t-31.5 18t-26.5 11 t-30.5 7.5h-2q-22 0 -53 -15t-50 -28t-53 -39q-15 -10 -21 -10q-16 0 -22 14l-45 119q-2 4 -2 15z" />
<glyph horiz-adv-x="2136" d="M201 1348v6l14 123q6 36 47 36h785q36 0 36 -28q0 -6 -2 -8l-14 -123q-3 -37 -43 -37h-266l-82 -666q-6 -39 -43 -39h-178q-35 0 -35 31v8l82 666h-264q-37 0 -37 31zM1012 641q0 2 1 5t1 5l155 826q6 36 45 36h353q25 0 30 -28l41 -457h11l159 457q3 10 13 19t22 9h346 q20 0 27.5 -7t7.5 -25v-4l-45 -826q-3 -39 -45 -39h-172q-35 0 -35 33v4l41 651h-31l-180 -464q-10 -29 -35 -29h-233q-24 0 -29 29l-63 464h-29l-115 -651q-6 -37 -43 -37h-161q-37 0 -37 29z" />
<glyph horiz-adv-x="1026" d="M100 59q0 13 2 21l45 143q8 29 27 29q2 0 5 -1t5 -1q4 -1 29 -7t52 -11.5t62 -12t73 -10.5t71 -4q91 0 129 43q29 29 29 74q0 46 -29 63q-26 18 -98 31q-6 1 -30 5.5t-33.5 7t-30.5 7t-34 9t-30 11t-31.5 14.5t-27.5 17q-90 66 -90 207q0 194 114 297q120 111 383 111 q160 0 328 -47q20 -9 20 -29q0 -2 -1 -6t-1 -6l-45 -146q-5 -22 -32 -22h-11q-112 28 -229 28q-92 0 -131 -32q-31 -24 -31 -74q0 -55 51 -74q26 -12 121 -28q78 -15 132 -38.5t87 -72.5q43 -59 43 -160q0 -161 -84 -266q-125 -154 -413 -154q-116 0 -225 20.5t-152 37.5 q-19 6 -19 26zM338 1430q0 10 6 16l115 125q10 10 22 10q9 0 13 -4l202 -174l244 174q8 4 16 4q12 0 19 -10l84 -125q4 -8 4 -10q0 -15 -12 -21l-342 -215h-74l-291 215q-6 6 -6 15z" />
<glyph horiz-adv-x="790" d="M127 203q0 10 6 16l340 373l-248 375q-4 2 -4 10q0 19 19 33l180 94q2 2 12 2q22 0 33 -14l297 -474q6 -9 6 -20q0 -19 -12 -31l-414 -473q-11 -14 -35 -14q-10 0 -12 2l-158 96q-10 3 -10 25z" />
<glyph horiz-adv-x="1873" d="M135 375q0 106 21 231t57 211q58 139 182 213t348 74q69 0 125 -10.5t87.5 -24.5t54.5 -32t30 -27.5t11 -16.5q5 7 18 17.5t43 27.5t67.5 30.5t97 23.5t126.5 10q228 0 342 -72q129 -83 129 -280q0 -166 -96 -246q-35 -28 -85.5 -47.5t-97.5 -30.5t-126.5 -18 t-130.5 -9.5t-152 -5.5l-31 -2q0 -4 -1 -12.5t-1 -13.5q0 -95 84 -132q63 -28 186 -28q43 0 92.5 7t78 13.5t70.5 17.5l42 11h8q25 0 31 -35l14 -125v-8q0 -31 -28 -43q-185 -70 -418 -70q-74 0 -137 10.5t-101 24.5t-67 30.5t-40 27.5t-14 16q-5 -6 -18.5 -16.5t-44.5 -27 t-69 -30.5t-97 -24.5t-123 -10.5q-221 0 -336 78q-72 51 -101.5 131t-29.5 193zM496 362q0 -87 30 -120q33 -33 113 -33q95 0 132.5 48t57.5 171q31 190 31 272q0 90 -22 123q-29 45 -119 45q-53 0 -87 -13.5t-55.5 -47t-33.5 -76t-23 -115.5q-24 -197 -24 -254zM1176 578 q22 1 72.5 2.5t76 3t62 6t62 13.5t44.5 22q45 36 45 102q0 69 -33 102q-39 45 -123 45q-125 0 -174 -116q-32 -74 -32 -180z" />
<glyph horiz-adv-x="1077" d="M94 27v4l17 137q4 23 22 47l520 619h-434q-29 0 -29 24v6l23 180q2 14 12 22.5t25 8.5h833q14 0 22.5 -7t8.5 -19v-5l-18 -139q0 -22 -21 -45l-520 -618h434q14 0 22.5 -7.5t8.5 -19.5v-4l-23 -180q-2 -14 -11.5 -22.5t-24.5 -8.5h-836q-14 0 -22.5 7.5t-8.5 19.5z M358 1432q0 5 9 14l114 125q9 12 21 12q8 0 14 -6l203 -172l244 172q6 6 14 6q11 0 20 -12l84 -125q2 -2 2 -10q0 -14 -10 -21l-344 -213h-72l-290 213q-9 9 -9 17z" />
<glyph horiz-adv-x="1546" d="M178 1470q0 13 14.5 28t20.5 15h365q21 0 29.5 -6.5t17.5 -29.5l272 -621l410 621q13 23 23 29.5t32 6.5h348q12 0 18.5 -8.5t6.5 -19.5q0 -15 -4 -23l-687 -907l-63 -524q-1 -13 -12 -22t-25 -9h-317q-14 0 -22.5 7.5t-8.5 19.5v4l63 520l-479 909q-2 4 -2 10zM559 1741 v4l23 170q2 14 16.5 24.5t34.5 10.5h244q20 0 32.5 -9.5t12.5 -23.5v-2l-21 -170q-2 -14 -17 -25.5t-36 -11.5h-244q-19 0 -32 10t-13 23zM1069 1741v4l21 170q2 14 17 24.5t36 10.5h243q20 0 32 -9.5t12 -23.5v-2l-21 -170q-2 -14 -17 -25.5t-36 -11.5h-244q-19 0 -31 10 t-12 23z" />
<glyph unicode="&#xa1;" horiz-adv-x="737" d="M186 53q0 2 1 7.5t1 7.5l160 956q2 12 12 20.5t23 8.5h238q28 0 28 -27v-2l-82 -1014q-5 -37 -43 -37h-12l-289 41q-37 3 -37 39zM342 1219v8l31 241q1 20 14 32.5t31 12.5h287q15 0 25.5 -10.5t10.5 -27.5q0 -5 -2 -7l-28 -241q-3 -20 -16.5 -32.5t-30.5 -12.5h-287 q-15 0 -25 10t-10 27z" />
<glyph unicode="&#xa2;" horiz-adv-x="1056" d="M137 383q0 118 23 244t67 215q54 110 146.5 172t238.5 80l17 141q2 15 14.5 30t30.5 15h155q14 0 23.5 -11t9.5 -28v-6l-16 -137q85 -7 156.5 -23.5t103.5 -32.5q20 -11 20 -30q0 -11 -2 -17l-45 -141q-11 -27 -37 -27q-4 0 -9 1l-5 1q-124 33 -217 33 q-114 0 -175.5 -38.5t-92.5 -129.5q-41 -118 -41 -256q0 -130 55 -180q54 -45 174 -45q90 0 225 33q2 0 7 1t8 1q27 0 30 -27l11 -141v-6q0 -28 -31 -41q-35 -16 -110 -31.5t-162 -21.5l-17 -138q-3 -20 -16.5 -33.5t-28.5 -13.5h-155q-17 0 -25 13t-8 28v6l16 140 q-210 29 -287 159q-51 87 -51 242z" />
<glyph unicode="&#xa3;" horiz-adv-x="1433" d="M117 29q0 2 2 4l22 188q1 11 2 15.5t5 12.5t14 12.5t26 6.5q151 22 222 99t71 202q0 54 -19.5 213.5t-19.5 247.5q0 222 123 356q146 154 473 154q135 0 253 -22.5t190 -47.5q16 -6 16 -26q0 -10 -2 -14l-61 -191q-7 -20 -31 -20q-8 0 -12 2q-9 2 -50.5 11.5t-75 16 t-83.5 13t-92 6.5q-167 0 -236 -62q-61 -54 -61 -162q0 -19 1 -42t2.5 -42t3 -35t2.5 -26l1 -10h387q29 0 29 -25v-6l-25 -209q-1 -15 -12 -23t-27 -8h-328q2 -30 2 -71q0 -93 -38 -160q-14 -26 -34.5 -48.5t-35 -33.5t-33 -23t-20.5 -14l637 11h2q12 0 20 -8.5t8 -20.5 q0 -1 -1 -2t-1 -2l-24 -213q-1 -13 -12 -23t-25 -10h-1127q-12 0 -20 8.5t-8 20.5z" />
<glyph unicode="&#xa4;" horiz-adv-x="1583" d="M305 387q0 13 10 21l138 110q-17 66 -17 115q0 72 17 133q13 51 45 113l-111 110q-6 6 -6 15q0 12 16 28l164 148q18 12 29 12t16 -8l101 -103q103 39 223 39t213 -39l125 103q8 8 18 8q9 0 27 -12l127 -148q10 -10 10 -22q0 -14 -10 -21l-137 -110q16 -62 16 -115 q0 -76 -16 -133q-12 -47 -46 -113l111 -110q6 -6 6 -15q0 -12 -16 -28l-164 -148q-18 -12 -29 -12t-16 8l-100 102q-103 -39 -224 -39q-120 0 -213 39l-125 -102q-8 -8 -18 -8q-9 0 -27 12l-127 148q-10 10 -10 22zM680 635q0 -81 35 -113q38 -35 137 -35q83 0 127.5 23.5 t67.5 77.5q28 76 28 174q0 80 -35 112q-38 35 -137 35q-82 0 -126.5 -23t-67.5 -77q-29 -79 -29 -174z" />
<glyph unicode="&#xa5;" horiz-adv-x="1505" d="M176 1462q0 15 15 33t34 18h344q23 0 35 -7.5t21 -28.5l249 -635l388 635q13 22 27 29t36 7h328q16 0 26.5 -14t10.5 -29q0 -8 -4 -12l-457 -616h246q12 0 19 -7t7 -18v-6l-18 -156q-1 -8 -9.5 -15.5t-16 -11t-9.5 -3.5h-1237q-12 0 -20.5 7t-8.5 19v4l21 156q1 13 11 22 t24 9h256l-316 614q-2 2 -2 6zM229 346v4l19 150q2 12 12 21t23 9h1069q12 0 19 -7.5t7 -18.5v-4l-18 -150q-1 -13 -11 -22t-24 -9h-330l-34 -288q-7 -31 -39 -31h-316q-14 0 -22.5 7.5t-8.5 19.5v4l35 288h-354q-12 0 -19.5 7.5t-7.5 19.5z" />
<glyph unicode="&#xa6;" horiz-adv-x="645" d="M143 -313l86 696q2 16 14 30.5t29 14.5h207q14 0 23.5 -10.5t9.5 -28.5v-6l-86 -696q-1 -20 -14 -32.5t-29 -12.5h-207q-17 0 -25 13t-8 28v4zM260 637v4l86 696q2 16 14 30.5t29 14.5h207q14 0 24.5 -11t10.5 -28q0 -1 -1 -3t-1 -3l-84 -696q-3 -20 -16 -32.5t-29 -12.5 h-207q-16 0 -24.5 13.5t-8.5 27.5z" />
<glyph unicode="&#xa7;" horiz-adv-x="1585" d="M193 -309q0 10 6 28l47 140q11 35 39 35q9 0 18 -3l35 -9q36 -10 57.5 -15.5t67.5 -15.5t84 -16t89.5 -10.5t98.5 -4.5q147 0 215 41q64 42 64 114t-86 101q-46 14 -203 30q-66 7 -125 15q-188 28 -278 92q-103 76 -103 229q0 127 78 220q40 49 98.5 83.5t96.5 44.5l38 9 l7 53q-66 25 -117 84q-60 75 -60 178q0 57 20 118.5t54 108.5q55 82 150 127q144 72 395 72q116 0 245 -19.5t226 -64.5q23 -12 23 -29q0 -2 -1.5 -6t-1.5 -6l-47 -147q-7 -25 -14.5 -33t-19.5 -8q-7 0 -23 4q-3 1 -83.5 18.5t-157.5 28t-156 10.5q-144 0 -205 -41 q-62 -43 -62 -112q0 -77 74 -105q48 -17 195 -33q22 -3 66 -8t65 -8q212 -29 297 -90q102 -73 102 -236q0 -123 -67 -209q-26 -33 -60.5 -60t-66 -42.5t-59 -26t-44.5 -14.5l-16 -4l-6 -53q9 -3 24 -10t51 -34.5t60 -62.5q45 -65 45 -155q0 -94 -45 -179q-58 -114 -180 -170 q-143 -65 -404 -65q-300 0 -520 92q-20 7 -20 29zM571 535q0 -56 41 -91q46 -36 140 -45q4 -1 94 -8.5t96 -7.5q113 23 164 76q43 46 43 104q0 55 -33 88q-38 38 -121 47q-2 0 -95.5 10.5t-96.5 10.5q-26 0 -79.5 -16t-92.5 -50q-60 -50 -60 -118z" />
<glyph unicode="&#xa8;" horiz-adv-x="1138" d="M305 1305v4l21 170q2 14 17 24t36 10h244q20 0 32.5 -9t12.5 -23v-2l-23 -170q-2 -14 -16.5 -25.5t-34.5 -11.5h-244q-19 0 -32 10t-13 23zM813 1305v4l21 170q3 14 18 24t35 10h243q20 0 33 -9t13 -23v-2l-21 -170q-2 -14 -17 -25.5t-36 -11.5h-244q-19 0 -32 10t-13 23 z" />
<glyph unicode="&#xa9;" horiz-adv-x="1966" d="M193 555q0 163 35 337.5t104 293.5q101 181 301 267.5t538 86.5q376 0 560 -106q120 -69 174.5 -186.5t54.5 -289.5q0 -163 -35 -337t-104 -293q-101 -181 -302 -268t-540 -87q-371 0 -557 107q-120 69 -174.5 186t-54.5 289zM399 573q0 -57 7 -104.5t23.5 -94.5 t49.5 -85.5t80 -65.5q135 -76 445 -76q70 0 126.5 3.5t123.5 12.5t121.5 28.5t108 48.5t96.5 74.5t73 105.5q48 95 74 242.5t26 277.5q0 57 -7 104.5t-23.5 94.5t-49.5 85.5t-80 65.5q-135 76 -444 76q-71 0 -127 -3.5t-123.5 -12.5t-122 -28t-108 -48t-96 -74.5 t-72.5 -105.5q-48 -95 -74.5 -243.5t-26.5 -277.5zM668 635q0 98 20 206.5t57 180.5q52 101 151 153t263 52q139 0 281 -51q20 -9 20 -23q0 -2 -1 -6t-1 -6l-33 -103q-6 -16 -24 -16q-2 0 -5 1t-5 1q-3 1 -33 9t-51.5 13t-56.5 10t-64 5q-100 0 -156 -32t-86 -105 q-20 -51 -31.5 -124.5t-11.5 -135.5q0 -92 31 -134q45 -63 180 -63q30 0 67 4.5t60 9.5t54 12t32 7q4 2 12 2q19 0 19 -17l8 -100v-4q0 -21 -25 -31q-150 -49 -295 -49q-209 0 -299 90q-77 77 -77 244z" />
<glyph unicode="&#xaa;" horiz-adv-x="960" d="M215 641v4l10 80q2 12 12 20.5t23 8.5h602q13 0 21 -7t8 -18v-4l-10 -80q-1 -13 -11 -22t-24 -9h-602q-29 0 -29 27zM260 1044q0 96 57 150q25 25 66 41.5t71 23t89 15.5l207 33q2 29 2 43q0 30 -25 41q-22 12 -98 12q-79 0 -244 -33q-12 -4 -16 -4q-12 0 -15 14l-8 90v3 q0 21 29 28q153 39 309 39q129 0 188 -27q68 -33 68 -120q0 -39 -10 -127l-31 -256q-7 -69 -36 -96t-109 -42q-66 -16 -185 -16q-141 0 -207 27q-102 42 -102 161zM455 1059q0 -47 45 -64q23 -10 86 -10q68 0 125 14l22 179l-178 -27q-53 -8 -72 -25q-28 -20 -28 -67z" />
<glyph unicode="&#xab;" horiz-adv-x="1261" d="M168 588q0 17 10 30l414 474q14 14 37 14q10 0 12 -2l156 -94q12 -8 12 -25q0 -12 -6 -18l-342 -375l250 -373q2 -2 2 -10q0 -9 -6.5 -18.5t-12.5 -12.5l-180 -96q-2 -2 -12 -2q-22 0 -33 14l-297 473q-4 6 -4 21zM659 588q0 17 13 30l413 474q14 14 37 14q9 0 13 -2 l135 -94q12 -8 12 -27q0 -11 -8 -16l-340 -375l248 -373q4 -4 4 -10q0 -9 -6.5 -18.5t-12.5 -12.5l-159 -96q-2 -2 -13 -2q-24 0 -32 14l-297 473q-7 11 -7 21z" />
<glyph unicode="&#xac;" d="M174 598v4l19 156q2 17 18 30t37 13h977q21 0 32 -13t11 -26v-4l-54 -426q-2 -15 -16.5 -29t-36.5 -14h-186q-19 0 -32 11t-13 28v4l28 227h-741q-15 0 -29 10.5t-14 28.5z" />
<glyph unicode="&#xad;" horiz-adv-x="845" d="M154 481v4l18 152q2 17 18 30t37 13h561q20 0 31.5 -10.5t11.5 -26.5v-6l-18 -152q-3 -19 -19.5 -30t-35.5 -11h-561q-14 0 -28.5 10t-14.5 27z" />
<glyph unicode="&#xae;" horiz-adv-x="1966" d="M193 555q0 163 35 337.5t104 293.5q101 181 301 267.5t538 86.5q376 0 560 -106q120 -69 174.5 -186.5t54.5 -289.5q0 -163 -35 -337t-104 -293q-101 -181 -302 -268t-540 -87q-371 0 -557 107q-120 69 -174.5 186t-54.5 289zM399 573q0 -57 7 -104.5t23.5 -94.5 t49.5 -85.5t80 -65.5q135 -76 445 -76q70 0 126.5 3.5t123.5 12.5t121.5 28.5t108 48.5t96.5 74.5t73 105.5q48 95 74 242.5t26 277.5q0 57 -7 104.5t-23.5 94.5t-49.5 85.5t-80 65.5q-135 76 -444 76q-71 0 -127 -3.5t-123.5 -12.5t-122 -28t-108 -48t-96 -74.5 t-72.5 -105.5q-48 -95 -74.5 -243.5t-26.5 -277.5zM664 342v2l104 836q0 9 7.5 14.5t17.5 5.5h415q149 0 217 -51q64 -48 64 -152q0 -108 -47 -168q-57 -69 -189 -86l-4 -34q83 -3 129 -27q62 -32 62 -119v-20q0 -23 -2 -35l-11 -164q0 -3 -6 -11.5t-14 -8.5h-190 q-19 0 -19 16v2l10 172q0 6 1 27t1 30q0 43 -34 60q-27 16 -123 20l-121 4l-39 -311q-3 -20 -23 -20h-186q-20 0 -20 18zM948 791l142 6q101 3 135 51q26 38 26 104q0 50 -28 72q-33 23 -97 23h-147z" />
<glyph unicode="&#xaf;" horiz-adv-x="958" d="M332 1454v4q0 19 9 27.5t30 13.5q132 39 297 39q164 0 286 -39q33 -7 33 -29q0 -4 -4 -16l-35 -123q-8 -26 -37 -26q-6 0 -22 4q-139 30 -246 30q-109 0 -252 -30q-16 -4 -24 -4q-29 0 -29 26z" />
<glyph unicode="&#xb0;" horiz-adv-x="866" d="M244 1204q0 129 106 228q118 108 273 108q134 0 221 -84q84 -81 84 -196q0 -120 -103 -220q-55 -53 -127.5 -83.5t-150.5 -30.5q-139 0 -225 86q-78 75 -78 192zM428 1219q0 -58 39 -91q39 -36 100 -36q79 0 131 55q43 43 43 104q0 48 -41 86q-40 37 -100 37 q-65 0 -117 -45q-55 -48 -55 -110z" />
<glyph unicode="&#xb1;" d="M141 39v6l19 150q2 19 17.5 32t37.5 13h905q20 0 32.5 -11.5t12.5 -27.5q0 -4 -2 -6l-18 -150q-1 -20 -18.5 -32.5t-34.5 -12.5h-908q-15 0 -29 10.5t-14 28.5zM219 686v6l21 158q3 41 47 41h317l33 260q6 43 45 43h197q36 0 36 -35q0 -1 -1 -3.5t-1 -4.5l-30 -260h313 q39 0 39 -33v-8l-21 -156q-3 -41 -47 -41h-315l-31 -258q-5 -43 -45 -43h-198q-37 0 -37 33q0 2 1 5t1 5l30 258h-315q-39 0 -39 33z" />
<glyph unicode="&#xb2;" horiz-adv-x="1116" d="M231 594v4l27 209q4 35 25 67t49 50q23 16 92 54t126 68l58 29q19 10 56.5 29.5t59.5 32.5t38 28q43 40 43 103q0 48 -39 67q-37 19 -117 19q-103 0 -295 -45h-6q-12 0 -21.5 8.5t-11.5 19.5l-8 103v4q0 30 33 45q160 51 379 51q172 0 258 -51q96 -55 96 -193 q0 -119 -82 -217q-78 -91 -221 -157l-272 -129l-4 -33l483 12h2q13 0 25 -8.5t12 -24.5v-4l-19 -137q-2 -15 -14.5 -26t-30.5 -11h-680q-17 0 -29 9.5t-12 23.5z" />
<glyph unicode="&#xb3;" horiz-adv-x="1093" d="M252 608q0 9 2 13l27 106q6 27 34 27q9 0 13 -2q102 -25 233 -25q126 0 168 45q33 38 33 84q0 54 -41 72q-31 15 -96 22q-38 5 -97 15q-8 0 -21 7.5t-13 20.5l2 4l12 103q1 10 6 17t10.5 9.5t11.5 4.5l7 2q22 4 56.5 7.5t41.5 4.5q34 6 48.5 8.5t36.5 11t36 21.5 q33 26 33 84q0 42 -31 63q-35 21 -123 21q-34 0 -74.5 -5t-68.5 -10.5t-74.5 -15.5t-67.5 -14q-2 0 -6 -1t-6 -1q-27 0 -27 30l-10 105v4q0 26 33 39q51 17 159 36t216 19q180 0 264 -59q82 -57 82 -166q0 -88 -47 -146q-60 -82 -189 -100l-4 -31q107 -13 154 -57 q51 -45 51 -127q0 -118 -78 -199q-111 -114 -356 -114q-88 0 -183.5 12.5t-134.5 26.5q-22 11 -22 28z" />
<glyph unicode="&#xb4;" horiz-adv-x="768" d="M305 1348q0 14 12 20l363 231q10 7 16 7q12 0 19 -13l88 -139q4 -8 4 -12q0 -13 -12 -19l-371 -221q-12 -4 -16 -4q-14 0 -19 10l-80 129q-4 8 -4 11z" />
<glyph unicode="&#xb5;" horiz-adv-x="1259" d="M86 -391l172 1397q6 47 47 55l273 41h12q33 0 33 -31v-8l-101 -819q88 -31 172 -31q68 0 92 19.5t31 84.5l84 689q6 47 49 55l271 41h12q35 0 35 -31q0 -4 -2 -8l-99 -805q-19 -155 -91.5 -220t-223.5 -65q-193 0 -385 64l14 -135l-30 -236q-3 -25 -13.5 -38t-34.5 -17 l-270 -41h-12q-35 0 -35 31v8z" />
<glyph unicode="&#xb6;" horiz-adv-x="1558" d="M199 915q0 202 75 349q36 73 89.5 122t122 72.5t134 32t150.5 8.5h354q50 0 50 -33v-8l-222 -1798q-6 -51 -49 -59l-190 -31h-13q-36 0 -36 33q0 4 2 8l114 934l-127 -2q-12 -2 -35 -2q-224 0 -325 98q-94 91 -94 276zM526 944q0 -90 56 -127q43 -28 176 -31h51l59 476 h-53q-110 -2 -166 -22t-86 -85q-37 -81 -37 -211zM1100 -348l221 1798q6 52 47 59l191 31h12q37 0 37 -33v-8l-222 -1798q-6 -52 -47 -59l-190 -31q-2 0 -6 -1t-6 -1q-37 0 -37 35v8z" />
<glyph unicode="&#xb7;" horiz-adv-x="516" d="M145 457v8l29 231q3 20 16.5 32.5t30.5 12.5h256q15 0 25 -11t10 -28v-6l-29 -231q-1 -19 -15 -32t-30 -13h-256q-16 0 -26.5 10t-10.5 27z" />
<glyph unicode="&#xb8;" horiz-adv-x="724" d="M102 -379l17 64q3 16 24 16h9q81 -12 110 -12q54 0 74 20q22 17 22 55q0 34 -24 46q-16 8 -55 8q-65 0 -119 -8q-6 -3 -10 -3q-18 0 -21 19v61q0 23 21 27q76 20 198 20q108 0 154 -30q53 -36 53 -119q0 -96 -51 -150q-57 -63 -201 -63q-100 0 -186 22q-15 4 -15 21v6z " />
<glyph unicode="&#xb9;" horiz-adv-x="888" d="M315 1346q0 4 2 6l13 112q6 30 39 33l364 43h4q13 0 22 -11.5t9 -25.5q0 -4 -2 -6l-109 -893q-3 -19 -15.5 -31t-27.5 -12h-172q-14 0 -23 10t-9 27v6l88 707l-150 10q-33 3 -33 25z" />
<glyph unicode="&#xba;" horiz-adv-x="960" d="M229 639v6l11 78q1 13 11.5 22t22.5 9h605q12 0 20 -7t8 -18q0 -4 -2 -6l-8 -78q-1 -13 -12 -22t-25 -9h-602q-12 0 -20.5 7.5t-8.5 17.5zM281 1128q0 163 63 269q87 143 328 143q152 0 229 -57q80 -59 80 -191q0 -154 -45 -256q-83 -180 -348 -180q-169 0 -246 70 q-36 35 -48.5 84t-12.5 118zM473 1108q0 -65 27 -95t104 -30q75 0 111.5 30t50.5 91q22 90 22 182q0 68 -26 94q-34 31 -105 31q-78 0 -113.5 -30.5t-49.5 -94.5q-21 -100 -21 -178z" />
<glyph unicode="&#xbb;" horiz-adv-x="1261" d="M127 203q0 10 6 16l340 373l-248 375q-4 2 -4 10q0 19 19 33l159 94q2 2 13 2q24 0 32 -14l297 -474q7 -10 7 -20q0 -18 -13 -31l-413 -473q-11 -14 -35 -14q-11 0 -13 2l-137 96q-10 10 -10 25zM596 203q0 11 8 16l338 373l-248 375q-4 4 -4 10q0 19 19 33l180 94 q4 2 12 2q25 0 33 -14l299 -474q4 -12 4 -20q0 -19 -12 -31l-412 -473q-14 -14 -37 -14q-8 0 -12 2l-156 96q-12 4 -12 25z" />
<glyph unicode="&#xbc;" horiz-adv-x="2299" d="M315 1346q0 4 2 6l13 112q6 30 39 33l364 43h4q13 0 22 -11.5t9 -25.5q0 -4 -2 -6l-109 -893q-3 -19 -15.5 -31t-27.5 -12h-172q-14 0 -23 10t-9 27v6l88 707l-150 10q-33 3 -33 25zM467 109q0 14 4 14l1104 1386q6 9 16 9q2 0 5.5 -1t5.5 -1l139 -105q6 -3 6 -12 q0 -7 -4 -15l-1106 -1386q-8 -8 -16 -8q-5 0 -9 4l-141 102q-4 4 -4 13zM1237 242v6l16 133q5 31 27 55l432 502q5 8 18.5 15.5t22.5 7.5h307q13 0 23 -11t10 -26v-6l-63 -523h102q18 0 29.5 -10t11.5 -25v-4l-14 -114q-1 -15 -16 -26t-34 -11h-98l-20 -162 q-1 -18 -14 -30.5t-29 -12.5h-162q-15 0 -25 11t-10 26v6l21 162h-500q-15 0 -25 11t-10 26zM1489 395h307l49 393h-18z" />
<glyph unicode="&#xbd;" horiz-adv-x="2347" d="M315 1346q0 4 2 6l13 112q6 30 39 33l364 43h4q13 0 22 -11.5t9 -25.5q0 -4 -2 -6l-109 -893q-3 -19 -15.5 -31t-27.5 -12h-172q-14 0 -23 10t-9 27v6l88 707l-150 10q-33 3 -33 25zM467 109q0 14 4 14l1104 1386q6 9 16 9q2 0 5.5 -1t5.5 -1l139 -105q6 -3 6 -12 q0 -7 -4 -15l-1106 -1386q-8 -8 -16 -8q-5 0 -9 4l-141 102q-4 4 -4 13zM1393 33v4l26 209q4 34 25.5 66t48.5 53q23 16 92 53t127 66l57 30q19 10 56.5 29.5t59.5 32.5t38 28q43 40 43 103q0 48 -39 67q-37 19 -115 19q-106 0 -294 -45h-9q-12 0 -21 8.5t-11 19.5l-9 103v4 q0 15 9.5 27.5t23.5 17.5q164 51 379 51q170 0 258 -49q98 -59 98 -195q0 -116 -84 -217q-74 -89 -219 -158l-274 -129l-4 -32l485 12q13 0 25 -8.5t12 -24.5v-4l-16 -137q-3 -16 -15.5 -26.5t-31.5 -10.5h-678q-18 0 -30.5 9.5t-12.5 23.5z" />
<glyph unicode="&#xbe;" horiz-adv-x="2553" d="M252 608q0 9 2 13l27 106q6 27 34 27q9 0 13 -2q102 -25 233 -25q126 0 168 45q33 38 33 84q0 54 -41 72q-31 15 -96 22q-38 5 -97 15q-8 0 -21 7.5t-13 20.5l2 4l12 103q1 10 6 17t10.5 9.5t11.5 4.5l7 2q22 4 56.5 7.5t41.5 4.5q34 6 48.5 8.5t36.5 11t36 21.5 q33 26 33 84q0 42 -31 63q-35 21 -123 21q-34 0 -74.5 -5t-68.5 -10.5t-74.5 -15.5t-67.5 -14q-2 0 -6 -1t-6 -1q-27 0 -27 30l-10 105v4q0 26 33 39q51 17 159 36t216 19q180 0 264 -59q82 -57 82 -166q0 -88 -47 -146q-60 -82 -189 -100l-4 -31q107 -13 154 -57 q51 -45 51 -127q0 -118 -78 -199q-111 -114 -356 -114q-88 0 -183.5 12.5t-134.5 26.5q-22 11 -22 28zM719 109q0 14 4 14l1104 1386q6 9 16 9q2 0 5 -1t5 -1l140 -105q6 -3 6 -12q0 -7 -4 -15l-1106 -1386q-8 -8 -15 -8q-6 0 -10 4l-141 102q-4 4 -4 13zM1491 242v6l16 133 q5 31 27 55l432 502q5 8 18.5 15.5t22.5 7.5h307q13 0 23 -11t10 -26v-6l-63 -523h102q18 0 29.5 -10t11.5 -25v-4l-14 -114q-1 -15 -16 -26t-34 -11h-98l-20 -162q-1 -18 -14 -30.5t-29 -12.5h-162q-15 0 -25 11t-10 26v6l20 162h-499q-15 0 -25 11t-10 26zM1743 395h307 l49 393h-18z" />
<glyph unicode="&#xbf;" d="M156 293q0 142 82 239q55 64 186 146q20 13 56.5 33.5t54 31t42.5 29.5t37.5 35.5t23.5 41.5t15 54q4 31 4 105q0 41 52 41h249q12 0 18.5 -3.5t8 -5.5t3 -13t1.5 -13q4 -24 4 -68q0 -42 -6 -82q-7 -58 -27 -103.5t-57.5 -83t-73.5 -63t-94 -59.5q-106 -63 -137 -92 q-55 -52 -55 -121q0 -71 84 -100q53 -19 133 -19q43 0 99 6.5t95.5 13.5t84.5 16.5t53 10.5q4 2 14 2q29 0 29 -30l14 -140q0 -3 1 -9.5t1 -10.5q0 -31 -37 -41q-35 -12 -88.5 -25.5t-160 -28t-210.5 -14.5q-200 0 -321 52q-178 77 -178 268zM655 1219v8l29 241 q3 20 16.5 32.5t30.5 12.5h287q15 0 25 -10.5t10 -27.5v-7l-29 -241q-3 -20 -16.5 -32.5t-30.5 -12.5h-287q-15 0 -25 10t-10 27z" />
<glyph unicode="&#xc0;" horiz-adv-x="1638" d="M37 25q0 6 2 8l639 1454q11 26 37 26h581q26 0 33 -24l279 -1456v-4q0 -12 -10.5 -20.5t-24.5 -8.5h-326q-14 0 -25 11t-14 24l-73 473h-512l-191 -477q-12 -31 -43 -31h-321q-12 0 -21.5 7.5t-9.5 17.5zM727 774h369l-78 483h-94zM786 1862q0 6 7 16l122 139 q10 13 23 13q7 0 14 -7l305 -231q9 -6 9 -14q0 -11 -6 -17l-111 -129q-13 -10 -23 -10q-6 0 -14 4l-317 221q-9 6 -9 15z" />
<glyph unicode="&#xc1;" horiz-adv-x="1638" d="M37 25q0 6 2 8l639 1454q11 26 37 26h581q26 0 33 -24l279 -1456v-4q0 -12 -10.5 -20.5t-24.5 -8.5h-326q-14 0 -25 11t-14 24l-73 473h-512l-191 -477q-12 -31 -43 -31h-321q-12 0 -21.5 7.5t-9.5 17.5zM727 774h369l-78 483h-94zM772 1774q0 10 10 20l365 231q7 7 14 7 q11 0 21 -13l88 -139q2 -4 2 -12q0 -13 -12 -19l-371 -221q-8 -4 -17 -4q-13 0 -18 10l-80 129q-2 4 -2 11z" />
<glyph unicode="&#xc2;" horiz-adv-x="1638" d="M37 25q0 6 2 8l639 1454q11 26 37 26h581q26 0 33 -24l279 -1456v-4q0 -12 -10.5 -20.5t-24.5 -8.5h-326q-14 0 -25 11t-14 24l-73 473h-512l-191 -477q-12 -31 -43 -31h-321q-12 0 -21.5 7.5t-9.5 17.5zM655 1780q0 10 13 20l342 213h71l291 -213q8 -5 8 -14 q0 -11 -6 -17l-117 -131q-10 -10 -20 -10t-14 4l-203 174l-244 -174q-8 -4 -16 -4q-12 0 -19 10l-84 131q-2 2 -2 11zM727 774h369l-78 483h-94z" />
<glyph unicode="&#xc3;" horiz-adv-x="1638" d="M37 25q0 6 2 8l639 1454q11 26 37 26h581q26 0 33 -24l279 -1456v-4q0 -12 -10.5 -20.5t-24.5 -8.5h-326q-14 0 -25 11t-14 24l-73 473h-512l-191 -477q-12 -31 -43 -31h-321q-12 0 -21.5 7.5t-9.5 17.5zM639 1800v6q2 11 18 23q152 119 252 119h6q60 -2 142 -52 q1 -1 23.5 -14.5t31.5 -18t26.5 -11t30.5 -7.5h2q52 0 156 82q15 10 21 10q16 0 22 -14l45 -119q2 -4 2 -14v-4q-3 -14 -18 -25q-160 -119 -252 -119h-4q-59 2 -144 54q-4 2 -19 11.5t-23.5 14t-22 11t-25 9.5t-22.5 3h-2q-49 0 -156 -80q-10 -10 -20 -10q-18 0 -21 14 l-47 119q-2 4 -2 12zM727 774h369l-78 483h-94z" />
<glyph unicode="&#xc4;" horiz-adv-x="1638" d="M37 25q0 6 2 8l639 1454q11 26 37 26h581q26 0 33 -24l279 -1456v-4q0 -12 -10.5 -20.5t-24.5 -8.5h-326q-14 0 -25 11t-14 24l-73 473h-512l-191 -477q-12 -31 -43 -31h-321q-12 0 -21.5 7.5t-9.5 17.5zM594 1741v4l20 170q2 14 17.5 24.5t36.5 10.5h243q19 0 31 -9 t12 -22v-4l-20 -170q-2 -14 -17 -24.5t-36 -10.5h-244q-19 0 -31 9t-12 22zM727 774h369l-78 483h-94zM1102 1741v4l20 170q2 14 17.5 24.5t36.5 10.5h243q20 0 32.5 -9.5t12.5 -21.5v-4l-22 -170q-2 -14 -16.5 -24.5t-34.5 -10.5h-246q-18 0 -30.5 9.5t-12.5 21.5z" />
<glyph unicode="&#xc5;" horiz-adv-x="1638" d="M37 25q0 6 2 8l639 1454q11 26 37 26h581q26 0 33 -24l279 -1456v-4q0 -12 -10.5 -20.5t-24.5 -8.5h-326q-14 0 -25 11t-14 24l-73 473h-512l-191 -477q-12 -31 -43 -31h-321q-12 0 -21.5 7.5t-9.5 17.5zM702 1755q0 132 74 203q82 82 279 82q171 0 239 -60 q56 -50 56 -143q0 -99 -52 -172q-77 -109 -303 -109q-129 0 -198 35q-95 45 -95 164zM727 774h369l-78 483h-94zM928 1755q0 -48 18 -70t64 -22q43 0 66 20t34 62q14 58 14 108q0 41 -19.5 60.5t-62.5 19.5q-41 0 -63.5 -17t-34.5 -54q-16 -50 -16 -107z" />
<glyph unicode="&#xc6;" horiz-adv-x="2041" d="M37 25q0 4 2 6l600 1456q10 26 39 26h1376q29 0 29 -26v-4l-25 -213q-7 -31 -39 -31h-579l-41 -340h551q30 0 30 -25v-6l-26 -211q-3 -30 -37 -30h-553l-43 -355h580q30 0 30 -26v-4l-26 -211q-2 -14 -12 -22.5t-25 -8.5h-928q-14 0 -23.5 8.5t-9.5 20.5v4l62 508h-342 l-193 -510q-12 -31 -43 -31h-323q-11 0 -21 7.5t-10 17.5zM721 815h283l55 455h-170z" />
<glyph unicode="&#xc7;" horiz-adv-x="1445" d="M199 549q0 182 39 372.5t118 317.5q94 154 257.5 223.5t418.5 69.5q48 0 94 -2.5t81.5 -5.5t74 -9.5t62 -11t55 -12.5t44 -11.5t38 -11t28.5 -8.5q33 -12 33 -37q0 -4 -4 -20l-55 -176q-6 -25 -37 -25q-10 0 -16 2q-3 1 -40.5 10.5t-66 15.5t-72.5 14.5t-89.5 13 t-86.5 4.5q-171 0 -267 -56t-144 -178q-33 -85 -52.5 -209t-19.5 -225q0 -189 86 -264q84 -72 274 -72q142 0 367 51q12 4 18 4q28 0 31 -26l12 -174v-9q0 -35 -45 -47q-216 -69 -491 -69q-371 0 -518 153q-127 130 -127 408zM580 -387q0 6 2 8l14 64q5 16 25 16h8 q81 -12 112 -12q50 0 74 18q21 21 21 57q0 34 -25 46q-16 8 -53 8q-67 0 -121 -8q-6 -3 -10 -3q-19 0 -19 19v61q0 23 19 27q76 20 198 20q108 0 154 -30q53 -36 53 -121q0 -94 -51 -148q-57 -63 -201 -63q-96 0 -186 22q-14 4 -14 19z" />
<glyph unicode="&#xc8;" horiz-adv-x="1423" d="M195 29v4l178 1448q1 13 13.5 22.5t27.5 9.5h1022q30 0 30 -26v-4l-26 -213q-2 -14 -12 -22.5t-25 -8.5h-676l-39 -330h643q31 0 31 -24v-4l-27 -215q-1 -14 -12 -22.5t-25 -8.5h-645l-43 -363h674q14 0 22.5 -7t8.5 -19v-4l-27 -211q-1 -13 -12 -22t-25 -9h-1024 q-13 0 -22.5 8.5t-9.5 20.5zM725 1864q0 7 6 16l123 139q10 13 23 13q7 0 14 -7l305 -231q8 -5 8 -14q0 -11 -6 -17l-113 -129q-7 -10 -20 -10q-6 0 -14 4l-318 221q-8 3 -8 15z" />
<glyph unicode="&#xc9;" horiz-adv-x="1423" d="M195 29v4l178 1448q1 13 13.5 22.5t27.5 9.5h1022q30 0 30 -26v-4l-26 -213q-2 -14 -12 -22.5t-25 -8.5h-676l-39 -330h643q31 0 31 -24v-4l-27 -215q-1 -14 -12 -22.5t-25 -8.5h-645l-43 -363h674q14 0 22.5 -7t8.5 -19v-4l-27 -211q-1 -13 -12 -22t-25 -9h-1024 q-13 0 -22.5 8.5t-9.5 20.5zM727 1772q0 14 12 20l363 231q10 7 16 7q12 0 19 -13l88 -139q4 -8 4 -12q0 -13 -12 -19l-371 -221q-12 -4 -17 -4q-13 0 -18 10l-80 129q-4 8 -4 11z" />
<glyph unicode="&#xca;" horiz-adv-x="1423" d="M195 29v4l178 1448q1 13 13.5 22.5t27.5 9.5h1022q30 0 30 -26v-4l-26 -213q-2 -14 -12 -22.5t-25 -8.5h-676l-39 -330h643q31 0 31 -24v-4l-27 -215q-1 -14 -12 -22.5t-25 -8.5h-645l-43 -363h674q14 0 22.5 -7t8.5 -19v-4l-27 -211q-1 -13 -12 -22t-25 -9h-1024 q-13 0 -22.5 8.5t-9.5 20.5zM602 1780q0 15 10 20l344 215h72l291 -215q8 -5 8 -14q0 -12 -8 -17l-115 -129q-9 -12 -22 -12q-10 0 -13 6l-202 172l-244 -172q-6 -6 -16 -6q-13 0 -19 12l-84 129q-2 4 -2 11z" />
<glyph unicode="&#xcb;" horiz-adv-x="1423" d="M195 29v4l178 1448q1 13 13.5 22.5t27.5 9.5h1022q30 0 30 -26v-4l-26 -213q-2 -14 -12 -22.5t-25 -8.5h-676l-39 -330h643q31 0 31 -24v-4l-27 -215q-1 -14 -12 -22.5t-25 -8.5h-645l-43 -363h674q14 0 22.5 -7t8.5 -19v-4l-27 -211q-1 -13 -12 -22t-25 -9h-1024 q-13 0 -22.5 8.5t-9.5 20.5zM526 1741q0 2 2 4l21 170q2 14 17 24.5t36 10.5h244q20 0 31.5 -9.5t11.5 -23.5v-2l-21 -170q-2 -14 -17 -24.5t-36 -10.5h-244q-20 0 -32.5 9.5t-12.5 21.5zM1036 1741v4l21 170q2 14 17 24.5t36 10.5h244q20 0 32.5 -9.5t12.5 -23.5 q0 -2 -2 -2l-21 -170q-2 -14 -17 -24.5t-36 -10.5h-244q-19 0 -31 9t-12 22z" />
<glyph unicode="&#xcc;" horiz-adv-x="768" d="M195 27v4l178 1442q3 25 37 28l321 39h6q10 0 17.5 -8t7.5 -19v-4l-182 -1478q-1 -13 -12 -22t-25 -9h-318q-13 0 -21.5 7.5t-8.5 19.5zM365 1864q0 7 6 16l123 139q10 13 22 13q7 0 14 -7l306 -231q8 -5 8 -14q0 -11 -6 -17l-113 -129q-7 -10 -20 -10q-7 0 -15 4 l-317 221q-8 3 -8 15z" />
<glyph unicode="&#xcd;" horiz-adv-x="768" d="M195 27v4l178 1442q3 25 37 28l321 39h6q10 0 17.5 -8t7.5 -19v-4l-182 -1478q-1 -13 -12 -22t-25 -9h-318q-13 0 -21.5 7.5t-8.5 19.5zM336 1774q0 11 12 20l363 231q7 7 16 7q11 0 18 -13l89 -139q4 -8 4 -12q0 -12 -13 -19l-372 -221q-8 -4 -15 -4q-13 0 -20 10 l-78 129q-4 8 -4 11z" />
<glyph unicode="&#xce;" horiz-adv-x="768" d="M195 27v4l178 1442q3 25 37 28l321 39h6q10 0 17.5 -8t7.5 -19v-4l-182 -1478q-1 -13 -12 -22t-25 -9h-318q-13 0 -21.5 7.5t-8.5 19.5zM246 1780q0 11 12 20l342 213h74l289 -213q8 -5 8 -14q0 -11 -6 -17l-115 -131q-13 -10 -23 -10q-6 0 -14 4l-203 174l-243 -174 q-8 -4 -15 -4q-10 0 -20 10l-82 131q-4 4 -4 11z" />
<glyph unicode="&#xcf;" horiz-adv-x="768" d="M180 1741v4l21 170q2 14 17 24.5t36 10.5h244q20 0 32.5 -9.5t12.5 -23.5v-2l-23 -170q-2 -14 -16.5 -24.5t-34.5 -10.5h-246q-18 0 -30.5 9.5t-12.5 21.5zM195 27v4l178 1442q3 25 37 28l321 39h6q10 0 17.5 -8t7.5 -19v-4l-182 -1478q-1 -13 -12 -22t-25 -9h-318 q-13 0 -21.5 7.5t-8.5 19.5zM688 1741v4l21 170q3 14 18 24.5t35 10.5h244q20 0 32.5 -9.5t12.5 -23.5v-2l-21 -170q-2 -14 -17 -24.5t-36 -10.5h-244q-20 0 -32.5 9.5t-12.5 21.5z" />
<glyph unicode="&#xd0;" horiz-adv-x="1746" d="M96 678v2l21 172q1 14 14.5 21.5t26.5 7.5h186l74 602q2 12 13 21t24 9h665q390 0 525 -188q90 -129 90 -364q0 -206 -56 -422q-33 -136 -88.5 -233.5t-143.5 -167.5t-215.5 -104t-297.5 -34h-664q-13 0 -21.5 8.5t-8.5 20.5v4l75 616h-186q-15 0 -24 8.5t-9 20.5z M651 258h275q168 0 250.5 71.5t121.5 260.5q43 198 43 352q0 153 -38 217q-31 54 -92 76t-162 22h-275l-45 -376h348q12 0 23.5 -7.5t11.5 -19.5v-2l-20 -172q-2 -12 -14 -21.5t-29 -9.5h-349z" />
<glyph unicode="&#xd1;" horiz-adv-x="1816" d="M195 27v4l178 1452q2 12 14 21t27 9h610q32 0 39 -26l197 -1278h36l134 1266q3 24 16.5 31t38.5 7h276q24 0 35.5 -5.5t11.5 -24.5v-8l-178 -1444q-1 -13 -12 -22t-25 -9h-604q-15 0 -25 9.5t-12 23.5l-196 1196h-64l-117 -1198q0 -13 -10.5 -22t-25.5 -9h-314 q-13 0 -21.5 7.5t-8.5 19.5zM766 1800q0 1 1 3t1 3q0 10 18 23q147 119 252 119h4q60 -2 142 -52q7 -4 25.5 -15t30 -17t28 -12t30.5 -7h2q52 0 156 82q10 10 21 10q14 0 20 -14l47 -119q0 -2 1 -7t1 -7q0 -4 -2 -4q0 -9 -16 -25q-160 -119 -252 -119h-6q-57 2 -142 54 q-6 3 -25.5 14.5t-30.5 17.5t-27.5 11.5t-30.5 5.5h-2q-47 0 -154 -80q-10 -10 -20 -10q-17 0 -23 14l-45 119q-4 8 -4 12z" />
<glyph unicode="&#xd2;" horiz-adv-x="1734" d="M199 547q0 145 26.5 304t75.5 277q42 100 104 174.5t152.5 128.5t215 81.5t284.5 27.5q358 0 514 -141q153 -133 153 -432q0 -162 -34.5 -340.5t-98.5 -300.5q-59 -115 -150.5 -191.5t-236 -119t-340.5 -42.5q-333 0 -493 123q-92 71 -132 183t-40 268zM590 524 q0 -172 82 -237q72 -54 223 -54q122 0 199.5 35t120 102.5t67.5 182.5q51 223 51 430q0 161 -65 229q-70 70 -242 70q-128 0 -206.5 -38t-119.5 -110.5t-67 -199.5q-43 -218 -43 -410zM801 1864q0 7 6 16l123 139q10 13 22 13q8 0 15 -7l305 -231q8 -5 8 -14q0 -11 -6 -17 l-113 -129q-7 -10 -20 -10q-7 0 -15 4l-317 221q-8 3 -8 15z" />
<glyph unicode="&#xd3;" horiz-adv-x="1734" d="M199 547q0 145 26.5 304t75.5 277q42 100 104 174.5t152.5 128.5t215 81.5t284.5 27.5q358 0 514 -141q153 -133 153 -432q0 -162 -34.5 -340.5t-98.5 -300.5q-59 -115 -150.5 -191.5t-236 -119t-340.5 -42.5q-333 0 -493 123q-92 71 -132 183t-40 268zM590 524 q0 -172 82 -237q72 -54 223 -54q122 0 199.5 35t120 102.5t67.5 182.5q51 223 51 430q0 161 -65 229q-70 70 -242 70q-128 0 -206.5 -38t-119.5 -110.5t-67 -199.5q-43 -218 -43 -410zM836 1774q0 11 12 20l362 231q10 7 17 7q11 0 18 -13l88 -139q4 -8 4 -12q0 -13 -12 -19 l-371 -221q-12 -4 -16 -4q-13 0 -18 10l-80 129q-4 8 -4 11z" />
<glyph unicode="&#xd4;" horiz-adv-x="1734" d="M199 547q0 145 26.5 304t75.5 277q42 100 104 174.5t152.5 128.5t215 81.5t284.5 27.5q358 0 514 -141q153 -133 153 -432q0 -162 -34.5 -340.5t-98.5 -300.5q-59 -115 -150.5 -191.5t-236 -119t-340.5 -42.5q-333 0 -493 123q-92 71 -132 183t-40 268zM590 524 q0 -172 82 -237q72 -54 223 -54q122 0 199.5 35t120 102.5t67.5 182.5q51 223 51 430q0 161 -65 229q-70 70 -242 70q-128 0 -206.5 -38t-119.5 -110.5t-67 -199.5q-43 -218 -43 -410zM717 1780q0 11 12 20l342 213h74l289 -213q8 -5 8 -14q0 -11 -6 -17l-117 -131 q-10 -10 -21 -10q-6 0 -14 4l-203 174l-243 -174q-8 -4 -15 -4q-13 0 -20 10l-84 131q-2 2 -2 11z" />
<glyph unicode="&#xd5;" horiz-adv-x="1734" d="M199 547q0 145 26.5 304t75.5 277q42 100 104 174.5t152.5 128.5t215 81.5t284.5 27.5q358 0 514 -141q153 -133 153 -432q0 -162 -34.5 -340.5t-98.5 -300.5q-59 -115 -150.5 -191.5t-236 -119t-340.5 -42.5q-333 0 -493 123q-92 71 -132 183t-40 268zM590 524 q0 -172 82 -237q72 -54 223 -54q122 0 199.5 35t120 102.5t67.5 182.5q51 223 51 430q0 161 -65 229q-70 70 -242 70q-128 0 -206.5 -38t-119.5 -110.5t-67 -199.5q-43 -218 -43 -410zM680 1800v6q0 10 18 23q147 119 252 119h4q62 -2 144 -52q1 -1 23.5 -14.5t31.5 -18 t26.5 -11t30.5 -7.5h2q52 0 156 82q15 10 21 10q17 0 20 -14l47 -119q2 -4 2 -14v-4q-3 -14 -18 -25q-160 -119 -252 -119h-6q-57 2 -142 54q-4 2 -19 11.5t-23.5 14t-22 11t-25 9.5t-22.5 3h-2q-49 0 -156 -80q-10 -10 -20 -10q-17 0 -23 14l-45 119q-2 4 -2 12z" />
<glyph unicode="&#xd6;" horiz-adv-x="1734" d="M199 547q0 145 26.5 304t75.5 277q42 100 104 174.5t152.5 128.5t215 81.5t284.5 27.5q358 0 514 -141q153 -133 153 -432q0 -162 -34.5 -340.5t-98.5 -300.5q-59 -115 -150.5 -191.5t-236 -119t-340.5 -42.5q-333 0 -493 123q-92 71 -132 183t-40 268zM590 524 q0 -172 82 -237q72 -54 223 -54q122 0 199.5 35t120 102.5t67.5 182.5q51 223 51 430q0 161 -65 229q-70 70 -242 70q-128 0 -206.5 -38t-119.5 -110.5t-67 -199.5q-43 -218 -43 -410zM639 1743v2l20 170q2 14 17.5 24.5t36.5 10.5h243q20 0 32.5 -9.5t12.5 -21.5v-4 l-20 -170q-3 -14 -18 -24.5t-35 -10.5h-244q-20 0 -32.5 9.5t-12.5 23.5zM1147 1743v2l22 170q2 14 17 24.5t35 10.5h243q20 0 32.5 -9.5t12.5 -21.5v-4l-20 -170q-2 -14 -17 -24.5t-36 -10.5h-244q-20 0 -32.5 9.5t-12.5 23.5z" />
<glyph unicode="&#xd7;" horiz-adv-x="1271" d="M168 332q0 19 20 33l363 303l-289 301q-12 12 -12 26q0 18 18 33l140 121q18 14 30 14q18 0 31 -16l268 -316l348 316q16 16 33 16q15 0 29 -14l110 -121q11 -15 11 -24q0 -17 -21 -35l-362 -301l289 -303q12 -12 12 -27q0 -17 -17 -31l-141 -123q-17 -14 -31 -14 q-15 0 -28 16l-271 318l-348 -318q-19 -16 -33 -16q-15 0 -26 14l-113 123q-10 10 -10 25z" />
<glyph unicode="&#xd8;" horiz-adv-x="1761" d="M109 -4q0 10 14 24l170 175q-80 130 -80 315q0 388 106 629q57 132 149 218t242.5 134.5t360.5 48.5q296 0 451 -96l168 170q12 12 22 12q11 0 21 -10l94 -78q10 -8 10 -18q0 -13 -12 -25l-172 -174q84 -128 84 -369q0 -148 -29 -307t-84 -280q-57 -128 -148.5 -212.5 t-240.5 -132t-356 -47.5q-295 0 -455 99l-166 -170q-13 -13 -22 -13q-8 0 -23 11l-94 80q-10 10 -10 16zM604 512l682 692q-66 78 -248 78q-179 0 -263 -74t-122 -247q-49 -216 -49 -386v-63zM662 311q66 -78 247 -78q129 0 208 39.5t120 114.5t66 205q40 197 40 356v58z " />
<glyph unicode="&#xd9;" horiz-adv-x="1687" d="M227 414q0 34 3 74.5t5.5 67.5t8.5 75.5t8 66.5l100 772q3 26 37 29l322 41h6q11 0 17.5 -7t6.5 -17v-7l-104 -817q-25 -196 -25 -260q0 -119 80 -164q62 -35 182 -35q161 0 232.5 63.5t87.5 195.5l119 978q6 26 39 29l321 41h4q12 0 19.5 -6.5t7.5 -17.5q0 -5 -2 -7 l-121 -995q-18 -147 -76 -252t-154.5 -168t-221.5 -92t-287 -29q-269 0 -420 80q-195 106 -195 361zM821 1864q0 7 6 16l123 139q10 13 23 13q7 0 14 -7l305 -231q8 -5 8 -14q0 -11 -6 -17l-112 -129q-8 -10 -21 -10q-6 0 -14 4l-318 221q-8 3 -8 15z" />
<glyph unicode="&#xda;" horiz-adv-x="1687" d="M227 414q0 34 3 74.5t5.5 67.5t8.5 75.5t8 66.5l100 772q3 26 37 29l322 41h6q11 0 17.5 -7t6.5 -17v-7l-104 -817q-25 -196 -25 -260q0 -119 80 -164q62 -35 182 -35q161 0 232.5 63.5t87.5 195.5l119 978q6 26 39 29l321 41h4q12 0 19.5 -6.5t7.5 -17.5q0 -5 -2 -7 l-121 -995q-18 -147 -76 -252t-154.5 -168t-221.5 -92t-287 -29q-269 0 -420 80q-195 106 -195 361zM793 1774q0 11 12 20l362 231q7 7 17 7q12 0 18 -13l88 -139q4 -8 4 -12q0 -13 -12 -19l-371 -221q-12 -4 -16 -4q-13 0 -18 10l-80 129q-4 8 -4 11z" />
<glyph unicode="&#xdb;" horiz-adv-x="1687" d="M227 414q0 34 3 74.5t5.5 67.5t8.5 75.5t8 66.5l100 772q3 26 37 29l322 41h6q11 0 17.5 -7t6.5 -17v-7l-104 -817q-25 -196 -25 -260q0 -119 80 -164q62 -35 182 -35q161 0 232.5 63.5t87.5 195.5l119 978q6 26 39 29l321 41h4q12 0 19.5 -6.5t7.5 -17.5q0 -5 -2 -7 l-121 -995q-18 -147 -76 -252t-154.5 -168t-221.5 -92t-287 -29q-269 0 -420 80q-195 106 -195 361zM694 1782q0 12 13 18l342 215h73l289 -215q8 -5 8 -14q0 -8 -6 -17l-115 -129q-10 -10 -22 -10q-10 0 -14 4l-203 174l-244 -174q-4 -4 -14 -4q-13 0 -21 10l-82 129 q-4 8 -4 13z" />
<glyph unicode="&#xdc;" horiz-adv-x="1687" d="M227 414q0 34 3 74.5t5.5 67.5t8.5 75.5t8 66.5l100 772q3 26 37 29l322 41h6q11 0 17.5 -7t6.5 -17v-7l-104 -817q-25 -196 -25 -260q0 -119 80 -164q62 -35 182 -35q161 0 232.5 63.5t87.5 195.5l119 978q6 26 39 29l321 41h4q12 0 19.5 -6.5t7.5 -17.5q0 -5 -2 -7 l-121 -995q-18 -147 -76 -252t-154.5 -168t-221.5 -92t-287 -29q-269 0 -420 80q-195 106 -195 361zM635 1741v4l20 170q2 14 17.5 24.5t36.5 10.5h243q20 0 32.5 -9.5t12.5 -23.5q0 -2 -2 -2l-20 -170q-2 -14 -17 -25.5t-36 -11.5h-244q-19 0 -31 10t-12 23zM1143 1741v4 l20 170q2 14 17.5 24.5t36.5 10.5h243q20 0 32.5 -9.5t12.5 -23.5v-2l-22 -170q-2 -14 -16.5 -25.5t-34.5 -11.5h-244q-19 0 -32 10t-13 23z" />
<glyph unicode="&#xdd;" horiz-adv-x="1546" d="M178 1470q0 13 14.5 28t20.5 15h365q21 0 29.5 -6.5t17.5 -29.5l272 -621l410 621q13 23 23 29.5t32 6.5h348q12 0 18.5 -8.5t6.5 -19.5q0 -15 -4 -23l-687 -907l-63 -524q-1 -13 -12 -22t-25 -9h-317q-14 0 -22.5 7.5t-8.5 19.5v4l63 520l-479 909q-2 4 -2 10zM737 1776 q0 10 13 20l362 232q8 4 16 4q11 0 19 -11l88 -141q2 -2 2 -10q0 -14 -10 -19l-373 -221q-8 -4 -16 -4q-12 0 -19 10l-80 129q-2 2 -2 11z" />
<glyph unicode="&#xde;" horiz-adv-x="1513" d="M195 27v4l178 1442q3 25 37 28l321 39h4q12 0 19.5 -8t7.5 -19v-4l-35 -278h406q258 0 360 -119q76 -85 76 -242q0 -143 -41 -262q-42 -132 -129 -207q-140 -123 -426 -120h-363l-30 -250q-1 -13 -12 -22t-25 -9h-318q-13 0 -21.5 7.5t-8.5 19.5zM639 518l229 8 q165 3 224 54q38 31 57 100q18 65 18 133q0 70 -28 109q-28 33 -82 42t-160 9h-201z" />
<glyph unicode="&#xdf;" horiz-adv-x="1316" d="M-178 -375l20 137q4 24 15.5 31.5t38.5 9.5q12 0 24 1t33 1q40 0 66 5t52 20.5t41 49t21 85.5l137 1147q14 120 59.5 204t121 132.5t171 70t220.5 21.5q244 0 352 -100q82 -76 82 -207q0 -127 -55 -221q-31 -54 -80.5 -93.5t-124.5 -78.5q-29 -16 -29 -39q0 -21 23 -31 q8 -5 44 -23.5t55 -29t47.5 -31.5t49.5 -43q78 -85 78 -223q0 -178 -94 -295q-123 -152 -402 -152q-128 0 -221 39q-7 2 -14.5 10.5t-7.5 20.5v10l51 154q3 10 14.5 17t22.5 7h6q14 -3 34 -9t39 -9.5t44 -3.5q92 0 145 59q47 53 47 133q0 96 -96 177l-32.5 26t-34 27.5 t-28.5 26.5t-25 30.5t-14.5 32t-6.5 37.5q0 45 20 76.5t65 68.5t58 51q82 85 82 207q0 75 -33 111q-33 33 -90 33q-89 0 -133 -41t-57 -152l-140 -1149q-11 -94 -42 -165t-73.5 -113.5t-101.5 -69t-118.5 -36t-133.5 -9.5q-62 0 -155 10q-12 1 -19 3.5t-12.5 9.5t-5.5 20v12 z" />
<glyph unicode="&#xe0;" horiz-adv-x="1218" d="M117 262q0 145 63 240q50 70 123 100.5t166 44.5l356 55q9 53 9 80q0 48 -33 66q-41 18 -133 18q-117 0 -342 -55q-4 -2 -15 -2q-19 0 -22 18l-15 154v6q0 27 29 39q60 22 194 49t279 27q209 0 309 -62q109 -63 109 -209q0 -20 -16 -145l-58 -469q-5 -47 -18 -81t-29 -55 t-47 -36.5t-59 -24t-78 -20.5q-126 -27 -303 -27q-222 0 -328 52q-141 69 -141 237zM467 307q0 -64 41 -90q36 -27 110 -27q25 0 53 3t45 6t36 7l18 3l35 293l-189 -29q-48 -7 -78.5 -21t-48.5 -49q-22 -37 -22 -96zM555 1438q0 7 6 16l123 139q10 13 21 13q9 0 16 -7 l305 -231q8 -5 8 -14q0 -11 -6 -17l-113 -129q-7 -10 -20 -10q-6 0 -14 4l-318 221q-8 5 -8 15z" />
<glyph unicode="&#xe1;" horiz-adv-x="1218" d="M117 262q0 145 63 240q50 70 123 100.5t166 44.5l356 55q9 53 9 80q0 48 -33 66q-41 18 -133 18q-117 0 -342 -55q-4 -2 -15 -2q-19 0 -22 18l-15 154v6q0 27 29 39q60 22 194 49t279 27q209 0 309 -62q109 -63 109 -209q0 -20 -16 -145l-58 -469q-5 -47 -18 -81t-29 -55 t-47 -36.5t-59 -24t-78 -20.5q-126 -27 -303 -27q-222 0 -328 52q-141 69 -141 237zM467 307q0 -64 41 -90q36 -27 110 -27q25 0 53 3t45 6t36 7l18 3l35 293l-189 -29q-48 -7 -78.5 -21t-48.5 -49q-22 -37 -22 -96zM549 1348q0 14 12 20l363 231q7 7 16 7q12 0 18 -13 l89 -139q2 -4 2 -12q0 -14 -11 -19l-372 -221q-8 -4 -15 -4q-13 0 -20 10l-78 129q-4 8 -4 11z" />
<glyph unicode="&#xe2;" horiz-adv-x="1218" d="M117 262q0 145 63 240q50 70 123 100.5t166 44.5l356 55q9 53 9 80q0 48 -33 66q-41 18 -133 18q-117 0 -342 -55q-4 -2 -15 -2q-19 0 -22 18l-15 154v6q0 27 29 39q60 22 194 49t279 27q209 0 309 -62q109 -63 109 -209q0 -20 -16 -145l-58 -469q-5 -47 -18 -81t-29 -55 t-47 -36.5t-59 -24t-78 -20.5q-126 -27 -303 -27q-222 0 -328 52q-141 69 -141 237zM422 1356q0 12 12 18l342 215h74l289 -215q8 -3 8 -14q0 -8 -6 -17l-117 -129q-8 -10 -20 -10q-7 0 -15 4l-203 174l-243 -174q-8 -4 -17 -4q-13 0 -18 10l-84 129q-2 4 -2 13zM467 307 q0 -64 41 -90q36 -27 110 -27q25 0 53 3t45 6t36 7l18 3l35 293l-189 -29q-48 -7 -78.5 -21t-48.5 -49q-22 -37 -22 -96z" />
<glyph unicode="&#xe3;" horiz-adv-x="1218" d="M117 262q0 145 63 240q50 70 123 100.5t166 44.5l356 55q9 53 9 80q0 48 -33 66q-41 18 -133 18q-117 0 -342 -55q-4 -2 -15 -2q-19 0 -22 18l-15 154v6q0 27 29 39q60 22 194 49t279 27q209 0 309 -62q109 -63 109 -209q0 -20 -16 -145l-58 -469q-5 -47 -18 -81t-29 -55 t-47 -36.5t-59 -24t-78 -20.5q-126 -27 -303 -27q-222 0 -328 52q-141 69 -141 237zM397 1389v4q2 11 19 24q157 117 252 117h6q57 0 141 -51q4 -2 19.5 -11.5t24 -14t22 -11.5t25 -10t22.5 -4h2q22 0 53 15t49.5 28t52.5 38q11 11 21 11q16 0 22 -15l46 -118q2 -4 2 -13v-6 q-2 -9 -19 -22q-152 -119 -252 -119h-6q-61 2 -141 51q-19 13 -54 31.5t-59 19.5h-2q-22 0 -53 -15t-50 -28t-53 -39q-15 -10 -20 -10q-18 0 -21 14l-47 119q-2 4 -2 15zM467 307q0 -64 41 -90q36 -27 110 -27q25 0 53 3t45 6t36 7l18 3l35 293l-189 -29q-48 -7 -78.5 -21 t-48.5 -49q-22 -37 -22 -96z" />
<glyph unicode="&#xe4;" horiz-adv-x="1218" d="M117 262q0 145 63 240q50 70 123 100.5t166 44.5l356 55q9 53 9 80q0 48 -33 66q-41 18 -133 18q-117 0 -342 -55q-4 -2 -15 -2q-19 0 -22 18l-15 154v6q0 27 29 39q60 22 194 49t279 27q209 0 309 -62q109 -63 109 -209q0 -20 -16 -145l-58 -469q-5 -47 -18 -81t-29 -55 t-47 -36.5t-59 -24t-78 -20.5q-126 -27 -303 -27q-222 0 -328 52q-141 69 -141 237zM340 1296v2l20 170q2 14 17.5 25.5t36.5 11.5h243q20 0 32.5 -9.5t12.5 -22.5v-5l-22 -170q-2 -14 -16.5 -24t-34.5 -10h-244q-20 0 -32.5 9t-12.5 23zM467 307q0 -64 41 -90 q36 -27 110 -27q25 0 53 3t45 6t36 7l18 3l35 293l-189 -29q-48 -7 -78.5 -21t-48.5 -49q-22 -37 -22 -96zM848 1296v2l20 170q3 14 19 25.5t35 11.5h243q19 0 32 -9.5t13 -22.5v-5l-20 -170q-2 -14 -17 -24t-36 -10h-244q-20 0 -32.5 9t-12.5 23z" />
<glyph unicode="&#xe5;" horiz-adv-x="1218" d="M117 262q0 145 63 240q50 70 123 100.5t166 44.5l356 55q9 53 9 80q0 48 -33 66q-41 18 -133 18q-117 0 -342 -55q-4 -2 -15 -2q-19 0 -22 18l-15 154v6q0 27 29 39q60 22 194 49t279 27q209 0 309 -62q109 -63 109 -209q0 -20 -16 -145l-58 -469q-5 -47 -18 -81t-29 -55 t-47 -36.5t-59 -24t-78 -20.5q-126 -27 -303 -27q-222 0 -328 52q-141 69 -141 237zM467 307q0 -64 41 -90q36 -27 110 -27q25 0 53 3t45 6t36 7l18 3l35 293l-189 -29q-48 -7 -78.5 -21t-48.5 -49q-22 -37 -22 -96zM506 1364q0 117 65 182q74 74 256 74q134 0 200.5 -41.5 t66.5 -136.5q0 -112 -56 -176q-75 -86 -266 -86q-141 0 -205 47q-61 43 -61 137zM711 1360q0 -43 16 -62.5t57 -19.5q39 0 60 17t30 53q15 44 15 96v2q0 41 -17 59.5t-57 18.5q-39 0 -60 -18t-32 -56q-12 -58 -12 -90z" />
<glyph unicode="&#xe6;" horiz-adv-x="1890" d="M117 262q0 155 71 250q48 63 120.5 92t178.5 45l375 60q4 20 4 43q0 37 -18 63q-34 51 -150 51q-158 0 -381 -57h-8q-19 0 -22 22l-13 144v12q0 16 6 23.5t23 15.5q53 21 189.5 48.5t269.5 27.5q257 0 315 -172q47 75 144.5 123.5t228.5 48.5q213 0 326.5 -80.5 t113.5 -271.5q0 -55 -10.5 -100t-30 -79t-49 -60t-65.5 -44t-81 -30.5t-94.5 -20t-107 -12t-117 -7t-126.5 -4.5h-7h-31q0 -61 18 -101.5t64 -60.5q65 -26 189 -26q42 0 91 6.5t77.5 12.5t70.5 17t43 11q2 2 7 2q11 0 20 -9.5t10 -25.5l15 -125v-8q0 -32 -29 -43 q-187 -70 -406 -70q-301 0 -378 191q-124 -191 -402 -191q-201 0 -305 52q-139 69 -139 237zM465 309q0 -67 47 -96q45 -23 106 -23q127 0 175 86q27 48 41 156l10 78l-209 -33q-97 -16 -131 -53q-39 -42 -39 -115zM1192 578q24 1 67.5 2t67 2t60 4.5t56.5 9t45 16t37.5 25 t21.5 37t9 51.5q0 147 -157 147q-48 0 -84.5 -17t-58.5 -44t-36 -67t-20 -79t-8 -87z" />
<glyph unicode="&#xe7;" horiz-adv-x="1056" d="M137 395q0 103 20 218t56 200q62 146 187 217.5t341 71.5q115 0 218 -16.5t141 -36.5q20 -14 20 -31q0 -11 -2 -17l-45 -141q-10 -26 -37 -26q-3 0 -7.5 1t-6.5 1q-105 28 -217 28q-113 0 -174 -38.5t-92 -129.5q-39 -119 -39 -254q0 -132 57 -178q51 -45 170 -45 q109 0 223 29l6 1q6 1 9 1q28 0 28 -27l13 -141v-4q0 -28 -31 -41q-42 -21 -148 -37t-223 -16q-268 0 -377 112q-90 92 -90 299zM362 -379l17 64q3 16 22 16h11q75 -12 110 -12q51 0 74 20q20 15 20 55q0 35 -22 46q-19 8 -55 8q-67 0 -121 -8q-3 -3 -8 -3q-21 0 -21 19v61 q0 23 21 27q74 20 196 20q111 0 154 -30q55 -35 55 -119q0 -93 -51 -150q-60 -63 -203 -63q-98 0 -184 22q-15 4 -15 21v6z" />
<glyph unicode="&#xe8;" horiz-adv-x="1200" d="M137 414q0 160 44 302t104 220q130 166 444 166q88 0 157 -9.5t129.5 -34t100 -64t62 -101t22.5 -143.5q0 -55 -10.5 -100t-30 -79t-49 -60t-65.5 -44t-81 -30.5t-94.5 -20t-107 -12t-117 -7t-126.5 -4.5h-7h-31q0 -4 -1 -12.5t-1 -13.5q0 -97 84 -134q63 -28 187 -28 q43 0 92 7t77.5 13.5t70 17.5t42.5 11h8q25 0 31 -35l14 -125v-8q0 -31 -28 -43q-188 -70 -424 -70q-252 0 -374 106t-122 335zM502 578q22 1 66.5 2t67 2t59.5 5t56.5 9.5t44.5 16t37.5 25.5t21.5 37.5t9 51.5q0 147 -155 147q-48 0 -84.5 -17.5t-58.5 -44.5t-36 -67.5 t-20 -79.5t-8 -87zM524 1438q0 7 6 16l123 139q10 13 21 13q10 0 14 -7l307 -231q9 -9 9 -14q0 -8 -9 -17l-110 -129q-7 -10 -21 -10q-8 0 -16 4l-316 221q-8 5 -8 15z" />
<glyph unicode="&#xe9;" horiz-adv-x="1200" d="M137 414q0 160 44 302t104 220q130 166 444 166q88 0 157 -9.5t129.5 -34t100 -64t62 -101t22.5 -143.5q0 -55 -10.5 -100t-30 -79t-49 -60t-65.5 -44t-81 -30.5t-94.5 -20t-107 -12t-117 -7t-126.5 -4.5h-7h-31q0 -4 -1 -12.5t-1 -13.5q0 -97 84 -134q63 -28 187 -28 q43 0 92 7t77.5 13.5t70 17.5t42.5 11h8q25 0 31 -35l14 -125v-8q0 -31 -28 -43q-188 -70 -424 -70q-252 0 -374 106t-122 335zM502 578q22 1 66.5 2t67 2t59.5 5t56.5 9.5t44.5 16t37.5 25.5t21.5 37.5t9 51.5q0 147 -155 147q-48 0 -84.5 -17.5t-58.5 -44.5t-36 -67.5 t-20 -79.5t-8 -87zM526 1348q0 14 13 20l362 231q7 7 17 7q12 0 18 -13l88 -139q4 -8 4 -12q0 -13 -12 -19l-373 -221q-8 -4 -14 -4q-13 0 -21 10l-78 129q-4 8 -4 11z" />
<glyph unicode="&#xea;" horiz-adv-x="1200" d="M137 414q0 160 44 302t104 220q130 166 444 166q88 0 157 -9.5t129.5 -34t100 -64t62 -101t22.5 -143.5q0 -55 -10.5 -100t-30 -79t-49 -60t-65.5 -44t-81 -30.5t-94.5 -20t-107 -12t-117 -7t-126.5 -4.5h-7h-31q0 -4 -1 -12.5t-1 -13.5q0 -97 84 -134q63 -28 187 -28 q43 0 92 7t77.5 13.5t70 17.5t42.5 11h8q25 0 31 -35l14 -125v-8q0 -31 -28 -43q-188 -70 -424 -70q-252 0 -374 106t-122 335zM412 1354q0 11 12 20l342 213h74l288 -213q9 -6 9 -14q0 -10 -7 -17l-114 -131q-13 -10 -23 -10q-6 0 -14 4l-203 174l-244 -174q-8 -4 -14 -4 q-10 0 -20 10l-82 131q-4 4 -4 11zM502 578q22 1 66.5 2t67 2t59.5 5t56.5 9.5t44.5 16t37.5 25.5t21.5 37.5t9 51.5q0 147 -155 147q-48 0 -84.5 -17.5t-58.5 -44.5t-36 -67.5t-20 -79.5t-8 -87z" />
<glyph unicode="&#xeb;" horiz-adv-x="1200" d="M137 414q0 160 44 302t104 220q130 166 444 166q88 0 157 -9.5t129.5 -34t100 -64t62 -101t22.5 -143.5q0 -55 -10.5 -100t-30 -79t-49 -60t-65.5 -44t-81 -30.5t-94.5 -20t-107 -12t-117 -7t-126.5 -4.5h-7h-31q0 -4 -1 -12.5t-1 -13.5q0 -97 84 -134q63 -28 187 -28 q43 0 92 7t77.5 13.5t70 17.5t42.5 11h8q25 0 31 -35l14 -125v-8q0 -31 -28 -43q-188 -70 -424 -70q-252 0 -374 106t-122 335zM346 1296v2l21 170q2 14 17 25.5t36 11.5h244q19 0 31 -9.5t12 -22.5v-5l-21 -170q-2 -14 -17 -24t-36 -10h-244q-20 0 -31.5 9t-11.5 23z M502 578q22 1 66.5 2t67 2t59.5 5t56.5 9.5t44.5 16t37.5 25.5t21.5 37.5t9 51.5q0 147 -155 147q-48 0 -84.5 -17.5t-58.5 -44.5t-36 -67.5t-20 -79.5t-8 -87zM854 1296v2l20 170q2 14 17.5 25.5t36.5 11.5h243q20 0 33 -10t13 -22v-5l-23 -170q-2 -14 -16.5 -24t-34.5 -10 h-246q-19 0 -31 9t-12 23z" />
<glyph unicode="&#xec;" horiz-adv-x="684" d="M162 27v4l121 981q1 13 12.5 21.5t26.5 8.5h288q29 0 29 -26v-4l-121 -981q-2 -14 -12 -22.5t-25 -8.5h-288q-14 0 -22.5 7.5t-8.5 19.5zM258 1438q0 7 6 16l123 139q10 13 23 13q7 0 14 -7l305 -231q8 -5 8 -14q0 -11 -6 -17l-113 -129q-8 -10 -20 -10q-6 0 -14 4 l-318 221q-8 5 -8 15z" />
<glyph unicode="&#xed;" horiz-adv-x="684" d="M162 27v4l121 981q1 13 12.5 21.5t26.5 8.5h288q29 0 29 -26v-4l-121 -981q-2 -14 -12 -22.5t-25 -8.5h-288q-14 0 -22.5 7.5t-8.5 19.5zM240 1348q0 14 12 20l362 231q7 7 17 7q11 0 18 -13l88 -139q4 -8 4 -12q0 -13 -12 -19l-371 -221q-12 -4 -16 -4q-13 0 -18 10 l-80 129q-4 8 -4 11z" />
<glyph unicode="&#xee;" horiz-adv-x="684" d="M143 1354q0 10 13 20l342 213h71l291 -213q8 -5 8 -14q0 -11 -6 -17l-117 -131q-10 -10 -20 -10q-6 0 -14 4l-203 174l-244 -174q-8 -4 -16 -4q-12 0 -19 10l-84 131q-2 2 -2 11zM166 27v4l121 981q1 13 12.5 21.5t26.5 8.5h288q29 0 29 -26v-4l-121 -981 q-2 -14 -12 -22.5t-25 -8.5h-288q-14 0 -22.5 7.5t-8.5 19.5z" />
<glyph unicode="&#xef;" horiz-adv-x="684" d="M84 1296v2l20 170q2 14 17.5 25.5t36.5 11.5h243q19 0 31 -9.5t12 -22.5v-5l-20 -170q-2 -14 -17 -24t-36 -10h-244q-20 0 -31.5 9t-11.5 23zM164 27v4l121 981q1 13 12.5 21.5t26.5 8.5h288q29 0 29 -26v-4l-121 -981q-2 -14 -12 -22.5t-25 -8.5h-288q-14 0 -22.5 7.5 t-8.5 19.5zM592 1296v2l20 170q2 14 17.5 25.5t36.5 11.5h243q20 0 32.5 -9.5t12.5 -22.5v-5l-22 -170q-2 -14 -17 -24t-36 -10h-244q-20 0 -31.5 9t-11.5 23z" />
<glyph unicode="&#xf0;" horiz-adv-x="1226" d="M137 395q0 99 20 204.5t56 188.5q124 281 440 281q92 0 152.5 -23t109.5 -67l11 6q0 107 -37 194t-103 140l-208 -139q-15 -11 -23 -11q-7 0 -18 11l-80 98q-6 9 -6 16q0 11 16 21l149 94q-75 31 -280 31q-24 0 -35.5 11t-11.5 26v6l18 155q3 24 18.5 33.5t30.5 9.5 q31 2 93 2q274 0 450 -94l148 105q13 10 22 10t18 -12l82 -105q7 -11 7 -14q0 -11 -21 -25l-102 -71q107 -108 147.5 -253t38.5 -325v-10q0 -242 -47 -465q-16 -75 -39.5 -135t-68 -121t-105 -102t-154.5 -67t-213 -26q-253 0 -368 115q-107 104 -107 307zM496 379 q0 -93 30 -131q33 -39 113 -39q94 0 135.5 53.5t61.5 181.5q22 132 22 222q0 80 -20 114q-30 56 -121 56q-77 0 -118 -38t-64 -120q-16 -64 -27.5 -151.5t-11.5 -147.5z" />
<glyph unicode="&#xf1;" horiz-adv-x="1259" d="M137 27v4l113 905q6 53 51 77.5t152 47.5q213 41 387 41q179 0 270 -43q123 -58 123 -215q0 -47 -12 -137l-82 -676q-2 -14 -12 -22.5t-25 -8.5h-291q-14 0 -22.5 7.5t-8.5 19.5v4l80 655q6 40 6 80q0 48 -18 72q-25 32 -88 32q-33 0 -73.5 -4.5t-64.5 -9.5l-24 -4 l-102 -821q-2 -14 -12 -22.5t-25 -8.5h-291q-14 0 -22.5 7.5t-8.5 19.5zM420 1389v4q0 11 18 24q151 117 252 117h4q56 0 144 -51q4 -2 24 -14.5t30 -18t27 -11.5t31 -7h2q47 0 156 81q7 11 20 11q15 0 21 -15l47 -118q0 -2 1 -6.5t1 -6.5v-6q-1 -5 -3.5 -8.5t-8 -8 t-6.5 -5.5q-152 -119 -252 -119h-6q-62 2 -142 51q-7 4 -25.5 15t-30 17t-27.5 12t-29 7h-2q-22 0 -53 -15t-50 -28t-53 -39q-15 -10 -21 -10q-16 0 -22 14l-45 119q-2 4 -2 15z" />
<glyph unicode="&#xf2;" horiz-adv-x="1226" d="M135 379q0 115 23.5 247.5t66.5 219.5q40 82 103 136.5t169 87t251 32.5q230 0 346 -80q71 -51 100 -130.5t29 -193.5q0 -111 -21.5 -238t-60.5 -214q-39 -86 -101 -144.5t-170.5 -93.5t-259.5 -35q-273 0 -385 115q-90 93 -90 291zM496 373q0 -94 26 -125 q29 -39 117 -39q54 0 88.5 14t56.5 49.5t33.5 80t22.5 122.5q22 176 22 240q0 97 -43 127q-30 24 -100 24q-98 0 -137.5 -52t-59.5 -185q-26 -182 -26 -256zM524 1438q0 7 6 16l123 139q10 13 23 13q7 0 14 -7l305 -231q9 -6 9 -14q0 -10 -7 -17l-112 -129q-7 -10 -21 -10 q-6 0 -14 4l-318 221q-8 5 -8 15z" />
<glyph unicode="&#xf3;" horiz-adv-x="1226" d="M135 379q0 115 23.5 247.5t66.5 219.5q40 82 103 136.5t169 87t251 32.5q230 0 346 -80q71 -51 100 -130.5t29 -193.5q0 -111 -21.5 -238t-60.5 -214q-39 -86 -101 -144.5t-170.5 -93.5t-259.5 -35q-273 0 -385 115q-90 93 -90 291zM496 373q0 -94 26 -125 q29 -39 117 -39q54 0 88.5 14t56.5 49.5t33.5 80t22.5 122.5q22 176 22 240q0 97 -43 127q-30 24 -100 24q-98 0 -137.5 -52t-59.5 -185q-26 -182 -26 -256zM524 1348q0 14 13 20l362 231q7 7 16 7q13 0 19 -13l88 -139q4 -8 4 -12q0 -13 -12 -19l-373 -221q-8 -4 -14 -4 q-14 0 -19 10l-80 129q-4 8 -4 11z" />
<glyph unicode="&#xf4;" horiz-adv-x="1226" d="M135 379q0 115 23.5 247.5t66.5 219.5q40 82 103 136.5t169 87t251 32.5q230 0 346 -80q71 -51 100 -130.5t29 -193.5q0 -111 -21.5 -238t-60.5 -214q-39 -86 -101 -144.5t-170.5 -93.5t-259.5 -35q-273 0 -385 115q-90 93 -90 291zM418 1354q0 11 12 20l342 213h74 l291 -213q6 -6 6 -14q0 -11 -6 -17l-115 -131q-10 -10 -23 -10q-6 0 -14 4l-201 174l-245 -174q-8 -4 -15 -4q-10 0 -20 10l-82 131q-4 4 -4 11zM496 373q0 -94 26 -125q29 -39 117 -39q54 0 88.5 14t56.5 49.5t33.5 80t22.5 122.5q22 176 22 240q0 97 -43 127 q-30 24 -100 24q-98 0 -137.5 -52t-59.5 -185q-26 -182 -26 -256z" />
<glyph unicode="&#xf5;" horiz-adv-x="1226" d="M135 379q0 115 23.5 247.5t66.5 219.5q40 82 103 136.5t169 87t251 32.5q230 0 346 -80q71 -51 100 -130.5t29 -193.5q0 -111 -21.5 -238t-60.5 -214q-39 -86 -101 -144.5t-170.5 -93.5t-259.5 -35q-273 0 -385 115q-90 93 -90 291zM395 1389v4q0 10 19 24 q151 117 252 117h4q55 0 143 -51q2 -1 23.5 -14t31 -18t27 -11.5t31.5 -7.5h2q22 0 53 15t49.5 28t52.5 38q11 11 21 11q14 0 20 -15l47 -118q0 -2 1.5 -6.5t1.5 -6.5v-6q-1 -4 -4 -8t-8.5 -8.5t-6.5 -5.5q-152 -119 -252 -119h-6q-61 2 -141 51q-7 4 -25.5 15t-30 17 t-28 12t-29.5 7h-2q-22 0 -53 -15t-50 -28t-53 -39q-15 -10 -20 -10q-17 0 -23 14l-45 119q-2 4 -2 15zM496 373q0 -94 26 -125q29 -39 117 -39q54 0 88.5 14t56.5 49.5t33.5 80t22.5 122.5q22 176 22 240q0 97 -43 127q-30 24 -100 24q-98 0 -137.5 -52t-59.5 -185 q-26 -182 -26 -256z" />
<glyph unicode="&#xf6;" horiz-adv-x="1226" d="M135 379q0 115 23.5 247.5t66.5 219.5q40 82 103 136.5t169 87t251 32.5q230 0 346 -80q71 -51 100 -130.5t29 -193.5q0 -111 -21.5 -238t-60.5 -214q-39 -86 -101 -144.5t-170.5 -93.5t-259.5 -35q-273 0 -385 115q-90 93 -90 291zM344 1296v2l23 170q2 15 16.5 26 t34.5 11h244q20 0 32.5 -9.5t12.5 -22.5v-5l-21 -170q-2 -14 -17 -24t-36 -10h-244q-20 0 -32.5 9t-12.5 23zM496 373q0 -94 26 -125q29 -39 117 -39q54 0 88.5 14t56.5 49.5t33.5 80t22.5 122.5q22 176 22 240q0 97 -43 127q-30 24 -100 24q-98 0 -137.5 -52t-59.5 -185 q-26 -182 -26 -256zM852 1296l2 2l20 170q2 15 17.5 26t36.5 11h243q19 0 31 -9.5t12 -22.5v-5l-20 -170q-2 -14 -17 -24t-36 -10h-244q-20 0 -32.5 9t-12.5 23z" />
<glyph unicode="&#xf7;" d="M160 578v4l20 166q2 14 18.5 25t37.5 11h997q19 0 32 -9.5t13 -22.5v-4l-21 -166q-2 -15 -17.5 -26t-37.5 -11h-997q-19 0 -32 10t-13 23zM518 178v4l27 219q3 14 18.5 25.5t34.5 11.5h182q20 0 32.5 -9.5t12.5 -22.5v-5l-26 -219q-2 -14 -17.5 -25.5t-36.5 -11.5h-182 q-19 0 -32 10t-13 23zM610 926v2l27 221q2 14 17 24.5t36 10.5h182q20 0 33 -9.5t13 -23.5v-2l-27 -221q-3 -14 -18 -24.5t-35 -10.5h-183q-20 0 -32.5 9.5t-12.5 23.5z" />
<glyph unicode="&#xf8;" horiz-adv-x="1327" d="M66 -41q0 13 14 27l145 145q-67 90 -67 240q0 107 21 235t57 211q61 139 192.5 212t370.5 73q200 0 317 -60l150 152q12 12 24 12q13 0 23 -10l69 -61q13 -10 13 -21q0 -9 -15 -24l-147 -146q67 -89 67 -246q0 -99 -17 -213.5t-48 -195.5q-28 -74 -70.5 -129.5 t-109.5 -98.5t-166.5 -65.5t-229.5 -22.5q-200 0 -317 60l-149 -152q-11 -14 -25 -14q-7 0 -23 12l-69 62q-10 8 -10 18zM524 438l379 387q-35 41 -133 41q-103 0 -148.5 -39t-66.5 -135q-31 -159 -31 -254zM549 254q39 -45 139 -45q61 0 100.5 12.5t64.5 44.5t38 73.5 t24 111.5q2 12 8.5 58.5t9.5 77t3 60.5z" />
<glyph unicode="&#xf9;" horiz-adv-x="1249" d="M164 295q0 51 12 145l72 566q6 48 47 53l272 43h13q32 0 32 -31v-8l-77 -621q-13 -101 -13 -131q0 -62 33 -86q31 -22 96 -22q83 0 116 34.5t42 100.5l82 666q6 50 47 55l272 41q2 0 6.5 1t6.5 1q32 0 32 -33v-6l-88 -711q-13 -109 -54.5 -183.5t-113.5 -117 t-162.5 -60.5t-213.5 -18q-220 0 -328 58q-131 70 -131 264zM555 1438q0 7 6 16l123 139q10 13 23 13q7 0 14 -7l305 -231q8 -5 8 -14q0 -11 -6 -17l-110 -129q-10 -10 -23 -10q-6 0 -14 4l-318 221q-8 5 -8 15z" />
<glyph unicode="&#xfa;" horiz-adv-x="1249" d="M164 295q0 51 12 145l72 566q6 48 47 53l272 43h13q32 0 32 -31v-8l-77 -621q-13 -101 -13 -131q0 -62 33 -86q31 -22 96 -22q83 0 116 34.5t42 100.5l82 666q6 50 47 55l272 41q2 0 6.5 1t6.5 1q32 0 32 -33v-6l-88 -711q-13 -109 -54.5 -183.5t-113.5 -117 t-162.5 -60.5t-213.5 -18q-220 0 -328 58q-131 70 -131 264zM539 1348q0 14 12 20l362 231q7 7 17 7q12 0 18 -13l88 -139q2 -4 2 -12q0 -14 -10 -19l-373 -221q-8 -4 -16 -4q-11 0 -18 10l-80 129q-2 4 -2 11z" />
<glyph unicode="&#xfb;" horiz-adv-x="1249" d="M164 295q0 51 12 145l72 566q6 48 47 53l272 43h13q32 0 32 -31v-8l-77 -621q-13 -101 -13 -131q0 -62 33 -86q31 -22 96 -22q83 0 116 34.5t42 100.5l82 666q6 50 47 55l272 41q2 0 6.5 1t6.5 1q32 0 32 -33v-6l-88 -711q-13 -109 -54.5 -183.5t-113.5 -117 t-162.5 -60.5t-213.5 -18q-220 0 -328 58q-131 70 -131 264zM422 1354q0 12 10 20l344 213h72l291 -213q8 -8 8 -14q0 -9 -8 -17l-115 -131q-10 -10 -23 -10q-8 0 -12 4l-203 174l-243 -174q-8 -4 -17 -4q-11 0 -18 10l-84 131q-2 2 -2 11z" />
<glyph unicode="&#xfc;" horiz-adv-x="1249" d="M164 295q0 51 12 145l72 566q6 48 47 53l272 43h13q32 0 32 -31v-8l-77 -621q-13 -101 -13 -131q0 -62 33 -86q31 -22 96 -22q83 0 116 34.5t42 100.5l82 666q6 50 47 55l272 41q2 0 6.5 1t6.5 1q32 0 32 -33v-6l-88 -711q-13 -109 -54.5 -183.5t-113.5 -117 t-162.5 -60.5t-213.5 -18q-220 0 -328 58q-131 70 -131 264zM358 1296v2l21 170q2 14 17 25.5t36 11.5h244q20 0 32.5 -9.5t12.5 -22.5v-5l-23 -170q-2 -14 -16.5 -24t-34.5 -10h-244q-20 0 -32.5 9t-12.5 23zM866 1296v2l21 170q3 14 18.5 25.5t34.5 11.5h244 q20 0 32.5 -9.5t12.5 -22.5v-5l-21 -170q-2 -14 -17 -24t-36 -10h-244q-20 0 -32.5 9t-12.5 23z" />
<glyph unicode="&#xfd;" horiz-adv-x="1167" d="M113 -381q0 6 2 10l20 138q4 47 45 47h4q116 -7 119 -7q80 0 123.5 27.5t65.5 87.5l28 78h-172q-29 0 -33 33l-147 987v8q0 21 13 34t34 13h268q24 0 34 -7t13 -32l68 -817h55l252 817q6 23 19 31t37 8h270q18 0 28.5 -10t10.5 -25q0 -8 -4 -20l-447 -1124 q-32 -81 -64 -134t-83 -100t-126.5 -69.5t-178.5 -22.5q-46 0 -82.5 1t-60.5 3.5t-37.5 4t-28 4.5t-17.5 3q-28 6 -28 33zM498 1348q0 14 12 20l362 231q10 7 17 7q11 0 18 -13l88 -139q4 -8 4 -12q0 -13 -12 -19l-371 -221q-12 -4 -16 -4q-13 0 -18 10l-80 129q-4 8 -4 11z " />
<glyph unicode="&#xfe;" horiz-adv-x="1251" d="M86 -391l225 1835q6 47 49 55l271 41h12q35 0 35 -31v-8l-39 -309l-39 -131q131 41 260 41q197 0 291 -90q96 -93 96 -322q0 -211 -57 -385q-104 -332 -455 -332q-145 0 -264 37l6 -133l-26 -211q-3 -48 -48 -53l-270 -43h-12q-35 0 -35 31v8zM520 219q60 -10 123 -10 q56 0 88.5 9t60.5 39.5t45 85.5t31 149q21 160 21 227q0 92 -30 119.5t-109 27.5q-31 0 -69 -5.5t-61 -10.5l-22 -6z" />
<glyph unicode="&#xff;" horiz-adv-x="1167" d="M113 -381q0 6 2 10l20 138q4 47 45 47h4q116 -7 119 -7q80 0 123.5 27.5t65.5 87.5l28 78h-172q-29 0 -33 33l-147 987v8q0 21 13 34t34 13h268q24 0 34 -7t13 -32l68 -817h55l252 817q6 23 19 31t37 8h270q18 0 28.5 -10t10.5 -25q0 -8 -4 -20l-447 -1124 q-32 -81 -64 -134t-83 -100t-126.5 -69.5t-178.5 -22.5q-46 0 -82.5 1t-60.5 3.5t-37.5 4t-28 4.5t-17.5 3q-28 6 -28 33zM330 1296v2l20 170q2 14 17 25.5t36 11.5h244q19 0 32 -9.5t13 -22.5v-5l-20 -170q-3 -14 -18.5 -24t-35.5 -10h-243q-20 0 -32.5 9t-12.5 23z M838 1296v2l22 170q2 14 16.5 25.5t34.5 11.5h244q19 0 32 -9.5t13 -22.5v-5l-20 -170q-2 -14 -17.5 -24t-36.5 -10h-243q-20 0 -32.5 9t-12.5 23z" />
<glyph unicode="&#x2000;" horiz-adv-x="1020" />
<glyph unicode="&#x2001;" horiz-adv-x="2040" />
<glyph unicode="&#x2002;" horiz-adv-x="1020" />
<glyph unicode="&#x2003;" horiz-adv-x="2040" />
<glyph unicode="&#x2004;" horiz-adv-x="680" />
<glyph unicode="&#x2005;" horiz-adv-x="510" />
<glyph unicode="&#x2006;" horiz-adv-x="340" />
<glyph unicode="&#x2007;" horiz-adv-x="340" />
<glyph unicode="&#x2008;" horiz-adv-x="255" />
<glyph unicode="&#x2009;" horiz-adv-x="408" />
<glyph unicode="&#x200a;" horiz-adv-x="113" />
<glyph unicode="&#x2010;" horiz-adv-x="845" d="M154 481v4l18 152q2 17 18 30t37 13h561q20 0 31.5 -10.5t11.5 -26.5v-6l-18 -152q-3 -19 -19.5 -30t-35.5 -11h-561q-14 0 -28.5 10t-14.5 27z" />
<glyph unicode="&#x2011;" horiz-adv-x="845" d="M154 481v4l18 152q2 17 18 30t37 13h561q20 0 31.5 -10.5t11.5 -26.5v-6l-18 -152q-3 -19 -19.5 -30t-35.5 -11h-561q-14 0 -28.5 10t-14.5 27z" />
<glyph unicode="&#x2012;" horiz-adv-x="845" d="M154 481v4l18 152q2 17 18 30t37 13h561q20 0 31.5 -10.5t11.5 -26.5v-6l-18 -152q-3 -19 -19.5 -30t-35.5 -11h-561q-14 0 -28.5 10t-14.5 27z" />
<glyph unicode="&#x2013;" horiz-adv-x="1192" d="M154 481v4l27 152q3 17 27.5 30t55.5 13h849q30 0 47.5 -10.5t17.5 -26.5v-6l-27 -152q-5 -19 -30 -30t-53 -11h-849q-21 0 -43 10t-22 27z" />
<glyph unicode="&#x2014;" horiz-adv-x="2216" d="M154 481v4l54 152q7 17 55 30t112 13h1697q60 0 95 -10.5t35 -26.5v-6l-54 -152q-10 -19 -59.5 -30t-107.5 -11h-1697q-42 0 -86 10t-44 27z" />
<glyph unicode="&#x202f;" horiz-adv-x="408" />
<glyph unicode="&#x205f;" horiz-adv-x="510" />
<glyph unicode="&#x25fc;" horiz-adv-x="1075" d="M0 0v1075h1075v-1075h-1075z" />
<glyph unicode="&#xfb01;" horiz-adv-x="1460" d="M-98 -387q0 2 1 6t1 6l20 137q3 24 13.5 31.5t37.5 9.5q13 0 26 1t34 1q40 0 65.5 5t51.5 20.5t41 48.5t22 86l104 858h-157q-14 0 -22.5 7.5t-8.5 19.5v4l25 190q2 14 12 22.5t25 8.5h157l8 62q13 103 42.5 175t71.5 116.5t108.5 69.5t139 33.5t177.5 8.5q28 0 55 -1 t52.5 -3.5t46.5 -5t44 -6.5t37.5 -7t35.5 -8t29.5 -7t27.5 -7t22 -6q17 -5 17 -25v-14l-33 -162q-3 -16 -8.5 -22t-18.5 -6h-10q-171 24 -270 24q-65 0 -100 -5.5t-59.5 -24.5t-34 -49t-15.5 -87l-6 -43h671q18 0 28.5 -10.5t10.5 -24.5v-4l-123 -1005q-1 -13 -11.5 -22 t-24.5 -9h-291q-14 0 -22.5 7.5t-8.5 19.5q2 2 2 4l96 792h-358l-109 -860q-12 -94 -43 -165t-73.5 -114t-101.5 -69t-119 -35.5t-134 -9.5q-65 0 -157 10q-12 1 -19.5 3.5t-13.5 9.5t-6 20z" />
<glyph unicode="&#xfb02;" horiz-adv-x="1542" d="M-98 -387q0 2 1 6t1 6l20 137q3 24 13.5 31.5t37.5 9.5q13 0 26 1t34 1q40 0 65.5 5t51.5 20.5t41 48.5t22 86l104 858l-157 2q-31 0 -31 25q0 4 2 4l23 190q2 14 12 22.5t25 8.5h157l17 129q20 169 119.5 252.5t285.5 83.5q38 0 74.5 -2.5t62.5 -5.5t52.5 -7.5 t40.5 -7.5t30.5 -7t18.5 -5q18 -5 18 -26q0 -2 -1 -7t-1 -6l-45 -159q-6 -29 -25 -29q-6 0 -10 2q-6 1 -31 4t-51.5 5.5t-48.5 2.5q-69 0 -97.5 -22t-35.5 -82l-14 -113h358l47 375q2 24 10.5 35t30.5 14l277 41h12q35 0 35 -31v-8l-136 -1089q0 -1 -2.5 -21.5t-5 -46 t-2.5 -39.5q0 -29 15 -51q21 -21 51 -21q6 0 69 7h7q20 0 24 -25l8 -160v-4q0 -10 -6 -19.5t-11.5 -13.5t-8.5 -4q-67 -30 -213 -30q-147 0 -219 63q-80 68 -80 199q0 29 6.5 86.5t7.5 64.5l53 426h-358l-109 -860q-12 -94 -43 -165t-73.5 -114t-101.5 -69t-119 -35.5 t-134 -9.5q-65 0 -157 10q-12 1 -19.5 3.5t-13.5 9.5t-6 20z" />
</font>
</defs>
</svg>
