<?xml version="1.0" standalone="no"?>
<!DOCTYPE svg PUBLIC "-//W3C//DTD SVG 1.1//EN" "http://www.w3.org/Graphics/SVG/1.1/DTD/svg11.dtd" >
<svg xmlns="http://www.w3.org/2000/svg">
<metadata></metadata>
<defs>
<font id="max-blackscexpertregular" horiz-adv-x="1433" >
<font-face units-per-em="2048" ascent="1638" descent="-410" />
<missing-glyph horiz-adv-x="632" />
<glyph horiz-adv-x="0" />
<glyph horiz-adv-x="682" />
<glyph unicode=" "  horiz-adv-x="632" />
<glyph unicode="&#x09;" horiz-adv-x="632" />
<glyph unicode="&#xa0;" horiz-adv-x="632" />
<glyph unicode="!" horiz-adv-x="661" d="M180 -309v694q0 17 11 32t28 15h223q16 0 28.5 -13t12.5 -34v-694q0 -21 -12.5 -35t-28.5 -14h-223q-18 0 -28.5 17t-10.5 32zM180 639v696q0 16 11 31.5t28 15.5h223q16 0 28.5 -13.5t12.5 -33.5v-696q0 -21 -12.5 -34t-28.5 -13h-223q-18 0 -28.5 16t-10.5 31z" />
<glyph unicode="&#x22;" horiz-adv-x="1208" d="M139 1403q0 13 8 18l345 236q8 4 16 4q12 0 20 -10l95 -135q4 -4 4 -15q0 -10 -9 -16l-354 -223q-5 -5 -16 -5q-13 0 -21 11l-84 123q-4 8 -4 12zM582 1382q0 14 10 19l342 235q8 4 16 4q14 0 21 -10l94 -135q6 -6 6 -14q0 -10 -10 -17l-354 -223q-4 -4 -17 -4 q-12 0 -20 10l-84 123q-4 8 -4 12z" />
<glyph unicode="#" horiz-adv-x="1284" d="M135 477q0 12 17 25q164 110 294 110q76 0 195 -45q8 -3 29.5 -11t30 -11.5t26.5 -9.5t28.5 -8.5t25.5 -6t27.5 -5t25.5 -1.5q51 0 98 21t104 59q15 10 21 10q18 0 24 -14l64 -158q6 -6 6 -18q0 -13 -16 -25q-164 -110 -295 -110q-78 0 -197 45q-5 2 -28.5 11t-30 11.5 t-26 9.5t-28.5 9t-24.5 6t-28.5 5t-26 1q-80 0 -201 -80q-15 -10 -21 -10q-18 0 -24 14l-66 158q-4 8 -4 18zM135 903q0 12 17 25q164 110 294 110q76 0 195 -45q8 -3 29.5 -11t30 -11.5t26.5 -9.5t28.5 -8.5t25.5 -6t27.5 -5t25.5 -1.5q51 0 98 21t104 59q15 10 21 10 q18 0 24 -14l64 -158q6 -6 6 -18q0 -13 -16 -25q-164 -110 -295 -110q-78 0 -197 45q-5 2 -28.5 11t-30 11.5t-26 9.5t-28.5 9t-24.5 6t-28.5 5t-26 1q-80 0 -201 -80q-15 -10 -21 -10q-18 0 -24 14l-66 158q-4 8 -4 18z" />
<glyph unicode="$" horiz-adv-x="995" d="M115 -102q0 21 22 30l197 80v1462q0 20 9.5 33t21.5 15l401 102q4 2 14 2q23 0 33 -23l66 -163q2 -6 2 -13q0 -19 -21 -30l-198 -80v-1465q0 -39 -31 -47l-402 -100q-4 -2 -12 -2q-26 0 -35 22l-65 164q-2 4 -2 13z" />
<glyph unicode="%" horiz-adv-x="1284" d="M135 1225q0 11 17 24q165 111 294 111q76 0 195 -45q8 -3 29.5 -11t30 -11.5t26.5 -9.5t28.5 -8.5t25.5 -6t27.5 -5t25.5 -1.5q82 0 202 79q16 11 21 11q18 0 24 -15l64 -157q6 -6 6 -19q0 -12 -16 -24q-165 -111 -295 -111q-78 0 -197 45q-5 2 -28.5 11t-30 11.5 t-26 9.5t-28.5 9t-24.5 6t-28.5 5t-26 1q-80 0 -201 -80q-15 -10 -21 -10q-18 0 -24 15l-66 157q-4 8 -4 19zM143 213v170q0 18 15.5 31.5t38.5 13.5h893q22 0 36.5 -13.5t14.5 -31.5v-170q0 -19 -17 -31t-34 -12h-893q-17 0 -35.5 11.5t-18.5 31.5zM143 649v170 q0 18 15.5 30.5t38.5 12.5h893q23 0 37 -12.5t14 -30.5v-170q0 -20 -16.5 -31.5t-34.5 -11.5h-893q-17 0 -35.5 11.5t-18.5 31.5z" />
<glyph unicode="&#x26;" horiz-adv-x="1284" d="M86 33v223q0 29 12 43l408 459l-408 461q-12 14 -12 41v221q0 13 11.5 22.5t25.5 9.5h1042q15 0 24 -8t9 -22v-232q0 -12 -9 -21t-24 -9h-583l368 -428q13 -17 13 -37q0 -14 -11 -29l-381 -438h594q15 0 24 -8.5t9 -22.5v-227q0 -14 -9 -22.5t-24 -8.5h-1042 q-14 0 -25.5 10t-11.5 23z" />
<glyph unicode="'" d="M270 809l441 442l442 -442l-442 -440zM502 809l104 -104l211 210l105 -106l-211 -209l106 -104l313 313l-419 420l-105 -105l105 -104z" />
<glyph unicode="(" d="M270 809l441 442l442 -442l-442 -440zM502 809l104 -104l211 210l105 -106l-211 -209l106 -104l313 313l-419 420l-105 -105l105 -104z" />
<glyph unicode=")" d="M270 809l441 442l442 -442l-442 -440zM502 809l104 -104l211 210l105 -106l-211 -209l106 -104l313 313l-419 420l-105 -105l105 -104z" />
<glyph unicode="*" d="M270 809l441 442l442 -442l-442 -440zM502 809l104 -104l211 210l105 -106l-211 -209l106 -104l313 313l-419 420l-105 -105l105 -104z" />
<glyph unicode="+" d="M270 809l441 442l442 -442l-442 -440zM502 809l104 -104l211 210l105 -106l-211 -209l106 -104l313 313l-419 420l-105 -105l105 -104z" />
<glyph unicode="," horiz-adv-x="921" d="M162 1462q0 118 74 168.5t225 50.5t225 -50.5t74 -168.5q0 -119 -73.5 -170t-225.5 -51t-225.5 51t-73.5 170zM379 1462q0 -65 17 -93t65 -28t65 28t17 93t-17 93t-65 28q-47 0 -64.5 -28.5t-17.5 -92.5z" />
<glyph unicode="-" horiz-adv-x="1284" d="M180 526v181q0 14 14.5 25t36.5 11h824q21 0 36 -11t15 -25v-181q0 -16 -16.5 -25t-34.5 -9h-824q-17 0 -34 9t-17 25z" />
<glyph unicode="." horiz-adv-x="708" d="M143 1294v244q0 14 16 25.5t38 11.5h317q22 0 36.5 -11.5t14.5 -25.5v-244q0 -14 -14.5 -25.5t-36.5 -11.5h-317q-22 0 -38 11.5t-16 25.5z" />
<glyph unicode="/" horiz-adv-x="366" d="M-381 121l2 10l930 1378q3 9 14 9q2 0 5.5 -1t4.5 -1l166 -113q7 -7 7 -14t-3 -13l-929 -1378q-5 -8 -15 -8q-6 0 -10 4l-166 110q-6 6 -6 17z" />
<glyph unicode="0" horiz-adv-x="1150" d="M113 1036q0 87 8 151t36 134.5t76.5 115.5t135 74t206.5 29q87 0 156 -15t117 -40t83 -64t55.5 -79.5t32 -95t15.5 -102.5t4 -108t-4 -108.5t-15.5 -102.5t-32 -95t-55.5 -80t-83 -64.5t-117 -40.5t-156 -15t-156 15t-116.5 40t-83 64.5t-55.5 80.5t-32 95.5t-15.5 102.5 t-3.5 108zM395 1036q0 -64 3.5 -108t14.5 -85t30.5 -65t52 -38.5t79.5 -14.5t79.5 14.5t52 38t30 65.5t14 85.5t3.5 107.5t-3.5 108t-14.5 85.5t-30.5 65.5t-52 38.5t-78.5 14.5q-47 0 -79.5 -14.5t-52 -38.5t-30.5 -65.5t-14.5 -85.5t-3.5 -108z" />
<glyph unicode="1" horiz-adv-x="692" d="M41 1343v119q0 30 37 35l371 43h4q15 0 25.5 -14t10.5 -33v-893q0 -19 -11.5 -32t-26.5 -13h-185q-17 0 -29 13t-12 32v698l-147 13q-21 2 -29 8.5t-8 23.5z" />
<glyph unicode="2" horiz-adv-x="1021" d="M113 1438v8q0 30 28 41q149 53 381 53q207 0 300 -70.5t93 -220.5q0 -107 -70.5 -190.5t-182.5 -134.5l-263 -121v-39l478 12h2q15 0 29 -9t14 -28v-145q0 -18 -12 -28.5t-33 -10.5h-689q-21 0 -35 11t-14 28v221q0 35 18.5 68.5t43.5 52.5q23 16 88.5 53.5t119.5 66.5 l54 29q14 8 47.5 25.5t43.5 23.5t30.5 20.5t27 25.5t13 28.5t6.5 38.5q0 54 -40 76.5t-120 22.5q-95 0 -291 -48h-6q-13 0 -25 9t-14 20z" />
<glyph unicode="3" horiz-adv-x="1032" d="M113 1440v8q0 26 28 35q50 18 158 37.5t217 19.5q381 0 381 -262q0 -96 -59 -146.5t-150 -64.5v-37q118 -14 176 -65t58 -150q0 -79 -34 -136t-93 -88t-128 -45t-151 -14q-87 0 -186 13t-142 28q-28 11 -28 35q0 1 1 3t1 3l14 113q1 13 11 21t22 8q8 0 12 -2 q106 -27 238 -27q94 0 136 25.5t42 89.5q0 24 -8.5 41t-19.5 26.5t-33.5 16t-38 9t-45.5 5.5q-54 7 -95 14q-8 0 -23.5 9t-15.5 26v109q0 8 3 14.5t7.5 10t9 5.5t8.5 4l5 1q20 4 52.5 7.5t39.5 4.5q29 4 44.5 6.5t36.5 10t31.5 17t18 27t7.5 41.5q0 58 -39.5 78.5 t-120.5 20.5q-43 0 -88 -7t-106 -21.5t-87 -19.5q-2 0 -6 -1t-6 -1q-25 0 -33 33z" />
<glyph unicode="4" horiz-adv-x="1165" d="M113 801v141q0 30 20 59l365 490q5 8 19 16.5t24 8.5h321q17 0 29 -14t12 -34v-514h103q20 0 33.5 -11t13.5 -28v-122q0 -15 -13.5 -27t-33.5 -12h-97v-154q0 -20 -12 -33.5t-29 -13.5h-174q-16 0 -28.5 13.5t-12.5 33.5v156h-499q-17 0 -29 13t-12 32zM358 954h299v381 h-16z" />
<glyph unicode="5" horiz-adv-x="1003" d="M113 948l37 553q0 5 6 10t12 5h651q10 0 17.5 -6.5t7.5 -14.5v-149q0 -9 -7 -15t-18 -6h-420l-14 -203q78 25 162 25q75 0 136.5 -17t108.5 -52.5t73 -94.5t26 -137q0 -90 -35.5 -154t-98 -98t-133.5 -49t-157 -15q-117 0 -213.5 12.5t-120.5 22.5q-12 6 -12 15v4l20 149 q0 4 4.5 8t12.5 4h2q110 -18 276 -18q170 0 170 113q0 48 -37.5 79t-117.5 31q-33 0 -72.5 -3t-76.5 -8t-64.5 -9.5t-53.5 -9.5t-28 -5h-4q-8 0 -27 13q-12 12 -12 20z" />
<glyph unicode="6" horiz-adv-x="1079" d="M113 1032v10q0 81 7.5 142.5t27 120.5t54.5 100t88 72.5t130 47t178 15.5q76 0 147 -8t105 -16l33 -7q14 0 14 -12v-2l-16 -168q0 -10 -15 -10h-2q-145 29 -221 29q-57 0 -94 -4.5t-69.5 -17.5t-50 -37.5t-28 -63.5t-12.5 -97q2 1 19.5 8.5t27.5 11t32 10.5t41.5 10.5 t48 6.5t58.5 3q351 0 351 -314q0 -75 -23 -133.5t-61 -95t-93.5 -60.5t-115 -33.5t-129.5 -9.5q-106 0 -181 20.5t-123.5 58t-76.5 101.5t-39 139.5t-12 182.5zM395 922q0 -109 34 -154t114 -45q73 0 108 31.5t35 99.5q0 131 -141 131q-72 0 -150 -29v-34z" />
<glyph unicode="7" horiz-adv-x="960" d="M41 1343v152q0 8 7.5 14.5t17.5 6.5h796q10 0 17.5 -6.5t7.5 -14.5v-156q0 -17 -10 -30q-79 -86 -138.5 -162t-96 -128.5t-75.5 -131.5t-57 -120.5t-60 -145.5q-15 -36 -22 -54q0 -3 -8.5 -8.5t-16.5 -5.5h-235q-25 0 -25 18v7q80 216 188 394t273 351h-538 q-10 0 -17.5 6t-7.5 14z" />
<glyph unicode="8" horiz-adv-x="1118" d="M113 815q0 55 24 97.5t63.5 66.5t81 36.5t83.5 14.5v39q-1 0 -13.5 1.5t-22 2.5t-27.5 5t-32 9t-32.5 13.5t-32.5 19t-28.5 26t-24 34t-15.5 43t-6 53.5q0 74 36.5 128t100 82.5t136 41t159.5 12.5q68 0 127.5 -7.5t116.5 -26t97 -48t64.5 -76t24.5 -106.5q0 -29 -6 -54 t-15.5 -43t-23.5 -34t-28 -26.5t-32.5 -19.5t-32.5 -13.5t-31.5 -8.5t-27 -5.5t-21.5 -3t-13 -1.5v-37q42 -2 82.5 -15.5t78 -38.5t60.5 -68t23 -97q0 -142 -108.5 -211.5t-334.5 -69.5q-229 0 -339.5 70t-110.5 215zM395 840q0 -63 41 -90t123 -27q84 0 124 27t40 90 t-47.5 89.5t-118.5 26.5q-69 0 -115.5 -26.5t-46.5 -89.5zM406 1247q0 -102 151 -102q156 0 156 102q0 55 -38 79t-116 24t-115.5 -24t-37.5 -79z" />
<glyph unicode="9" horiz-adv-x="1079" d="M113 1210q0 92 34 158.5t95 103t133.5 52.5t161.5 16q105 0 180 -20.5t123.5 -58.5t76.5 -101t39 -139t11 -183v-8q0 -98 -11 -170t-42 -137t-84 -105.5t-140 -64t-207 -23.5q-76 0 -147.5 8t-105.5 16l-33 9q-5 0 -10 4t-5 8l17 168q4 11 14 11h4q154 -27 219 -27 q73 0 115.5 7t76 30t47.5 66.5t15 115.5q-2 -1 -14 -6l-18 -7.5t-20.5 -8t-26 -8.5t-29.5 -7t-35 -6.5t-39 -4t-45 -1.5q-350 0 -350 313zM395 1219q0 -132 140 -132q78 0 151 27v37q0 109 -34.5 154t-114.5 45q-72 0 -107 -32t-35 -99z" />
<glyph unicode=":" horiz-adv-x="1073" d="M143 1552v2q0 16 1.5 24t10.5 16t27 8h127q7 0 12.5 -1.5t9.5 -3t7 -5.5l4.5 -6t2.5 -8t1.5 -8t1 -9.5t0.5 -8.5q1 -48 16 -74.5t56 -40.5t117 -14q110 0 148 29.5t40 101.5q0 2 0.5 7t0.5 7t1 6.5t1.5 6.5t2 5.5t3.5 5.5t5 4t6.5 3t8 2t10.5 1h127q18 0 27 -8t10.5 -16 t1.5 -24v-2q0 -152 -100 -215t-293 -63q-194 0 -294 63t-100 215z" />
<glyph unicode=";" horiz-adv-x="1050" d="M158 1491q0 10 4 14l104 133q8 11 23 11q6 0 14 -4l223 -175l222 175q8 4 14 4q14 0 22 -11l105 -133q6 -6 6 -14q0 -9 -10 -16l-322 -215h-74l-323 215q-8 5 -8 16z" />
<glyph unicode="&#x3c;" horiz-adv-x="1284" d="M121 35v180q0 14 15 25.5t36 11.5h938q22 0 37.5 -11.5t15.5 -25.5v-180q0 -16 -17 -25.5t-36 -9.5h-938q-15 0 -33 10t-18 25zM121 707v155q0 32 29 45l872 357q12 6 22 6q20 0 31 -21l86 -174q4 -8 4 -16q0 -11 -8 -20t-16 -11l-686 -242l686 -241q24 -10 24 -33 q0 -4 -4 -16l-86 -174q-9 -19 -31 -19q-6 0 -22 4l-872 361q-29 13 -29 39z" />
<glyph unicode="=" horiz-adv-x="1284" d="M143 387v170q0 19 17.5 31t36.5 12h893q17 0 34 -12t17 -33v-168q0 -18 -14.5 -31.5t-36.5 -13.5h-517l-192 -301q-7 -10 -19 -10q-8 0 -12 2l-110 65q-7 7 -7 15q0 6 3 12l137 217h-176q-23 0 -38.5 13.5t-15.5 31.5zM143 743v170q0 18 15.5 30.5t38.5 12.5h516l192 304 q7 10 19 10q6 0 10 -4l113 -66q6 -3 6 -14q0 -6 -4 -10l-138 -220h179q23 0 37 -12.5t14 -30.5v-170q0 -20 -16.5 -31.5t-34.5 -11.5h-893q-17 0 -35.5 11.5t-18.5 31.5z" />
<glyph unicode="&#x3e;" horiz-adv-x="1284" d="M121 512q0 24 22 33l688 241l-688 242q-8 2 -15 11t-7 20q0 8 4 16l84 174q11 21 31 21q10 0 22 -6l873 -357q30 -12 30 -45v-155q0 -27 -30 -39l-873 -361q-16 -4 -22 -4q-22 0 -31 19l-84 174q-4 12 -4 16zM123 35v180q0 14 15 25.5t36 11.5h938q22 0 37.5 -11.5 t15.5 -25.5v-180q0 -16 -18 -25.5t-35 -9.5h-938q-18 0 -34.5 9.5t-16.5 25.5z" />
<glyph unicode="?" horiz-adv-x="1239" d="M80 522q0 549 436 549q93 0 154 -23t118 -69l5 6q-11 106 -51 185.5t-97.5 128t-139 78t-163.5 40t-182 10.5q-26 0 -40 15t-14 31v167q0 25 15.5 35.5t30.5 10.5q82 4 118 4q235 0 407 -72.5t277 -213t155 -334t50 -447.5q0 -63 -0.5 -97.5t-5.5 -97t-14 -100 t-27.5 -91.5t-45 -86.5t-67.5 -70.5t-93.5 -58.5t-125 -34.5t-159.5 -14q-150 0 -256 38t-168 112t-89.5 171.5t-27.5 227.5zM469 522q0 -172 29 -235.5t123 -63.5q95 0 122 62.5t27 236.5t-27 236.5t-122 62.5q-94 0 -123 -63.5t-29 -235.5z" />
<glyph unicode="@" d="M270 809l441 442l442 -442l-442 -440zM502 809l104 -104l211 210l105 -106l-211 -209l106 -104l313 313l-419 420l-105 -105l105 -104z" />
<glyph unicode="A" horiz-adv-x="1150" d="M113 481q0 61 3.5 109t15.5 102.5t32.5 95.5t55 80t82.5 64t117 40t156 15t156 -15t117 -40t83 -64t55.5 -80t32 -95.5t15.5 -102.5t4 -109q0 -60 -4 -108t-15.5 -102.5t-32 -95t-55.5 -79.5t-83 -64t-117 -40t-156 -15q-120 0 -206.5 29t-135 74t-76.5 115.5t-36 134.5 t-8 151zM395 483q0 -65 3.5 -109t14.5 -85.5t30.5 -65.5t52 -38.5t79.5 -14.5t79.5 14.5t52 38.5t30 65.5t14 85.5t3.5 109q0 64 -3.5 108t-14.5 85.5t-30.5 65.5t-52 38.5t-78.5 14.5q-47 0 -79.5 -14.5t-52 -38.5t-30.5 -65.5t-14.5 -85.5t-3.5 -108z" />
<glyph unicode="B" horiz-adv-x="692" d="M41 788v119q0 32 37 35l371 43q2 2 4 2q15 0 25.5 -14.5t10.5 -32.5v-893q0 -20 -11.5 -33.5t-26.5 -13.5h-185q-17 0 -29 13.5t-12 33.5v698l-147 11q-37 3 -37 32z" />
<glyph unicode="C" horiz-adv-x="1021" d="M113 885v8q0 13 8 24.5t20 16.5q144 51 381 51q207 0 300 -70t93 -219q0 -106 -70 -189.5t-183 -137.5l-263 -121v-37l478 12h2q14 0 28.5 -9.5t14.5 -27.5v-147q0 -18 -12 -28.5t-33 -10.5h-689q-20 0 -34.5 12t-14.5 27v223q0 34 18.5 67t43.5 54q23 16 88.5 53 t119.5 66l54 28q17 10 47.5 26t43 23.5t31.5 21t26.5 25t13.5 28.5t6 38q0 56 -40 77.5t-120 21.5q-103 0 -291 -46q-1 0 -3 -1t-3 -1q-13 0 -25 10t-14 21z" />
<glyph unicode="D" horiz-adv-x="1032" d="M113 887v6q0 25 28 37q50 18 158 37.5t217 19.5q381 0 381 -262q0 -97 -59.5 -148t-149.5 -63v-39q119 -14 176.5 -64t57.5 -149q0 -79 -34 -136.5t-93 -88.5t-128 -45.5t-151 -14.5q-84 0 -183.5 13t-144.5 28q-28 10 -28 37q0 1 1 3t1 3l14 113q1 12 11 19.5t22 7.5h12 q106 -27 238 -27q94 0 136 24.5t42 88.5q0 24 -9 41t-19.5 26.5t-34 16.5t-37.5 9.5t-45 6.5q-78 10 -95 12l-5 2q-6 2 -11 4.5t-10.5 6t-9 9.5t-3.5 13v111q0 8 3 14.5t7.5 10t9 5.5t8.5 3l5 2q29 3 92 12q35 4 54.5 8t41.5 14t32 29t10 49q0 58 -39.5 78.5t-120.5 20.5 q-43 0 -87 -6.5t-108.5 -21t-85.5 -18.5q-4 -2 -12 -2q-25 0 -33 31z" />
<glyph unicode="E" horiz-adv-x="1165" d="M113 248v139q0 33 20 62l365 489q5 8 19 15.5t24 7.5h321q17 0 29 -13.5t12 -32.5v-514h103q20 0 33.5 -12t13.5 -27v-122q0 -15 -13.5 -27t-33.5 -12h-97v-156q0 -19 -12 -32t-29 -13h-174q-15 0 -28 13.5t-13 31.5v156h-499q-17 0 -29 13.5t-12 33.5zM358 401h299v379 h-16z" />
<glyph unicode="F" horiz-adv-x="1003" d="M113 393v2l37 551q0 6 6 10.5t12 4.5h651q11 0 18 -6t7 -15v-149q0 -8 -7.5 -14.5t-17.5 -6.5h-420l-14 -201q78 23 162 23q156 0 250 -73.5t94 -225.5q0 -90 -35.5 -154t-98 -98t-133.5 -49t-157 -15q-115 0 -211 12t-123 21q-12 6 -12 17v4l20 147q0 4 4.5 8t12.5 4h2 q126 -18 276 -18q170 0 170 115q0 48 -37.5 79t-117.5 31q-33 0 -72.5 -3t-76.5 -8t-64.5 -9.5t-53.5 -9.5t-28 -5q-1 0 -2 -1t-2 -1q-12 0 -27 15q-12 8 -12 18z" />
<glyph unicode="G" horiz-adv-x="1079" d="M113 479v10q0 81 7.5 142.5t27 120.5t54.5 100t88 72.5t130 47t178 15.5q76 0 147 -8.5t105 -16.5l33 -8q14 0 14 -12l-16 -168q0 -10 -15 -10h-2q-154 27 -221 27q-57 0 -94 -4.5t-69.5 -17.5t-50 -37.5t-28 -63.5t-12.5 -97q1 1 23.5 10.5t37 14.5t41.5 12.5t58.5 11 t66.5 3.5q351 0 351 -314q0 -75 -23 -133.5t-61 -95t-93.5 -60.5t-115 -33.5t-129.5 -9.5q-106 0 -181 20.5t-123.5 58t-76.5 101.5t-39 139.5t-12 182.5zM395 367q0 -109 34 -154t114 -45q143 0 143 131t-141 131q-77 0 -150 -27v-36z" />
<glyph unicode="H" horiz-adv-x="960" d="M41 791v149q0 9 7.5 16t17.5 7h796q10 0 17.5 -7t7.5 -16v-156q0 -18 -10 -28q-98 -108 -163.5 -192.5t-113.5 -170.5t-76.5 -149t-75.5 -180q-13 -33 -20 -50q0 -3 -8.5 -8.5t-16.5 -5.5h-235q-25 0 -25 18v5q80 216 188 394.5t273 352.5h-538q-11 0 -18 6t-7 15z" />
<glyph unicode="I" horiz-adv-x="1118" d="M113 260q0 55 24 98.5t63.5 67.5t81 36.5t83.5 14.5v37q-1 0 -21.5 2.5t-38 7t-44.5 12.5t-47.5 23t-40.5 36t-31 54t-11 74q0 60 24.5 106.5t65 75.5t98 47.5t117 25.5t127.5 7q87 0 159 -12.5t135.5 -40.5t99.5 -81.5t36 -127.5q0 -41 -11 -74t-30.5 -54t-40.5 -36.5 t-47 -24t-44 -12.5t-37.5 -7t-20.5 -3v-37q42 -2 82.5 -15t78 -38t60.5 -68t23 -98q0 -142 -108.5 -210.5t-334.5 -68.5q-228 0 -339 70t-111 213zM395 285q0 -61 41 -89t123 -28q83 0 123.5 27.5t40.5 89.5q0 116 -166 116q-162 0 -162 -116zM406 694q0 -102 151 -102 q156 0 156 102q0 55 -38 78t-116 23t-115.5 -23t-37.5 -78z" />
<glyph unicode="J" horiz-adv-x="1079" d="M113 655q0 93 34 160t95.5 103.5t133.5 52.5t161 16q105 0 180 -20.5t123.5 -58.5t76.5 -101t39 -139t11 -183v-10q0 -81 -7.5 -142.5t-27 -120.5t-54.5 -100t-88 -72.5t-130 -47t-177 -15.5q-76 0 -147.5 7.5t-105.5 15.5l-33 8q-5 0 -10 4t-5 8v3l17 167q4 11 14 11h4 q145 -29 219 -29q73 0 115.5 7t76 30t47.5 66.5t15 115.5q-2 -1 -14 -6l-18 -7.5t-20.5 -8t-26 -8.5t-29.5 -7t-35 -6.5t-39 -4t-45 -1.5q-350 0 -350 313zM395 664q0 -132 140 -132q73 0 151 29v35q0 109 -34.5 154t-114.5 45q-73 0 -107.5 -31.5t-34.5 -99.5z" />
<glyph unicode="K" horiz-adv-x="1812" d="M31 676q0 193 111 292t300 99q63 0 119.5 -13t97.5 -30.5t88.5 -52t77.5 -61.5t80 -76q52 50 81 76t77.5 61.5t89 52.5t97 30t120.5 13q188 0 300 -99t112 -292q0 -191 -112.5 -290t-299.5 -99q-79 0 -143 15.5t-122 52.5t-97 69.5t-103 95.5q-49 -49 -80.5 -77t-78 -62 t-88 -51.5t-97.5 -30t-119 -12.5q-188 0 -299.5 98.5t-111.5 290.5zM311 676q0 -141 150 -141q53 0 137.5 45.5t146.5 95.5q-65 51 -148.5 96t-135.5 45q-150 0 -150 -141zM1067 676q62 -50 147 -95.5t138 -45.5q147 0 147 141t-147 141q-53 0 -136.5 -45.5t-148.5 -95.5z " />
<glyph unicode="L" horiz-adv-x="1376" d="M8 774q0 11 8.5 21t18.5 12l227 70v591q0 28 35 31l346 41h4q13 0 22 -9.5t9 -21.5v-510l328 99q6 2 20 2q23 0 29 -15l49 -170v-8q0 -27 -25 -33l-401 -120v-451h625q15 0 24.5 -8.5t9.5 -22.5v-241q0 -14 -9.5 -22.5t-24.5 -8.5h-1006q-15 0 -25 9t-10 22v600l-153 -47 q-8 -2 -19 -2q-26 0 -31 16l-49 168q0 1 -1 3.5t-1 4.5z" />
<glyph unicode="M" horiz-adv-x="1490" d="M16 1255v228q0 13 10 21.5t25 8.5h1391q15 0 24 -8t9 -22v-228q0 -14 -9 -22t-24 -8h-180v-1194q0 -13 -10 -22t-25 -9h-344q-15 0 -25 9t-10 22v1194h-203v-1194q0 -13 -10 -22t-25 -9h-346q-14 0 -23.5 9t-9.5 22v1194h-180q-15 0 -25 8.5t-10 21.5z" />
<glyph unicode="N" horiz-adv-x="1775" d="M23 756q0 12 10 22l829 727q8 8 27 8q18 0 24 -6l832 -727q8 -8 8 -24q0 -15 -8 -23l-830 -727q-8 -8 -30 -8q-16 0 -25 6l-829 729q-8 4 -8 23zM389 760l504 -449l498 445l-504 448z" />
<glyph unicode="O" horiz-adv-x="1579" d="M102 870q0 79 7 145t26.5 136.5t51.5 126t84.5 106t123 84t170.5 53t223 19.5t223.5 -19.5t171.5 -53t124 -84t85 -106t51.5 -125.5t26.5 -136.5t7 -145.5q0 -86 -19.5 -161.5t-61 -144.5t-112.5 -124t-168 -90v-59l326 -70q20 -4 20 -18v-172q0 -14 -8.5 -22.5 t-23.5 -8.5h-523q-15 0 -24 8.5t-9 22.5v438q96 60 137.5 152t41.5 225q0 87 -6.5 150t-23.5 119.5t-46.5 91t-76.5 54t-112 19.5q-66 0 -113 -19.5t-76 -54t-46 -91t-23 -119t-6 -150.5q0 -133 42.5 -225t138.5 -152v-438q0 -13 -10 -22t-25 -9h-520q-15 0 -25 9t-10 22 v172q0 14 22 18l326 70v59q-128 45 -211 128t-116.5 179.5t-33.5 212.5z" />
<glyph unicode="P" horiz-adv-x="1525" d="M193 31v1437q0 28 34 31l346 41h5q12 0 20 -9.5t8 -21.5v-276h391q259 0 377 -121q113 -113 113 -352q0 -244 -119 -363q-124 -121 -395 -121h-367v-245q0 -14 -9 -22.5t-24 -8.5h-346q-15 0 -24.5 8.5t-9.5 22.5zM606 528l211 9q149 3 195 49q47 44 47 172 q0 108 -43 151q-31 34 -85.5 43t-158.5 9h-166v-433z" />
<glyph unicode="Q" d="M270 809l441 442l442 -442l-442 -440zM502 809l104 -104l211 210l105 -106l-211 -209l106 -104l313 313l-419 420l-105 -105l105 -104z" />
<glyph unicode="R" d="M270 809l441 442l442 -442l-442 -440zM502 809l104 -104l211 210l105 -106l-211 -209l106 -104l313 313l-419 420l-105 -105l105 -104z" />
<glyph unicode="S" horiz-adv-x="1460" d="M131 1055q0 110 29.5 193.5t80.5 137.5t128 88t165 48t197 14q234 0 500 -68q47 -13 47 -51v-12l-33 -180q-2 -14 -12.5 -24.5t-24.5 -10.5q-6 0 -8 2q-109 23 -152.5 32t-121 19t-142.5 10q-54 0 -92 -5.5t-73.5 -21t-53.5 -47t-18 -79.5q0 -87 86 -123q45 -18 186 -40 q18 -3 31 -5q46 -7 78.5 -13.5t77 -17.5t75.5 -24t68.5 -33.5t63 -45t51 -60t41 -77t25 -96.5t9.5 -119q0 -103 -32 -184t-87 -133.5t-132 -87.5t-162.5 -49.5t-184.5 -14.5q-132 0 -266.5 18t-199 34t-93.5 26q-37 12 -37 51v11l31 180q5 39 37 39q7 0 27 -4q5 -1 43.5 -11 t78 -18.5t91.5 -18.5t107.5 -16t103.5 -6q123 0 186 34.5t63 123.5q0 21 -4.5 38t-10 30.5t-19 25.5t-23 19.5t-30.5 15.5t-33 12.5t-40 10t-41.5 8t-47 8t-48.5 8.5q-52 9 -91.5 17.5t-93 26.5t-92.5 39.5t-80.5 56.5t-67.5 78.5t-43 105t-17 135.5zM395 1855q0 7 4 15 l107 131q9 12 20 12q8 0 17 -6l221 -172l221 172q9 6 16 6q12 0 21 -12l106 -131q5 -10 5 -15q0 -11 -11 -18l-321 -215h-74l-321 215q-11 7 -11 18z" />
<glyph unicode="T" horiz-adv-x="1765" d="M10 674v184q0 13 13 21t26 8h189v596q0 12 10 21t24 9h682q166 0 287.5 -34.5t198.5 -95.5t123 -157.5t64 -208t18 -259.5q0 -105 -9 -190.5t-30 -165.5t-56 -140.5t-88.5 -111t-125 -83t-167.5 -50t-215 -17.5h-682q-14 0 -24 10t-10 23v610h-189q-17 0 -28 9.5 t-11 21.5zM653 272h258q76 0 128.5 15.5t89 48t57 91.5t29 137.5t8.5 193.5t-8.5 193.5t-29 137t-57 91t-88.5 48t-129 15.5h-258v-356h322q13 0 26 -7.5t13 -21.5v-184q0 -12 -11 -21.5t-28 -9.5h-322v-371z" />
<glyph unicode="U" d="M270 809l441 442l442 -442l-442 -440zM502 809l104 -104l211 210l105 -106l-211 -209l106 -104l313 313l-419 420l-105 -105l105 -104z" />
<glyph unicode="V" horiz-adv-x="1679" d="M31 1030q0 40 43 43l288 29h13q18 0 28.5 -8.5t14.5 -30.5l155 -830h56l223 1240q8 40 51 40h754q15 0 24 -8t9 -22v-230q0 -14 -9 -22t-24 -8h-477l-289 -1190q-7 -33 -37 -33h-524q-26 0 -37 33l-260 981q-2 6 -2 16z" />
<glyph unicode="W" d="M270 809l441 442l442 -442l-442 -440zM502 809l104 -104l211 210l105 -106l-211 -209l106 -104l313 313l-419 420l-105 -105l105 -104z" />
<glyph unicode="X" d="M270 809l441 442l442 -442l-442 -440zM502 809l104 -104l211 210l105 -106l-211 -209l106 -104l313 313l-419 420l-105 -105l105 -104z" />
<glyph unicode="Y" horiz-adv-x="1587" d="M-2 1470q0 13 13.5 28t19.5 15h395q23 0 33 -7.5t22 -32.5l334 -605l315 607q12 23 22 30.5t32 7.5h379q28 0 28 -36q0 -15 -2 -17l-575 -913v-516q0 -13 -9.5 -22t-23.5 -9h-346q-15 0 -25 9t-10 22v508l-598 919q-4 8 -4 12zM528 1784q0 7 11 18l342 236q12 4 16 4 q16 0 21 -10l112 -150q4 -8 4 -14q0 -10 -10 -17l-354 -223q-4 -4 -17 -4t-20 10l-98 135q-7 7 -7 15z" />
<glyph unicode="Z" horiz-adv-x="1468" d="M90 1253v230q0 13 9.5 21.5t23.5 8.5h1194q15 0 25 -9t10 -21v-221q0 -20 -15 -43l-739 -930h748q13 0 22.5 -8.5t9.5 -20.5v-229q0 -13 -9 -22t-23 -9h-1209q-15 0 -25 9.5t-10 21.5v205q0 26 19 55l725 932h-723q-14 0 -23.5 8.5t-9.5 21.5zM358 1855q0 7 4 15l107 131 q9 12 20 12q8 0 17 -6l221 -172l221 172q6 6 17 6t20 -12l107 -131q4 -8 4 -15q0 -11 -11 -18l-321 -215h-74l-321 215q-11 7 -11 18z" />
<glyph unicode="[" d="M270 809l441 442l442 -442l-442 -440zM502 809l104 -104l211 210l105 -106l-211 -209l106 -104l313 313l-419 420l-105 -105l105 -104z" />
<glyph unicode="\" d="M270 809l441 442l442 -442l-442 -440zM502 809l104 -104l211 210l105 -106l-211 -209l106 -104l313 313l-419 420l-105 -105l105 -104z" />
<glyph unicode="]" d="M270 809l441 442l442 -442l-442 -440zM502 809l104 -104l211 210l105 -106l-211 -209l106 -104l313 313l-419 420l-105 -105l105 -104z" />
<glyph unicode="^" d="M270 809l441 442l442 -442l-442 -440zM502 809l104 -104l211 210l105 -106l-211 -209l106 -104l313 313l-419 420l-105 -105l105 -104z" />
<glyph unicode="_" horiz-adv-x="1050" d="M158 1425q0 11 8 19l323 215h74l322 -215q10 -10 10 -19q0 -8 -6 -14l-105 -137q-9 -12 -20 -12q-10 0 -16 6l-222 172l-223 -172q-6 -6 -14 -6q-14 0 -23 12l-104 137q-4 4 -4 14z" />
<glyph unicode="`" horiz-adv-x="792" d="M143 -233q0 54 22 106t62 97.5t73 75.5t77 63l135 -84q-83 -77 -119.5 -131.5t-36.5 -110.5q0 -37 21.5 -53.5t87.5 -16.5q37 0 72 3.5t51 7.5l16 4h2q9 0 17 -5.5t10 -11.5l16 -94v-4q0 -16 -20 -21q-99 -22 -221 -22q-125 0 -195 47.5t-70 149.5z" />
<glyph unicode="a" horiz-adv-x="2347" d="M152 1343v119q0 30 36 35l371 43h4q15 0 26 -14t11 -33v-893q0 -18 -12 -31.5t-27 -13.5h-184q-17 0 -29 13t-12 32v698l-148 13q-21 2 -28.5 8.5t-7.5 23.5zM471 121v10l930 1380q3 7 14 7q2 0 5.5 -1t4.5 -1l166 -113q8 -8 8 -14q0 -5 -4 -13l-929 -1378q-3 -8 -15 -8 q-6 0 -10 4l-166 110q-4 4 -4 17zM1235 248v139q0 33 20 62l365 489q5 8 18.5 15.5t22.5 7.5h324q17 0 28.5 -13.5t11.5 -32.5v-514h103q20 0 33.5 -12t13.5 -27v-122q0 -15 -13.5 -27t-33.5 -12h-96v-154q0 -20 -12 -33.5t-29 -13.5h-174q-17 0 -29 13.5t-12 33.5v154h-500 q-17 0 -29 13.5t-12 33.5zM1481 401h297v379h-15z" />
<glyph unicode="b" horiz-adv-x="2390" d="M152 1343v119q0 30 36 35l371 43h4q15 0 26 -14t11 -33v-893q0 -18 -12 -31.5t-27 -13.5h-184q-17 0 -29 13t-12 32v698l-148 13q-21 2 -28.5 8.5t-7.5 23.5zM471 121v10l930 1378q3 9 14 9q2 0 5.5 -1t4.5 -1l166 -113q8 -8 8 -14q0 -5 -4 -13l-929 -1378q-3 -8 -15 -8 q-6 0 -10 4l-166 110q-4 4 -4 17zM1386 893q0 13 8.5 24.5t22.5 16.5q144 51 379 51q209 0 302 -70t93 -219q0 -106 -71 -188.5t-185 -138.5l-262 -125v-33l479 12q15 0 30.5 -9.5t15.5 -27.5v-147q0 -17 -13 -28t-33 -11h-688q-20 0 -34.5 12t-14.5 27v223q0 35 18.5 67.5 t43.5 51.5q23 17 88.5 54.5t119.5 66.5l54 28q17 10 55 30t50 28.5t31.5 25.5t25.5 35t6 43q0 56 -40 77.5t-120 21.5q-101 0 -293 -46q-1 0 -3 -1t-3 -1q-12 0 -23.5 10t-13.5 21l-22 111q-3 3 -3 8z" />
<glyph unicode="c" horiz-adv-x="2603" d="M131 1440v8q0 25 29 35q49 18 158 37.5t217 19.5q380 0 380 -262q0 -97 -59.5 -149t-148.5 -64v-31q117 -14 175 -66.5t58 -152.5q0 -79 -33.5 -136t-93 -88t-128 -45t-150.5 -14q-87 0 -186 13t-142 28q-29 11 -29 35q0 1 1 3t1 3l15 113q1 13 10.5 21t21.5 8q9 0 13 -2 q106 -27 237 -27q94 0 136 25.5t42 89.5q0 24 -8.5 41t-19.5 26.5t-33.5 16t-38 9t-45.5 5.5q-50 6 -94 14q-8 0 -23.5 9t-15.5 26v109q0 8 3 14.5t7.5 10t9 5.5t9.5 4l4 1q20 4 52.5 7.5t39.5 4.5q28 4 44 6.5t36.5 10t31 17.5t18 27t7.5 41q0 58 -39.5 78.5t-120.5 20.5 q-43 0 -88 -7t-105.5 -21.5t-86.5 -19.5q-2 0 -6.5 -1t-6.5 -1q-24 0 -32 33zM725 121v10l930 1378q6 9 14 9q2 0 5.5 -1t4.5 -1l166 -113q8 -8 8 -14q0 -5 -4 -13l-929 -1378q-3 -8 -15 -8q-6 0 -10 4l-166 110q-4 4 -4 17zM1491 248v141q0 33 20 62l365 491q5 8 19 16.5 t24 8.5h322q17 0 28.5 -13.5t11.5 -33.5v-517h103q20 0 33.5 -11.5t13.5 -26.5v-123q0 -17 -13.5 -28t-33.5 -11h-96v-156q0 -20 -12 -33.5t-27 -13.5h-176q-15 0 -27 13.5t-12 33.5v156h-502q-17 0 -29 13t-12 32zM1737 403h299v381h-17z" />
<glyph unicode="d" horiz-adv-x="1546" d="M29 37q0 12 2 18l504 1432q4 10 17 18t23 8h396q10 0 24 -8t17 -18l506 -1432q2 -6 2 -18q0 -15 -11 -26t-34 -11h-1401q-23 0 -34 11t-11 26zM381 219h776l-338 1061h-96z" />
<glyph unicode="e" horiz-adv-x="1515" d="M63 506v153q0 13 8.5 22t22.5 9h1213q12 0 21 -7t9 -19v-2l-20 -156q-3 -16 -12.5 -23.5t-18.5 -7.5h-555q37 -119 105.5 -163t224.5 -44q52 0 112.5 6t102 13.5t77 14.5t36.5 7q16 4 22 4q25 0 31 -24l33 -187q2 -6 2 -12q0 -28 -45 -43q-45 -19 -87.5 -31t-138.5 -23 t-223 -11h-8q-325 0 -483 115t-199 378h-199q-14 0 -22.5 8.5t-8.5 22.5zM63 827v156q0 13 8.5 22t22.5 9h197q26 187 102.5 299t219.5 166q140 53 362 53h8q127 -1 224 -13t137.5 -23.5t87.5 -29.5q45 -18 45 -43q0 -8 -2 -12l-33 -186q-6 -25 -31 -25q-14 0 -22 2 q-20 5 -59 13t-120.5 18t-148.5 10q-164 0 -233 -48.5t-103 -180.5h596q12 0 21.5 -7.5t9.5 -19.5v-4l-21 -154q-5 -30 -31 -30h-1206q-13 0 -22 8t-9 20z" />
<glyph unicode="f" d="M270 809l441 442l442 -442l-442 -440zM502 809l104 -104l211 210l105 -106l-211 -209l106 -104l313 313l-419 420l-105 -105l105 -104z" />
<glyph unicode="g" d="M270 809l441 442l442 -442l-442 -440zM502 809l104 -104l211 210l105 -106l-211 -209l106 -104l313 313l-419 420l-105 -105l105 -104z" />
<glyph unicode="h" d="M270 809l441 442l442 -442l-442 -440zM502 809l104 -104l211 210l105 -106l-211 -209l106 -104l313 313l-419 420l-105 -105l105 -104z" />
<glyph unicode="i" d="M270 809l441 442l442 -442l-442 -440zM502 809l104 -104l211 210l105 -106l-211 -209l106 -104l313 313l-419 420l-105 -105l105 -104z" />
<glyph unicode="j" d="M270 809l441 442l442 -442l-442 -440zM502 809l104 -104l211 210l105 -106l-211 -209l106 -104l313 313l-419 420l-105 -105l105 -104z" />
<glyph unicode="k" horiz-adv-x="724" d="M174 29v1075q0 22 33 26l311 52h6q12 0 19.5 -8.5t7.5 -20.5v-1124q0 -12 -10.5 -20.5t-24.5 -8.5h-307q-14 0 -24.5 8.5t-10.5 20.5z" />
<glyph unicode="l" horiz-adv-x="1175" d="M37 561v6q0 9 6 17t12 10l170 53v457q0 22 33 26l311 52h6q11 0 19 -8.5t8 -20.5v-395l252 82q2 0 7.5 1t8.5 1q16 0 23 -13l39 -139v-8q0 -22 -19 -27l-311 -92v-293h481q15 0 25 -9t10 -21v-211q0 -12 -10 -20.5t-25 -8.5h-823q-14 0 -24.5 8.5t-10.5 20.5v422 l-110 -35q-4 -2 -15 -2q-21 0 -24 12z" />
<glyph unicode="m" horiz-adv-x="1284" d="M-4 846v198q0 13 9.5 22t23.5 9h1226q15 0 25 -9t10 -22v-198q0 -13 -10 -22t-25 -9h-141v-784q0 -13 -10 -22t-25 -9h-317q-15 0 -25 9t-10 22v784h-168v-784q0 -13 -10 -22t-25 -9h-317q-15 0 -25 9t-10 22v784h-143q-14 0 -23.5 9t-9.5 22z" />
<glyph unicode="n" d="M270 809l441 442l442 -442l-442 -440zM502 809l104 -104l211 210l105 -106l-211 -209l106 -104l313 313l-419 420l-105 -105l105 -104z" />
<glyph unicode="o" horiz-adv-x="1615" d="M256 391q0 11 8 19l127 112q-35 93 -35 178q0 84 35 177l-127 114q-8 5 -8 17q0 14 14 28l154 154q14 14 29 14q10 0 18 -8l117 -106q97 38 221 38q122 0 219 -38l117 106q8 8 18 8q15 0 29 -14l154 -154q14 -14 14 -28q0 -12 -8 -17l-127 -114q35 -85 35 -177 q0 -93 -35 -178l127 -112q8 -8 8 -19q0 -15 -14 -29l-154 -153q-12 -12 -29 -12q-10 0 -18 8l-117 104q-95 -37 -219 -37q-126 0 -221 37l-117 -104q-8 -8 -18 -8q-17 0 -29 12l-154 153q-14 14 -14 29zM618 700q0 -117 39 -161.5t152 -44.5q111 0 150.5 45t39.5 161 q0 115 -39.5 160t-150.5 45q-113 0 -152 -44.5t-39 -160.5z" />
<glyph unicode="p" horiz-adv-x="1298" d="M174 29v1075q0 22 33 26l311 52h6q12 0 19.5 -8.5t7.5 -20.5v-176h280q207 0 307.5 -89.5t100.5 -281.5q0 -189 -96 -280q-104 -101 -326 -101h-6l-260 2v-198q0 -12 -10.5 -20.5t-24.5 -8.5h-307q-14 0 -24.5 8.5t-10.5 20.5zM551 451l139 4q99 3 130.5 28.5t31.5 118.5 q0 76 -29 105q-19 18 -56 23t-114 5h-102v-284z" />
<glyph unicode="q" d="M270 809l441 442l442 -442l-442 -440zM502 809l104 -104l211 210l105 -106l-211 -209l106 -104l313 313l-419 420l-105 -105l105 -104z" />
<glyph unicode="r" d="M270 809l441 442l442 -442l-442 -440zM502 809l104 -104l211 210l105 -106l-211 -209l106 -104l313 313l-419 420l-105 -105l105 -104z" />
<glyph unicode="s" horiz-adv-x="1243" d="M127 799q0 108 37.5 184.5t107.5 118t156 60t197 18.5q198 0 409 -54q45 -13 45 -47q0 -8 -2 -12l-30 -160q-2 -13 -11.5 -23t-23.5 -10q-2 0 -8 3q-231 51 -338 51q-83 0 -122.5 -19.5t-39.5 -70.5q0 -19 9 -33.5t19 -23t31 -15.5t31.5 -9.5t34.5 -6.5q41 -6 90 -15 q48 -7 81 -13.5t79 -20t77.5 -31t65.5 -46.5t54.5 -65.5t34 -89.5t13.5 -117q0 -101 -40.5 -175t-112 -115t-155.5 -59.5t-185 -18.5q-238 0 -459 61q-35 12 -35 49v8l29 158q5 33 35 33q16 0 24 -2q84 -19 119.5 -27t105 -18t121.5 -10q90 0 129 21t39 71q0 24 -10 41 t-29.5 27t-36 14.5t-42.5 9.5q-66 9 -93 14q-40 6 -72.5 13t-76 21t-76.5 31t-67.5 45.5t-57 63t-37 83.5t-14.5 108zM270 1491q0 8 6 14l105 131q10 13 20 13t17 -7l221 -172l223 172q7 7 15 7q12 0 22 -13l105 -131q4 -8 4 -14q0 -13 -11 -18l-321 -216h-74l-321 216 q-11 7 -11 18z" />
<glyph unicode="t" horiz-adv-x="1484" d="M37 512v143q0 12 11.5 19.5t23.5 7.5h139v451q0 12 11 20t26 8h551q136 0 236 -27t163 -74.5t101 -122t52.5 -159t14.5 -196.5t-14.5 -197t-52.5 -160t-101 -122.5t-163 -75t-236 -27.5h-551q-15 0 -26 8.5t-11 20.5v456h-139q-15 0 -25 8t-10 19zM590 244h176 q88 0 133 27.5t64.5 98.5t19.5 212t-19.5 212t-64.5 98.5t-133 27.5h-176v-238h217q11 0 23 -7.5t12 -19.5v-143q0 -11 -10 -19t-25 -8h-217v-241z" />
<glyph unicode="u" d="M270 809l441 442l442 -442l-442 -440zM502 809l104 -104l211 210l105 -106l-211 -209l106 -104l313 313l-419 420l-105 -105l105 -104z" />
<glyph unicode="v" d="M270 809l441 442l442 -442l-442 -440zM502 809l104 -104l211 210l105 -106l-211 -209l106 -104l313 313l-419 420l-105 -105l105 -104z" />
<glyph unicode="w" d="M270 809l441 442l442 -442l-442 -440zM502 809l104 -104l211 210l105 -106l-211 -209l106 -104l313 313l-419 420l-105 -105l105 -104z" />
<glyph unicode="x" horiz-adv-x="1284" d="M127 340q0 18 16 31l322 297l-322 297q-16 13 -16 30q0 15 14 29l133 131q18 14 31 14q14 0 33 -16l305 -311l305 311q16 16 33 16q15 0 29 -14l133 -131q16 -13 16 -29q0 -15 -18 -30l-322 -297l322 -297q18 -15 18 -31q0 -15 -16 -31l-133 -129q-14 -14 -29 -14 q-20 0 -33 16l-305 314l-305 -314q-16 -16 -33 -16q-13 0 -31 14l-133 129q-14 17 -14 31z" />
<glyph unicode="y" horiz-adv-x="1374" d="M25 1110q0 10 7 23t14 20.5t9 7.5h357q21 0 31 -7t22 -30l240 -428l227 428q12 23 21.5 30t29.5 7h342q29 0 29 -35q0 -10 -4 -14l-461 -702v-381q0 -12 -10.5 -20.5t-24.5 -8.5h-307q-14 0 -24.5 8.5t-10.5 20.5v372l-483 697q-4 8 -4 12zM430 1417q0 9 10 19l342 235 q12 4 17 4q15 0 20 -10l113 -149q4 -8 4 -15q0 -11 -10 -16l-355 -223q-5 -5 -16 -5q-12 0 -20 11l-99 135q-6 6 -6 14z" />
<glyph unicode="z" horiz-adv-x="1251" d="M96 932v201q0 12 10.5 20t24.5 8h969q15 0 25 -8t10 -20v-181q0 -27 -17 -47l-551 -647h555q14 0 24.5 -8.5t10.5 -20.5v-200q0 -12 -10.5 -20.5t-24.5 -8.5h-981q-15 0 -26 8.5t-11 20.5v170q0 24 21 55l543 649h-537q-14 0 -24.5 8.5t-10.5 20.5zM274 1491q0 4 5 14 l104 133q8 11 23 11q6 0 14 -4l223 -175l221 175q8 4 17 4q12 0 20 -11l105 -133q6 -6 6 -14q0 -9 -11 -16l-321 -215h-74l-321 215q-11 5 -11 16z" />
<glyph unicode="{" d="M270 809l441 442l442 -442l-442 -440zM502 809l104 -104l211 210l105 -106l-211 -209l106 -104l313 313l-419 420l-105 -105l105 -104z" />
<glyph unicode="|" d="M270 809l441 442l442 -442l-442 -440zM502 809l104 -104l211 210l105 -106l-211 -209l106 -104l313 313l-419 420l-105 -105l105 -104z" />
<glyph unicode="}" d="M270 809l441 442l442 -442l-442 -440zM502 809l104 -104l211 210l105 -106l-211 -209l106 -104l313 313l-419 420l-105 -105l105 -104z" />
<glyph unicode="~" d="M270 809l441 442l442 -442l-442 -440zM502 809l104 -104l211 210l105 -106l-211 -209l106 -104l313 313l-419 420l-105 -105l105 -104z" />
<glyph horiz-adv-x="1515" d="M63 506v153q0 13 8.5 22t22.5 9h1213q12 0 21 -7t9 -19v-2l-20 -156q-3 -16 -12.5 -23.5t-18.5 -7.5h-555q37 -119 105.5 -163t224.5 -44q52 0 112.5 6t102 13.5t77 14.5t36.5 7q16 4 22 4q25 0 31 -24l33 -187q2 -6 2 -12q0 -28 -45 -43q-45 -19 -87.5 -31t-138.5 -23 t-223 -11h-8q-325 0 -483 115t-199 378h-199q-14 0 -22.5 8.5t-8.5 22.5zM63 827v156q0 13 8.5 22t22.5 9h197q26 187 102.5 299t219.5 166t370 53q127 -1 224 -13t137.5 -23.5t87.5 -29.5q45 -18 45 -43q0 -8 -2 -12l-33 -186q-6 -25 -31 -25q-14 0 -22 2q-20 5 -59 13 t-120.5 18t-148.5 10q-164 0 -233 -48.5t-103 -180.5h596q12 0 21.5 -7.5t9.5 -19.5v-4l-21 -154q-5 -30 -31 -30h-1206q-13 0 -22 8t-9 20z" />
<glyph d="M270 809l441 442l442 -442l-442 -440zM502 809l104 -104l211 210l105 -106l-211 -209l106 -104l313 313l-419 420l-105 -105l105 -104z" />
<glyph d="M270 809l441 442l442 -442l-442 -440zM502 809l104 -104l211 210l105 -106l-211 -209l106 -104l313 313l-419 420l-105 -105l105 -104z" />
<glyph d="M270 809l441 442l442 -442l-442 -440zM502 809l104 -104l211 210l105 -106l-211 -209l106 -104l313 313l-419 420l-105 -105l105 -104z" />
<glyph unicode="&#x85;" d="M270 809l441 442l442 -442l-442 -440zM502 809l104 -104l211 210l105 -106l-211 -209l106 -104l313 313l-419 420l-105 -105l105 -104z" />
<glyph d="M270 809l441 442l442 -442l-442 -440zM502 809l104 -104l211 210l105 -106l-211 -209l106 -104l313 313l-419 420l-105 -105l105 -104z" />
<glyph d="M270 809l441 442l442 -442l-442 -440zM502 809l104 -104l211 210l105 -106l-211 -209l106 -104l313 313l-419 420l-105 -105l105 -104z" />
<glyph d="M270 809l441 442l442 -442l-442 -440zM502 809l104 -104l211 210l105 -106l-211 -209l106 -104l313 313l-419 420l-105 -105l105 -104z" />
<glyph d="M270 809l441 442l442 -442l-442 -440zM502 809l104 -104l211 210l105 -106l-211 -209l106 -104l313 313l-419 420l-105 -105l105 -104z" />
<glyph d="M270 809l441 442l442 -442l-442 -440zM502 809l104 -104l211 210l105 -106l-211 -209l106 -104l313 313l-419 420l-105 -105l105 -104z" />
<glyph d="M270 809l441 442l442 -442l-442 -440zM502 809l104 -104l211 210l105 -106l-211 -209l106 -104l313 313l-419 420l-105 -105l105 -104z" />
<glyph d="M270 809l441 442l442 -442l-442 -440zM502 809l104 -104l211 210l105 -106l-211 -209l106 -104l313 313l-419 420l-105 -105l105 -104z" />
<glyph d="M270 809l441 442l442 -442l-442 -440zM502 809l104 -104l211 210l105 -106l-211 -209l106 -104l313 313l-419 420l-105 -105l105 -104z" />
<glyph d="M270 809l441 442l442 -442l-442 -440zM502 809l104 -104l211 210l105 -106l-211 -209l106 -104l313 313l-419 420l-105 -105l105 -104z" />
<glyph d="M270 809l441 442l442 -442l-442 -440zM502 809l104 -104l211 210l105 -106l-211 -209l106 -104l313 313l-419 420l-105 -105l105 -104z" />
<glyph d="M270 809l441 442l442 -442l-442 -440zM502 809l104 -104l211 210l105 -106l-211 -209l106 -104l313 313l-419 420l-105 -105l105 -104z" />
<glyph d="M270 809l441 442l442 -442l-442 -440zM502 809l104 -104l211 210l105 -106l-211 -209l106 -104l313 313l-419 420l-105 -105l105 -104z" />
<glyph horiz-adv-x="847" d="M154 524v365q0 37 25.5 63.5t62.5 26.5h364q37 0 62.5 -26.5t25.5 -63.5v-365q0 -37 -25.5 -63.5t-62.5 -26.5h-362q-37 0 -63.5 26.5t-26.5 63.5z" />
<glyph d="M270 809l441 442l442 -442l-442 -440zM502 809l104 -104l211 210l105 -106l-211 -209l106 -104l313 313l-419 420l-105 -105l105 -104z" />
<glyph d="M270 809l441 442l442 -442l-442 -440zM502 809l104 -104l211 210l105 -106l-211 -209l106 -104l313 313l-419 420l-105 -105l105 -104z" />
<glyph d="M270 809l441 442l442 -442l-442 -440zM502 809l104 -104l211 210l105 -106l-211 -209l106 -104l313 313l-419 420l-105 -105l105 -104z" />
<glyph d="M270 809l441 442l442 -442l-442 -440zM502 809l104 -104l211 210l105 -106l-211 -209l106 -104l313 313l-419 420l-105 -105l105 -104z" />
<glyph d="M270 809l441 442l442 -442l-442 -440zM502 809l104 -104l211 210l105 -106l-211 -209l106 -104l313 313l-419 420l-105 -105l105 -104z" />
<glyph d="M270 809l441 442l442 -442l-442 -440zM502 809l104 -104l211 210l105 -106l-211 -209l106 -104l313 313l-419 420l-105 -105l105 -104z" />
<glyph d="M270 809l441 442l442 -442l-442 -440zM502 809l104 -104l211 210l105 -106l-211 -209l106 -104l313 313l-419 420l-105 -105l105 -104z" />
<glyph d="M270 809l441 442l442 -442l-442 -440zM502 809l104 -104l211 210l105 -106l-211 -209l106 -104l313 313l-419 420l-105 -105l105 -104z" />
<glyph d="M270 809l441 442l442 -442l-442 -440zM502 809l104 -104l211 210l105 -106l-211 -209l106 -104l313 313l-419 420l-105 -105l105 -104z" />
<glyph unicode="&#xa1;" d="M270 809l441 442l442 -442l-442 -440zM502 809l104 -104l211 210l105 -106l-211 -209l106 -104l313 313l-419 420l-105 -105l105 -104z" />
<glyph unicode="&#xa2;" d="M270 809l441 442l442 -442l-442 -440zM502 809l104 -104l211 210l105 -106l-211 -209l106 -104l313 313l-419 420l-105 -105l105 -104z" />
<glyph unicode="&#xa3;" d="M270 809l441 442l442 -442l-442 -440zM502 809l104 -104l211 210l105 -106l-211 -209l106 -104l313 313l-419 420l-105 -105l105 -104z" />
<glyph unicode="&#xa4;" horiz-adv-x="1615" d="M256 391q0 11 8 19l127 112q-35 93 -35 178q0 84 35 177l-127 114q-8 5 -8 17q0 14 14 28l154 154q14 14 29 14q10 0 18 -8l117 -106q97 38 221 38q122 0 219 -38l117 106q8 8 18 8q15 0 29 -14l154 -154q14 -14 14 -28q0 -12 -8 -17l-127 -114q35 -85 35 -177 q0 -93 -35 -178l127 -112q8 -8 8 -19q0 -15 -14 -29l-154 -153q-12 -12 -29 -12q-10 0 -18 8l-117 104q-95 -37 -219 -37q-126 0 -221 37l-117 -104q-8 -8 -18 -8q-17 0 -29 12l-154 153q-14 14 -14 29zM618 700q0 -117 39 -161.5t152 -44.5q111 0 150.5 45t39.5 161 q0 115 -39.5 160t-150.5 45q-113 0 -152 -44.5t-39 -160.5z" />
<glyph unicode="&#xa5;" d="M270 809l441 442l442 -442l-442 -440zM502 809l104 -104l211 210l105 -106l-211 -209l106 -104l313 313l-419 420l-105 -105l105 -104z" />
<glyph unicode="&#xa6;" d="M270 809l441 442l442 -442l-442 -440zM502 809l104 -104l211 210l105 -106l-211 -209l106 -104l313 313l-419 420l-105 -105l105 -104z" />
<glyph unicode="&#xa7;" d="M270 809l441 442l442 -442l-442 -440zM502 809l104 -104l211 210l105 -106l-211 -209l106 -104l313 313l-419 420l-105 -105l105 -104z" />
<glyph unicode="&#xa8;" d="M270 809l441 442l442 -442l-442 -440zM502 809l104 -104l211 210l105 -106l-211 -209l106 -104l313 313l-419 420l-105 -105l105 -104z" />
<glyph unicode="&#xa9;" d="M270 809l441 442l442 -442l-442 -440zM502 809l104 -104l211 210l105 -106l-211 -209l106 -104l313 313l-419 420l-105 -105l105 -104z" />
<glyph unicode="&#xaa;" d="M270 809l441 442l442 -442l-442 -440zM502 809l104 -104l211 210l105 -106l-211 -209l106 -104l313 313l-419 420l-105 -105l105 -104z" />
<glyph unicode="&#xab;" d="M270 809l441 442l442 -442l-442 -440zM502 809l104 -104l211 210l105 -106l-211 -209l106 -104l313 313l-419 420l-105 -105l105 -104z" />
<glyph unicode="&#xac;" d="M270 809l441 442l442 -442l-442 -440zM502 809l104 -104l211 210l105 -106l-211 -209l106 -104l313 313l-419 420l-105 -105l105 -104z" />
<glyph unicode="&#xad;" horiz-adv-x="1284" d="M180 526v181q0 14 14.5 25t36.5 11h824q21 0 36 -11t15 -25v-181q0 -16 -16.5 -25t-34.5 -9h-824q-17 0 -34 9t-17 25z" />
<glyph unicode="&#xae;" d="M270 809l441 442l442 -442l-442 -440zM502 809l104 -104l211 210l105 -106l-211 -209l106 -104l313 313l-419 420l-105 -105l105 -104z" />
<glyph unicode="&#xaf;" d="M270 809l441 442l442 -442l-442 -440zM502 809l104 -104l211 210l105 -106l-211 -209l106 -104l313 313l-419 420l-105 -105l105 -104z" />
<glyph unicode="&#xb0;" d="M270 809l441 442l442 -442l-442 -440zM502 809l104 -104l211 210l105 -106l-211 -209l106 -104l313 313l-419 420l-105 -105l105 -104z" />
<glyph unicode="&#xb1;" d="M270 809l441 442l442 -442l-442 -440zM502 809l104 -104l211 210l105 -106l-211 -209l106 -104l313 313l-419 420l-105 -105l105 -104z" />
<glyph unicode="&#xb2;" d="M270 809l441 442l442 -442l-442 -440zM502 809l104 -104l211 210l105 -106l-211 -209l106 -104l313 313l-419 420l-105 -105l105 -104z" />
<glyph unicode="&#xb3;" d="M270 809l441 442l442 -442l-442 -440zM502 809l104 -104l211 210l105 -106l-211 -209l106 -104l313 313l-419 420l-105 -105l105 -104z" />
<glyph unicode="&#xb4;" d="M270 809l441 442l442 -442l-442 -440zM502 809l104 -104l211 210l105 -106l-211 -209l106 -104l313 313l-419 420l-105 -105l105 -104z" />
<glyph unicode="&#xb5;" d="M270 809l441 442l442 -442l-442 -440zM502 809l104 -104l211 210l105 -106l-211 -209l106 -104l313 313l-419 420l-105 -105l105 -104z" />
<glyph unicode="&#xb6;" horiz-adv-x="1585" d="M80 1022q0 117 27 205t85.5 153.5t158 99t239.5 33.5h381q10 0 22.5 -12.5t12.5 -21.5v-1815q0 -55 -45 -63l-197 -31q-2 0 -6.5 -1t-7.5 -1q-43 0 -43 45v928l-117 -4h-35q-82 0 -147 11.5t-128.5 43.5t-105.5 85t-68 140.5t-26 204.5zM426 1022q0 -52 6 -89t21 -62 t32 -39.5t49.5 -22.5t62 -10.5t79.5 -3.5h31v460h-31q-58 0 -91.5 -2t-65.5 -10.5t-47 -23t-27 -42t-15.5 -63.5t-3.5 -92zM1151 -346v1792q0 56 45 61l197 31q6 2 14 2q45 0 45 -45v-1790q0 -55 -45 -63l-197 -31q-2 0 -7 -1t-7 -1q-19 0 -32 11t-13 34z" />
<glyph unicode="&#xb7;" horiz-adv-x="538" d="M90 457v245q0 20 13 34t30 14h275q17 0 30 -14t13 -34v-245q0 -20 -12.5 -32.5t-30.5 -12.5h-275q-18 0 -30.5 12.5t-12.5 32.5z" />
<glyph unicode="&#xb8;" d="M270 809l441 442l442 -442l-442 -440zM502 809l104 -104l211 210l105 -106l-211 -209l106 -104l313 313l-419 420l-105 -105l105 -104z" />
<glyph unicode="&#xb9;" d="M270 809l441 442l442 -442l-442 -440zM502 809l104 -104l211 210l105 -106l-211 -209l106 -104l313 313l-419 420l-105 -105l105 -104z" />
<glyph unicode="&#xba;" d="M270 809l441 442l442 -442l-442 -440zM502 809l104 -104l211 210l105 -106l-211 -209l106 -104l313 313l-419 420l-105 -105l105 -104z" />
<glyph unicode="&#xbb;" d="M270 809l441 442l442 -442l-442 -440zM502 809l104 -104l211 210l105 -106l-211 -209l106 -104l313 313l-419 420l-105 -105l105 -104z" />
<glyph unicode="&#xbc;" d="M270 809l441 442l442 -442l-442 -440zM502 809l104 -104l211 210l105 -106l-211 -209l106 -104l313 313l-419 420l-105 -105l105 -104z" />
<glyph unicode="&#xbd;" d="M270 809l441 442l442 -442l-442 -440zM502 809l104 -104l211 210l105 -106l-211 -209l106 -104l313 313l-419 420l-105 -105l105 -104z" />
<glyph unicode="&#xbe;" d="M270 809l441 442l442 -442l-442 -440zM502 809l104 -104l211 210l105 -106l-211 -209l106 -104l313 313l-419 420l-105 -105l105 -104z" />
<glyph unicode="&#xbf;" d="M270 809l441 442l442 -442l-442 -440zM502 809l104 -104l211 210l105 -106l-211 -209l106 -104l313 313l-419 420l-105 -105l105 -104z" />
<glyph unicode="&#xc0;" d="M270 809l441 442l442 -442l-442 -440zM502 809l104 -104l211 210l105 -106l-211 -209l106 -104l313 313l-419 420l-105 -105l105 -104z" />
<glyph unicode="&#xc1;" d="M270 809l441 442l442 -442l-442 -440zM502 809l104 -104l211 210l105 -106l-211 -209l106 -104l313 313l-419 420l-105 -105l105 -104z" />
<glyph unicode="&#xc2;" d="M270 809l441 442l442 -442l-442 -440zM502 809l104 -104l211 210l105 -106l-211 -209l106 -104l313 313l-419 420l-105 -105l105 -104z" />
<glyph unicode="&#xc3;" d="M270 809l441 442l442 -442l-442 -440zM502 809l104 -104l211 210l105 -106l-211 -209l106 -104l313 313l-419 420l-105 -105l105 -104z" />
<glyph unicode="&#xc4;" d="M270 809l441 442l442 -442l-442 -440zM502 809l104 -104l211 210l105 -106l-211 -209l106 -104l313 313l-419 420l-105 -105l105 -104z" />
<glyph unicode="&#xc5;" d="M270 809l441 442l442 -442l-442 -440zM502 809l104 -104l211 210l105 -106l-211 -209l106 -104l313 313l-419 420l-105 -105l105 -104z" />
<glyph unicode="&#xc6;" d="M270 809l441 442l442 -442l-442 -440zM502 809l104 -104l211 210l105 -106l-211 -209l106 -104l313 313l-419 420l-105 -105l105 -104z" />
<glyph unicode="&#xc7;" d="M270 809l441 442l442 -442l-442 -440zM502 809l104 -104l211 210l105 -106l-211 -209l106 -104l313 313l-419 420l-105 -105l105 -104z" />
<glyph unicode="&#xc8;" d="M270 809l441 442l442 -442l-442 -440zM502 809l104 -104l211 210l105 -106l-211 -209l106 -104l313 313l-419 420l-105 -105l105 -104z" />
<glyph unicode="&#xc9;" horiz-adv-x="1748" d="M174 29v1104q0 12 10.5 20t24.5 8h811q14 0 24.5 -8t10.5 -20v-201q0 -13 -10.5 -22t-24.5 -9h-469v-242h416q14 0 24 -9t10 -21v-201q0 -12 -10 -20.5t-24 -8.5h-416v-352q0 -21 -16.5 -34t-38.5 -13h-287q-14 0 -24.5 8.5t-10.5 20.5zM1198 29v1075q0 22 33 26l311 52 h6q12 0 19.5 -8.5t7.5 -20.5v-1124q0 -12 -10.5 -20.5t-24.5 -8.5h-307q-14 0 -24.5 8.5t-10.5 20.5z" />
<glyph unicode="&#xca;" d="M270 809l441 442l442 -442l-442 -440zM502 809l104 -104l211 210l105 -106l-211 -209l106 -104l313 313l-419 420l-105 -105l105 -104z" />
<glyph unicode="&#xcb;" d="M270 809l441 442l442 -442l-442 -440zM502 809l104 -104l211 210l105 -106l-211 -209l106 -104l313 313l-419 420l-105 -105l105 -104z" />
<glyph unicode="&#xcc;" d="M270 809l441 442l442 -442l-442 -440zM502 809l104 -104l211 210l105 -106l-211 -209l106 -104l313 313l-419 420l-105 -105l105 -104z" />
<glyph unicode="&#xcd;" d="M270 809l441 442l442 -442l-442 -440zM502 809l104 -104l211 210l105 -106l-211 -209l106 -104l313 313l-419 420l-105 -105l105 -104z" />
<glyph unicode="&#xce;" d="M270 809l441 442l442 -442l-442 -440zM502 809l104 -104l211 210l105 -106l-211 -209l106 -104l313 313l-419 420l-105 -105l105 -104z" />
<glyph unicode="&#xcf;" d="M270 809l441 442l442 -442l-442 -440zM502 809l104 -104l211 210l105 -106l-211 -209l106 -104l313 313l-419 420l-105 -105l105 -104z" />
<glyph unicode="&#xd0;" d="M270 809l441 442l442 -442l-442 -440zM502 809l104 -104l211 210l105 -106l-211 -209l106 -104l313 313l-419 420l-105 -105l105 -104z" />
<glyph unicode="&#xd1;" horiz-adv-x="2148" d="M174 29v1104q0 12 10.5 20t24.5 8h811q14 0 24.5 -8t10.5 -20v-201q0 -13 -10.5 -22t-24.5 -9h-469v-242h416q14 0 24 -9t10 -21v-201q0 -12 -10 -20.5t-24 -8.5h-416v-352q0 -21 -16.5 -34t-38.5 -13h-287q-14 0 -24.5 8.5t-10.5 20.5zM1198 29v1075q0 22 33 26l311 52 h6q12 0 19.5 -8.5t7.5 -20.5v-883h481q15 0 26 -9t11 -21v-211q0 -12 -11 -20.5t-26 -8.5h-823q-14 0 -24.5 8.5t-10.5 20.5z" />
<glyph unicode="&#xd2;" d="M270 809l441 442l442 -442l-442 -440zM502 809l104 -104l211 210l105 -106l-211 -209l106 -104l313 313l-419 420l-105 -105l105 -104z" />
<glyph unicode="&#xd3;" d="M270 809l441 442l442 -442l-442 -440zM502 809l104 -104l211 210l105 -106l-211 -209l106 -104l313 313l-419 420l-105 -105l105 -104z" />
<glyph unicode="&#xd4;" d="M270 809l441 442l442 -442l-442 -440zM502 809l104 -104l211 210l105 -106l-211 -209l106 -104l313 313l-419 420l-105 -105l105 -104z" />
<glyph unicode="&#xd5;" d="M270 809l441 442l442 -442l-442 -440zM502 809l104 -104l211 210l105 -106l-211 -209l106 -104l313 313l-419 420l-105 -105l105 -104z" />
<glyph unicode="&#xd6;" d="M270 809l441 442l442 -442l-442 -440zM502 809l104 -104l211 210l105 -106l-211 -209l106 -104l313 313l-419 420l-105 -105l105 -104z" />
<glyph unicode="&#xd7;" d="M270 809l441 442l442 -442l-442 -440zM502 809l104 -104l211 210l105 -106l-211 -209l106 -104l313 313l-419 420l-105 -105l105 -104z" />
<glyph unicode="&#xd8;" d="M270 809l441 442l442 -442l-442 -440zM502 809l104 -104l211 210l105 -106l-211 -209l106 -104l313 313l-419 420l-105 -105l105 -104z" />
<glyph unicode="&#xd9;" d="M270 809l441 442l442 -442l-442 -440zM502 809l104 -104l211 210l105 -106l-211 -209l106 -104l313 313l-419 420l-105 -105l105 -104z" />
<glyph unicode="&#xda;" d="M270 809l441 442l442 -442l-442 -440zM502 809l104 -104l211 210l105 -106l-211 -209l106 -104l313 313l-419 420l-105 -105l105 -104z" />
<glyph unicode="&#xdb;" d="M270 809l441 442l442 -442l-442 -440zM502 809l104 -104l211 210l105 -106l-211 -209l106 -104l313 313l-419 420l-105 -105l105 -104z" />
<glyph unicode="&#xdc;" d="M270 809l441 442l442 -442l-442 -440zM502 809l104 -104l211 210l105 -106l-211 -209l106 -104l313 313l-419 420l-105 -105l105 -104z" />
<glyph unicode="&#xdd;" d="M270 809l441 442l442 -442l-442 -440zM502 809l104 -104l211 210l105 -106l-211 -209l106 -104l313 313l-419 420l-105 -105l105 -104z" />
<glyph unicode="&#xde;" d="M270 809l441 442l442 -442l-442 -440zM502 809l104 -104l211 210l105 -106l-211 -209l106 -104l313 313l-419 420l-105 -105l105 -104z" />
<glyph unicode="&#xdf;" horiz-adv-x="2433" d="M127 799q0 108 37.5 184.5t107.5 118t156 60t197 18.5q198 0 409 -54q45 -13 45 -47q0 -8 -2 -12l-30 -160q-2 -13 -11.5 -23t-23.5 -10q-2 0 -8 3q-231 51 -338 51q-83 0 -122.5 -19.5t-39.5 -70.5q0 -19 9 -33.5t19 -23t31 -15.5t31.5 -9.5t34.5 -6.5q41 -6 90 -15 q48 -7 81 -13.5t79 -20t77.5 -31t65.5 -46.5t54.5 -65.5t34 -89.5t13.5 -117q0 -101 -40.5 -175t-112 -115t-155.5 -59.5t-185 -18.5q-238 0 -459 61q-35 12 -35 49v8l29 158q5 33 35 33q16 0 24 -2q84 -19 119.5 -27t105 -18t121.5 -10q90 0 129 21t39 71q0 24 -10 41 t-29.5 27t-36 14.5t-42.5 9.5q-66 9 -93 14q-40 6 -72.5 13t-76 21t-76.5 31t-67.5 45.5t-57 63t-37 83.5t-14.5 108zM1315 799q0 87 25 153.5t68.5 109t107.5 69.5t136 38t160 11q199 0 410 -54q45 -13 45 -47q0 -8 -2 -12l-31 -160q-2 -13 -11 -23t-23 -10q-3 0 -9 3 q-231 51 -338 51q-83 0 -122 -19.5t-39 -70.5q0 -19 9 -33.5t19 -23t31 -15.5t31.5 -9.5t34.5 -6.5q41 -6 90 -15q48 -7 81 -13.5t79 -20t77.5 -31t65.5 -46.5t54.5 -65.5t34 -89.5t13.5 -117q0 -101 -40.5 -175t-112 -115t-155.5 -59.5t-185 -18.5q-238 0 -459 61 q-35 12 -35 49v8l29 158q5 33 35 33q16 0 24 -2q84 -19 119.5 -27t105 -18t121.5 -10q90 0 129 21t39 71q0 24 -10 41t-30 27t-36.5 14.5t-42.5 9.5q-62 9 -92 14q-40 6 -72.5 13t-76 21t-76.5 31t-67.5 45.5t-57 63t-37 83.5t-14.5 108z" />
<glyph unicode="&#xe0;" d="M270 809l441 442l442 -442l-442 -440zM502 809l104 -104l211 210l105 -106l-211 -209l106 -104l313 313l-419 420l-105 -105l105 -104z" />
<glyph unicode="&#xe1;" d="M270 809l441 442l442 -442l-442 -440zM502 809l104 -104l211 210l105 -106l-211 -209l106 -104l313 313l-419 420l-105 -105l105 -104z" />
<glyph unicode="&#xe2;" d="M270 809l441 442l442 -442l-442 -440zM502 809l104 -104l211 210l105 -106l-211 -209l106 -104l313 313l-419 420l-105 -105l105 -104z" />
<glyph unicode="&#xe3;" d="M270 809l441 442l442 -442l-442 -440zM502 809l104 -104l211 210l105 -106l-211 -209l106 -104l313 313l-419 420l-105 -105l105 -104z" />
<glyph unicode="&#xe4;" d="M270 809l441 442l442 -442l-442 -440zM502 809l104 -104l211 210l105 -106l-211 -209l106 -104l313 313l-419 420l-105 -105l105 -104z" />
<glyph unicode="&#xe5;" d="M270 809l441 442l442 -442l-442 -440zM502 809l104 -104l211 210l105 -106l-211 -209l106 -104l313 313l-419 420l-105 -105l105 -104z" />
<glyph unicode="&#xe6;" d="M270 809l441 442l442 -442l-442 -440zM502 809l104 -104l211 210l105 -106l-211 -209l106 -104l313 313l-419 420l-105 -105l105 -104z" />
<glyph unicode="&#xe7;" d="M270 809l441 442l442 -442l-442 -440zM502 809l104 -104l211 210l105 -106l-211 -209l106 -104l313 313l-419 420l-105 -105l105 -104z" />
<glyph unicode="&#xe8;" d="M270 809l441 442l442 -442l-442 -440zM502 809l104 -104l211 210l105 -106l-211 -209l106 -104l313 313l-419 420l-105 -105l105 -104z" />
<glyph unicode="&#xe9;" d="M270 809l441 442l442 -442l-442 -440zM502 809l104 -104l211 210l105 -106l-211 -209l106 -104l313 313l-419 420l-105 -105l105 -104z" />
<glyph unicode="&#xea;" d="M270 809l441 442l442 -442l-442 -440zM502 809l104 -104l211 210l105 -106l-211 -209l106 -104l313 313l-419 420l-105 -105l105 -104z" />
<glyph unicode="&#xeb;" d="M270 809l441 442l442 -442l-442 -440zM502 809l104 -104l211 210l105 -106l-211 -209l106 -104l313 313l-419 420l-105 -105l105 -104z" />
<glyph unicode="&#xec;" d="M270 809l441 442l442 -442l-442 -440zM502 809l104 -104l211 210l105 -106l-211 -209l106 -104l313 313l-419 420l-105 -105l105 -104z" />
<glyph unicode="&#xed;" d="M270 809l441 442l442 -442l-442 -440zM502 809l104 -104l211 210l105 -106l-211 -209l106 -104l313 313l-419 420l-105 -105l105 -104z" />
<glyph unicode="&#xee;" d="M270 809l441 442l442 -442l-442 -440zM502 809l104 -104l211 210l105 -106l-211 -209l106 -104l313 313l-419 420l-105 -105l105 -104z" />
<glyph unicode="&#xef;" d="M270 809l441 442l442 -442l-442 -440zM502 809l104 -104l211 210l105 -106l-211 -209l106 -104l313 313l-419 420l-105 -105l105 -104z" />
<glyph unicode="&#xf0;" d="M270 809l441 442l442 -442l-442 -440zM502 809l104 -104l211 210l105 -106l-211 -209l106 -104l313 313l-419 420l-105 -105l105 -104z" />
<glyph unicode="&#xf1;" d="M270 809l441 442l442 -442l-442 -440zM502 809l104 -104l211 210l105 -106l-211 -209l106 -104l313 313l-419 420l-105 -105l105 -104z" />
<glyph unicode="&#xf2;" d="M270 809l441 442l442 -442l-442 -440zM502 809l104 -104l211 210l105 -106l-211 -209l106 -104l313 313l-419 420l-105 -105l105 -104z" />
<glyph unicode="&#xf3;" d="M270 809l441 442l442 -442l-442 -440zM502 809l104 -104l211 210l105 -106l-211 -209l106 -104l313 313l-419 420l-105 -105l105 -104z" />
<glyph unicode="&#xf4;" d="M270 809l441 442l442 -442l-442 -440zM502 809l104 -104l211 210l105 -106l-211 -209l106 -104l313 313l-419 420l-105 -105l105 -104z" />
<glyph unicode="&#xf5;" d="M270 809l441 442l442 -442l-442 -440zM502 809l104 -104l211 210l105 -106l-211 -209l106 -104l313 313l-419 420l-105 -105l105 -104z" />
<glyph unicode="&#xf6;" d="M270 809l441 442l442 -442l-442 -440zM502 809l104 -104l211 210l105 -106l-211 -209l106 -104l313 313l-419 420l-105 -105l105 -104z" />
<glyph unicode="&#xf7;" d="M270 809l441 442l442 -442l-442 -440zM502 809l104 -104l211 210l105 -106l-211 -209l106 -104l313 313l-419 420l-105 -105l105 -104z" />
<glyph unicode="&#xf8;" d="M270 809l441 442l442 -442l-442 -440zM502 809l104 -104l211 210l105 -106l-211 -209l106 -104l313 313l-419 420l-105 -105l105 -104z" />
<glyph unicode="&#xf9;" d="M270 809l441 442l442 -442l-442 -440zM502 809l104 -104l211 210l105 -106l-211 -209l106 -104l313 313l-419 420l-105 -105l105 -104z" />
<glyph unicode="&#xfa;" d="M270 809l441 442l442 -442l-442 -440zM502 809l104 -104l211 210l105 -106l-211 -209l106 -104l313 313l-419 420l-105 -105l105 -104z" />
<glyph unicode="&#xfb;" d="M270 809l441 442l442 -442l-442 -440zM502 809l104 -104l211 210l105 -106l-211 -209l106 -104l313 313l-419 420l-105 -105l105 -104z" />
<glyph unicode="&#xfc;" d="M270 809l441 442l442 -442l-442 -440zM502 809l104 -104l211 210l105 -106l-211 -209l106 -104l313 313l-419 420l-105 -105l105 -104z" />
<glyph unicode="&#xfd;" d="M270 809l441 442l442 -442l-442 -440zM502 809l104 -104l211 210l105 -106l-211 -209l106 -104l313 313l-419 420l-105 -105l105 -104z" />
<glyph unicode="&#xfe;" d="M270 809l441 442l442 -442l-442 -440zM502 809l104 -104l211 210l105 -106l-211 -209l106 -104l313 313l-419 420l-105 -105l105 -104z" />
<glyph unicode="&#xff;" d="M270 809l441 442l442 -442l-442 -440zM502 809l104 -104l211 210l105 -106l-211 -209l106 -104l313 313l-419 420l-105 -105l105 -104z" />
<glyph unicode="&#x2000;" horiz-adv-x="1021" />
<glyph unicode="&#x2001;" horiz-adv-x="2042" />
<glyph unicode="&#x2002;" horiz-adv-x="1021" />
<glyph unicode="&#x2003;" horiz-adv-x="2042" />
<glyph unicode="&#x2004;" horiz-adv-x="680" />
<glyph unicode="&#x2005;" horiz-adv-x="510" />
<glyph unicode="&#x2006;" horiz-adv-x="340" />
<glyph unicode="&#x2007;" horiz-adv-x="340" />
<glyph unicode="&#x2008;" horiz-adv-x="255" />
<glyph unicode="&#x2009;" horiz-adv-x="408" />
<glyph unicode="&#x200a;" horiz-adv-x="113" />
<glyph unicode="&#x2010;" horiz-adv-x="1284" d="M180 526v181q0 14 14.5 25t36.5 11h824q21 0 36 -11t15 -25v-181q0 -16 -16.5 -25t-34.5 -9h-824q-17 0 -34 9t-17 25z" />
<glyph unicode="&#x2011;" horiz-adv-x="1284" d="M180 526v181q0 14 14.5 25t36.5 11h824q21 0 36 -11t15 -25v-181q0 -16 -16.5 -25t-34.5 -9h-824q-17 0 -34 9t-17 25z" />
<glyph unicode="&#x2012;" horiz-adv-x="1284" d="M180 526v181q0 14 14.5 25t36.5 11h824q21 0 36 -11t15 -25v-181q0 -16 -16.5 -25t-34.5 -9h-824q-17 0 -34 9t-17 25z" />
<glyph unicode="&#x2013;" horiz-adv-x="1382" d="M180 526v181q0 14 16 25t40 11h912q23 0 39.5 -11t16.5 -25v-181q0 -16 -18 -25t-38 -9h-912q-18 0 -37 9t-19 25z" />
<glyph unicode="&#x2014;" horiz-adv-x="2406" d="M180 526v181q0 14 32 25t81 11h1822q47 0 80 -11t33 -25v-181q0 -16 -36.5 -25t-76.5 -9h-1822q-38 0 -75.5 9t-37.5 25z" />
<glyph unicode="&#x202f;" horiz-adv-x="408" />
<glyph unicode="&#x205f;" horiz-adv-x="510" />
<glyph unicode="&#x25fc;" horiz-adv-x="1167" d="M0 0v1167h1167v-1167h-1167z" />
<glyph unicode="&#xfb01;" d="M270 809l441 442l442 -442l-442 -440zM502 809l104 -104l211 210l105 -106l-211 -209l106 -104l313 313l-419 420l-105 -105l105 -104z" />
<glyph unicode="&#xfb02;" d="M270 809l441 442l442 -442l-442 -440zM502 809l104 -104l211 210l105 -106l-211 -209l106 -104l313 313l-419 420l-105 -105l105 -104z" />
</font>
</defs>
</svg>
